<?xml version="1.0" encoding="UTF-8"?><svg id="Layer_1" xmlns="http://www.w3.org/2000/svg" viewBox="0 0 1024 1024"><defs><style>.cls-1{fill:none;}.cls-2{font-family:HelveticaNowText-Regular, 'Helvetica Now Text ';font-size:139.4px;letter-spacing:0em;stroke:#000;stroke-miterlimit:10;stroke-width:2.4px;}.cls-3{fill:#ebebec;}.cls-4{fill:#ee2a7b;}</style></defs><polygon class="cls-3" points="1019.4 979.1 937.3 0 46.7 35.3 6.3 931 1019.4 979.1"/><g><path class="cls-4" d="M147.2,625.1c0-37.7,8.1-69.2,24.4-94.6,16.3-24.6,46-51.7,89.2-81.5l65.4-46.4c16.7-11.5,28.4-22.4,35.4-32.7,6.9-10.3,10.4-22,10.4-35.1s-5.2-30.4-15.5-40.1c-10.3-9.7-24.4-14.6-42.2-14.6-40.4,0-60.7,23.6-60.7,70.8v8.9h-100.5v-13.1c0-48.8,14.3-86.8,42.8-114.2,28.5-27.4,69-41,121.3-41s89.6,12.1,118.9,36.3c29.7,24.6,44.6,58.1,44.6,100.5s-7,51.9-21.1,73.7c-14.1,21.8-36.6,42.6-67.5,62.4l-73.1,46.4c-13.9,9.1-21.4,16.8-22.6,23.2h186.1v91H147.2Z"/><path class="cls-4" d="M721.7,634.6c-56.3,0-101.1-20-134.4-60.1-33.3-40-50-94.2-50-162.3s16.7-120.9,50-160.6c32.5-39.6,77.3-59.5,134.4-59.5s101.1,19.8,134.4,59.5c32.9,40,49.4,93.6,49.4,160.6s-16.5,122.3-49.4,162.3c-33.3,40-78.1,60.1-134.4,60.1Zm77.3-221.2c0-90-25.8-135-77.3-135s-77.9,45-77.9,135,26,135,77.9,135,77.3-45,77.3-135Z"/></g><text class="cls-2" transform="translate(188.9 844.3)"><tspan x="0" y="0">DE ABRIL</tspan></text><g><g><path class="cls-1" d="M133.4,634.3c0-37.7,8.1-69.2,24.4-94.6,16.3-24.6,46-51.7,89.2-81.5l65.4-46.4c16.7-11.5,28.4-22.4,35.4-32.7,6.9-10.3,10.4-22,10.4-35.1s-5.2-30.4-15.5-40.1c-10.3-9.7-24.4-14.6-42.2-14.6-40.4,0-60.7,23.6-60.7,70.8v8.9h-100.5v-13.1c0-48.8,14.3-86.8,42.8-114.2,28.5-27.4,69-41,121.3-41s89.6,12.1,118.9,36.3c29.7,24.6,44.6,58.1,44.6,100.5s-7,51.9-21.1,73.7c-14.1,21.8-36.6,42.6-67.5,62.4l-73.1,46.4c-13.9,9.1-21.4,16.8-22.6,23.2h186.1v91H133.4Z"/><g><path d="M139.1,626.9c.1-1.6,.3-3.5,.4-5.5,.2-2.1,.4-4.3,.6-6.8,.3-2.4,.5-4.9,.8-7.5,.4-2.5,.7-5.1,1.1-7.7-1.5,7.8-2.6,16.2-2.9,27.4Z"/><path d="M142.1,599.3s0-.1,0-.2c0,.1,0,.2,0,.4,0,0,0-.1,0-.2Z"/><path d="M141.3,640.9c2.7,0,5.7,0,8.7,0-2.9,0-5.9,0-8.7,0Z"/><path d="M237.4,326.4c0,.6,0,1.2,0,1.8-.4,1.6-.8,3.1-1.1,4.4-.3,1.3-.6,2.5-.7,3.5-.2,1-.4,1.9-.5,2.7-.1,.8-.2,1.5-.3,2-.4,2.3-.5,3.2-.7,4.1-.1,.8-.3,1.6-.5,3.7,0,1-.2,2.4-.3,4.3,0,.9,0,2-.1,3.2,0,1.2,0,2.5,0,4,.1,.5,.2,1.4,.3,2.4,0,0-.2,0-.4,0-1.1,0-2.3,0-3.5,0-3.7,0-7.4,0-11,0-7.1,0-13.5,0-16.6,0,0,0-.6,0-1.7,0-1,0-2.4,0-3.8,0-2.7,0-5.4,0-5.1-.2-3.5,.4-11.7,0-18.9,.2-2.6,0,1.9,.1,3.9,.2h-16.5c-6.4,0-8-.2-1-.2-2.3,0-5,0-8.2,0-1.3,0-2.8,0-4.4,0,0,0-.2,0-.3,0,0-.1,0-.2,0-.3,0-2.1,0-4.2,0-6.4,0-2.4,0-4.8,.2-7.3,0-2.5,.3-5.1,.4-7.8,.8-10.6,2.3-22.3,5.6-34.2,.9-2.9,1.7-6,2.8-8.9,.5-1.5,1-3,1.6-4.5,.6-1.5,1.2-3,1.8-4.4,.3-.7,.6-1.5,.9-2.2l1-2.2c.7-1.5,1.4-2.9,2.1-4.4,1.6-2.8,3-5.8,4.8-8.5l1.3-2.1,.7-1.1,.7-1c.9-1.4,1.9-2.7,2.8-4.1,1-1.3,2-2.6,3-3.9l1.5-2,1.6-1.9c4.3-5.1,9.2-9.7,14.2-13.9,1.3-1,2.6-2.1,3.9-3.1,1.3-1,2.7-1.9,4-2.9l2-1.4c.7-.5,1.4-.9,2.1-1.3,1.4-.9,2.8-1.7,4.1-2.6,1.4-.8,2.8-1.6,4.2-2.4l2.1-1.2c.7-.4,1.4-.7,2.2-1.1,1.4-.7,2.9-1.4,4.3-2.1,1.5-.6,2.9-1.2,4.3-1.9,2.9-1.3,5.8-2.3,8.7-3.3,1.4-.6,2.9-.9,4.3-1.4,1.4-.4,2.9-.9,4.3-1.3,2.9-.7,5.7-1.5,8.5-2.2,2.8-.6,5.6-1.2,8.3-1.7,2.7-.4,5.4-.9,8-1.3,2.6-.3,5.1-.7,7.6-1,4.9-.4,9.5-.9,13.8-1,8.5-.5,15.6-.4,20.6-.3-1.5,0-3.4-.2-5.6-.2-2.2,0-4.7,0-7.1,0-1.2,0-2.4,0-3.6,0-1.2,0-2.3,0-3.4,.1-2.1,0-4,0-5.4,0,3-.2,5.6-.4,7.9-.5,2.3-.1,4.3,0,6.1-.1,1.8,0,3.4,0,4.8,0,1.5,0,2.8,0,4.1,0,2.3,.3,8.9,.5,16,1.1,1.8,.2,3.6,.3,5.4,.5,1.8,.2,3.5,.4,5.2,.7,3.4,.4,6.3,1,8.5,1.5,1.1,0,2.3,0,3.4,.2l5.8,1.3c12.8,2.5,19.6,5.1,23.6,6.4,4,1.5,5.2,1.9,6.2,2.3,1,.4,1.9,.8,5.1,2.2,3.2,1.5,8.8,3.9,18.4,10,1.4,.8,2.7,1.8,4,2.7,1.3,.9,2.5,1.7,3.7,2.6,1.1,.9,2.3,1.7,3.3,2.6,.5,.4,1.1,.8,1.6,1.2,.5,.4,1,.8,1.5,1.3,1.9,1.7,3.8,3.2,5.4,4.8,1.6,1.6,3.2,3,4.6,4.5,5.7,6,9.8,11.3,13.5,17.6-1.2-1.8-4.1-6.8-.4-1.1,0,.3,.8,1.4,1.7,2.9,.9,1.6,2.1,3.6,3.2,5.7,.5,1.1,1.1,2.2,1.6,3.2,.5,1.1,1,2.1,1.4,3,.8,1.9,1.4,3.5,1.6,4.3,.6,1.5,1.4,4,2.4,6.7,.4,1.4,.8,2.8,1.2,4.2,.4,1.4,.8,2.8,1.1,4.1,.6,2.6,1.2,4.8,1.4,5.9,.2,1.1,.3,1.1,.1-.8,.2,1.9,1.2,7.6,1.4,11.5,0,1,.2,1.8,.2,2.5,0,.6,0,1.1,0,1.2,0,.3,0-.7-.5-3.6,0,.8,.2,1.6,.3,2.4,0,.8,.1,1.6,.2,2.4,.1,1.6,.2,3.2,.3,4.7,0,3,.2,5.8,.2,8.2,0-2.8,0-5.7,0-8.5,.6,11.2-.1,19.7-1.1,27.3-1.1,7.5-2.5,14-4.4,20.9,.9-2.6,1.6-5.2,2.3-7.8-3,12.9-7.8,23-10.5,27.4,2-4,3.9-8.2,5.4-12.4-1.9,5.1-4,9.6-6.1,13.6-1,2.1-2.2,3.9-3.2,5.8-1.1,1.8-2.2,3.7-3.4,5.4-4.6,6.9-9.5,13.2-15.8,20,1.5-1.6,3-3.2,4.4-4.9-1,1.1-2.1,2.6-3.6,4.2-.7,.8-1.6,1.7-2.4,2.6-.9,.9-1.8,1.9-2.8,2.9-4,4-9.1,8.7-15,13.6-5.9,4.9-12.7,10.1-20,15.1-1.8,1.3-3.7,2.6-5.6,3.8-1.9,1.3-3.8,2.5-5.8,3.8-3.9,2.5-7.9,5.1-11.9,7.6-15.9,10.2-31.7,20.4-44.7,28.7-3.3,2.1-6.3,4.1-9.2,5.9-1.4,.9-2.8,1.8-4.1,2.7-1.3,.9-2.6,1.8-3.8,2.6-4.8,3.4-8.4,6.4-10.6,8.5,2.8-2.4,5.7-4.5,8.7-6.5-2.7,2-5.3,4.1-7.8,6.3l-1.9,1.8c-.9,.9-1.8,1.8-2.6,2.8-.8,1-1.7,1.9-2.3,2.9-.3,.5-.7,1-1,1.5l-.8,1.5c.7-1.4,2.4-4.2,4.8-7.1,.6-.7,1.2-1.4,1.8-2,.4-.4,.8-.9,1.1-1.2,.7-.8,1.3-1.3,1.7-1.7-.7,.6-1.4,1.2-2.2,1.9-.2,.2-.4,.4-.6,.5l-.3,.3c0,0-.3,.3-.4,.4-.6,.6-1.3,1.3-2,2-2.6,2.8-5,6.2-6.3,9.6-.6,1.7-1.1,3.5-1.6,5.5l-.2,.8v.4c0,0-.1,.2-.1,.2h.2c.5,.1,.9,.3,1.4,.4,.9,.2,1.9,.4,2.9,.7,1,.2,2,.4,3,.7h.4c.1,.1,.3,0,.5,0h1.1c.7,0,1.5,0,2.2,0,2.7,0,5.5,0,8.3,0,14.4,0,32,0,51.1,0,36.7,0,79.3,0,116.3,0,0,19.1,0,36.6,0,50.8,0,7.8,0,14.7,0,20.5,0,2.9,0,5.5,0,7.8,0,.7,0,1.2,0,1.7,0,.1,0,.2,0,.3-2,0-2-.2-1.7-.3,.3-.1,.9-.2,.9-.2-.6,0-1,0-1.4,0-1.5,0-2.7,0-3.7,0-1.9,0-2.8,0-3.6,.1-1.7,0-3,.1-11,.1-4.4,0,.9-.3,3.4-.3-7,0-13.5,0-14,0,8.7,.1,5,.5,8.7,.8h-20.5s.9-.3,.9-.3c-4.6,0-11.6,.7-31.8,.6-34,0-70.9,0-105.1,0,.5-.2,7.7-.2,14.9-.3-4.6,0-11.6,0-15.8,0,8.3,.3-14.3,.2-7.9,.3-25,.6-57.4,0-79.5,.5-1,.3-12.8,2.7-24.4,5.2s-11.5,2.5-15.8,3.4c-4.3,1-7.1,1.7-7.1,1.8-6.9,0-13.7,0-15.8,0,1.8,.2,15.3,.2,22.4,.1l1.2-.4c16.5-.1,3.9,.2,20,.2,.9,.3-14,.4-27,.4,11.7,0,23.5,.2,28.2,0,11,.1-1.2,.4,12.1,.5,9.5,0,21.9-.4,32.8-.2h-.2c26.5,.4,40.5-.4,64.7,0h-2.6c8.5,.3,25.4,0,40.8,.2-4.4,0-8.2-.3,1-.3,17.7,.2,29.8,0,42.8,.2l12.4-.3c18.3,0,51.6,0,93.3,0,0-30.6,0-66.9-.1-103.9-40.9,0-82.5,.1-118.2,.2-16.9,0-32.3,0-45.6,0-5.9,0-11.3,0-16.1,0-.3,0-.6,0-.9,0h-.2s-.1,0-.1,0c0,0,0,0,0,0,0-.1,0-.2,.1-.4,0,0,0,.2,0,.2,0-.3,.3-.6,.5-.9l.2-.2h0c0,0,0-.1,0-.1l.2-.2c1.1-1,2.2-2,3.4-3,2.4-2,5-3.9,7.7-5.8,.7-.5,1.4-.9,2.1-1.4,.7-.5,1.5-.9,2.2-1.4,1.5-1,3-1.9,4.5-2.9,12.3-7.8,25.5-16.2,39.4-25,7-4.4,14.1-8.9,21.3-13.5,1.8-1.2,3.6-2.3,5.5-3.5,1.8-1.2,3.7-2.4,5.6-3.6,1.8-1.2,3.7-2.5,5.5-3.8,1.8-1.3,3.7-2.6,5.5-3.9,14.6-10.6,28.8-22.7,41-37,6.1-7.2,11.6-14.9,16.2-23.1,1.2-2,2.2-4.2,3.3-6.2,1-2.1,2.1-4.2,3-6.4,1.9-4.3,3.5-8.7,4.9-13.1,5.7-17.8,7.3-36.2,6.3-53.4-.4-8.6-1.6-17.1-3.3-25.1-.8-4.1-2-8-3.1-11.8-.7-1.9-1.3-3.8-2-5.7-.6-1.9-1.5-3.7-2.2-5.5-.4-.9-.7-1.8-1.1-2.7-.4-.9-.8-1.7-1.2-2.6-.8-1.7-1.6-3.4-2.6-5.1-.9-1.6-1.8-3.3-2.7-4.8-1-1.5-2-3.1-2.9-4.6-4-5.9-8.2-11.3-12.6-15.9-5.3-5.9-12.2-12.3-19.8-17.8-7.6-5.6-15.9-10.4-23.3-13.9,8.1,4.1,5.2,2.9-1.1-.2-2.8-1.3-5.3-2.4-7.6-3.3-2.2-.9-4.2-1.6-5.9-2.2-3.4-1.2-5.7-1.9-7.3-2.5-1.6-.5-2.6-.8-3.1-.9-.6-.1-.8-.2-1-.2-.4,0-.9-.2-4.3-1.1-3.4-.8-9.7-2.5-21.9-4.4-3.4-.6-7.3-1-11.7-1.5-4.4-.4-9.4-.8-14.8-1-10.7-.5-23.2-.5-36.8,.7-1.7,.2-3.4,.3-5.2,.5-1.7,.2-3.5,.4-5.3,.7-3.5,.4-7.1,1-10.8,1.6-1.8,.3-3.6,.7-5.5,1.1-1.8,.4-3.7,.8-5.5,1.2-3.7,1-7.4,1.8-11.1,3.1-7.5,2.2-14.9,5.1-22.2,8.6-7.3,3.4-14.4,7.6-21.1,12.4-3.4,2.3-6.5,5-9.7,7.6l-4.6,4.1c-1.5,1.4-2.9,2.9-4.4,4.3-5.7,5.9-10.9,12.2-15.3,18.8-4.4,6.7-8.2,13.6-11.3,20.6-.8,1.7-1.5,3.5-2.2,5.3-.4,.9-.7,1.7-1.1,2.6-.3,.9-.6,1.8-.9,2.6-.6,1.8-1.2,3.5-1.8,5.2-.5,1.7-1,3.5-1.5,5.2-.2,.9-.5,1.7-.7,2.6-.2,.9-.4,1.7-.6,2.6-.4,1.7-.8,3.4-1.2,5.1-.3,1.7-.6,3.3-1,5-.3,1.6-.7,3.3-.9,4.9-1,6.4-1.7,12.6-2,18.3,0,1.4-.2,2.8-.3,4.2,0,1.4-.2,2.7-.2,4.1,0,2.7-.1,5.2-.2,7.6,0,6.8,0,13,0,18.4,7.5,0,11.9,0,15.7,0,13.3-.2,28.3-.2,43.2-.2,7.5,0,14.9,0,22.1,0,7.9,0,15.5,0,22.7-.1h-4.6c2.7,0,6,0,12.3,0,0-3.8,0-8.2,0-13.2,0-1.6,0-3.4,0-5.2,0-1.7,.1-3.4,.3-5.3,.5-7.3,1.6-15.7,4.6-24.1,1.5-4.2,3.4-8.4,6.1-12.2,2.6-3.8,5.8-7.3,9.7-10.1,.9-.7,2-1.3,3-2,1.1-.6,2.1-1.2,3.2-1.7,2.2-1.1,4.5-2,6.9-2.8,4.8-1.5,9.9-2.4,15.1-2.8,5.2-.3,10.5-.3,15.6,.3,5.1,.6,10,1.7,14.4,3.4,8.9,3.3,16.2,9.3,20.7,16,4.6,6.7,6.6,14.1,7.4,20.4,.4,3.2,.6,6.1,.6,8.7,0,2.6,0,4.7-.3,6.5,.2-1.3,.2-2.7,.3-4-.1,6.6-1.2,11.1-2.2,14.6-1,3.5-2.1,5.9-3.2,8.1-1.1,2.2-2.3,4.2-3.9,6.6-1.7,2.4-3.9,5.3-7.5,9.2,1.1-.9-2.1,3.1-6.9,7.6-4.8,4.6-11.3,9.6-15,12.3l.2-.3c-5.7,4.1-14.9,10.8-25.1,18.1-10.2,7.3-21.3,15.4-30.7,22.1l.6-.7c-3.9,2.8-8.7,6.3-13.8,10-2.6,1.8-5.3,3.7-8,5.6-2.7,1.9-5.4,3.9-8.1,5.8-10.8,7.8-20.7,15.7-26,20.2-12.3,10.2-27.8,23.7-41.6,40.9-3.4,4.3-6.8,8.8-9.8,13.8-.8,1.2-1.5,2.4-2.2,3.7-.7,1.2-1.4,2.5-2.1,3.7-1.3,2.6-2.6,5.1-3.7,7.7-4.8,10.4-8.1,21.3-10.4,31.9-2.3,9.1-3.8,18.4-4.8,27.7l-.2,4.1s0,.7,.3,1.8c.2,1.1,.5,2.7,.9,4.4,.7,3.3,1.9,7.2,3.1,9.2,1.2,2,2.5,2.3,3.6-1.4,.6-1.8,1.1-4.7,1.7-8.7,.1-1,.3-2.1,.4-3.3,.2-1.2,.3-2.4,.5-3.8,.3-2.7,.8-5.7,1.3-9.1l.2,.9c.4-3.6,.9-7.1,1.5-10.7,.5-3.2,1.2-5.9,1.6-8.2,.5-2.3,1-4.2,1.3-5.6,.7-2.9,1.1-4.1,1.1-3.7-.8,2.8-1.5,5.7-2.2,8.5-.6,2.9-1.2,5.7-1.7,8.7,.5-3.2,1-5,1.2-5.9,.2-.9,.2-.8,.1-.2-.1,.6-.3,1.8-.5,3.1s-.4,2.8-.6,4c.9-5.3,2.1-10.4,3.1-14.6,.5-2.5-.5,1.8-1.1,3.7,1.4-6.8,3.9-16.1,7.3-23.8,.6-1.5,1.1-2.7,1.5-3.5,.4-.9,.7-1.4,.9-1.9,.4-.8,.5-1,.7-1.2,.1-.2,.3-.5,.9-1.5,.3-.5,.7-1.3,1.2-2.3,.3-.5,.6-1.1,.9-1.8,.4-.7,.8-1.4,1.2-2.2,1.2-2.2,2.5-4.3,3.8-6.4,.7-1.1,1.4-2,2.1-3.1,.7-1,1.4-2,2.2-3l2.3-3c.8-1,1.6-2,2.4-2.9,1.6-2,3.3-3.9,4.9-5.8,6.7-7.6,14-14.7,21.6-21.5,15.2-13.6,31.6-26,48.5-37.8,17-11.9,33.9-23.9,51-36,4.3-3,8.5-6,12.8-9.1,2.1-1.5,4.3-3,6.4-4.6,2.2-1.5,4.4-3.1,6.6-4.7,8.7-6.5,17.1-13.6,24.6-22.3,1.4-1.5-.2,.4-1.9,2.4,4.6-5.1,8.6-10.7,11.7-16.8,3-6.1,5.1-12.5,6.1-18.9,.5-3.2,.9-6.4,1-9.6,.1-3.2,0-6.3-.2-9.5-.3-3.2-.7-6.3-1.4-9.5-.7-3.2-1.6-6.3-2.9-9.4-.3-.9-.6-1.6-.9-2.3-.3-.7-.6-1.3-.9-1.9-.5-1.2-1-2-1.4-2.8-.8-1.5-1.3-2.4-1.9-3.4,.1,.2,0,0-.6-.7-.5-.7-1.3-1.9-2.5-3.3-1.2-1.5-2.8-3.2-4.7-5-2-1.8-4.4-3.8-7.2-5.7-5.6-3.8-13.1-7.1-21.3-8.8-8.2-1.8-17.1-2.2-25.9-1.6-8.8,.6-17.9,2.6-25.9,6.5-8,3.8-14.6,9.5-18.9,15.3-4.4,5.7-7,11.2-8.5,15.1-1.5,3.9-2.2,6.3-2.3,6.6Z"/></g></g><g><path class="cls-1" d="M707.9,643.9c-56.3,0-101.1-20-134.4-60.1-33.3-40-50-94.2-50-162.3s16.7-120.9,50-160.6c32.5-39.6,77.3-59.5,134.4-59.5s101.1,19.8,134.4,59.5c32.9,40,49.4,93.6,49.4,160.6s-16.5,122.3-49.4,162.3c-33.3,40-78.1,60.1-134.4,60.1Zm77.3-221.2c0-90-25.8-135-77.3-135s-77.9,45-77.9,135,26,135,77.9,135,77.3-45,77.3-135Z"/><g><path d="M790.8,420.1c.3-2.2,.3-6,.2-9.6-.2,2.8-.3,5.7-.2,9.6Z"/><path d="M791,410.4s0,0,0,0c0,0,0,0,0,.1,0,0,0,0,0,0Z"/><path d="M778.6,425.2c0,.9,0,1.9,0,2.9,0-1,0-1.9,0-2.9Z"/><path d="M698.9,281.3l-.5,.5c-4.5,.6-5.2,.6-5.8,.6-.6,0-1.1,0-5.2,1-.8,.4-2,.8-3.5,1.3-1.5,.5-3.1,1.1-4.8,1.7-1.6,.7-3.2,1.3-4.6,2-1.3,.7-2.4,1.3-3,1.7,0-.1-3.6,2.1-3.5,1.8-.9,.9-3.6,2.5-5.6,4.2-.7,.7,.6-.4,1.3-.7-.8,.6-1.5,1.3-2.3,2-.7,.7-1.5,1.3-2.2,2-1.8,1.6-2.3,1.8-.5,0-2.9,2.6-8.4,8.2-13.3,16.2-2.6,4-4.9,8.5-7,13.4-2.2,4.8-4,10-5.6,15.2-3.1,10.5-5.2,21.1-6.5,30.1-.4,2.2-.6,4.4-.8,6.4-.3,2-.4,3.9-.6,5.6-.2,1.7-.3,3.3-.4,4.7,0,1.4-.2,2.6-.2,3.6,.2-1,.3-2.7,.5-4.4,.2-1.7,.4-3.4,.7-4.3,0,2.1-.2,3.6-.4,4.8-.1,1.2-.2,2.2-.1,3.1-.4,.8-.6,3.1-.8,5.5-.2,2.5-.3,5.1-.7,6.7l.3,1.2-.3,2.1c0,4.6,0,7.1,0,8.6,0,1.5,0,2,0,2.3,0,.8-.1,1.3,0,9.4,.2,9.4,1,13.8,1.1,19,0-.8,0-2.8,.3-.4-.3,.4,.7,6.4,.5,7.6,.1,1.2,.4,3.7,.6,5.6,.2,1.9,.5,3.1,.6,1.8,0,1.3,.7,8.2,0,4.1,.2,2.3,.5,4.6,.9,6.2l-.3-3c.3,1.9,.5,3.7,.8,5.3,.2,1.6,.5,3,.7,4.3,.4,2.7,.9,5,1.7,7.5l-.4-2.9c.9,4.6,2,8.5,2,10.4l-1.3-4.7c.5,1.9,.9,3.6,1.3,5.3,.5,1.6,.9,3.1,1.3,4.5,.4,1.4,.9,2.8,1.4,4.3,.5,1.4,1,2.9,1.7,4.4-.3-.7-.6-1.5-.8-2.2,.8,2,2.4,6,4.7,11,2.4,5,5.6,10.8,9.6,16.2,4,5.4,8.7,10.3,13.1,13.7,4.4,3.4,8.2,5.6,10.1,6.4-1.1-.6-2-1.4-3-2.2,2,1.2,4.1,2.1,6.1,3.1-.7-.4-3.4-.6-4-1,.8,.4,1.9,1,3.1,1.6,1.2,.6,2.7,1.2,4.4,2,3.3,1.3,7.4,2.7,12.1,3.6,4.6,.9,9.8,1.6,15.2,1.6,5.4,0,11-.3,16.6-1.4,5.6-1,11.1-2.8,16-5.1,5-2.3,9.4-5.2,13-8.1,7.3-6,11.7-12,13.7-14.7,3.2-4.4,1-.5,1-.4,.5-.7,.8-1.3,1.1-1.7,.3-.5,.5-.8,.6-1.1,.3-.6,.5-.9,.6-1.2,.1-.3,.2-.5,.5-1,.3-.5,.7-1.2,1.4-2.4,.8-1.3,0,.4-.3,1.2,1.1-2.2,2.3-4.1,2.3-4.4-1.6,2.7-1.3,1.3-2.2,2.3,.6-1,1.2-2.1,1.7-3.1l1.5-3.2v.4c.4-.7,.7-1.7,1.2-3.3,.5-1.6,1.3-3.8,2.5-7.1,2-5.5,3.8-11.3,5.1-17.2l.5-2.2,.5-2.2c.3-1.5,.6-2.9,.9-4.4,.5-2.9,1.1-5.8,1.5-8.7,.1,.2-.1,2.6-.5,5,.1-.8,.3-1.7,.5-2.7,.1-1,.3-1.9,.5-2.6-.7,2.7,.5-4.8,0-2.7,.6-8.5,2-19.3,2-26.7-.3-.3-2.5-4.4-4.8-8.3-2.3-3.9-4.7-7.7-5.1-7.7,0-2.2,0-4.5,.1-5.2-.2,.6-.3,5-.2,7.4l.4,.4c0,5.4-.2,1.3-.4,6.5-.3,.3-.2-4.6-.2-8.8,0,3.9-.4,7.7-.1,9.2-.2,3.6-.3-.4-.6,3.9,0,1.5,0,3.3,0,5.2,0,1.8-.2,3.7-.4,5.5h0c-.2,2.1-.4,4-.6,5.7-.1,1.8-.2,3.4-.4,5-.1,1.6-.3,3.2-.4,4.8-.2,1.6-.5,3.4-.8,5.3v-.8c-.1,.7-.3,1.5-.4,2.5-.2,1-.4,2-.5,3.2-.4,2.3-.9,4.8-1.5,7.2,.3-1.4,.8-2.5,.2,.4-.7,2.8-1.3,5.1-1.8,7.2-.6,2.1-1.1,4-1.8,6l-.9,3.8c-1.6,4.6-4.4,12.7-9.7,21.1-2.6,4.2-5.9,8.5-9.8,12.4-3.9,3.9-8.5,7.2-13.6,9.7-5.1,2.5-10.6,4.1-16.1,5-5.5,.9-11,1-16,.8-5-.3-9.4-1.1-13.1-2-.9-.3-1.8-.5-2.6-.7-.8-.3-1.6-.6-2.3-.8-1.5-.5-2.7-1.1-3.8-1.5l.7,.2c-6.5-2.7-13.9-7.8-20.3-15.6-6.5-7.7-11.6-18-15.3-28.8-3.7-10.9-6-22.5-7.6-33.2-1.5-10.7-2.3-20.7-2.7-28.6,0-2.5,0-5.4,0-8.4,0-3,0-6,0-8.6,0,2.9-.3,1.9-.3-.4,0-7.9,0-8.1,0-8.4,0-.3-.2-.6,0-8.6,.2-4.6,.5-12.4,1.5-21.7,1-9.3,2.7-20.1,5.4-30.5,2.7-10.4,6.5-20.3,10.8-27.9,4.2-7.7,8.9-12.9,11.5-15.6,2.7-3.1,6.2-6,10-8.4,3.8-2.4,7.9-4.3,11.6-5.6l-.7,.4c2-.8,6.4-2.2,12.3-2.9,.7-.1,1.5-.2,2.3-.2,.8,0,1.6-.1,2.4-.2,1.6-.1,3.4,0,5.1-.2,3.5,0,7.2,.2,10.8,.8,3.6,.5,7.1,1.4,10.4,2.5,1.6,.6,3.2,1.1,4.7,1.8,.7,.3,1.5,.6,2.2,1,.7,.4,1.4,.7,2,1.1,5.3,2.9,8.9,6.2,10.8,7.8-.3-.3-.6-.6-.9-.9,.9,.6,1.5,1.3,2.1,1.9,.6,.6,1.1,1,1.5,1.5,.8,.9,1.4,1.6,1.9,2.2,.5,.6,.9,1.3,1.5,2.1,.5,.8,1.3,1.8,2.2,3.2,0-.5,1,.7,2.3,2.4,.6,.9,1.3,1.9,1.9,2.8,.6,.9,1.1,1.8,1.5,2.5h-.1c.5,.9,1.3,2.1,2,3.7,.8,1.5,1.7,3.2,2.5,5,.4,.9,.9,1.8,1.3,2.8,.4,1,.8,1.9,1.1,2.9,.8,1.9,1.4,3.9,2,5.6l-.3-.2c1.1,2.9,2.3,7.2,3.3,11.4,1,4.2,1.7,8.2,2.1,10.4,.9,5.1,1.6,11.6,2.3,18.6,.7,7,1,14.5,1.5,21.4-.2,3-.3,6-.5,9v1.3c0,0,2.3,3.6,4.8,4.9,2.5,1.3,5.2,.4,6-9.1l.3,.3v-3.7c-.1-4.5-.5-6.5-.3-6.2,.1,2,.1,4.1,.2,6.1,0-4.5,.2-1.4,.4,.3,0-1.9,0-3.7,0-5.2-.1-.9,0,.7-.1,1.4-.2-2.4-.6-5.8-.6-8.7-.3-4.6,.4-.3,0-5.7-1-14.2-2.8-28.2-6.3-42.1-1.8-6.9-4-13.8-6.8-20.6-2.9-6.8-6.4-13.4-10.9-19.6-.3-.6,.2,0,.7,.7-.6-1-1.4-1.8-2.1-2.7-.7-.9-1.4-1.8-2.1-2.6-1.5-1.7-2.9-3.3-4.5-4.8-3.1-3.1-6.4-5.7-10.1-8-2-1.4-2.4-1.9-3-2.3,.1,.1-.4-.2-1.5-.7-1.1-.6-2.7-1.4-4.7-2.3-4-1.8-9.8-3.8-15.7-4.8-5.9-1.1-11.9-1.3-16.5-1.3-4.5,0-7.7,.4-7.9,.4Z"/></g><g><path d="M703.3,638.1c-1,0-2.1-.2-3.4-.2-.6,0-1.3,0-2-.1-.7,0-1.4-.1-2.2-.2-1.5-.1-3-.2-4.6-.4-1.6-.1-3.2-.2-4.8-.4,1.2,.2,2.4,.4,3.7,.5,1.3,.1,2.6,.3,4,.4,1.4,.1,2.8,.3,4.4,.3,1.5,0,3.2,0,4.9,.1Z"/><path d="M686.2,636.8s0,0,0,0c0,0,.1,0,.2,0,0,0,0,0-.1,0Z"/><path d="M712.9,650.3c1.7,0,3.6,0,5.5-.1-1.9,0-3.7,0-5.5,.1Z"/><path d="M530.6,407.7l-.4-1c.8-15.3,.6-4.4,1.6-18.5,0-.7,0-1.6,0-2.6,0-1,.2-2.2,.3-3.4,.3-2.5,.6-5.4,1-8.3,.9-5.7,1.9-11.3,2.3-13.7,0,0,0-.4,.2-1,.1-.6,.3-1.4,.5-2.2,.4-1.6,.7-3.2,.8-2.9,0-2.1,1.5-6.9,2.4-11.1,.3-1.5-.4,1.1-.8,2.2l.5-2.4c.2-.8,.4-1.6,.6-2.4l1.3-4.8c1.2-3.7,1.6-4.5,.5-.5,1.9-6.1,5.7-18.2,12.6-32.2,.9-1.7,1.8-3.5,2.7-5.3,.4-.9,1-1.8,1.5-2.7,.5-.9,1-1.8,1.6-2.7,2-3.7,4.5-7.4,6.9-11.1,5-7.4,10.8-14.8,17.1-21.7,6.3-6.9,13.1-13.2,20.2-18.7,7.1-5.4,14.4-10,21.3-13.6,.8-.5,1.7-.9,2.6-1.3,.9-.4,1.7-.8,2.6-1.2,.8-.4,1.7-.8,2.5-1.2s.8-.4,1.2-.6c.4-.2,.8-.3,1.2-.5,1.6-.7,3.2-1.3,4.7-1.9,.8-.3,1.5-.6,2.2-.9,.7-.3,1.5-.5,2.2-.7,1.4-.5,2.8-1,4.1-1.4,1.3-.4,2.5-.9,3.7-1.2,2.3-.7,4.3-1.2,6-1.7-1.7,.3-4.6,1.1-7.5,1.9-2.8,.9-5.6,1.8-7.2,2.1,3.4-1.3,5.9-2.2,8-2.8,2.1-.6,3.7-1,5.2-1.6,.7,0,2-.4,3.7-.7,1.7-.3,3.7-.8,5.9-1.2,2.1-.5,4.4-.8,6.4-1.1,2-.3,3.9-.5,5.3-.6l2-.6,3.6-.2c16-1.8,17.9-1.3,19.3-1.5,1.4,0,2.3-.2,16.6,.4,8.3,.4,14.3,1.1,19.5,1.7,2.6,.4,4.9,.7,7.1,1.1,2.2,.4,4.4,1,6.6,1.5-1.3-.3-4.8-1.3-.6-.5,.3,.3,3.1,.7,6,1.5,2.9,.8,6,1.5,6.9,2,1,.3,2.5,.9,4.2,1.4,1.7,.6,3.5,1.1,5.1,1.8,3.1,1.2,5.2,2,3.2,.9,2.1,.9,12.9,6.3,6.4,3.3,1.8,.9,3.6,1.7,5.3,2.6,1.6,.9,3.1,1.7,4.4,2.4l-4.5-2.6c12.2,6.4,18,11.1,25.3,16.3l-1.9-1.7-1-.8-1-.8c.9,.6,1.6,1.2,2.4,1.8,.8,.6,1.5,1.2,2.2,1.8,1.4,1.2,2.8,2.2,4,3.3,2.3,2.2,4.1,3.9,5.2,5.2l-6.3-5.6c2.5,2.3,4.8,4.3,6.9,6.3,2,2,3.9,3.9,5.7,5.8,3.5,3.8,6.9,7.3,10.4,11.8l-2.5-3.2c4.8,5.3,18.6,23.7,27.4,44.7,4.5,10.4,8.3,21.1,10.8,30.1,.7,2.2,1.2,4.4,1.7,6.4,.5,2,1,3.8,1.4,5.5,.7,3.4,1.3,6,1.7,7.7l-.9-6.2,1.3,5.7c.4,1.9,.9,3.8,1.2,5.7-.2-1.4-2.1-5.4-2.2-6.5,1.3,6.1,3.4,18.8,4.6,34.9,1.2,16.1,1.5,35.7,.1,55-1.4,19.3-4.4,38.4-8.6,53.7-4,15.3-8.7,26.9-11.1,32.1-3.9,8.4-1.1,1.3-1.1,1.2-1.1,2.6-1.7,4.2-2.2,5.2-.5,1-.7,1.5-.9,2-.4,.9-.7,1.7-2.8,5.9-1.3,2.2,0-.6,.6-1.9-.2,.5-.5,.9-.7,1.4-.2,.4-.5,.9-.7,1.3-.5,.8-.9,1.6-1.3,2.3-.8,1.3-1.3,2.3-1.3,2.4,2.7-4.5,1.9-2.4,3.2-4.2-2,3.6-4,7.2-6.2,10.7v-.6c-.7,1.2-1.4,2.7-2.9,5.3-.8,1.2-1.7,2.7-2.9,4.5-.6,.9-1.3,1.9-2,2.9-.8,1-1.6,2.1-2.6,3.3-6.3,8.1-13.5,16-21.5,23-8,7.1-16.7,13.3-25.6,18.4,0-.2,1.1-.7,2.5-1.6,1.4-.9,3.2-2.1,4.9-3.3-1.2,.7-2.6,1.7-4,2.6-1.4,1-2.9,1.7-4,2.3,4.4-2.2-7.4,4.3-4,2.6-6.5,3.7-14.4,7.4-22.4,9.9-1,.3-2,.7-3,1-1,.3-2,.6-3,.9-2,.6-3.9,1.1-5.8,1.7-1.9,.5-3.8,.9-5.6,1.3-1.8,.4-3.5,.9-5.1,1.2-.3,.2-2,1.2-4.6,2.6-2.6,1.5-6,3.1-9.4,4.7-3.4,1.7-6.9,3.1-9.5,4.2-2.6,1.2-4.4,2-4.4,2.1-4.3,0-8.7,.2-10,.1,.6,0,3,0,5.8,0,1.4,0,3,0,4.4,0,1.5,0,2.8-.2,4-.3l.8-.4c5.2-.4,5.8-.4,6.4-.4,.6,0,1.1,0,6.2-.6,.3,.1-1.9,.5-5.2,.9-1.6,.3-3.6,.3-5.6,.5-2,.1-4.2,.3-6.2,.5,3.7-.2,7.5-.4,10.6-.6,3.2-.4,5.8-.7,7.3-1,3.5-.3,3.3-.3,3.3-.2,0,0,.2,.2,4.4-.5,1.5-.3,3.1-.6,4.8-.9,1.7-.4,3.4-.8,5.2-1.2,1.8-.4,3.5-.9,5.3-1.3,1.8-.5,3.5-1,5.2-1.4h-.1c4.1-.9,7.6-2.2,10.9-3.4,.8-.3,1.6-.6,2.4-.9,.8-.3,1.5-.7,2.3-1,1.5-.6,3-1.3,4.4-1.9,5.8-2.6,11.2-5.4,18-9.2l-1.4,.9c2.5-1.2,5.9-3.5,9.8-6,1.9-1.3,3.9-2.8,5.9-4.2,1-.7,2.1-1.4,3-2.2,1-.8,2-1.6,2.9-2.3-2.2,1.7-4.3,3.1,.3-.7,1.1-.9,2.2-1.7,3.2-2.6,1-.8,1.9-1.7,2.9-2.5,1.8-1.7,3.5-3.2,5.1-4.7,1.5-1.6,3-3.1,4.5-4.5,.7-.7,1.5-1.5,2.2-2.2,.7-.8,1.4-1.5,2.1-2.3,1.7-2.1,3.4-4.1,5-6.2,1.5-1.9,3.3-4.2,5.4-6.9,1.9-2.7,4.1-5.7,6.3-9.1,1.1-1.7,2.2-3.5,3.3-5.4,.6-.9,1.2-1.9,1.8-2.8,.5-1,1.1-2,1.7-3,1.1-2,2.3-4.1,3.5-6.3,1.1-2.2,2.2-4.5,3.3-6.8,4.4-9.4,8.6-19.8,12-30.9,3.4-11.1,6.1-22.9,8.1-34.8,8-47.6,3.8-95.7,.3-114.9l.3,1.5c-.3-1.8-.6-3.7-.9-5.7-.3-1.9-.8-3.9-1.2-6-.4-2-.8-4.2-1.3-6.3-.5-2.1-1-4.3-1.6-6.6-.3-1.1-.5-2.2-.8-3.4-.3-1.1-.6-2.3-1-3.4-.7-2.3-1.3-4.6-2-7-.8-2.3-1.6-4.7-2.4-7.1-.4-1.2-.8-2.4-1.2-3.6-.5-1.2-.9-2.4-1.4-3.6-.5-1.2-.9-2.4-1.4-3.7-.5-1.2-.9-2.5-1.5-3.7-1.1-2.4-2.2-4.9-3.3-7.4-2.4-4.9-4.8-9.9-7.6-14.8-5.5-9.8-12-19.3-19.3-28.3-7.5-8.9-15.7-17-24.6-24.1-8.9-7.1-18.3-13.2-27.8-18.1-9.5-4.8-19.1-8.4-28.2-11.2-2.3-.6-4.5-1.2-6.7-1.9-2.2-.6-4.4-1-6.5-1.5-4.2-1-8.3-1.6-12.1-2.2-2.3-.5-5-.8-7.7-1.2-1.4-.2-2.8-.4-4.2-.5-1.4-.1-2.8-.2-4.3-.3-1.4-.1-2.9-.2-4.3-.3-.7,0-1.4-.1-2.1-.2-.7,0-1.4,0-2.1,0-2.8,0-5.5-.1-8-.2,5.5,.2,3.6,.4-.7,.3-7.6,.2-11.5,.2-13.6,.4-2.1,.2-2.4,.2-2.6,.3-.3,0-.6,.1-2.7,.3-1.1,0-2.6,.2-4.8,.5-2.2,.3-5.1,.6-8.9,1.1-2.2,.4-4.7,.8-7.7,1.3-1.5,.2-3,.6-4.6,1-1.6,.4-3.3,.7-5,1.1-1.8,.3-3.5,.9-5.4,1.4-1.9,.5-3.8,1-5.8,1.6-2,.7-4,1.4-6,2.1-1,.4-2.1,.7-3.1,1.1-1,.4-2.1,.8-3.1,1.3-1.1,.4-2.1,.9-3.2,1.3-1.1,.4-2.2,.9-3.2,1.4-2.1,1-4.3,2.1-6.5,3.1-2.2,1.1-4.3,2.4-6.6,3.6-2.2,1.2-4.4,2.6-6.5,3.9-1.1,.7-2.2,1.4-3.3,2.1-1.1,.7-2.1,1.5-3.2,2.2-1.1,.8-2.1,1.5-3.2,2.3-1.1,.8-2.1,1.5-3.1,2.4-2,1.7-4.1,3.3-6.2,5l-5.9,5.4c-7.7,7.4-14.5,15.4-20.7,23.3-2.9,4.1-5.9,8.1-8.4,12.2-2.7,4-4.9,8-7.1,11.9-.6,.9-1.1,1.9-1.5,2.9-.5,1-1,1.9-1.4,2.8-.9,1.9-1.9,3.7-2.7,5.5-.8,1.8-1.6,3.5-2.3,5.2-.7,1.7-1.5,3.3-2.1,4.9-1.2,3.2-2.4,6-3.4,8.6-.9,2.6-1.7,4.8-2.3,6.7-.3,1-.6,2-1,3.1-.3,1-.6,2.1-.9,3.2-.6,2.1-1.2,4.3-1.8,6.5-.6,2.2-1.1,4.5-1.6,6.8-.5,2.3-1.1,4.5-1.6,6.9-.9,4.6-1.9,9.2-2.5,13.7-.3,2.2-.7,4.4-1,6.6-.2,2.2-.5,4.3-.7,6.3v-1.6c-.4,4.4-1.5,13.8-2,25.9-.6,12.1-.7,26.8,.2,41.5,.8,14.8,2.7,29.6,5,41.9,.3,1.5,.6,3,.9,4.5,.1,.7,.3,1.4,.4,2.2,.2,.7,.3,1.4,.5,2.1,.6,2.7,1.2,5.2,1.8,7.5,.3,1.2,.6,2.2,.9,3.3,.3,1,.6,2,.8,2.9,.5,1.8,1,3.3,1.3,4.6l-.7-2.7c1.2,4.3,2.4,7.3,3.1,9.7,.8,2.4,1.3,4.1,1.9,5.7,.6,1.6,1.1,3.1,1.7,5,.3,1,.7,2,1.2,3.3,.5,1.2,1.1,2.6,1.8,4.3-.1-1,1.3,2.1,3.3,6,1,1.9,2.1,4.1,3.2,6,.5,1,1,2,1.5,2.8,.5,.8,.9,1.6,1.3,2.3h-.2c1.1,1.8,2.5,4.3,4.3,7.2,.9,1.4,1.9,2.9,2.9,4.5,1,1.6,2,3.2,3.3,4.8,2.4,3.2,4.7,6.6,7.3,9.7,1.3,1.6,2.5,3.2,3.8,4.7,1.3,1.5,2.6,2.9,3.8,4.3l-.6-.3c1,1.1,2.2,2.4,3.4,3.7,1.3,1.3,2.6,2.7,4.1,4.1,.7,.7,1.4,1.4,2.1,2.2,.7,.7,1.5,1.4,2.3,2.1,1.5,1.4,3.1,2.8,4.7,4.2,1.6,1.4,3.2,2.6,4.7,3.9,1.6,1.2,3,2.5,4.5,3.5,2.9,2.1,5.4,4,7.2,5.2,8.3,5.7,19.5,12,32.2,17,12.7,5,26.9,8.4,40.2,10,2.8,.5,5.7,.9,8.6,1.4l8.6,1c.8,0,1.7,0,2.5,0,0,0,1.8-.5,3.8-1.3,2.1-.8,4.4-1.9,5.7-3.1,1.2-1.2,1.4-2.5-.9-3.6-1.1-.6-2.9-1.1-5.4-1.6-1.2-.2-2.7-.4-4.3-.7-1.6-.3-3.5-.6-5.6-.8l.6-.2c-2.2-.2-4.4-.2-6.6-.5-2-.3-3.7-.5-5.1-.6-1.4-.2-2.6-.3-3.5-.4-1.8-.3-2.6-.4-2.3-.5,3.6,.7,7.2,1,10.8,1.5-7.9-1-2.4-.5,.7-.3-1.7-.2-3.3-.4-4.8-.6-1.5-.2-3-.4-4.3-.7-1.6-.2,1.1,.4,2.3,.5-2.1-.2-4.7-.6-7.3-1-1.3-.2-2.7-.4-4-.7-1.3-.3-2.6-.6-3.9-.9-4-.9-4.1-1-4.3-1.2-.3-.2-.7-.4-5.2-1.7-12-3.5-23.4-8.5-34-14.7-10.6-6.2-20.4-13.7-29.2-22.3-17.7-17.2-31.6-38.3-41.5-61.7-.4-1.1,.2,.2,.8,1.5-6.1-14-10.1-27.1-13.3-40.8-.4-1.9-.5-3.1-.7-4,0-.9-.1-1.5-.2-2,0,.3-.2-.7-.6-2.6-.2-1-.4-2.2-.7-3.6-.2-1.4-.5-3-.8-4.8-.3-1.8-.6-3.7-.9-5.8-.3-2.1-.5-4.3-.8-6.6-.2-2.3-.6-4.6-.8-7.1-.2-2.4-.4-4.9-.6-7.4-.2-2.5-.3-5-.5-7.4-.1-2.5-.2-4.9-.4-7.3,0-4.7-.1-9.2-.2-13,.1-7.7,.2-12.9,.3-13.3Z"/></g></g></g></svg>