<?xml version="1.0" encoding="UTF-8"?><svg id="Layer_1" xmlns="http://www.w3.org/2000/svg" viewBox="0 0 1024 1024"><defs><style>.cls-1{fill:none;}.cls-2{font-family:HelveticaNowText-Regular, 'Helvetica Now Text ';font-size:139.4px;letter-spacing:0em;stroke:#000;stroke-miterlimit:10;stroke-width:2.4px;}.cls-3{fill:#ebebec;}.cls-4{fill:#ee2a7b;}</style></defs><polygon class="cls-3" points="21.9 37.7 1016.6 84.9 1016.6 912.1 7.4 986.3 21.9 37.7"/><g><path class="cls-4" d="M170.5,624.5c0-37.7,8.1-69.2,24.4-94.6,16.3-24.6,46-51.7,89.2-81.5l65.4-46.4c16.7-11.5,28.4-22.4,35.4-32.7,6.9-10.3,10.4-22,10.4-35.1s-5.2-30.4-15.5-40.1c-10.3-9.7-24.4-14.6-42.2-14.6-40.4,0-60.7,23.6-60.7,70.8v8.9h-100.5v-13.1c0-48.8,14.3-86.8,42.8-114.2,28.5-27.4,69-41,121.3-41s89.6,12.1,118.9,36.3c29.7,24.6,44.6,58.1,44.6,100.5s-7,51.9-21.1,73.7c-14.1,21.8-36.6,42.6-67.5,62.4l-73.1,46.4c-13.9,9.1-21.4,16.8-22.6,23.2h186.1v91H170.5Z"/><path class="cls-4" d="M881.7,371.8c28.1,27,42.2,62.6,42.2,107s-15.9,84.2-47.6,113.6c-31.7,28.9-73.3,43.4-124.9,43.4s-94.4-15.9-127.3-47.6c-39.2-37.3-58.9-94.2-58.9-170.7s15.8-128,47.3-167.4c31.5-39.4,77.2-59.2,137.1-59.2s76.2,9.4,103.8,28.2c27.6,18.8,46.1,45.5,55.6,80l-102.9,5.9c-8.7-22.6-27.8-33.9-57.1-33.9s-43.1,8.2-55.6,24.7c-12.5,16.5-20.1,43.3-22.9,80.6,23.8-29.7,57.7-44.6,101.7-44.6s81.7,13.3,109.4,39.8Zm-133.2,178.4c22.2,0,39.2-6.7,51.1-20.2,11.9-13.9,17.8-30.3,17.8-49.4s-6.5-36.7-19.6-49.4c-13.1-12.7-29.9-19-50.5-19s-37.3,6.2-50,18.7c-12.7,12.5-19.6,29.4-20.8,50.8,1.2,17.8,6.9,32.9,17.2,45.2,14.3,15.5,32.5,23.2,54.7,23.2Z"/></g><text class="cls-2" transform="translate(225.8 818)"><tspan x="0" y="0">DE ABRIL</tspan></text><g><g><path class="cls-1" d="M156.5,603.6c0-37.7,8.1-69.2,24.4-94.6,16.3-24.6,46-51.7,89.2-81.5l65.4-46.4c16.7-11.5,28.4-22.4,35.4-32.7,6.9-10.3,10.4-22,10.4-35.1s-5.2-30.4-15.5-40.1c-10.3-9.7-24.4-14.6-42.2-14.6-40.4,0-60.7,23.6-60.7,70.8v8.9h-100.5v-13.1c0-48.8,14.3-86.8,42.8-114.2,28.5-27.4,69-41,121.3-41s89.6,12.1,118.9,36.3c29.7,24.6,44.6,58.1,44.6,100.5s-7,51.9-21.1,73.7c-14.1,21.8-36.6,42.6-67.5,62.4l-73.1,46.4c-13.9,9.1-21.4,16.8-22.6,23.2h186.1v91H156.5Z"/><g><path d="M162.3,596.1c.1-1.6,.3-3.5,.4-5.5,.2-2.1,.4-4.3,.6-6.8,.3-2.4,.5-4.9,.8-7.5,.4-2.5,.7-5.1,1.1-7.7-1.5,7.8-2.6,16.2-2.9,27.4Z"/><path d="M165.2,568.5s0-.1,0-.2c0,.1,0,.2,0,.4,0,0,0-.1,0-.2Z"/><path d="M164.4,610.2c2.7,0,5.7,0,8.7,0-2.9,0-5.9,0-8.7,0Z"/><path d="M260.5,295.6c0,.6,0,1.2,0,1.8-.4,1.6-.8,3.1-1.1,4.4-.3,1.3-.6,2.5-.7,3.5-.2,1-.4,1.9-.5,2.7-.1,.8-.2,1.5-.3,2-.4,2.3-.5,3.2-.7,4.1-.1,.8-.3,1.6-.5,3.7,0,1-.2,2.4-.3,4.3,0,.9,0,2-.1,3.2,0,1.2,0,2.5,0,4,.1,.5,.2,1.4,.3,2.4,0,0-.2,0-.4,0-1.1,0-2.3,0-3.5,0-3.7,0-7.4,0-11,0-7.1,0-13.5,0-16.6,0,0,0-.6,0-1.7,0-1,0-2.4,0-3.8,0-2.7,0-5.4,0-5.1-.2-3.5,.4-11.7,0-18.9,.2-2.6,0,1.9,.1,3.9,.2h-16.5c-6.4,0-8-.2-1-.2-2.3,0-5,0-8.2,0-1.3,0-2.8,0-4.4,0,0,0-.2,0-.3,0,0-.1,0-.2,0-.3,0-2.1,0-4.2,0-6.4,0-2.4,0-4.8,.2-7.3,0-2.5,.3-5.1,.4-7.8,.8-10.6,2.3-22.3,5.6-34.2,.9-2.9,1.7-6,2.8-8.9,.5-1.5,1-3,1.6-4.5,.6-1.5,1.2-3,1.8-4.4,.3-.7,.6-1.5,.9-2.2l1-2.2c.7-1.5,1.4-2.9,2.1-4.4,1.6-2.8,3-5.8,4.8-8.5l1.3-2.1,.7-1.1,.7-1c.9-1.4,1.9-2.7,2.8-4.1,1-1.3,2-2.6,3-3.9l1.5-2,1.6-1.9c4.3-5.1,9.2-9.7,14.2-13.9,1.3-1,2.6-2.1,3.9-3.1,1.3-1,2.7-1.9,4-2.9l2-1.4c.7-.5,1.4-.9,2.1-1.3,1.4-.9,2.8-1.7,4.1-2.6,1.4-.8,2.8-1.6,4.2-2.4l2.1-1.2c.7-.4,1.4-.7,2.2-1.1,1.4-.7,2.9-1.4,4.3-2.1,1.5-.6,2.9-1.2,4.3-1.9,2.9-1.3,5.8-2.3,8.7-3.3,1.4-.6,2.9-.9,4.3-1.4,1.4-.4,2.9-.9,4.3-1.3,2.9-.7,5.7-1.5,8.5-2.2,2.8-.6,5.6-1.2,8.3-1.7,2.7-.4,5.4-.9,8-1.3,2.6-.3,5.1-.7,7.6-1,4.9-.4,9.5-.9,13.8-1,8.5-.5,15.6-.4,20.6-.3-1.5,0-3.4-.2-5.6-.2-2.2,0-4.7,0-7.1,0-1.2,0-2.4,0-3.6,0-1.2,0-2.3,0-3.4,.1-2.1,0-4,0-5.4,0,3-.2,5.6-.4,7.9-.5,2.3-.1,4.3,0,6.1-.1,1.8,0,3.4,0,4.8,0,1.5,0,2.8,0,4.1,0,2.3,.3,8.9,.5,16,1.1,1.8,.2,3.6,.3,5.4,.5,1.8,.2,3.5,.4,5.2,.7,3.4,.4,6.3,1,8.5,1.5,1.1,0,2.3,0,3.4,.2l5.8,1.3c12.8,2.5,19.6,5.1,23.6,6.4,4,1.5,5.2,1.9,6.2,2.3,1,.4,1.9,.8,5.1,2.2,3.2,1.5,8.8,3.9,18.4,10,1.4,.8,2.7,1.8,4,2.7,1.3,.9,2.5,1.7,3.7,2.6,1.1,.9,2.3,1.7,3.3,2.6,.5,.4,1.1,.8,1.6,1.2,.5,.4,1,.8,1.5,1.3,1.9,1.7,3.8,3.2,5.4,4.8,1.6,1.6,3.2,3,4.6,4.5,5.7,6,9.8,11.3,13.5,17.6-1.2-1.8-4.1-6.8-.4-1.1,0,.3,.8,1.4,1.7,2.9,.9,1.6,2.1,3.6,3.2,5.7,.5,1.1,1.1,2.2,1.6,3.2,.5,1.1,1,2.1,1.4,3,.8,1.9,1.4,3.5,1.6,4.3,.6,1.5,1.4,4,2.4,6.7,.4,1.4,.8,2.8,1.2,4.2,.4,1.4,.8,2.8,1.1,4.1,.6,2.6,1.2,4.8,1.4,5.9,.2,1.1,.3,1.1,.1-.8,.2,1.9,1.2,7.6,1.4,11.5,0,1,.2,1.8,.2,2.5,0,.6,0,1.1,0,1.2,0,.3,0-.7-.5-3.6,0,.8,.2,1.6,.3,2.4,0,.8,.1,1.6,.2,2.4,.1,1.6,.2,3.2,.3,4.7,0,3,.2,5.8,.2,8.2,0-2.8,0-5.7,0-8.5,.6,11.2-.1,19.7-1.1,27.3-1.1,7.5-2.5,14-4.4,20.9,.9-2.6,1.6-5.2,2.3-7.8-3,12.9-7.8,23-10.5,27.4,2-4,3.9-8.2,5.4-12.4-1.9,5.1-4,9.6-6.1,13.6-1,2.1-2.2,3.9-3.2,5.8-1.1,1.8-2.2,3.7-3.4,5.4-4.6,6.9-9.5,13.2-15.8,20,1.5-1.6,3-3.2,4.4-4.9-1,1.1-2.1,2.6-3.6,4.2-.7,.8-1.6,1.7-2.4,2.6-.9,.9-1.8,1.9-2.8,2.9-4,4-9.1,8.7-15,13.6-5.9,4.9-12.7,10.1-20,15.1-1.8,1.3-3.7,2.6-5.6,3.8-1.9,1.3-3.8,2.5-5.8,3.8-3.9,2.5-7.9,5.1-11.9,7.6-15.9,10.2-31.7,20.4-44.7,28.7-3.3,2.1-6.3,4.1-9.2,5.9-1.4,.9-2.8,1.8-4.1,2.7-1.3,.9-2.6,1.8-3.8,2.6-4.8,3.4-8.4,6.4-10.6,8.5,2.8-2.4,5.7-4.5,8.7-6.5-2.7,2-5.3,4.1-7.8,6.3l-1.9,1.8c-.9,.9-1.8,1.8-2.6,2.8-.8,1-1.7,1.9-2.3,2.9-.3,.5-.7,1-1,1.5l-.8,1.5c.7-1.4,2.4-4.2,4.8-7.1,.6-.7,1.2-1.4,1.8-2,.4-.4,.8-.9,1.1-1.2,.7-.8,1.3-1.3,1.7-1.7-.7,.6-1.4,1.2-2.2,1.9-.2,.2-.4,.4-.6,.5l-.3,.3c0,0-.3,.3-.4,.4-.6,.6-1.3,1.3-2,2-2.6,2.8-5,6.2-6.3,9.6-.6,1.7-1.1,3.5-1.6,5.5l-.2,.8v.4c0,0-.1,.2-.1,.2h.2c.5,.1,.9,.3,1.4,.4,.9,.2,1.9,.4,2.9,.7,1,.2,2,.4,3,.7h.4c.1,.1,.3,0,.5,0h1.1c.7,0,1.5,0,2.2,0,2.7,0,5.5,0,8.3,0,14.4,0,32,0,51.1,0,36.7,0,79.3,0,116.3,0,0,19.1,0,36.6,0,50.8,0,7.8,0,14.7,0,20.5,0,2.9,0,5.5,0,7.8,0,.7,0,1.2,0,1.7,0,.1,0,.2,0,.3-2,0-2-.2-1.7-.3,.3-.1,.9-.2,.9-.2-.6,0-1,0-1.4,0-1.5,0-2.7,0-3.7,0-1.9,0-2.8,0-3.6,.1-1.7,0-3,.1-11,.1-4.4,0,.9-.3,3.4-.3-7,0-13.5,0-14,0,8.7,.1,5,.5,8.7,.8h-20.5s.9-.3,.9-.3c-4.6,0-11.6,.7-31.8,.6-34,0-70.9,0-105.1,0,.5-.2,7.7-.2,14.9-.3-4.6,0-11.6,0-15.8,0,8.3,.3-14.3,.2-7.9,.3-25,.6-57.4,0-79.5,.5-1,.3-12.8,2.7-24.4,5.2-5.8,1.2-11.5,2.5-15.8,3.4-4.3,1-7.1,1.7-7.1,1.8-6.9,0-13.7,0-15.8,0,1.8,.2,15.3,.2,22.4,.1l1.2-.4c16.5-.1,3.9,.2,20,.2,.9,.3-14,.4-27,.4,11.7,0,23.5,.2,28.2,0,11,.1-1.2,.4,12.1,.5,9.5,0,21.9-.4,32.8-.2h-.2c26.5,.4,40.5-.4,64.7,0h-2.6c8.5,.3,25.4,0,40.8,.2-4.4,0-8.2-.3,1-.3,17.7,.2,29.8,0,42.8,.2l12.4-.3c18.3,0,51.6,0,93.3,0,0-30.6,0-66.9-.1-103.9-40.9,0-82.5,.1-118.2,.2-16.9,0-32.3,0-45.6,0-5.9,0-11.3,0-16.1,0-.3,0-.6,0-.9,0h-.2s-.1,0-.1,0c0,0,0,0,0,0,0-.1,0-.2,.1-.4,0,0,0,.2,0,.2,0-.3,.3-.6,.5-.9l.2-.2h0c0,0,0-.1,0-.1l.2-.2c1.1-1,2.2-2,3.4-3,2.4-2,5-3.9,7.7-5.8,.7-.5,1.4-.9,2.1-1.4,.7-.5,1.5-.9,2.2-1.4,1.5-1,3-1.9,4.5-2.9,12.3-7.8,25.5-16.2,39.4-25,7-4.4,14.1-8.9,21.3-13.5,1.8-1.2,3.6-2.3,5.5-3.5,1.8-1.2,3.7-2.4,5.6-3.6,1.8-1.2,3.7-2.5,5.5-3.8,1.8-1.3,3.7-2.6,5.5-3.9,14.6-10.6,28.8-22.7,41-37,6.1-7.2,11.6-14.9,16.2-23.1,1.2-2,2.2-4.2,3.3-6.2,1-2.1,2.1-4.2,3-6.4,1.9-4.3,3.5-8.7,4.9-13.1,5.7-17.8,7.3-36.2,6.3-53.4-.4-8.6-1.6-17.1-3.3-25.1-.8-4.1-2-8-3.1-11.8-.7-1.9-1.3-3.8-2-5.7-.6-1.9-1.5-3.7-2.2-5.5-.4-.9-.7-1.8-1.1-2.7-.4-.9-.8-1.7-1.2-2.6-.8-1.7-1.6-3.4-2.6-5.1-.9-1.6-1.8-3.3-2.7-4.8-1-1.5-2-3.1-2.9-4.6-4-5.9-8.2-11.3-12.6-15.9-5.3-5.9-12.2-12.3-19.8-17.8-7.6-5.6-15.9-10.4-23.3-13.9,8.1,4.1,5.2,2.9-1.1-.2-2.8-1.3-5.3-2.4-7.6-3.3-2.2-.9-4.2-1.6-5.9-2.2-3.4-1.2-5.7-1.9-7.3-2.5-1.6-.5-2.6-.8-3.1-.9-.6-.1-.8-.2-1-.2-.4,0-.9-.2-4.3-1.1-3.4-.8-9.7-2.5-21.9-4.4-3.4-.6-7.3-1-11.7-1.5-4.4-.4-9.4-.8-14.8-1-10.7-.5-23.2-.5-36.8,.7-1.7,.2-3.4,.3-5.2,.5-1.7,.2-3.5,.4-5.3,.7-3.5,.4-7.1,1-10.8,1.6-1.8,.3-3.6,.7-5.5,1.1-1.8,.4-3.7,.8-5.5,1.2-3.7,1-7.4,1.8-11.1,3.1-7.5,2.2-14.9,5.1-22.2,8.6-7.3,3.4-14.4,7.6-21.1,12.4-3.4,2.3-6.5,5-9.7,7.6l-4.6,4.1c-1.5,1.4-2.9,2.9-4.4,4.3-5.7,5.9-10.9,12.2-15.3,18.8-4.4,6.7-8.2,13.6-11.3,20.6-.8,1.7-1.5,3.5-2.2,5.3-.4,.9-.7,1.7-1.1,2.6-.3,.9-.6,1.8-.9,2.6-.6,1.8-1.2,3.5-1.8,5.2-.5,1.7-1,3.5-1.5,5.2-.2,.9-.5,1.7-.7,2.6-.2,.9-.4,1.7-.6,2.6-.4,1.7-.8,3.4-1.2,5.1-.3,1.7-.6,3.3-1,5-.3,1.6-.7,3.3-.9,4.9-1,6.4-1.7,12.6-2,18.3,0,1.4-.2,2.8-.3,4.2,0,1.4-.2,2.7-.2,4.1,0,2.7-.1,5.2-.2,7.6,0,6.8,0,13,0,18.4,7.5,0,11.9,0,15.7,0,13.3-.2,28.3-.2,43.2-.2,7.5,0,14.9,0,22.1,0,7.9,0,15.5,0,22.7-.1h-4.6c2.7,0,6,0,12.3,0,0-3.8,0-8.2,0-13.2,0-1.6,0-3.4,0-5.2,0-1.7,.1-3.4,.3-5.3,.5-7.3,1.6-15.7,4.6-24.1,1.5-4.2,3.4-8.4,6.1-12.2,2.6-3.8,5.8-7.3,9.7-10.1,.9-.7,2-1.3,3-2,1.1-.6,2.1-1.2,3.2-1.7,2.2-1.1,4.5-2,6.9-2.8,4.8-1.5,9.9-2.4,15.1-2.8,5.2-.3,10.5-.3,15.6,.3,5.1,.6,10,1.7,14.4,3.4,8.9,3.3,16.2,9.3,20.7,16,4.6,6.7,6.6,14.1,7.4,20.4,.4,3.2,.6,6.1,.6,8.7,0,2.6,0,4.7-.3,6.5,.2-1.3,.2-2.7,.3-4-.1,6.6-1.2,11.2-2.2,14.6-1,3.5-2.1,5.9-3.2,8.1-1.1,2.2-2.3,4.2-3.9,6.6-1.7,2.4-3.9,5.3-7.5,9.2,1.1-.9-2.1,3.1-6.9,7.6-4.8,4.6-11.3,9.6-15,12.3l.2-.3c-5.7,4.1-14.9,10.8-25.1,18.1-10.2,7.3-21.3,15.4-30.7,22.1l.6-.7c-3.9,2.8-8.7,6.3-13.8,10-2.6,1.8-5.3,3.7-8,5.6-2.7,1.9-5.4,3.9-8.1,5.8-10.8,7.8-20.7,15.7-26,20.2-12.3,10.2-27.8,23.7-41.6,40.9-3.4,4.3-6.8,8.8-9.8,13.8-.8,1.2-1.5,2.4-2.2,3.7-.7,1.2-1.4,2.5-2.1,3.7-1.3,2.6-2.6,5.1-3.7,7.7-4.8,10.4-8.1,21.3-10.4,31.9-2.3,9.1-3.8,18.4-4.8,27.7l-.2,4.1s0,.7,.3,1.8c.2,1.1,.5,2.7,.9,4.4,.7,3.3,1.9,7.2,3.1,9.2,1.2,2,2.5,2.3,3.6-1.4,.6-1.8,1.1-4.7,1.7-8.7,.1-1,.3-2.1,.4-3.3,.2-1.2,.3-2.4,.5-3.8,.3-2.7,.8-5.7,1.3-9.1l.2,.9c.4-3.6,.9-7.1,1.5-10.7,.5-3.2,1.2-5.9,1.6-8.2,.5-2.3,1-4.2,1.3-5.6,.7-2.9,1.1-4.1,1.1-3.7-.8,2.8-1.5,5.7-2.2,8.5-.6,2.9-1.2,5.7-1.7,8.7,.5-3.2,1-5,1.2-5.9,.2-.9,.2-.8,.1-.2-.1,.6-.3,1.8-.5,3.1-.2,1.3-.4,2.8-.6,4,.9-5.3,2.1-10.4,3.1-14.6,.5-2.5-.5,1.8-1.1,3.7,1.4-6.8,3.9-16.1,7.3-23.8,.6-1.5,1.1-2.7,1.5-3.5,.4-.9,.7-1.4,.9-1.9,.4-.8,.5-1,.7-1.2,.1-.2,.3-.5,.9-1.5,.3-.5,.7-1.3,1.2-2.3,.3-.5,.6-1.1,.9-1.8,.4-.7,.8-1.4,1.2-2.2,1.2-2.2,2.5-4.3,3.8-6.4,.7-1.1,1.4-2,2.1-3.1,.7-1,1.4-2,2.2-3l2.3-3c.8-1,1.6-2,2.4-2.9,1.6-2,3.3-3.9,4.9-5.8,6.7-7.6,14-14.7,21.6-21.5,15.2-13.6,31.6-26,48.5-37.8,17-11.9,33.9-23.9,51-36,4.3-3,8.5-6,12.8-9.1,2.1-1.5,4.3-3,6.4-4.6,2.2-1.5,4.4-3.1,6.6-4.7,8.7-6.5,17.1-13.6,24.6-22.3,1.4-1.5-.2,.4-1.9,2.4,4.6-5.1,8.6-10.7,11.7-16.8,3-6.1,5.1-12.5,6.1-18.9,.5-3.2,.9-6.4,1-9.6,.1-3.2,0-6.3-.2-9.5-.3-3.2-.7-6.3-1.4-9.5-.7-3.2-1.6-6.3-2.9-9.4-.3-.9-.6-1.6-.9-2.3-.3-.7-.6-1.3-.9-1.9-.5-1.2-1-2-1.4-2.8-.8-1.5-1.3-2.4-1.9-3.4,.1,.2,0,0-.6-.7-.5-.7-1.3-1.9-2.5-3.3-1.2-1.5-2.8-3.2-4.7-5-2-1.8-4.4-3.8-7.2-5.7-5.6-3.8-13.1-7.1-21.3-8.8-8.2-1.8-17.1-2.2-25.9-1.6-8.8,.6-17.9,2.6-25.9,6.5-8,3.8-14.6,9.5-18.9,15.3-4.4,5.7-7,11.2-8.5,15.1-1.5,3.9-2.2,6.3-2.3,6.6Z"/></g></g><g><path class="cls-1" d="M867.8,350.8c28.1,27,42.2,62.6,42.2,107s-15.9,84.2-47.6,113.6c-31.7,28.9-73.3,43.4-124.9,43.4s-94.4-15.9-127.3-47.6c-39.2-37.3-58.9-94.2-58.9-170.7s15.8-128,47.3-167.4c31.5-39.4,77.2-59.2,137.1-59.2s76.2,9.4,103.8,28.2c27.6,18.8,46.1,45.5,55.6,80l-102.9,5.9c-8.7-22.6-27.8-33.9-57.1-33.9s-43.1,8.2-55.6,24.7c-12.5,16.5-20.1,43.3-22.9,80.6,23.8-29.7,57.7-44.6,101.7-44.6s81.7,13.3,109.4,39.8Zm-133.2,178.4c22.2,0,39.2-6.7,51.1-20.2,11.9-13.9,17.8-30.3,17.8-49.4s-6.5-36.7-19.6-49.4c-13.1-12.7-29.9-19-50.5-19s-37.3,6.2-50,18.7c-12.7,12.5-19.6,29.4-20.8,50.8,1.2,17.8,6.9,32.9,17.2,45.2,14.3,15.5,32.5,23.2,54.7,23.2Z"/><g><path d="M736.2,534.8c.7,.1,1.7,.2,2.8,.2,1.1,0,2.3,0,3.5-.1-1.8-.2-3.8-.1-6.3,0Z"/><path d="M742.6,534.9s0,0,0,0c0,0,0,0,0,0,0,0,0,0,0,0Z"/><path d="M733,522.6c-.5,0-1.1,0-1.7,0,.6,0,1.2,0,1.7,0Z"/><path d="M810.1,454l-.5-.3c-.2-2.8-.2-3.3,0-3.6,0-.4,.2-.7-.2-3.3-.2-.5-.4-1.3-.6-2.2-.2-.9-.4-2-.6-3.1-.2-1.1-.4-2.1-.6-3-.2-.9-.4-1.7-.7-2.1,0,0-.7-2.5-.5-2.4-.5-.7-1-2.5-1.6-4.1-.3-.5,0,.5,.1,.9-.5-1.2-1-2.3-1.6-3.5-.2-.7-.4-1.2-.3-1.3,0,0,.2,.1,.6,.9-1-2.3-3.1-6.7-6.6-11.7-3.5-5-8.4-10.4-14.1-14.9-2.9-2.3-5.9-4.3-9-6.1-3.1-1.7-6.1-3.2-9-4.3-5.7-2.3-10.6-3.3-13.2-3.8,.6,.3,1.8,.5,2.9,.8,1.1,.3,2.2,.6,2.7,1-1.4-.3-2.4-.5-3.2-.7-.8-.2-1.4-.4-2.1-.4-.5-.4-2-.8-3.6-1.1-1.6-.3-3.4-.6-4.4-1l-.8,.3-1.4-.4c-3-.1-4.7-.1-5.7-.1-1,0-1.3,0-1.6,0-.5,0-.9-.2-6.2,0-6.2,.4-9.1,1.4-12.6,1.9,.5,0,1.9-.1,.3,.3-.2-.1-1.2,.1-2.3,.4-1.1,.3-2.3,.7-2.7,.6-.8,.2-2.4,.7-3.6,1.1-1.2,.4-2,.8-1.1,.7-.4,0-1.8,.4-2.7,.7-.9,.3-1.4,.4,0-.2-1.5,.6-2.9,1.1-3.9,1.6,.6-.2,1.3-.4,1.9-.7-1.2,.5-2.3,1-3.3,1.4-1,.4-1.9,.8-2.7,1.3-.8,.4-1.6,.8-2.3,1.2-.7,.5-1.4,.9-2.1,1.5l1.8-.9c-1.4,.8-2.6,1.6-3.6,2.3-1,.6-1.9,1.1-2.5,1.3,.8-.7,1.7-1.3,2.6-2-2.2,1.5-3.9,2.8-5.4,4.1-.8,.7-1.5,1.3-2.2,2-.7,.7-1.4,1.4-2.2,2.2l1.2-1.1c-.5,.5-1.2,1.3-2.1,2.3-.4,.5-.9,1-1.5,1.6-.5,.6-1.1,1.3-1.6,2-2.3,2.8-4.8,6.3-6.9,10-2.1,3.7-3.8,7.6-5,10.9-.3,.8-.5,1.6-.8,2.3-.2,.7-.4,1.4-.6,2-.3,1.2-.6,2.2-.7,2.8,.3-.7,.6-1.4,1-2.1-.4,1.4-.6,2.8-.9,4.2,.1-.5-.5-2.3-.3-2.7-.6,2.2-1.9,6.8-2.7,12.6-.1,.7-.2,1.5-.3,2.2,0,.8-.2,1.5-.2,2.3-.2,1.6-.3,3.2-.4,4.9,0,.4-.1,1.3,0,1.8,0,.4,0,.9,.1,1.3,0,.9,.1,1.7,.3,2.6,.1,.9,.2,1.7,.3,2.6l.4,2.6c.6,3.5,1.4,6.9,2.3,10.2,1,3.2,2.1,6.3,3.2,9,2.3,5.4,4.7,9.4,5.8,11.2,1.8,3,0,.8-.2,.8,2.5,3.4,1.3,1.3,3.4,4.3,.5,.8-.3,0-.7-.4,.9,1.2,1.8,2.5,2,2.5-1.2-1.7-.3-1.2-.6-2.1,.4,.6,1,1.2,1.5,1.9l.7,.9c.3,.3,.5,.6,.8,.9h-.3c.7,.8,2.3,1.5,5.5,4.6,2.8,2.5,5.9,5,9.3,7.2,3.4,2.1,6.8,4.1,10.4,5.6-.2,0-1.7-.5-3.2-1.1,.9,.5,2.4,1.1,3.2,1.6-.8-.5,0-.2,.8,.1,.8,.3,1.7,.6,1,.3,1.4,.4,2.8,.9,4.3,1.3,.7,.2,1.5,.5,2.2,.7,.8,.2,1.5,.4,2.3,.6,3,.8,6,1.4,8.4,1.6,.1-.1,.9-.7,2-1.5,1.1-.8,2.5-1.9,3.8-3,2.6-2.3,4.9-4.6,4.9-5,1.3,0,2.7,0,3.1,.1-.3-.2-3-.3-4.4-.3l-.3,.3c-3.2-.1-.7-.2-3.9-.5-.1-.3,2.7,0,5.3,0-2.3-.1-4.5-.5-5.5-.3-2.1-.4,.3-.3-2.3-.7-.9,0-2-.2-3-.3-1.1-.1-2.2-.4-3.2-.7h0c-2.4-.8-4.3-1.2-6.1-1.7-.5-.1-.9-.2-1.4-.4-.4-.1-.9-.3-1.3-.5-.9-.3-1.9-.7-2.9-1.3h.5c-1.4-.7-4.4-1.8-6.8-3.5,.7,.5,1.2,1-.3,.2-1.4-.9-2.5-1.8-3.6-2.5-1.1-.7-2-1.5-2.9-2.3l-2-1.3c-.3-.2-.6-.5-.9-.8-.3-.3-.7-.6-1-1-.7-.7-1.6-1.4-2.4-2.3-.4-.4-.8-.9-1.3-1.3-.5-.4-.8-1-1.2-1.5-.4-.5-.8-1-1.3-1.7-.4-.6-.9-1.2-1.3-1.8-3.6-5-6.9-11.6-9.1-18.7-1.1-3.5-1.9-7.1-2.4-10.7-.2-.9-.3-1.8-.4-2.6-.1-.9-.2-1.7-.3-2.6,0-.4,0-.9-.1-1.3,0-.6,0-.3,0-.5,0-.8,.1-1.6,.2-2.4,.5-6.4,1.6-11.6,2.3-14.5v.5c1-4.5,2.8-10,5.7-15.6,3-5.5,7-11.2,12.2-15.8,5.1-4.7,10.9-8.4,16.8-10.8,1.5-.6,2.9-1.1,4.4-1.6,1.5-.4,2.9-.9,4.3-1.2,2.8-.7,5.4-1.2,7.8-1.6,3,0,7-.5,10.1-.4-1.7,0-1.1-.3,.2-.3,4.7,0,4.9,0,5.1,0,0,0,.2,0,.8,0,.7,0,1.9,0,4.3,.3,2.7,.2,7.4,.9,12.7,2.5,.7,.2,1.3,.4,2,.7,.7,.2,1.4,.5,2.1,.7,1.4,.6,2.8,1.1,4.2,1.8,2.8,1.3,5.6,2.9,8.2,4.8,5.3,3.6,9.9,8.2,13.1,12.5,3.3,4.2,5.3,8.1,6.2,10.3,2.7,4.4,4.3,10.7,5.4,15.6l-.2-.5c.3,1.3,.8,4.2,1.1,8,.3,3.8,.3,8.5-.1,13.1-.4,4.6-1.3,9.2-2.4,12.9-.5,1.9-1.1,3.5-1.5,4.9-.5,1.4-.9,2.5-1.2,3.2,.1-.2,.3-.5,.4-.8-.9,2.6-1.5,3.7-2.1,4.5-.3,.4-.5,.9-.9,1.4-.4,.5-.8,1.2-1.3,2.1,.7-.2-1.5,4-2.6,5.5h0c-.4,.5-.9,1.2-1.5,2.1-.6,.9-1.3,1.8-2,2.8-.7,1-1.6,1.9-2.4,2.9-.8,.9-1.7,1.8-2.5,2.5v-.3c-.7,.6-1.5,1.4-2.5,2.2-.5,.4-1,.8-1.5,1.1l-.8,.6-.8,.5c-.5,.3-1.1,.7-1.6,1-.5,.3-1,.6-1.5,.9-.5,.3-.9,.5-1.3,.7-.4,.2-.8,.4-1.1,.5-2.7,1.4-6.4,2.7-10.5,3.8-4.1,1.1-8.5,1.8-12.7,2.4-1.8,0-3.7-.2-5.5-.3h-.8c0,0-2.1,2.3-3,4.8-.8,2.4-.3,5.2,5.9,5.9l-.2,.3,2.5-.2c3-.1,4.3-.6,4.1-.3l-4,.4c3-.2,.9,.1-.2,.4,1.2,0,2.5-.2,3.4-.2,.6-.2-.4,0-.9,0,1.6-.2,3.8-.8,5.7-1,3-.5,.3,.4,3.8-.3,9.3-1.9,18.5-5.6,26.4-11.4l1.5-1.1,1.4-1.2,1.4-1.2,1.3-1.2,1.3-1.3,1.3-1.3,1.3-1.3,1.2-1.4c3.1-3.7,5.8-7.6,8.2-11.9,.3-.3,0,.1-.2,.6,2.8-5.2,4.9-10,6.4-15.1,.6-1.4,.8-1.7,1-2.1-.2,.4,1.9-6.7,2.5-14.2,.4-3.7,.5-7.5,.5-10.3,0-1.4,0-2.6,0-3.5,0-.9,0-1.4,0-1.4Z"/></g><g><path d="M868.3,359.3c.9,1,1.9,2.2,3,3.6,.6,.7,1.2,1.4,1.8,2.1,.6,.8,1.2,1.5,1.8,2.3,1.2,1.6,2.6,3.2,3.8,5,1.2,1.8,2.6,3.5,3.7,5.4-3.5-5.7-7.6-11.6-14.1-18.4Z"/><path d="M882.5,377.9s0,0,0,.1c0-.1-.1-.2-.2-.3,0,0,0,.1,0,.1Z"/><path d="M867.1,341.3c-1.8-1.5-3.9-3.2-6.1-5,2,1.7,4.1,3.4,6.1,5Z"/><path d="M652.6,589.3l-1.4-.2c-4.6-2.3-7.1-4-8.7-5-1.5-1-2.1-1.4-2.6-1.8-.5-.4-1-.8-2.3-1.7-1.3-1-3.6-2.4-7.4-5.3-.8-.5-1.8-1.2-2.9-2-1.1-.9-2.3-1.9-3.7-2.9-2.7-2.1-5.6-4.9-8.5-7.6-1.4-1.4-2.7-2.8-4.1-4.2-.7-.7-1.3-1.3-1.9-2-.6-.6-1.2-1.3-1.8-1.9-2.2-2.5-4-4.6-5.2-5.8,0,0-.3-.4-.9-1.1-.5-.7-1.2-1.6-1.9-2.5-1.3-1.8-2.6-3.6-2.4-3.4-.5-.5-1.2-1.2-1.8-2.2-.6-.9-1.4-2-2.1-3.2-.8-1.2-1.6-2.4-2.4-3.7-.4-.6-.8-1.3-1.2-1.9-.4-.7-.8-1.3-1.2-1.9-1.2-1.8,.7,1.4,1.4,2.9l-3.5-5.8c-.6-1-1.2-1.9-1.7-2.9l-1.6-3c-2.3-4.8-2.7-6.1,0-.9-2.1-3.9-4.8-9.9-7.8-17.5-.7-1.9-1.5-3.9-2.2-6-.4-1-.7-2.1-1.1-3.3-.3-1.1-.7-2.2-1.1-3.4-.4-1.2-.7-2.3-1.1-3.5-.2-.6-.4-1.2-.6-1.8-.2-.6-.3-1.2-.5-1.9-.7-2.5-1.3-5.1-2-7.7-.4-1.3-.6-2.7-.9-4-.3-1.4-.6-2.8-.9-4.2-.3-1.4-.6-2.8-.9-4.2-.3-1.4-.5-2.9-.7-4.4-.5-2.9-1-5.9-1.5-9-.4-3.1-.8-6.1-1.2-9.3,0-.8-.2-1.6-.3-2.4,0-.8-.1-1.6-.2-2.4-.1-1.6-.3-3.2-.4-4.8-.1-1.6-.3-3.2-.4-4.8-.1-1.6-.2-3.2-.3-4.9-.2-3.3-.3-6.5-.5-9.8,0-3.3,0-6.6-.1-9.9,0-3.3,0-6.6,0-9.9,0-3.3,0-6.6,.2-9.9,.1-3.3,.3-6.6,.4-9.8,.2-3.2,.5-6.4,.7-9.6,1.1-12.7,2.7-24.8,4.8-35.7,4.2-21.9,10.3-38.9,14-47.8-.5,1.1-1.2,2.7-1.9,4.4-.8,1.7-1.4,3.7-2.1,5.7-.7,2-1.5,3.9-2.1,5.6-.6,1.7-1.1,3.2-1.5,4.3,.4-1.2,.7-2.4,1-3.5,.2-.5,.3-1.1,.5-1.6,.2-.5,.3-1,.5-1.4,.7-1.8,1.2-3.5,1.7-4.9,.5-1.4,1-2.7,1.4-3.9,.5-1.2,.9-2.2,1.2-3.3,.5-.8,1.3-2.6,2.3-4.8,1-2.2,2.3-4.8,3.6-7.5,2.7-5.4,5.8-11.2,8.1-14.2l1.2-2.7c.9-1.4,1.9-2.7,2.9-4.1,6.1-9.3,10.2-14,12.5-16.8,2.3-2.8,3.1-3.6,3.8-4.3,.7-.7,1.2-1.2,3.3-3.4,1-1.1,2.6-2.4,4.7-4.4,.5-.5,1.1-1,1.7-1.6,.3-.3,.6-.6,1-.9,.3-.3,.7-.6,1.1-.9,1.5-1.2,3.2-2.6,5.1-4.1,2.2-1.7,4.4-3.2,6.4-4.7,.5-.4,1-.7,1.5-1.1,.5-.3,1-.6,1.5-1,1-.6,1.9-1.2,2.9-1.8,.9-.6,1.8-1.2,2.7-1.7,.9-.5,1.8-1,2.6-1.5,1.7-1,3.3-1.9,4.9-2.8,1.6-.8,3.1-1.5,4.6-2.3,1.5-.7,2.9-1.5,4.4-2.1,1.5-.6,2.9-1.2,4.3-1.7,.7-.3,1.4-.6,2.2-.9,.7-.3,1.5-.6,2.2-.8-.9,.3-2.5,.9-3.2,1.1-.7,.2-.6,0,2.2-1.1,.5,0,4.3-1.3,8.2-2.7,4-1.2,8.3-2.4,9.7-2.6,1.4-.3,3.6-.8,6.1-1.3,1.2-.3,2.5-.6,3.7-.8,1.3-.2,2.5-.4,3.7-.6,4.6-.8,7.7-1.4,4.5-1.1,1.6-.2,6.6-.6,10-.9,1.7-.2,3-.2,3.2-.2,.2,0-.6,0-3.1,.4,2.8-.3,5.7-.4,8.3-.6,1.3,0,2.6-.2,3.7-.2,1.2,0,2.3,0,3.3-.1h-3.7s-3.7,.2-3.7,.2c9.6-.6,17.1-.5,23.8-.2,1.7,0,3.3,.1,4.8,.2,1.6,0,3.1,.2,4.6,.3,3.1,.2,6,.5,9.2,.7-2.4-.3-4.7-.7-7.1-.9,11.5,.9,21,2.7,25.3,4.1-1.9-.4-3.8-.8-5.8-1.1-1.9-.3-3.9-.7-5.8-.9,9.4,1.4,16.8,3.2,23.8,5.1,6.9,2,13.4,4.2,20.6,7.3l-5.2-2.2c4.7,1.8,14.3,5.8,25.1,12.9,5.4,3.5,11.1,7.8,16.6,12.8,5.5,5,10.8,10.7,15.5,16.8,4.7,6.1,8.8,12.7,12.2,19.3,3.4,6.6,6.1,13.2,8.2,19.2,.1,.4,.3,.7,.4,1.1v.3c.2,.2,.3,.4,.4,.6,.1,.4,.3,.8,.4,1.3v.2c0,0,.1,.1,0,.1h-.3c-.2,0-.4,0-.6,0-.4,0-.8,0-1.1,.1-4.3,.3-7.7,.6-9.8,.8l8.9-.2-16.5,1.2c2-.1,7.9-1.5,9.5-1.5-8.8,.5-27,1.6-49.7,2.9-10.3,.6-21.6,1.3-33.5,2l-.3-.7v-.3c-.1,0-.2-.2-.2-.2l-.3-.5c-.4-.8-.8-1.6-1.2-2.3l-.6-1.2c-.2-.4-.5-.8-.7-1.2l-1.5-2.3c-.5-.8-1.1-1.5-1.6-2.2-.6-.7-1.1-1.5-1.7-2.2l-1.9-2.1c-5-5.6-11.5-9.8-18.3-12.7-6.9-2.9-14.1-4.5-21.1-5.2-1.8-.1-3.5-.3-5.3-.4-1.8,0-3.5,0-5.2-.1-1.7,0-3.5,0-5.2,.1-1.7,.1-3.4,.2-5.1,.4-6.8,.7-13.5,2.1-19.7,4.3-6.2,2.2-11.9,5.3-16.8,8.9-4.9,3.6-9,7.8-12.2,11.9-3.3,4.2-5.8,8.4-7.9,12.2-4,7.7-6.1,14.1-7.5,18.1-2.1,6.5-2.3,7.1-2.1,6,.1-1.1,.9-3.9,.9-3.9-2.3,8-2.5,9.8-2.7,11.2-.3,1.4-.5,2.6-1.8,9.5-.7,3.7-.2-.8,.2-2.9-.6,3-1.1,5.9-1.5,8.1-.3,2.2-.6,3.7-.5,4,1.2-7.5,1.2-4.3,2-7.4-.3,1.5-.5,2.9-.7,4.4l-.7,4.7-.9,7.2-.4,3.6-.3,3.5-.2-1c-.2,2.2-.3,4.7-.5,8,0,1.7-.2,3.6-.3,5.8,0,1.1-.1,2.3-.2,3.6,0,.3,0,.6,0,1v.5s0,.2,0,.2c0,0,0,0,0,.1,0,.3,.2,.7,.2,1,2.1-2.5,4.3-5.2,6.9-8.2,1.3-1.5,2.8-3.2,4.2-4.9,.7-.9,1.5-1.7,2.3-2.6,.4-.5,.8-.9,1.2-1.4,.2-.3,.4-.4,.6-.6l.6-.6c2.1-2,4.1-4,6.2-6,.2-.2,.6-.5,.7-.7l.5-.4,1-.8,2.1-1.7c1.3-1.2,2.8-2.2,4.3-3.2l2.2-1.6c.7-.5,1.5-1,2.3-1.5l2.3-1.4,1.1-.7c.4-.2,.8-.4,1.2-.7,1.6-.9,3.2-1.7,4.8-2.6,1.6-.8,3.3-1.6,4.9-2.3,.8-.4,1.7-.7,2.5-1.1l2.5-1c.9-.3,1.7-.7,2.6-1l2.6-.9c1.7-.6,3.5-1.2,5.2-1.7,1.8-.5,3.5-1,5.3-1.4,1.8-.4,3.6-.8,5.4-1.2,.9-.2,1.8-.4,2.7-.5l2.7-.4,2.7-.4c.9-.1,1.8-.2,2.7-.3,1.8-.2,3.6-.4,5.4-.6,1.8-.1,3.6-.2,5.4-.3-.2,0-1.8,.3-4.1,.5-1.1,0-2.5,.3-3.9,.4-1.4,.2-2.9,.4-4.4,.6,1.9-.2,4.3-.5,6.6-.8,2.4-.2,4.7-.3,6.4-.4-1.7,0-1.8,0-1.1,0,.7,0,2.2-.2,3.8-.3,3.2,0,6.6-.2,3.9-.2,10.5-.5,22.6,.2,34.1,2,11.6,1.9,22.5,5.1,31.1,8.2,.8,0,10.9,1.3,20.8,4.2,2.5,.7,5,1.4,7.2,2.3,2.3,.8,4.5,1.5,6.2,2.3,1.8,.7,3.3,1.3,4.4,1.7,1.1,.4,1.7,.7,1.8,.6,1.2,1,2.4,2,3.5,2.9,.6,.5,1.1,.9,1.7,1.4,.5,.5,1,.9,1.5,1.3,1.9,1.7,3.3,3.1,4,3.7-.5-.6-3-3-6-5.6-1.6-1.3-3.2-2.7-4.8-4-1.6-1.3-3.2-2.4-4.5-3.3l-1.1-.4c-3-2.1-4.8-3.2-5.8-3.9-1-.7-1.4-.9-1.7-1.2-.3-.2-.7-.5-1.7-1.1-.5-.3-1.2-.7-2.1-1.3-.9-.6-2.1-1.3-3.8-2.1-.5-.7,11.3,5.6,20.5,12.8-2.1-1.6-4.2-3.1-6.3-4.7-2.1-1.4-4.1-2.8-6-4-1.9-1.1-3.7-2.2-5.2-3-1.5-.9-2.9-1.5-3.9-1.9-2.2-1.2-3.2-1.7-3.7-2-.5-.3-.4-.3-.4-.3,0,0,0,0-.7-.5-.7-.4-2.1-1-4.8-2.3-3.9-1.6-8.6-3.3-13.4-4.8-2.4-.8-4.9-1.4-7.3-2.1-2.4-.7-4.9-1.2-7.2-1.9h.2c-11.5-2.7-20.5-3.6-29.2-4.1-2.2,0-4.3-.2-6.5-.3-2.2,0-4.4,0-6.6,0-.6,0-1.1,0-1.7,0-.6,0-1.2,0-1.7,0-1.2,0-2.4,0-3.6,0-1.2,0-2.5,0-3.7,0-1.3,0-2.6,.1-3.9,.2l2.3-.3c-1.9,.1-4.3,.2-6.9,.4-1.3,.2-2.8,.3-4.2,.5-1.5,.2-3,.3-4.6,.6-1.6,.3-3.2,.5-4.9,.8-1.7,.3-3.4,.7-5.1,1-3.4,.7-6.8,1.7-10.2,2.5,3.8-1,7.2-1.7-.8,.6-15.3,4.8-25,10.2-34.7,16.8-1.5,1.2-3,2.3-4.5,3.5l-4.3,3.7c-.2,.1-.3,.3-.5,.4h-.1c0,.2-.1,.2-.2,.3-.2,.1-.3,.3-.5,.5,0,0-.1,0-.2,.1h0c0,.1,0,.1-.1,.2,0,0-.2,.2-.3,.4h0c0,0,0,0,0,0,0,0,0-.1,0-.2,0-.1,0-.3,0-.4,0-.1,0-.3,0-.5h0c0-.5,.1-.9,.2-1.3,.2-1.3,.4-2.5,.6-3.8,.9-5.2,1.9-10.7,3.3-16.4,1.4-5.7,3.2-11.5,5.5-17.3,2.3-5.8,5.1-11.6,8.8-16.7,3.6-5.2,8.2-9.8,13.6-13.5,2.7-1.9,5.6-3.4,8.6-4.7,3-1.3,6.3-2.4,9.6-3.2,6.6-1.6,13.7-2.3,20.7-2.2,7.1,0,14,.9,20.5,2.7,6.5,1.7,12.2,4.8,17,8.7,2.3,2,4.5,4.2,6.3,6.7,.4,.6,1,1.2,1.3,1.9,.4,.6,.8,1.3,1.2,1.9,.4,.6,.8,1.3,1.1,2,.4,.7,.7,1.4,1.1,2.1,0,0,.3,.6,.4,.9l.5,1.1,1,2.2,.9,2.2,.5,1.1v.3c.1,0,.2,.1,.2,.1h.1s.6,0,.6,0c3-.2,6-.4,9-.5,3.3-.2,6.5-.4,9.7-.6,25.3-1.5,46.2-2.7,58.6-3.5l-2.1,.2c5-.3,10.4-.6,16.1-1,3.5-.2,7.2-.4,10.9-.6,2.8-.2,5.6-.3,8.4-.5,.7,0,1.4,0,2.1-.1h1.1c0,0,.3,0,.3,0h.1s0,0,0-.1l-.2-.5c-.4-1.4-.8-2.8-1.2-4.2-.8-2.8-1.7-5.6-2.5-8.4-.2-.7-.4-1.4-.7-2.1l-.5-1.6c-.3-.8-.5-1.6-.8-2.4-.5-1.6-1.2-3.2-1.8-4.8-.3-.8-.6-1.6-.9-2.4-.3-.8-.7-1.6-1-2.4-.7-1.6-1.3-3.2-2.1-4.8-.8-1.6-1.6-3.2-2.3-4.8-.9-1.6-1.7-3.2-2.6-4.8-.9-1.6-1.9-3.1-2.8-4.7-7.7-12.6-17.8-24.6-30.1-34.7-12.2-10.1-26.4-18.3-41.4-24.1-15-5.9-30.8-9.4-46.3-11.3-7.8-.9-15.5-1.4-23.1-1.6-3.8,0-7.6-.1-11.3,0-3.7,0-7.4,.1-11.1,.4-14.6,.9-28.6,3.1-41.2,6.4-12.7,3.3-24.1,7.8-33.7,12.7-1.5,.8-3,1.6-4.7,2.4-.8,.4-1.6,.9-2.5,1.3-.4,.2-.8,.4-1.3,.7-.4,.2-.8,.5-1.2,.7-3.3,2-6.8,4-10,6.5-1.6,1.2-3.3,2.3-4.9,3.5-1.6,1.3-3.1,2.5-4.6,3.8-.8,.6-1.5,1.2-2.3,1.8-.7,.6-1.4,1.3-2.1,1.9-1.4,1.3-2.7,2.5-4,3.7,5.8-5.2,4-3.2-.5,.9-1.9,1.9-3.5,3.6-4.9,5.1-.7,.7-1.4,1.4-2,2.1-.6,.7-1.1,1.3-1.6,1.9-2,2.3-3.3,4-4.3,5.1-1.8,2.3-2,2.7-2.2,3-.2,.3-.4,.7-2.2,3.1-.4,.6-1,1.3-1.6,2.2-.6,.9-1.3,2-2.2,3.3-.9,1.3-1.9,2.8-3,4.5-1.1,1.7-2.3,3.8-3.7,6.1-3.2,5.3-7,12.7-11,21.7-3.9,9.1-7.8,20-11.2,32-6.8,24.2-10.5,53.2-11.4,82.1-.4,14.4-.1,28.8,.8,42.7,1,13.8,2.8,27,5,39,.6,3,1.2,5.9,1.8,8.7,.1,.7,.3,1.4,.4,2.1,.2,.7,.4,1.4,.5,2.1,.4,1.4,.7,2.7,1,4,1.3,5.3,2.9,10.2,4.3,14.7,.7,2.3,1.5,4.3,2.2,6.3,.7,2,1.4,3.9,2.1,5.7,1.4,3.5,2.8,6.5,3.9,9,5.1,10.6,11.6,22.1,19.6,32.7,7.9,10.6,17.1,20.1,25.9,27.5-.6-.5-1.2-1-1.8-1.5,4.7,4,14.9,12.8,29.9,21.2,14.9,8.3,34.6,15.9,55.1,19.4,10.2,1.8,20.6,2.9,30.6,3.4,10,.3,19.5,.2,28.2-.4,17.4-1.2,31.3-4.2,38.2-6-1.2,.3-2.5,.6-3.8,.8,.8-.2,1.5-.3,2.2-.5,.7-.2,1.4-.4,2-.6,1.3-.4,2.5-.7,3.6-1,1.1-.3,2.2-.6,3.1-.9,1-.3,1.9-.6,2.7-.9,1.7-.5,3.1-1,4.4-1.4,1.3-.4,2.5-.9,3.6-1.2,1.1-.4,2.2-.8,3.3-1.2,.6-.2,1.2-.4,1.8-.6,.6-.2,1.2-.5,1.9-.8,2.6-1.1,5.9-2.3,10.4-4.6-1.3,.4,2.9-1.8,8.1-5,.7-.4,1.3-.8,2-1.2,.7-.4,1.3-.9,2-1.3,1.4-.9,2.7-1.8,4-2.6,2.6-1.8,4.9-3.5,6.6-4.7l-.2,.3c4.9-3.7,12.9-10,20.5-18.2,.9-1,1.9-2.1,2.8-3.1,.9-1,1.9-2.1,2.8-3.2,.9-1.1,1.8-2.2,2.7-3.3l1.4-1.7,1.3-1.7c1.7-2.3,3.4-4.5,4.9-6.8,1.5-2.3,3-4.5,4.3-6.7l-.2,.8c1-1.9,2.3-3.9,3.5-6.1,1.1-2.3,2.4-4.6,3.6-7.2,.6-1.3,1.2-2.6,1.7-3.9,.6-1.3,1.2-2.6,1.7-4,.5-1.4,1.1-2.7,1.6-4.1,.3-.7,.5-1.4,.8-2.1,.2-.7,.5-1.4,.7-2.1,3.8-11.1,5.8-21.9,6.7-28,.3-1.7,.5-3.5,.7-5.4,.2-1.8,.5-3.7,.6-5.7,.1-1.9,.3-3.9,.4-6,0-1,.1-2.1,.1-3.1,0-1,0-2.1,0-3.2,.2-8.5,0-17.6-1.1-27-1.1-9.4-3-19-5.9-28.4-2.9-9.3-6.8-18.4-11.4-26.6-3.7-7.2-8.1-14.1-13.1-20.5l-1.1-1.4c-.4-.4-.8-.9-1.2-1.3,0,0-2.1-1.5-4.6-3-2.6-1.5-5.8-3-7.8-3.3-2.1-.3-3.1,.5-1.6,3.5,.4,.8,.9,1.6,1.6,2.7,.7,1.1,1.6,2.2,2.5,3.7,1,1.4,2.2,3,3.5,4.9,.7,.9,1.3,1.9,2.1,3,.7,1.1,1.6,2.1,2.3,3.4l-.6-.4c1.7,2.5,3.6,4.9,5.2,7.5,5.7,9.3,7.8,13.9,7.3,13.3l-1.6-3.4c-.5-1.1-1.2-2.2-1.8-3.3l-1.8-3.3-2-3.2c.7,1.2,1.3,2.1,1.7,2.8,.4,.7,.7,1.2,.9,1.6,.3,.7,.3,.6,0,.2-.5-.9-2.2-3.4-3.4-5.1,1.2,1.9,2.4,3.8,3.4,5.7,.5,.9,1,1.8,1.5,2.7,.2,.4,.5,.9,.7,1.3,.2,.4,.4,.9,.6,1.3,1,1.9-.5-1.5-1.4-3,2.9,5.1,6.6,12.4,8.7,19.3,.5,1.3,.8,2.3,1,3.1,.2,.8,.4,1.3,.5,1.7,.2,.8,.2,.9,.2,1.1,0,.2,0,.5,.3,1.5,.2,1,.7,2.8,1.4,5.9,2,8.4,3.2,17,3.8,25.6,.6,8.6,.6,17.3,0,25.9-1.1,17.2-4.9,34-11.6,49.5-6.7,15.6-16.6,29.7-28.6,41.9l-4.6,4.5c-1.6,1.5-3.2,2.8-4.8,4.2-1.6,1.4-3.3,2.7-5,4l-2.6,2-2.6,1.9c-7.1,5-14.5,9.4-22.4,13.1-1.5,.6,.2-.2,2-1.2-9.4,4.7-18.8,8.1-28.2,10.7-9.4,2.6-18.8,4.5-28.4,5.7-1.3,.2-2.4,.2-3.4,.3-.9,0-1.7,0-2.3,.1-1.2,0-2,0-2.8,0,.8,0-5.5,.7-15.4,.9-9.9,.3-23.5-.1-37-2.1-13.5-1.9-26.8-5.5-36.6-9.2-2.4-1-4.6-1.9-6.6-2.7-2-.8-3.7-1.7-5.1-2.3-1.4-.7-2.6-1.2-3.4-1.6-.8-.4-1.2-.7-1.3-.7Z"/></g></g></g></svg>