<?xml version="1.0" encoding="UTF-8"?><svg id="Layer_1" xmlns="http://www.w3.org/2000/svg" viewBox="0 0 1024 1024"><defs><style>.cls-1{fill:none;}.cls-2{font-family:HelveticaNowText-Regular, 'Helvetica Now Text ';font-size:139.4px;letter-spacing:0em;stroke:#000;stroke-miterlimit:10;stroke-width:2.4px;}.cls-3{fill:#ebebec;}.cls-4{fill:#ee2a7b;}</style></defs><polygon class="cls-3" points="12.3 93 973.1 2.4 1011.7 994.3 116.2 1024 12.3 93"/><g><path class="cls-4" d="M198.2,638.7c0-37.7,8.1-69.2,24.4-94.6,16.3-24.6,46-51.7,89.2-81.5l65.4-46.4c16.7-11.5,28.4-22.4,35.4-32.7,6.9-10.3,10.4-22,10.4-35.1s-5.2-30.4-15.5-40.1c-10.3-9.7-24.4-14.6-42.2-14.6-40.4,0-60.7,23.6-60.7,70.8v8.9h-100.5v-13.1c0-48.8,14.3-86.8,42.8-114.2,28.5-27.4,69-41,121.3-41s89.6,12.1,118.9,36.3c29.7,24.6,44.6,58.1,44.6,100.5s-7,51.9-21.1,73.7c-14.1,21.8-36.6,42.6-67.5,62.4l-73.1,46.4c-13.9,9.1-21.4,16.8-22.6,23.2h186.1v91H198.2Z"/><path class="cls-4" d="M649.6,638.7c0-53.5,12.9-110.2,38.7-170.1,25.8-59.5,60.9-112,105.3-157.6h-208.7v-95.7h327.1v86.2c-48.4,51.5-84,104.1-107,157.6-23,53.9-35.3,113.8-36.9,179.6h-118.3Z"/></g><text class="cls-2" transform="translate(241.7 839.1)"><tspan x="0" y="0">DE ABRIL</tspan></text><g><g><path class="cls-1" d="M184.3,617.7c0-37.7,8.1-69.2,24.4-94.6,16.3-24.6,46-51.7,89.2-81.5l65.4-46.4c16.7-11.5,28.4-22.4,35.4-32.7,6.9-10.3,10.4-22,10.4-35.1s-5.2-30.4-15.5-40.1c-10.3-9.7-24.4-14.6-42.2-14.6-40.4,0-60.7,23.6-60.7,70.8v8.9h-100.5v-13.1c0-48.8,14.3-86.8,42.8-114.2,28.5-27.4,69-41,121.3-41s89.6,12.1,118.9,36.3c29.7,24.6,44.6,58.1,44.6,100.5s-7,51.9-21.1,73.7c-14.1,21.8-36.6,42.6-67.5,62.4l-73.1,46.4c-13.9,9.1-21.4,16.8-22.6,23.2h186.1v91H184.3Z"/><g><path d="M190,610.3c.1-1.6,.3-3.5,.4-5.5,.2-2.1,.4-4.3,.6-6.8,.3-2.4,.5-4.9,.8-7.5,.4-2.5,.7-5.1,1.1-7.7-1.5,7.8-2.6,16.2-2.9,27.4Z"/><path d="M193,582.7s0-.1,0-.2c0,.1,0,.2,0,.4,0,0,0-.1,0-.2Z"/><path d="M192.1,624.3c2.7,0,5.7,0,8.7,0-2.9,0-5.9,0-8.7,0Z"/><path d="M288.3,309.8c0,.6,0,1.2,0,1.8-.4,1.6-.8,3.1-1.1,4.4-.3,1.3-.6,2.5-.7,3.5-.2,1-.4,1.9-.5,2.7-.1,.8-.2,1.5-.3,2-.4,2.3-.5,3.2-.7,4.1-.1,.8-.3,1.6-.5,3.7,0,1-.2,2.4-.3,4.3,0,.9,0,2-.1,3.2,0,1.2,0,2.5,0,4,.1,.5,.2,1.4,.3,2.4,0,0-.2,0-.4,0-1.1,0-2.3,0-3.5,0-3.7,0-7.4,0-11,0-7.1,0-13.5,0-16.6,0,0,0-.6,0-1.7,0-1,0-2.4,0-3.8,0-2.7,0-5.4,0-5.1-.2-3.5,.4-11.7,0-18.9,.2-2.6,0,1.9,.1,3.9,.2h-16.5c-6.4,0-8-.2-1-.2-2.3,0-5,0-8.2,0-1.3,0-2.8,0-4.4,0,0,0-.2,0-.3,0,0-.1,0-.2,0-.3,0-2.1,0-4.2,0-6.4,0-2.4,0-4.8,.2-7.3,0-2.5,.3-5.1,.4-7.8,.8-10.6,2.3-22.3,5.6-34.2,.9-2.9,1.7-6,2.8-8.9,.5-1.5,1-3,1.6-4.5,.6-1.5,1.2-3,1.8-4.4,.3-.7,.6-1.5,.9-2.2l1-2.2c.7-1.5,1.4-2.9,2.1-4.4,1.6-2.8,3-5.8,4.8-8.5l1.3-2.1,.7-1.1,.7-1c.9-1.4,1.9-2.7,2.8-4.1,1-1.3,2-2.6,3-3.9l1.5-2,1.6-1.9c4.3-5.1,9.2-9.7,14.2-13.9,1.3-1,2.6-2.1,3.9-3.1,1.3-1,2.7-1.9,4-2.9l2-1.4c.7-.5,1.4-.9,2.1-1.3,1.4-.9,2.8-1.7,4.1-2.6,1.4-.8,2.8-1.6,4.2-2.4l2.1-1.2c.7-.4,1.4-.7,2.2-1.1,1.4-.7,2.9-1.4,4.3-2.1,1.5-.6,2.9-1.2,4.3-1.9,2.9-1.3,5.8-2.3,8.7-3.3,1.4-.6,2.9-.9,4.3-1.4,1.4-.4,2.9-.9,4.3-1.3,2.9-.7,5.7-1.5,8.5-2.2,2.8-.6,5.6-1.2,8.3-1.7,2.7-.4,5.4-.9,8-1.3,2.6-.3,5.1-.7,7.6-1,4.9-.4,9.5-.9,13.8-1,8.5-.5,15.6-.4,20.6-.3-1.5,0-3.4-.2-5.6-.2-2.2,0-4.7,0-7.1,0-1.2,0-2.4,0-3.6,0-1.2,0-2.3,0-3.4,.1-2.1,0-4,0-5.4,0,3-.2,5.6-.4,7.9-.5,2.3-.1,4.3,0,6.1-.1,1.8,0,3.4,0,4.8,0,1.5,0,2.8,0,4.1,0,2.3,.3,8.9,.5,16,1.1,1.8,.2,3.6,.3,5.4,.5,1.8,.2,3.5,.4,5.2,.7,3.4,.4,6.3,1,8.5,1.5,1.1,0,2.3,0,3.4,.2l5.8,1.3c12.8,2.5,19.6,5.1,23.6,6.4,4,1.5,5.2,1.9,6.2,2.3,1,.4,1.9,.8,5.1,2.2,3.2,1.5,8.8,3.9,18.4,10,1.4,.8,2.7,1.8,4,2.7,1.3,.9,2.5,1.7,3.7,2.6,1.1,.9,2.3,1.7,3.3,2.6,.5,.4,1.1,.8,1.6,1.2,.5,.4,1,.8,1.5,1.3,1.9,1.7,3.8,3.2,5.4,4.8,1.6,1.6,3.2,3,4.6,4.5,5.7,6,9.8,11.3,13.5,17.6-1.2-1.8-4.1-6.8-.4-1.1,0,.3,.8,1.4,1.7,2.9,.9,1.6,2.1,3.6,3.2,5.7,.5,1.1,1.1,2.2,1.6,3.2,.5,1.1,1,2.1,1.4,3,.8,1.9,1.4,3.5,1.6,4.3,.6,1.5,1.4,4,2.4,6.7,.4,1.4,.8,2.8,1.2,4.2,.4,1.4,.8,2.8,1.1,4.1,.6,2.6,1.2,4.8,1.4,5.9,.2,1.1,.3,1.1,.1-.8,.2,1.9,1.2,7.6,1.4,11.5,0,1,.2,1.8,.2,2.5,0,.6,0,1.1,0,1.2,0,.3,0-.7-.5-3.6,0,.8,.2,1.6,.3,2.4,0,.8,.1,1.6,.2,2.4,.1,1.6,.2,3.2,.3,4.7,0,3,.2,5.8,.2,8.2,0-2.8,0-5.7,0-8.5,.6,11.2-.1,19.7-1.1,27.3-1.1,7.5-2.5,14-4.4,20.9,.9-2.6,1.6-5.2,2.3-7.8-3,12.9-7.8,23-10.5,27.4,2-4,3.9-8.2,5.4-12.4-1.9,5.1-4,9.6-6.1,13.6-1,2.1-2.2,3.9-3.2,5.8-1.1,1.8-2.2,3.7-3.4,5.4-4.6,6.9-9.5,13.2-15.8,20,1.5-1.6,3-3.2,4.4-4.9-1,1.1-2.1,2.6-3.6,4.2-.7,.8-1.6,1.7-2.4,2.6-.9,.9-1.8,1.9-2.8,2.9-4,4-9.1,8.7-15,13.6-5.9,4.9-12.7,10.1-20,15.1-1.8,1.3-3.7,2.6-5.6,3.8-1.9,1.3-3.8,2.5-5.8,3.8-3.9,2.5-7.9,5.1-11.9,7.6-15.9,10.2-31.7,20.4-44.7,28.7-3.3,2.1-6.3,4.1-9.2,5.9-1.4,.9-2.8,1.8-4.1,2.7-1.3,.9-2.6,1.8-3.8,2.6-4.8,3.4-8.4,6.4-10.6,8.5,2.8-2.4,5.7-4.5,8.7-6.5-2.7,2-5.3,4.1-7.8,6.3l-1.9,1.8c-.9,.9-1.8,1.8-2.6,2.8-.8,1-1.7,1.9-2.3,2.9-.3,.5-.7,1-1,1.5l-.8,1.5c.7-1.4,2.4-4.2,4.8-7.1,.6-.7,1.2-1.4,1.8-2,.4-.4,.8-.9,1.1-1.2,.7-.8,1.3-1.3,1.7-1.7-.7,.6-1.4,1.2-2.2,1.9-.2,.2-.4,.4-.6,.5l-.3,.3c0,0-.3,.3-.4,.4-.6,.6-1.3,1.3-2,2-2.6,2.8-5,6.2-6.3,9.6-.6,1.7-1.1,3.5-1.6,5.5l-.2,.8v.4c0,0-.1,.2-.1,.2h.2c.5,.1,.9,.3,1.4,.4,.9,.2,1.9,.4,2.9,.7,1,.2,2,.4,3,.7h.4c.1,.1,.3,0,.5,0h1.1c.7,0,1.5,0,2.2,0,2.7,0,5.5,0,8.3,0,14.4,0,32,0,51.1,0,36.7,0,79.3,0,116.3,0,0,19.1,0,36.6,0,50.8,0,7.8,0,14.7,0,20.5,0,2.9,0,5.5,0,7.8,0,.7,0,1.2,0,1.7,0,.1,0,.2,0,.3-2,0-2-.2-1.7-.3,.3-.1,.9-.2,.9-.2-.6,0-1,0-1.4,0-1.5,0-2.7,0-3.7,0-1.9,0-2.8,0-3.6,.1-1.7,0-3,.1-11,.1-4.4,0,.9-.3,3.4-.3-7,0-13.5,0-14,0,8.7,.1,5,.5,8.7,.8h-20.5s.9-.3,.9-.3c-4.6,0-11.6,.7-31.8,.6-34,0-70.9,0-105.1,0,.5-.2,7.7-.2,14.9-.3-4.6,0-11.6,0-15.8,0,8.3,.3-14.3,.2-7.9,.3-25,.6-57.4,0-79.5,.5-1,.3-12.8,2.7-24.4,5.2s-11.5,2.5-15.8,3.4c-4.3,1-7.1,1.7-7.1,1.8-6.9,0-13.7,0-15.8,0,1.8,.2,15.3,.2,22.4,.1l1.2-.4c16.5-.1,3.9,.2,20,.2,.9,.3-14,.4-27,.4,11.7,0,23.5,.2,28.2,0,11,.1-1.2,.4,12.1,.5,9.5,0,21.9-.4,32.8-.2h-.2c26.5,.4,40.5-.4,64.7,0h-2.6c8.5,.3,25.4,0,40.8,.2-4.4,0-8.2-.3,1-.3,17.7,.2,29.8,0,42.8,.2l12.4-.3c18.3,0,51.6,0,93.3,0,0-30.6,0-66.9-.1-103.9-40.9,0-82.5,.1-118.2,.2-16.9,0-32.3,0-45.6,0-5.9,0-11.3,0-16.1,0-.3,0-.6,0-.9,0h-.2s-.1,0-.1,0c0,0,0,0,0,0,0-.1,0-.2,.1-.4,0,0,0,.2,0,.2,0-.3,.3-.6,.5-.9l.2-.2h0c0,0,0-.1,0-.1l.2-.2c1.1-1,2.2-2,3.4-3,2.4-2,5-3.9,7.7-5.8,.7-.5,1.4-.9,2.1-1.4,.7-.5,1.5-.9,2.2-1.4,1.5-1,3-1.9,4.5-2.9,12.3-7.8,25.5-16.2,39.4-25,7-4.4,14.1-8.9,21.3-13.5,1.8-1.2,3.6-2.3,5.5-3.5,1.8-1.2,3.7-2.4,5.6-3.6,1.8-1.2,3.7-2.5,5.5-3.8,1.8-1.3,3.7-2.6,5.5-3.9,14.6-10.6,28.8-22.7,41-37,6.1-7.2,11.6-14.9,16.2-23.1,1.2-2,2.2-4.2,3.3-6.2,1-2.1,2.1-4.2,3-6.4,1.9-4.3,3.5-8.7,4.9-13.1,5.7-17.8,7.3-36.2,6.3-53.4-.4-8.6-1.6-17.1-3.3-25.1-.8-4.1-2-8-3.1-11.8-.7-1.9-1.3-3.8-2-5.7-.6-1.9-1.5-3.7-2.2-5.5-.4-.9-.7-1.8-1.1-2.7-.4-.9-.8-1.7-1.2-2.6-.8-1.7-1.6-3.4-2.6-5.1-.9-1.6-1.8-3.3-2.7-4.8-1-1.5-2-3.1-2.9-4.6-4-5.9-8.2-11.3-12.6-15.9-5.3-5.9-12.2-12.3-19.8-17.8-7.6-5.6-15.9-10.4-23.3-13.9,8.1,4.1,5.2,2.9-1.1-.2-2.8-1.3-5.3-2.4-7.6-3.3-2.2-.9-4.2-1.6-5.9-2.2-3.4-1.2-5.7-1.9-7.3-2.5-1.6-.5-2.6-.8-3.1-.9-.6-.1-.8-.2-1-.2-.4,0-.9-.2-4.3-1.1-3.4-.8-9.7-2.5-21.9-4.4-3.4-.6-7.3-1-11.7-1.5-4.4-.4-9.4-.8-14.8-1-10.7-.5-23.2-.5-36.8,.7-1.7,.2-3.4,.3-5.2,.5-1.7,.2-3.5,.4-5.3,.7-3.5,.4-7.1,1-10.8,1.6-1.8,.3-3.6,.7-5.5,1.1-1.8,.4-3.7,.8-5.5,1.2-3.7,1-7.4,1.8-11.1,3.1-7.5,2.2-14.9,5.1-22.2,8.6-7.3,3.4-14.4,7.6-21.1,12.4-3.4,2.3-6.5,5-9.7,7.6l-4.6,4.1c-1.5,1.4-2.9,2.9-4.4,4.3-5.7,5.9-10.9,12.2-15.3,18.8-4.4,6.7-8.2,13.6-11.3,20.6-.8,1.7-1.5,3.5-2.2,5.3-.4,.9-.7,1.7-1.1,2.6-.3,.9-.6,1.8-.9,2.6-.6,1.8-1.2,3.5-1.8,5.2-.5,1.7-1,3.5-1.5,5.2-.2,.9-.5,1.7-.7,2.6-.2,.9-.4,1.7-.6,2.6-.4,1.7-.8,3.4-1.2,5.1-.3,1.7-.6,3.3-1,5-.3,1.6-.7,3.3-.9,4.9-1,6.4-1.7,12.6-2,18.3,0,1.4-.2,2.8-.3,4.2,0,1.4-.2,2.7-.2,4.1,0,2.7-.1,5.2-.2,7.6,0,6.8,0,13,0,18.4,7.5,0,11.9,0,15.7,0,13.3-.2,28.3-.2,43.2-.2,7.5,0,14.9,0,22.1,0,7.9,0,15.5,0,22.7-.1h-4.6c2.7,0,6,0,12.3,0,0-3.8,0-8.2,0-13.2,0-1.6,0-3.4,0-5.2,0-1.7,.1-3.4,.3-5.3,.5-7.3,1.6-15.7,4.6-24.1,1.5-4.2,3.4-8.4,6.1-12.2,2.6-3.8,5.8-7.3,9.7-10.1,.9-.7,2-1.3,3-2,1.1-.6,2.1-1.2,3.2-1.7,2.2-1.1,4.5-2,6.9-2.8,4.8-1.5,9.9-2.4,15.1-2.8,5.2-.3,10.5-.3,15.6,.3,5.1,.6,10,1.7,14.4,3.4,8.9,3.3,16.2,9.3,20.7,16,4.6,6.7,6.6,14.1,7.4,20.4,.4,3.2,.6,6.1,.6,8.7,0,2.6,0,4.7-.3,6.5,.2-1.3,.2-2.7,.3-4-.1,6.6-1.2,11.1-2.2,14.6-1,3.5-2.1,5.9-3.2,8.1-1.1,2.2-2.3,4.2-3.9,6.6-1.7,2.4-3.9,5.3-7.5,9.2,1.1-.9-2.1,3.1-6.9,7.6-4.8,4.6-11.3,9.6-15,12.3l.2-.3c-5.7,4.1-14.9,10.8-25.1,18.1-10.2,7.3-21.3,15.4-30.7,22.1l.6-.7c-3.9,2.8-8.7,6.3-13.8,10-2.6,1.8-5.3,3.7-8,5.6-2.7,1.9-5.4,3.9-8.1,5.8-10.8,7.8-20.7,15.7-26,20.2-12.3,10.2-27.8,23.7-41.6,40.9-3.4,4.3-6.8,8.8-9.8,13.8-.8,1.2-1.5,2.4-2.2,3.7-.7,1.2-1.4,2.5-2.1,3.7-1.3,2.6-2.6,5.1-3.7,7.7-4.8,10.4-8.1,21.3-10.4,31.9-2.3,9.1-3.8,18.4-4.8,27.7l-.2,4.1s0,.7,.3,1.8c.2,1.1,.5,2.7,.9,4.4,.7,3.3,1.9,7.2,3.1,9.2,1.2,2,2.5,2.3,3.6-1.4,.6-1.8,1.1-4.7,1.7-8.7,.1-1,.3-2.1,.4-3.3,.2-1.2,.3-2.4,.5-3.8,.3-2.7,.8-5.7,1.3-9.1l.2,.9c.4-3.6,.9-7.1,1.5-10.7,.5-3.2,1.2-5.9,1.6-8.2,.5-2.3,1-4.2,1.3-5.6,.7-2.9,1.1-4.1,1.1-3.7-.8,2.8-1.5,5.7-2.2,8.5-.6,2.9-1.2,5.7-1.7,8.7,.5-3.2,1-5,1.2-5.9,.2-.9,.2-.8,.1-.2-.1,.6-.3,1.8-.5,3.1-.2,1.3-.4,2.8-.6,4,.9-5.3,2.1-10.4,3.1-14.6,.5-2.5-.5,1.8-1.1,3.7,1.4-6.8,3.9-16.1,7.3-23.8,.6-1.5,1.1-2.7,1.5-3.5,.4-.9,.7-1.4,.9-1.9,.4-.8,.5-1,.7-1.2,.1-.2,.3-.5,.9-1.5,.3-.5,.7-1.3,1.2-2.3,.3-.5,.6-1.1,.9-1.8,.4-.7,.8-1.4,1.2-2.2,1.2-2.2,2.5-4.3,3.8-6.4,.7-1.1,1.4-2,2.1-3.1,.7-1,1.4-2,2.2-3l2.3-3c.8-1,1.6-2,2.4-2.9,1.6-2,3.3-3.9,4.9-5.8,6.7-7.6,14-14.7,21.6-21.5,15.2-13.6,31.6-26,48.5-37.8,17-11.9,33.9-23.9,51-36,4.3-3,8.5-6,12.8-9.1,2.1-1.5,4.3-3,6.4-4.6,2.2-1.5,4.4-3.1,6.6-4.7,8.7-6.5,17.1-13.6,24.6-22.3,1.4-1.5-.2,.4-1.9,2.4,4.6-5.1,8.6-10.7,11.7-16.8,3-6.1,5.1-12.5,6.1-18.9,.5-3.2,.9-6.4,1-9.6,.1-3.2,0-6.3-.2-9.5-.3-3.2-.7-6.3-1.4-9.5-.7-3.2-1.6-6.3-2.9-9.4-.3-.9-.6-1.6-.9-2.3-.3-.7-.6-1.3-.9-1.9-.5-1.2-1-2-1.4-2.8-.8-1.5-1.3-2.4-1.9-3.4,.1,.2,0,0-.6-.7-.5-.7-1.3-1.9-2.5-3.3-1.2-1.5-2.8-3.2-4.7-5-2-1.8-4.4-3.8-7.2-5.7-5.6-3.8-13.1-7.1-21.3-8.8-8.2-1.8-17.1-2.2-25.9-1.6-8.8,.6-17.9,2.6-25.9,6.5-8,3.8-14.6,9.5-18.9,15.3-4.4,5.7-7,11.2-8.5,15.1-1.5,3.9-2.2,6.3-2.3,6.6Z"/></g></g><g><path class="cls-1" d="M635.6,617.7c0-53.5,12.9-110.2,38.7-170.1,25.8-59.5,60.9-112,105.3-157.6h-208.7v-95.7h327.1v86.2c-48.4,51.5-84,104.1-107,157.6-23,53.9-35.3,113.8-36.9,179.6h-118.3Z"/><g><path d="M641.3,612.1c0-1.2,.2-2.6,.2-4.2,0-1.6,.2-3.3,.3-5.1,.1-1.8,.2-3.7,.3-5.7,.2-1.9,.3-3.9,.5-5.9-.3,3-.7,6.1-.9,9.5-.2,3.4-.4,7.1-.4,11.4Z"/><path d="M642.7,591.1s0,0,0-.1c0,.1,0,.2,0,.3,0,0,0-.1,0-.2Z"/><path d="M641.5,624.3c2,0,4.3,0,6.6,0-2.2,0-4.4,0-6.6,0Z"/><path d="M732.9,283.3l-1.2,.5c-18.9,0-5.5-.5-23-.4-6.8,.7-29,0-35.1,.3,0,0-.5,0-1.2,0s-1.8,0-2.8,0c-2.1,0-4.1,0-3.8-.2-2.6,.4-8.8,0-14.2,.2-2,0,1.4,.1,2.9,.2h-12.4c-4.8,0-6-.2-.8-.2-10.4,0-34.9-.1-63.7-.2,0-26.5,.1-56.9,.1-82.1,21.9,0,40,0,49,0-4.5-.3-15.2,0-19.3-.5,9.2-.2,13.5,0,17.6-.2,3.5,.6,20.2,.2,27.2,.8l2.6-.4,4.6,.2c40.5-.4,9.2-.2,45.1,0,20.8,0,30.6-.6,42.2-.4-1.7,0-6.3-.2-.9-.3,.9,.3,14.3-.2,16.9,0,5.3,0,22.3,0,16.6-.4,2.9,.2,18.1,.3,9.1,.5,5.1,0,10.1,0,13.8,0h-6.6c17.3-.2,26.8,.1,38.1-.2l-6.4-.2c10.4,0,19,0,23.1,.4h-10.6c17.2,.1,27.6,0,41.9-.1h-5.1c2,0,4.9,0,8.5-.1,1.8,0,3.8,0,6,0,.4,0,.8,0,1.2,0,0,.4,0,.8,0,1.2,0,2.3,0,4.7,0,7.2,0,5,0,10.3,.1,15.7,0,10.8,.2,22.2,.2,32.8,0,5.3,0,10.5,.1,15.3,0,1.2,0,2.4,0,3.6,0,.6,0,1.2,0,1.7,0,.2,0,.4,0,.6v.2s0,.1,0,.1h0c0,0-.3,.4-.3,.4-.6,.7-1.2,1.3-1.8,2-5.5,6-9.6,10.9-11.7,13.4l5.4-5.6-4.7,5.5c-1.6,1.8-3.2,3.7-4.7,5.6,1.1-1.3,3.8-6,4.9-7-5.2,5.8-15.7,17.9-28,33.8-12.2,15.9-26.2,35.7-38.4,56.5-6.1,10.4-11.9,21-17,31.3-1.3,2.6-2.5,5.2-3.7,7.7-.6,1.3-1.2,2.5-1.8,3.8-.6,1.3-1.1,2.5-1.7,3.8-1.1,2.5-2.2,4.9-3.2,7.3-1,2.4-2,4.8-2.9,7.1-1,2.3-1.8,4.6-2.6,6.7-.8,2.2-1.6,4.3-2.4,6.3-1.4,4.1-2.8,7.9-4,11.4-1.1,3.5-2.1,6.6-3,9.2-.8,2.7-1.5,4.9-2,6.6-3.5,11.2-1.1,1.9-1.1,1.7-1,3.4-1.5,5.5-1.8,6.9-.3,1.4-.5,2.1-.6,2.7-.1,.6-.3,1.2-.5,2.3-.3,1.1-.7,2.8-1.4,5.8-.8,3.2,0-.7,.3-2.5-1.2,5.2-2.5,9.9-2.4,10.3,1.7-6.4,1.4-3.6,2.3-6.3-.6,2.5-1.3,5-1.8,7.5l-1.7,7.6v-.7c-.3,.8-.5,1.8-.7,3-.2,1.2-.4,2.7-.6,4.5-.3,1.8-.6,4-1.1,6.6-.4,2.7-.9,5.8-1.6,9.6-2.1,12.7-3.7,26-4.9,39.4-.3,3.3-.5,6.7-.8,10-.2,3.3-.4,6.7-.6,10-.1,1.7-.2,3.3-.2,5,0,1.2,0,2.5-.1,3.7,0,.6,0,1.2,0,1.7-.6,0-1.2,0-1.7,0,0,0,.5-.1,1.2-.2,0,0,.2,0,.2,0,0,0,.1,0,0,0h0c0-.3,0-.6,0-.8,0-.4,0-.8,0-1.3,0,.5,0,1.2,0,1.9,0,.1,0,0-.2,0h-.2c-.2,0-.3,0-.5,0-.3,0-.6,0-.8,0,.5,0,.5,.1,.3,.1,0,0-.3,0-.5,0-.1,0-.3,0-.4,0-.3,0-.7,0-1.1,0-2.9,0-5.9,0-3.5,0-18.8,.6-43,0-59.6,.5-.7,.3-9.6,2.7-18.3,5.2-4.3,1.2-8.6,2.5-11.9,3.4s-5.3,1.7-5.3,1.8c-5.1,0-10.3,0-11.8,0,1.3,.2,11.4,.2,16.8,.1l.9-.4c12.4-.1,2.9,.2,15,.2,.6,.3-10.5,.4-20.2,.4,8.8,0,17.6,.2,21.2,0,8.3,.1-.9,.4,9,.5,7.1,0,16.4-.4,24.6-.2h-.1c9.9,.2,17.5,0,24.9,0,3.7,0,7.3,0,11.2-.1,1.9,0,3.9,0,6,0,3.3,0,6.7,0,10.3,0h-3.8c1.6,.1,3.4,.1,5.3,.1,1.7-.2,5,1,4.2-2.2,.1-3.9,.3-8.3,.4-13,0-2.7,.2-5.5,.4-8.4,.2-2.9,.3-5.8,.6-8.6-.2,1.6-.3,3.1-.4,3.4,0,.3-.1-.8,.1-4.2,.3-3.3,.5-6.3,.8-9.1,.3-2.8,.5-5.5,.8-8,.5-5.1,1.1-9.6,1.8-14.4,.3-3.1,.7-6.1,1-9.1,.4-2.8,.9-6.2,1.6-9.9,.3-1.9,.6-3.9,1-6,.4-2.1,.8-4.3,1.3-6.6,.2-1.2,.4-2.3,.7-3.5,.3-1.2,.5-2.4,.8-3.6,.5-2.5,1.1-5,1.7-7.7,1.3-5.3,2.6-10.9,4.2-16.6,6.2-23.2,15.5-49.9,28-75.2,6.2-12.7,13-25.1,20-36.7,7-11.7,14.3-22.6,21.2-32.4,14-19.7,26.7-35,34.2-43.8l-1.1,1.4c4.8-5.7,10.3-12,16.4-18.6,1.6-1.7,3.2-3.5,4.9-5.3,.8-.8,1.5-1.6,2.3-2.5l.6-.6c0-.1,.2-.2,.2-.3v-.4s0-1.7,0-1.7c0-1.7,0-3.3,0-5,0-4.9,0-9.9,0-15,0-22.4,0-47.1,0-72.5-32.5,0-66.3,0-97.5,.1-29.3,0-56.2,.2-77.1,.3-11.3-.3-26.9-.2-38.7-.3,6.6,.1,4.3,.3-.8,.3-36,0-2.4,.2-38.8,.3-7.5,0-18.9,0-32.8,0-15.4,0-33.4,0-52.6,0,0,34.9-.1,73.6-.2,106.4,31,.1,56.4,.2,68.9,.2,20-.4,44.9-.1,64.5-.4h-2c5.3,0,16.6,0,31.1,0,11.3,0,25,0,38.8,0h.4c0,0,0,0,0,0h0c0,0-.1,.2-.1,.2l-.5,.6-1.1,1.1c-2.2,2.4-4.3,4.7-6.4,7-2.8,3.3-5.6,6.4-8.3,9.5-2.6,3.1-5.2,6.2-7.5,9.1-9.5,11.7-16.5,21.6-20.1,26.7l2-2.7c-6.1,8.9-8.7,12.7-11.1,16-2.3,3.4-4.4,6.2-8.9,13.4,1.5-1.7-7.8,14.2-11.1,20.4v-.3c-1.2,2.3-2.9,5.4-4.7,9-1.8,3.6-3.9,7.6-6,11.9-1,2.1-2.1,4.3-3.2,6.5-1,2.2-2,4.5-3.1,6.7-2.1,4.4-3.9,8.8-5.7,12.8v-.7c-2.8,6.7-6.7,16.4-10.3,25.8-1.7,4.7-3.5,9.2-4.8,13.3-1.4,4-2.6,7.5-3.4,10-3.8,11.4-8.3,26-12,41.8-3.7,15.8-6.6,33-8,49-.2,1.7-.5,3.4-.7,5.2l-.6,5.2c-.2,1.7-.4,3.5-.5,5.2l-.4,5.2v3.1c0,0,0,.5,.3,1.4,.2,.8,.6,2,1,3.2,.8,2.5,2,5.3,3.2,6.9,1.2,1.5,2.5,1.7,3.6-1.1,.6-1.4,1.1-3.5,1.6-6.6,.2-1.5,.5-3.3,.7-5.3,.3-2,.5-4.3,.7-6.9l.2,.7c.1-2.7,.4-5.4,.5-8.1,1-9.7,1.3-14.3,1.4-13.6-.3,2.2-.5,4.4-.7,6.7-.2,2.2-.5,4.4-.6,6.7,.2-2.5,.4-3.9,.5-4.5,0-.7,.1-.6,0-.1,0,.5,0,1.4-.1,2.4,0,1,0,2.2-.1,3.1,0-1,.2-2,.2-3,.1-1,.2-2,.3-2.9,.2-1.9,.4-3.7,.6-5.3,0-1.9-.3,1.4-.5,2.9,.1-1.3,.2-2.8,.4-4.3,.1-1.5,.3-3.1,.5-4.8,.4-3.3,.8-6.7,1.4-9.9,.8-5,.9-5.1,1.1-5.5,.2-.4,.3-.9,1.4-6.7,5.8-30.5,15.1-59.8,26.7-88.3,11.6-28.5,25.5-56.1,42.1-82.8,.8-1.2,0,.3-1,1.9,9.9-16.2,19.6-29.9,30-43.7,3.1-3.7,4-4.6,5-5.7-.2,.3,.5-.7,2-2.6,1.5-1.9,3.8-4.7,6.6-8.1,1.4-1.7,3-3.5,4.7-5.5,1.7-1.9,3.4-4,5.3-6.1,.9-1,1.9-2.1,2.9-3.2,.6-.7,1.2-1.4,1.9-2.1,1-1.1,2-2.2,3-3.3,4.1-4.3,8.2-8.7,12.4-13.1l3.1-3.3,1.6-1.7,.4-.4,.2-.2h0c0-.1,0-.1,0-.1h-1.2c-3,0-6.1,0-9.1,0-6,0-11.9,0-17.7,0-6.5,0-12.7,0-18,0-9.5,0-16,0-16.4,0Z"/></g></g></g></svg>