<?xml version="1.0" encoding="UTF-8"?><svg id="Layer_1" xmlns="http://www.w3.org/2000/svg" viewBox="0 0 1024 1024"><defs><style>.cls-1{fill:none;}.cls-2{font-family:HelveticaNowText-Regular, 'Helvetica Now Text ';font-size:139.4px;letter-spacing:0em;stroke:#000;stroke-miterlimit:10;stroke-width:2.4px;}.cls-3{fill:#ebebec;}.cls-4{fill:#ee2a7b;font-family:HelveticaNowText-ExtraBold, 'Helvetica Now Text ';font-size:604.3px;font-weight:700;letter-spacing:0em;}</style></defs><polygon class="cls-3" points="31.2 9.6 99.6 1014.4 925.5 1014.4 992.8 9.6 31.2 9.6"/><text class="cls-2" transform="translate(241.7 839.1)"><tspan x="0" y="0">DE ABRIL</tspan></text><g><text class="cls-4" transform="translate(159.5 639.9)"><tspan x="0" y="0">28</tspan></text><g><g><path class="cls-1" d="M183.3,622.7c0-38.3,8.3-70.3,24.8-96.1,16.5-25,46.7-52.6,90.6-82.8l66.5-47.1c16.9-11.7,28.9-22.8,36-33.2s10.6-22.4,10.6-35.7-5.2-30.9-15.7-40.8c-10.5-9.9-24.8-14.8-42.9-14.8-41.1,0-61.6,24-61.6,71.9v9.1h-102.1v-13.3c0-49.5,14.5-88.2,43.5-116s70.1-41.7,123.3-41.7,91,12.3,120.9,36.9c30.2,25,45.3,59,45.3,102.1s-7.2,52.8-21.5,74.9c-14.3,22.2-37.2,43.3-68.6,63.4l-74.3,47.1c-14.1,9.3-21.8,17.1-23,23.6h189.1v92.5H183.3Z"/><g><path d="M188.3,615c.1-1.6,.3-3.5,.4-5.6,.2-2.1,.4-4.4,.6-6.9,.3-2.4,.5-5,.8-7.6,.4-2.6,.7-5.3,1.2-7.8-1.5,8-2.6,16.6-2.9,28Z"/><path d="M191.2,586.9s0-.1,0-.2c0,.1,0,.2,0,.4,0,0,0-.1,0-.2Z"/><path d="M191.3,628.3c2.7,0,5.8,0,8.9,0-3,0-6,0-8.9,0Z"/><path d="M290,310.1c0,.6,0,1.2-.1,1.8-.4,1.6-.8,3.1-1.1,4.4-.3,1.3-.6,2.5-.7,3.5-.2,1-.4,1.9-.5,2.7-.1,.8-.2,1.5-.3,2.1-.4,2.3-.5,3.3-.6,4.1-.1,.8-.3,1.6-.5,3.7,0,1.1-.2,2.4-.3,4.3-.1,1.9-.1,4.3-.2,7.3,0,.5,0,1.1,0,1.8,0,.3,0,.7,0,1v.2s0,0,0,0h0c0,.1,0,.3,0,.4-.1,0-.2,0-.4,0-1.5,0-3,0-4.6,0-3.7,0-7.5,0-11.2,0-7.2,0-13.7,0-16.9,0,0,0-.6,0-1.7,0s-2.5,0-3.9,0c-2.8,0-5.5,0-5.1-.2-3.6,.3-11.9,0-19.2,.1-2.7,0,1.9,0,3.9,.2h-16.8c-6.6,0-8.2-.2-1-.2-2.3,0-5.1,0-8.3,0-1.6,0-3.4,0-5.3,0-.1,0-.3,0-.5,0v-.2s0,0,0,0c0-.2,0-.4,0-.6,0-2.3,0-4.6,0-7.1,0-2.4,0-4.9,.2-7.5,0-2.6,.3-5.2,.4-7.9,.8-10.8,2.4-22.8,5.7-35,.9-3,1.7-6.1,2.8-9.2,.5-1.5,1-3.1,1.6-4.6,.6-1.5,1.2-3,1.9-4.5,.3-.8,.6-1.5,.9-2.3l1.1-2.2c.7-1.5,1.4-3,2.2-4.5,1.6-2.9,3.1-5.9,5-8.8l1.3-2.2,.7-1.1,.7-1c1-1.4,1.9-2.8,2.9-4.2,1-1.4,2.1-2.7,3.1-4l1.6-2,1.7-1.9c4.4-5.2,9.4-9.9,14.5-14.3,1.3-1.1,2.6-2.1,4-3.2,1.3-1.1,2.7-2,4.1-3l2-1.5c.7-.5,1.4-.9,2.1-1.4,1.4-.9,2.8-1.8,4.2-2.7,1.5-.8,2.9-1.6,4.3-2.4l2.2-1.2c.7-.4,1.5-.7,2.2-1.1,1.5-.7,2.9-1.4,4.4-2.1,1.5-.6,3-1.3,4.5-1.9,2.9-1.3,6-2.3,8.9-3.4,1.5-.6,3-1,4.4-1.4,1.5-.5,2.9-.9,4.4-1.4,3-.7,5.8-1.6,8.7-2.2,2.9-.6,5.7-1.3,8.4-1.7,2.8-.5,5.5-1,8.1-1.3,2.7-.3,5.2-.7,7.7-1,5-.4,9.7-.9,14.1-1.1,8.7-.5,15.9-.4,21-.3-1.5,0-3.5-.1-5.8-.2-2.3,0-4.8,0-7.3,0-1.2,0-2.5,0-3.7,0-1.2,0-2.4,0-3.5,.1-2.2,0-4.1,.1-5.5,0,3-.2,5.7-.3,8-.5,2.3-.1,4.4,0,6.2-.1,1.8,0,3.4,0,4.9,0,1.5,0,2.9,0,4.2,0,2.3,.3,9.1,.5,16.3,1.1,1.8,.2,3.7,.3,5.5,.5,1.8,.2,3.6,.4,5.3,.7,3.4,.4,6.5,1,8.7,1.5,1.2,0,2.3,.1,3.5,.2l5.9,1.3c13.1,2.6,20,5.2,24.2,6.5,4.1,1.5,5.3,2,6.4,2.4,1.1,.4,1.9,.8,5.2,2.3,3.2,1.5,9,4,18.8,10.3,1.5,.9,2.8,1.8,4.1,2.7,1.3,.9,2.6,1.7,3.7,2.6,1.2,.9,2.3,1.8,3.4,2.6,.5,.4,1.1,.8,1.6,1.3,.5,.4,1,.9,1.5,1.3,2,1.7,3.9,3.3,5.5,4.9,1.7,1.6,3.3,3.1,4.7,4.7,5.8,6.1,10.1,11.6,13.9,18-1.2-1.9-4.2-7-.4-1.1,0,.3,.8,1.4,1.7,3,.9,1.6,2.1,3.7,3.2,5.8,.5,1.1,1.1,2.2,1.6,3.3,.5,1.1,1.1,2.1,1.4,3.1,.8,2,1.4,3.6,1.7,4.4,.6,1.6,1.5,4.1,2.4,6.9,.4,1.4,.8,2.9,1.2,4.3,.4,1.4,.8,2.9,1.1,4.2,.6,2.7,1.2,4.9,1.4,6,.2,1.1,.3,1.1,0-.8,.2,1.9,1.2,7.7,1.5,11.7,0,1,.2,1.9,.2,2.5,0,.7,0,1.1,0,1.2,0,.3,0-.7-.5-3.7,0,.8,.2,1.7,.3,2.5,0,.8,.1,1.7,.2,2.5,.1,1.6,.2,3.2,.3,4.8,0,3.1,.2,5.9,.2,8.4,0-2.9,0-5.8-.1-8.7,.6,11.4-.1,20.2-1.1,27.9-1.1,7.7-2.6,14.3-4.6,21.4,.9-2.6,1.6-5.3,2.4-8-3.1,13.2-8,23.5-10.7,28.1,2-4.1,4-8.3,5.5-12.7-2,5.2-4.1,9.8-6.3,14-1.1,2.1-2.2,4-3.3,6-1.2,1.9-2.3,3.7-3.5,5.5-4.7,7.1-9.7,13.5-16.1,20.4,1.6-1.6,3.1-3.3,4.5-5-1,1.1-2.2,2.6-3.7,4.2-.8,.8-1.6,1.7-2.5,2.7-.9,.9-1.9,1.9-2.9,2.9-4.1,4.1-9.2,8.9-15.3,13.9-6,5-12.9,10.3-20.4,15.4-1.9,1.3-3.7,2.6-5.7,3.9-1.9,1.3-3.9,2.6-5.9,3.8-4,2.6-8,5.1-12.1,7.7-16.1,10.3-32.2,20.7-45.5,29.2-3.3,2.1-6.4,4.1-9.4,6-1.5,.9-2.9,1.8-4.2,2.7-1.3,.9-2.7,1.8-3.9,2.6-4.9,3.4-8.5,6.4-10.7,8.5,2.8-2.4,5.7-4.6,8.7-6.6-2.7,2-5.4,4.1-7.9,6.4l-1.9,1.8c-.6,.6-1.2,1.2-1.8,1.9l-1.1,1.2c-.4,.5-.8,1-1.2,1.5-.4,.5-.8,1-1.2,1.5l-1,1.5c.5-.7,1.1-1.9,2.1-3.1,.5-.7,1-1.4,1.6-2.1,.3-.4,.5-.6,.7-.8,.2-.3,.4-.5,.6-.7,1.6-1.9,3.3-3.6,4.1-4.3-1.4,1.2-3,2.6-4.7,4.3-.2,.2-.4,.5-.7,.7-.3,.3-.6,.7-1,1.1-.7,.8-1.3,1.6-2,2.5-.4,.4-.6,.9-.9,1.3-.3,.4-.6,.9-.9,1.3-.3,.5-.5,.9-.7,1.4-.2,.5-.5,.9-.7,1.4-.7,1.9-1.2,3.7-1.7,5.8l-.2,.8v.4c-.1,0-.2,.2-.2,.2h.2c.5,.1,1,.2,1.5,.3,1,.2,2,.4,3.1,.6s1,.2,1.6,.3c.1,0,.3,0,.4,0h.5s1.1,0,1.1,0c1.4,0,2.9,0,4.4,0,2.1,0,4.3,0,6.6,0,14.7,0,32.5,0,51.9,0,37.5,0,81.1,0,118.9,0,0,19.7,0,37.7,0,52.4,0,7.9,0,14.9,0,20.8,0,2.9,0,5.6,0,7.9,0,1,0,1.8,0,2.5,0,.1,0,.2,0,.3-.5,0-.9,0-1.2,0-.1,0-.3,0-.3,0,0,0,0,0-.1,0,0,0,0,0-.2,0-.8,0-.6-.1,0-.1,.4,0,.9-.2,.9-.2-.2,0-.5,0-.7,0-.6,0-1.2,0-1.7,0-1.6,0-2.8,0-3.7,0-1.9,0-2.9,0-3.7,0-1.7,0-3,.1-11.1,0-4.4,0,.9-.2,3.4-.3-7.1,0-13.7,0-14.2,0,8.9,.1,5.1,.5,8.9,.7h-20.8s.9-.3,.9-.3c-4.6,0-11.8,.6-32.3,.5-34.5,0-72.1,0-106.8,0,.5-.1,7.8-.2,15.1-.3-4.7,0-11.8,0-16,0,8.4,.2-14.6,.2-8,.3-25.4,.5-58.4,0-80.8,.4-1,.2-13,2.3-24.8,4.4s-11.7,2.1-16.1,2.9c-2.2,.4-4,.8-5.3,1-1.3,.3-2,.5-2,.5-7,0-13.9,0-16,0,1.8,.1,15.5,.2,22.8,.1l1.3-.3c16.8-.1,3.9,.2,20.3,.2,.9,.3-14.2,.3-27.4,.3,11.9,0,23.8,.2,28.7,0,11.2,.1-1.2,.3,12.3,.4,9.6,0,22.3-.3,33.3-.2h-.2c26.9,.3,41.1-.3,65.7,0h-2.6c8.7,.2,25.8,0,41.4,.2-4.5,0-8.4-.2,1.1-.3,18,.2,30.3,0,43.5,.2l12.6-.2c18.4,0,51.8,0,93.8,0,0-30.5,0-66.7,0-103.5-41.2,0-83.2,0-119.1,.1-17.1,0-32.9,0-46.3,0-6.7,0-12.9,0-18.4,0-.4,0-.9,0-1.3,0h-.2s-.1,0-.1,0c0,0,0,0,0,0,0-.1,0-.2,.1-.4,0,0,0,.2,0,.2,0-.3,.3-.6,.5-.9h0c0,0,.5-.7,.5-.7,.5-.5,1-1,1.6-1.5,1.1-1,2.3-2,3.5-3,2.4-2,5.1-4,7.9-5.9,.7-.5,1.4-.9,2.1-1.4,.7-.5,1.5-1,2.3-1.4,1.5-1,3.1-1.9,4.6-2.9,12.5-7.9,25.9-16.5,40.1-25.4,7.1-4.5,14.3-9.1,21.7-13.8,1.8-1.2,3.7-2.3,5.5-3.5,1.9-1.2,3.7-2.4,5.6-3.7,1.9-1.3,3.7-2.5,5.6-3.8,1.9-1.3,3.7-2.6,5.6-3.9,14.8-10.7,29.1-23,41.5-37.5,6.1-7.2,11.7-15,16.4-23.3,1.2-2,2.3-4.2,3.4-6.3,1-2.2,2.1-4.3,3-6.5,1.9-4.3,3.5-8.8,5-13.2,5.7-17.9,7.3-36.5,6.4-53.9-.4-8.7-1.6-17.2-3.4-25.4-.8-4.1-2-8-3.1-11.9-.7-1.9-1.3-3.8-2-5.7-.6-1.9-1.5-3.7-2.2-5.5-.4-.9-.7-1.8-1.1-2.7-.4-.9-.8-1.7-1.3-2.6-.8-1.7-1.6-3.5-2.6-5.1-.9-1.6-1.8-3.3-2.7-4.9-1-1.6-2-3.1-2.9-4.6-4-6-8.2-11.4-12.7-16-5.3-5.9-12.3-12.4-20.1-18-7.7-5.6-16.1-10.5-23.5-14,8.2,4.2,5.3,2.9-1.1-.3-2.9-1.3-5.4-2.4-7.6-3.3-2.3-.9-4.2-1.6-5.9-2.3-1.7-.7-3.2-1.1-4.4-1.5-1.2-.4-2.2-.7-3-1-1.6-.6-2.6-.8-3.2-.9-.6-.2-.8-.2-1-.2-.4,0-.9-.2-4.3-1.1-3.4-.8-9.8-2.6-22.2-4.4-3.4-.6-7.4-1-11.9-1.5-4.5-.4-9.5-.9-14.9-1-10.9-.5-23.5-.5-37.3,.7-1.7,.2-3.5,.3-5.2,.5-1.8,.2-3.5,.4-5.3,.7-3.6,.4-7.2,1-10.9,1.7-1.8,.3-3.7,.7-5.5,1.1-1.9,.4-3.7,.8-5.6,1.2-3.7,1-7.5,1.9-11.3,3.1-7.6,2.2-15.1,5.2-22.5,8.7-7.4,3.5-14.5,7.7-21.3,12.5-3.4,2.3-6.6,5-9.8,7.6l-4.6,4.2c-1.5,1.4-2.9,2.9-4.4,4.4-5.7,5.9-11,12.3-15.4,19-4.4,6.7-8.3,13.7-11.4,20.8-.8,1.8-1.5,3.6-2.2,5.3-.4,.9-.7,1.8-1.1,2.6-.3,.9-.6,1.8-.9,2.7-.6,1.8-1.2,3.5-1.8,5.3-.5,1.8-1,3.5-1.5,5.3-.2,.9-.5,1.7-.7,2.6-.2,.9-.4,1.7-.6,2.6-.4,1.7-.8,3.4-1.2,5.1-.3,1.7-.6,3.4-1,5-.3,1.7-.7,3.3-.9,4.9-1,6.5-1.7,12.7-2.1,18.5,0,1.5-.2,2.9-.3,4.3,0,1.4-.2,2.8-.2,4.1,0,2.7-.1,5.3-.2,7.7,0,6.6,0,12.6,0,17.8,7.2,0,11.5,0,15.1,0,13.5-.2,28.8-.2,43.9-.2,7.6,0,15.1,0,22.5,0,7.7,0,15.2,0,22.2,0h-3.9c2.5,0,5.7,0,11.6,0,0-3.7,0-8.1,0-13,0-1.6,0-3.2,0-4.9,0-1.7,.1-3.5,.3-5.4,.5-7.4,1.7-16.1,4.7-24.7,1.5-4.3,3.5-8.6,6.2-12.6,2.7-3.9,6-7.6,10-10.5,1-.8,2.1-1.4,3.1-2.1,1.1-.6,2.2-1.3,3.3-1.8,2.2-1.2,4.7-2.1,7.1-2.9,5-1.5,10.2-2.5,15.6-2.8,5.4-.4,10.8-.3,16,.3,5.2,.6,10.2,1.7,14.9,3.5,9.2,3.4,16.8,9.6,21.5,16.5,4.7,7,6.8,14.6,7.7,21.1,.4,3.3,.6,6.3,.6,8.9,0,2.6,0,4.9-.3,6.7,.2-1.4,.2-2.8,.3-4.1-.2,6.8-1.2,11.5-2.2,15.1-1,3.6-2.1,6.1-3.2,8.4-1.1,2.3-2.3,4.3-4,6.8-1.7,2.5-4,5.5-7.7,9.5,1.1-.9-2.2,3.1-7.2,7.7-4.9,4.7-11.5,9.8-15.3,12.5l.2-.3c-5.8,4.1-15.2,10.9-25.5,18.4-10.4,7.5-21.7,15.6-31.2,22.4l.6-.7c-4,2.9-8.8,6.4-14,10.1-2.6,1.9-5.4,3.8-8.1,5.7-2.7,2-5.5,4-8.3,5.9-10.9,7.9-21,15.9-26.4,20.5-12.5,10.4-28.2,24-42.2,41.5-3.4,4.4-6.9,9-9.9,13.9-.8,1.2-1.5,2.5-2.2,3.7-.7,1.3-1.4,2.5-2.1,3.8-1.3,2.6-2.6,5.1-3.8,7.8-4.8,10.5-8.2,21.5-10.5,32.3-2.3,9.2-3.8,18.6-4.7,28l-.2,4.2s0,.7,.2,1.9c.2,1.1,.4,2.7,.7,4.4,.6,3.4,1.6,7.3,2.6,9.3,1.1,2.1,2.1,2.3,3.1-1.5,.5-1.9,.9-4.8,1.5-8.9,.1-1,.3-2.1,.4-3.3,.2-1.2,.3-2.5,.5-3.8,.3-2.7,.8-5.8,1.2-9.2v.9c.6-3.6,1-7.3,1.6-10.9,.5-3.3,1.2-6,1.6-8.4,.5-2.3,1-4.3,1.3-5.7,.7-3,1.1-4.2,1.1-3.7-.8,2.9-1.5,5.8-2.2,8.7l-.9,4.4c-.3,1.5-.6,2.9-.8,4.4,.5-3.3,1-5.1,1.2-6,.2-.9,.2-.8,.1-.2-.1,.6-.3,1.8-.6,3.2-.2,1.3-.4,2.9-.6,4.1,.9-5.4,2.1-10.6,3.2-14.9,.5-2.5-.5,1.8-1.1,3.8,1.5-6.9,4.1-16.5,7.5-24.4,.6-1.6,1.1-2.7,1.5-3.6,.4-.9,.7-1.5,.9-1.9,.4-.9,.5-1,.7-1.2,.1-.2,.3-.5,.9-1.6,.3-.5,.7-1.3,1.2-2.3,.3-.5,.6-1.1,.9-1.8,.4-.7,.8-1.4,1.3-2.3,1.2-2.3,2.6-4.4,3.9-6.6,.7-1.1,1.4-2.1,2.2-3.2,.7-1,1.4-2.1,2.2-3.1l2.3-3.1c.8-1,1.6-2,2.4-3,1.6-2,3.3-3.9,5-5.9,6.8-7.8,14.3-15,22-22,15.5-13.9,32.1-26.5,49.3-38.5,17.2-12.2,34.5-24.3,51.8-36.6,4.3-3.1,8.7-6.1,13-9.2,2.2-1.5,4.4-3.1,6.5-4.6,2.2-1.5,4.4-3.1,6.6-4.8,8.8-6.6,17.3-13.7,24.8-22.5,1.4-1.5-.2,.4-1.9,2.4,4.6-5.1,8.7-10.8,11.7-16.9,3-6.1,5.1-12.5,6.1-18.9,.5-3.2,.9-6.4,1-9.6,.1-3.2,0-6.3-.2-9.5-.3-3.2-.7-6.3-1.4-9.5-.7-3.2-1.6-6.3-2.8-9.3-.3-.9-.6-1.6-.9-2.3-.3-.7-.6-1.3-.9-1.9-.5-1.2-1-2-1.4-2.8-.8-1.5-1.3-2.4-1.9-3.4,.1,.2,0,0-.6-.7-.5-.7-1.3-1.9-2.5-3.3-1.2-1.5-2.8-3.2-4.7-5-2-1.8-4.4-3.8-7.2-5.7-5.6-3.8-13-7.1-21.3-8.8-8.3-1.8-17.1-2.2-26-1.6-8.9,.6-18,2.6-25.9,6.5-8,3.8-14.5,9.5-18.9,15.2-4.4,5.7-7,11.2-8.5,15.1-1.6,3.9-2.2,6.3-2.3,6.6Z"/></g></g><g><path class="cls-1" d="M730.2,633.5c-56.4,0-101.1-12.3-134.1-36.9-33-24.6-49.5-58.2-49.5-100.9s7.4-48.8,22.1-66.8c14.7-17.9,35.3-30.1,61.9-36.6v-1.8c-19.7-6.8-35.3-18.4-46.8-34.7-11.5-16.3-17.2-35.1-17.2-56.5,0-36.7,14.4-65.4,43.2-86.1,28.8-20.7,69-31.1,120.6-31.1s92.5,10.4,121.5,31.1,43.5,49.4,43.5,86.1-5.7,40.8-17.2,57.1c-11.5,16.3-27.1,27.7-46.8,34.1v1.8c26.6,6.8,47.1,19.1,61.6,36.9s21.8,39.9,21.8,66.5c0,42.7-16.5,76.3-49.5,100.9-33,24.6-78,36.9-134.8,36.9Zm56.8-97c13.7-10.7,20.5-25.5,20.5-44.4s-6.7-33.7-20.2-44.4c-13.5-10.7-32.3-16-56.5-16s-43.7,5.3-57.4,16-20.5,25.5-20.5,44.4,6.9,33.7,20.8,44.4c13.9,10.7,32.9,16,57.1,16s42.5-5.3,56.2-16Zm-6.9-188.2c11.9-9.3,17.8-22.2,17.8-38.7s-5.8-28.5-17.5-37.2c-11.7-8.7-28.2-13-49.5-13-45.1,0-67.7,16.7-67.7,50.2s5.9,29.4,17.8,38.7,28.5,13.9,49.9,13.9,37.4-4.6,49.2-13.9Z"/><g><path d="M784.2,351.2c1.2-.6,2.9-2.1,4.4-3.6-.7,.5-1.3,1.1-2,1.6-.4,.3-.7,.6-1.1,1-.4,.3-.8,.7-1.3,1Z"/><path d="M788.6,347.5s0,0,0,0c0,0,0,0,0,0,0,0,0,0,0,0Z"/><path d="M775.5,344.6c-.3,.3-.7,.6-1.1,.9,.4-.3,.8-.6,1.1-.9Z"/><path d="M770.8,260.5l-.4,.2c-2.3-.9-2.6-1.1-2.9-1.3-.3-.2-.5-.4-2.7-1.1-.9,0-2.7-.5-4.5-1.1-1.8-.5-3.6-1-4.4-1,0,0-2.1-.5-1.9-.6-.7,.2-2.2-.3-3.6-.5-.5,0,.4,.1,.7,.3-1-.2-2.1-.2-3.1-.3-1.2-.3-1.5-.5-.2-.3-2-.3-6-.8-11-1-5-.2-10.9-.2-16.8,.1-6,.4-12,1.1-17,2.2-5.1,1.1-9.1,2.4-11.3,3.2,1.2-.2,3.8-1.2,5-1.2-2.2,.9-3.4,1-4.3,1.6-1.1-.2-5,1.8-6.9,2.2l-.5,.6c-.4,.1-.8,.3-1.2,.4-4.7,2.8-5.1,3.4-5.6,3.6-.4,.3-.8,.3-4.6,3.4-.5,.5-1,.9-1.5,1.4-.4,.5-.8,.9-1.2,1.3-.8,.8-1.3,1.6-1.9,2.3-.6,.7-1,1.4-1.5,2-.5,.6-.9,1.3-1.4,1.9,.3-.4,1.1-1.3,.4,0-.2,0-.7,.9-1.2,1.8-.5,.9-1,1.9-1.3,2.2-.3,.7-1,2-1.4,3.1-.4,1.1-.6,1.8-.1,1.2-.5,.6-1.9,4.5-1.3,2.2-.2,.7-.5,1.3-.7,1.9-.2,.6-.3,1.2-.4,1.7l.6-1.7c-1.3,4.5-1.9,7-2,10,.1-.6,.2-1.1,.4-1.7-.2,1.4-.3,2.6-.5,3.6-.1,1-.2,1.9-.5,2.4,0-.9,0-1.9,0-2.8-.4,4.5-.3,7.2,0,11,0-.4,0-.9,0-1.3,.1,1.2,.4,3.7,.9,6.7,.5,3.1,1.4,6.8,2.8,10.3,1.3,3.5,3.1,6.9,4.9,9.5,.9,1.3,1.7,2.4,2.5,3.3,.4,.4,.7,.8,1,1.2,.3,.3,.6,.6,.8,.8-.4-.6-.7-1.2-1.1-1.8,.8,1,1.8,1.9,2.6,2.8-.3-.3-1.9-.8-2.1-1.2,1.3,1.6,4.2,4.8,8.4,8,2.1,1.6,4.5,3.2,7.1,4.6,2.6,1.4,5.4,2.8,8.3,3.9,5.8,2.3,11.7,3.6,16.6,4.4,4.9,.8,8.8,1.1,10.6,1.3,2.9,.4,.5,.5,.5,.5,3.6,.1,1.5-.2,4.6,0,.8,0-.2,.2-.6,.2,1.3,0,2.5,.1,2.6,0-1.6-.1-.9-.5-1.6-.7h3.8c0,0-.2,.3-.2,.3,.9,0,2.2-.6,6-.6,3.2,0,6.5-.4,9.9-.7,3.3-.4,6.7-1,9.8-1.7,0,.2-1.4,.5-2.7,.9,.9-.2,2.2-.5,3-.6-.8,0-.1-.1,.6-.3,.7-.2,1.4-.4,.8-.3,1.1-.4,2.4-.8,3.6-1.2,.6-.2,1.3-.4,1.9-.6,.6-.2,1.3-.4,1.9-.7,1.3-.4,2.5-1,3.7-1.4,1.2-.5,2.2-1.1,3.1-1.6,0-.2,.3-1,.7-2.1,.2-.6,.4-1.2,.6-1.9,.2-.7,.4-1.4,.6-2.1,.4-1.4,.6-2.9,.8-4,.1-1.1,.2-1.8,.1-2,.9-.7,1.8-1.3,2.1-1.5-.3,0-2.1,1.4-3.1,2v.4c-1.1,.8-1.3,.8-1.4,.9-.2,0-.3,0-1.5,.7-.2-.2,1.8-1.4,3.6-2.6-.8,.5-1.6,1-2.3,1.4-.7,.4-1.3,.8-1.6,1.1-1.6,.8,0-.4-1.9,.6-.7,.4-1.4,.9-2.3,1.3-.8,.5-1.7,.8-2.6,1.1h0c-1,.3-2,.6-2.8,.9-.8,.3-1.6,.6-2.4,.9-.8,.3-1.5,.6-2.4,.8-.8,.2-1.7,.5-2.7,.6l.4-.2c-1.4,.2-4.2,1-6.9,1.2,.8,0,1.4,0-.1,.3-1.5,.2-2.8,.3-4,.4-1.2,.1-2.3,.2-3.4,.2-.7,.1-1.4,.3-2.1,.4-5.3,.2-19,.7-31.6-2.5-6.3-1.5-12.3-4-16.9-6.7-4.6-2.8-7.8-5.8-9.5-7.6l.3,.3c-2.7-2.7-5.6-6.6-7.7-11.5-1-2.4-1.9-5.1-2.5-7.9-.6-2.8-.9-5.8-1-8.9-.2-6.1,.4-12.2,2-17.4,1.6-5.2,4-9.4,6.5-12.4,1.7-1.7,4.1-4,6.2-5.5-1.2,.8-.9,.4,0-.3,.8-.6,1.4-1,1.9-1.3,.5-.3,.8-.5,1-.7,.5-.3,.5-.4,.5-.4,.1-.1,.1-.4,3.7-2.2,2.1-1.1,5.8-2.7,10.6-3.9,2.4-.7,5-1.2,7.8-1.7,2.8-.4,5.7-.8,8.6-1.1,5.8-.5,11.8-.6,16.7-.4,4.9,.1,8.9,.6,11,.8,4.7,.1,10.3,1.4,14.7,2.5h-.5c1.2,.3,3.7,.9,6.7,2.2,3,1.2,6.6,3,9.9,5.2,3.3,2.2,6.2,4.8,8.2,7.3,2.1,2.4,3.4,4.7,4.1,5.8l-.3-.6c.7,.9,1,1.7,1.3,2.3,.3,.6,.5,1,.6,1.4,.1,.4,.3,.8,.4,1.3,.2,.5,.3,1.1,.6,2,.3-.6,1.7,3.2,2,4.7h-.1c.3,1.1,.7,3,1,5.1,.1,1.1,.3,2.2,.4,3.3,0,1.1,.2,2.2,.1,3.2l-.2-.2c0,1.7,0,4-.2,6.3,0,.6-.1,1.1-.2,1.6,0,.5-.2,1-.3,1.5-.1,.9-.4,1.7-.5,2.3-.6,2.6-1.8,5.8-3.4,8.9-1.6,3.2-3.8,6.2-6,9-1.2,1-2.4,1.9-3.7,2.7l-.4,.5s0,.6,0,1.6c0,.9,.2,2.1,.5,3.2,.4,1.1,1,2,2.1,2.3,1.1,.3,2.8,0,5.2-1.7v.3c.6-.5,1.1-1,1.6-1.6,.5-.5,.9-.9,1.2-1.2,.3-.4,.6-.7,.8-.9,.4-.5,.6-.7,.6-.6-.8,.9-1.6,1.9-2.5,2.7,1.9-1.9,.7-.5,0,.4,.4-.4,.8-.8,1.2-1.2,.4-.4,.7-.7,1-1.1,.3-.5-.3,.2-.6,.5,.4-.6,1-1.3,1.5-2,.5-.8,1.1-1.5,1.6-2.2,1.6-2.3,.4,0,2.2-2.7,4.6-7.3,7-15.7,7.7-23.9,.3-4.1,.4-8.2,0-12.4-.4-4.2-1.3-8.4-2.8-12.5,0-.4,.1,0,.3,.5-1.8-5-4.1-9.2-7.2-13-.8-1.1-.9-1.5-1.1-1.9,0,0-.2-.2-.7-.7-.5-.5-1.1-1.3-2-2.1-1.7-1.8-4.3-3.9-7-5.9-1.4-1-2.8-1.8-4.1-2.7-1.4-.8-2.7-1.5-3.8-2-1.1-.6-2.1-1-2.8-1.3-.7-.3-1.1-.5-1.2-.5Z"/></g><g><path d="M791.3,539.3c.6-.4,1.5-1,2.3-1.7,.9-.7,1.8-1.6,2.7-2.5-.7,.6-1.5,1.2-2.3,1.9-.4,.3-.8,.7-1.3,1.1-.4,.4-.9,.8-1.4,1.2Z"/><path d="M796.3,535.1s0,0,0,0c0,0,0,0,0,0,0,0,0,0,0,0Z"/><path d="M782.3,533c-.4,.3-.9,.7-1.3,1,.5-.3,.9-.7,1.3-1Z"/><path d="M777.3,434.8l-.5,.2c-1.3-.6-2-1-2.5-1.2-.5-.2-.6-.4-.8-.5-.1-.1-.3-.2-.7-.4-.4-.2-1.1-.5-2.3-.9-.5,0-1.3-.2-2.2-.5-.9-.3-1.9-.6-2.9-.9-2-.6-4.1-1.2-5-1.3,0,0-2.4-.6-2.2-.7-.8,.1-2.6-.4-4.2-.6-.6,0,.4,.2,.8,.3-1.2-.2-2.4-.4-3.6-.5-1.4-.3-1.7-.5-.2-.3-2.4-.4-7-1-12.7-1.3-5.7-.3-12.6-.3-19.5,.1-6.9,.5-13.8,1.5-19.6,3-5.8,1.4-10.4,3.1-12.8,4.2,.7-.1,1.7-.6,2.8-.9,1.1-.3,2.1-.7,2.8-.7-1.3,.6-2.2,.9-3,1.1-.8,.3-1.4,.5-1.9,.8-1.2-.2-5.6,2.3-7.8,2.9l-.6,.6-1.3,.5c-5.2,3.3-5.7,4-6.1,4.2-.4,.3-.8,.4-5.1,4-.6,.6-1.1,1.1-1.6,1.6-.5,.5-.9,1-1.4,1.5-.4,.5-.8,.9-1.2,1.3-.3,.4-.7,.9-1,1.3-1.3,1.6-2.2,3-3.3,4.4,.3-.5,1.3-1.5,.4,0-.2,0-.8,1-1.4,2-.6,1-1.2,2.1-1.5,2.4-.9,1.4-3.1,6.2-2,4.7-.3,.4-.9,1.6-1.3,2.5-.4,.9-.6,1.3-.2,0-.6,1.5-1.2,2.9-1.4,4,.2-.6,.5-1.3,.7-1.9-.5,1.3-.8,2.4-1.1,3.4-.3,1-.6,2-.8,2.9-.5,1.8-.7,3.3-.8,5.1l.5-1.9c-.1,.8-.3,1.5-.4,2.2,0,.7-.2,1.4-.3,2-.2,1.2-.4,2.1-.6,2.7,0-1.1,.1-2.1,.2-3.2,0,.6-.1,1.3-.2,1.9,0,.6,0,1.2-.1,1.7,0,1.1-.1,2.1-.1,3.1,0,1,0,1.9,0,2.9,0,1,.1,2,.2,3.1v-1.5c0,.7,0,1.7,.2,3,.1,1.3,.3,2.9,.6,4.7,.5,3.5,1.5,7.8,2.9,11.8,1.4,4.1,3.4,8,5.4,10.9,.5,.8,1,1.4,1.4,2.1,.5,.6,.9,1.2,1.3,1.7,.8,1,1.5,1.8,1.9,2.2l-1.2-2,1.4,1.7,1.5,1.6c-.3-.4-2.1-1-2.3-1.4,1.5,1.8,4.7,5.5,9.4,9.2,1.2,.9,2.5,1.8,3.8,2.8,1.4,.9,2.8,1.8,4.3,2.6,1.5,.9,3,1.7,4.6,2.5,1.6,.7,3.2,1.5,4.9,2.1,6.6,2.7,13.4,4.4,19,5.4,5.6,1,10.1,1.4,12.2,1.6,3.3,.4,.6,.5,.5,.5,2,.1,2.5,0,2.9,0,.4,0,.7,0,2.4,0,.9,0-.2,.2-.7,.2,1.5,0,2.9,.2,3,0-1.9-.1-1.1-.5-1.9-.7,1.5,0,3,0,4.4,.1l-.2,.2c1,0,2.5-.6,6.9-.6,3.7,0,7.5-.4,11.3-.8,3.8-.5,7.7-1.1,11.3-2,0,.1-1.6,.6-3.1,1,1-.2,2.5-.6,3.4-.7-.9,0-.2-.1,.7-.3,.8-.2,1.7-.5,1-.3,1.3-.5,2.7-.9,4.1-1.4,.7-.2,1.5-.5,2.2-.7,.7-.3,1.5-.5,2.2-.8,1.5-.5,2.9-1.1,4.2-1.6,1.3-.6,2.5-1.2,3.6-1.8,0-.2,.4-1,.9-2.2,.2-.6,.5-1.3,.8-2,.3-.7,.5-1.5,.8-2.3,.5-1.5,.9-3,1.2-4.2,.2-1.2,.4-1.9,.3-2.1,1.1-.8,2.1-1.5,2.5-1.7-.4,0-2.4,1.6-3.6,2.4v.4c-1.3,.9-1.5,1-1.7,1-.2,0-.4,0-1.7,.9-.3-.1,2.2-1.6,4.2-3-1,.6-1.9,1.2-2.7,1.7-.8,.5-1.5,.9-1.8,1.3-1.9,.9,0-.4-2.3,.7-.8,.5-1.7,1-2.7,1.5-1,.5-2,1-3,1.3h0c-2.4,.8-4.3,1.5-6.1,2.1-.9,.3-1.8,.6-2.8,.9-1,.3-2,.6-3.2,.7l.5-.2c-1.7,.2-4.9,1.1-8,1.4,.9,0,1.7,0-.2,.3-3.5,.3-5.9,.7-8.6,.7-.8,.2-1.7,.3-2.5,.4-3.1,.2-8.6,.3-15.1,0-6.6-.4-14.2-1.2-21.5-3.2-3.7-1-7.2-2.1-10.6-3.5-3.3-1.4-6.4-3-9-4.7-2.7-1.6-4.9-3.4-6.8-5-.9-.8-1.8-1.5-2.4-2.2-.7-.7-1.3-1.3-1.8-1.9,.1,.1,.2,.2,.3,.3-3.1-3.3-6.4-7.8-8.8-13.6-2.3-5.8-3.7-12.7-3.8-19.8,0-3.6,.1-7.1,.6-10.5,.5-3.4,1.3-6.7,2.3-9.7,1-3,2.3-5.8,3.7-8.2,1.4-2.4,2.9-4.6,4.4-6.3,2-2,4.9-4.8,7.3-6.6-1.4,1-1,.5,0-.3,.9-.7,1.6-1.2,2.2-1.6,.5-.4,.9-.6,1.2-.8,.5-.4,.6-.4,.6-.5,.1-.1,.2-.4,4.3-2.7,2.4-1.4,6.6-3.4,12.1-5.1,5.5-1.7,12.1-3.1,18.8-3.7,6.7-.7,13.5-.8,19.2-.6,5.7,.2,10.3,.8,12.7,1.1,5.4,.3,11.9,2,16.9,3.3h-.5c1.3,.3,4.2,1.3,7.7,2.8,3.5,1.5,7.5,3.8,11.2,6.6,3.7,2.7,7,6,9.3,9,2.4,3,3.9,5.7,4.7,7l-.4-.8c1.4,2.3,1.8,3.4,2.1,4.4,.2,.5,.3,1,.5,1.5,.2,.6,.4,1.3,.7,2.4,.3-.7,1.8,3.8,2.2,5.6h-.1c.3,1.3,.8,3.5,1.1,5.9,.2,1.2,.3,2.5,.4,3.8,0,1.3,.2,2.5,.1,3.7l-.2-.2c0,1.9,0,4.7-.3,7.3,0,.6-.2,1.3-.2,1.9-.1,.6-.2,1.2-.3,1.7-.2,1.1-.4,2-.6,2.7-.7,3-2,6.8-3.9,10.4-1.9,3.7-4.4,7.3-7,10.5-.7,.6-1.4,1.1-2.1,1.7-.7,.6-1.4,1.1-2.1,1.6l-.5,.6s0,.7-.1,1.7c0,1,0,2.2,.3,3.4,.3,1.1,.9,2,2.2,2.2,1.2,.2,3.1-.2,5.7-2.1v.3c.6-.6,1.2-1.2,1.8-1.8,.5-.5,1-1,1.4-1.4,.4-.4,.6-.8,.9-1.1,.4-.6,.6-.8,.7-.6l-1.4,1.6c-.5,.5-1,1-1.4,1.5,2.2-2.2,.8-.5,0,.4,.5-.5,.9-.9,1.3-1.3,.4-.4,.8-.8,1.2-1.2,.3-.5-.4,.3-.7,.6,.5-.7,1.1-1.5,1.7-2.3,.6-.9,1.2-1.7,1.9-2.5,1.8-2.6,.4,0,2.5-3.1,5.2-8.4,7.9-17.9,8.7-27.3,.4-4.7,.4-9.4-.1-14.1-.5-4.7-1.5-9.5-3.1-14.2,0-.5,.1,0,.3,.6-2-5.6-4.4-10.5-7.7-14.9-.8-1.3-1-1.7-1.2-2.1,.1,.2-1-1.2-2.9-3.3-1.9-2.1-4.7-4.7-7.7-7-3-2.4-6.3-4.4-8.8-5.8-1.3-.7-2.4-1.2-3.1-1.7-.8-.4-1.3-.6-1.3-.6Z"/></g><g><path d="M724.8,628.6c-2.3-.1-5.4-.3-8.9-.5-1.7,0-3.6-.2-5.4-.3-1.9-.1-3.7-.3-5.6-.4,1.4,.2,2.9,.3,4.4,.5,1.5,.1,3.1,.2,4.7,.3,1.6,0,3.3,.2,5.1,.3,1.8,0,3.7,0,5.7,.1Z"/><path d="M704.7,627.5s0,0-.1,0c.1,0,.2,0,.3,0,0,0-.1,0-.1,0Z"/><path d="M735.9,639.1c1.9,0,4.1,0,6.3-.1-2.1,.1-4.3,0-6.3,.1Z"/><path d="M626.6,399.5l1.8-.9c2.1-.6,4-1.1,5.8-1.6,.4-.1,.8-.2,1.2-.3,0-.1,0-.3,0-.4,0-.3,0-.5,.1-.8,.1-1,.3-1.7,.3-2.3,0-1.1,0-1.8,0-2.4,0-.2,0-.3,0-.4,0-.1,0-.2,0-.3,0-.4,0-.7,.1-1.6,0,0,0-.1,0-.2,0,0,0-.1-.1-.2-.2-.2-.5-.4-.8-.6-.6-.4-1.2-.9-2-1.4-1-1.2-4.7-2.3-8.6-3.9-.8-.3-1.6-.7-2.6-1.1-.7-.3-1.5-.7-2.3-1.1-1.1-.5-2.2-1.1-3.4-1.8-2.5-1.4-5.2-3.1-7.8-5-5.2-3.7-9.7-8.2-11.7-10,0,0-.3-.3-.7-.8-.5-.5-1.1-1.2-1.7-1.9-1.2-1.4-2.3-2.8-2.1-2.7-1.7-1.6-4.9-6.2-7.5-10.3-1-1.4,.6,1.1,1.2,2.3-2-3.1-3.9-6.3-5.5-9.6-.9-2-1.4-3.2-1.4-3.5,0-.2,.3,.6,1.4,2.7-1.5-3.3-3.6-8.2-5.3-14.6-.8-3.2-1.6-6.8-2.1-10.7-.5-3.9-.9-8.1-1-12.5,0-8.9,.5-18.8,3-28.7,.3-1.2,.6-2.5,.9-3.7,.3-1.2,.8-2.4,1.2-3.7,.7-2.5,1.8-4.9,2.7-7.3,.5-1.2,1.1-2.4,1.6-3.6l.8-1.8,.9-1.7c.6-1.1,1.2-2.3,1.9-3.5l2.1-3.3c.7-1.1,1.5-2.2,2.2-3.3,.8-1.1,1.5-2.2,2.4-3.2,1.7-2,3.3-4.1,5.2-6,1.7-2,3.7-3.7,5.6-5.5,.9-.9,2-1.7,2.9-2.6,1-.8,1.9-1.7,3-2.5,8.1-6.4,16.7-11.4,24.9-15.3,8.3-3.9,16.1-6.6,22.9-8.7,3.4-.9,6.5-1.9,9.2-2.5,2.7-.7,5.1-1.3,7.1-1.6-2.1,.2-5.5,1.1-8.9,1.8-3.4,.8-6.7,1.7-8.6,2.1,8.1-2.6,12.2-3.1,15.8-4.2,1.7,0,6.3-1,11.3-1.7,1.3-.2,2.5-.4,3.8-.6,1.3-.1,2.5-.3,3.7-.4,2.4-.3,4.6-.5,6.2-.5l2.4-.5,4.3-.2c18.9-1.5,21.1-1.1,22.7-1.2,1.6,0,2.7-.2,19.5,.4,1.2,0,2.4,0,3.5,.1,1.1,0,2.2,.1,3.3,.2,2.1,.1,4.1,.2,6,.4,3.7,.3,7.1,.5,10.1,.9,6,.6,11,1.3,16.3,2.4-.8-.2-2.2-.5-2.8-.6-.6-.1-.4-.2,2.1,.2,.4,.2,3.7,.8,7.1,1.5,3.4,.8,7.1,1.5,8.2,2,1.2,.3,3,.8,5,1.4,.5,.1,1,.3,1.5,.4l1.5,.5c1,.3,2,.6,3,.9,.9,.3,1.8,.5,2.5,.8,.7,.2,1.3,.4,1.7,.5,.8,.2,.8,.2-.4-.4,.6,.3,1.9,.8,3.4,1.4,.7,.3,1.5,.6,2.3,.9,.7,.3,1.5,.6,2.1,.9,2.6,1.1,3.8,1.7,0,.2,2.2,.9,4.3,1.8,6.3,2.8,1,.5,1.9,.9,2.8,1.3,.4,.2,.9,.4,1.3,.6,.4,.2,.8,.4,1.2,.6-.9-.5-1.8-1-2.7-1.4l-2.7-1.4c1.8,.9,3.5,1.6,5.1,2.5,1.6,.8,3,1.6,4.5,2.4,1.4,.8,2.7,1.6,3.9,2.4,1.2,.8,2.5,1.5,3.6,2.3,2.2,1.5,4.4,2.9,6.3,4.5,1,.7,2,1.5,3,2.2,1,.8,2,1.6,3,2.4-1.5-1.3-2.9-2.6-4.4-3.8,.5,.4,.9,.7,1.4,1.1,.4,.4,.9,.7,1.3,1.1,.9,.7,1.7,1.4,2.5,2.1,.8,.7,1.6,1.4,2.3,2.1,.7,.7,1.4,1.3,2,2,.3,.3,.6,.6,.9,.9,.3,.3,.6,.6,.8,.9,.5,.6,1,1.2,1.5,1.7,.9,1.1,1.7,2,2.2,2.7l-.8-.9-.8-.9-1.7-1.7c-.6-.6-1.1-1.2-1.7-1.7l-1.8-1.6c5.6,5.4,9.5,10.2,12.9,15,3.3,4.9,6,9.7,8.7,15.6-.6-1.4-1.3-2.8-1.9-4.2,.5,.9,1,2.1,1.7,3.5,.6,1.4,1.2,3.1,2,4.9,.7,1.9,1.3,4,2.1,6.2,.3,1.1,.6,2.3,.9,3.6,.2,.6,.3,1.2,.5,1.9,.2,.6,.3,1.3,.4,1.9,.3,1.3,.5,2.7,.8,4,.2,1.4,.4,2.8,.6,4.3,0,.7,.2,1.5,.3,2.2,0,.7,.1,1.5,.2,2.2,.1,1.5,.3,3,.4,4.6,0,1.6,.1,3.1,.2,4.7,0,1.6,0,3.2,0,4.8-.1,3.2-.3,6.4-.7,9.6-.7,6.4-2.1,12.7-4,18.5-1.9,5.8-4.3,11.1-6.9,15.7-2.6,4.6-5.3,8.5-7.7,11.5-1.2,1.6-2.3,2.8-3.3,4-1,1.1-1.8,2-2.5,2.7,.9-.8,1.7-1.6,2.5-2.5l2.4-2.6c-2.8,3.4-5.8,6.7-9.1,9.6,1.2-1,4-5,4.9-5.9-2.4,2.5-6.3,6.3-11.7,10.3-2.7,2-5.9,4-9.4,5.9-.9,.5-1.8,1-2.7,1.4-.7,.3-1.4,.7-2.2,1-.9,.4-1.7,.8-2.7,1.2-1.9,.7-3.9,1.5-5.7,2.2-1.3,.8-2.5,1.7-3.8,2.5,0,0-.2,.1-.2,.2h0c0,.1-.1,.4-.1,.4l-.2,.5c-.2,.3-.3,.7-.5,1v.2c-.1,0-.1,.6-.1,.6v1.2c0,.2,0,.4,0,.6l.2,.3,.4,.5c.2,.4,.5,.7,.7,1.1l.4,.5,.2,.3h0c0,.2,0,.2,.2,.3,2,.7,4,1.4,6,2.1,2,.7,3.9,1.3,5.9,2,1,.3,2,.6,3,1,.6,.2,1.2,.5,1.9,.7,2.4,.9,4.8,1.9,7.2,3,9.6,4.3,19,10.2,27.1,17.5,8.1,7.3,14.8,16,19.5,25.3,4.7,9.2,7.6,18.8,9.1,27.7,.4,2.2,.6,4.4,.9,6.5,0,1.1,.2,2.1,.3,3.1,.1,1,.2,2,.2,3,0,1,.1,2,.2,2.9,0,1,0,1.9,0,2.8,0,.9,0,1.8,0,2.7,0,.9,0,1.7,0,2.6,0,1.7,0,3.3-.1,4.7-.1,1.5-.2,2.9-.3,4.1-.1,1.3-.2,2.4-.3,3.5-.1,1-.3,2-.4,2.8-.7,5.3-1,5.7-1,4.9,0-.4,0-1.2,.1-1.9,0-.7,0-1.2,0-1.3,0,.8-.2,1.5-.3,2.2,0,.7-.2,1.2-.3,1.8-.2,1-.3,1.8-.4,2.5-.2,1.3-.3,1.9-.4,2.5-.1,1.1-.4,2-1.7,7.4-.5,1.4-.5,1.3-.3,.5,.2-.7,.4-2,.6-2.8-.5,2.4-1.3,4.5-1.8,6.2-.5,1.7-.9,2.8-.9,3,1.9-5.7,1.5-3.2,2.5-5.5l-1.1,3.4c-.3,1.1-.7,2.3-1.1,3.3l-1.3,3.3-.6,1.7-.7,1.6v-.7c-.3,.7-.6,1.5-1,2.6-.2,.5-.4,1.1-.7,1.7-.1,.3-.3,.7-.4,1-.2,.3-.3,.7-.5,1.1-.7,1.5-1.6,3.3-2.7,5.5-.6,1.1-1.3,2.2-2.1,3.5-.4,.6-.8,1.3-1.2,2-.5,.7-.9,1.3-1.5,2-.9,1.2-1.7,2.4-2.6,3.6-.9,1.2-1.9,2.3-2.8,3.5l-1.4,1.8-1.5,1.7c-1,1.1-2,2.2-3,3.4-4.3,4.3-8.8,8.5-13.7,12.3-4.8,3.9-10,7.3-15.2,10.5-1.3,.8-2.7,1.5-4,2.3-1.3,.7-2.6,1.5-4,2.2-1.4,.7-2.7,1.4-4.1,2l-2,1c-.7,.3-1.4,.6-2.1,.9,.1-.2,1.4-.7,3.1-1.6,1.7-.9,3.9-2.1,6.1-3.2-1.4,.7-3.2,1.6-5,2.5-.9,.4-1.8,.9-2.6,1.3-.8,.4-1.6,.7-2.3,1,2.7-1.1,.4,0-2,1.1-2.4,1.1-5.1,2.1-2.9,1.4-8,3.6-17.6,6.8-27.1,9.2-9.5,2.4-19,4.1-26.7,5.3-.3,.1-2.5,1.1-5.6,2.3-1.6,.6-3.3,1.2-5.2,1.9-1,.3-1.9,.7-2.9,1.1-1,.3-2,.7-3,1-2,.7-4.1,1.4-6,2-1.9,.6-3.7,1.1-5.2,1.6-3.1,1-5.1,1.6-5.1,1.8-5,.1-9.9,.1-11.4,.1,1.3,0,11.1,.1,16.3-.3l.9-.3c3-.1,4.7-.2,5.7-.3,1,0,1.3,0,1.7,0,.7,0,1.3,0,7.1-.4,.6,.2-10.1,1.2-19.6,1.5,8.5-.2,17-.7,20.5-1.3,8-.7-.9,.4,8.8-.5,6.8-1,15.8-2.5,23.6-4.1h-.1c4.8-.8,8.9-2,12.7-2.9,1.9-.5,3.7-1.1,5.5-1.7,1.8-.5,3.5-1.1,5.2-1.7,1.7-.6,3.4-1.2,5.1-1.8,1.7-.6,3.4-1.3,5.2-2,3.5-1.3,7.2-3,11.3-4.7l-1.7,.9c.7-.3,1.5-.6,2.4-1,.9-.4,1.8-.9,2.8-1.4,2-1,4.3-2.1,6.6-3.4,2.3-1.3,4.8-2.6,7.2-4.2,2.4-1.5,4.9-3,7.3-4.7-1.4,.9-2.6,1.8-2.9,1.8-.2,.1,.6-.5,3.4-2.5,1.3-.9,2.7-1.8,3.9-2.7,1.2-.9,2.4-1.8,3.5-2.7,2.3-1.7,4.2-3.5,6.2-5.2,2-1.6,3.7-3.4,5.4-5.1,.9-.9,1.8-1.6,2.6-2.5,.8-.9,1.6-1.8,2.5-2.6,2.1-2.3,3.9-4.8,5.8-7.3,3.5-4.6,8.1-11.1,12.3-19.7,1-2.2,2-4.4,3.1-6.8,.9-2.4,1.9-4.9,2.8-7.5,.4-1.3,.8-2.6,1.2-4,.4-1.4,.9-2.7,1.2-4.1,.3-1.4,.7-2.8,1.1-4.3,.2-.7,.4-1.4,.5-2.2,.1-.7,.3-1.5,.4-2.2,.3-1.5,.6-3,.8-4.5,.3-1.5,.4-3.1,.6-4.6,.2-1.6,.5-3.1,.5-4.7,.1-1.6,.2-3.2,.4-4.8,0-.8,.1-1.6,.2-2.4,0-.8,0-1.6,0-2.5,0-1.6,0-3.3,.1-5,0-1.7,0-3.3,0-5,0-1.7-.2-3.4-.3-5.1-.9-13.6-4.1-27.9-10.4-41-6.3-13-15.6-24.5-26.3-33.3-10.7-8.8-22.6-15.1-33.9-19.3-.6-.2-1.3-.5-1.9-.7l-.6-.2-.6-.2h-.2c0,0-.1,0-.1,0-.3,0-.6-.2-.9-.2,0,0,0-.1,0-.2,0,0,.1,0,.2,0,.1,0,.3,0,.4-.1,.3-.1,.5-.2,.7-.3,.2,0,.4-.2,.6-.3,.5-.3,1.1-.5,1.6-.8,1-.5,2-1.1,3-1.6,.9-.6,1.9-1.1,2.8-1.6,.9-.5,1.7-1.1,2.6-1.6,3.3-2.2,6.1-4.2,8.3-6.1-.5,.4-.9,.8-1.4,1.2,7-5.5,14.1-12.9,20.2-22.1,3-4.6,5.8-9.6,8.2-15,2.3-5.4,4.3-11.2,5.7-17.2,1.4-6,2.3-12.3,2.6-18.7,0-1.6,.2-3.2,.2-4.8v-2.4s0-2.4,0-2.4c0-1.6,0-3.2-.2-4.9-.1-1.6-.3-3.3-.4-4.9,0-1.6-.4-3.3-.6-4.9-.2-1.6-.4-3.3-.8-4.9-.3-1.6-.6-3.3-1-4.9-.4-1.6-.8-3.3-1.2-4.9-1.8-6.5-4.2-12.9-7.2-19-3.1-6.1-6.8-11.8-11-17.2-1.1-1.3-2.2-2.6-3.2-3.9-1.1-1.3-2.3-2.5-3.4-3.7-1.1-1.3-2.4-2.4-3.6-3.5-1.2-1.1-2.4-2.3-3.7-3.4-1.3-1.1-2.5-2.1-3.8-3.2-1.3-1-2.6-2-3.9-3-.7-.5-1.3-1-2-1.5l-2-1.4c-1.4-.9-2.7-1.8-4-2.7-2.8-1.6-5.5-3.4-8.3-4.8-1.4-.7-2.8-1.5-4.2-2.2-1.4-.7-2.8-1.3-4.2-2-11.2-5.2-22.4-8.7-32.9-11.3-10.5-2.5-20.4-4.2-29.2-5.1-5.4-.8-11.9-1.4-18.5-1.8-3.3-.2-6.6-.3-9.8-.5-3.2-.1-6.3-.1-9.1-.2,6.3,.2,4.2,.3-.8,.3-4.3,0-7.6,0-10.1,.1-2.5,0-4.2,.2-5.4,.2-2.4,.1-2.7,.1-3,.2-.3,0-.6,0-3.1,.3-2.4,.2-7,.4-15.8,1.4-2.5,.3-5.5,.7-8.8,1.2-1.7,.2-3.4,.6-5.3,.9-1.9,.3-3.8,.6-5.8,1-8.1,1.5-17.4,3.8-27.4,7.1-2.5,.8-5,1.8-7.6,2.8-2.5,1-5.1,2.1-7.7,3.2-5.1,2.4-10.4,5-15.4,8.1-5.1,3-10.1,6.6-14.9,10.4-2.3,2-4.7,3.9-6.9,6.1-2.3,2.1-4.4,4.4-6.5,6.7-4.1,4.7-7.8,9.7-11,15-.8,1.3-1.5,2.7-2.3,4l-1.1,2c-.4,.7-.7,1.4-1,2.1-.6,1.4-1.3,2.7-1.9,4.1-.5,1.4-1.1,2.8-1.6,4.2-.6,1.4-1,2.8-1.4,4.2-.4,1.4-.9,2.8-1.3,4.2-.7,2.8-1.5,5.6-1.9,8.3-.3,1.4-.6,2.7-.8,4.1-.2,1.4-.4,2.7-.5,4.1,0,.7-.2,1.3-.3,2,0,.7-.1,1.3-.2,2-.1,1.3-.2,2.6-.3,3.9-.7,10.3,0,19.8,1.3,27.6,1.4,7.9,3.4,14.2,5,18.6,3.7,9.3,9.4,19.2,16.6,27.7,7.2,8.6,15.9,15.8,24.4,20.6l-1.7-.9c1.1,.6,2.6,1.6,4.4,2.5,.9,.5,1.8,1,2.9,1.5,.5,.2,1,.5,1.5,.7,.6,.3,1.2,.5,1.9,.8,.2,0,.3,.1,.5,.2,.1,0,0,.1,0,.2,0,0,0,.2,0,.3-.4,0-.8,.2-1.2,.3-.9,.3-1.2,.3-4.1,1.4-1.8,.7-3.7,1.4-5.6,2.2-.9,.4-1.9,.8-2.8,1.2-.9,.4-1.9,.9-2.8,1.3-1.9,.9-3.8,1.9-5.7,2.8-1.9,1.1-3.8,2.1-5.6,3.2-3.7,2.2-7.3,4.8-10.8,7.5-3.5,2.7-6.7,5.8-9.8,8.9-3.1,3.1-5.8,6.5-8.4,9.9-5.1,6.9-9.1,14.1-11.9,21-2.9,6.9-4.6,13.4-5.8,18.9-1.1,5.5-1.7,9.9-1.9,13,.1-1.1,.2-2.2,.4-3.2-.2,1.3-.3,2.5-.4,3.7,0,1.1-.2,2.2-.2,3.2,0,2-.2,3.6-.2,5.1,0,1.5,0,2.7,0,3.9,0,1.1,0,2.2,0,3.2,0,2,0,3.8,0,6.2,0,1.2,.1,2.5,.2,4.1,.1,1.5,.2,3.3,.5,5.4,0-.6,.2,.2,.5,1.6,.3,1.5,.6,3.7,1.1,6.2,.5,2.5,1,5.3,1.7,7.8,.7,2.5,1.2,4.9,1.8,6.5l-.2-.2c1.5,5,4.4,13,8.7,21.2,1.1,2,2.2,4.2,3.5,6.2,1.3,2,2.5,4.1,3.9,6,2.7,3.9,5.7,7.5,8.4,10.8l-.6-.4c4.7,5.4,12.1,12.5,19.8,18.4,1,.7,1.9,1.5,2.9,2.2,1,.7,1.9,1.4,2.9,2,.9,.7,1.9,1.3,2.8,1.9,.9,.6,1.8,1.2,2.7,1.7,1.8,1.1,3.4,2.2,4.8,3,1.5,.8,2.8,1.6,3.9,2.2,5,2.9,11,5.8,17.4,8.6,6.6,2.7,13.6,5.4,21.2,7.6,15,4.6,31.4,7.3,46.7,8.7,6.6,.9,13.1,1.5,19.7,1.9h2.9c0,0,.5,0,1.3-.2,.8-.2,1.9-.5,3.1-.8,2.4-.7,5.1-1.7,6.5-2.7,1.4-1.1,1.6-2.1-1-3.1-2.6-1-8.1-1.7-18-2.6l.6-.2c-2.6,0-5.2-.3-7.8-.5-4.7-.3-8-.8-10.2-.9-2.2-.2-3.1-.3-2.7-.4,4.2,.4,8.5,1,12.7,1.2-4.7-.3-5.4-.5-4.5-.5,.9,0,3.4,.1,5.2,.2-3.9-.3-7.7-.7-10.8-1.1-1.8-.1,1.3,.2,2.8,.4-5-.4-12-1.1-18-2.2-4.7-.8-4.8-.9-5.2-1.1-.3-.1-.9-.3-6.3-1.5-14.4-3.1-28.2-7.8-41.2-13.8-12.9-6.2-25.2-14-35.7-23.5-10.6-9.4-19.4-20.7-25.8-33.4-3.1-6.4-5.7-13-7.6-19.9-1.9-6.9-3.1-14.1-3.9-21.3,0-.7,0-.6,0-.2,0,.2,0,.5,0,.9,0,.4,.1,.8,.2,1.2-.5-4.4-.8-8.6-.9-12.8,0-1,0-2.1,0-3.1,0-1,0-2.1,0-3.1,0-2.1,.2-4.1,.2-6.1,.3-4,.7-8,1.4-11.8,.3-2,.8-3.9,1.1-5.8l.7-2.9,.4-1.4,.4-1.4c.3-1,.6-1.9,.9-2.6,.3-.7,.5-1.2,.7-1.7,.4-.9,.6-1.5,.9-2.1-.2,.6,1.3-4.3,5.1-11.3,1.9-3.5,4.5-7.5,7.6-11.5,3.1-4,6.9-8.1,11-11.8,8.2-7.4,18-13.2,25.9-16.6,2-.9,3.8-1.6,5.5-2.3,.8-.3,1.6-.6,2.3-.9,.4-.1,.7-.3,1-.4,.2,0,.3-.1,.5-.2,.3,0,.6-.2,.8-.3,4.6-1.5,7.4-2.3,7.8-2.4Z"/></g></g></g></g></svg>