<?xml version="1.0" encoding="UTF-8"?><svg id="Layer_1" xmlns="http://www.w3.org/2000/svg" viewBox="0 0 1024 1024"><defs><style>.cls-1{fill:#ebebec;}.cls-2{fill:#fff;}.cls-3,.cls-4{fill:#edc022;}.cls-4{stroke:#edc022;stroke-miterlimit:10;stroke-width:1.9px;}</style></defs><polygon class="cls-1" points="11.2 90.8 974.2 0 1012.8 994.3 115.3 1024 11.2 90.8"/><g><g id="Lbr8C4"><g><path class="cls-4" d="M288,673.6c2-99.7,109.6-209.9,208.5-214,125.8-5.2,214.6,104.5,231,214H288Z"/><g><path d="M779.9,666.9c-30-162.8-213.3-250.4-358.8-171.6-68.1,36.9-104.7,99.1-134.9,166.7-1.1,2.4-1.2,5.2-1.7,7.8-5.1,24.4,6.5,39.5,31.6,40.3,66.1,2,132.2,3.7,198.3,5.5,0-.3,0-.6,0-.9,22.2,0,44.4,.8,66.5-.2,57.2-2.5,114.5-4.9,171.6-9.1,23-1.7,31.6-16,27.4-38.5Zm-467,27.5c2-102.7,113-216.1,215.1-220.3,129.8-5.3,221.4,107.6,238.3,220.3H313Z"/><g><path d="M779.9,666.9c-17.2-98.9-99.7-178.2-197.8-196.1-101.2-19.6-199.8,26.7-254.2,113.3-13.6,20.6-25,42.6-35.4,64.9,0,0-6.1,13.5-6.1,13.5-.9,2.2-1,4.7-1.5,7.2-2.7,11.6-1.5,25.8,8.9,33.4,8,6,18.4,6.7,28,6.8,45.8,1.3,145.6,4,192.5,5.3,0,0-.5,.5-.5,.5v-.9s0-.5,0-.5h.5c73.5,1.3,146.8-3.5,220.1-7.7,6.6-.6,23.1-.8,29.5-3.5,16-5.7,18.7-21,15.9-36.1h0Zm0,0c2.9,15.1,.2,30.6-15.9,36.3-6.6,2.7-22.3,2.9-29.6,3.6-61.1,3.6-122.2,7.8-183.4,8.6-12.2,0-24.5-.3-36.7-.3l.5-.5v.9s0,.5,0,.5h-.5c-47.2-1.3-146.3-4.1-192.5-5.4-9.8,0-20.4-.8-28.5-7-10.6-7.8-11.9-22.2-9.1-34.2,.5-2.4,.6-4.9,1.6-7.3l6.2-13.5c10.5-22.4,22-44.3,35.6-64.9,42.9-67.7,114.9-113.7,195.7-117.7,121.2-7.6,236.2,80.5,256.8,200.8h0Z"/><path d="M312.9,694.4c2.3-106.3,118.6-223.6,226.2-220.8,119.2,.4,211.3,108.4,227.7,220.7-111.7,1.6-341.1-.1-453.9,.1h0Zm0,0c112.1,.2,343.2-1.5,453,.1-17-116.6-113.3-226.2-237.6-220.1-103.2,5.1-212.2,116.8-215.4,220h0Z"/></g></g><path class="cls-3" d="M549.7,409.6c-51-3.3-89.4-33.2-99.1-77.1-10.1-45.8,17.1-96.5,64.1-119.4,68.3-33.3,147.1,7.8,155.4,82.4,1.7,15.4-2.2,32.9-8.4,47.4-17.2,40.6-68,69.6-112,66.7Z"/><g><path d="M653.8,317.1c-9-37-27.9-69.2-56.1-95.3-22.7-21-49.6-27.4-79.6-21.6-51.6,9.8-85.1,42.1-103.3,89.4-28.5,73.8,29,156.2,113.8,156.6,38.2-2.3,76.3-18.1,104.5-53.4,17.6-22,27.6-47.5,20.8-75.7Zm-17,40.8c-17.2,40.6-68,69.6-112,66.7-51-3.3-89.4-33.2-99.1-77.1-10.1-45.8,17.1-96.5,64.1-119.4,68.3-33.3,147.1,7.8,155.4,82.4,1.7,15.4-2.2,32.9-8.4,47.4Z"/><g><path d="M653.7,317.1c-8.3-34.1-26.2-65.8-51.4-90.4-9.2-9.2-19.8-17.2-31.9-22-18.6-7.6-39.6-7.6-58.9-2.8,0,0-2.9,.6-2.9,.6l-2.9,.8c-3.5,.9-8.1,2.4-11.4,3.7-1.7,.6-4,1.5-5.6,2.2-3.3,1.4-7.8,3.5-10.8,5.2-1.6,.8-3.7,2-5.2,3,0,0-5.1,3.2-5.1,3.2-1.8,1.2-5.7,4-7.3,5.3-15,11.7-27.3,26.9-36.1,43.7-19.5,35.3-22.5,72.8-4.4,109.4,20,40.1,61.7,66,106.4,66.7,1.8,.2,4.2,0,6-.2,29.9-2.3,59.2-13.8,82-33.5,2.6-2.1,5.3-4.8,7.8-7.1,.8-.8,4.3-4.6,5.2-5.4,2-2.1,3.9-4.7,5.9-6.9,17.3-21.2,27.7-48.1,20.8-75.4h0Zm0,0c6.7,26-2.5,52.7-18.7,73.3-7.3,9.5-15.8,18.4-25.2,25.9-18.9,15.1-41.9,24.9-65.7,28.6-3.9,.6-8.1,1.1-12,1.4-1.1,.1-3.5,.3-4.5,.3,0,0-1.5,0-1.5,0-45-.7-87.2-26.8-107.1-67.3-18-36.8-14.9-74.5,4.8-109.9,8.9-16.8,21.1-32.1,36.1-43.9,1.6-1.3,5.6-4.1,7.3-5.3,1.8-1.1,6-3.7,7.7-4.8,2.6-1.3,5.4-2.9,8-4.2,1.9-.9,6.4-2.9,8.3-3.6,2.7-1,5.8-2.1,8.5-3.1,3.3-.9,8.3-2.6,11.6-3.2,19.5-4.9,40.6-5.1,59.4,2.7,12.2,5,22.8,13,32,22.3,25.1,24.7,42.9,56.5,51,90.8h0Z"/><path d="M636.8,357.9c-17,38.6-59,64.2-100.4,67.2-24.4,1.1-49.8-5.5-70.3-18.9-55.7-37.4-54.7-110.4-8.8-155.5,19.9-19.9,47.1-32.7,75.3-34.4,39.1-2.8,78.3,16.8,98.3,50.6,8.1,13.6,13,29.1,14.5,44.8,1.3,15.8-2.6,31.7-8.6,46.2h0Zm0,0c6.3-15.3,10.2-32.2,8-48.7-1.6-13-5.6-25.8-11.9-37.3-22.5-42-72.4-63.1-118.4-52-62.7,13.9-111.1,85-82.2,146.8,7.4,15.9,19.5,29.5,34.1,39,20.6,13.3,45.5,19.5,69.9,18.6,41.3-2.7,83.2-28,100.4-66.4h0Z"/></g></g><g><path d="M761.7,563.2c-3.4,22.4-6.5,43-9.7,63.6-1.3,8.6-3,17.1-3.9,25.8-.2,2.3,1.3,5.4,3,7.1,19,18.2,38.3,36.2,57.4,54.3,1.6,1.5,3.7,2.8,4.8,4.6,1.7,2.7,4.3,6.5,3.5,8.6-1,2.6-5,5-8.1,5.7-10.3,2.2-20.7,3.5-31.1,5.2-15,2.4-29.9,4.7-44.9,7.5-2.1,.4-4.4,2.6-5.4,4.6-12.5,23.8-24.7,47.8-37.1,71.7-1.9,3.7-4.1,7.5-7,10.6-5.7,6.1-13.6,4.7-17.4-2.6-10.9-21-21.8-42-32.5-63.1-2.2-4.4-4.7-6.4-9.9-7.1-23.8-3.4-47.5-7.3-71.3-11.2-6.8-1.1-13.6-2-20.2-4-8.4-2.5-11-8.4-6.8-16,3.6-6.7,8.2-13.2,13.6-18.5,14.7-14.5,29.9-28.5,45.1-42.4,2.5-2.3,3.4-4,2.6-7.7-5.5-24.9-10.9-49.7-15.5-74.8-1-5.6,0-12.2,1.9-17.8,2.6-8.1,8.3-9.8,15.8-6,24.9,12.5,49.9,24.9,74.7,37.7,4.3,2.2,7.5,2.1,11.6-.3,24.7-13.8,49.6-27.4,74.5-40.8,2.3-1.2,6.1-1.6,8.3-.6,2.1,1.1,3,4.6,3.7,5.8Z"/><path d="M761.7,563.2c-1.8,12.2-9.9,66.7-11.8,77.6-.4,2.6-.8,5.2-1.1,7.8-.3,2.5-1,5.1,.2,7.6,.8,2.2,3.2,4.3,4.9,5.9,10.4,9.8,29.4,27.7,40,37.7,3.7,3.4,13.4,12.8,17.2,16,2.1,1.6,3.4,4.1,4.7,6.4,.7,1.3,1.5,2.7,1.5,4.3-.4,3.7-5.5,6.3-8.8,7-5.1,1.1-10.3,2-15.5,2.8-18.3,2.7-39.8,6.5-58.1,9.4,0,0-1.9,.3-1.9,.3-1.9,.3-3.4,1.7-4.6,3.1-1.5,2.2-4.2,7.9-5.5,10.3-8.1,15.5-20.8,40.2-28.9,55.7-3.6,6.5-6.8,14.9-12.9,19.5-4.6,3.3-10.9,2-14.1-2.6-.8-1-1.4-2.2-2-3.4-8.1-15.6-22.5-43.7-30.6-59.3-2.5-5.3-4.8-8.8-11.1-9.5,0,0-15.5-2.4-15.5-2.4-11.2-2.2-67.5-9.4-77.4-13.1-10.2-4-8.7-12-3.4-19.8,4-6.8,9.2-12.9,14.9-18.2,12.7-12.5,26.9-25.5,40-37.6,3.5-3,5.3-4.8,3.9-9.6-.6-2.6-1.9-8.8-2.5-11.5-3.2-14.8-6.8-31.3-9.7-46.1-1-5.1-2-10.3-3-15.4-1.1-5.2-.4-10.7,.8-15.7,.7-2.6,1.4-5.2,3-7.4,5.8-8.2,15-1.5,21.7,1.7,4.8,2.5,59.7,30.3,63,31.9,4.8,2.4,9,5.5,14.4,2.7,4.9-2.6,29.2-15.9,34.4-18.7,0,0,27.6-15,27.6-15l13.8-7.5c2.8-1.4,6.8-2,9.4,0,1.4,1.4,1.9,3.4,2.8,5.2h0Zm0,0c-1.1-2.2-1.8-5.3-4.5-6-2.5-.7-5.3-.2-7.5,.9,0,0-13.7,7.6-13.7,7.6l-27.5,15.2c-5.5,2.9-29.4,16.3-34.4,18.9-5.7,2.9-10-.2-15-2.6-3.3-1.7-58.4-29.4-63.1-31.7-6-2.8-15.1-9.6-20.4-2-1.4,2.1-2.1,4.6-2.8,7.1-1.3,5-1.9,10.3-.8,15.3,1,5.1,1.9,10.3,3,15.4,2.9,14.8,6.5,31.2,9.6,46.1,.5,2.7,2,8.9,2.5,11.5,1.5,5.1-.5,7.4-4.2,10.5-13.1,12.1-27.3,25.1-40,37.6-5.7,5.3-10.8,11.3-14.8,18.1-4.7,7.2-6.9,14.7,3,18.6,9.4,3.5,66.2,11.2,77.2,13.3,0,0,15.5,2.5,15.5,2.5,6.5,.7,8.9,4.3,11.4,9.8,8,15.6,22.4,43.8,30.4,59.3,1.6,3.5,4.3,6.8,8.3,7.5,8.5,1.3,13-7.9,16.5-14.2,2.2-4.3,8.5-16.5,10.8-20.9,6.7-13,18.6-36.1,25.2-48.8,1.4-2.9,3.5-6.2,6.9-6.8,0,0,1.9-.3,1.9-.3,18.2-3,39.8-6.8,58.1-9.6,5.2-.8,10.3-1.7,15.4-2.8,2.5-.5,4.8-1.8,6.6-3.5,.8-.8,1.6-1.9,1.4-3.1-.5-2.5-2.1-4.7-3.4-6.8-1.3-2.3-3.7-3.6-5.5-5.4-1.5-1.5-12.4-11.7-14.2-13.5-10.6-10.1-29.5-27.9-39.9-37.8,0,0-2.8-2.7-2.8-2.7-.9-1-1.6-2.1-2.2-3.4-1.2-2.5-.5-5.3-.2-7.9,.3-2.6,.7-5.2,1.2-7.8,1.9-10.9,10.3-65.7,12.2-77.5h0Z"/></g></g></g><path class="cls-2" d="M673.1,813.2c1.3-2.5,2.2-4.3,3-6.1,10.4-21.9,20.8-43.8,31-65.8,2.1-4.6,5.1-6.9,10-7.6,8.2-1.2,16.4-2.5,24.6-3.9,17.6-2.9,35.3-5.8,54-8.9-3.1-3-5.4-5.2-7.7-7.4-16.8-15.8-33.6-31.7-50.6-47.4-3.3-3.1-4.7-6.3-4-10.7,1.8-11.4,3.6-22.8,5.3-34.2,2.3-14.7,4.5-29.5,6.9-45.1-2.6,1.3-4.3,2.1-6.1,3-20.7,11.4-41.6,22.6-62.2,34.3-5.3,3-9.7,3.4-15.2,.5-18.3-9.6-36.8-18.7-55.2-28-4.6-2.3-9.2-4.6-14.7-7.3,5,26.7,9.6,52.3,14.8,77.8,1.1,5.6-.3,9.2-4.1,12.9-16.8,16.7-33.4,33.6-50.2,50.4-1.5,1.5-3.9,2.1-5.9,3.1,2.6,2.5,3,2.9,3.6,3,23.5,3,46.9,6.2,70.4,8.7,8.2,.9,14.7,2.7,17.7,11.6,1.6,4.7,4.5,9,6.9,13.5,9.1,17.6,18.1,35.2,27.6,53.6Z"/></g></svg>