<?xml version="1.0" encoding="UTF-8"?><svg id="Layer_1" xmlns="http://www.w3.org/2000/svg" viewBox="0 0 1024 1024"><defs><style>.cls-1{fill:#ebebec;}.cls-2{fill:#fff;}.cls-3{fill:#edc022;stroke:#edc022;stroke-miterlimit:10;stroke-width:2px;}</style></defs><polygon class="cls-1" points="-3.5 13.8 80 1010.2 986.4 974.3 1027.5 62.7 -3.5 13.8"/><path class="cls-3" d="M328,617.3l-8.2,9.9c-2,2.4-3,5.3-3,8.4v17c0,3.5-1.4,6.9-3.9,9.3l-102.1,101.5c-2.5,2.5-3.9,5.8-3.9,9.3,0,6.7,5.1,12.4,11.8,13.1l9.3,1c3.7,.4,7.4-.8,10.2-3.3l108.6-97.1c.7-.6,1.5-1.2,2.3-1.7l24.6-13.9c3.1-1.8,6.9-2.2,10.3-1.1,12.8,3.9,25.6,7.8,38.4,11.7,9.2,2.8,18.4,5.6,27.7,8.4,31.4,9.6,64.8-12.5,93-24.3,2-.8,3.7-2.2,5.1-3.8,16.5-20.3,38.6-40.4,49.2-64.7,16.8-38.7-.3-75.1-12.4-111.9-.6-1.7-1.5-3.3-2.7-4.7-15.9-17.9-33-45.5-55.8-54.7-8.9-3.6-18.4-6.2-27.5-9.2-18.2-6.1-34.6-6.5-53.7-6.1-25.5,.5-55.7,14.3-75.1,29.6-9.6,7.6-18,16.6-24.9,26.7-14,20.5-21.8,44.9-24.1,69.5-1.6,17,3.4,35.6,5.7,52.6,0,.4,.1,.8,.2,1.1l3.6,16.1c.9,4-.1,8.1-2.7,11.3Z"/><g id="AYuUut"><g><g><path d="M308.7,700.4c-7.1,6.5-13.7,12.5-20.3,18.4-16.7,15-33.3,30-50.2,44.8-9.4,8.2-20,14.4-33.2,11.7-7.9-1.7-15.1-4.7-18.5-13.6-5.5-14.1-6.3-27.4,5.1-38.6,28.8-28.2,58-56,87-83.9,1.6-1.5,3-3.2,4.7-4.5,7.6-5.8,11.8-12.3,10.6-22.9-1.3-11.9,5.5-20.6,16.4-25.4-3.4-10.5-7.3-20.6-10-31.1-6.1-23.9-4.9-47.8,1.4-71.6,.9-3.5,1.3-7.3,1.3-10.9,0-58.1-.5-116.3,.2-174.4,.3-24.1,3.2-48.2,4.9-72.3,.4-5.1,3-7.7,8.2-8.4,43.4-5.7,86.8-5,130.4-3.1,50.7,2.3,101.3,6.2,152.1,3,8.2-.5,16.5-1.6,24.6-2.8,19.3-2.8,34.9,4.4,46.8,18.8,15.2,18.2,29.5,37.2,43.9,56.1,6.8,8.9,9.6,19.2,9.6,30.5,.3,74.9,.5,149.8,1.2,224.8,.4,43.8,2.2,87.5,2.3,131.3,0,24.8-1.9,49.6-3.3,74.4-.4,7.5-3.6,9.3-11.3,9.1-50.7-1.1-101.4-2.9-152.1-2.7-79.7,.3-159.4,2-239.1,3-11.6,.1-13.4-2.6-13-14,.5-14.8,.1-29.6,.1-45.5Zm227.6-50.1h8c29.8,0,59.7,0,89.5,0,6.1,0,12.2,0,18.3,0,4.5,.1,7.3,3.3,6.7,7.1-.5,3-3.4,6-5.9,8.1-1.3,1.1-4.2,.4-6.4,.4-42.7,0-85.4,0-128.1,.1-3.5,0-7.3,.9-10.6,2.3-38.6,16.5-77.7,17.6-116.9,3-11.3-4.2-21.9-10.2-33.3-15.5-5.1,4.6-10.1,10.2-16.2,14.3-13.5,9.1-19.8,20.9-16.9,37.4,.9,5.5,.1,11.3,.1,17v21.2c128.8,.7,256.8-8.5,385.4-1.2,.7-9.3,1.8-18.2,1.8-27,0-52.3,.7-104.6-.4-156.8-1.6-76.7-4.3-153.3-1.7-230,0-2.3,0-4.6,0-6.9-21.6,1.2-42.3,2.7-62.9,3.5-15.1,.6-23.6-8.8-22.1-23.8,.9-9.1,2.2-18.1,3.3-27.2,1.8-15.5,3.5-30.9,5.3-47-3.3,.3-5.9,.3-8.4,.7-7.5,1-15.1,3.2-22.6,3.1-40.9-.3-81.9-.5-122.7-2-42.2-1.5-84.4-4.1-126.7-1.5-9.7,.6-19.4,1.7-29.1,2.6-8,70.9-7.6,141.3-6.1,213.6,2.3-3.3,3.6-5,4.8-6.7,26-37.1,61.7-58.4,106.6-62.8,46.3-4.5,86.3,10.8,118.8,44,8.3,8.5,15.6,12,27.9,11.4,37.8-2.1,75.8-2,113.6-2.8,1.3,0,3-.4,3.8,.3,2.3,1.9,5.5,4.1,5.8,6.5,.3,2.5-1.8,6.1-4,7.9-1.9,1.5-5.4,1.3-8.1,1.3-35.7,0-71.5,0-107.2,0-2.2,0-4.5,.2-7.5,.3,19.3,30.3,28.7,62.2,25.2,97.9,11.5,0,22.6-.1,33.7,0,6.5,0,10.4,4.9,7.6,10.2-1.4,2.6-5.5,5.1-8.5,5.2-11.9,.6-23.8,.2-35.9,.2-8.3,37.2-27.8,66.8-58,91.6Zm-92.8,1.9c73.3,1.3,131.9-61.1,130.7-133.3-1.1-73-61-130.7-132.8-129.4-72.1,1.3-132.6,61.9-129.9,138.2,2.4,69.2,61.8,126,131.9,124.6Zm-144.2-14c-2.1,1.9-3.8,3.5-5.5,5.2-26,25.1-52.1,50.2-78.1,75.3-5,4.8-10.2,9.5-15.1,14.5-4.6,4.7-5.4,13.4-1.7,16.5,5.7,4.8,13.8,4.4,19.2-.9,30.8-29.9,61.6-59.8,92.4-89.7,1.5-1.5,2.9-3.1,4.1-4.4-5.2-5.6-10-10.8-15.2-16.5Zm408.9-330.7c-1.4-3.1-2-5.8-3.6-7.8-16.3-20.9-32.7-41.8-49.2-62.5-1.8-2.3-4.8-3.7-7.9-6.1-2.7,24.6-5.3,47.9-7.7,71.2-.8,7.5,.2,8.6,7.5,8.3,20-1,39.9-2.1,60.9-3.2Zm-355.3,331.3c-12.3-13.7-24-26.7-36-40-8.5,3.3-12.6,11.5-7.8,21.4,3.8,8,9.3,15.9,15.7,22,9.3,8.9,22.5,6.2,28.1-3.5Z"/><g><path d="M308.7,700.4c-8.7,8-26.7,24.3-35.5,32.2,0,0-35.8,32-35.8,32-3,2.6-6.3,5-9.8,7-3.5,2-7.3,3.5-11.3,4.2-7.9,1.3-16.4-.4-23.1-4.8-3.3-2.3-5.8-5.8-7.2-9.6-2.8-7.4-4.8-15.7-3.1-23.6,.8-4,2.5-7.7,5-10.9,2.4-3.3,5.5-5.9,8.3-8.7l8.6-8.3c10.6-10.2,40.7-39.3,51.7-50,6.4-6.1,19.8-19.2,25.9-25,9.8-7.5,12.1-13.7,10.9-25.7-.4-10.7,7.4-19.2,16.8-23.2,0,0-.2,.5-.2,.5-5.8-17.2-12.4-34.5-13.6-52.8-.7-9.1-.4-18.3,.6-27.3,.6-4.5,1.3-9,2.2-13.5,.9-4.5,2.3-8.8,3-13.3,.7-4.5,.4-9,.5-13.6v-13.7c.1-52.4-.6-111.7,.5-163.9,.6-16.4,2.8-38.1,4.1-54.5,0,0,.5-6.8,.5-6.8,0-1.1,.2-2.3,.4-3.4,1.5-6.6,8.9-6.3,14.4-7.1,99.7-12.2,200.4,10.6,300-2,4.5-.7,9.1-.9,13.7-.5,13.9,1.1,26.3,9.2,34.8,19.9,11.6,14,22.8,28.4,33.8,42.9,4.8,6.6,12.4,14.9,15.4,22.6,1.8,4.2,2.9,8.7,3.4,13.3,1.6,67.9,1,164.5,1.7,232.2,.8,68.2,4.8,136.6-1,204.7,0,3.3-.8,7.7-4.2,9.3-3.2,1.6-6.9,1.1-10.3,1.1-3.8,0-16.4-.4-20.5-.5-119-4.3-249.2-.9-368.6,.4-14.5,.5-12.6-7.3-12.4-18.6,.3-13.6,0-27.4,0-40.9h0Zm0,0c.1,8.9,.3,32.2,0,41,0,4.5-.7,9.2,.6,13.5,1.5,4.7,7.4,4.8,11.5,4.8,0,0,13.7-.2,13.7-.2,114.8-1.8,240.7-4.9,355-.9,0,0,13.7,.3,13.7,.3l6.8,.2c4.2,0,9.6,.8,12.1-3.1,1.1-1.9,1.3-4.2,1.4-6.4,5.8-68.1,1.8-136.4,1-204.7,0-61.8-1-156.3-1.1-218.5,.1-9.1-.2-18.2-3.8-26.7-2.8-7.5-10.6-15.9-15.3-22.4-5.5-7.2-11.1-14.5-16.7-21.6-5.6-7.2-11.3-14.3-17.1-21.3-11.8-14.9-28.9-22.4-47.9-19.3-99.6,12.6-200.3-10.6-300,1.9-5.2,.8-12.6,.3-14,6.7-.4,1.7-.8,8.2-1,10.1-1.4,16.5-3.4,38.3-4,54.5-1.1,52.1-.3,111.5-.3,163.8,0,0,0,13.7,0,13.7,0,4.2,.2,9.6-.5,13.7-.7,4.5-2.1,8.8-3,13.3-2.7,13.3-3.9,27-2.8,40.6,1.2,18.4,7.8,35.7,13.6,53-10.6,4.5-18.1,13.6-16.5,25.6,1.1,10.2-3.4,17.4-11.4,23.3-6.3,5.9-19.6,18.9-25.9,24.9-10.9,10.5-41.1,39.6-51.8,49.9,0,0-8.6,8.3-8.6,8.3-2.8,2.8-5.9,5.4-8.3,8.6-2.4,3.1-4.1,6.8-4.9,10.7-1.7,7.8,.2,15.9,3,23.3,1.4,3.7,3.7,7.1,7,9.3,6.5,4.3,15,6,22.8,4.8,3.9-.7,7.7-2.1,11.1-4.1,3.5-1.9,6.7-4.3,9.7-6.9l35.9-31.8c9-8,26.8-24,35.7-32h0Z"/><path d="M536.3,650.3h109.8c1.8-.1,5.1-.2,6.9,0,3.6,.2,6.7,3.6,5.9,7.3-.7,3.5-3.5,6.1-6.1,8.3-2.1,1.2-4.6,.2-6.9,.4,0,0-6.9,0-6.9,0-34.3,0-82.7,.2-116.7,.2-4.6-.1-9.1,0-13.4,1.8-14.7,6.3-30.3,10.9-46.3,12.7-22.8,2.8-46.1-.2-67.8-7.7-13.1-4.3-25.1-11.1-37.5-17,0,0,.4,0,.4,0-4.8,4.3-9.2,9.2-14.4,13.1-5.3,3.7-10.5,7.6-14,13.1-4.9,7.1-6.1,16.1-4.6,24.5,.8,4.3,.6,8.7,.4,13-.2,4.3,0,8.6-.1,12.9v12.9c61.5-1,128.8-1.7,192.3-3.5,63.7-1,130.1-2.2,192.4,2.2,.6-8.8,1.7-17.5,1.8-26.2v-26.3c.2-51.1,.6-107-.9-157.8-1.5-69.7-3.6-141.6-1-210.2-15.7,.8-50.7,3.4-65.8,3.6-12.7-.4-20.3-9.5-19.7-22,.2-3.9,.7-7.2,1.1-10.9,2.1-15.6,5.7-49.6,7.5-65.4,0,0,.3,.3,.3,.3-6.5,.2-12.8,1.3-19.2,2.5-3.2,.6-6.4,1.1-9.6,1.2-2.8,.1-6.9,0-9.7,0-37.6,0-78.9-.7-116.2-1.9-38.7-1.4-77.4-3.6-116.2-1.9-11.6,.3-27,2.1-38.6,3.2-2.6,32.8-6,71.3-6.2,106.2-.7,35.6-.2,71.3,.5,106.9l-.9-.3,5.1-7.1c3.3-4.6,7-9.4,10.8-13.7,33-38.8,84.1-55.3,133.9-47.9,28.9,4.2,55.8,18.6,76.7,38.8,3.7,3.6,8.6,8.8,13,11.4,7.4,4.9,16.5,4.4,25,3.9,0,0,8.7-.4,8.7-.4,26.8-1.2,60.1-1.3,87.1-1.8,0,0,8.7-.1,8.7-.1,1.5,0,2.9,0,4.3-.1,.9,0,2.1-.1,2.9,.5,2.5,2.2,6.6,4.5,5.8,8.4-.5,2.6-2,4.9-4.1,6.6-2.9,2-6.5,1.3-9.8,1.4-21.4,0-56.9,0-78.4,0-5.9,0-20.5,0-26.1,0-2.9,0-5.8,.2-8.7,.3l.3-.5c13.9,21.7,23.5,46.5,25.5,72.3,.7,8.6,.6,17.2-.3,25.8l-.3-.3c6.3,0,26.8,0,32.8,0,8.9-.5,13.4,8.2,5.6,13.7-1.7,1.1-3.6,2-5.6,2.1-4,.2-8,.3-11.9,.3-8,0-15.9-.1-23.9-.1h.2c-7.7,36.1-29.3,68.4-58.1,91.4h0Zm0,0c21.3-17.6,39.2-39.6,49.6-65.3,3.5-8.5,6.2-17.3,8.2-26.3h0c0-.1,.1-.1,.1-.1,8,0,15.9,.1,23.9,0,4,0,8-.1,11.9-.3,1.9-.1,3.8-1,5.4-2.1,5.9-3.8,4.8-11.4-2.4-12.7-1.6-.4-4.2-.1-5.9-.2,0,0-6,0-6,0h-23.9s-.3,0-.3,0v-.3c3.7-34.3-6.5-68.9-25.2-97.7,0,0-.3-.5-.3-.5h.6c5.1-.4,12.3-.3,17.4-.4,25,0,62,0,87.1-.1,0,0,8.7,0,8.7,0,3.4-.2,7.5,.7,10.1-2,1.8-1.9,3.5-4.7,2.9-7.4-1-2.4-3.5-3.9-5.5-5.6-.6-.5-1.5-.3-2.3-.3-1.5,.1-2.9,0-4.4,.1-30.2,.6-65.7,.8-95.8,2.1,0,0-8.7,.4-8.7,.4-5.8,.3-11.7,.9-17.5-.6-5.8-1.3-10.8-4.8-15.1-8.8-14.1-14.4-30.5-27.1-49.2-35.1-42.5-18.2-94.1-14.2-133.5,9.9-14.8,9.1-27.7,21.1-38.4,34.8-3.3,4.1-7.2,9.8-10.2,14.1,0,0-.8,1.2-.8,1.2-.7-36.1-1.2-72.2-.5-108.3,.7-35.8,2.6-71.5,6.7-107.1h.4c11.7-1.3,27.1-2.7,38.6-3.2,38.8-1.7,77.5,.6,116.2,2,39,1.4,81.9,1.8,121.1,2.1,8.1,.4,16-1.6,23.9-2.9,3.3-.5,6.7-.6,10.1-.9v.4c-1.8,16.1-5.6,50.1-7.6,65.4-.4,3.5-.9,7.5-1.1,10.9-.6,12.3,6.8,21,19.1,21.5,15.2-.2,50.4-2.7,66-3.5,0,3.4,0,10-.2,13.4-3.1,100.8,3,201.7,2.6,302.5-.1,16.8-.1,62.5-.2,78.9,0,8.8-1.2,17.5-1.8,26.3-63.6-2.8-128.8-3.1-192.9-1.5-64.4,1.3-128.7,3.5-193.1,3.1v-.4s0-12.9,0-12.9c0-4.3,0-8.6,.1-13,.2-4.3,.4-8.6-.4-12.8-1.5-8.6-.2-17.8,4.8-25.1,3.6-5.5,8.9-9.6,14.2-13.3,5.2-3.9,9.5-8.7,14.4-13l.2-.2h.2c12.4,6,24.4,12.8,37.5,17.1,21.6,7.5,44.8,10.5,67.5,7.7,15.9-1.8,31.4-6.4,46.1-12.6,4.3-1.8,9-2,13.6-1.9,34,.1,82.5-.1,116.7,0,0,0,6.9,0,6.9,0,2.2-.1,4.7,.8,6.6-.3,2.5-2.1,5.2-4.7,5.9-8,.7-3.5-2.1-6.6-5.5-6.9-1.8,0-4.9-.1-6.8-.1,0,0-109.9-.2-109.9-.2h0Z"/><path d="M443.5,652.2c52.2,1.4,101.5-33.4,120.5-81.5,35.4-85.9-28-182-121.4-180.9-71.1,.3-131,61.1-130.6,132.2-1.3,70.8,60.7,132.3,131.5,130.2h0Zm0,.1c-52.2,1.7-102.5-31.9-122.5-79.9-36.1-85.8,28.6-182.7,121.5-183.2,93.4-.8,157.8,95.6,122.2,181.8-19.3,48.2-68.9,83-121.3,81.3h0Z"/><path d="M299.3,638.2c-31.5,30.9-66,63.9-98,94.3-3.5,3.3-5.2,8.4-4.3,13.1,.9,4.9,6.7,7,11.2,7,3.2,0,6.3-1.3,8.7-3.3,2-1.8,5-4.8,7-6.7,17.1-16.8,45.4-44.4,62.7-61,0,0,14-13.5,14-13.5,4-3.9,10.2-9.5,13.8-13.7,0,0,0,.3,0,.3l-15-16.6h0Zm0-.1l15.4,16.3,.2,.2-.2,.2c-3.6,4.2-9.7,9.9-13.7,13.8,0,0-13.9,13.6-13.9,13.6-17.2,16.8-45.5,44.3-62.8,60.9-2,1.9-5,4.9-7.1,6.7-2.6,2.1-5.8,3.3-9.1,3.3-4.7,0-10.7-2.3-11.6-7.4-.9-4.8,.9-10.1,4.5-13.4,31.9-30.6,65.8-64.3,98.3-94.2h0Z"/><path d="M708.1,307.5c-1.3-2.6-2-5.8-4.1-8.1-1.2-1.4-8.3-10.3-9.6-11.9-9-11.3-21.6-27.2-30.3-38.5,0,0-7.5-9.7-7.5-9.7-1.2-1.6-2.5-3.2-4.2-4.3-1.7-1.2-3.4-2.2-5-3.5h.2c0-.1-7.5,73-7.5,73,0,1.4-.2,3,.4,4.3,.5,1.2,2,1.5,3.5,1.6,1.5,0,3,0,4.5,0l4.6-.2c12.3-.6,42.4-1.8,55.1-2.4h0Zm0,0c-13,.7-42.4,2.8-55,3.4,0,0-4.6,.3-4.6,.3-3.8,.2-9.6,1-9.6-4.5,.8-13,2.8-25.9,4.1-38.9,1.4-12.2,2.8-24.3,4.2-36.5v-.3s.2,.2,.2,.2c2.4,1.9,5.3,3.2,7.4,5.4,1.3,1.5,8.2,10.2,9.6,11.9,5.1,6.4,10.2,12.8,15.3,19.2,5,6.4,17.8,22.8,22.6,29,0,0,1.9,2.4,1.9,2.4,2,2.4,2.6,5.5,3.9,8.4h0Z"/><path d="M352.8,638.8c-8.9-9.4-18.7-20-27.2-29.8-2.9-3.4-5.9-6.7-8.8-10.1h.2c-3.3,1.3-6.3,3.6-8,6.7-2.7,4.8-1.6,10.5,.9,15.2,2.4,4.8,5.3,9.3,8.5,13.5,4.3,5.4,9.2,11.3,16.3,12.6,7,1.4,14.4-2.1,18.1-8.1h0Zm0,0c-5.6,10.5-19.6,12.2-28.1,4.2-5.3-4.9-9.7-10.7-13.3-17-1.7-3.2-3.6-6.4-4.4-9.9-1.9-7.6,2.5-14.7,9.6-17.4,0,0,.1,0,.1,0h0c12,13,24.5,26.7,35.9,40.1h0Z"/></g></g><g><path d="M344.7,520c0-54.1,45-98.4,100.1-98.4,54.2,0,98.4,45.1,98.4,100.1,0,53.8-44.8,98.3-98.8,98.3-54.3,0-99.6-45.4-99.6-100Zm99.8-83.2c-48.3,.7-85,38-84.5,86,.5,46.6,38.4,82.7,86,82,46.4-.7,82.5-38.4,81.9-85.6-.6-45.2-38.9-83-83.3-82.4Z"/><g><path d="M344.7,520c-.6-39.4,25.4-76.8,61.9-91.4,65.7-27.1,136.6,22.4,136.9,92.8,.4,70.2-73.5,119.3-137.9,91-36-15.5-61.3-53.1-60.8-92.4h0Zm.1,0c-.2,39.2,25.1,76.5,61.1,91.6,64,27.9,136.9-20.6,137-90.2,0-70.4-70.6-118.9-136-92-36.4,14.3-62.4,51.3-62.1,90.6h0Z"/><path d="M444.5,436.8c-33.1,0-65.3,20.6-77.5,51.7-22.8,55.9,15.7,115.5,76.5,116,33.2,.9,65.2-20.2,77.4-51,22.9-54-17.3-116.8-76.4-116.6h0Zm0-.1c33.5-.8,65.1,21.6,77.6,52.3,22.5,55.3-18.3,117.4-78.7,115.9-60.8-.9-100.2-60.6-77.2-116.8,12.6-31.2,45-51.5,78.3-51.4h0Z"/></g></g></g></g><path class="cls-2" d="M536.3,650.3h8c29.8,0,59.7,0,89.5,0,6.1,0,12.2,0,18.3,0,4.5,.1,7.3,3.3,6.7,7.1-.5,3-3.4,6-5.9,8.1-1.3,1.1-4.2,.4-6.4,.4-42.7,0-85.4,0-128.1,.1-3.5,0-7.3,.9-10.6,2.3-38.6,16.5-77.7,17.6-116.9,3-11.3-4.2-21.9-10.2-33.3-15.5-5.1,4.6-10.1,10.2-16.2,14.3-13.5,9.1-19.8,20.9-16.9,37.4,.9,5.5,.1,11.3,.1,17v21.2c128.8,.7,256.8-8.5,385.4-1.2,.7-9.3,1.8-18.2,1.8-27,0-52.3,.7-104.6-.4-156.8-1.6-76.7-4.3-153.3-1.7-230,0-2.3,0-4.6,0-6.9-21.6,1.2-42.3,2.7-62.9,3.5-15.1,.6-23.6-8.8-22.1-23.8,.9-9.1,2.2-18.1,3.3-27.2,1.8-15.5,3.5-30.9,5.3-47-3.3,.3-5.9,.3-8.4,.7-7.5,1-15.1,3.2-22.6,3.1-40.9-.3-81.9-.5-122.7-2-42.2-1.5-84.4-4.1-126.7-1.5-9.7,.6-19.4,1.7-29.1,2.6-8,70.9-7.6,141.3-6.1,213.6,2.3-3.3,3.6-5,4.8-6.7,26-37.1,61.7-58.4,106.6-62.8,46.3-4.5,86.3,10.8,118.8,44,8.3,8.5,15.6,12,27.9,11.4,37.8-2.1,75.8-2,113.6-2.8,1.3,0,3-.4,3.8,.3,2.3,1.9,5.5,4.1,5.8,6.5,.3,2.5-1.8,6.1-4,7.9-1.9,1.5-5.4,1.3-8.1,1.3-35.7,0-71.5,0-107.2,0-2.2,0-4.5,.2-7.5,.3,19.3,30.3,28.7,62.2,25.2,97.9,11.5,0,22.6-.1,33.7,0,6.5,0,10.4,4.9,7.6,10.2-1.4,2.6-5.5,5.1-8.5,5.2-11.9,.6-23.8,.2-35.9,.2-8.3,37.2-27.8,66.8-58,91.6Z"/></svg>