<?xml version="1.0" encoding="UTF-8"?><svg id="Layer_1" xmlns="http://www.w3.org/2000/svg" viewBox="0 0 1024 1024"><defs><style>.cls-1{fill:#ebebec;}.cls-2{fill:#ee2a7b;}.cls-3{fill:#fff;}</style></defs><polygon class="cls-1" points="1005.4 989.5 4.1 941.9 4.1 109.2 1019.9 34.5 1005.4 989.5"/><g id="E9Uno8"><path class="cls-3" d="M473.8,244.8h110.5c.4,3.2,.9,6.8,1.2,10.5,.8,10.3,5,15,15.4,15.7,10.7,.7,21.4,.8,32.1,.8,8.7,0,17.5-.5,26.2-.8,17.3-.6,22.5-5,25.8-22.3,2.8,.1,5.8,0,8.7,.4,6,.9,9,3.9,9,10.6,.1,34.1,.4,68.1,1.1,102.2,1.1,50.4,3,100.8,3.8,151.3,.5,30.1-.6,60.3-.6,90.4,0,32.3,1,64.6,.4,96.9-.3,15.8-2.6,31.7-5,47.4-1.8,11.8-7.9,16.9-19.7,18.5-5.2,.7-10.4,1-15.7,1.1-50.7,1.3-101.3,.9-151.9-1.1-45.1-1.7-90.4-.5-135.6-.6-18.3,0-36.7-.2-55-.5-8.4-.2-10.3-2.3-10.5-10.6-1.4-57.8-4-115.7-4.1-173.5-.2-87.8,1.1-175.5,2.1-263.3,.2-18.1,1.3-36.2,2.4-54.3,.6-11,1.2-10.9,12-11.4,11.6-.5,23.1-1.3,34.6-2.1,4.4-.3,6.6,1,7.7,5.7,2.2,9.6,9.5,14.7,18.7,14.4,22.4-.6,44.9-2.1,67.2-4,12.8-1.1,19.2-9.3,19.1-21.4Zm83.3,439.1c8.4,.3,20.4-2.9,31.6-8.5,19.1-9.6,32.2-24.5,36.3-46,3.3-17.4,2.6-34.8-2.7-51.8-6.7-21.5-17.9-39.9-38.9-50.2-4.5-2.2-5.6-4.9-5.4-9.6,.9-18.9-3.6-36.7-12.3-53.6-14.3-27.6-47-44.9-77.1-39-41.6,8.1-74.9,43.8-67.6,92.2,.7,4.7-.2,6.8-4.4,9-7.2,4-14.5,8.2-20.7,13.7-21.8,19.4-29.1,43.9-25.2,72.6,8,59.2,77.4,91,127.1,57.8,3.4-2.3,5.6-2.4,9.2-.2,14,8.6,29.1,13.8,50.1,13.6Z"/><path class="cls-2" d="M581.6,508.2c-25.3-6.5-47.7,.6-67.9,16.4-20-15.9-42.1-22.3-66.9-16.9-7.2-26.9,4.7-57.4,29-74.8,22.4-16,50.3-15.6,75.3,1.2,21.5,14.5,36.3,49.6,30.6,74.1Z"/><path class="cls-2" d="M508.2,649c-26.4,15.8-53.4,17.1-79.9,1.5-27.6-16.2-36.4-42.6-33.2-72.9,2.9-26.9,18-46,43-58.1,1.4,3.5,2.6,6.5,3.9,9.4,7.9,17.6,20.6,30.5,37.8,39.2,1.9,1,4.3,4,4.1,5.9-2.9,28,3.6,52.8,23.5,73.4,.3,.3,.3,.8,.7,1.6Z"/><path class="cls-2" d="M524.6,648.8c16.5-18.8,21-41.5,16.4-71.8,11-7.1,22.1-13.1,31.8-20.9,10.1-8.1,15.4-19.8,18.4-32.8,13.4,6.4,23.1,15.8,29.6,28.2,10.1,19.4,13.4,39.9,8.9,61.5-6.3,29.8-28.1,44.6-55.9,47.6-17.4,1.9-33.8-1.9-49.1-11.9Z"/><path class="cls-2" d="M494.9,575.5c11.7,.9,23.4,1.9,35.9,2.9,3.9,22.3,1.4,44.1-14.4,63.2-16.3-10.1-26.9-43.9-21.6-66.1Z"/><path class="cls-2" d="M538.9,563.8c-6.1-11.3-11.9-22.2-18.1-33.7,17.2-14.7,37.2-18.3,59.4-11.5-1.1,20-17.7,38.1-41.3,45.3Z"/><path class="cls-2" d="M448.4,516.6c21.6-4,39.7,2.3,55.8,14.1-6.2,10.2-12,19.9-18,29.8-18.7-8.6-31.9-22.5-37.8-43.9Z"/><path class="cls-2" d="M513.4,538c5,9,10,17.9,15,26.9-.4,.8-.9,1.5-1.3,2.3-9.7-.5-19.4-1-29.1-1.5-.5-.7-1-1.4-1.5-2.1,4.7-8.5,9.3-17,14-25.5,1,0,1.9,0,2.9-.1Z"/><g><path class="cls-2" d="M643.6,248.9c-11.1,0-22.3,0-33.4,0-6.8,0-10-3.3-11.1-10.3-4.4-28.6,.8-34.4,29.6-32.9,14.8,.8,29.7,.9,44.5,1.7,16.9,.9,27,19.3,18.6,34.1-1.6,2.8-6.2,5.3-9.6,5.6-12.8,1.2-25.6,1.5-38.5,2.2,0-.1,0-.2,0-.3Z"/><path class="cls-2" d="M466.8,206.3c4.9,0,9.7-.3,14.6,0,6,.5,13.3-1,15.5,7.2,2.8,10.3-.9,21.4-9,24.5-6,2.3-12.7,3.2-19.2,3.7-16.5,1.2-33.1,2.2-49.7,2.4-6.3,0-13.1-1.2-19-3.6-6.7-2.8-8.9-9.2-8.1-16.5,.8-7.1,5.8-9.3,11.9-10.2,20.9-2.8,41.9-5.6,62.8-8.4,0,.2,0,.5,.1,.7Z"/><path d="M407.6,112.4c2.3,2,4.7,3.7,6.7,6,3.7,4.2,5.8,9.9,2.8,14.5-3.9,6-3,12-2.8,18.2,.9,21.8,2,43.6,3,65.2,11.2-.4,22.4-1.2,33.6-1.1,4.6,0,10.2,.7,13.6,3.3,4.5,3.4,7.2,9.1,11.7,15.1,6.3-.5,14.9-1.6,23.5-1.7,22.3-.3,44.5-.1,66.8-.2,2,0,3.9-.2,5.9-.3,6.3-.4,11.5-.9,14-9,2.4-7.7,10.4-10.2,18.2-10.4,7.8-.3,15.7,0,24.4,0-.7-15.7-1.4-31-2.1-46.4-.2-4.1-.6-8.3-.6-12.4,0-6.2,.9-12-4.7-17.3-3.8-3.6-4.2-9.6,.6-14.1,5-4.6,13.1-5.1,18.1-1.2,4.7,3.6,6.8,10.3,3,15.1-4.5,5.6-3,11.2-3.1,17.2,0,18.1-.5,36.2-.9,54.3,0,1.3,0,2.6,0,4.7,6.7,.5,13.3,1.1,19.9,1.6,13.9,.9,18.7,4.8,23.3,17.8,.7,2,3.8,3.9,6,4.4,4.7,.9,9.6,.5,14.3,1.1,9.3,1.3,13.5,6,13.7,15.3,.5,19.2,.8,38.4,1.2,57.6,1.6,70.3,3.4,140.5,4.6,210.8,.4,23.8-.8,47.6-.7,71.4,0,28.2,1.7,56.3,.7,84.4-1,27.2-3.9,54.4-7,81.4-1.8,15.3-11.7,22.6-30,24.5-6.3,.7-12.6,1.1-18.9,1-41.9-.3-83.8-.8-125.7-1.3-58.1-.7-116.1-1.4-174.2-2.2-17.2-.2-34.4-.6-51.6-1.6-12.4-.7-16.1-4.9-16.5-17.4-.7-27.9-1.3-55.9-1.4-83.8-.2-115.1-.4-230.1,.1-345.2,.1-25.3,2.8-50.5,4.9-75.7,1.1-13.3,5.4-17.2,18.7-17.6,14.8-.5,29.6-.1,45-.1,.8-14.3,11.3-17.1,22.7-18.5,5.8-.7,11.6-1.1,18.2-1.7-1.9-16.8-3.7-33.2-5.5-49.6-.6-5.6-1.2-11.3-1.6-16.9-.3-5.2-1-9.5-5.3-13.7-6.5-6.5-3.2-17.9,6.1-25.3,2.2,0,4.4,0,6.6,0Zm66.2,132.4c.1,12.1-6.2,20.4-19.1,21.4-22.4,1.9-44.8,3.3-67.2,4-9.2,.3-16.5-4.8-18.7-14.4-1.1-4.7-3.3-6-7.7-5.7-11.5,.8-23.1,1.6-34.6,2.1-10.9,.4-11.4,.4-12,11.4-1.1,18.1-2.2,36.2-2.4,54.3-.9,87.8-2.3,175.5-2.1,263.3,.1,57.9,2.6,115.7,4.1,173.5,.2,8.3,2.1,10.4,10.5,10.6,18.3,.3,36.7,.5,55,.5,45.2,.1,90.4-1.1,135.6,.6,50.7,2,101.3,2.4,151.9,1.1,5.2-.1,10.5-.4,15.7-1.1,11.8-1.6,17.9-6.7,19.7-18.5,2.4-15.7,4.7-31.6,5-47.4,.6-32.3-.4-64.6-.4-96.9,0-30.1,1.1-60.3,.6-90.4-.8-50.4-2.7-100.8-3.8-151.3-.7-34-1-68.1-1.1-102.2,0-6.7-3-9.7-9-10.6-2.9-.4-5.9-.3-8.7-.4-3.3,17.4-8.5,21.8-25.8,22.3-8.7,.3-17.5,.8-26.2,.8-10.7,0-21.4-.1-32.1-.8-10.5-.7-14.7-5.4-15.4-15.7-.3-3.7-.8-7.3-1.2-10.5h-110.5Zm158.8,13.3c0,0,0,.2,0,.2,9.8-.5,19.6-.7,29.3-1.7,2.6-.3,6.1-2.1,7.3-4.3,6.4-11.3-1.3-25.3-14.2-26-11.3-.6-22.6-.7-33.9-1.3-21.9-1.1-25.9,3.3-22.5,25.1,.8,5.3,3.3,7.8,8.5,7.8,8.5,0,17,0,25.5,0Zm-195.4-30.2c0-.2,0-.3-.1-.5-16,2.1-31.9,4.2-47.9,6.4-4.6,.6-8.4,2.3-9.1,7.7-.6,5.5,1.1,10.5,6.2,12.6,4.5,1.8,9.6,2.8,14.5,2.7,12.6-.2,25.3-.9,37.9-1.8,4.9-.4,10.1-1,14.6-2.8,6.2-2.4,9-10.9,6.9-18.7-1.7-6.3-7.3-5.1-11.8-5.5-3.7-.3-7.4,0-11.1,0Z"/><path d="M557.1,683.9c-21,.2-36.1-5-50.1-13.6-3.5-2.2-5.8-2.1-9.2,.2-49.7,33.2-119.1,1.4-127.1-57.8-3.9-28.8,3.4-53.2,25.2-72.6,6.1-5.4,13.4-9.7,20.7-13.7,4.2-2.3,5.1-4.4,4.4-9-7.4-48.4,25.9-84.1,67.6-92.2,30.1-5.9,62.8,11.4,77.1,39,8.7,16.8,13.1,34.6,12.3,53.6-.2,4.7,.9,7.3,5.4,9.6,21,10.4,32.2,28.7,38.9,50.2,5.3,17,6,34.3,2.7,51.8-4.1,21.6-17.1,36.4-36.3,46-11.2,5.6-23.2,8.9-31.6,8.5Zm9.9-163.5c5.7-24.5-9.1-59.6-30.6-74.1-25-16.8-52.9-17.2-75.3-1.2-24.2,17.4-36.1,47.9-29,74.8,24.9-5.4,46.9,1,66.9,16.9,20.2-15.8,42.6-22.9,67.9-16.4Zm-73.4,140.8c-.4-.9-.4-1.4-.7-1.6-19.9-20.6-26.4-45.4-23.5-73.4,.2-1.8-2.2-4.9-4.1-5.9-17.2-8.7-29.9-21.6-37.8-39.2-1.3-2.9-2.4-5.9-3.9-9.4-25,12.1-40.1,31.2-43,58.1-3.3,30.3,5.5,56.6,33.2,72.9,26.5,15.6,53.5,14.3,79.9-1.5Zm16.3-.2c15.4,10,31.7,13.8,49.1,11.9,27.7-3,49.6-17.8,55.9-47.6,4.6-21.6,1.3-42.1-8.9-61.5-6.5-12.5-16.2-21.9-29.6-28.2-3,13-8.4,24.7-18.4,32.8-9.7,7.8-20.8,13.8-31.8,20.9,4.6,30.2,.2,52.9-16.4,71.8Zm-29.6-73.3c-5.3,22.2,5.3,55.9,21.6,66.1,15.8-19.1,18.2-40.8,14.4-63.2-12.6-1-24.2-1.9-35.9-2.9Zm43.9-11.6c23.6-7.2,40.2-25.3,41.3-45.3-22.2-6.8-42.2-3.2-59.4,11.5,6.2,11.6,12.1,22.4,18.1,33.7Zm-90.5-47.3c5.9,21.4,19.1,35.3,37.8,43.9,6-10,11.8-19.6,18-29.8-16.1-11.8-34.3-18.1-55.8-14.1Zm65,21.5c-1,0-1.9,0-2.9,.1-4.7,8.5-9.3,17-14,25.5,.5,.7,1,1.4,1.5,2.1,9.7,.5,19.4,1,29.1,1.5,.4-.8,.9-1.5,1.3-2.3-5-9-10-17.9-15-26.9Z"/></g></g></svg>