<?xml version="1.0" encoding="UTF-8"?><svg id="Layer_1" xmlns="http://www.w3.org/2000/svg" viewBox="0 0 1024 1024"><defs><style>.cls-1{fill:#ebebec;}.cls-2{fill:#fff;}.cls-3{fill:#edc022;}</style></defs><polygon class="cls-1" points="-5.5 11.8 78.3 1012.2 988.3 976.1 1029.5 61 -5.5 11.8"/><g id="E9Uno8"><path class="cls-2" d="M463.8,296.3h112.2c.4,3.2,.9,6.9,1.2,10.7,.8,10.5,5,15.3,15.7,16,10.8,.7,21.7,.8,32.5,.8,8.9,0,17.7-.5,26.6-.8,17.5-.6,22.9-5,26.2-22.7,2.9,.1,5.9,0,8.9,.4,6,.9,9.1,4,9.1,10.7,.1,34.6,.4,69.1,1.1,103.7,1.1,51.2,3,102.3,3.8,153.5,.5,30.6-.6,61.2-.6,91.8,0,32.8,1,65.6,.5,98.4-.3,16.1-2.6,32.2-5,48.2-1.8,12-8,17.1-20,18.8-5.2,.7-10.6,1-15.9,1.1-51.4,1.3-102.8,.9-154.2-1.1-45.8-1.8-91.7-.5-137.6-.6-18.6,0-37.2-.2-55.8-.5-8.5-.2-10.4-2.3-10.6-10.7-1.5-58.7-4-117.4-4.2-176.1-.2-89.1,1.1-178.2,2.1-267.2,.2-18.4,1.3-36.8,2.4-55.1,.7-11.1,1.2-11.1,12.2-11.5,11.7-.5,23.4-1.3,35.1-2.1,4.4-.3,6.7,1.1,7.8,5.8,2.3,9.7,9.7,14.9,19,14.7,22.8-.7,45.5-2.1,68.2-4,13-1.1,19.5-9.5,19.4-21.8Zm84.5,445.7c8.5,.3,20.7-2.9,32.1-8.7,19.4-9.8,32.7-24.8,36.8-46.7,3.4-17.7,2.7-35.3-2.7-52.6-6.8-21.8-18.1-40.5-39.5-51-4.6-2.3-5.7-4.9-5.5-9.7,.9-19.2-3.6-37.3-12.5-54.4-14.5-28.1-47.7-45.6-78.3-39.6-42.3,8.3-76.1,44.5-68.6,93.6,.7,4.7-.2,6.9-4.5,9.2-7.3,4-14.8,8.4-21,13.9-22.1,19.7-29.5,44.5-25.6,73.7,8.1,60.1,78.5,92.3,129,58.7,3.4-2.3,5.7-2.4,9.3-.2,14.2,8.7,29.5,14,50.8,13.8Z"/><path class="cls-3" d="M573.2,563.7c-25.7-6.6-48.4,.6-68.9,16.6-20.3-16.1-42.7-22.6-67.9-17.1-7.3-27.3,4.8-58.3,29.4-75.9,22.7-16.3,51.1-15.8,76.4,1.2,21.8,14.7,36.8,50.3,31.1,75.2Z"/><path class="cls-3" d="M498.7,706.6c-26.8,16-54.1,17.4-81.1,1.5-28-16.5-37-43.2-33.6-74,2.9-27.3,18.3-46.6,43.7-59,1.5,3.6,2.6,6.6,3.9,9.5,8.1,17.8,20.9,30.9,38.4,39.8,2,1,4.3,4.1,4.1,5.9-2.9,28.4,3.7,53.6,23.8,74.5,.3,.3,.3,.8,.7,1.7Z"/><path class="cls-3" d="M515.3,706.4c16.8-19.1,21.3-42.1,16.6-72.8,11.2-7.2,22.4-13.3,32.3-21.2,10.2-8.2,15.6-20.1,18.7-33.3,13.6,6.5,23.4,16,30,28.7,10.3,19.7,13.6,40.4,9,62.4-6.4,30.2-28.6,45.2-56.7,48.3-17.7,1.9-34.3-2-49.9-12.1Z"/><path class="cls-3" d="M485.3,632c11.9,.9,23.7,1.9,36.5,2.9,3.9,22.7,1.4,44.8-14.6,64.1-16.5-10.3-27.3-44.5-21.9-67Z"/><path class="cls-3" d="M529.9,620.2c-6.2-11.5-12.1-22.5-18.4-34.2,17.4-15,37.7-18.6,60.3-11.7-1.1,20.3-18,38.6-41.9,46Z"/><path class="cls-3" d="M438,572.2c21.9-4.1,40.3,2.3,56.7,14.3-6.3,10.4-12.2,20.2-18.3,30.3-19-8.7-32.4-22.9-38.4-44.6Z"/><path class="cls-3" d="M504,594c5.1,9.1,10.2,18.2,15.3,27.3-.4,.8-.9,1.6-1.3,2.3-9.9-.5-19.7-1-29.6-1.5-.5-.7-1-1.4-1.5-2.1,4.7-8.6,9.5-17.2,14.2-25.9,1,0,2,0,2.9-.1Z"/><g><path class="cls-3" d="M636.1,300.5c-11.3,0-22.6,0-33.9,0-6.9,0-10.2-3.3-11.3-10.4-4.4-29,.8-34.9,30-33.4,15.1,.8,30.1,.9,45.2,1.7,17.2,.9,27.5,19.6,18.9,34.7-1.6,2.9-6.3,5.3-9.8,5.7-13,1.3-26,1.6-39.1,2.2,0-.1,0-.2,0-.3Z"/><path class="cls-3" d="M456.7,257.3c4.9,0,9.9-.3,14.8,0,6.1,.5,13.5-1.1,15.8,7.3,2.8,10.4-.9,21.7-9.2,24.9-6.1,2.4-12.9,3.3-19.5,3.8-16.8,1.2-33.6,2.2-50.4,2.5-6.4,0-13.3-1.2-19.3-3.6-6.8-2.8-9.1-9.3-8.2-16.7,.8-7.2,5.9-9.5,12.1-10.3,21.3-2.9,42.5-5.7,63.8-8.5,0,.2,0,.5,.1,.7Z"/><path d="M396.6,161.9c2.3,2,4.8,3.8,6.8,6.1,3.7,4.3,5.9,10,2.9,14.7-3.9,6.1-3.1,12.2-2.8,18.5,.9,22.1,2,44.2,3.1,66.1,11.4-.4,22.8-1.2,34.1-1.1,4.7,0,10.4,.7,13.8,3.3,4.5,3.5,7.3,9.2,11.9,15.4,6.4-.5,15.1-1.7,23.9-1.8,22.6-.3,45.2-.1,67.8-.2,2,0,4-.2,6-.3,6.4-.4,11.7-.9,14.2-9.1,2.4-7.8,10.5-10.3,18.5-10.6,7.9-.3,15.9,0,24.8,0-.7-15.9-1.4-31.5-2.1-47.1-.2-4.2-.6-8.4-.6-12.6,0-6.3,.9-12.2-4.8-17.6-3.9-3.7-4.3-9.7,.6-14.3,5.1-4.7,13.3-5.2,18.4-1.2,4.8,3.7,6.9,10.5,3,15.3-4.6,5.7-3.1,11.4-3.1,17.4,0,18.4-.6,36.8-.9,55.2,0,1.3,0,2.6,0,4.7,6.8,.5,13.5,1.1,20.2,1.6,14.1,.9,19,4.8,23.7,18,.7,2,3.8,4,6.1,4.4,4.7,.9,9.7,.5,14.5,1.1,9.4,1.3,13.7,6.1,14,15.5,.5,19.5,.8,39,1.3,58.5,1.6,71.3,3.4,142.6,4.7,214,.4,24.1-.8,48.3-.7,72.4,0,28.6,1.7,57.2,.7,85.7-1,27.6-4,55.2-7.1,82.6-1.8,15.5-11.9,22.9-30.4,24.9-6.4,.7-12.8,1.1-19.2,1-42.5-.3-85-.8-127.6-1.3-58.9-.7-117.8-1.4-176.8-2.2-17.5-.2-34.9-.6-52.4-1.6-12.6-.7-16.4-4.9-16.7-17.7-.7-28.3-1.3-56.7-1.4-85.1-.2-116.8-.4-233.5,.1-350.3,.1-25.6,2.9-51.3,5-76.9,1.1-13.5,5.4-17.5,19-17.9,15-.5,30.1-.1,45.7-.1,.8-14.6,11.4-17.3,23-18.7,5.9-.7,11.8-1.1,18.4-1.7-1.9-17-3.7-33.7-5.5-50.4-.6-5.7-1.3-11.5-1.6-17.2-.3-5.3-1-9.6-5.3-13.9-6.6-6.6-3.3-18.2,6.1-25.7,2.2,0,4.4,0,6.6,0Zm67.2,134.4c.1,12.3-6.3,20.7-19.4,21.8-22.7,1.9-45.5,3.4-68.2,4-9.3,.3-16.7-4.9-19-14.7-1.1-4.7-3.4-6.1-7.8-5.8-11.7,.8-23.4,1.6-35.1,2.1-11,.4-11.6,.4-12.2,11.5-1.1,18.4-2.2,36.7-2.4,55.1-.9,89.1-2.3,178.2-2.1,267.2,.1,58.7,2.7,117.4,4.2,176.1,.2,8.4,2.1,10.6,10.6,10.7,18.6,.3,37.2,.5,55.8,.5,45.9,.1,91.8-1.1,137.6,.6,51.4,2,102.8,2.4,154.2,1.1,5.3-.1,10.6-.4,15.9-1.1,12-1.7,18.1-6.8,20-18.8,2.5-15.9,4.8-32.1,5-48.2,.6-32.8-.4-65.6-.5-98.4,0-30.6,1.1-61.2,.6-91.8-.8-51.2-2.7-102.3-3.8-153.5-.7-34.6-1-69.1-1.1-103.7,0-6.8-3.1-9.8-9.1-10.7-3-.4-6-.3-8.9-.4-3.3,17.6-8.6,22.1-26.2,22.7-8.9,.3-17.7,.8-26.6,.8-10.8,0-21.7-.1-32.5-.8-10.6-.7-14.9-5.5-15.7-16-.3-3.7-.8-7.4-1.2-10.7h-112.2Zm161.2,13.5c0,0,0,.2,0,.2,9.9-.5,19.9-.7,29.8-1.7,2.7-.3,6.2-2.1,7.5-4.3,6.5-11.5-1.3-25.7-14.4-26.4-11.5-.6-23-.7-34.4-1.3-22.2-1.1-26.2,3.4-22.9,25.5,.8,5.4,3.4,7.9,8.6,8,8.6,0,17.2,0,25.9,0Zm-198.3-30.7c0-.2,0-.4-.1-.5-16.2,2.2-32.4,4.3-48.6,6.5-4.7,.6-8.6,2.3-9.2,7.9-.7,5.6,1.1,10.6,6.3,12.7,4.5,1.9,9.8,2.8,14.7,2.8,12.8-.2,25.6-.9,38.4-1.9,5-.4,10.2-1.1,14.9-2.9,6.3-2.4,9.1-11,7-19-1.7-6.4-7.4-5.2-12-5.6-3.7-.3-7.5,0-11.3,0Z"/><path d="M548.4,742c-21.3,.2-36.6-5.1-50.8-13.8-3.6-2.2-5.9-2.1-9.3,.2-50.4,33.7-120.9,1.4-129-58.7-3.9-29.2,3.5-54,25.6-73.7,6.2-5.5,13.6-9.9,21-13.9,4.2-2.3,5.2-4.4,4.5-9.2-7.5-49.1,26.3-85.3,68.6-93.6,30.5-6,63.8,11.5,78.3,39.6,8.8,17.1,13.3,35.1,12.5,54.4-.2,4.8,.9,7.4,5.5,9.7,21.4,10.5,32.7,29.2,39.5,51,5.4,17.2,6.1,34.9,2.7,52.6-4.1,21.9-17.4,36.9-36.8,46.7-11.4,5.7-23.5,9-32.1,8.7Zm10-165.9c5.7-24.8-9.2-60.5-31.1-75.2-25.3-17-53.7-17.5-76.4-1.2-24.6,17.6-36.7,48.6-29.4,75.9,25.2-5.5,47.6,1,67.9,17.1,20.5-16,43.2-23.2,68.9-16.6Zm-74.5,142.9c-.4-.9-.4-1.4-.7-1.7-20.2-20.9-26.8-46.1-23.8-74.5,.2-1.9-2.2-5-4.1-5.9-17.5-8.8-30.3-21.9-38.4-39.8-1.3-2.9-2.5-5.9-3.9-9.5-25.4,12.3-40.7,31.7-43.7,59-3.3,30.7,5.6,57.5,33.6,74,26.9,15.8,54.3,14.5,81.1-1.5Zm16.6-.2c15.6,10.1,32.2,14,49.9,12.1,28.2-3.1,50.3-18.1,56.7-48.3,4.6-22,1.3-42.7-9-62.4-6.6-12.7-16.4-22.2-30-28.7-3.1,13.2-8.5,25.1-18.7,33.3-9.8,7.9-21.1,14-32.3,21.2,4.7,30.7,.2,53.7-16.6,72.8Zm-30.1-74.4c-5.4,22.5,5.4,56.8,21.9,67,16-19.3,18.5-41.5,14.6-64.1-12.8-1-24.6-2-36.5-2.9Zm44.6-11.8c23.9-7.3,40.8-25.6,41.9-46-22.6-6.9-42.9-3.2-60.3,11.7,6.3,11.7,12.2,22.8,18.4,34.2Zm-91.9-48c6,21.7,19.4,35.8,38.4,44.6,6.1-10.1,12-19.9,18.3-30.3-16.4-12-34.8-18.4-56.7-14.3Zm66,21.8c-1,0-2,0-2.9,.1-4.7,8.6-9.5,17.2-14.2,25.9,.5,.7,1,1.4,1.5,2.1,9.9,.5,19.7,1,29.6,1.5,.4-.8,.9-1.6,1.3-2.3-5.1-9.1-10.2-18.2-15.3-27.3Z"/></g></g></svg>