<?xml version="1.0" encoding="UTF-8"?><svg id="Layer_1" xmlns="http://www.w3.org/2000/svg" viewBox="0 0 1024 1024"><defs><style>.cls-1{fill:#ebebec;}.cls-2{fill:#fff;}.cls-3{fill:#ee8d24;}</style></defs><polygon class="cls-1" points="1001.4 985.6 8.2 938.4 8.2 112.5 1015.8 38.4 1001.4 985.6"/><g id="ssNMwL"><g><path class="cls-3" d="M359,356.5c-6.7-10.9-13.1-20.8-18.9-31.1-5.8-10.2-13.4-16.3-25.9-14.4-2.4,.4-5-.1-8.4-.3-2.9-30.7-2.8-61.3-1-91.8,24.6-4.9,197.5-8.1,227.4-4.2v67.4c-11.3,.8-21.9,1.6-32.5,2.3-3.4,.2-6.9,.8-10.2,.4-10.3-1.3-15.6,5.5-19.2,13-1.8,3.6-.3,8.8-.3,13.7-13,0-26,.1-38.9,0-10.7-.1-21.4-.2-32.1-.9-6.2-.4-10.6,1.8-13.9,6.7-7.2,10.5-14.3,21.1-21.4,31.7-1.5,2.2-2.7,4.6-4.4,7.5Zm8.5-92.1c.2-5.5-5.2-11.3-9.9-11.3-4.8,0-7.7,2.6-8,7.4-.3,4.7,5,10.2,9.9,10.3,4.9,.1,7.5-2.6,8-6.4Zm47.7-11.3c-5,.6-9.1,2.2-9.3,8.1-.1,4.8,3.7,8.3,9,7.9,5.1-.3,8.9-2.5,8.8-8.3-.2-5.4-3.8-7.3-8.5-7.8Zm74.5,9.5c-.8-7.4-3.6-10.6-8.7-11.1-4.8-.4-7.7,2.1-8.1,7-.4,4.8,4,10,8.6,9.1,3.2-.6,6-3.6,8.2-5.1Z"/><path class="cls-3" d="M702.7,372.1c-2.8,.3-5.1,1.1-7.3,.8-10.9-1.4-16.7,4.9-21.3,13.5-4.6,8.6-9.5,17.1-14.7,26.4-3.6-5.4-7-10.4-10.4-15.3-16-22.7-18.7-23.1-46.9-20.9-31.5,2.5-63.2,3.9-94.8,4.8-14.7,.5-11.9,1.1-12.6-12.4-1.1-21.2-2.4-42.3-3.7-63.5,0-1.3,0-2.7,0-4.6,11.2-.8,22.3-2.1,33.4-2.4,56.7-1.8,113.5-3.4,170.2-5.1,3.7-.1,6.8-.1,6.9,5,.5,23.5,1.2,46.9,1.8,70.4,0,.9-.2,1.8-.4,3.2Zm-37.9-40.9c-.2-4.5-3.5-7.5-8.1-7.3-4.5,.2-10,5.6-9.7,9.8,.4,4.7,3.2,7.5,7.9,7.8,4.6,.3,10-5.7,9.8-10.4Zm-73.4-3.3c-5,0-8.6,2.6-8.6,7.6,0,5.4,3.5,7.9,9,7.8,5.1,0,8.4-2.3,8.5-7.6,.1-5.7-3.6-7.9-8.9-7.9Zm-51.8,1.4c-7.7,.4-11,3.5-11.4,8.5-.4,4.6,2.5,8,7.4,8.1,5.3,.1,9-3.4,8.9-8.3,0-3.1-3.5-6.1-4.9-8.2Z"/><g><path d="M461.4,338.8c-22.5,0-44.4-.1-66.3,.2-1.9,0-4.7,2.3-5.5,4.2-4.8,11.5-9,23.4-13.9,34.8-1.2,2.9-4.3,5.3-7.1,7-3.9,2.3-8.7,3-12.5,5.4-5.3,3.4-9.2,1.7-12.4-2.5-4.2-5.7-8-11.6-11.8-17.6-5.5-8.7-10.8-17.4-16-26.2-2.3-3.9-5.2-5.8-9.9-5.3-4.3,.4-8.7,0-13,0-9.6,0-11.9-1.6-12.4-11.3-1.1-22.5-1.6-45.1-2-67.7-.2-11.4,.3-22.8,.8-34.2,.4-8.4,2.5-10.5,10.7-10.9,30.5-1.6,61-3.8,91.5-4.2,48.1-.7,96.2-.2,144.3,0,10.9,0,17.9,6.7,18,17.6,.2,18.9,0,37.9,0,56.8,0,2.4,0,4.9,0,8,19.4-.8,38-1.9,56.7-2.2,32.1-.5,64.3-.5,96.4-.8,5.9,0,9.2,3.2,9.4,8.7,1.1,30.5,2,61,2.8,91.6,.2,6.3-3.3,9.7-9.6,10-2,.1-4.2,.6-6.1,.3-9.9-1.8-14.8,3.5-18.8,11.6-5.2,10.4-11.1,20.4-17,30.4-4.7,7.8-7,8.2-14.7,3.6-.8-.5-1.6-1.1-2.4-1.2-10.8-1.1-14.7-8.8-17.9-17.7-2-5.8-5.2-11.2-7.2-16.9-1.8-5.1-4.3-6.6-10-6.2-33.4,2.3-66.8,4.2-100.3,5.8-8.4,.4-16.9-.5-25.3-1-8.1-.5-13.6-5.5-14.3-13.3-1.5-18.1-2.8-36.3-4.3-56.4Zm-112,29.8c1.7-2.9,2.9-5.3,4.4-7.5,7.1-10.6,14.3-21.1,21.4-31.7,3.3-4.9,7.8-7.1,13.9-6.7,10.7,.6,21.4,.8,32.1,.9,12.9,.1,25.9,0,38.9,0,0-4.9-1.5-10.1,.3-13.7,3.7-7.5,8.9-14.3,19.2-13,3.3,.4,6.8-.1,10.2-.4,10.6-.7,21.2-1.5,32.5-2.3v-67.4c-29.9-3.9-202.8-.7-227.4,4.2-1.8,30.5-1.8,61.1,1,91.8,3.5,.2,6,.7,8.4,.3,12.5-2,20.1,4.2,25.9,14.4,5.9,10.3,12.3,20.2,18.9,31.1Zm343.8,15.5c.2-1.5,.5-2.4,.4-3.2-.6-23.5-1.3-46.9-1.8-70.4-.1-5.1-3.2-5.1-6.9-5-56.7,1.7-113.5,3.3-170.2,5.1-11.1,.4-22.2,1.6-33.4,2.4,0,2,0,3.3,0,4.6,1.2,21.2,2.6,42.3,3.7,63.5,.7,13.6-2.1,12.9,12.6,12.4,31.6-1,63.3-2.3,94.8-4.8,28.3-2.3,30.9-1.8,46.9,20.9,3.4,4.9,6.8,9.9,10.4,15.3,5.2-9.3,10.1-17.8,14.7-26.4,4.6-8.6,10.3-14.9,21.3-13.5,2.2,.3,4.5-.5,7.3-.8Z"/><g><path d="M461.3,338.8c-14.1,.1-51.4,.5-65.1,.7-.9,0-1.6,0-2.4,.4-2.4,1.1-3.8,3.4-4.6,5.8-1.4,3.3-2.7,6.7-4,10.1-2.6,6.8-5.1,13.5-7.9,20.2-2.3,7.5-10.1,10.9-16.9,13.2-3.5,1.2-6.4,4.3-10.4,3.8-4-.3-6.6-3.9-8.8-7-4.2-5.9-8.1-12-11.9-18.2-1.8-3.1-12.6-20.4-14.2-23.1-3.5-6.1-7.2-5-13.2-4.7-4,0-7.1-.1-10.9-.2-3.7,0-8.7-.8-10.2-4.9-1.5-3.6-1.2-7.3-1.5-11.1,0,0-.5-10.9-.5-10.9-.6-14.5-.9-29-1.2-43.4-.4-14.5-.1-29,.7-43.5,.2-4.8,1-10.5,6.8-11.6,5-1,24.4-1.5,29.9-1.9,56.9-3.7,116.5-2.8,173.7-2.7,0,0,21.7,0,21.7,0,0,0,10.9,0,10.9,0,3.6,0,7.4-.2,10.9,.9,7.6,1.9,12.2,9.2,12.2,16.8,0,13.6,.2,51.1,.3,65.2,0,0-.8-.8-.8-.8,19.5-.9,38.9-2.1,58.4-2.4,25.9-.3,61.8-.7,87.7-.9,0,0,4.9,0,4.9,0,.8,0,1.6,0,2.5,0,4.6-.2,9.3,2.7,10,7.6,.4,1.5,.2,3.6,.3,5,0,0,.2,4.9,.2,4.9,.7,21.7,1.8,56.2,2.5,77.9,0,4.9,1.2,11.2-3.3,14.8-3.6,2.8-8.2,2.6-12.5,2.9-11-2-14.9,3.1-19.4,12.2-3.7,7.2-7.7,14.4-11.8,21.4-1.7,2.8-3.3,5.6-5,8.4-1.1,1.8-2.3,3.7-4.1,5.1-2.8,2.4-6.5,1.2-9.3-.3-1.4-.7-2.8-1.7-4.1-2.4-.3-.1-.3-.1-.8-.2-3-.3-5.9-1.3-8.5-3-5.7-3.9-8.2-10.7-10.4-16.9-1.7-4.5-4.1-8.9-5.8-13.4-1.7-5.1-2.9-8.2-9-7.7-23.9,1.3-63.6,3.5-87.5,4.7-5.8,.1-13.8,1-19.5,.8-6.5-.1-13-.8-19.5-1.2-6.8-.3-13.2-5-14.3-12-.4-2.8-.6-6.9-.8-9.7-.4-6.1-2.9-41.6-3.3-48.6h0Zm.2-.2c.9,10.6,3.6,43.4,4.4,53.5,0,8.9,4.6,15.2,13.9,15.8,9.7,.6,19.4,1.5,29.1,.7,23.9-1.5,63.5-3.9,87.5-5.3,0,0,9.8-.6,9.8-.6,1.7,0,3.5,0,5.2,.7,5.1,2.1,5.4,8.5,7.8,12.8,1.4,2.9,2.8,5.9,4,9,2.7,8,6.6,16.9,15.9,18.1,0,0,1.1,.2,1.1,.2,.3,0,1.1,.1,1.5,.4,.9,.4,1.4,.9,2.2,1.3,5.7,3.4,8.2,4.2,12.2-2.7,6.8-11.1,13-22.5,19-34,2.5-4.3,6.6-8.7,11.9-9.4,2.2-.4,4.3-.2,6.5,.1,1.9,.3,3.8-.1,5.8-.2,5.9-.2,9.2-3.6,8.6-9.8-.9-26.9-1.9-63.2-2.7-90.1,0-6.5-4.4-8.4-10.3-8-2.9,0-11.6,0-14.6,0-12,.1-45.9,.3-58.4,.4-25.7-.2-52.3,1-77.9,2.2,0,0-.8,0-.8,0,0,0,0-.8,0-.8,0,0,.1-43.4,.1-43.4,0,0,0-21.7,0-21.7,0-7.1-4.3-14-11.4-15.9-3.4-1.1-7-.8-10.6-.9,0,0-10.9,0-10.9,0,0,0-21.7-.1-21.7-.1-57.1-.2-116.8-.8-173.6,3.4,0,0-21.7,1.3-21.7,1.3-4.7,.4-11.5-.3-12.7,5.6-.4,1.6-.5,3.4-.6,5.2-.3,7.2-.6,14.5-.7,21.7-.1,21.7,.7,43.4,1.5,65.1,0,0,.4,10.8,.4,10.8,.2,3.4,0,7.2,1.3,10.3,1.7,4.6,9.6,3.4,13.7,3.8,2.7,0,5.4,.2,8,0,2.9-.3,6-.3,8.5,1.5,2.8,1.9,4.9,6.2,6.6,9,0,0,11.3,18.5,11.3,18.5,3.8,6.2,7.6,12.3,11.8,18.1,4.5,6.6,7.4,8.3,14.5,3.8,4.1-2,8.7-2.8,12.3-5.4,3-1.9,5.2-4.6,6.4-8,2.8-6.6,5.4-13.4,8.1-20.1,1.3-3.4,2.7-6.7,4.1-10.1,.9-3.3,4.1-7.3,8.2-6.9,13.6,0,51.1,.2,65.2,.3h0Z"/><path d="M349.4,368.4c0-.2,.3-.6,.4-.9,.3-.5,1.2-2.2,1.5-2.8,1.2-2.4,5.2-8.3,6.7-10.7,0,0,9.2-14,9.2-14l4.6-7,2.3-3.5c2.3-3.7,5.9-6.8,10.3-7.5,2.5-.5,6-.2,8.5,0,19.4,.8,47.4,.4,67.1,.4,0,0-1.1,1.1-1.1,1.1,0-4.9-1.8-10.9,1.1-15.5,4.8-9.2,10.8-13.6,21.5-12,11.6-.5,29-1.9,40.7-2.5,0,0-.6,.6-.6,.6,.1-11.2,.2-22.5,.2-33.7,0-8.4,.1-25.3,0-33.7,0,0,.3,.4,.3,.4,0,0-7.1-.6-7.1-.6,0,0-7.1-.3-7.1-.3-33.2-1.1-66.4-.3-99.5,.4-33,.9-66.5,1.7-99.4,4.1-3.9,.3-10.1,.9-14,1.6,0,0,1-1.2,1-1.2-.9,15.3-1.3,30.6-1.3,45.8,0,15.3,.7,30.6,2,45.8l-.9-.8c3.2,.2,6.3,.8,9.4,.2,20.2-2.3,25,16.1,34,29.9,2.8,4.7,7.2,11.7,9.8,16.4h0Zm0,.2c-3-4.5-7.4-11.6-10.4-16.2-3.4-5.4-6.8-10.9-10-16.3-5.1-8.4-13-13.9-23.2-12.3-3.5,.7-7,0-10.5-.1-1.6-15.5-2.4-31.1-2.6-46.7-.2-15.7,.3-31.4,1.2-47,0,0,.9-.1,.9-.1,4-.6,10.1-1.3,14.3-1.7,13.1-1.1,29.5-1.7,42.7-2.2,52.2-1.6,104.4-2.4,156.5-.5,0,0,7.1,.4,7.1,.4,0,0,7.1,.7,7.1,.7,0,0,.3,0,.3,0,0,0,0,.4,0,.4,0,8.4,0,25.3,0,33.7,0,11.2,.1,22.5,.2,33.7v.6s-.6,0-.6,0c-7,.6-23.9,1.9-30.6,2.4-4.3,.3-8.6,1.1-12.9,.6-2.4-.2-4.9,0-7.1,.9-5.2,2.1-8.7,7.4-10.8,12.5-1.1,4.3,.4,8.8,.2,13.5-22-.2-50.7,.3-72.4-1.2-5.5-.5-10.7,2.2-13.5,6.9-1.6,2.3-5.5,8-7.1,10.4-3,4.4-11.4,16.4-14.3,20.7-1.6,2.3-2.8,4.9-4.5,7.2h0Z"/><path d="M693,384c0-.3,0-.8,.1-1,.2-1.1,.3-2.2,.2-3.3,0,0-.2-4.5-.2-4.5-.2-5.7-.8-21-1-26.9-.2-2-1-39.5-1.7-40-1.1-2.6-4.7-1.7-7.1-1.8,0,0-4.5,.2-4.5,.2-53.8,2.1-107.8,2.6-161.6,4.2-12,.3-23.9,1.6-35.8,2.6,0,0,.5-.5,.5-.5,0,4.6,.5,11.6,.8,16.3,.7,10.3,2.5,38.2,3.2,48.9,.2,2.7,.3,5.5,.4,8.2,0,1.8-.1,3.9,.6,5.4,.2,.3,.5,.5,1,.6,2.4,.5,5.3,.2,7.8,.1,29.9-1,59.8-2.3,89.6-4.5,5.4-.4,10.8-.9,16.3-1.2,5.4-.3,11-.5,16.6,.9,5.6,1.5,10,5.5,13.5,9.8,3.5,4.3,6.6,8.7,9.7,13.2,0,0,9.1,13.6,9.1,13.6,0,0-1.5,0-1.5,0,0,0,16-28.1,16-28.1,2.8-4.6,6.6-9.2,11.9-10.9,3.3-1.2,6.8-.8,10.1-.5,1.4,0,2.7-.3,4-.5,0,0,1-.2,1-.2,0,0,.5,0,.5,0,.1,0,.3,0,.4,0h0Zm.2,.2s-2.1,.4-2.1,.4c-1.3,.3-2.8,.6-4,.6-3.3-.2-6.7-.4-9.9,.8-5.1,1.8-8.6,6.3-11.1,10.8,0,0-15.5,28.4-15.5,28.4l-.7,1.2-.8-1.2c-5.6-7.9-12.9-19.2-19-26.4-1.7-2-3.6-3.9-5.6-5.6-6.5-5-14.8-4.5-22.7-4.1-10.8,.7-21.7,1.7-32.6,2.4-21.7,1.4-43.5,2.2-65.3,2.9,0,0-8.2,.2-8.2,.2-2.9,0-5.5,.4-8.5-.2-.8-.2-1.8-.8-2.3-1.6-1.2-2.1-.7-4.4-.9-6.6,0-2.7-.1-5.4-.3-8.1,0,0-1.7-32.6-1.7-32.6,0,0-.8-16.3-.8-16.3-.2-4.9-.7-12-.6-16.8,12.1-.8,24.2-2.2,36.3-2.4,53.8-1.6,107.8-4.3,161.6-5.4,0,0,4.5-.1,4.5-.1,4.4-.2,9.2-.4,9.4,5.5,.2,17.7,.9,47.7,1,65.2,0,0,0,4.5,0,4.5,0,1.1,0,2.3-.3,3.4,0,.4-.1,.8-.2,1.2h0Z"/></g></g><g><path d="M501.1,849.1c-55.4,0-110.8,0-166.3,0-1.6,0-3.2,0-4.8,0-8.2-.3-11.1-4-8.9-12,6.1-22.3,15-43.5,27.5-63,33.1-51.7,78.5-87.4,139-100.9,77.5-17.3,144.4,15.5,180.3,87.3,9,18.1,15.9,37.2,23.1,56.2,4.9,13.1-6.8,29.4-20.8,30.2-5.2,.3-10.5,.7-15.7,.7-51.1,0-102.2,0-153.3,0,0,.5,0,1,0,1.5Zm-134.6-30.4c102.8-1,204.5-1.9,307.2-2.8-4-10.5-7.2-19.5-10.7-28.3-10.8-27-24.9-51.7-47.9-70.4-42.1-34.1-100.6-45.4-150.5-16.9-31.7,18.1-58.1,42.3-78.7,72.6-9.3,13.6-15.8,28.6-19.4,45.8Z"/><g><path d="M501.2,849.2c-47.6,.4-111.4,.9-158.9,.9,0,0-7.3,0-7.3,0-8.3,.3-17.5-.2-15.4-11.5,6-23.4,15.7-46,29-66.1,3.8-5.8,8.4-12.1,12.6-17.7,1.6-1.9,5.3-6.6,6.8-8.5,1.5-1.6,5.6-6.4,7.2-8.1,1.7-1.8,5.9-6.1,7.5-7.8,1.7-1.6,6.1-5.8,7.9-7.5,3.2-2.8,7.7-6.8,11.1-9.3,61.7-49,156.9-65.9,221.1-12.5,30.6,24.4,49,60.2,62.2,96.3,1.6,4.5,6.2,15.9,7.6,20.4,2.9,10.6-3.5,22.1-12.7,27.2,0,0-1.7,.9-1.7,.9-.8,.3-2,.8-2.7,1-2.7,.8-5.6,1-8.3,1.2-4.8,.3-9.7,.6-14.5,.5-50.3-.2-101.4-.4-151.6-.9,0,0,.1-.1,.1-.1,0,.5,0,1.1,0,1.6h0Zm-.2-.2c0-.5,0-1,0-1.6,0,0,.1,0,.1,0,52.6-.7,106.1-.6,158.7-1.2,3.6-.2,7.2-.4,10.8-.7,0,0,1.7-.2,1.7-.2,.6,0,1.1-.3,1.6-.4,10.3-3,18.4-14.1,16.6-24.9-.2-1.6-.9-3.4-1.5-4.9-5.5-14.2-11-29.7-17.3-43.5-40.1-92.5-127.9-124.5-220-86.6-51.4,20.9-91.7,64.1-115.4,113.5-5.1,10.8-9.3,22.1-12.6,33.6-1,4-3.5,9.3-1.2,13,2.7,3.5,8.6,2.8,12.6,2.9,4.2,0,17.1,0,21.6,0,41.4,.1,102.8,.5,144.4,.9h0Z"/><path d="M366.6,818.6c99.1-2.1,208.3-2.7,307.1-3.2,0,0-.4,.5-.4,.5-5.8-15.1-13.2-36.2-20.8-50.2-4.2-8-8.9-15.8-14.3-23-26.8-36-71.8-58.7-116.8-57.3-36.7,.5-69.1,20.9-96.2,44.2-20,18-38.5,38.8-50.2,63.3-3.8,8.2-6.5,16.9-8.6,25.6h0Zm-.2,.2c3.3-17.9,10.8-35.1,21.4-49.8,15.6-22.5,35.2-42.1,57.5-57.8,22.1-16.1,48.3-27.7,76-28.2,50.4-1.4,100.2,26.9,125.6,70.4,11.4,18.2,19.4,42.4,27.1,62.4,0,0,.2,.5,.2,.5h-.6c-98.7,1.4-208.2,2.8-307.3,2.5h0Z"/></g></g><g><path d="M283.1,684.4c-39,0-78,0-117,0-9,0-10.7-2.1-8-10.7,16.4-52.3,49.8-88.1,100.6-109.8,48.6-20.8,100.1-4.1,130,31,12.3,14.5,19.9,31.5,26.5,49,1.2,3.2,2,6.6,3.7,9.5,6.3,10.3,2.6,18.5-5,25.8-2.1,2-5.6,3.4-8.5,3.5-14.8,.6-29.6,.9-44.4,.9-26,.1-52,0-78,0,0,.2,0,.5,0,.7Zm120.9-25c-6.2-17.9-12.2-33.5-21.9-47.4-27.5-39.5-80.6-53.5-120.9-31.5-21.9,12-40,28.6-54.5,48.9-6.6,9.2-11.6,19.3-13.9,29.9h211.1Z"/><g><path d="M283.2,684.5c-33.7,.4-68.9,.8-102.9,.9,0,0-10.4,0-10.4,0-3.6,0-7,.4-10.6-.8-.9-.3-1.9-1-2.5-1.9-2.8-4.2,2.2-13.6,3.4-18.2,2.4-6.5,5.2-12.8,8.2-19,12.3-24.7,31.1-46,53.7-61.7,35.2-24.4,74.7-38.1,116.9-23.7,23,7.7,43.5,22.9,57.3,42.8,8.9,12.8,15.2,27.2,20.5,41.8,1,2.8,1.7,5.6,3.2,8.1,1.1,1.9,2.2,4,2.8,6.1,2.2,7.2-1.3,14.8-6.4,19.8-1.2,1.3-2.7,2.6-4.3,3.4-2.4,1.3-5.2,1.9-8,1.9,0,0-2.6,0-2.6,0-9.1,.1-26.7,.4-36.1,.6-27.5,0-54.9-.4-82.4-.7h.1c0,.1,0,.4,0,.6h0Zm-.2-.2c0-.3,0-.5,0-.7,0,0,.1,0,.1,0l82.3-1c9.3-.3,26.8-.7,36-1,0,0,2.6,0,2.6,0,4,.1,7.9-1.6,10.6-4.7,4.6-4.6,7.8-11,5.8-17.4-.7-2.4-2-4.6-3.2-6.7-1.2-2.3-1.9-5-2.8-7.4-5.4-14.3-11.5-28.5-20.2-41.2-13.5-19.6-33.5-34.6-55.9-42.5-41.6-14.7-81.1-1.9-115.8,22.6-11.1,7.9-21.5,17.2-30.2,27.7-11.1,13-19.8,27.9-26.5,43.6-2.6,6.3-4.9,12.7-7,19.2-.5,1.6-.9,3.2-.9,4.7-.3,4.9,8.6,3.5,11.8,3.8,0,0,10.2,0,10.2,0,34.2,0,68.5,.5,102.9,.9h0Z"/><path d="M403.9,659.3c-2.2-5.6-4.3-11.6-6.7-17.1-2.4-5.7-4.9-11.3-7.8-16.7-16.6-32.9-51.9-55.2-89-54.5-19.4,.2-35.6,6.6-51.4,17.5-15.3,10.3-28.6,23.5-39.4,38.4-7.3,9.8-13.2,20.8-15.7,32.8l-1-1.3c66.1-.5,144.9,.2,211,1h0Zm.2,.1c-66.6,.8-145.8,1.4-212.5,1,2.6-12.7,8.9-24.3,16.8-34.4,11.2-14.8,24.7-27.8,40.2-38.2,26.3-18.9,58-24,88.4-12.3,17.5,6.6,32.9,18.4,44,33.5,11,15.1,17.6,32.8,23.1,50.5h0Z"/></g></g><g><path d="M524.5,653.6c-39.7,0-70.9-21-80.6-51.3-12.1-37.7,7.4-81,43.5-97,12.1-5.4,24-10.5,37.4-12.2,45.3-5.7,88,27.7,91.2,73,1.8,25.8-8.3,47.5-28.7,63.4-19.7,15.4-43.1,22-62.8,24Zm9.3-20.9c5.6-.7,11.3-1.1,16.9-2.2,33-7,55.4-39.7,48.7-70.6-10.6-49.2-73.3-68.7-111.2-34.7-26.5,23.9-28.2,61.6-3.7,86.9,13.4,13.8,30.1,20.1,49.2,20.6Z"/><g><path d="M524.5,653.7c-23.4,0-47.6-7.3-64.6-23.9-37.6-36.4-20.5-101.4,24.3-123.4,14.9-7,30.6-13.8,47.3-14.5,33.6-2,67.2,18.7,80,50,8.6,20.6,8.1,45.3-3,64.9-17,29.4-51.6,43.5-84.1,46.9h0Zm0-.2c37-3.8,77.7-24.6,88-62.8,7.1-26.4-1.7-55.8-21.6-74.5-24.3-23.5-60.4-29.2-91.3-15.7-5.1,2-10.2,4.2-15.1,6.6-9.8,4.9-18.4,12.1-25.3,20.6-26.3,32.8-24.4,83.7,11.1,109,15.5,11.5,35,16.7,54.1,16.8h0Z"/><path d="M533.8,632.5c8.3-1,16.8-1.6,24.7-4.7,15.7-5.8,28.6-18.1,35.6-33.3,7.2-15.1,7.1-33,0-48.1-13.7-31.5-53.5-45.9-84.8-33.1-23.1,8.9-40.9,31.9-40.8,57-.3,25.2,17.4,48.5,40.6,57.4,7.8,3,16.3,4.5,24.6,4.7h0Zm0,.2c-16.9-.3-34-5.7-46.7-17.2-20.1-17.2-27.1-46.2-15.5-70.3,13.4-28.1,44.5-42.9,74.8-36.5,25.1,4.9,47.2,23.9,53.4,49.1,8.3,29.8-12.6,61.4-41.1,70.6-8,2.8-16.5,3.4-24.9,4.3h0Z"/></g></g><g><path d="M711.7,666c-30.3,0-60.7,0-91,0-8.7,0-9.6-1.1-6.9-9.7,10.2-32.7,30-57.9,59.5-75.4,13.7-8.2,27.4-16.2,43.9-17.6,36.5-3.1,71.3,15.3,88.3,47.8,5.5,10.4,9.5,21.6,14,32.6,4.5,11-1.4,20.6-13.5,21.2-15.5,.7-31,.8-46.5,.9-16,.1-31.9,0-47.9,0v.2Zm91.4-21.2c-5.5-15.6-11.1-29.5-21.3-40.9-19.9-22.3-56.2-35-87.4-17.2-17.9,10.2-32.8,23.8-43.9,41.2-3.3,5.2-5.5,11.2-8.3,16.9h160.9Z"/><g><path d="M711.8,666.1c-26.5,.4-54.4,.8-81.3,.9,0,0-8.2,0-8.2,0-2.9,0-5.6,.3-8.5-.8-.8-.3-1.7-1-2-1.8-.4-.9-.5-1.7-.4-2.5,.2-2.9,1.2-5.4,2.1-8.1,2.2-6.4,4.7-12.9,7.8-18.9,8.5-17.1,21.1-32,36.2-43.7,1.1-.9,3.8-2.8,4.9-3.7,1-.7,4-2.7,5.1-3.4,8.1-5,16.2-10,24.8-14.1,30.9-15.3,70.4-7.1,95.4,15.9,0,0,3,2.8,3,2.8s2.8,3,2.8,3c2,2,4.1,4.9,5.9,7.1,5.4,7.5,9.7,15.8,13.3,24.3,2.1,5,4.1,10.1,6.1,15.1,.8,2.2,2.3,5.4,2.9,7.7,2.7,9.3-2.6,18-12.2,19.6-2.3,.5-5.9,.5-8.3,.6-7.9,.2-16.5,.4-24.4,.4-18.4,.2-46.3-.4-65-.6,0,0,.1-.1,.1-.1,0,.1,0,.2,0,.3h0Zm-.2-.2c0,0,0-.2,0-.3,0,0,.1,0,.1,0,18.4-.4,46.8-.6,65-1,7.8-.1,16.5-.4,24.3-.7,2.7-.1,5.5-.1,7.9-.6,8.2-1.5,12.6-8.7,10.3-16.7-4.7-12.4-9.7-25.3-16-37-1.6-3.1-3.9-6.4-5.9-9.3-.3-.4-2.7-3.4-3.1-3.9-1.4-1.8-3.8-4.2-5.3-6-4.7-4.7-10-9-15.6-12.6-1.2-.7-4.1-2.4-5.2-3.1-18.2-9.7-40.1-13.8-60.4-9.3-10.6,2.5-20.2,7.6-29.5,13-23.6,13-43.6,32.9-55.1,57.4-3,6-5.5,12.3-7.6,18.7-.7,2.5-3.5,9.1-.9,9.8,2.2,.8,5.1,.6,7.6,.7,29.7,0,59.3,.5,89.3,1h0Z"/><path d="M802.9,644.8c-3.4-8.5-6.8-17.2-11.3-25.2-8.7-16.2-23.4-28.8-40.5-35.3-17-6.7-36.8-7.1-53.4,1.2-17.4,8.9-32.7,22.2-43.7,38.4-4.8,6.6-7.7,14-11,21.5,0,0-.9-1.5-.9-1.5,51.9-.6,108.7,.2,160.8,1h0Zm.2,.1c-52.8,.8-110,1.5-162.6,.9,2.3-4.6,4.2-9.4,6.7-14,2.2-4.1,4.9-8,7.8-11.7,8.5-11.1,18.9-20.6,30.5-28.4,7.7-5.3,15.9-9.8,25-12.1,27.5-7.4,57.9,5.2,75,27.4,8.5,11.2,13.5,24.6,17.7,37.9h0Z"/></g></g><g><path d="M726.6,558.5c-5-.6-10-.9-14.8-2-23-5.1-36.7-24.1-32-47.1,8.3-41.1,48.8-54.9,79-35.6,17.5,11.2,25.1,33.2,18.6,52-7.3,21.1-27.5,34-50.8,32.6Z"/><path d="M726.6,558.6c-6.3-.8-12.8-1-18.9-2.9-14.3-4-26.3-14.8-29.2-29.8-.8-4.8-.9-9.8,0-14.6,3.5-21.6,19.6-41,41.3-45.5,30.8-6.9,63,16,61.1,48.7-2,28-27.4,45.9-54.3,44h0Zm0-.2c34.4,2.4,62.2-31.7,47.9-64.3-9.8-22.6-38.6-33.7-61.5-25.4-19.4,6.7-30.9,25.5-33,45.3-1.8,19.1,9.6,35.2,27.7,41.2,6.1,2.1,12.5,2.5,18.8,3.2h0Z"/></g><g><path d="M301.9,545.6c-33.7,0-56.6-19.3-59.9-47.3-3.4-28.5,21.9-60.9,52.7-67.4,31.1-6.5,62.2,10.6,71.5,39.4,10.2,31.7-10.5,65.9-43.9,72.3-8,1.5-16.2,2.3-20.3,2.9Zm51.1-60.5c-.3-1.6-.6-5.3-1.6-8.7-6.4-22-29.9-35.2-53-30-20,4.5-34.4,20.2-35,38.5-.9,25.1,21,45.4,47.1,43.6,24.7-1.7,42.4-18.9,42.4-43.4Z"/><g><path d="M301.9,545.7c-15.9,0-32.4-4.2-44.5-15.1-12.2-10.7-18.5-27.9-16.3-43.9,4.4-28.3,30.4-53.4,58.7-57.2,47.4-6.7,86.8,40.2,63.3,84.4-7.7,14.3-21.7,24.8-37.5,28.4-7.8,1.7-15.7,2.4-23.7,3.4h0Zm0-.2c16.1-1.9,31.6-3.7,44.4-14.6,18.4-14.8,26.4-41.2,17.5-63.2-9.4-25.2-37.5-40.2-63.8-37-28.5,3.2-53,28.1-56.8,56.3-1,7.7,.2,15.6,2.8,23,7.9,23.4,32.2,35.9,56,35.5h0Z"/><path d="M352.8,485.1c-2.3-30-36.2-46.4-62.7-35.3-13.4,5.1-24.2,17.3-25.9,31.7-1.5,13.5,4.5,27.3,15,35.8,27.3,22.4,74,5.2,73.6-32.2h0Zm.2,0c.2,25.3-18,43.4-43,44.7-30.8,2.1-56.3-28.1-44.3-57.7,2.2-5.3,5.6-10,9.7-14,27.6-26.9,74.2-12.5,77.6,27h0Z"/></g></g><path class="cls-2" d="M404,659.4H192.9c2.3-10.6,7.3-20.7,13.9-29.9,14.5-20.3,32.5-37,54.5-48.9,40.3-22,93.4-8.1,120.9,31.5,9.7,13.9,15.7,29.5,21.9,47.4Z"/><path class="cls-2" d="M803,644.8h-160.9c2.7-5.7,4.9-11.6,8.3-16.9,11.1-17.4,26-31,43.9-41.2,31.3-17.8,67.5-5.1,87.4,17.2,10.2,11.4,15.8,25.3,21.3,40.9Z"/><path class="cls-2" d="M352.9,485.1c0,24.5-17.7,41.7-42.4,43.4-26.1,1.8-48.1-18.5-47.1-43.6,.7-18.3,15-34,35-38.5,23.1-5.2,46.5,8,53,30,1,3.5,1.3,7.1,1.6,8.7Z"/><g><path d="M357.9,276.4c-.5,3.9-3,6.5-8,6.4-4.9-.1-10.2-5.6-9.9-10.3,.3-4.9,3.2-7.4,8-7.4,4.7,0,10,5.8,9.9,11.3Z"/><path d="M358,276.5c-.4,5.6-5.6,9-10.9,6.9-3.5-1.6-5.7-4.7-7.1-8-.2-.4-.4-1.3-.5-1.8,0,0,0-.9,0-.9-.4-5.7,4-9.2,9.4-8.7,5.9,.9,9.3,7,9.1,12.5h0Zm-.2,0c0-2.3-1.2-4.5-2.7-6-2.8-3.1-6.9-5.2-10.9-3.3-1.7,.8-2.9,2.6-3.4,4.7-1.3,4.4,3,8.7,7,9.6,4,1.1,9.5,0,9.9-5h0Z"/></g><g><path d="M405.6,265.1c4.7,.4,8.3,2.4,8.5,7.8,.2,5.8-3.6,8-8.8,8.3-5.3,.3-9.1-3.1-9-7.9,.2-5.9,4.2-7.5,9.3-8.1Z"/><path d="M405.6,265c3.5,.3,7.8,1.1,9.1,4.9,1.2,3.5,0,7.8-3.1,9.8-3,1.8-6.8,2.7-10.3,1.9-3.8-.9-6.6-4.9-6.2-8.8,.3-6.4,5.2-7.5,10.5-7.9h0Zm0,.2c-3.1,.4-6.4,1.9-7.5,4.9-.9,2.6-.7,6,1.3,8,4.4,4.2,14.5,3.1,13.6-4.7,0-4.5-2.8-8-7.5-8.3h0Z"/></g><g><path d="M480,274.7c-2.2,1.4-5,4.4-8.2,5.1-4.6,.9-9-4.3-8.6-9.1,.4-4.9,3.3-7.4,8.1-7,5.1,.4,8,3.6,8.7,11.1Z"/><path d="M480.1,274.7c-2.3,2.4-4.6,5.2-8.1,6-5.1,1-8.6-4.4-9.2-8.8-.7-5.4,2.2-9.8,7.9-9.7,7-.1,10.1,6.2,9.4,12.4h0Zm-.2-.1c-1-2.9-1.8-6-4.1-8-3.6-2.7-10-2.8-11.7,2.3-2.2,4.9,2.4,10.5,7.5,9.7,3-.5,5.5-3,8.3-4h0Z"/></g><g><path d="M655.3,343.2c.2,4.7-5.2,10.6-9.8,10.4-4.7-.3-7.5-3.1-7.9-7.8-.3-4.2,5.2-9.6,9.7-9.8,4.6-.2,7.9,2.8,8.1,7.3Z"/><path d="M655.4,343.2c0,5.9-5.1,13.1-11.7,10.8-6.3-1.8-9.2-9.8-4.6-14.8,5.4-7,15.9-5.8,16.2,4h0Zm-.2,0c0-4.1-4-6.4-7.7-6-2.5,.3-4.7,1.7-6.5,3.5-4.3,3.9-3.2,11.5,3.1,12,1,0,2.1,0,3-.3,3.6-1.6,8.1-4.8,8.1-9.2h0Z"/></g><g><path d="M581.9,339.9c5.3,0,9,2.2,8.9,7.9-.1,5.2-3.4,7.5-8.5,7.6-5.5,0-9-2.5-9-7.8,0-5,3.6-7.5,8.6-7.6Z"/><path d="M581.9,339.8c3.4,0,7.8,.3,9.3,4,1.4,3.4,.3,7.7-2.5,9.9-5.9,4.2-16.8,3.2-16.7-5.9-.1-6,4.6-8.2,9.9-8.1h0Zm0,.2c-2.2,0-4.4,.9-5.7,2.5-2.3,2.8-2.3,7.8,.4,10.2,2.9,2.2,8.5,3,11.6,.4,1.6-1.5,1.7-3.7,1.6-5.7,0-4.5-3.3-7.6-7.8-7.4h0Z"/></g><g><path d="M530.1,341.3c1.4,2.1,4.8,5.1,4.9,8.2,.1,4.9-3.6,8.4-8.9,8.3-4.8-.1-7.7-3.5-7.4-8.1,.4-5,3.7-8.1,11.4-8.5Z"/><path d="M530.2,341.1c1.6,1.5,3.4,2.9,4.6,4.8,3.1,4.2,.2,10.1-4.6,11.5-6.1,2.2-12.9,0-12.8-7.4,0-7,6.7-9.9,12.7-8.9h0Zm-.1,.2c-3.7,1-8.2,2.2-9.5,6-1.4,3.5-.5,7.9,3.4,9.4,5.4,2.1,10.1-1.6,10-7.3-.2-3-2.9-5.4-3.8-8.1h0Z"/></g><path class="cls-2" d="M764.1,512c0,20-14.4,34.1-34.6,35.5-21.4,1.5-39.3-15.1-38.5-35.7,.5-14.9,12.2-27.8,28.6-31.5,18.8-4.2,38,6.6,43.3,24.5,.8,2.8,1.1,5.8,1.3,7.1Z"/></g></g></svg>