<?xml version="1.0" encoding="UTF-8"?><svg id="Layer_1" xmlns="http://www.w3.org/2000/svg" viewBox="0 0 1024 1024"><defs><style>.cls-1{fill:#ebebec;}.cls-2{fill:#f1f2f2;}.cls-3{fill:#edc022;}</style></defs><polygon class="cls-1" points="27.6 43.4 71 1002.5 947.3 1021.7 996.4 0 27.6 43.4"/><circle class="cls-2" cx="546.1" cy="459.3" r="128.6"/><g id="FkfQ3W"><g><path class="cls-3" d="M784.7,460.4c-6.6-5.4-12.8-11.3-18.6-17.6-8.6-9.5-9.8-20.8-4-32.2,2.4-4.7,5.6-9.2,7.1-14.1,1.2-3.9,1.7-9.4-.2-12.5-3.4-5.5-8.5-10.3-13.7-14.2-10.9-8.2-15-18.1-11.4-31.4,1.9-7,3.1-14.3,4.5-21.4,1.8-9-.3-11.4-9.6-11.4-4.5,0-9,.5-13.4,.3-14.1-.5-25.6-10.5-28-24.4-1-5.6-1.2-11.3-2.2-16.9-1.6-8.3-7.3-11.1-14.9-7.5-.9,.4-1.8,.9-2.7,1.4-22.2,11.2-51.8,4.8-64.4-18.2-1.9-3.5-4.6-6.7-7.3-9.8-7-7.9-17.9-9.7-27.1-4.3-4.2,2.5-8.3,5.3-11.7,8.7-11.5,11-23.4,11.4-38.2,1.6-12.3-8.2-25.4-6.2-30.9,9.5-6.7,19-21.5,28.5-41.5,29.4-9.3,.4-18.7-.3-28.1,0-10.8,.3-18,6.8-16.5,16,3.1,19.2-6.2,30.4-22.4,38.1-4.8,2.3-9.4,4.8-13.9,7.5-3.8,2.3-4.8,5.7-2.8,10,1.3,2.7,2.7,5.6,3.2,8.5,2.6,13-3.7,23.2-11.2,32.8-3.1,4-6.8,7.6-9.7,11.8-5.4,7.6-4.9,9,3.4,13.2,14.9,7.6,18.8,14.9,16.4,31.5-.6,4.2-2.2,8.2-3.4,12.3-2.7,9.8-5.6,19.5-8.1,29.3-1.2,4.8,1.1,8.3,5.6,10.3,4.1,1.8,8.3,3.4,12.4,5.1,10.4,4.2,17.1,11.8,17.1,23,0,5.7-2.8,11.6-5.4,16.9-5.4,11.3-2.9,21.4,8.3,27.4,5.2,2.8,10.8,4.6,16.2,7.1,3,1.4,5.8,3.3,8.7,4.9,.8,.4,1.5,.7,2.3,1.1,2.8,2.7,6.3,5,8.2,8.3,3.1,5.4,5.2,11.4,7.5,17.3,4.6,11.9,13.4,16.4,25.7,12.8,4.7-1.4,9.3-2.9,14-4.2,12.9-3.8,24.1-1.2,33.4,8.8,4.8,5.2,9.9,10.3,15,15.2,7.7,7.3,17.5,7.5,22.9,0,10-13.8,18.8-13.9,33.4-7,6.8,3.2,13.3,7.1,20.1,10.1,7.6,3.3,12.2,1.7,16.8-5,2.5-3.7,4.8-7.6,7.4-11.2,5.5-7.6,13-12,22.4-11.5,6.4,.3,12.8,2,19.2,2.8,6.7,.9,13.4,1.6,20.4,2.5,0-5.1,0-8.8,0-12.4,0-5.8-.7-11.9,.5-17.5,3.2-15.7,13.7-31.1,35.4-26.2,3.7,.8,7.7,.5,11.6,.3,13.7-.6,20.8-9.2,18.5-22.8-.8-4.6-2.3-9.1-3.9-13.4-5.9-15.6-2.2-28.9,11.3-38.7,4.3-3.1,8.7-6.1,13.4-8.3,9.3-4.5,10.5-15.2,3-21.3Zm-218.9,102c-71,0-128.6-57.6-128.6-128.6s57.6-128.6,128.6-128.6,128.6,57.6,128.6,128.6-57.6,128.6-128.6,128.6Z"/><g><path d="M528.8,714c-5.8,13.3-10.9,25.9-16.6,38.2-8.2,17.5-16.6,34.8-25.2,52.2-9,18.3-26.6,21.3-42.8,8.5-8.6-6.8-14.3-15.2-18.9-24.8-5.5-11.5-16-16.9-27.6-18.9-11.5-2-23.4-1.8-35.1-2.5-6.3-.4-12.7,0-18.7-1.4-13.5-3-19.1-12.4-16.1-25.9,4.5-20,12.9-38.6,23.3-56.1,16.1-27.1,32.9-53.7,49.5-80.7-3.2-.9-7.5-2-11.6-3.4-4.2-1.5-8.5-2.9-12.3-5.2-11.3-6.8-15-19.1-9.7-31,2.5-5.5,5.5-10.7,3.6-17.4-1.9-6.6-5.4-11.2-12-13.5-3.6-1.3-7.2-2.8-10.8-4.1-11.5-4.1-16.5-12.2-13.8-24.2,1.7-7.7,5-15,7.2-22.6,1.4-4.8,2.8-9.8,2.9-14.8,.2-7.2-3.1-12.6-10-16-16.3-7.9-19.1-20.6-8-35.2,4.4-5.8,9.1-11.5,13.5-17.3,4.2-5.4,4.9-11.1,2.7-17.8-6.1-18-2.4-27,14.1-36.3,4.6-2.6,9.4-4.9,14.1-7.2,6.5-3.1,9-8.3,8.4-15.4-.3-4.2-.6-8.6,.2-12.7,3.1-15.3,13.2-24,29-24.8,9.3-.4,18.7,0,28.1,.1,13,.3,21.4-6.3,26.8-17.5,1-2,1.7-4.1,2.5-6.2,8.5-21.9,30.7-29.8,51.4-18.3q14,7.8,26.4-2.8c11.9-10.1,25.7-13.1,40.5-8.9,5.1,1.5,10,5.5,13.9,9.4,5.2,5.1,9.3,11.3,13.9,17,9.6,11.9,26.4,15,39.6,7.3,17.8-10.4,33.6-4,38.9,15.9,1.6,5.9,2.7,11.9,3.2,18,.6,7.1,4.7,10.7,11.1,11.7,4.6,.7,9.3,.9,14,.7,20.3-.5,28.3,11.8,25.8,30.9-.9,6.8-3.3,13.4-4.9,20.1-1.4,5.9-1.1,11,4.7,15,4.5,3.1,8.5,7,12.5,10.7,10.9,10.3,13.2,23.9,6.4,37.2-1.8,3.4-3.9,6.7-5.7,10.1-5.4,10.3-4.2,15.8,4.6,23.4,4.9,4.2,10.1,8.3,14.4,13.2,8.1,9.3,11.1,20.2,5,31.6-2.8,5.3-7.8,9.7-12.5,13.5-4,3.3-9.2,5.1-13.8,7.8-4.9,2.9-6.6,7.4-5.4,13,1.9,8.7,4.6,17.3,5.5,26.1,2.2,21.8-11,36.5-32.8,37.4-5.7,.2-11.4,0-17.1-.2-8.7-.2-11.5,2.3-14.5,10.6-2.9,7.7-1.5,13.7,2.5,20.9,16.4,29.7,32,59.9,47.6,90,2.2,4.3,3.6,9.1,4.6,13.8,3,13.6-6.8,25.7-20.8,26.1-16.1,.4-32.2,.3-48.2,1.3-6.6,.4-13.1,2.6-19.4,4.6-8.3,2.7-13.7,8.3-15.9,17-1.2,4.9-3.2,9.6-5,14.4-3.7,9.5-12.2,12-20.8,15.9-27.4,12.4-44,4.2-56.5-21.5-7.5-15.5-13.5-31.8-19.6-47.9-3.8-10-6.7-20.3-10.3-31.3Zm-122.3-110c-4.3,9.1-8.5,18.3-12.9,27.4-14.2,29.2-28.6,58.3-42.5,87.7-3.2,6.7-5.3,14.1-6.8,21.4-1.5,7.1,.1,8.7,7.5,8.9,11.2,.3,22.4-.6,33.6,.3,27.6,2,50.1,12.2,60,40.6,.6,1.7,1.8,3.2,2.7,4.9,.7,0,1.3,.1,2,.2,20.7-40.1,41.4-80.2,61.6-119.3-7.6-7.8-15.3-15.5-22.8-23.4-6.7-7.1-14.6-9-23.9-6.3-4.5,1.3-9,2.7-13.6,3.5-8.9,1.6-18.5,3-25.2-4.5-4-4.4-6.2-10.7-8.5-16.4-3.2-7.8-5.9-15.8-8.8-23.7,2.8,2.7,6.3,5,8.2,8.3,3.1,5.4,5.2,11.4,7.5,17.3,4.6,11.9,13.4,16.4,25.7,12.8,4.7-1.4,9.3-2.9,14-4.2,12.9-3.8,24.1-1.2,33.4,8.8,4.8,5.2,9.9,10.3,15,15.2,7.7,7.3,17.5,7.5,22.9,0,10-13.8,18.8-13.9,33.4-7,6.8,3.2,13.3,7.1,20.1,10.1,7.6,3.3,12.2,1.7,16.8-5,2.5-3.7,4.8-7.6,7.4-11.2,5.5-7.6,13-12,22.4-11.5,6.4,.3,12.8,2,19.2,2.8,6.7,.9,13.4,1.6,20.4,2.5,0-5.1,0-8.8,0-12.4,0-5.8-.7-11.9,.5-17.5,3.2-15.7,13.7-31.1,35.4-26.2,3.7,.8,7.7,.5,11.6,.3,13.7-.6,20.8-9.2,18.5-22.8-.8-4.6-2.3-9.1-3.9-13.4-5.9-15.6-2.2-28.9,11.3-38.7,4.3-3.1,8.7-6.1,13.4-8.3,9.3-4.5,10.5-15.2,3-21.3-6.6-5.4-12.8-11.3-18.6-17.6-8.6-9.5-9.8-20.8-4-32.2,2.4-4.7,5.6-9.2,7.1-14.1,1.2-3.9,1.7-9.4-.2-12.5-3.4-5.5-8.5-10.3-13.7-14.2-10.9-8.2-15-18.1-11.4-31.4,1.9-7,3.1-14.3,4.5-21.4,1.8-9-.3-11.4-9.6-11.4-4.5,0-9,.5-13.4,.3-14.1-.5-25.6-10.5-28-24.4-1-5.6-1.2-11.3-2.2-16.9-1.6-8.3-7.3-11.1-14.9-7.5-.9,.4-1.8,.9-2.7,1.4-22.2,11.2-51.8,4.8-64.4-18.2-1.9-3.5-4.6-6.7-7.3-9.8-7-7.9-17.9-9.7-27.1-4.3-4.2,2.5-8.3,5.3-11.7,8.7-11.5,11-23.4,11.4-38.2,1.6-12.3-8.2-25.4-6.2-30.9,9.5-6.7,19-21.5,28.5-41.5,29.4-9.3,.4-18.7-.3-28.1,0-10.8,.3-18,6.8-16.5,16,3.1,19.2-6.2,30.4-22.4,38.1-4.8,2.3-9.4,4.8-13.9,7.5-3.8,2.3-4.8,5.7-2.8,10,1.3,2.7,2.7,5.6,3.2,8.5,2.6,13-3.7,23.2-11.2,32.8-3.1,4-6.8,7.6-9.7,11.8-5.4,7.6-4.9,9,3.4,13.2,14.9,7.6,18.8,14.9,16.4,31.5-.6,4.2-2.2,8.2-3.4,12.3-2.7,9.8-5.6,19.5-8.1,29.3-1.2,4.8,1.1,8.3,5.6,10.3,4.1,1.8,8.3,3.4,12.4,5.1,10.4,4.2,17.1,11.8,17.1,23,0,5.7-2.8,11.6-5.4,16.9-5.4,11.3-2.9,21.4,8.3,27.4,5.2,2.8,10.8,4.6,16.2,7.1,3,1.4,5.8,3.3,8.7,4.9Zm283.8,37.7c-6.2,15-15.5,19.5-32.1,15.3-3.3-.9-6.7-1.8-10-2.7-16.9-4.4-19.5-3.4-29.1,11.3-1,1.5-2,3-3.2,4.5-6.7,8.5-15.7,11.8-26,8.3-6.4-2.2-12.3-6.2-18.4-9.3-6-3.1-12.1-6-18.1-9.1-.6,.6-1.2,1.1-1.9,1.7,.4,1.9,.4,4,1.3,5.6,3.6,6.6,7.8,12.9,11.1,19.6,15.8,32.1,31.4,64.2,47.2,96.3,2.2,4.4,4.9,8.6,7.4,12.9,.6,0,1.2-.2,1.8-.3,2-4.6,4.4-9.1,5.8-13.8,6.7-22.5,23.1-32.9,45-35.1,15.7-1.6,31.7-1.1,47.6-1.4,13.5-.2,15.5-2.4,10.2-15-12.6-29.9-25.8-59.6-38.6-89Zm-143.2,29.5c-3.5,10.2-6.8,19.9-10,29.6-.3,.8-.1,2.2,.4,2.8,5.6,7.6,11.3,15.1,16.8,22.5,4.2-2.4,7.6-4.3,11.2-6.3-6.1-16.1-12.1-32-18.3-48.6Zm27.2,100.1c4.1-1.2,7.3-2.2,10.7-3.3-4.3-10.1-8.5-19.9-12.6-29.5-3.9,1.1-7.5,2.1-11.6,3.3,4.5,9.8,8.9,19.5,13.5,29.5Zm-92.3-1.5c-6.6,12.5-13,24.8-19.3,36.8,7.8,.9,11-.8,14.4-8.9,2.6-6.2,4.7-12.5,7.6-18.5,2-4.1,1.1-6.7-2.6-9.4Zm16.7-41.5c-3.9,9.1-7.7,17.7-11.5,26.6,2.5,.9,4.6,1.6,6.4,2.2,4-8.5,7.8-16.7,11.8-25.2-2-1.1-3.9-2.1-6.7-3.6Zm102.7,77.2c-3.8-7.7-7.6-15.2-11.3-22.6-3,1.6-5.9,3.3-8.9,4.9,3.6,9.7,9.4,16.5,20.2,17.7Zm-89.6-109.2c-2.2,5.6-4.4,11-6.6,16.6,2.9,1.3,5.4,2.5,8.4,3.8,2.7-5.3,5.2-10.1,7.7-14.9-3.5-2-6.2-3.6-9.5-5.5Zm7-15.3c4.2,1.6,8.1,3.1,12.2,4.7,2.2-3.6,4.2-6.9,6.2-10.2h-16.8c-.6,2.1-1.2,4-1.6,5.5Z"/><g><path d="M528.8,714c-5.6,13.2-11.1,26.7-17.2,39.7-4.3,9.1-14.4,29.9-18.8,39,0,0-3.1,6.5-3.1,6.5l-1.6,3.3c-.5,1.1-1,2.2-1.6,3.2-4.4,8.6-13,15.6-23,15.1-14.7-.6-26.6-12.7-34-24.5-2.6-4-4.3-8.6-7-12.6-8.4-12.5-24.3-15.1-38.3-15.8-9.6-.5-19.2-.9-28.8-1.3-4.8-.1-9.7-.4-14.4-1.9-10.5-3.2-15.8-11.6-14.2-22.5,.3-2.4,.9-4.8,1.5-7.1l.9-3.5c5.4-19.8,14.8-38.2,25.5-55.6,9.6-16.1,35.1-57.1,45.3-73.8,0,0,.2,.6,.2,.6-4.2-1.2-8.4-2.3-12.6-3.8-6.2-2.1-12.6-4.6-17.2-9.5-8.5-8.9-7.9-20.5-2.3-30.8,1.8-3.9,3.1-8.2,2.1-12.4-1.4-6.3-5.5-12.1-11.8-14.1-4-1.4-8.3-3.2-12.3-4.7-12.2-4.7-15.8-14.8-12-27,2.9-11.8,14.2-32.7,7.1-43.7-2.3-3.8-6.3-5.9-10.1-7.8-1.9-1.1-3.7-2.4-5.4-3.8-7.5-6.6-8.6-15.2-4.1-24,1.9-4,4.8-7.4,7.5-10.8,2.8-3.8,9.6-11.7,11.9-15.6,2.2-3.8,2.6-8.3,1.6-12.5-.5-2.1-1.3-4.1-1.9-6.3-1.6-5.8-2.4-12.1-.2-17.8,2.8-6.7,9-11.1,15.1-14.6,3.8-2.2,7.7-4.1,11.6-6,6.6-2.7,11.2-6.5,11.4-14.1,0-5.4-1-11,.4-16.3,1.6-7.4,5.7-14.7,12.2-18.8,5.5-3.7,12.3-4.9,18.8-5.1,8.7-.3,17.5,0,26.2,.2,4.3,0,8.7-.7,12.6-2.6,8-3.8,13-11.7,15.8-19.8,3-8.2,8.3-15.8,15.9-20.3,11.4-7.1,26.3-5.4,37.6,1.3,3.8,1.9,7.6,4.7,11.9,4.8,2.1,0,4.1-1.2,5.8-2.4,4.4-3.2,8.2-7.2,12.9-10.1,8.3-5.4,18.6-7.6,28.4-6.1,4.3,.6,8.8,1.6,12.4,4.1,7.4,4.8,13,11.8,18.2,18.7,2.6,3.4,5.2,7,8.6,9.7,8.8,7.3,21.7,8.7,32,3.8,5.2-2.8,10.8-5.8,16.9-6.1,9.3-.9,17.5,4.4,21.7,12.5,4.1,7.8,5.4,16.7,6.5,25.4,.2,4.2,1.7,8.6,5.7,10.7,1.9,1,4,1.5,6.1,1.8,5.4,.8,10.9,.6,16.3,.6,24.7,1.2,26.5,22.9,20.6,42.4-1.6,6.7-5.9,15.4-.5,21.4,.7,.8,1.5,1.5,2.4,2.1,3.6,2.5,6.9,5.4,10.1,8.4,1.3,1.3,3.5,3.2,4.7,4.6,7.8,8.2,10.4,20.2,6.5,30.9-2.8,9.4-14.2,19.7-9.9,29.7,1.8,3.9,5.3,6.8,8.5,9.5,5,4.2,10.2,8.4,14.2,13.6,9.1,11.3,9.1,25.5-1,36.3-3,3.2-6.3,6.1-9.9,8.8-3.7,2.5-7.8,4.1-11.5,6.2-5.2,2.6-7.2,7.8-5.7,13.3,1.6,7.3,3.9,15,5,22.4,2.3,13.1-1.1,27.7-12.9,35.3-4.6,3.1-10,4.9-15.4,5.6-7.6,1-15.3,.3-22.9,.2-2.1,0-4.3,.3-6.2,1.1-4,1.8-5.5,6.4-6.9,10.2-2.3,6.2-.9,12.9,2.3,18.5,12.7,22.9,24.8,46.1,36.9,69.4,4,7.8,8.1,15.5,12,23.3,3.3,8,6.4,17.3,2.8,25.6-3.4,8.5-12.3,13.5-21.3,13.3-9.6,.4-30.1,.3-39.3,.9-4.3,.2-8.7,.2-13,1-4.3,.8-8.4,2.1-12.6,3.4-2.1,.6-4.1,1.3-6,2.4-5.8,3-9.8,8.7-11.3,15-1.1,4.3-2.7,8.3-4.3,12.4-3,9.4-10.4,13.2-19.1,16.8-7.9,3.6-16.3,6.8-25.2,6.8-19.3,.3-30.1-17.2-36.8-32.9-3.6-7.9-6.9-16.1-10-24.2-2.9-7.5-6.6-17.1-9.2-24.5-2.8-8.2-5.3-16.7-7.9-24.9h0Zm0,0c2.8,8.4,5.2,16.7,8.1,24.9,2.6,7.6,6.5,17,9.3,24.5,3.2,8.1,6.5,16.2,10.1,24.1,6.8,15.5,17.4,32.9,36.5,32.6,8.8,0,17.1-3.2,25-6.8,8.4-3.5,15.9-7.2,18.8-16.5,1.6-4.1,3.1-8.1,4.2-12.3,.5-2.1,1.3-4.2,2.3-6.2,2.1-3.9,5.4-7.2,9.3-9.2,1.9-1.1,4.1-1.8,6.1-2.4,4.1-1.3,8.3-2.7,12.7-3.5,4.3-.8,8.7-.8,13.1-1.1,9.4-.3,29.7-.9,39.3-.9,8.6,.2,17.3-4.6,20.5-12.8,3.5-8.1,.4-17.2-2.8-25-3.9-7.7-8-15.5-12-23.2-12.1-23.2-24.3-46.4-37-69.3-3.3-5.7-4.7-12.9-2.3-19.3,1.5-4.1,3.2-8.8,7.4-10.8,2.1-.9,4.4-1.2,6.6-1.2,7.7,0,15.2,.8,22.8-.2,5.3-.7,10.6-2.5,15-5.5,16.4-11.3,14.3-30.1,9.8-47.1,0,0-1.6-6.4-1.6-6.4l-.7-3.2c-1.6-5.9,.7-11.6,6.1-14.3,3.8-2.2,7.9-3.8,11.5-6.2,15.7-11.2,23.8-26.5,10.7-43.7-4-5.2-9.1-9.3-14.1-13.5-4.9-4.1-10.8-9.4-9.7-16.5,1-6.6,5.2-12.1,8.2-17.9,7.4-13.1,5.3-27.9-5.9-38.1-4-3.7-7.9-7.6-12.4-10.6-6.7-4.4-6-11.5-4-18.2,3.2-11.2,7-23.6,2.6-34.9-3-7.4-9.6-11.3-17.4-12.3-8.5-1-17.6,.9-26-2.9-4.2-2.1-5.9-7-6.1-11.4-1-8.5-2.4-17.4-6.4-25.1-4.1-7.8-11.9-13.1-20.9-12.1-6,.4-11.5,3.2-16.6,6-10.5,5-23.7,3.5-32.7-4-3.5-2.7-6.1-6.4-8.7-9.8-5.2-6.9-10.7-13.9-18-18.6-3.6-2.4-7.9-3.4-12.2-4-4.3-.6-8.7-.6-12.9,.1-8.7,1.4-16.4,6-22.8,11.8-10.1,8.9-12.3,8-23.4,1.8-11.1-6.7-25.8-8.5-37.1-1.4-7.5,4.5-12.8,11.9-15.8,20.1-2.8,8.2-7.9,16.2-16,20-4,1.9-8.4,2.6-12.8,2.6-8.7-.2-17.5-.5-26.2-.2-6.5,.1-13.2,1.3-18.6,5-5.5,3.5-9.3,9.3-11.2,15.5-.2,.5-.3,1-.5,1.6l-.4,1.6c-1.4,5.4-.5,10.8-.4,16.3-.1,7.9-4.9,11.7-11.5,14.5-7.7,3.9-15.9,7.5-22.1,13.7-2.7,2.7-4.7,6.1-5.4,9.8-1,4.8-.1,9.8,1.1,14.4,2.2,6.5,4,12.8,.3,19.1-2.4,3.9-9.1,11.9-11.9,15.6-6.5,7.8-13.6,18.3-8,28.5,0,.2,1.1,1.8,1.3,2,0,0,1,1.2,1,1.2l.5,.6c.2,.2,.4,.4,.6,.6l1.2,1.1c1.6,1.4,3.4,2.6,5.3,3.7,3.9,2,8,4.1,10.3,8,5.6,9.1,0,22.5-2.9,31.8-3.2,9.8-9,21.4-2.6,31,2.4,3.6,6.2,6,10.2,7.6,3.9,1.4,8.5,3.3,12.2,4.6,6.6,2.1,10.8,8.1,12.3,14.6,1.8,6.7-2.4,12.9-4.7,18.9-3.9,10.6,0,22.2,9.8,28,7.5,4.4,16.1,6.6,24.4,8.9,0,0,.5,.2,.5,.2l-.3,.5-30.3,49.1c-9.9,16.5-20.6,32.5-29,49.8-5.2,10.8-9.5,22.1-12.4,33.7-3.7,12.6-1.9,24.3,12.3,28.7,6.9,2.2,14.2,1.6,21.4,2.1,12,.8,24.1,.5,36,2.7,12.4,2.2,22.9,8.9,27.9,20.8,5.8,11.7,14.6,22.6,26.6,28.2,13.6,6,26.2,.5,33-12.4,7.3-14.5,18.1-37.2,25.3-51.9,6.2-13.1,11.6-26.4,17.4-39.7h0Z"/><path d="M406.6,603.9c-16.4,35.4-36.3,75.9-53.3,111.1-4.1,7.8-6.9,16.2-8.6,24.8-.3,1.4-.6,2.9-.6,4.3,0,1.4,.3,2.9,1.5,3.6,2.5,1.4,5.6,1.1,8.4,1.3,2.9,0,5.9,0,8.8,0,11.7-.2,23.6-.4,35.1,1.8,21.6,3.8,38.6,15.4,46.6,36.2,1,2.8,2.2,5.3,3.8,7.8,0,0-.3-.2-.3-.2l2,.2c-1.4,1.9,61.9-121.4,61.2-118.7,0,0-12.5-12.9-12.5-12.9-3.7-3.7-8.8-9.2-12.6-12.7-11.6-9.7-21.3-3.1-33.7-.7-13.3,2.7-24.5,2.8-31-11.2-5-10.9-8.9-22.3-13-33.5,0,0-.5-1.5-.5-1.5l1.1,1.1c2.4,2.3,5.2,4.2,7.3,7,1.9,2.8,3.3,5.9,4.6,9,2.7,6,4.1,12.9,8.7,17.9,4.4,5.2,11.7,6.5,18.1,5,6.5-1.6,12.8-4,19.3-5.6,6.6-1.5,13.7-1.3,19.9,1.6,4.6,2.1,8.6,5.5,11.9,9.2,3.3,3.5,7.1,7.4,10.5,10.8,2.4,2.3,4.7,4.8,7.6,6.4,5.7,3.5,13.7,3.1,17.9-2.6,6.7-9.2,14.1-14.6,25.8-10.9,9.7,3,18.2,8.7,27.3,12.9,3,1.4,6.3,2.6,9.6,2,12.4-2.7,13.1-29.7,37.8-29.3,6.7,.3,13.3,2,19.9,2.9l20,2.4-.2,.2c0-3.3,0-10.8,0-14,0-4.7-.5-9.4,.1-14,.7-4.7,2.2-9.2,4.2-13.4,2.1-4.2,5-8.1,8.8-10.9,4.4-3.4,9.9-4.9,15.4-4.9,0,0,2.3,.1,2.3,.1h1.2c.4,.1,.8,.2,1.2,.3l2.3,.4c3,.7,6.1,.7,9.2,.5,7.5,0,16.2-2,19.7-9.4,2.8-5.6,1.9-12.2,.3-18.1-1.6-6-4.5-11.7-5.3-17.9-2.8-20.6,13.7-30.8,29.4-39.2,3.5-2.3,5.8-6.4,5.5-10.6-.2-4.8-3.7-8.3-7.3-11.1-3.6-3-7-6.2-10.3-9.5-10.1-9.6-16.5-19-12.1-33.3,1.8-6,5.8-11.1,8.3-16.8,2.2-5.5,3.5-12.5-.9-17.3-3.7-5-8.4-9.1-13.4-12.8-4.9-3.9-9.1-9.1-10.7-15.3-1.7-6.2-.4-12.7,1.3-18.6,1.5-6,2.5-12.2,3.7-18.3,.7-4.2,1.7-9.8-4.4-10.6-7.7-1.2-15.5,1-23.3-.6-12.6-2.4-22.5-13.6-23.7-26.3-1-6.1-.8-12.5-3-18.3-3.1-6.8-9.7-5.8-15.3-2.6-16.7,8.7-38.5,7.5-53.5-4.1-5-3.8-9.2-8.7-12.2-14.2-1.5-2.7-3.4-5.1-5.4-7.5-2-2.4-4.1-4.6-6.7-6.2-5.2-3.3-11.8-3.9-17.5-1.8-5.7,2.2-10.8,6.1-15.3,10.2-6.9,6.9-16.2,10.9-25.9,8.1-6.2-1.5-11.3-5.3-16.8-8.3-8.6-4.5-18.6-3.2-23.9,5.6-1.6,2.6-2.6,5.5-3.8,8.4-5.7,14.5-18.4,24.1-33.7,26.3-10.1,1.5-20.3,.6-30.4,.6-9-.4-20,1.6-21.1,12.4-.1,3,.8,6.1,.7,9.3,0,3.1-.2,6.3-1,9.4-3.3,13-15,19.9-26.3,25.1-2.8,1.4-5.5,2.9-8.2,4.5-2.6,1.4-5.3,3.4-5.2,6.6,0,3.1,2.1,5.7,3.1,8.6,2.3,5.9,2.2,12.6,.3,18.6-2.8,9-8.9,16.6-15,23.6-3,3.5-6.1,7.1-8.2,11.2-1.7,3.4,1.1,5.2,3.8,6.7,6.8,3.6,14.4,7.4,17.7,14.8,1.3,2.9,1.8,6.1,1.9,9.2,.2,6.3-1.1,12.5-3.1,18.4-3,9.9-5.9,21.5-8.8,31.5-1.7,4.9,.8,9.1,5.5,10.9,0,0,8.6,3.6,8.6,3.6,12.8,4.6,22.2,13,20.4,27.6-1.3,9.3-8.9,16.9-7.8,26.6,.9,10.1,10.5,15,19,18.3,5.9,2.2,11.4,5,16.7,8.4h0Zm0,0c-5.2-3.3-10.8-6.1-16.7-8.3-8.6-3.3-18.2-8.2-19.1-18.4-1.1-9.7,6.5-17.4,7.7-26.7,1.5-9.4-3.6-18.7-11.8-23.3-5-2.8-11.9-5.2-17.1-7.5-2.9-1.1-5.7-3.5-6.2-6.7-.6-2.8,1.1-6.5,1.7-9.2,1.2-4.5,3.7-13.5,4.9-18,1.4-6,3.8-11.9,5-18,.4-3.1,.7-6.2,.7-9.3,0-12.7-9.1-18.3-19.3-23.5-6-3.2-5.8-6-1.7-11.6,3.5-5.2,8.1-9.5,11.7-14.5,5.5-7.3,10.5-15.9,10.2-25.3,0-3.1-.5-6.1-1.7-9-2.9-6.7-6.3-11.5,2.4-16.2,7.9-5,17-7.9,24.1-14,7.3-5.8,11.3-15,10.9-24.3,0-3.1-.8-6.1-.7-9.3,.3-4.9,3.6-9.2,8.1-11.2,4.4-2.1,9.2-2.1,13.9-2.1,9.3,0,18.7,.7,27.9-.3,16-1.6,29.3-10.9,35.3-26,1.1-2.8,2.2-5.9,3.9-8.6,5.4-9.2,16-10.8,25.1-6,2.8,1.4,5.3,3.3,8.1,4.7,12.2,6.9,23.5,5.4,33.5-4.4,4.7-4.2,9.8-8.1,15.6-10.4,7.5-2.8,16.4-.8,22.1,4.8,3.3,3.4,6.3,7,8.7,11.1,3,5.4,7,10.2,11.9,14,14.8,11.4,36.1,12.5,52.5,4,5.6-3.3,13.3-4.5,16.5,3.1,2.3,5.9,2,12.4,3.1,18.5,1.1,12.4,10.7,23.2,23,25.6,7.6,1.6,15.6-.6,23.3,.6,6.4,1,6.2,6.4,5.1,11.6-1.2,6.1-2.3,12.3-3.7,18.3-1.7,5.9-3,12.1-1.3,18.2,1.5,6,5.6,11,10.3,14.8,5,3.7,9.8,7.9,13.5,13,4.5,5,3.2,12.3,.9,18.1-2.5,5.7-6.4,10.7-8.3,16.7-3.1,8.9-.8,18.9,5.4,25.8,6.1,7,13.1,13.3,20.2,19.3,5.9,5.6,5,15.2-1.9,19.6-15.6,8.4-32,18.3-29.3,38.6,1.3,9.3,6.7,17.6,6.8,27.1,.4,10.7-6.9,17.7-17.3,18.5-4.7,.3-9.4,.8-14-.2,0,0-2.3-.4-2.3-.4-1.2-.3-3.4-.3-4.6-.4-5.4,0-10.8,1.5-15.2,4.8,0,0-1.8,1.5-1.8,1.5-1.4,1.4-2.7,2.8-3.9,4.3-5.6,8-8.1,17.8-7.4,27.5,.3,5.5,0,13.1,.1,18.7,0,0,0,.2,0,.2,0,0-.2,0-.2,0,0,0-20-2.5-20-2.5-6.7-.9-13.2-2.6-19.9-2.9-10.8-.6-19,6-24.3,14.9-3.8,5.2-6.5,12.8-13.4,14.4-3.4,.6-6.8-.6-9.8-2-6.1-2.8-11.9-6.2-17.9-9.1-6-2.7-12.4-5.6-19.1-4.7-6.8,1-11.5,6.5-15.5,11.7-5.8,7.5-16.3,5.8-22.5-.3-6.1-5.6-11.8-12-17.7-17.8-7.3-7.1-17.9-9.5-27.8-7.1-6.5,1.6-12.8,3.9-19.3,5.6-11.5,2.6-19.9-3-23.9-13.9-2.5-6.2-4.6-12.6-8.2-18.2-2-2.6-4.8-4.5-7.2-6.9l.6-.4c2.1,5.6,4,11.3,6.1,16.9,8.4,21.1,10.6,33,37,27.3,8.7-1.5,17.5-6.6,26.5-3.6,5.9,1.6,10.2,6.5,14.4,10.8,0,0,6.3,6.4,6.3,6.4l12.6,12.8,.2,.2v.3c-.2,0-61.8,119.4-61.9,119.5,0,0-.2,0-.2,0l-2-.2h-.2c-.7-1.3-1.6-2.6-2.3-4-.8-2-1.7-4.1-2.4-6.1-1-1.9-1.8-4-3-5.8-8.6-15.9-25-25-42.3-27.9-11.5-2.2-23.3-2.1-35-1.8-2.9,0-5.9,0-8.8,0-2.9-.1-6.1,.2-8.7-1.4-2.7-2-1.6-5.8-1.1-8.5,.6-2.9,1.3-5.7,2.1-8.6,2.5-9.6,10-23,14.3-32.2,14.3-29.4,32.1-65.6,45.9-95h0Z"/><path d="M690.3,641.7c-8.9,21.8-23.5,18.2-42.3,12.8-6.1-1.3-13.6-4.1-19.3-.2-2.7,1.9-4.7,4.7-6.6,7.4-1.7,2.3-4,6-5.7,8.3-6.4,8.8-16.8,12.6-27.2,8.5-6.4-2.3-12-6.2-18-9.2l-18-9.1h.4c0,0-1.9,1.7-1.9,1.7v-.3c.5,2.4,.6,4.6,2,6.6,3.4,6.2,7.3,12.1,10.4,18.4,14.1,29.3,31.1,63.6,45.5,92.9,2.2,5.1,6.3,11.6,9.1,16.4,0,0-.4-.2-.4-.2l1.8-.3-.3,.2c2-4.7,4.4-9.3,5.8-14.2,1.5-5,3.6-9.7,6.5-14,12.6-19.1,34.1-21.5,55.1-22,10.3-.3,20.5-.2,30.8-.4,3.7-.1,7.7,0,11.1-1.6,2.3-1.2,2.1-4.1,1.5-6.3-.9-3.7-2.6-7.2-4.1-10.7-7.7-17.8-28.4-66.4-36.3-84.9h0Zm0-.1c8.2,18.7,29.2,66.5,37.1,84.6,1.5,3.6,3.2,7.1,4.2,10.8,2.7,9.4-7.1,9-13.5,9.1-10.3,.1-20.5,0-30.8,.3-20.7,.5-41.9,2.7-54.4,21.5-2.8,4.2-4.9,8.9-6.4,13.8-1.5,5-4,9.5-6,14.2v.2c0,0-.3,0-.3,0l-1.8,.3h-.3s-.1-.2-.1-.2c-2.9-4.9-6.8-11.4-9-16.5-14.3-29.4-31-63.8-45.4-92.9-3.1-6.3-7.1-12.2-10.5-18.4-1.4-2-1.6-4.7-2-7,0,0,.1-.1,.1-.1l1.9-1.7,.2-.2h.2c0,.1,18.1,9.1,18.1,9.1,6,3,11.7,6.8,17.9,9.1,10,3.9,20,.3,26.3-8.2,1.8-2.3,4.1-5.9,5.8-8.3,2-2.7,4-5.6,6.8-7.5,5.9-4,13.5-1.2,19.8,.2,18.8,5.4,32.9,9.1,42.1-12.4h0Z"/><path d="M547.2,671.2c-2.8,8.7-6.6,21.1-9.6,29.6-.4,1.1-.1,2.4,.7,3.3,0,0,2.3,3.2,2.3,3.2,4.5,6.3,9.2,12.6,13.9,18.7,0,0-.3,0-.3,0l11.1-6.5-.2,.5c-5.3-13.4-13-34.9-17.9-48.7h0Zm0-.1c5.5,13.9,13.8,34.9,18.9,48.8,0,0-.3,.2-.3,.2l-11.3,6.2h-.2c-4.6-6.3-9.3-12.6-14.1-18.8,0,0-2.4-3.1-2.4-3.1-1-1-1.4-2.6-.9-4,2.8-8.7,7.3-20.7,10.4-29.4h0Z"/><path d="M574.4,771.2c3.1-1.1,7.6-2.6,10.6-3.6,0,0-.2,.5-.2,.5-3.3-7.3-6.2-14.8-9.3-22.2-1.1-2.5-2.1-4.9-3.3-7.3h.3c-3.8,1.4-7.7,2.5-11.6,3.7l.3-.7c4.5,9.4,9,20,13.1,29.6h0Zm0,0c-3.4-6.8-7.4-15-10.6-21.9-1.2-2.6-2.4-5.3-3.6-8,4.1-1.1,8.1-2.2,12.2-3.3h.2c1,2.5,2.1,5,3.1,7.6,3.3,7.5,6.8,14.9,9.9,22.5-3.3,1-7.9,2.2-11.3,3.1h0Z"/><path d="M482.1,769.8c-4.4,9.1-9.4,19-14.3,27.7-1.2,2.3-3.7,6.9-4.8,9.2,0,0-.1-.3-.1-.3,11.3,1.6,12.7-6,16.1-14.6,1.3-3.4,3.2-8.3,4.8-11.5,2.5-4.3,2.6-7.3-1.6-10.5h0Zm0,0c4.7,2.8,4.8,6.5,2.3,11-1.5,3.3-3.3,8.2-4.6,11.5-3.7,9.2-5.6,16.7-17.4,14.5,1.3-2.4,3.7-7,5-9.5,4.5-9.3,9.6-18.6,14.7-27.5h0Z"/><path d="M498.8,728.4c-2.5,6.5-5.4,13.8-8.4,20.1-1,2.1-2,4.3-3,6.5v-.2c2,.7,4.2,1.4,6.4,2.1h-.3c3.6-8.2,7.6-16.9,11.7-25,0,0,.2,.5,.2,.5l-6.5-3.9h0Zm0,0c2.3,1.1,4.7,2.3,7.2,3.5v.3c-3.8,8.5-7.9,17.1-12.1,25.4-2.2-.9-4.5-1.7-6.8-2.5v-.2c1.5-3.2,2.9-6.9,4.2-10.2,2.2-5.1,5.1-11.5,7.5-16.4h0Z"/><path d="M601.4,805.5c-2.8-5.2-6.3-11.5-8.7-16.9-.9-1.9-1.7-3.8-2.6-5.7h.2c-1.5,.9-3,1.7-4.4,2.6l-4.4,2.6,.2-.5c3.5,9.2,9.7,16.2,19.8,17.8h0Zm0,0c-10.6-.2-17.5-8.1-20.6-17.6,0,0-.1-.3-.1-.3h.3c2.7-1.5,6.4-3.4,9-4.9,0,0,.1,0,.1,0h0c1.9,3.9,4.1,7.7,5.9,11.6,1.3,2.8,4,8.5,5.2,11.3h0Z"/><path d="M511.9,696.3c-2,5.8-3.8,11.2-6.4,16.7,0,0-.1-.3-.1-.3,2.8,1.4,5.6,2.7,8.4,3.8,0,0-.3,.1-.3,.1,2.4-5.1,4.8-10.1,7.5-15,0,0,.2,.7,.2,.7-2.7-1.6-6.6-4.2-9.3-5.9h0Zm0,0c2.9,1.5,6.9,3.5,9.8,5.1,0,0,.4,.2,.4,.2l-.2,.4c-2.5,5-5.1,9.9-7.9,14.8,0,0-.1,.2-.1,.2h-.2c-2.8-1.5-5.7-2.9-8.6-4,1.9-5.7,4.4-11.5,6.9-16.8h0Z"/><path d="M518.9,681c4.2,1.3,8.3,2.6,12.3,4.3,0,0-.4,.2-.4,.2,2.3-3.3,4.4-6.7,6.3-10.2,0,0,.3,.5,.3,.5-2.8,.1-5.6,.2-8.4,.2-2.4,0-5.9,0-8.4-.1,0,0,.4-.3,.4-.3-.6,1.7-1.3,3.5-2,5.4h0Zm0,0c.4-1.9,.9-3.9,1.4-5.9,2.6,0,6.1-.2,8.7-.2,3,0,6,0,9,.2-2.5,3.5-4.7,7.2-6.7,11-4.2-1.4-8.4-3.2-12.4-5.1h0Z"/></g></g><g><path d="M681.8,459.5c0,33.3-10.5,62.7-33,87.5-9.4,10.4-20.6,18.2-33.8,23.3-7.1,2.7-14.2,5.8-21,9.2-47.4,23-98.8,15.5-138.9-20.3-21.7-19.3-37.6-42.5-43.6-71.1-12.3-57.7,13.4-112.6,65.7-142.8,60.1-34.7,139.1-19.9,179.3,33.5,16.5,21.9,25.6,50.8,25.3,80.6Zm-13.2,1.3c-.5-31.4-11-61.3-35-85.4-37.6-37.8-101-44.6-149-16.4-64.7,38-73.1,111.3-43.7,161.8,24,41.1,75,73.4,136.4,58.3,14.8-3.6,29.6-6.7,42-16.4,32.3-25.3,49-58.4,49.3-101.9Z"/><g><path d="M681.9,459.5c.2,28.7-8.6,57.7-26.6,80.3-10.8,14.3-24.9,25.5-41.8,31.6-14.4,5.5-27.8,13.7-43,17.4,0,0-3.2,.9-3.2,.9l-3.3,.7c-17.3,3.8-35.5,3.6-52.7-.6-1.2-.4-6.9-1.8-8-2.2-1-.3-3.7-1.3-4.7-1.6-10.4-3.6-20.2-9.1-29.4-15.2-20.7-14.6-38.5-34-49.4-57-11.6-25.1-14.5-54.1-8.7-81.1,7.2-34.9,30.2-65.3,60.3-84.1,52.2-34.2,127.2-28.6,172.1,15.4,25.9,24.5,38.8,60.5,38.4,95.8h0Zm-.1,0c.2-35.2-12.8-71-38.7-95.3-44.9-43.2-119.3-49-171.2-15-29.8,18.7-52.8,48.8-60.1,83.5-5.8,26.9-3,55.8,8.5,80.8,10.8,23,28.7,42.3,49.3,56.8,9.1,6.1,18.9,11.5,29.3,15.1,1,.4,3.7,1.3,4.7,1.6,1,.4,6.8,1.8,8,2.2,1.8,.5,4.6,1,6.5,1.3,13,2.5,26.4,2.3,39.4,.4,3.1-.5,6.6-1.3,9.7-1.9,0,0,3.2-.9,3.2-.9,12.9-3.2,24.6-9.6,36.8-14.8,4-1.7,8.2-3.2,12.3-5,8.1-3.5,15.5-8.3,22.1-14.2,26.7-24.3,40.4-58.6,40.4-94.5h0Z"/><path d="M668.6,460.7c-.7-68.7-53.9-120.3-122.6-118.7-47.6,.6-94.7,30.2-112.7,74.9-25.3,61.9,8.3,132.6,69.5,157,22.1,8.9,46.9,10.7,70.1,5.6,7.7-1.8,15.5-3.6,23.1-5.9,7.6-2.3,15-5.5,21.4-10.1,6.3-4.8,12.3-10,17.8-15.8,22.4-23.1,33.3-55,33.3-87h0Zm.1,0c-.1,33-10.2,63.1-33,87.4-21.2,22.4-33.2,25.7-62.5,32.4-56.5,12.9-114.8-18-138.3-70.5-31.9-72.4,11.4-149.3,87.3-166,77.1-16.2,145.9,37.5,146.4,116.7h0Z"/></g></g></g></g></svg>