<?xml version="1.0" encoding="UTF-8"?><svg id="Layer_1" xmlns="http://www.w3.org/2000/svg" viewBox="0 0 1024 1024"><defs><style>.cls-1{fill:#ebebec;}.cls-2{fill:#fff;}.cls-3{fill:#ee8d24;}</style></defs><polygon class="cls-1" points="31.2 9.6 99.6 1014.4 925.5 1014.4 992.8 9.6 31.2 9.6"/><g id="_72o77L"><g><g><path d="M707.5,528.5c4.4-.5,8.9,0,14.3,0,0-12.8,0-24.8,0-36.8,0-10.5,2.6-22.3-1.2-31.3-3.7-9-13.9-15.4-21.3-23-1.9-2-3.9-3.9-5.9-5.9-5.3-5.1-9.6-9.5-18.7-9.7-18.7-.5-37.3-22.5-37.6-41.1-.2-14.9,13.2-25.5,27-20,9.4,3.7,18.6,9.1,26.4,15.5,9.6,7.8,12.8,18.7,9.2,31.3-.6,2.2,.4,5.8,2,7.5,10.2,10.7,20.7,21.3,31.4,31.5,4.6,4.4,6.3,9.1,6.2,15.3-.3,21.8-.1,43.7-.1,66.6,7.4,0,14.4,0,21.3,0,10.5,0,18.2,7.9,15.2,17.9-4.7,15.8-11.2,31-17.5,46.3-.9,2.1-4.7,3.4-7.4,4.1-3.6,.9-7.4,.9-12.1,1.4,0,9.7-.3,19.2,0,28.7,.4,9.7-2.3,17.8-9.9,24.1-1.9,1.6-3.3,3.9-5.4,5.3-13.1,8.9-15.5,21.4-14.5,36.5,2.2,32.8,2.9,65.8,4,98.7,.2,7-.2,14.1-.6,21.1-.8,12.9-7.5,22.5-18.9,27.9-11.9,5.7-24.4,9.9-38.2,9.8-73.6-.2-147.3,0-220.9,.2-12.6,0-25.1,.9-37.7,.3-8.4-.4-17.1-1.4-25-4-21.7-6.9-30.7-19.9-30.7-42.6,0-43.2,.2-86.5,.7-129.7,0-6-1-10.9-5.9-14.4-17-12.1-23.5-28.3-19.9-48.8,.5-3.1,0-6.4,0-10.4-5.2,0-9.6,0-14.1,0-5.4-.1-9.1-2.7-10.3-8.1-3.8-17.9-7.6-35.8-11.1-53.7-1.3-6.7,2.4-10.3,10.2-10.4,20.9-.1,41.7,.1,62.6-.2l354.2,.3Zm.4,69.5c-125.1,.8-249.4,1.6-373.7,2.3-.3,2.1-.5,3-.5,4-1,27.7-1.2,27.9,18.7,47.5,5,5,7.2,10.1,7.1,17.2-.7,44.5-1.1,89-1.3,133.5-.1,19.4,11.6,30.9,31,30.9,34.9,0,69.9,0,104.8-.1,54.5-.2,109.1-.5,163.6-.8,20.8-.1,31.6-11.1,31-31.9-1.3-43.7-2.6-87.4-4.4-131.1-.3-8,1.6-14,7.5-19.4,5.2-4.7,10-10,14.5-15.4,1.7-2.1,3.1-5.2,3.1-7.9,0-9.3-.7-18.5-1.2-28.8Zm46-52.2H299.9c2.4,12.7,4.8,24.8,7.2,37.4,3.6,0,6.6,0,9.6,0,78.1-.5,156.2-.9,234.3-1.5,59.8-.4,119.6-.8,179.3-1.4,2.8,0,7-1.2,8.1-3.2,5.4-9.8,10-20,15.5-31.3Z"/><g><path d="M707.5,528.4c4.7-.5,9.5,0,14.3-.1,0,0-.1,.1-.1,.1,0-9.2-.1-31.5,0-40.5,.3-8.9,2.1-18.1-1-26.7-3.3-8.5-11.1-14-17.6-19.9-2.9-2.6-6.8-6.6-9.7-9.4-6.5-6.4-10.9-9.8-20.4-9.8-1-.1-2.4-.3-3.4-.5-13.4-3.2-23.9-14.1-29.6-26.3-3.5-7.7-5-17.1-1.3-25,2.3-4.7,6.3-8.7,11.2-10.4,4.4-1.7,9.3-1.6,13.7,0,10.7,4,20.6,9.8,29.2,17.3,8.1,7.2,11,18.2,8.4,28.6,0,0-.4,1.7-.4,1.7-.7,2.3,.1,5.2,1.6,7,10,10.5,20.5,21,31,31,4.5,3.9,7.2,9.7,7.1,15.6,0,0,0,13.5,0,13.5v54c-.1,0-1.2-1-1.2-1,0,0,14.9,0,14.9,0s3.7,0,3.7,0c1.3,0,2.5,0,3.8,0,5.2,.3,10.6,2.6,13.5,7.1,4.8,7.1,.4,15.1-1.8,22.3-4.1,11.7-9,23.3-13.8,34.7,0,0-.4,.9-.4,.9s-.2,.4-.2,.4c-.4,.9-1.1,1.6-1.8,2.1-5.5,3.5-12.2,3.3-18.4,3.9,0,0,.7-.8,.7-.8,0,8.9-.3,17.8,0,26.6,.7,8.9-1.5,18.7-8.4,24.9-.8,.8-1.7,1.5-2.5,2.2-1.6,1.5-2.9,3.4-4.8,4.7-4.5,3.1-8.5,7.1-10.8,12-4,7.9-4,17.1-3.4,25.9,1.7,25.7,2.4,54.1,3.2,80,0,7.3,.9,19.4,.5,26.7-.4,11.5-.4,22.5-8.8,31.6-4.6,5.1-10.8,8.1-16.9,10.6-8.2,3.5-16.9,6.1-25.8,6.9-72.1,1-168.4,.4-240,1.2-17.8,.4-36.1,1.4-53.2-4.8-8.5-3-16.8-8-21.8-15.7-5.1-7.6-6.8-17-6.9-26,0-9.2,.4-113.8,.5-120,0,0,0-6.7,0-6.7,0-4.2,.4-8.7-1.4-12.6-.8-1.8-2.2-3.4-3.8-4.6-3.6-2.6-7.1-5.6-10.1-9-9.4-10.2-12.9-24.7-10.9-38.2,0,0,.5-3.3,.5-3.3,.4-3.2,0-6.5,0-9.8,0,0,1.3,1.3,1.3,1.3,0,0-8.1,0-8.1,0,0,0-4,0-4,0,0,0-2,0-2,0-2.2,0-4.4-.5-6.4-1.7-2.7-1.5-4.4-4.4-5-7.3,0,0-.8-4-.8-4,0,0-6.5-31.7-6.5-31.7,0,0-3.3-15.8-3.3-15.8-1.8-6.6-.6-12.4,7.1-13.9,2.2-.5,6-.3,8.3-.4,128-.4,283.7,1.1,412.3,1.2h0Zm0,.2c-128.8,.1-284.1,.5-412.3,1-7.6,0-16.3-.4-13,11.3,0,0,3.3,15.8,3.3,15.8,0,0,6.5,31.7,6.5,31.7,.5,2.2,.9,5.4,2.1,7.3,2,3.3,6.1,3.9,9.7,3.7,0,0,4,0,4,0,1.5,0,8.2,0,9.3,0-.1,3.8,.5,7.6,0,11.4,0,0-.5,3.3-.5,3.3-1.9,12.9,1.3,26.5,10.3,36.2,2.9,3.3,6.2,6.1,9.7,8.7,1.9,1.4,3.6,3.3,4.6,5.6,2,4.4,1.6,9.1,1.6,13.7,0,0,0,6.7,0,6.7-.2,6.6-.6,110.9-.7,120,0,8.6,1.6,17.6,6.4,24.8,4.8,7.3,12.6,12,20.7,14.9,16.7,6.1,34.9,5.2,52.4,4.9,71.5-.8,168.1,.8,240-.2,8.8-.8,17.4-3.3,25.6-6.8,10.7-4.2,19.6-10.3,23.2-21.7,1.4-4.2,1.6-8.6,1.8-13.1,.8-10.2,.1-22.9-.2-33.3-.9-26-1.7-54.2-3.4-79.9-.3-4.4-.5-8.9-.1-13.4,.7-10.5,5.8-19.7,14.6-25.6,1.8-1.2,3.1-3.1,4.7-4.6,4.3-3.5,7.7-7.9,9.2-13.2,1.3-4.2,1.4-8.6,1.1-13-.3-9.2,0-18.3,0-27.4,0,0,.7,0,.7,0,6.1-.7,12.4-.4,17.6-3.7,1.1-.6,1.3-1.6,1.7-2.7,4.6-11.4,9.6-23,13.5-34.7,1.9-6.6,6.3-14.1,2-20.5-2.6-3.9-7.4-5.9-12-6.2-1.2,0-2.4,0-3.7,0,0,0-3.7,0-3.7,0,0,0-14.9,0-14.9,0h-1s0-1,0-1c0,0,0-54,0-54,0,0,0-13.5,0-13.5,0-5.5-2.3-10.6-6.4-14.1-10.5-10-20.9-20.6-31-31.1-2-2.5-2.9-5.7-2-8.8,0,0,.4-1.6,.4-1.6,2.5-9.7-.2-20.1-7.7-26.9-8.4-7.3-18.2-13.1-28.5-17.1-4-1.5-8.6-1.6-12.7,0-4.6,1.6-8.3,5.3-10.5,9.7-3.7,7.6-2.2,16.5,1.1,24,5.5,11.9,15.7,22.8,28.7,26,1.2,.2,2.1,.4,3.3,.5,9.5,0,14.2,3.6,20.7,10.1,2.9,2.8,6.7,6.9,9.6,9.5,3.3,3,6.8,5.9,10,9.1,7.4,7,9.8,14.4,9.4,24.5-.2,6.8-1,13.5-.8,20.2-.1,4.1,0,29,0,33.7,0,0,0,.1,0,.1-4.8,0-9.6-.5-14.4,0h0Z"/><path d="M707.8,598c-86,1.1-194.7,2.2-280.4,2.7-31.1,.2-62.1,.1-93.2,.2,0,0,.6-.5,.6-.5,0,0-.4,3.1-.4,3.1-.2,1.7-.3,7.3-.4,9.2-.1,6.1-.5,12.4,1.6,18.2,2.3,5.7,6.7,10.2,10.9,14.6,4.2,4.4,9.6,8.5,11.8,14.3,1.6,3.9,1.6,8.2,1.5,12.3,0,3.9-.2,14.5-.2,18.5-.2,30.5-.7,80.8-.8,111.3-.3,12.4,5.2,24.5,17.6,28.7,7.7,2.8,16.1,1.8,24.2,1.9,72.5-.3,149.9-.8,222.6-1.1,3.9-.1,27.3,0,30.9-.1,6,0,12.3-.3,17.8-2.5,12.4-4.7,16-17.1,15.4-29.3-.3-4.6-3-103.9-3.3-111.2,0,0-.3-12.4-.3-12.4,0-3.6-.5-8.9,.1-12.5,.6-4.2,2.4-8.2,5.2-11.4,2.7-3,6.1-5.7,8.8-8.7,2.8-3,5.6-6,8.2-9.2,1.8-2.4,3-5.3,2.8-8.4,0-9.1-.7-18.6-1-27.7h0Zm.2-.2c.5,7.4,1.2,17.5,1.4,24.8,0,1.9,.2,4.4-.1,6.2-.5,2.1-1.4,4-2.6,5.7-3.9,4.8-8,9.4-12.5,13.8-7,5.9-9.9,12.1-9.3,21.2,.2,3.9,.5,14.5,.7,18.5,.1,7.8,4,106,4.1,111.2,.1,4.2,0,8.4-.9,12.6-1.6,8.5-7.7,16.1-15.8,19.1-6,2.4-12.4,2.7-18.7,2.7-3.5,0-26.8,.2-30.9,.2-77,.4-158.1,.7-235,.3-8.4,0-17.2-2.7-23-9-9.4-10-7.8-23.2-7.6-35.7,.4-24.7,.9-74.3,1.2-98.9,0-4,.1-14.6,.2-18.5,.6-9.4-1.7-15.4-8.8-21.7-7-7.2-16.1-14.6-17.1-25.3-.5-4.1-.5-8.3-.4-12.4,.1-3.4,0-9,.7-12.4,0,0,0-.5,0-.5,0-.3,94-.8,94.2-1,85.5-.7,194.3-.8,280.2-.8h0Z"/><path d="M753.8,545.8c-148.5,.8-308,1.4-453.4-.2,0,0,7.4,37.3,7.4,37.3,0,0-.7-.6-.7-.6,66.5-.7,167.9-1.6,233.6-1.9,38.6-.2,137.9-.7,175.2-.7,0,0,14.6,0,14.6,0,2.3,0,4.8-.6,6.6-1.9,.5-.3,.8-.7,1.1-1.2,0,0,.9-1.6,.9-1.6,5.2-9.4,9.8-19.7,14.8-29.2h0Zm.2-.1c-4,8.8-8.2,17.9-12.6,26.5-.6,1.1-1.9,3.8-2.5,4.9-.9,1.8-3,2.6-4.7,3.1-1.9,1-15.9,.7-18.3,.8-75.8,1.1-157.8,2-233.6,2.4-54.4,.2-121.6,.6-175.8,.5,0,0-.1-.6-.1-.6,0,0-7-37.4-7-37.4,0,0-.1-.6-.1-.6,149.3,.3,305.1-.9,454.8,.5h0Z"/></g></g><path class="cls-2" d="M707.9,597.9c.5,10.3,1.2,19.6,1.2,28.8,0,2.7-1.4,5.8-3.1,7.9-4.5,5.4-9.3,10.6-14.5,15.4-5.9,5.4-7.8,11.4-7.5,19.4,1.8,43.7,3.1,87.4,4.4,131.1,.6,20.8-10.1,31.8-31,31.9-54.5,.3-109.1,.6-163.6,.8-34.9,.1-69.9,.1-104.8,.1-19.4,0-31.1-11.5-31-30.9,.3-44.5,.7-89,1.3-133.5,.1-7.1-2.1-12.2-7.1-17.2-19.8-19.6-19.7-19.8-18.7-47.5,0-1,.2-2,.5-4,124.3-.8,248.6-1.6,373.7-2.3Zm-262.6,134.3c0-24.1,0-48.2,0-72.4,0-6.1-1.2-11.3-8.4-11.9-5.9-.5-9.1,3.8-9.1,12,0,47.7,0,95.5,0,143.2,0,6,1.3,11.3,8.5,11.9,5.8,.5,9-3.9,9-12,0-23.6,0-47.2,0-70.9Zm184.2-3.6c0-24.3,0-48.7,0-73,0-5.5-1.7-9.4-7.4-10.5-5.7-1.1-9.6,3.5-9.6,11.2,0,47.9,0,95.8,0,143.7,0,6.2,1.5,11.6,8.5,11.7,7,0,8.6-5.3,8.6-11.6-.2-23.8,0-47.7,0-71.5Z"/><path class="cls-2" d="M753.9,545.7c-5.5,11.3-10.1,21.5-15.5,31.3-1.1,2-5.3,3.2-8.1,3.2-59.8,.6-119.5,1-179.3,1.4-78.1,.5-156.2,1-234.3,1.5-3,0-6,0-9.6,0-2.4-12.5-4.8-24.7-7.2-37.4h454.1Z"/><g><path d="M445.2,732.2c0,23.6,0,47.2,0,70.9,0,8.1-3.3,12.5-9,12-7.2-.7-8.5-5.9-8.5-11.9,0-47.7,0-95.5,0-143.2,0-8.2,3.3-12.5,9.1-12,7.2,.6,8.4,5.8,8.4,11.9,0,24.1,0,48.2,0,72.4Z"/><path d="M445.4,732.2c0,22.1,.9,44.3,.9,66.4,0,5.6,.6,12.6-4.6,16.2-3.6,2.2-8.4,1.5-11.6-1.2-4.4-4.2-3-11.1-3.1-16.5,.8-36.8-.3-73.8-.4-110.7,0,0-.1-22.1-.1-22.1,0-3.8-.3-7.7,1-11.4,1.3-4.2,5.4-7,9.9-6.3,7.6,.7,9.4,7,9.1,13.6-.2,24-1.1,48-1.1,71.9h0Zm-.2,0c0-24-.9-48-1.1-71.9,0-3.3-.1-7.1-2.6-9.3-2.2-1.8-6.4-2.4-8.9-.8-1.3,.8-2.1,2.2-2.7,3.7-1.2,3.3-.8,7-.9,10.5-.1,21.5-.2,45-.6,66.4-.3,18.3-.4,37-.2,55.3,0,0,.2,11.1,.2,11.1,.3,6.3-1.2,16.2,7.5,16.8,8.6,1,8.4-9.4,8.3-15.4,0-22.1,1-44.3,1-66.4h0Z"/></g><g><path d="M629.4,728.6c0,23.8,0,47.7,0,71.5,0,6.3-1.6,11.6-8.6,11.6-7,0-8.6-5.4-8.5-11.7,0-47.9,0-95.8,0-143.7,0-7.8,4-12.3,9.6-11.2,5.6,1.1,7.4,5.1,7.4,10.5-.1,24.3,0,48.7,0,73Z"/><path d="M629.6,728.6c0,22,.9,44.1,1,66.1-.1,5.4,1,12.7-3.9,16.4-3.5,2.2-8.3,2.2-11.6-.4-1.7-1.4-2.5-3.3-2.9-5.2-.8-3.2-.4-7.9-.4-11.2,0,0,.2-11,.2-11,.2-18.3,.1-36.9-.1-55.1-.4-21.2-.5-44.8-.6-66.1,0-3.3-.3-8.1,.7-11.3,1-4,4.9-7.7,9.3-7.1,4.2,.3,8.2,3.3,9,7.5,.8,3.3,.3,7.9,.4,11.3-.2,22-1.1,44.1-1.1,66.1h0Zm-.2,0c0-23.9-.9-47.8-1-71.7,.2-4-.5-8.9-4.9-10.2-6.8-2.5-9.9,4-9.6,9.8,0,38.4-1.1,77.4-.9,115.7,0,7.9,.2,19.7,.3,27.6,0,3.3,.4,7.3,3.1,9.4,3.1,2.2,8.7,1.9,10.7-1.6,2.1-3.5,1.3-9,1.5-13,0-22,1-44.1,.9-66.1h0Z"/></g></g></g><g id="Y5ZVNg"><g><path class="cls-3" d="M420.8,511.8c-2.5-50.3,37.2-111.1,82.9-126.8,11.4,15.8,22.8,31.9,34.4,47.7,8.1,11.1,21.1,14.2,32,7.5,3.5-2.2,6.5-5.5,9-8.9,9.8-13.2,19.2-26.5,28.8-39.8,1.4-1.9,2.8-3.7,4.2-5.4,45.1,17.8,81,70.7,80.3,125.4-90.3,9.2-180.7,11.9-271.5,.3Z"/><path class="cls-3" d="M487.9,284c0-34.7,28.4-64.2,61.9-64.5,27.9-.2,59.3,32,59.3,60.8,0,34.9-28.2,64.5-61.7,64.4-34.7,0-59.6-25.5-59.5-60.8Z"/><g><path d="M527.8,433.9c7-9.5,13.7-18.6,20.4-27.7,3.4-4.6,6.6-9.3,10.1-13.8,10.7-13.8,24.5-17.3,40.1-9.4,52.5,26.8,80.5,70.3,86.5,128.5,1,9.8,2.5,19.8-3.7,28.9-2.8,4.1-5.4,7.4-10.8,8.1-53.6,6.4-107.3,10.6-161.3,9.7-43-.7-85.8-4.4-128.3-11.1-8.8-1.4-11.1-4-11.3-13.2-.7-38.9,13.5-72.8,35.5-103.9,12.9-18.1,27.7-34.6,47.4-45.5,7.1-3.9,15.4-5.7,23.4-7.9,6.9-1.9,11.7,1.6,15.6,7.1,10.9,15.3,21.9,30.5,32.9,45.7,1,1.3,2,2.6,3.6,4.6Zm-130.5,89c90.8,11.6,181.2,8.9,271.5-.3,.7-54.8-35.2-107.7-80.3-125.4-1.3,1.7-2.8,3.5-4.2,5.4-9.6,13.3-19.1,26.7-28.8,39.8-2.5,3.4-5.5,6.7-9,8.9-10.8,6.7-23.9,3.6-32-7.5-11.6-15.9-23-31.9-34.4-47.7-45.6,15.8-85.4,76.5-82.9,126.8Z"/><g><path d="M527.8,433.8c5.6-7.8,19.1-26.5,24.4-34.1,8.1-12.3,17.9-23.4,34.2-21.4,4.8,.5,9.3,2.3,13.5,4.5,6.2,3.3,12.3,6.8,18.2,10.7,3.4,2.4,8.2,5.7,11.3,8.4,3.2,2.5,7.6,6.5,10.6,9.3,1.6,1.3,3.5,3.6,4.9,5,3.3,3.3,6.2,7.1,9.2,10.7,8.5,11.2,15.6,23.6,20.5,36.9,0,0,2.5,6.6,2.5,6.6,.6,2.2,2.5,8,3,10.1,1.3,5.4,2.8,11.7,3.6,17.2,.8,4,1.3,9.8,1.9,13.9,1.5,12.5,1.9,23.7-7.4,33.5-1.7,1.8-3.8,3.1-6.2,3.7-2,.4-5,.7-7,.9-27.9,3.1-55.8,5.7-83.8,7.4-68.8,3.9-138.5,2.4-206.4-10.1-6.9-2.3-6.9-10.2-6.8-16.2-.3-38,15.6-74.2,37.9-104.3,8.3-11.3,17.7-22.1,28.6-31,7.4-5.8,15.2-11.5,24-14.8,4.4-1.6,9-2.8,13.5-4,0,0,3.4-.9,3.4-.9,3.6-1,7.6-.5,10.6,1.6,3.6,2.2,6.7,7.5,9.2,10.8,9.5,13.2,22.9,32.7,32.4,45.6h0Zm0,.2c-10-12.5-23.7-32.1-33.4-45.1-4.6-6.4-9.4-14.4-18.4-11.7,0,0-3.4,.9-3.4,.9-6.7,1.9-13.5,3.6-19.6,6.9-10.1,5.7-19.3,13-27.3,21.3-24.9,26.7-45.4,60.5-52.4,96.7-1.7,9.1-2.6,18.4-2.6,27.6,0,4.1-.4,9.4,2.5,12.4,3.3,2.7,8.4,2.8,12.6,3.6,46.1,7.1,92.8,10.9,139.4,11,49,0,98-3.6,146.6-10,6.2-1.5,10.7-9.6,12.2-15.3,2.2-8.8,.1-18.6-.9-27.6-.4-3.9-1.6-9.8-2.4-13.7-.7-3.3-1.7-6.9-2.5-10.2-.7-2.1-2.3-7.8-3-10,0,0-2.4-6.5-2.4-6.5-.7-1.8-1.8-4.6-2.7-6.4-1.8-4.3-4.8-9.9-7-14-1.3-2.1-3.3-5.3-4.6-7.4-1.2-1.9-4.7-6.6-6-8.5-3-3.5-5.8-7.3-9-10.6-1.4-1.5-3.3-3.6-4.8-5-1.8-1.7-5.8-5.5-7.7-7-2.7-2.1-5.4-4.6-8.2-6.5-7.4-5.5-15.5-10.4-23.6-14.7-7.9-4.5-17.7-6.5-26.2-2.8-8.8,3.4-14.4,11.4-19.7,18.8-5.4,7.5-19.5,26-25.3,33.7h0Z"/><path d="M397.4,522.8c61.6,7,124.7,8.1,186.6,5.2,28.1-1.3,56.8-3.1,84.8-5.9,0,0-.4,.4-.4,.4,.6-52-31.5-104.8-80.2-124.5,0,0,1.1-.3,1.1-.3-7.1,9.3-17,23.6-24,33.2-2.1,2.9-7,9.7-9,12.5-5.1,7.3-13.1,13-22.3,12.7-8.2-.2-15.7-4.9-20.4-11.4,0,0-1.5-2.1-1.5-2.1-6.2-8.7-26.4-36.7-32.9-45.7,0,0,1.4,.4,1.4,.4-47.2,17.1-84.4,75.8-83.2,125.6h0Zm-.2,.2c-2.8-50.3,34.8-110.7,82.5-128.1,0,0,.9-.3,.9-.3s.5,.7,.5,.7c6.7,9.3,26.7,36.9,33,45.7,4.5,6.9,11.4,12.3,19.9,12.5,8.4,.3,15.7-5,20.4-11.6,2-2.7,7-9.6,9-12.4,7.1-9.6,17-23.7,24.3-33,0,0,.5-.6,.5-.6s.7,.3,.7,.3c36.9,15.2,63.5,49.7,74.8,87.4,3.7,12.6,5.7,25.8,5.6,39,0,0,0,.4,0,.4,0,0-.4,0-.4,0-90,9.9-181.8,12.8-271.7,0h0Z"/></g></g><g><path d="M611,290.8c-.4,36.2-23.2,65.5-58,77.6-36.6,12.8-69.3-1.7-86.5-22.5-27.9-33.8-22.4-83.9,12.1-111,15.2-11.9,32.5-19.7,51.9-21.3,28.3-2.4,48.4,12.2,64.8,33.1,10.1,12.8,16.2,27.3,15.7,44Zm-137.3,3c0,35.3,24.8,60.7,59.5,60.8,33.5,0,61.8-29.5,61.7-64.4,0-28.9-31.4-61-59.3-60.8-33.6,.3-61.9,29.8-61.9,64.5Z"/><g><path d="M611.1,290.8c-.3,21.3-8.3,41.9-23.4,57.1-.7,.8-2,2-2.9,2.7-2.2,2.2-5.2,4.5-7.6,6.4-3.7,2.6-7.8,5.2-11.9,7.3-41.1,21.7-91.6,6.4-110.6-36.7-15.7-35.4-3.2-77,29.3-98.1,21.5-14.9,50.5-22.8,75.7-12.9,9.9,4,18.6,10.5,26,18.1,14.7,15.1,26.3,34.2,25.4,56h0Zm-.2,0c.9-21.4-11.2-40.6-26.3-54.9-7.5-7.2-16.1-13.4-25.7-17.1-19.5-7.5-41.6-3.9-60.1,4.9-29.4,13.9-49.2,39.9-49.5,73.1-.2,23.5,11.1,47,30.2,60.8,16.8,12.5,38.7,17,59.2,13.4,21.6-4.1,42.2-15.5,55.8-32.9,.7-1,2.7-3.8,3.4-4.8,1.6-2.6,3.6-5.7,4.8-8.5,5.3-10.5,7.9-22.3,8.1-34.1h0Z"/><path d="M473.8,293.8c-.3,24.5,13.9,47.4,37.3,55.7,40.7,15.5,82.8-14.9,83.1-58,0-23.4-18.2-45.7-38.5-55.9-14.2-7.5-31.2-6-45.3,.9-21.6,10.3-36.8,33.2-36.7,57.3h0Zm-.2,0c-.1-24.2,14-48.4,35.9-59.3,14.7-7.5,32.6-9,47.4-1.1,21,10.8,39.3,33.8,38.7,58.2-1.5,42.9-43.6,75.9-85.2,59.9-23.9-8.8-37.1-33.1-36.8-57.7h0Z"/></g></g></g></g></svg>