<?xml version="1.0" encoding="UTF-8"?><svg id="Layer_1" xmlns="http://www.w3.org/2000/svg" viewBox="0 0 1024 1024"><defs><style>.cls-1{fill:#ebebec;}.cls-2{fill:#fff;}.cls-3{fill:#b6cc3b;}</style></defs><polygon class="cls-1" points="10.9 90.6 974.4 -.2 1013.1 994.5 115.1 1024.2 10.9 90.6"/><g id="q9BYKB"><path class="cls-3" d="M281.8,656.9c9.8-43.1,51.4-74,94.6-71.1,2.7,.2,5.7,1.5,7.9,3.1,18.5,13.2,36.8,12.9,54.8-.2,3.6-2.6,9.4-4.2,13.7-3.5,24.8,4.1,46.5,14.9,64.8,32.2,9.5,8.9,15.9,19.7,17.5,33,.7,5.6,0,8.4-6.8,9-38.5,3.9-75,14.9-109.7,32.2-3.6,1.8-9.4,2.5-12.9,1-37.1-16.6-75.5-28.4-115.9-33.8-2.6-.3-5.1-1.2-8.1-1.9Zm124.2-9.9c.2,3.8,.3,5.8,.4,7.8,.3,9,3.6,11.1,11.8,7.4,3.2-1.4,6.3-3.4,9.1-5.4,6.2-4.4,12.2-8.9,16.6-12.1,3.8,4.4,6.4,9.9,10.2,11,7.2,2.1,18.5-8.9,19.7-18.3-4.1,.9-8,1.7-11.8,2.6-3.1-13.6-8.9-16.5-21.5-10.1-6,3.1-11.4,7.2-17.6,11.2-4.7-10.1-13.5-10.9-23-8.3-7.1,1.9-13.9,4.7-20.9,7.2-3.1,1.1-6.2,2.3-11.1,4.2,5.1-10.3,9.9-18.2,13-26.8,1.5-4.1,0-9.2-.1-13.9-5.2,.9-11.7,.2-15.2,3.1-12.9,10.8-20.1,25.4-22.8,41.9-2.2,13.5,5.1,20.2,18.7,17.6,3.4-.6,6.6-2.4,9.8-3.8,11.3-4.9,22.5-9.9,34.7-15.3Z"/><path class="cls-3" d="M710,542.2h56.4c14.2,70.7,14.1,141.3,0,212.4h-56.4c-8.1-70.6-8-141,0-212.4Zm10.6,120.1c2.3,9.6,3.8,19.3,7.2,28.2,1.3,3.4,6.9,7.1,10.5,7.1,3.6,0,9-3.7,10.5-7.2,8-18.4,8-37.3,0-55.7-1.5-3.4-7-7-10.6-7-3.6,0-9.1,3.8-10.4,7.2-3.3,8.6-4.8,18-7.1,27.5Zm14.2-79.8c-8.7,0-16.3,7.2-16.4,15.4-.1,7.9,6.2,14.7,13.6,14.6,8.6,0,17-8.1,17-16.2,0-7.8-6.4-13.9-14.2-13.8Z"/><path class="cls-3" d="M893.9,754.6h-41.6v-183.6h41.6v183.6Zm-30.3-110.7c1.1,6.1,1.1,10.2,2.7,13.4,1.7,3.3,5.1,5.8,7.7,8.7,2.6-2.9,7.4-5.7,7.5-8.7,.5-11.6-.3-23.2-1.1-34.8,0-1.5-2.5-4.2-3.6-4.1-2,.2-4.7,1.8-5.4,3.5-3.2,7.8-5.7,15.8-7.9,22.1Z"/><path class="cls-3" d="M822.9,754.6h-27.3v-155.2h27.3v155.2Z"/><path class="cls-3" d="M765.9,513.5h-55.4v-27.9h55.4v27.9Z"/><path class="cls-3" d="M894.1,548h-41.6v-19.9h41.6v19.9Z"/><path class="cls-3" d="M823.1,575.4h-27.4v-18.8h27.4v18.8Z"/><g><g><path d="M903.1,854.6c-36.7-1.2-75.4,0-112.5,0H187.1c-33.3-1.3-83.1,3.4-93.1-38.6-6.1-25.5,13.8-51,40-51.3,23.6-.3,47.3,0,71.6,0v-30.4c-12.1-1.3-22.4-7.1-25.6-19.9-8.8-34.4,2.8-51.5,37.6-54.2,10.6-.8,21.3,0,31.9-.8,3-.2,7.2-2.8,8.3-5.4,19.3-45.4,52.5-74.1,100.7-85.2,1.1-.3,2.2-.9,3.2-1.3,2.9-7.9-.6-12.1-7.4-16.1-22.8-13.2-37.3-33.1-44.9-58.2-.6-2-1.2-3.9-1.9-6.4-17.5,2.2-28.2-6.7-33.8-22-6-16.5-6.5-32.7,7.5-45.9,3.9-3.7,3.4-6.6,2.2-10.8-6.2-22.5-9.3-45.2-4.2-68.3,5.2-23.4,22.6-35,46.5-32.2,4.7,.5,10-.4,14.4-2.2,30.4-12.1,61.3-21.4,94.7-18.6,49.3,4.1,84.5,35.6,94.3,84.2,4.1,20.2,4.6,40.5,.6,60.8-.9,4.8-.7,8.5,3.9,12.2,10.6,8.5,12.8,20,6.8,32.7-7.6,16.2-20.8,26-37.3,32-3.9,1.4-7.6,4-10.6,6.8-12.8,11.8-24.7,24.5-38.1,35.6-5.6,4.7-8,8.7-6.4,15.3,39.2,10.9,68.9,35.3,93.6,66.5,3.8,4.8,7.6,10.4,9,16.1,2.3,9.7,8.1,10.9,16.6,10.9,12.4,0,24.9,.1,37.1,2.3,26.9,4.7,39.4,39.3,21.7,60.4-4.9,5.9-13.3,8.9-21.6,14.2v27.9c11.4,0,23.1,0,34.8,0s23,0,35.7,0c0-4,0-7.4,0-10.8,0-89.4,0-178.8,0-268.1,0-13.2,3.2-17.9,16.5-19.1,14.4-1.3,28.9-1.1,43.3-1.1,11.8,0,23.6,1,35.5,.9,12.2-.1,17.1,3,18.1,15.2,1,12,.2,24.2,.2,36.3,0,6.1,0,12.3,0,18.9h25.7c1.6-6.9,1.1-15.4,5.1-19.5,4.7-5,13.1-7.6,20.3-8.7,8.9-1.5,18.2-.6,27.4-.4,10.3,.2,20.8,1.8,31,.6,9.7-1.1,13.4,3.6,14.5,11.2,2.3,16.6,5.3,33.4,5.3,50.1,0,55-1.2,110.1-2,165.1,0,4.7-.2,9.5-.4,14.2-.4,9.9,.9,17.5,11.4,23.9,15,9.2,20.5,24.8,16.7,42.5-4.2,19.3-19.2,27.9-33.8,39-2.2,0-4.4-.2-6.6-.3Zm-763.1-58.4c-.5-1.1-1.1-2.3-1.6-3.4-3.4,2.7-6.8,5.5-10.2,8.2,2.6,3.1,4.6,7.2,7.9,9.2,3.9,2.4,8.8,3.5,13.4,4.3,16.3,2.5,32.7,6.2,49.1,6.7,71.8,2.2,143.7,5.3,215.5,4.7,147.3-1.4,294.6-5.1,441.9-7.6,14.5-.2,28.9,1.4,43.4,1.4,3.3,0,6.6-3.5,9.8-5.3-1.7-3-2.9-6.7-5.3-8.8-2.6-2.1-6.3-3.3-9.8-3.8-18-3-36.1-7.5-54.2-8.2-70.6-2.5-141.3-5.6-212-4.9-134.6,1.3-269.1,5-403.7,7.6-28.1,.5-56.2,0-84.2,0Zm135.4-129.6c3,.7,5.5,1.5,8.1,1.9,40.3,5.4,78.8,17.2,115.9,33.8,3.5,1.6,9.3,.9,12.9-1,34.7-17.3,71.2-28.3,109.7-32.2,6.9-.7,7.5-3.4,6.8-9-1.6-13.3-8-24-17.5-33-18.3-17.3-40-28.1-64.8-32.2-4.3-.7-10.1,.9-13.7,3.5-18,13-36.3,13.3-54.8,.2-2.3-1.6-5.2-2.9-7.9-3.1-43.2-3-84.8,27.9-94.6,71.1Zm58.9-260.1c0,20.8-1.3,41.3,.3,61.6,3.6,46.5,37,73.4,81.7,67.6,38.3-5,66.8-44.6,59-81.2-41.3-4.3-76.4-19.9-102.7-52.8-1.4-1.8-5-3.1-7.2-2.7-10.3,2.1-20.5,5-31.1,7.6Zm-26.8-19.5c17.3-6.3,34-11.3,49.8-18.4,8.9-4,16.2-11.4,24.2-17.3,3.3-2.5,5.8-6.1,9.4-7.7,3.1-1.5,8.3-2.4,10.5-.8,2.1,1.6,3.1,7.4,1.9,10.2-3.5,8.1-8.3,15.7-12.8,23.8,17.3,21.5,38.9,38.9,69.2,45.4-8.3-12.6-20.9-20.9-25-38.1,26.1,10,45.5,26.8,69.9,39.5,.7-14.1,2.4-26.4,1.6-38.6-1.6-25.7-12.4-46.4-37.4-56.4-10.3-4.1-21.5-6.7-32.5-7.7-40.6-3.5-80,4.9-118.9,15.1-4,1-9,7-9.4,11-1.2,13.1-.4,26.3-.4,40.1Zm396.1,164.8c-7.9,71.3-8,141.8,0,212.4h56.4c14.1-71.1,14.1-141.7,0-212.4h-56.4Zm183.9,212.4v-183.6h-41.6v183.6h41.6Zm-71,0v-155.2h-27.3v155.2h27.3Zm-367-.3h126.1c0-8.9-.5-17.2,.1-25.4,.5-6.6-2.4-8.8-8.3-9.7-26.4-4.3-51.7,.4-76.6,8.5-15.6,5.1-30,12.3-41.4,26.6Zm-29-15.4c55.9-36.7,117.1-51.2,183.1-44v-12.9c-2.7-.6-4.9-1.3-7.3-1.6-57.4-7-111.4,3.2-162.4,30.6-11.7,6.3-18.2,13.2-13.4,27.8Zm-213.9-43.9c66.7-7.4,127.6,7.4,183.3,43.9,2.8-18.3,2.7-18.4-11.5-26.5-34.1-19.4-70.8-31-109.8-33.5-20.4-1.3-41.1,.5-61.9,1v15Zm28.8,53.4c-2.5,7.2,2.2,6.6,6.4,6.6,37.6,0,75.1,0,112.7,0,1.8,0,3.6-.6,5.3-.8,.3-.9,.7-1.8,1-2.7-9.8-5.8-19-12.8-29.4-17.1-27.5-11.4-55.9-19.1-86.1-15.4-11.7,1.4-11.7,2.3-9.4,14.8,5.1,0,10.6-.7,15.6,.3,3.3,.6,6,3.8,9,5.8-2.8,2.6-5.3,6.4-8.6,7.4-4.9,1.5-10.5,.9-16.5,1.2Zm524.1-235v-27.9h-55.4v27.9h55.4Zm128.2,28.1v-13.4h-41.6v13.4h41.6Zm-71,28.8v-13.8h-27.4v13.8h27.4ZM292.6,435.1c-5.6,16.5-2.1,26,12.4,36.9,4.5-14.8-5.8-24.4-12.4-36.9Zm99.1,131c1.7,8.9,6.5,13.6,13.7,13.4,7.3-.2,12.1-5.2,12.7-13.8-7.4,0-14.8,0-22.1,0-1.4,0-2.8,.2-4.3,.3Z"/><g><path d="M903,854.7c-208.5-.2-459.2,1.2-668.1,1-16.9-.1-43.9,.3-60.7-.3-15.2-.3-30.7-.5-45.5-4.5-18.8-5-32.2-16.6-36.1-36.4-4.8-23.5,13.1-48,36.9-50.5,4.1-.5,11-.2,15.3-.3,0,0,60.7,0,60.7,0,0,0-.9,.9-.9,.9s0-30.4,0-30.4c0,0,.7,.8,.7,.8-13.4-1.3-24.4-8.9-26.9-22.9-1.4-6.1-2.3-12.3-2.2-18.6,.3-23,17.5-31.8,38.1-33.8,10.9-1.2,21.7-.3,32.6-.9,1.6-.1,3,0,4.4-.6,2.3-.9,4.7-2.4,5.8-4.7,0,0,.5-1.1,.5-1.1s1.9-4.2,1.9-4.2c1.8-4.1,4.2-8.6,6.4-12.4,8.1-14.2,18.5-27.1,30.9-37.7,0,0,1.8-1.5,1.8-1.5,1-.8,3.7-3,4.6-3.6,.5-.4,2.3-1.6,2.9-2,11.4-8.1,24.2-14.3,37.5-18.6,4.2-1.4,9.1-2.7,13.5-3.8,1.5-.3,2.9-.9,4.3-1.6,0,0-.2,.3-.2,.3,.7-2,1.1-4,.9-6-.8-6.6-8.2-9.1-13-12.5-7.1-4.7-13.7-10.3-19.3-16.7-8.5-9.6-14.8-21-19-33-1.4-4-2.6-8.1-3.8-12.1l.4,.3c-12.1,1.7-23.3-2.6-29.8-13.3-2.1-3.2-3.6-6.8-4.9-10.4-2.5-7.2-4.1-14.9-3.3-22.6,.7-7.7,4.3-15,9.7-20.5,2.9-2.8,5.5-5,4.5-9.4-6.5-23.8-10.6-49.2-4.3-73.4,3.6-15,14.3-27,29.8-30,2.1-.4,4.9-.8,7.2-.9,3.8-.3,7.7,.2,11.4,.4,3.7,0,7.5-.6,11-1.9,7.1-2.8,14.2-5.5,21.4-8,39-13.7,85.2-18.6,122.1,3.4,2.4,1.3,4.9,3.2,7.2,4.7,2.1,1.4,5.8,4.6,7.9,6.3,.3,.3,2.6,2.6,3.1,3,4.9,4.6,9,10,12.9,15.4,.8,1.3,3.6,5.9,4.5,7.4,0,0,2.6,5.1,2.6,5.1,0,0,1.3,2.6,1.3,2.6,.6,1.5,2.6,6.4,3.3,8,0,0,1.8,5.5,1.8,5.5,7.2,23.8,8.5,49.4,3.7,73.8-1.3,6.4,1.1,8.8,5.7,12.5,15.7,14.5,6.8,34.7-5.7,47.9-6.7,7-15.2,12-24.1,15.7-1.6,.6-3.7,1.4-5.2,2.1-3.3,1.6-6.2,3.9-9,6.5-11.1,10.4-21.7,21.4-33.2,31.4-5.5,4.8-12.4,9.2-9.9,17.5,0,0-.8-.8-.8-.8,24.1,6.7,46.4,19.3,65.1,35.8,9.3,8.3,18,17.3,25.8,27,3.9,4.8,8,9.7,10.7,15.5,1,2.1,1.7,4.5,2.3,6.7,1,3.4,3.2,6.5,6.7,7.4,5.7,1.5,12.2,.6,18.2,.9,9.3,.2,18.7,.6,28,2.3,9.5,1.7,18,7.7,23.3,15.7,10.1,14.5,9.5,36.1-3.4,48.7-3.5,3.2-7.8,5.5-11.9,7.8-2.7,1.5-5.4,3-8,4.6,0,0,.6-1.1,.6-1.1,0,0,0,27.9,0,27.9,0,0-1.3-1.3-1.3-1.3,0,0,70.5,0,70.5,0,0,0-1.3,1.3-1.3,1.3,.2-32.4,0-251.8,0-278.8,.1-5.1,.1-10.5,3.4-14.8,3.5-4.2,9.1-5.1,14.1-5.6,4.9-.4,9.8-.7,14.7-.8,9.8-.3,19.6-.2,29.4-.2,9.8,0,19.6,.8,29.3,.9,5,.2,10-.3,14.9,1,8.6,2.2,9.8,11.5,10,19.1,.4,7.4,.2,14.7,0,22.1-.2,8.4-.1,20.8-.2,29.3,0,0-1-1-1-1,0,0,25.7,0,25.7,0s-.9,.7-.9,.7c2.5-12,0-19.7,13.7-25.4,14.2-6.1,30-4,45-3.7,7.5,.4,15,1.2,22.5,.8,5.1-.4,10.8-1.3,14.8,2.7,3.8,3.8,3.7,9.6,4.5,14.5,2.6,17.4,5,35,4.4,52.6,0,35-1.1,85.1-1.7,120.5-.4,10-.4,35.4-.8,45.2,0,5-.6,10.1,.4,15,.8,4.9,3.8,9.3,7.8,12.3,3,2.2,6.4,4.1,9.1,6.7,4.7,4.2,8.2,9.8,10,15.8,4.2,14.5,.3,31.2-10,42.3-6.8,7.4-15.4,12.9-23.4,19,0,0,0,0,0,0s0,0,0,0c0,0-6.6-.3-6.6-.3h0Zm0-.2s6.6,.2,6.6,.2c3.5-2.8,8.2-6,12-9,7.9-6,15.5-13.2,19.3-22.5,3.7-9.2,4.6-19.8,1.8-29.4-2.2-7.2-6.8-13.5-12.8-18-2-1.5-4.2-2.7-6.2-4.3-4.1-3-7.1-7.5-8-12.5-1-5-.4-10.1-.4-15.1,.1-5,.2-10,.3-15.1,.4-46.7,1.8-104.2,1.6-150.7,.1-10.1-.2-20-1.5-30-.8-7.2-2.1-15.2-3.1-22.4-1.1-7.3-1.3-15.7-10.6-16.4-5-.1-10,.8-15,.5-5-.1-10.1-.5-15.1-.8-14.7-.2-30.4-2.3-44.3,3.7-3.2,1.5-6.6,3.4-8.6,6.3-3.2,5.6-2.4,12.4-4.1,18.7,0,0-.7,0-.7,0,0,0-25.7,0-25.7,0h-1s0-1,0-1c0-8.6,0-20.9,0-29.4,.1-9.7,.5-19.5-.8-29.1-1.7-12.3-12.3-10.7-22.1-10.8-9.8-.1-19.6-.8-29.3-.8-14.7,0-29.3-.2-43.9,1.1-7.6,.7-13.8,2.5-14.9,10.9-1.4,32.7,0,248.5-.4,285.9,0,0,0,1.3,0,1.3,0,0-1.3,0-1.3,0s-70.5,0-70.5,0c0,0-1.3,0-1.3,0,0,0,0-1.3,0-1.3,0,0,0-27.9,0-27.9,0,0,0-.7,0-.7,7.8-5.4,17.3-8.1,23-15.8,9.2-12.1,8.7-29.8,.2-42.2-7.8-11.3-17.7-14.9-30.9-16-6.1-.6-12.3-.9-18.5-1-6.4-.3-12.5,.7-18.9-1.1-4.2-1.2-7.1-4.9-8.3-9-.6-2.2-1.2-4.4-2.1-6.5-2.5-5.5-6.4-10.2-10.3-15-23.1-28.7-53.7-52.3-89.7-62.1,0,0-.6-.2-.6-.2-.6-2.2-.9-4.4-.5-6.7,1-6.2,6.7-9.8,11-13.6,5.7-5,11.2-10.2,16.7-15.5,5.5-5.3,10.9-10.6,16.5-15.8,2.8-2.7,5.9-5.1,9.5-6.8,1.5-.8,3.7-1.5,5.4-2.2,8.7-3.5,16.9-8.4,23.5-15.1,6.3-6.7,11.6-15,13.4-24.1,1.3-7.3-1.2-14.9-6.5-20.1,0,0-1-1-1-1,0,0-1-.9-1-.9-2.3-1.8-4.7-4.1-5.3-7.2-.5-2.1-.2-4.1,0-6,3-14.9,3.6-30.1,2-45.2-1.1-11.3-3.5-22.5-7.3-33.2,0,0-2.1-5.3-2.1-5.3l-1.1-2.6s-1.3-2.5-1.3-2.5c0,0-2.5-5.1-2.5-5.1,0,0-2.9-4.8-2.9-4.8-1.9-3.2-4.3-6.3-6.5-9.3-2.5-2.8-4.8-5.8-7.6-8.4l-2-2s-1-1-1-1c-.3-.3-.7-.6-1.1-.9,0,0-4.4-3.6-4.4-3.6-.7-.6-1.5-1.2-2.3-1.7,0,0-2.3-1.6-2.3-1.6-2.9-2.3-6.6-4-9.7-5.9-3.4-1.6-6.8-3.3-10.4-4.6,0,0-5.3-2-5.3-2-1.8-.5-3.6-1-5.5-1.5-1.4-.4-4-1.1-5.5-1.3-29.9-6.5-60.9-1.1-89.5,8.7-7.2,2.4-14.3,5.1-21.4,7.9-3.6,1.3-7.5,2-11.4,1.9-5.7-.5-11.3-.9-17,.1-13.2,1.9-24.4,11.6-28.8,24.1-2.6,7.1-3.8,14.7-4.4,22.2-1.7,19,2.1,37.9,7,56.3,1,4.7-1.8,7.1-4.8,10.1-2.6,2.7-4.8,5.8-6.4,9.2-5.1,10.4-3.5,22.5,.2,33.1,3.4,10.6,11,21,22.6,22.9,3.7,.7,7.5,.7,11.3,.3h.3s0,.3,0,.3c1.8,6.1,3.6,12.2,6.1,18,4.1,9.7,9.6,18.9,16.6,26.8,5.6,6.4,12.1,11.9,19.1,16.5,3.5,2.4,7.5,4.1,10.5,7.3,3.4,3.2,3.5,8.4,1.8,12.5-1.5,.7-3,1.4-4.6,1.7-12,2.9-23.8,7-34.7,12.7-5.3,2.7-11,6.1-15.8,9.6,0,0-1.9,1.3-1.9,1.3l-.9,.7s-.9,.7-.9,.7c-17.2,13.1-30.8,30.7-40.3,50.1-1.6,3.1-2.9,6.4-4.4,9.5-1.6,3.3-5.3,5.4-8.9,5.9-17.6,1.3-36-1.4-52.7,5.3-12.3,4.7-18.9,15.2-18.9,28.3-.1,6.1,.8,12.2,2.2,18.2,.7,3,1.5,5.9,3,8.5,4.5,8.4,14,12.4,23.3,13.1,0,0,0,.8,0,.8,0,0,0,30.4,0,30.4,0,0,0,.9,0,.9,0,0-.9,0-.9,0,0,0-60.7,.1-60.7,.1,0,0-7.6,0-7.6,0-2.6,0-5,0-7.5,.3-2.4,.3-4.9,.8-7.2,1.6-20.3,6.3-33.4,29.6-27,50.2,6.1,23,26.6,31.4,48.5,33.9,12.3,1.6,25.3,1.4,37.8,1.7,13.3,.2,39.5,.2,53.1,.2,209,.4,459.4,.5,668.1,.8h0Z"/><path d="M139.9,796.3l-1.7-3.5s.2,0,.2,0-10.1,8.3-10.1,8.3c0,0,0-.3,0-.3,2.6,3.1,4.5,7,8,9.1,3.5,2.1,7.5,3.1,11.5,3.8,16.2,2.4,32.3,5.9,48.7,6.6,204.4,8.3,411,1.6,615.6-1.9,13.6-.2,35.6-.8,49.3-.9,8.2,0,16.4,.6,24.6,1,4.1,.2,8.2,.3,12.3,.3,2,.2,3.7-.6,5.4-1.7,1.7-1.1,3.3-2.4,5.1-3.5l-.3,1c-1.5-2.6-2.4-5.5-4.4-7.8-3.5-3.6-8.7-4.2-13.5-5-14.5-2.6-33.4-6.6-47.8-7.3-15.5-.6-56.4-1.9-72.7-2.4-202.7-7.5-427.3,6.8-630.3,4.2h0Zm.1-.2c193.1,0,388.7-12.1,581.8-7.7,40.4,1.1,80.8,2.7,121.2,4.4,15.8,.9,35.4,5.5,50.9,8.1,4.1,.7,8.4,1.9,11.3,5,2,2.4,3,5.5,4.5,8,0,0,.4,.6,.4,.6s-.6,.4-.6,.4c-3.4,1.9-6.8,5.8-11.2,5.4-12.3,0-24.6-1.3-36.9-1.5-13.6,0-35.3,.5-49.2,.7-205.2,3.1-410.5,12.8-615.7,2.2-16.5-.8-32.5-4.6-48.8-7.1-4-.8-8.1-1.9-11.7-4-3.7-2.3-5.5-6.3-8.2-9.5,0,0,.2-.1,.2-.1s10.2-8.2,10.2-8.2c0,0,.1-.1,.1-.1,0,0,0,.2,0,.2,0,0,1.6,3.4,1.6,3.4h0Z"/><path d="M275.5,666.5c.2,0,.3,0,.5,0h.6c.6,.3,2.7,.8,3.4,.9,4.5,1,9.2,1.2,13.7,2,2.3,.3,6.9,1.1,9.2,1.5,30.5,5.3,60.3,14.6,88.8,26.7,0,0,8.5,3.7,8.5,3.7,4.1,1.4,8.8,.5,12.6-1.5,34.7-17.1,72.7-27.4,111.1-31.5,3.3-.6,5-2.5,4.7-6-.7-9.1-4.1-18-9.5-25.4-3.6-5-8-9.2-12.7-13.2-14.6-12.4-32.1-21.4-50.7-25.8-2-.4-4.7-1.1-6.7-1.4-1.4-.2-3-.6-4.4-.6-4.4,0-8.7,1.7-12.2,4.3,0,0-2,1.3-2,1.3-13.2,8.7-28.7,10.6-43.1,3.8-3.5-1.6-7-3.7-10.2-6-2.4-1.6-5.1-2.7-8-2.7,0,0-2.3-.1-2.3-.1-3-.1-6.1,0-9.1,.2-38.5,2.7-73,32.3-82.1,69.7h0Zm-.2,.1c8.1-40.1,45.9-71.5,86.8-72.5,4.7,0,9.9-.4,14.2,2,2,1,4,2.6,5.9,3.8,7,4.3,15.1,7.2,23.4,7.1,.8,0,2.6-.1,3.4-.2,2.2-.3,4.5-.7,6.6-1.3,.8-.3,2.5-.8,3.2-1,1.2-.5,3-1.2,4.2-1.8,2-.9,4.1-2.1,6-3.3,0,0,1.9-1.3,1.9-1.3,2.6-1.9,5.6-3.4,8.7-4.1,3.1-.8,6.5-.6,9.7,0,1.1,.2,3.5,.7,4.6,1,13.7,3.1,26.9,8.5,38.7,16.1,15.3,10.1,30.9,23.2,35.5,41.8,.8,3,1.3,6.1,1.5,9.2,0,1.6,0,3.4-1.1,4.7-2.3,2.6-5.9,2.3-8.9,2.8,0,0-4.6,.5-4.6,.5-5.9,.8-12.4,1.7-18.3,2.8-28.9,5.3-56.7,15.5-82.8,28.6-4.3,2.2-9.5,3.2-14.3,1.6-33.8-15.1-69.3-26.7-105.8-33-5.3-1-10.8-1.4-15.9-3.1,0,0-1.1-.3-1.1-.3,0,0-.6-.1-.6-.1-.2,0-.4-.1-.6-.2h0Z"/><path d="M334.4,406.6c.4,12,0,24.7,.1,36.7,.2,12.2,.3,24.5,2.7,36.4,3.6,17.7,13.2,34.6,28.3,44.8,15.1,10.5,34.4,13.3,52.4,10.5,24.2-3.7,44.7-22.2,53.2-44.9,4.3-11.3,5.5-23.7,3-35.5l1,.9c-13.2-1.4-26.4-3.8-39-8.2-3.8-1.2-8.1-3-11.7-4.5-1.4-.6-5.4-2.5-6.8-3.2-7.3-3.7-14.7-8.2-21.1-13.3-4-3-7.8-6.3-11.4-9.8-4.9-4.5-9.2-9.7-13.3-14.8-.9-1-2.4-1.8-3.9-2.2-1.6-.5-3,0-4.6,.2-3.2,.7-6.5,1.4-9.7,2.1-5.5,1.3-13.8,3.3-19.2,4.5h0Zm-.2-.1c9-2.4,19.8-5.7,28.9-7.7,3.4-1.2,7.3-.5,9.9,2.2,6.4,7.6,13.2,14.6,21,20.9,7.6,6.1,16.1,11.4,24.8,15.8,1.4,.7,5.3,2.4,6.7,3.1,5.2,2.1,10.8,4.3,16.2,5.8,11.3,3.4,22.9,5.5,34.6,6.8,2.8,12.5,1.4,25.8-3.3,37.5-9.1,23-30.4,41.1-54.9,44.9-40.4,6.4-74.9-14.7-82.8-55.7-2.3-12.2-2.3-24.5-2.2-36.8,0-10.7,.9-26,1.1-36.8h0Z"/><path d="M307.5,386.9c10.9-4.3,22.7-8.1,33.7-12.4,5.6-2.1,11.1-4.4,16.5-6.9,8-3.9,14.5-10.3,21.6-15.8,1.1-.8,2.5-1.9,3.4-2.8,2.1-1.8,4.5-4.6,7-5.9,3.8-1.9,11.2-4.1,13.6,.8,1.4,3.1,1.9,6.3,.7,9.6-1.2,2.8-2.5,5.5-4,8.2-2.8,5.3-6,10.5-8.9,15.7v-1.2c13,16.3,29.1,30.7,48.5,39,6.4,2.8,13.1,5,19.9,6.5l-.6,.8c-4.1-6.4-9.6-11.8-14.4-17.9-4.8-6-8.7-12.9-10.5-20.4,0,0-.2-.7-.2-.7l.7,.3c12.6,4.7,24.3,11.5,35.7,18.6,11.4,7.1,22.6,14.5,34.5,20.6l-1.1,.7c.5-13.3,2.4-26.6,1.3-39.8-1.4-19.9-9.6-39-27.4-49.4-37.6-21.3-95.4-12.4-136.1-3.4-6.5,1.5-13,3-19.4,4.6-1.6,.4-3.3,.8-4.8,1.2-4.1,1.5-8.1,6.1-8.8,10.4-1.3,13-.7,26.8-1,39.8h0Zm-.1,.2l-.5-20.1c-.1-6.7-.1-13.4,.4-20,.4-3.6,2.6-6.5,5.1-8.9,2.4-2.6,6-3.3,9.3-4.1,6.4-1.7,12.9-3.4,19.4-4.9,32.5-7.7,66-12.7,99.4-9.1,49.9,6.4,70.6,34,66.2,83.6-.5,7.1-1.2,14.1-1.5,21.1-12.3-6.4-23.8-14.2-35.4-21.7-11.2-7.3-22.9-14-35.4-18.8,0,0,.5-.4,.5-.4,1.7,7.5,5.6,14.2,10.4,20.1,5.1,6.3,10.9,12,15.3,18.9,0,0-1.3-.3-1.3-.3-28.2-5.5-52.3-23-69.9-45.2,0,0-.5-.6-.5-.6l.3-.6c4.3-7.9,9.2-15.4,12.8-23.6,.9-2.3,.5-5.6-.6-7.9-.3-.6-.6-1-1.1-1.3-1.7-.9-3.9-.5-5.9-.1-2.9,.6-5.3,1.9-7.4,4-1.2,1.1-3.8,3.7-5,4.6-3,2.2-5.9,4.6-8.8,7-4.7,3.7-9.5,7.5-15.1,10.1-15.9,7.2-34.4,12.6-51,18.2h0Z"/><path d="M703.7,552c-4.4,48.3-6,97.5-4.3,146,.7,21.3,2.3,45.1,4.7,66.3,0,0-.4-.3-.4-.3h14.1c9,0,33-.2,42.3-.3,0,0-.7,.5-.7,.5,0,0,2.3-13.1,2.3-13.1,1.1-6.6,2.9-19.8,3.7-26.4,6.8-57.4,4.6-115.8-6.3-172.5,0,0,.8,.7,.8,.7-14-.1-42.3-.6-56.3-.8h0Zm-.2-.2c14.1-.2,42.4-.7,56.5-.8,0,0,.7,0,.7,0,0,0,.1,.7,.1,.7,12,56.8,14.2,115.6,6.6,173.1-1.6,12-4.4,28.2-6.8,40.1-16.2-.3-40.9-.2-56.9-.3,0,0-.3,0-.3,0,0,0,0-.3,0-.3-2.4-21.2-4.6-45-5.7-66.3-2.4-48.6-.3-98,5.9-146.2h0Z"/><path d="M887.4,764.2c-.7-43.4-1.2-94.4-.6-137.8,.2-15.2,.3-30.5,.3-45.8,0,0,.4,.4,.4,.4-10.4,0-31.2,.1-41.6,.3,0,0,.7-.7,.7-.7l.3,23c.3,32.9,.4,81.7,.3,114.8-.1,15.3-.2,30.6-.4,45.9,0,0-.8-.8-.8-.8,10.3,.1,31.2,.5,41.5,.7h0Zm.2,.2c-10.8,.2-31.7,.6-42.4,.7-.2-15.6-.3-31.1-.4-46.7-.2-42.2,0-95.6,.5-137.7,0,0,0-.7,0-.7,0,0,.7,0,.7,0,10.6,.2,31.4,.3,42,.3,0,15.5,.1,30.9,.3,46.4,.6,43.3,0,94.4-.6,137.7h0Z"/><path d="M816.4,764.2c-1-45-1.1-90.8-.3-135.8,0-4.8,0-14.6,0-19.4,0,0,.4,.4,.4,.4-4.6,0-9.1,0-13.7,0,0,0-13.7,.2-13.7,.2,0,0,.7-.7,.7-.7,.2,12.9,.3,25.9,.4,38.8,.3,37.6,.2,79-.4,116.4,0,0-.7-.7-.7-.7,7.8,.3,19.3,.3,27.3,.6h0Zm.2,.2c-8.1,.2-19.4,.5-27.4,.6,0,0-.7,0-.7,0s0-.7,0-.7c-.7-37.3-.7-78.8-.4-116.4,0-13.2,.2-26.3,.5-39.5,0,0,.7,0,.7,0l13.7,.2c4.7,0,9.4,0,14.1,0,0,0,0,.4,0,.4,0,4.9,0,14.6,0,19.4,.7,45,.7,90.8-.3,135.9h0Z"/><path d="M449.6,764c18.7-.3,45.2-.7,63.5-.9,20.9-.1,41.6,.8,62.5,.5,0,0-.4,.4-.4,.4,0-7-.5-14-.3-21,.5-9.1,.6-12.4-9.4-13.4-20.7-2.8-41.7-.1-61.8,5.3-20.6,5.3-39.9,12.5-54,29.1h0Zm-.2,.1c10.4-14.7,26.8-23.2,43.5-28.5,10-3.3,20.2-6,30.7-7.7,15.7-2.3,31.9-2.8,47.4,.9,6.9,2.3,5.6,8.6,5.2,14.3-.3,7-.2,14-.2,21v.4s-.4,0-.4,0c-21.1-.3-42.5,.6-63.6,.5-18.4,0-44-.6-62.6-.9h0Z"/><path d="M420.5,748.5c26.3-18.3,56.2-31.9,87.3-39.3,23.4-5.5,47.8-7.1,71.8-6.5,0,0,12,.5,12,.5l12,1-.6,.5v-12.9c-.1,0,.4,.6,.4,.6-4.3-1.1-8.4-1.7-12.9-2-6.3-.6-13.3-1-19.6-1.1-23.9-.7-48.1,1.8-71.3,7.5-19,4.6-37.6,11.2-55.3,19.7-14.6,7.3-29.8,12.3-23.9,32.1h0Zm0,.2c-6.2-16.5,3.8-24.1,17.3-30.9,4.4-2.5,10.2-5.2,14.7-7.4,35.2-16.2,73.3-24.2,112-23.5,10.8,.3,22.1,1.1,32.8,2.6,2.4,.4,4.6,1.2,6.9,1.7,0,0,0,.5,0,.5,0,0-.1,12.9-.1,12.9,0,0,0,.5,0,.5s-.5,0-.5,0l-11.9-1.1c-47.9-3.7-96.3,6.8-139.5,27.4-10,4.8-22.1,11.5-31.6,17.4h0Z"/><path d="M206.7,704.7c31.8-4.4,64.5-3,95.8,4.5,23.4,5.7,45.9,15.4,67,26.8,0,0,10.5,6,10.5,6l10.2,6.4s-.7,.3-.7,.3c.3-2.2,.6-4.3,.9-6.5,1-8,.8-11.8-6.7-15.9-7.5-4.4-15.3-8.5-23.2-12.2-31.6-15-66.2-23.4-101.2-24.5-17.5-.5-35,.6-52.6,.7,0,0,.4-.4,.4-.4s-.3,15-.3,15h0Zm-.2,.2s-.3-15.1-.3-15.1,0-.4,0-.4c0,0,.4,0,.4,0,26.2-1.1,52.8-3.8,79,0,35,4.4,68.8,17.2,98.8,35.7,7.9,4.7,8.3,8.7,7,17.4-.3,2.4-.7,4.8-1.1,7.2,0,0-.6-.4-.6-.4-26.6-17.7-56.6-30.8-87.7-37.9-15.4-3.5-31.6-6.1-47.4-7-15.5-1-32.5-.6-48.1,.6h0Z"/><path d="M235.5,758.2c-.7,2.4-1.2,5.8,2.2,6,2.2,.2,5.8,0,8.1,0,0,0,16.3-.3,16.3-.3,29.7-.5,60-.1,89.7,.4,0,0,2,0,2,0,.7,0,1.3,0,2,0,1.3-.2,2.6-.5,4-.7l-.3,.2,1-2.7,.2,.4c-10.4-6.1-20.2-13.5-31.6-17.6-22.4-8.7-46-15.3-70.1-14.9-6,.1-12,.5-17.9,1.4-2.6,.4-5.3,1-5.3,4.1,0,2.8,.6,5.9,1.1,8.7,0,0-1.1-.9-1.1-.9,4.3,0,8.8-.4,13.3,0,2.3,.2,4.8,.9,6.6,2.4,2.1,1.6,3.9,3.3,6,4.7-3,2.3-5.1,5.9-8.7,7.6-5.6,2-11.8,1-17.5,1.2h0Zm-.1-.2c5.7-.6,11.8,.1,17.2-2,3.1-1.6,4.9-4.7,7.5-7.1,0,0,0,1.2,0,1.2-2.8-1.8-5-4.3-8-5.3-5.3-1.3-10.7-.3-16.2-.3,0,0-.9,0-.9,0-.6-3.4-1.4-6.6-1.5-10.1,0-4.4,3.5-5.9,7.2-6.4,9.1-1.5,18.3-1.9,27.4-1.4,21.3,1.3,42.1,7.5,61.5,16,5.7,2.3,11,5.3,16.1,8.6,5.2,3.3,10.3,6.7,15.6,9.9-.1,.3-1,2.9-1.2,3.2-2,.3-4.2,1-6.3,.9,0,0-2,0-2,0-29.7,.5-60,1-89.7,.5,0,0-16.3-.3-16.3-.3-5.5-.5-14,1.7-10.4-7.2h0Z"/><path d="M759.4,523.1c-.4-9-.9-18.8-1-27.8,0,0,1.1,1.1,1.1,1.1-8,.2-19.6-.2-27.7-.5-9.2-.3-18.5-.2-27.7,.1,0,0,.7-.7,.7-.7,.2,4.6,.3,9.3,.4,13.9,.1,4.6,.1,9.3,.2,13.9,0,0-1.2-1.2-1.2-1.2,4,0,9.7,0,13.7,0,13.3,.1,28.2,.7,41.6,1.2h0Zm.2,.2c-18.2,.7-37.3,1.4-55.5,1.1,0,0-1.2,0-1.2,0,.1-9.7,.2-19.4,.6-29.1,0,0,0-.7,0-.7h.6c9.2,.3,18.5,.5,27.7,.1,8.6-.3,20.3-.7,28.8-.5,0,9.6-.5,19.4-1,29h0Z"/><path d="M887.6,551.1c-.4-4.8-.7-9.1-.8-13.3,0,0,.9,.9,.9,.9-6.9,.2-13.9,.2-20.8-.2-6.9-.4-13.9-.4-20.8,0,0,0,.7-.7,.7-.7,.2,4.5,.4,8.9,.5,13.4,0,0-1.1-1.1-1.1-1.1,14.1-.4,27.3,.2,41.6,1.1h0Zm.2,.2c-13.5,.9-28,1.4-41.7,1.1,0,0-1.2,0-1.2,0,0-4.8,.2-9.7,.5-14.5,0,0,0-.7,0-.7,3.7,.2,7.4,.3,11,.3,10.4,0,20.8-1.1,31.2-.6,0,0,1,0,1,0-.1,4.9-.5,10-.9,14.4h0Z"/><path d="M816.6,579.9c-.5-5-.9-9.3-1-13.7l1.1,1.1c-4.6,.2-9.2-.1-13.7-.5-4.6-.3-9.1-.2-13.7,.1,0,0,.7-.7,.7-.7,.3,4,.5,9.7,.6,13.8,0,0-1.2-1.2-1.2-1.2,9.3-.2,18.1,.1,27.4,1.1h0Zm.2,.2c-9.4,1.1-19.3,1.4-28.8,1.1,0,0,0-1.2,0-1.2,.1-4.1,.2-9.8,.6-13.8,0,0,0-.7,0-.7,2.5,.1,5,.3,7.5,.3,7.2,.1,14.4-1,21.7-.7,0,5.1-.5,10.4-1,14.9h0Z"/><path d="M292.6,435.2c-.3,1.7-.5,3.6-.9,5.2-2.5,13.4,2,23.9,13.7,31.1,0,0-1.2,.4-1.2,.4,3.7-14-7.1-24.4-11.7-36.6h0Zm0-.2c8.1,11.5,19.1,23.3,12.7,38.3,0,0-.8-.7-.8-.7-5.3-4.9-11-9.6-14.1-16.3-1.5-3.4-1.7-7.3-1.2-10.9,.4-3.6,1.7-7.3,3.3-10.4h0Z"/><path d="M391.8,566.2c1.2,3,2.6,6.4,4.9,8.7,3.4,3.5,8.9,5,13.5,3.3,5-1.9,6.6-7.6,6.8-12.5,0,0,1.1,1.2,1.1,1.2-8.8,.5-17.6-.1-26.3-.7h0Zm-.2-.1c2.2-.6,4.4-.9,6.7-1.1,7-.6,14-.6,21.1-.3-.3,8.2-5.7,14.9-14.1,15.6-8.3,1.1-13.7-6.6-13.7-14.2h0Z"/></g></g><g><path d="M628.8,408.2c-14.5-4.4-27.2-7.9-39.8-12.1-8.9-3-17.8-6.3-26.2-10.5-2.9-1.5-4.3-6-6.4-9.2,3-1.9,6-5.7,8.9-5.5,9.3,.5,18.9,1.5,27.9,4.1,13,3.7,25.7,8.6,38.3,13.5,4.6,1.8,12,3.4,9.1,10.4-1.7,4-7.6,6.2-11.7,9.3Z"/><path d="M628.8,408.3c-13.3-3.2-26.3-6.6-39.2-10.9-8.9-2.9-17.5-6.6-25.8-10.8-4.3-1.7-5.4-6.5-7.7-10,0,0-.2-.3-.2-.3l.3-.2c2.9-1.8,5.2-5.3,8.8-5.8,8.1,.2,16.3,.8,24.3,2.5,6.8,1.6,13.4,3.7,20,5.9,8.8,3,17.3,6.6,25.9,10,2.3,1,4.7,2,6,4.3,1.1,1.8,.9,3.9,.1,5.7-2.3,5.2-8.2,6.5-12.5,9.6h0Zm0-.2c3.8-3.5,10.8-5.6,11.5-11.3,.5-4.7-5.7-5.8-9.2-7.2-2-.7-7.6-2.8-9.7-3.6-8.5-3.1-17.4-6.4-26-9.1-9.8-3.1-20.1-4.6-30.3-5.4-3.3,.4-5.6,3.6-8.4,5.3,0,0,.1-.5,.1-.5,2.1,3,3,7.2,6.3,9,8.8,4.2,18,7,27.2,10.1,12.8,4.2,25.9,8.1,38.5,12.7h0Z"/></g><g><path d="M588.2,266.5c-1.1,3.2-1.4,5.1-2.3,6.6-10.5,18.8-22.9,35.9-41.7,47.3-2.6,1.6-6.3,1.4-9.5,2,.2-3.1-.6-6.9,.9-9.1,9.5-14.1,18.9-28.4,29.6-41.6,3.5-4.3,10.7-5.8,16.4-7.7,1.7-.6,4.4,1.6,6.5,2.5Z"/><path d="M588.3,266.4c-.4,1.6-.8,3.3-1.2,5-.3,1.4-1.5,3.3-2.1,4.7-1.6,3-3.2,5.9-5,8.8-5.3,8.7-11.5,16.8-19.1,23.5-5,4.5-10.5,8.5-16.2,12.2-2.9,1.9-6.6,1.6-9.8,2.4,0,0-.7,.2-.7,.2,.4-3.4-1-7.3,.8-10.4,6-9.5,12.1-18.9,18.6-27.9,3.2-4.3,6.5-8.6,10-12.7,2.2-3.1,5.8-4.9,9.3-6,3-.9,6.1-1.9,9.2-2.6,2.5,.1,4.1,2,6.3,3h0Zm-.2,.1c-2-.5-3.9-2.3-6-2.2-4.4,1.6-9.4,3-13.3,5.5-1.4,.9-2.6,2.2-3.6,3.5-3.3,4.2-6.4,8.5-9.5,12.9-6.3,8.7-13.1,18.5-19.3,27.4-1.6,2.6-.7,5.8-1.1,8.8,0,0-.7-.6-.7-.6,3.3-.6,6.8,0,9.7-1.9,14.4-8.7,24.7-22.4,34.1-36.1,2-3,4.9-7.5,6.8-10.6,1.4-2.1,1.8-4.6,2.9-6.8h0Z"/></g><g><path d="M561.7,353c-2.1-.1-4.3,.3-6.1-.4-2.7-1.2-6.7-2.8-7.3-4.9-.7-2.7,.5-7.4,2.6-9.2,8.7-7.7,19.7-10.8,31-9.9,3.9,.3,8.5,5,10.6,8.8,.8,1.5-3.9,7.7-7.3,9.3-7.3,3.4-15.3,5.2-23.1,7.7-.1-.4-.3-.8-.4-1.2Z"/><path d="M561.6,353.1c-1.7,.2-3.4,.5-5.2,.3-1.8-.4-3.3-1.1-5-1.8-1.3-.6-2.9-1.5-3.8-2.9-1.7-3.4,0-9.1,2.9-11.4,7.7-6.2,17.6-9,27.4-9.6,2.3,0,5-.3,7.1,.8,3.7,1.8,6.4,4.8,8.4,8.2,1.2,2.8-3.1,7.3-5,9.1-1.8,1.7-4.2,2.5-6.4,3.4-6.5,2.4-13.2,3.7-19.9,5.3,0,0-.2,0-.2,0v-.2s-.3-1.2-.3-1.2h0Zm.1-.2l.6,1.3s-.3-.1-.3-.1c6.3-2.6,12.9-4.4,19.2-7.1,1.5-.7,3-1.2,4.3-2.1,2.3-1.8,4.8-4.4,5.8-7.1-1.8-3.1-5.6-8-10-8.5-.8-.1-2.5-.2-3.4-.3-9.8-.6-19,3.3-26,9.9-2.1,1.6-3.9,7.2-2.2,9.4,1.4,1.5,3.6,2.5,5.5,3.4,1.9,1.2,4.1,.8,6.5,1.2h0Z"/></g><path class="cls-2" d="M139.9,796.2c28.1,0,56.2,.4,84.2,0,134.6-2.5,269.1-6.3,403.7-7.6,70.6-.7,141.3,2.5,212,4.9,18.1,.6,36.2,5.2,54.2,8.2,3.4,.6,7.2,1.7,9.8,3.8,2.5,2.1,3.6,5.8,5.3,8.8-3.3,1.9-6.6,5.3-9.8,5.3-14.5,0-28.9-1.7-43.4-1.4-147.3,2.5-294.6,6.2-441.9,7.6-71.8,.7-143.7-2.5-215.5-4.7-16.4-.5-32.8-4.1-49.1-6.7-4.6-.7-9.5-1.9-13.4-4.3-3.3-2-5.3-6-7.9-9.2,3.4-2.7,6.8-5.5,10.2-8.2,.5,1.1,1.1,2.3,1.6,3.4Z"/><path class="cls-2" d="M307.4,387c0-13.7-.7-27,.4-40.1,.4-4,5.4-10,9.4-11,38.9-10.2,78.3-18.6,118.9-15.1,11,1,22.3,3.6,32.5,7.7,25,10,35.9,30.7,37.4,56.4,.7,12.2-1,24.5-1.6,38.6-24.4-12.7-43.8-29.6-69.9-39.5,4,17.2,16.7,25.5,25,38.1-30.3-6.5-51.9-23.9-69.2-45.4,4.5-8.1,9.4-15.7,12.8-23.8,1.2-2.8,.2-8.6-1.9-10.2-2.2-1.6-7.4-.6-10.5,.8-3.6,1.7-6.2,5.3-9.4,7.7-7.9,6-15.3,13.4-24.2,17.3-15.8,7.1-32.5,12.1-49.8,18.4Z"/><path class="cls-2" d="M420.5,748.6c-4.8-14.6,1.7-21.5,13.4-27.8,51-27.4,105.1-37.6,162.4-30.6,2.3,.3,4.6,1,7.3,1.6v12.9c-66-7.2-127.2,7.3-183.1,44Z"/><path class="cls-2" d="M206.6,704.7v-15c20.9-.4,41.5-2.3,61.9-1,39,2.5,75.7,14,109.8,33.5,14.2,8.1,14.3,8.2,11.5,26.5-55.7-36.5-116.6-51.4-183.3-43.9Z"/><path class="cls-2" d="M292.6,435.1c6.6,12.6,16.9,22.2,12.4,36.9-14.5-11-18-20.5-12.4-36.9Z"/><path class="cls-2" d="M391.7,566.1c1.5-.1,2.9-.3,4.3-.3,7.4,0,14.7,0,22.1,0-.7,8.6-5.5,13.6-12.7,13.8-7.2,.2-12-4.5-13.7-13.4Z"/><g><path d="M399.6,656.7c-12.2,5.4-23.5,10.4-34.7,15.3-3.2,1.4-6.4,3.2-9.8,3.8-13.6,2.6-21-4.1-18.7-17.6,2.7-16.5,9.9-31.1,22.8-41.9,3.5-2.9,10.1-2.2,15.2-3.1,.1,4.7,1.6,9.8,.1,13.9-3.2,8.5-7.9,16.5-13,26.8,4.9-1.8,8-3,11.1-4.2,6.9-2.5,13.8-5.3,20.9-7.2,9.5-2.5,18.2-1.8,23,8.3,6.1-3.9,11.6-8.1,17.6-11.2,12.5-6.4,18.4-3.4,21.5,10.2,3.8-.8,7.7-1.7,11.8-2.6-1.1,9.3-12.5,20.4-19.7,18.3-3.8-1.1-6.3-6.6-10.2-11-4.4,3.2-10.4,7.8-16.6,12.1-2.9,2-5.9,3.9-9.1,5.4-8.2,3.7-11.5,1.5-11.8-7.4,0-2-.2-4-.4-7.8Z"/><path d="M399.5,656.8c-11.2,5.2-22,10.3-32.8,15.2-4.1,1.7-8.2,4.4-12.8,4.9-4.6,.7-9.9,.5-13.8-2.4-8.2-6.3-4.8-18.1-2.5-26.6,3.4-11.8,10.1-22.6,19.3-30.7,1.1-.9,2.5-2.3,3.8-2.8,4.5-1.8,9.5-1.1,14.1-2,0,3.8,1,7.6,.7,11.5-.4,3.7-2.4,7-3.8,10.4-3.1,6.6-6.6,13-9.8,19.5l-.6-.6c9.6-3.6,18.9-7.5,28.6-10.8,10.5-3.7,22.1-4.1,27.5,7.7,0,0-1.6-.5-1.6-.5,3.5-2.3,7-4.8,10.5-7.1,5.4-3.4,11.2-7.2,18-7.6,5.3-.2,8.7,3.5,10.5,8.1,.9,2.1,1.4,4.2,1.9,6.3,0,0-1.5-1-1.5-1,0,0,11.8-2.6,11.8-2.6s1.8-.4,1.8-.4c-.4,4.6-2.3,9-5,12.4-3.6,4.5-8.6,9-14.8,8.9-4.3-.2-6.8-4.3-9-7.4-1.1-1.5-2.1-3-3.3-4.3h1.3c0,.1-11.7,8.5-11.7,8.5-5,3.4-21.4,16.4-25.6,7.5-1.7-4-1-10.1-1.3-14.3h0Zm.1-.2l.6,7.3c.2,2.4,.3,4.8,1.3,6.9,3.8,7.7,19.5-5.4,23.8-8.5,0,0,11.5-8.6,11.5-8.6l.7-.5c2.8,2.9,4.9,6.6,7.5,9.3,5.3,5.7,13.2-1.4,16.7-6,2.1-2.8,3.8-6.1,4.2-9.4l1.6,1.4-11.8,2.6-1.2,.3c-2.1-9.2-5-16.7-15.9-12.4-8.2,3.2-15.2,8.9-22.6,13.5-3.3-8.2-9.7-11.3-18.3-9.9-7.5,1.2-14.6,4.1-21.7,6.6-5.2,1.8-10.3,3.7-15.5,5.5,3.4-6.9,7.2-13.6,10.5-20.5,1.4-3.3,3.3-6.5,3.6-10.1,.2-3.6-.7-7.1-.8-10.9l.6,.5c-5,1.1-10.7,0-15,3.3,0,0-1.7,1.5-1.7,1.5-8.8,8.1-14.9,18.8-18.2,30.2-1.7,6.9-4.7,15.7-.5,22.2,1.8,2.6,4.9,4.1,7.9,4.4,1,.2,2.2,.2,3.2,.2,1,0,2.3-.1,3.3-.3,4.5-.5,8.3-2.8,12.5-4.5,11.3-4.8,22.6-9.4,33.5-14h0Z"/></g><g><path d="M714.2,672c2.3-9.5,3.8-18.9,7.1-27.5,1.3-3.4,6.8-7.1,10.4-7.2,3.6,0,9.1,3.6,10.6,7,8,18.4,8,37.3,0,55.7-1.5,3.4-6.9,7.1-10.5,7.2-3.6,0-9.2-3.7-10.5-7.1-3.4-8.9-4.9-18.5-7.2-28.2Z"/><path d="M714.1,672c1.2-6.9,2.2-13.8,4-20.7,1.1-3.4,1.7-7.3,4.1-10.1,2.7-2.7,5.9-4.9,9.9-4.9,4.5,.6,9,3.9,10.8,8,.9,2.4,1.9,5,2.6,7.5,4.8,15.2,4.9,31.9-1.2,46.7,0,0-.5,1.2-.5,1.2-1.1,3.2-3.8,5.6-6.7,7.2-1.7,.9-3.5,1.7-5.7,1.6-4-.5-7.2-2.6-9.7-5.6-2.1-3-2.7-6.8-3.7-10.2-1.7-6.9-2.7-13.7-3.9-20.7h0Zm.2,0c2,6.6,3.5,13.5,5.5,20.2,.7,2.5,1.6,4.9,2.5,7.3,.3,.7,.7,1.3,1.2,1.9,2,2.2,5.1,4.3,8.1,4.5,3.6,0,7.6-2.9,9.5-6,2.5-5.4,4.3-11.2,5.5-17.1,2.5-12.8,1.1-26.3-4.6-38-1.8-3.5-6-6.1-9.8-6.4-3,0-6.2,2.2-8.2,4.3-2.2,2.5-2.8,6.1-3.9,9.1-2,6.6-3.5,13.5-5.6,20.1h0Z"/></g><g><path d="M728.4,592.2c7.9,0,14.2,6.1,14.2,13.8,0,8.1-8.4,16.1-17,16.2-7.4,0-13.7-6.7-13.6-14.6,.1-8.2,7.7-15.3,16.4-15.4Z"/><path d="M728.4,592.1c15.3,.2,20.7,16.4,8.6,25.9-4.5,3.9-11.2,6.5-17.1,3.9-5.9-2.5-9.8-9.1-9.1-15.5,.7-8.7,9.5-14.4,17.6-14.3h0Zm0,.2c-11.8,.2-19.8,15-11.9,24.4,5.1,6.4,14.2,6.1,20,.7,2.9-2.6,4.7-6.3,5-9.9,.7-7.4-5.2-15.4-13.1-15.2h0Z"/></g><g><path d="M857.2,653.6c2.2-6.2,4.7-14.3,7.9-22.1,.7-1.7,3.5-3.2,5.4-3.5,1.1-.1,3.5,2.6,3.6,4.1,.7,11.6,1.6,23.2,1.1,34.8-.1,3-4.9,5.8-7.5,8.7-2.6-2.9-6-5.3-7.7-8.7-1.7-3.2-1.6-7.4-2.7-13.4Z"/><path d="M857,653.6c1.6-6.8,3.5-13.3,6-19.8,.7-1.7,1.2-3.8,2.9-4.8,1.4-1,3.1-1.7,4.8-1.7,1.4,.3,2.2,1.4,2.9,2.4,.4,.6,.8,1.2,.9,2,.2,2,0,3.9,.2,5.9,.5,9.4,1.9,18.9,1.6,28.4,0,0,0,.6,0,.6,0,0,0,.3,0,.3,0,2.7-2.5,4.8-4.1,6.3-1.7,1.5-3.2,2.8-4.7,4.4-1.7-1.9-3.5-3.6-5.3-5.5-1.5-1.6-2.9-3.4-3.7-5.6-1.4-4.3-1.1-8.4-1.6-12.8h0Zm.2,0c1.8,5.9,1.5,12.6,6.6,16.8,1.5,1.4,3.1,2.8,4.6,4.4h-1.9c2.1-2.5,5.4-4.3,7-7,.4-.6,.3-1.3,.4-2,0,0,.1-2.6,.1-2.6,.3-10.2,.7-20.6-.6-30.8-.2-1.3-1.6-2.8-2.7-3.4-.4-.1-.2,0-.7,0-1.7,.5-3.5,1.5-4.2,3.1-2.6,6.5-5.7,15.1-8.7,21.4h0Z"/></g><g><path d="M275,759.1c-2.5-3.4-6.6-6.5-7.1-10.1-.8-6,3.8-10.7,9.6-9.7,3.3,.6,8.1,5.6,8.2,8.9,.1,3.6-4.3,7.3-6.7,11-1.4,0-2.7,0-4.1,0Z"/><path d="M274.9,759.2c-2.5-2.3-5.6-4.5-7.3-7.5-3.2-5.8,2.2-13,8.5-13,4.8-.3,9.6,4.3,10.8,8.7,.6,5.3-4.5,8.5-7.3,12.1,0,0-.3,.3-.3,.3-1.5-.1-3-.4-4.4-.6h0Zm.1-.2c1.2-.2,2.9-.4,4-.6,0,0-.6,.3-.6,.3,1.1-2.1,2.6-3.9,3.8-5.7,2.1-2.9,3-5,1-7.8-1.7-2.5-4-5.3-7.2-5.5-6-.6-8.8,6.2-6.6,11,1.4,2.8,4.2,5.5,5.5,8.3h0Z"/></g></g></g></svg>