<?xml version="1.0" encoding="UTF-8"?><svg id="Layer_1" xmlns="http://www.w3.org/2000/svg" viewBox="0 0 1024 1024"><defs><style>.cls-1{fill:#ebebec;}.cls-2{fill:#ee8d24;}</style></defs><polygon class="cls-1" points="28.8 45.7 72.1 1002.5 946.3 1021.6 995.2 2.4 28.8 45.7"/><g><path d="M661.7,848.5c-4.9-.5-13.4-.5-21.5-.6,6.2,.4,12.8,.6,21.5,.6Z"/><path d="M640.1,847.9s0,0-.1,0c.1,0,.2,0,.3,0,0,0-.1,0-.2,0Z"/><path d="M678.5,851.9c0-2,0-4.3,0-6.6,0,2.2,0,4.5,0,6.6Z"/><path d="M249.9,846.5l-1.2,.8c-19.1,0-5.6-.9-23.2-.7-6.9,1.1-29.3-.1-35.5,.5,0,0-.5,0-1.2,0,0,0-.1,0-.2,0-.1,0-.2-.2,0-.3-.2,.2-.4,.3-.5,.3,0-.2,.1-.4,0-.6-.2-.1-.2,.1-.4,.3v-.3c0,0,0-.1,0-.1h0s0-.4,0-.4v-.8s-.1-6.2-.1-6.2c.2-4.9,.5-6.1,.6-.8,.2-32.7,.8-189.5,.5-224.7-.4,4.5-.1,15.4-.9,19.5-.4-9.3,.1-13.7-.3-17.8,1.1-3.6,.3-20.4,1.3-27.5l-.6-2.7,.4-4.6c-.1-7.9-.2-13.2-.3-16.7,0-.4,0-.9,0-1.2,0-.2,0-.4,0-.6,0-.1,0,0,0,0h0s0,0,0,0c0,0,0,0,0-.1,0-.1,0-.1,0-.3,0,0,.2,0,.3,0,0,0,.1,0,.2,0h0c-.2,0,.5,0,.9,0,.9,0,1.9,0,2.9,0,21,0,31-.9,42.6-.6-1.7,0-6.4-.4-.9-.5,.9,.5,14.5-.4,17.1,.2,5.3,0,22.6,0,16.7-.7,2.9,.4,18.3,.5,9.2,.8,5.2,0,10.2,.1,14,0l-6.7-.2c17.5-.1,27.1,.5,38.5-.2l-6.5-.3c10.5,0,19.3,0,23.4,.6l-10.8,.2c17.4,0,27.9,0,42.4-.4h-5.2c18.5-.7,115.1-1.3,132.1-2.2l-7.8-.5,14.6-.5c-1.7,0-7.1,1.8-8.5,1.6,21.2,0,106-.2,162.6-.3,0,9.3,0,17.6,0,24.3,0,9,0,16-.1,20.2-.3,11.7-.9,2.1-1,2,.2,14.2,.6,6.1,.5,18.2,0,3.3-.4-.7-.5-2.5,0,5.3-.1,10.2,.1,10.6,.2-6.6,.9-3.8,1.3-6.6v15.6c0,0-.5-.7-.5-.7,0,3.5,1.2,8.8,.9,24.1-.2,25.8,0,53.8-.1,79.7-.3-.4-.4-5.8-.6-11.3,0,3.5,0,8.8-.1,12,.5-6.3,.3,10.9,.5,6,1.1,19,0,43.5,.8,60.3,.9,1.5,16.3,35.9,17.4,35.9,0,5.2,0,10.4-.1,12,.3-1.3,.4-11.6,.2-17l-.6-.9c-.2-12.5,.4-2.9,.3-15.1,.5-.7,.6,10.6,.6,20.5,0-8.9,.4-17.8-.1-21.4,.2-8.4,.6,.9,.8-9.2-.1-7.2-.6-16.6-.3-24.9h0c.5-19.9-.7-30.5-.2-48.9l.2,2c.3-6.5,0-19.2,.2-30.9,0,3.3-.5,6.2-.5-.8,.3-13.4,0-22.6,.4-32.4l-.5-9.4c0-21.8-.1-71.3-.2-130-64.6,.2-141.3,.4-170,.5h1.8c-71.6,.2-218.6,.1-292.6,.8-5.7-.2-12.5-.3-19.4-.4-9.9,0-20,0-28.6-.1,6.2,0,8.3,.2,7.6,.3-.7,.1-4,.2-8.7,.2-.4,0-.7,0-.9,0,0,8,0,14.1,0,18.8,0,3,0,5.1,0,6.6,0,2.4,0,2.7,.1,3.1,.1,.7,.3,1.5,.4,19.8,.4,42.4,0,204.5-.5,242.1,.1,4.2,.2,8.6,.3,13.1,0,3.4,0,6.9,0,10.5,0,4.1,0,8.2,0,12.3,9.6,0,19.3,0,28.8,0,6.5,0,12.8,0,18.6-.2l-2,.2c21.3-.3,141.6,.4,166.3,.1h-3.3c21.5-.5,18.6,.2,35.6,.5-2.2-.8,16.2-1.2,23.3-1.3l-.3,.2c10.6-.1,34.7-.8,52.2-.9l-.7,.4c14.6-.5,42.1-.3,52.6-.3,24,.2,61.1,.9,93.2,.4l20.8,1.2h3c0-.1,33.4-14.9-9-18.1l.7-.4h-8.4c-10.1-.2-14.7,.3-14,0h13.8c-10.1,0-3.1-.3,.8-.5-4.2,0-8.3,0-11.7-.2-2,.2,1.5,.2,3,.3-5.4,.2-13,.6-19.6,.4-10.4,0-.7-.7-12.7-.7-63.7-.3-125.5-.8-189.9-.7-1.5-.2,.3-.2,2.1-.3-19.4,.1-36.7,.2-54.3,.3-4.9-.2-6.2-.5-7.7-.6,1.5,.2-22.9,.3-47.9,.3-12.5,0-25.1,0-34.7,0-9.6,0-16.2,0-16.6,0Z"/></g><g><path d="M783.9,473.5c-3.3-.5-9-.5-14.4-.6,4.1,.4,8.6,.6,14.4,.6Z"/><path d="M769.4,472.9s0,0,0,0c0,0,.1,0,.2,0,0,0,0,0-.1,0Z"/><path d="M798.7,478.8c0-1.3,0-2.9,0-4.4,0,1.5,0,3,0,4.4Z"/><path d="M573.1,429.6l-.8-.8c0-12.8,.9-3.7,.7-15.5-1.1-4.6,.1-19.6-.5-23.7,0,0,.1-5.7,.5-5.3-.6-1.8-.1-6-.3-9.6-.2-1.3-.2,1-.4,2l-.2-8.4c.2-3.3,.5-4.1,.6-.5,.2-21.8,.8-126.7,.5-150.2-.4,3-.1,10.3-.9,13-.4-6.2,.1-9.2-.3-11.9,1.1-2.4,.3-13.7,1.3-18.4l-.6-1.8,.4-3.1c0-2.7-.1-4.9-.2-6.7,0-.5,0-.9,0-1.3,0-.2,0-.4,0-.6h0c0,0,0,0,0-.1,0-.1,0-.2-.1-.2,0,0,0,0,0-.1,.1,0,.3,0,.5,.1h0c.4,0,.8,0,1.2,0,.8,0,1.6,0,2.4,0,1.5,0,3,0,4.3-.1,2.7-.1,5.1-.2,7.3-.3,4.4-.2,8-.3,11.9-.2-1.2,0-4.3-.4-.6-.5,.6,.5,9.7-.4,11.5,.2,3.6,0,15.1,0,11.2-.7,2,.4,12.3,.5,6.1,.8,3.5,0,6.8,.1,9.3,0l-4.5-.2c11.7-.1,18.1,.5,25.8-.2l-4.3-.3c7,0,12.9,0,15.6,.6l-7.2,.2c11.6,0,18.6,0,28.3-.4h-3.5c6.2-.4,25.4-.7,44.5-1,9.6-.2,19.1-.4,26.9-.5,3.9-.1,7.4-.2,10.3-.3,1.4,0,2.7-.1,3.8-.2,.6,0,1.1,0,1.5,0,.2,0,.4,0,.6,0,0,0,.1,0,.2,0,0,0,0,0-.3,0h-.7c0,0-1.3-.2-1.3-.2l-2.6-.3,4.8-.2,2-.2c-.2,0-.9,.4-1.4,.9-.2,.2-.4,.4-.6,.6,0,0,0,0-.1,0,0,0,0,0-.2,0-.2,0-.4,0-.5,0,.8,0,2.1,0,3.8,0,0,.6,0,1.3,0,2,0,1.6,0,3.2,0,5,0,5.7,0,12,0,18.6,0,13.2,0,27.7,0,41.5,0,27.8,0,53.2-.1,61.6-.3,7.8-.9,1.4-1,1.3,.2,9.5,.6,4.1,.5,12.2,0,2.2-.4-.5-.5-1.7,0,3.5-.1,6.8,.1,7.1,.2-4.4,.9-2.6,1.3-4.4v10.4c0,0-.5-.5-.5-.5,0,2.3,1.2,5.9,.9,16.1-.2,17.2,0,36-.1,53.3-.3-.3-.4-3.9-.6-7.6,0,2.3,0,5.9-.1,8,.5-4.2,.3,7.3,.5,4,1.1,12.7,0,29.1,.8,40.3,.9,1,16.3,24,17.4,24,0,3.5,0,6.9-.1,8,.3-.9,.4-7.7,.2-11.4l-.6-.6c-.2-8.4,.4-2,.3-10.1,.5-.4,.6,7.1,.6,13.7,0-6,.4-11.9-.1-14.3,.2-5.6,.6,.6,.8-6.1-.1-4.8-.6-11.1-.3-16.6h0c.5-13.3-.7-20.4-.2-32.7l.2,1.3c.3-4.3,0-12.9,.2-20.7,0,2.2-.5,4.2-.5-.5,.3-9,0-15.1,.4-21.7l-.5-6.3c0-15.3,0-52.5-.3-90-.2-41.7-.3-83.7-.4-102-5.6,0-7.1,0-8.5,0h2.4c-25.8,0-65.1,0-104.6,.2-36.7,.1-73.7,.3-98.4,.6-3.8-.2-8.4-.3-13-.4-7.8,0-15.7,0-22.4-.1,8.4,.2,5.7,.5-.5,.5-.2,0-.5,0-.6,0,0,10.7,0,16.3,0,19.2,0,.7,0,1.3,0,1.8,0,.3,0,.5,0,.6,0,.3,0,.4,0,.5,.1,.5,.3,1,.4,13.2,.4,28.3,0,136.7-.5,161.9,.7,13.5,.2,30.4,.6,43.6l-.2-1.3c0,4.7,0,16.8,0,31.3,0,17.4-.1,37.8-.2,55.4,11,0,21.1,0,29.5,0,5.8,0,10.4,0,13.1,0h-2.2c14.4-.5,12.4,.2,23.8,.5-1.5-.8,10.9-1.2,15.6-1.3l-.2,.2c7.1-.1,23.2-.8,34.9-.9l-.5,.4c9.8-.5,28.2-.3,35.2-.3,16.1,.2,40.8,.9,62.3,.4l13.9,1.2h2c0-.1,22.4-14.9-6-18.1l.5-.4h-5.6c-6.7-.2-9.8,.3-9.4,0h9.2c-6.8,0-2-.3,.5-.5-2.8,0-5.6,0-7.8-.2-1.3,.2,1,.2,2,.3-3.6,.2-8.7,.6-13.1,.4-6.9,0-.4-.7-8.5-.7-42.6-.3-83.9-.8-127-.7-1-.2,.2-.2,1.4-.3-13,.2-24.5,.1-36.3,.3-3.3-.2-4.2-.5-5.1-.6,.1,0,0,0-.7,0-.1,0-.3,0-.5,0,0,0-.2,0-.3,0h0s0,0,0,0c0,0-.1,0-.2,0,0,0,0,0,0-.2h0c0,0,0,0,0,0h0s0-.3,0-.3c0-1.4,0-2.9,0-4.3,0-5.8,0-11.8,0-17.2,0-5.4,0-10.3,0-13.8,0-3.5,0-5.8,0-6Z"/></g><rect class="cls-2" x="314.1" y="326.6" width="168.3" height="168.3"/><rect class="cls-2" x="763.7" y="564.6" width="168.3" height="168.3"/><g><path d="M290,309.6c2.1,.5,5.7,.5,9.1,.6-2.6-.4-5.4-.6-9.1-.6Z"/><path d="M299.1,310.2s0,0,0,0c0,0,0,0-.1,0,0,0,0,0,0,0Z"/><path d="M276.6,302.7c0,.8,0,1.8,0,2.8,0-.9,0-1.9,0-2.8Z"/><path d="M444.5,311.8c.3,0,.5-.1,.8-.2,0,0,0,.2,0,.2,0,0,0,0,0,0,0,.2,0,.4,0,.6,0,.7-.2,1-.3,1.2-.2,.5-.4,.9-.3,4.7,1.1,2.9-.1,12.4,.5,15,0,0-.1,3.6-.5,3.4,.6,1.1,.1,3.8,.3,6.1,.2,.8,.2-.6,.4-1.2l.2,5.3c-.2,2.1-.5,2.6-.6,.3-.2,13.8-.8,79.9-.5,94.7,.4-1.9,.1-6.5,.9-8.2,.4,3.9-.1,5.8,.3,7.5-1.1,1.5-.3,8.6-1.3,11.6l.6,1.1-.4,1.9c0,.4,0,.7,0,1.1h0c0,0,0,0,0,.1,0,0,0,.1,.1,.1,0,0,0,.2,.1,.2,0,0,0,0,0,0,0,0-.2,0-.3-.1,0,0,0,0,0,0h0c0,0,0,0,0,0-.2,0-.4,0-.7,0-1.7,.1-3.2,.2-4.6,.3-2.8,.2-5.1,.3-7.5,.2,.7,0,2.7,.4,.4,.5-.4-.5-6.1,.4-7.2-.2-2.2,0-9.5,0-7.1,.7-1.2-.4-7.7-.5-3.9-.8-2.2,0-4.3-.1-5.9,0l2.8,.2c-7.4,.1-11.4-.5-16.2,.2l2.7,.3c-4.4,0-8.1,0-9.9-.6l4.5-.2c-7.3,0-11.8,0-17.9,.4h2.2c-7.8,.7-48.5,1.3-55.7,2.2l3.3,.5-6.2,.5c.7,0,3-1.8,3.6-1.6-2.5,0-7.1,0-13,0-2.8,0-5.8,0-9.1,0-1,0-2.1,0-3.2,0,0-.9,0-1.8,0-2.7,0-2.6,0-5.1,0-7.7,0-6.2,0-12.4,0-18,0-11.2,0-20.3,.1-24.1,.3-4.9,.9-.9,1-.8-.2-6-.6-2.6-.5-7.7,0-1.4,.4,.3,.5,1.1,0-2.2,.1-4.3-.1-4.5-.2,2.8-.9,1.6-1.3,2.8v-6.6c0,0,.5,.3,.5,.3,0-1.5-1.2-3.7-.9-10.2,.2-10.9,0-22.7,.1-33.6,.3,.2,.4,2.5,.6,4.8,0-1.5,0-3.7,.1-5-.5,2.6-.3-4.6-.5-2.5-1.1-8,0-18.4-.8-25.4-.9-.6-16.3-15.1-17.4-15.1,0-2.2,0-4.4,.1-5-.3,.6-.4,4.9-.2,7.2l.6,.4c.2,5.3-.4,1.2-.3,6.4-.5,.3-.6-4.5-.6-8.6,0,3.8-.4,7.5,.1,9-.2,3.5-.6-.4-.8,3.9,.1,3,.6,7,.3,10.5h0c-.5,8.4,.7,12.9,.2,20.6l-.2-.8c-.3,2.7,0,8.1-.2,13,0-1.4,.5-2.6,.5,.3-.3,5.7,0,9.5-.4,13.7l.5,4c0,7.5,0,23.2,.2,40.4,0,8.6,.1,17.5,.2,25.8,0,12.2,.1,23.6,.2,33,21.2,0,32.4-.1,39-.1h-.8c30.2-.2,92.2-.1,123.4-.8,1.2,.1,2.5,.2,3.9,.3,.3,0,.7,0,1,0,.5,0,1,0,1.6,0,1.3,0,2.7,0,4,0,5.4,0,10.8,0,15.5,.1-5.4-.2-3.8-.5,.1-.5,.2,0,.3,0,.4,0,0-13.5,0-14-.2-14.5,0-.3-.1-.6-.2-2.5,0-1.4,0-3.9-.2-8.7-.4-17.9,0-86.2,.5-102.1-.7-8.5-.2-19.2-.6-27.5l.2,.8c0-1.7,0-4.8,0-8.8,0-6.6,0-14.6,0-23.3-11.9,0-25.2-.1-36.7-.2-8.7,0-15.9,0-19.2,0h1.4c-9.1,.5-7.8-.2-15-.5,.9,.8-6.8,1.2-9.8,1.3v-.2c-4.4,.1-14.5,.8-21.9,.9l.3-.4c-6.2,.5-17.8,.3-22.2,.3-10.1-.2-25.8-.9-39.3-.4l-8.8-1.2h-1.3c0,.1-14.1,14.9,3.8,18.1l-.3,.4h3.5c4.2,.2,6.2-.3,5.9,0h-5.8c4.3,0,1.3,.3-.3,.5,1.8,0,3.5,0,4.9,.2,.8-.2-.6-.2-1.3-.3,2.3-.2,5.5-.6,8.3-.4,4.4,0,.3,.7,5.4,.7,26.9,.3,52.9,.8,80.1,.7,.6,.2-.1,.2-.9,.3,8.2-.2,15.5-.1,22.9-.3,2.1,.2,2.6,.5,3.2,.6-.5-.1,5-.2,12-.3,3.2,0,6.8,0,10.3,0,.1,0,.2,0,.3,0,0,.2,0,.3,0,.3Z"/></g><g><path d="M736.1,592.7c2.1,.5,5.7,.5,9.1,.6-2.6-.4-5.4-.6-9.1-.6Z"/><path d="M745.3,593.3s0,0,0,0c0,0,0,0-.1,0,0,0,0,0,0,0Z"/><path d="M722.7,585.9c0,.8,0,1.8,0,2.8,0-.9,0-1.9,0-2.8Z"/><path d="M890.7,594.9c.3,0,.5-.1,.8-.2,0,0,0,.2,0,.2,0,0,0,0,0,0,0,.2,0,.4,0,.6,0,.7-.2,1-.3,1.2-.2,.5-.4,.9-.3,4.7,1.1,2.9-.1,12.4,.5,15,0,0-.1,3.6-.5,3.4,.6,1.1,.1,3.8,.3,6.1,.2,.8,.2-.6,.4-1.2l.2,5.3c-.2,2.1-.5,2.6-.6,.3-.2,13.8-.8,79.9-.5,94.7,.4-1.9,.1-6.5,.9-8.2,.4,3.9-.1,5.8,.3,7.5-1.1,1.5-.3,8.6-1.3,11.6l.6,1.1-.4,1.9c0,.4,0,.7,0,1.1h0c0,0,0,0,0,.1,0,0,0,.1,.1,.1,0,0,0,.2,.1,.2,0,0,0,0,0,0,0,0-.2,0-.3-.1,0,0,0,0,0,0h0c0,0,0,0,0,0-.2,0-.4,0-.7,0-1.7,.1-3.2,.2-4.6,.3-2.8,.2-5.1,.3-7.5,.2,.7,0,2.7,.4,.4,.5-.4-.5-6.1,.4-7.2-.2-2.2,0-9.5,0-7.1,.7-1.2-.4-7.7-.5-3.9-.8-2.2,0-4.3-.1-5.9,0l2.8,.2c-7.4,.1-11.4-.5-16.2,.2l2.7,.3c-4.4,0-8.1,0-9.9-.6l4.5-.2c-7.3,0-11.8,0-17.9,.4h2.2c-7.8,.7-48.5,1.3-55.7,2.2l3.3,.5-6.2,.5c.7,0,3-1.8,3.6-1.6-2.5,0-7.1,0-13,0-2.8,0-5.8,0-9.1,0-1,0-2.1,0-3.2,0,0-.9,0-1.8,0-2.7,0-2.6,0-5.1,0-7.7,0-6.2,0-12.4,0-18,0-11.2,0-20.3,.1-24.1,.3-4.9,.9-.9,1-.8-.2-6-.6-2.6-.5-7.7,0-1.4,.4,.3,.5,1.1,0-2.2,.1-4.3-.1-4.5-.2,2.8-.9,1.6-1.3,2.8v-6.6c0,0,.5,.3,.5,.3,0-1.5-1.2-3.7-.9-10.1,.2-10.9,0-22.7,.1-33.6,.3,.2,.4,2.5,.6,4.8,0-1.5,0-3.7,.1-5-.5,2.6-.3-4.6-.5-2.5-1.1-8,0-18.4-.8-25.4-.9-.6-16.3-15.1-17.4-15.1,0-2.2,0-4.4,.1-5-.3,.6-.4,4.9-.2,7.2l.6,.4c.2,5.3-.4,1.2-.3,6.4-.5,.3-.6-4.5-.6-8.6,0,3.8-.4,7.5,.1,9-.2,3.5-.6-.4-.8,3.9,.1,3,.6,7,.3,10.5h0c-.5,8.4,.7,12.9,.2,20.6l-.2-.8c-.3,2.7,0,8.1-.2,13,0-1.4,.5-2.6,.5,.3-.3,5.7,0,9.5-.4,13.7l.5,4c0,7.5,0,23.2,.2,40.4,0,8.6,.1,17.5,.2,25.8,0,12.2,.1,23.6,.2,33,21.2,0,32.4-.1,39-.1h-.8c30.2-.2,92.2-.1,123.4-.8,1.2,.1,2.5,.2,3.9,.3,.3,0,.7,0,1,0,.5,0,1,0,1.6,0,1.3,0,2.7,0,4,0,5.4,0,10.8,0,15.5,.1-5.4-.2-3.8-.5,.1-.5,.2,0,.3,0,.4,0,0-13.5,0-14-.2-14.5,0-.3-.1-.6-.2-2.5,0-1.4,0-3.9-.2-8.7-.4-17.9,0-86.2,.5-102.1-.7-8.5-.2-19.2-.6-27.5l.2,.8c0-1.7,0-4.8,0-8.8,0-6.6,0-14.6,0-23.3-11.9,0-25.2-.1-36.7-.2-8.7,0-15.9,0-19.2,0h1.4c-9.1,.5-7.8-.2-15-.5,.9,.8-6.8,1.2-9.8,1.3v-.2c-4.4,.1-14.5,.8-21.9,.9l.3-.4c-6.2,.5-17.8,.3-22.2,.3-10.1-.2-25.8-.9-39.3-.4l-8.8-1.2h-1.3c0,.1-14.1,14.9,3.8,18.1l-.3,.4h3.5c4.2,.2,6.2-.3,5.9,0h-5.8c4.3,0,1.3,.3-.3,.5,1.8,0,3.5,0,4.9,.2,.8-.2-.6-.2-1.3-.3,2.3-.2,5.5-.6,8.3-.4,4.4,0,.3,.7,5.4,.7,26.9,.3,52.9,.8,80.1,.7,.6,.2-.1,.2-.9,.3,8.2-.2,15.5-.1,22.9-.3,2.1,.2,2.6,.5,3.2,.6-.5-.1,5-.2,12-.3,3.2,0,6.8,0,10.3,0,.1,0,.3,0,.3,0,0,.2,0,.3,0,.3Z"/></g></svg>