<?xml version="1.0" encoding="UTF-8"?><svg id="Layer_1" xmlns="http://www.w3.org/2000/svg" viewBox="0 0 1024 1024"><defs><style>.cls-1{fill:#ebebec;}.cls-2{fill:#ee8d24;}.cls-3{fill:#231f20;}.cls-4{fill:#202020;}</style></defs><g><polygon class="cls-1" points="15.5 94.5 970.2 4.5 1008.5 990.1 118.7 1019.5 15.5 94.5"/><path class="cls-2" d="m556.9,273.3c20.1-16.8,50.9-5.8,55.7,19.9,11.4,60.6,21.5,125.4,29.5,194,7.6,65.4,12.6,127.9,15.5,186.9,1.2,24.1-22.2,41.9-45.1,34.3-108.2-35.9-216.3-71.8-324.5-107.7-23.6-7.8-31.3-37.3-14.6-55.7,41.7-45.9,87.6-93.2,137.7-141.3,49.7-47.6,98.5-91,145.7-130.5Z"/><g><path class="cls-4" d="m685.5,617.6c8-8.4,21.4-23.3,34-37.4-10,10.6-20.4,22.1-34,37.4Z"/><path class="cls-4" d="m719.8,580c0,0,.1-.2.2-.2-.2.2-.3.3-.4.5,0-.1.2-.2.3-.3Z"/><path class="cls-4" d="m666.1,672c.3,4.7.6,10.1.9,15.5-.3-5.2-.6-10.5-.9-15.5Z"/><path class="cls-4" d="m643.3,334l-1.1-2.7c-2-11.1-3.2-17.4-3.8-21.4,0-.5-.2-.9-.2-1.4-.1-.5-.2-1-.3-1.4-.2-.9-.3-1.6-.5-2.2-.3-1.3-.5-2.1-.8-3-.3-.8-.5-1.7-1-2.7-.2-.5-.5-1.2-.8-1.9-.4-.7-.8-1.6-1.3-2.5-1.1-1.9-2.7-4.4-5.4-7.3-2.7-2.9-6.6-6.3-12.3-9.2-2.3-1-5.3-2.2-9-3-3.6-.8-7.9-1.4-12.5-1.1-2.3,0-4.7.5-7.1,1-2.4.6-4.8,1.3-7.2,2.3-1.2.5-2.3,1.1-3.5,1.7-1.1.7-2.3,1.3-3.3,2-.5.4-1.1.7-1.6,1.1l-1.5,1.2-.7.6-.6.5-1.2,1c-13.1,10.9-26,21.8-31.3,26.6,0,0-.9.7-2.3,1.9-1.4,1.2-3.3,2.8-5.2,4.4-3.7,3.2-7.4,6.3-7,5.7-4.4,4.4-15.7,13.9-25.2,22.6-3.4,3.2,2.6-2.2,5.3-4.4-7.3,6.6-14.6,13.2-21.8,19.8-8.6,7.7-10.9,9.4-1.7.9-3.6,3.2-8,7.3-13.1,11.9-2.6,2.4-5.3,4.9-8.2,7.6-1,1-2.1,1.9-3.2,3,0,0-.2.1-.2.2,0,0-.2.1-.2.2h-.1c0,.1,0,0,0,0,0-.2,0-.5,0-.7-.4-10.2-.9-21-1.4-32.4-1-23.3-2.1-48.9-3.2-75.7-.6-13.4-1.2-27.1-1.7-40.9,0-1.7-.1-3.5-.2-5.2v-2.6c-.1,0-.2-1.3-.2-1.3v-.4c0,0,0-.2,0-.2,0-.6.2-1.3.4-1.9.1-.3.3-.6.5-.8l1.5-2.1c4-5.7,8-11.4,12.1-17.2l6-8.6,3-4.3c.3-.5,1.4-2,2-3.3.7-1.3,1.2-2.8,1.6-4.3,1.4-5.9,0-12.4-3.7-17.2-3.7-4.8-9.6-7.7-15.6-7.8-3,0-6,.6-8.8,1.8-.7.3-1.3.7-2,1-.3.2-.6.4-.9.6l-.9.6-2.1,1.6c-2.8,2.1-5.5,4.1-8.3,6.2-5.5,4.1-11,8.2-16.4,12.2-5.4,4-10.7,8.1-16,12l-1,.7-.5.4c-.2.2-.2.1-.3.2-.2.2-.5.3-.7.4-.5.2-1,.3-1.5.3-.5,0-1,0-1.5-.2-.1,0-.2,0-.4-.2,0,0-.1,0-.2,0l-.5-.3-2.1-1.2c-11.3-6.1-22.1-12.1-32.6-17.7-2.8-1.5-5.5-3-8.2-4.5-2.5-1.4-5-2.7-7.5-4.1-2.5-1.4-4.9-2.1-6.8-2.2-.9,0-1.8-.1-2.7,0-.9,0-1.8.2-2.7.4-1.8.4-3.6,1.2-5.3,2.2-3.3,2.1-5.9,5.5-7,9.2-1.2,3.7-.8,7.6.3,10.7.2,1.5,2.3,3,3.8,4.5,1.6,1.5,3.1,3,4.6,4.4.8.7,1.5,1.5,2.3,2.2l.6.5.7.5c.5.3,1,.7,1.5,1,.8.5,1.5,1,2.3,1.5.4.3.8.5,1.1.8.3.2.6.5.8.6,0,0,.2.2.2.2,0,0,0,0,0,0h0s0,0,0,0c0,0,0,0,.1-.1.3-.3.7-.6,1.1-.9.2-.1.4-.3.6-.4.1-.1.3-.2.4-.3.3-.2.6-.4.9-.6h.2c0-.1.2-.2.2-.2.1,0,.2-.1.3-.2.2,0,.5-.2.7-.2.1,0,.2,0,.4,0,0,0,.1,0,.2,0,0,0,0,0,0,0,0,0,0,0,0,0,0,0-.2,0-.3,0,0,0,0,0-.1,0h0c-.1-.1,0,0,0,0,.4.2.6.4.7.5.1.2-.2-.2-.2-1.3,0-1,.2-2.6.8-4.6,0,0,.2-.8,0-.5h-.2c-.1-.2-.3-.2-.4-.3-.2-.1-.5-.3-.7-.4-.5-.3-1-.6-1.5-1-1-.7-2-1.4-2.9-2.1-1-.7-1.9-1.3-2.9-1.9-1.8-1.1-3.5-2.2-5.3-3.3-1.6-1-3.3-2.1-4.6-2.5-.9,0-1.8-.2-2.7-.2-1.8-.2-3.5-.3-5.2-.5-.4,0-.8,0-1.2-.1h-.3s-.2,0-.2,0c-.1,0-.3,0-.4,0-.6.1-1.3.4-2.1.7-1.5.6-3.2,1.6-4.7,2.8-1.4,1.3-2.7,2.8-3.5,4.4-.9,1.6-1.4,3.2-1.7,4.7.4-1.5,1-3.4,2.2-5.3,1.2-1.9,2.9-3.7,4.9-5,2-1.3,4.2-2,5.5-2.2h.3s.4,0,.4,0h.8c.5.1,1,.2,1.5.3,1,.1,2.1.2,3.1.3,1,.1,2.1.2,3.1.4.3,0,.5,0,.8.1.4.2.8.3,1.2.5.8.4,1.6.9,2.5,1.5,1.8,1.1,3.5,2.2,5.2,3.3.9.6,1.8,1.1,2.7,1.7.9.6,1.8,1.3,2.7,1.9.9.6,1.7,1.2,2.6,1.7.4.2.9.5,1.2.6-.1.3-.2.8-.3,1.2,0,.4-.2.7-.2,1.1-.3,1.3-.3,2.3-.2,3,0,.7.3.8.2.7h0s0-.1,0-.1c0,0-.1,0-.2-.2-.1,0-.2-.2-.3-.2,0,0,0,0,0,0h0c0,0,.1.1.2.1h.1s0,0,0,0h0s0,0,0,0c0,0-.3,0-.4,0,0,0,0,0-.3,0-.1,0-.3,0-.4.1-.1,0-.3.1-.4.2-.1,0-.2.1-.4.2-.4.2-.7.4-1,.6.3-.2.7-.5,1.1-.6.3-.2.5-.3.8-.4.1,0,.3,0,.4-.1,0,0,.1,0,.2,0,0,0,.1,0,.2,0,0,0,.2,0,.2,0,0,0,0,0,0,0,0,0,0,0,0,0h-.1c0,0-.1,0-.2,0,0,0-.1,0-.2,0h0s.1,0,.1,0c0,0,.2.1.3.2,0,0,.1,0,.2.1.2.2.2.2.1.1,0,0,0-.1,0-.2h0c0,0,0-.2,0-.2,0,0,0-.2,0-.3,0-.1,0-.3,0-.4,0-.2,0-.6,0-.9,0-.3,0-.8.1-1.2v-.3c0,0,.1-.4.1-.4,0-.2.1-.5.2-.7,0-.2.1-.5.2-.7v-.2c0,0,0,0,0,0,0,0,0,0,0,0-2.1-1-4.1-2.6-6.1-3.9-1.9-1.2-3.7-2.3-5.4-3.4-.8-.5-1.6-1-2.4-1.5-.8-.5-1.5-1-2.2-1.3-.3-.2-.7-.4-1-.5-.2,0-.4-.2-.5-.2h-.3c-.4-.1-.9-.2-1.3-.2-1.7-.2-3.3-.5-4.8-.7-.7-.1-1.5-.2-2.2-.3h-.5c-.2,0-.4-.1-.5-.1-.2,0-.5,0-.7.1-1.1.2-2.4.6-3.7,1.3-2.6,1.3-5,3.6-6.3,6.3-.5.7-1,1.7-1.4,3-.4,1.3-.7,2.8-.7,4.3,0,1.5.2,2.9.5,3.9.7,1.3,1.4,2.7,2.2,4.2.4.7.8,1.5,1.2,2.3l.3.6c.1.2.2.4.5.7.2.3.5.5.8.8.3.3.6.5.9.8.6.5,1.5,1.1,2.3,1.6.9.6,1.7,1.1,2.6,1.7,1.8,1.2,3.7,2.5,5.9,3.8l1.6.9,1.6,1c.5.3.8.5,1.1.8h.1c3.7-2.4,1-.6,1.9-1.2h0s0,0,0,0h0c0-.1.2-.2.3-.3.2-.1.4-.3.7-.4.1,0,.2,0,.3-.1,0,0,.1,0,.2,0,.1,0,.3-.1.5-.1,0,0,.1,0,.2,0,0,0,.2,0,.2,0,0,0,0,0-.1,0h0s0,0,0,0h0c.7.1-6.1-1.2-3.2-.6h0s.2,0,.2,0c.9.2,1.6.4,2.3.6,1.3.5,2,1.2,2.1,1.3h0c0,0,0,0,0-.1,0-.2-.1-.4-.2-.8,0-.4,0-.9,0-2,0-.5,0-1.2,0-2.3,0-.3,0,.2,0,.2h0s0,0,0,0h0s0,0,0,0c0,0,0-.1,0-.2h0c0,0,.3-1.3.3-1.3h0s0,0,0,0h-.1c0,0-.4-.4-.4-.4-1-.8-1.9-1.6-2.9-2.4-2-1.6-3.9-2.3-5.3-2.8-1.5-.5-2.6-.6-3.6-.7-2.1-.2-4.7,0-7.1,1-2.4.9-4.5,2.4-6.1,4.2-1.6,1.8-2.7,3.8-3.3,5.6-.8,2.9-.6,5.9,0,8.3.1.5.2,1,.4,1.5.2.5.3,1,.6,1.5.4,1.1,1.1,2.2,2,3.5.9,1.2,2.2,2.4,3.5,3.6l3.9,3.6c37.1,33.2,41.3,37,44.5,39.8.8.7,1.5,1.3,2.6,2.4,0,0,.1.1.2.2h.1c0,.1,0,.1,0,.1,0,0,0,0,0,0,0,0,0,0,0,0,0,0,0,.2,0,.3.2,6.4.6,17.5,1.3,38.4,1.8,49.3,3.3,72.7,4.1,100.2-.1-4.1-.3-15,.3-2.2-.3,2.2,1.5,34,1.3,40.2,0,2.5.3,6.6.4,11-2,2.1-4.1,4.2-6.1,6.3-2.7,2.8-5.2,5.4-7.1,7.4-3.8,4-5.3,5.8-1.7,2.3-5,4.7-30.2,30.9-15.4,15.1-8.5,8.8-16.7,17.4-22.6,23.9l10.9-11.3c-14.2,15-25.1,26.7-34.6,37.2-.6.7-1.2,1.3-1.8,1.9l-.9,1-.4.5-.5.6c-.7.8-1.4,1.6-2,2.4-.6.8-1.2,1.7-1.8,2.5-2.2,3.4-3.9,7.1-5,11-2.2,7.7-2.2,15.9.3,23.7-1.7-5.9-2.1-12.2-1-18.3-1.1,7.4-.2,14.7,2.2,20.9,2.3,6.3,6,11.6,10.2,15.5,4.1,4,8.7,6.7,12.7,8.4,1,.4,2,.8,3,1.2.8.3,1.6.6,2.3.8,1.4.5,2.7,1,3.9,1.5l-6-2h-.4c0-.1-.5-.3-.5-.3l-.9-.3c-.6-.2-1.2-.4-1.8-.7l-1.8-.8c-.6-.3-1.2-.6-1.7-.9-2.3-1.2-4.5-2.6-6.5-4.2-1-.8-2-1.7-2.9-2.6-.9-.9-1.8-1.8-2.7-2.8,3.8,4.4,8.3,7.8,13,10.2.6.3,1.2.6,1.8.8.6.3,1.2.5,1.8.8.6.2,1.2.4,1.8.7l.8.3.7.2c2,.7,3.9,1.3,5.8,1.9,7.6,2.5,14.7,4.9,21.6,7.1,6.9,2.3,13.6,4.4,20.3,6.7,3.4,1.1,6.8,2.2,10.3,3.3l.8.3h.2s.3.1.3.1c.2,0,.5.1.7.2-.1.3-.3.6-.4.9l.5-.9-.6-.2c.2,0,.4.1.7.2-.2.3-.3.7-.5,1.1v.2c-.2.2-.3.5-.5.7-.4.8-.8,1.5-1.2,2.3-.9,1.6-1.7,3.2-2.7,5-3.7,6.9-8,14.9-12.8,23.7-9.5,17.6-20.8,38.4-32.6,60.2-11.8,21.8-24.2,44.7-36,66.4-5.9,10.8-11.6,21.4-17,31.4-.7,1.2-1.3,2.5-2,3.7-.3.5-.6.9-1,1.2-.4.3-.9.6-1.4.7-.2,0-.5.1-.8.1-.7,0-1.3.1-2,.2-6.8.6-13.3,1.1-19.6,1.6-2.4.2-4.1.9-5.6,1.6-.6.4-1.3.7-1.9,1.1-.5.4-1.1.8-1.6,1.4-1.1,1.1-1.9,2.8-2.3,4.4-.4,1.7-.4,3.4,0,4.8.4,1.5,1,2.4,1.8,3.4.7,1,1.8,2.2,3,3.3,1.4,1.1,3.1,2,4.6,3,1.6,1,3.1,1.9,4.6,2.8,7.2,4.4,12.9,7.8,16.7,10.1l-15.7-10.2,29.7,17.9c-3.5-2.1-14.8-7.6-17.6-9.5,10.5,6.5,28.4,17.5,51.1,31.6,5.7,3.5,11.7,7.2,18,11.1,2.5,1.5,5.5,2.4,8.5,2.4,3,0,6-.8,8.6-2.3,1.3-.8,2.5-1.8,3.6-2.8.5-.6,1-1.1,1.5-1.8l.3-.5.2-.2v-.2c0,0,.5-.6.5-.6,1.1-1.6,2.1-3.3,3.2-5,8.6-13.3,17.8-27.5,27.3-42.3,37.4-57.9,80.6-125,117.3-181.8,4.7,1.6,9.3,3.1,13.8,4.6-12.6,22.9-23.8,43.4-33,60.1-.6,1.2-1.3,2.3-1.9,3.4-.3.6-.6,1.1-.9,1.7-.3.6-.6,1.2-.9,1.9-.3.6-.6,1.2-.9,1.8-.3.6-.5,1.2-.8,1.9-.3.6-.5,1.2-.8,1.8-.2.6-.4,1.2-.7,1.8-1.7,4.9-2.7,9.6-3.2,14-.9,8.8.2,16.1,1.4,21.4,1.8,7.4,3.9,11.1,4.6,13,.9,1.7.7,1.5,0,.5-.3-.5-.7-1.3-1.2-2.2-.4-.9-.9-1.8-1.3-2.7-.7-1.8-1.4-3.3-1.4-3.4,1.6,4.4,3.2,7.8,4.8,10.5.2.3.4.7.5,1,.2.3.3.5.5.8.3.5.6,1,.9,1.5.6.9,1,1.7,1.5,2.5,1.7,2.9,2.6,4.3,3.4,5.5,1.6,2.5,2.8,4.5,9.9,16.8,3.8,6.7-1.1-1.2-3.3-5,6.3,10.7,12,20.8,12.6,21.5-7.7-13.5-3.9-8.1-7-14l18.3,31.6-1.1-1.2c.3.4.5.9.8,1.4.1.2.3.4.4.7,0,.1.1.2.2.3.2.5.4,1,.5,1.6,0,.6,0,1.4-.2,2.1-.1.3-.2.6-.4.9-.1.1-.1.1-.6.6-.4.4-.7.8-1.1,1.1-1.5,1.6-3.1,3.3-5,5.2-1.9,1.9-4,4.1-6.2,6.4-.9.9-1.8,1.9-2.8,2.8-.5.5-.9,1-1.4,1.5-.4.5-.7,1-1.1,1.6-.3.5-.6,1-.8,1.6-.2.6-.5,1.2-.6,1.8-.3,1.2-.4,2.6-.2,3.9.3,2.7,1.6,5.4,3.8,7.4,1.1,1,2.4,1.8,3.8,2.3,1.4.5,2.9.8,4.8.9,1,0,2,0,3,0h2.8c1.2,0,2.5,0,3.7-.1,2.5,0,5,0,7.4-.1,5,0,10-.2,15-.3,10.1-.2,20.2-.4,30.4-.6,20.8-.4,41.7-.9,62.4-1.3,2.3,0,4.4-.6,6.3-1.5,1.9-1,3.4-2.5,4.5-4.3,1.1-1.8,1.7-3.9,1.7-6,0-2.1-.5-4.1-1.6-6.1-.5-1-1.1-2-1.7-3l-1.1-1.9c-.7-1.2-1.4-2.4-2.1-3.6-1.4-2.4-2.8-4.8-4.2-7.1-5.5-9.5-11-18.8-16.4-28.1.6.7,7.2,11.7,13.7,22.7-4.1-7.1-10.4-17.8-14.1-24.4,7.1,12.9-13.1-22-7.4-12-5.4-8.9-11.2-18.6-17-28.5-1.5-2.5-2.9-5-4.4-7.5l-.3-.4v-.2c-.2-.2-.3-.3-.4-.5-.1-.3-.2-.7-.3-1.1-.1-.7-.1-1.5,0-2.2,0-.4.2-.7.4-1,0-.2.2-.3.3-.5l.6-1,2.3-3.8c1.5-2.5,3.1-5.1,4.6-7.6,12.3-20.3,24.4-40.3,34.4-57.2.6-1,1.1-1.9,1.6-2.7,0,0,0,0,.2-.3,0,0,0,0-.1,0,0,0,0,0-.1,0,0,0,0,0,0,0,0,0,0,0,0,0,.2,0,.6.1,1.4.3.2,0,.5-.1,1-.1.2,0,.5,0,.8,0,.5,0,1.2.2,1.8.3,1.3.2,3,.5,4.8.7.9,0,1.9.2,2.9.1,1,0,2,0,3.1,0,4.2-.3,8.7-1.4,12.9-3.4,4.2-2,8-5,10.9-8.4,2.9-3.4,5-7.3,6.1-11,.5-1.9.9-3.6,1.1-5.4.1-.8.1-1.7.2-2.5,0-.8,0-1.5,0-2.3-.2-2.9-.8-4.9-1.3-7.1-.5-1.9-.8-3-.9-3-.7-12.2-1.3-24.3-1.4-28,0,1.6.3,8.4.7,16.3.2,4,.4,8.3.7,12.3,0,1,.1,2,.2,3,0,.5,0,1,0,1.5,0,.4,0,.8,0,1.1,0,1.5,0,2.8-.2,4.1v1.8c-.4,2.8-1.3,4.9-2.1,6.5-.8,1.6-1.5,2.6-2.1,3.4-1.1,1.6-1.6,2-2.1,2.5-.2.2-.5.4-.8.8-.3.3-.8.7-1.5,1.3-.7.6-1.7,1.4-3.1,2.3-1.4.9-3.3,2-6,2.9-.3,0,.7-.4,2.5-1.2,1.8-.9,4.4-2.4,7-4.9,2.6-2.5,5.1-5.9,6.5-10,.7-2,1.2-4.2,1.4-6.5.1-1.1.1-2.3,0-3.4,0-.5,0-1.3,0-2,0-.7,0-1.5-.1-2.2,0,1.3.1,2.6.2,3.9v1.5s0,1.5,0,1.5c-.1,2-.5,3.9-1.1,5.7-.6,1.8-1.3,3.5-2.2,5.1-.9,1.6-1.9,3-3,4.3-1.1,1.3-2.3,2.4-3.5,3.3-.6.5-1.2.9-1.8,1.3-.6.4-1.2.8-1.8,1.1-2.3,1.3-4.4,2.1-5.9,2.6-1.8.5-3.2.6-4.2.7-1,0-1.7,0-2.1,0-.8,0-.7,0-.7-.1,0,0,0-.1-1.2-.2-.3,0-.7,0-1.1-.1-.2,0-.5,0-.7,0-.3,0-.6-.1-.9-.2-.6,0-1.4-.3-2.2-.5-.9-.3-1.6-.5-3.2-1-2.9-.9-5.9-1.9-9-2.9-1,2.2-1.9,4.4-2.9,6.6h0c-1.4-.5-2.7-1-4.1-1.5-.7-.3-1.4-.5-2.1-.8h-.3c0-.1-.2-.2-.2,0l-.3.5-.5.9c-.7,1.2-1.5,2.5-2.2,3.7l-.3.5h0c0,.2,0,.2,0,.3l.5.4,1.8,1.8c1.2,1.2,2.4,2.4,3.7,3.6-7.8,10.3-16.2,21.6-23.9,31.9l.2-.3c-7.1,9.5-13.4,17.8-19.3,25.5-1.4,1.9-2.9,3.8-4.3,5.7-.3.5-.7.9-1,1.4,0,0,0,0-.1.2l-.2.3-.4.7c-.2.5-.5.9-.7,1.4-.8,1.9-1.3,3.9-1.4,5.9-.2,2,0,4.1.5,6,.2,1,.6,1.9.9,2.8.2.5.4.9.6,1.4l.4.7.3.5c1.1,1.9,2.3,3.8,3.4,5.7,9,15.1,17.6,29.7,28.3,48.4l-2.4-3.9c3.4,6.1,8.5,14.7,14.3,24.6,2.9,4.9,5.9,10.1,9.1,15.5.1.1,0,.3-.1.2h0s-1.7,0-1.7,0c-1.2,0-2.4,0-3.5,0,1.4,0,2.9,0,4.1,0,1.7,0,1.1,0,1.2,0,0,0,0,.1,0,.2,0,0,0,0,0,0h0s0,0,0,0h-.2c-.3,0-.7,0-1,0-1.5,0-3.4,0-5.9.2-31.6.4-53.1,1.1-76.2,1.3l-22.1.8c-3,0-6.2.1-9.7.2-.5,0-.9,0-1.4,0-.1,0-.2,0-.3,0-.2-.1-.2-.5,0-.7,2.1-2.1,4.3-4.4,6.7-6.7,1.7-1.7,3.4-3.4,5.1-5.1.6-.6,1.1-1.2,1.7-1.7.2-.2.4-.4.6-.7l.5-.8c.3-.5.6-1,.9-1.6.3-.5.5-1.1.8-1.6.2-.5.4-1,.6-1.6.3-1,.6-2.1.7-3.2.3-2.2.2-4.5-.3-6.7-.2-1.1-.6-2.2-1-3.2-.2-.5-.5-1-.7-1.5l-.4-.7-.2-.4c-1.3-2.3-2.7-4.6-4-6.9-5.5-9.4-11.3-19.4-17.4-29.9-3.1-5.2-6.2-10.6-9.4-16.1-1.6-2.7-3.2-5.5-4.8-8.3-.4-.7-.7-1.3-1.1-1.9-.3-.6-.7-1.2-1-1.8-.6-1.3-1.2-2.5-1.7-3.9-2.1-5.3-3.1-11-3.2-16.9,0-2.9.3-5.9.8-8.8.6-2.9,1.4-5.8,2.4-8.6,1.2-2.9,2.4-5.3,4.3-8.6,1.7-3.1,3.5-6.3,5.2-9.5,3.5-6.4,7-12.8,10.6-19.3,8.7-15.8,17.5-31.9,26.5-48.2-11.3-3.7-25.7-8.5-40.2-13.3-38.9,60.3-79.3,123-114.1,177.1-8.4,13.1-16.6,25.7-24.2,37.6-3.8,5.9-7.5,11.7-11.1,17.3-.9,1.4-1.8,2.8-2.7,4.1-.4.7-.9,1.4-1.3,2l-.7,1c0,0-.1.2-.2.3-.5.6-1.4,1-2.2,1-.4,0-.8,0-1.2-.3,0,0-.2,0-.3-.2l-1-.6c-.6-.4-1.3-.8-1.9-1.2-2.5-1.5-4.9-3.1-7.3-4.5-4.8-2.9-9.3-5.7-13.5-8.4-8.5-5.3-16-9.9-22.2-13.7l3.7,2.2c-9.4-5.8-19.5-12.1-30.3-18.7-3-1.9-6.1-3.8-9.3-5.7-.2-.1-.4-.2-.5-.4-.1-.2,0-.4,0-.6.1-.2.3-.3.5-.3h.6c2.9-.3,5.8-.5,8.8-.8h1.8c0-.1.9-.2.9-.2h.5s.8-.1.8-.1c2.1-.3,4.1-.9,6-1.9,1.9-1,3.6-2.3,5-3.8.7-.8,1.4-1.6,1.9-2.5.7-1.1.8-1.4,1.1-2,4.7-8.6,9.5-17.4,14.4-26.4,9.8-18,20-36.7,30.5-55.8,22.3-40.9,45.7-83.7,69.2-126.6-24.8-8.2-49.6-16.4-74.1-24.6l-4.1-1.3-1.6-.6c-.5-.2-1-.4-1.5-.7-2-.9-3.9-2.1-5.6-3.5-3.4-2.8-6.1-6.5-7.8-10.6-1.7-4.1-2.3-8.6-1.9-13,.4-4.4,1.9-8.5,4.4-12.1.3-.5.6-.9.9-1.3.3-.4.7-.9,1-1.3l.5-.6.7-.8,1.4-1.5c1.8-2,3.7-4,5.5-6,3.7-4,7.3-8,11-11.9,7.3-7.9,14.5-15.6,21.6-23.1,7.1-7.5,14.2-14.9,21.1-22,3.5-3.6,6.9-7.1,10.3-10.6,4.1-4.2,8.2-8.4,12.3-12.5-1.5-39.3-2.7-70-3.7-96.8-.6-26.9-2-64-2.9-92,.4,15.6,0,10.3-.5-1.9,0-.7,0-1.3,0-2,0-.7,0-1.1-.1-2.4-.2-2.2-.9-4.3-2-6.2-.5-.9-1.1-1.8-1.8-2.5-.3-.4-.7-.8-1-1.1-.3-.2-.5-.5-.8-.7-.8-.7-1.6-1.5-2.4-2.2-3.1-2.8-5.7-5.2-8-7.2-4.6-4.1-7.7-7-9.9-8.9-4.4-3.9-5-4.4-5.6-4.9s-1.2-1-5.7-5c-2.2-2-5.5-4.9-10.1-9.1-1.1-.9-2.3-2-3.7-3.3-.3-.3-.8-.6-1.1-1.1-.3-.5-.3-1.2,0-1.7.3-.5.8-.9,1.6-.9.4,0,.8.1,1.1.4.3.3.7.6,1.2.9,0,0,.2,0,.3.1,0,0,.3,0,.4.1,0,0,0,0,.2,0h.3c0,0,.7.2.7.2,1,0,1.6.2,3.4,0,.9-.1,2.1-.5,3-1.1,1-.6,1.8-1.4,2.3-2.1,1.1-1.5,1.5-2.7,1.7-3.7,0-.3.1-.5.2-.7,0-.4,0-.7.1-1.1s0-.7,0-1.1c0-.4,0-.7-.1-1.1,0-.4-.1-.7-.2-1.1,0-.3-.2-.6-.3-.9-.1-.3-.2-.6-.4-.9-.1-.3-.3-.5-.4-.8l-.4-.7v-.2c-.1,0-.1,0-.2,0h0c0,0-.1-.3-.1-.3h0c0,0,0-.1,0-.1-.7-.7-1.7-1.1-2.6-1.7-.5-.3-.9-.6-1.4-.9-.5-.3-.8-.9-.9-1.5,0-.6.2-1.2.7-1.6.5-.4,1.2-.5,1.8-.3.6.2,1.1.7,1.7,1,.6.3,1.1.7,1.7,1.1.3.2.6.4.9.6.2,0,.3.2.5.2,0,0,0,0,0,0,.2,0,.6.2.9.2.7.2,1.5.3,2.5.3,1,0,2.1,0,3.5-.6,1.3-.5,2.6-1.4,3.4-2.4.5-.5.8-1,1.1-1.5.3-.5.5-1.1.7-1.7,0-.3.2-.6.3-.9,0-.3.1-.6.1-1,0-.6.1-1.3,0-1.9,0-.6-.2-1.2-.3-1.7-.2-.5-.3-.9-.5-1.4-.2-.5-.4-.8-.6-1.1-.2-.3-.4-.7-.6-1l-.6-.8c-.2-.3-.4-.4-.6-.7-.4-.4-.8-.8-1.2-1.1-1.6-1.3-3-2.3-4.3-3.1-.3-.2-.6-.4-.9-.6l-.9-.7c-.3-.2-.6-.4-.9-.7-.5-.6-.5-1.5-.1-2.2.4-.7,1.2-1.1,2-1,.4,0,.8.2,1.1.4l1.1.6c1.9,1.1,3.9,2.1,5.8,3.2,5.7,3.1,11.5,6.3,17.4,9.5,5.9,3.2,11.8,6.4,17.8,9.7l2.2,1.2c1.1.6,2.3,1.1,3.5,1.5,2.5.8,5.1,1,7.7.8,2.6-.3,5.1-1.1,7.4-2.4.6-.3,1.1-.7,1.7-1l.4-.3.3-.2.5-.4,2.1-1.6c11.1-8.3,22.3-16.7,33.5-25.1,2.8-2.1,5.5-4.1,8.3-6.2,1.2-.9,2.9-1.1,4.4-.7.7.2,1.4.6,2,1.1.6.5,1,1.2,1.3,1.9.6,1.4.4,3.1-.4,4.4-8,11.4-16,22.8-23.9,34.1-1.4,2.2-2.3,4.6-2.8,7.1-.2,1.3-.4,2.5-.3,3.8,0,.7,0,1.1,0,1.5v1.3c.2,3.4.3,6.8.5,10.2.3,6.8.6,13.5.9,20.2,1.1,26.6,2.2,52,3.2,75.1,1.1,26.5,2.1,50.5,3,70.8.2,4,.3,7.9.5,11.7v1.4c0,0,0,.7,0,.7l.5-.5c.7-.6,1.4-1.3,2-1.9,1.4-1.3,2.7-2.5,4-3.8,5.3-5,10.3-9.7,15.1-14.1,3.1-2.9,6.1-5.6,8.8-8.1,2.3-2.1,4.4-4.1,6.4-5.8,17.2-16.2,37-34.1,57-51.5,10-8.7,20-17.3,29.8-25.6,4.9-4.1,9.7-8.2,14.4-12.2l.9-.7.4-.4.4-.3c.5-.4,1-.8,1.5-1.1,1-.7,2.1-1.4,3.1-1.9,2.1-1.1,4.4-2,6.7-2.5l-1.8.5-1.8.7c2.3-.9,5.5-1.7,9.4-1.7,3.9,0,8.5.8,13.1,3.1,4.5,2.3,9,6.2,11.7,11.7.4.7.6,1.4,1,2.1.3.7.6,1.5.8,2.2.2.8.5,1.5.6,2.3,0,.4.2.8.3,1.2,0,.5.2,1,.3,1.5.7,4,1.5,8.1,2.3,12.3,3.1,16.9,6.3,35.7,9.5,55.4,3.2,19.7,6.3,40.4,9.2,61.2,1.4,10.4,2.8,20.8,4.1,31.2.6,5.2,1.3,10.3,1.9,15.4.6,5.3,1.3,10.6,1.9,15.9,1,9,2,17.8,3,26.6.1,1.1.2,2.2.4,3.3l.2,1.6v.8c.2-.1.5-.4.6-.6,1.5-1.6,2.9-3.2,4.4-4.8,2.9-3.2,5.8-6.4,8.7-9.6,7.9-8.7,15.5-17.1,22.8-25,23.8-26.2,43.1-47.4,52.8-58.1l-5.3,5.7c16.9-18.8,24.3-26.9,30.9-33.9,1.6-1.8,3.2-3.4,4.9-5.2.8-.9,1.7-1.8,2.6-2.7.2-.2.6-.6.9-1,.3-.4.6-.8.9-1.2.6-.8,1.1-1.7,1.6-2.7,1-1.9,1.7-4.2,2-6.6.2-1.7.3-3.5.5-5.4.3-3.7.7-8,1.1-12.9-.5,2.6,0-6.9.9-19.2,0-.8.1-1.5.2-2.3v-.6c0-.2,0-.5,0-.5,0-.2,0-.4,0-.5.1-.7.4-1.4.8-2,.8-1.3,2.2-2.1,3.7-2.3,1.5-.2,2.9.2,4,1,1.1.8,1.7,1.8,2,2.8,0,0-.1-.2-.2-.2,0,.2.1.3.2.5,0,0,0,0,0,.2v.3c.1.2.2.4.2.6.2.8.4,1.7.6,2.5.4,1.7.9,3.6,1.3,5.5,1,3.9,2,8.2,3.1,12.8,2.2,9.2,4.8,19.6,7.4,30.5l.2,1c0,.3.1.6.3,1.2.3,1,.6,2,1.1,2.9.9,1.9,2.1,3.6,3.5,5.1,1.5,1.5,3.2,2.8,5,3.7.9.5,1.9.9,2.9,1.2.5.2,1,.3,1.5.4h.6c0,.1.5.2.5.2,5.7,1.1,11.4,2.2,17,3.3,10.6,2.1,21,4.1,30.5,5.9-.2,0-.5.1-.7.2.9.1,1.8.3,2.8.5,1,.1,2,.8,2.3,1.9.4,1,0,2.3-1,3-.5.3-1.1.5-1.7.5-.6,0-1.2,0-1.8-.1-.6,0-1.2,0-1.8-.1h-1.1c0-.1-1.5-.3-1.5-.3-1.1,0-2.2-.1-3.5,0-1.3.1-2.8.2-4.8,1.1-.3.1-.5.3-.8.4-.2.1-.5.3-.8.5-.5.4-1,.8-1.5,1.4-1,1.2-1.5,2.5-1.7,3.8-.3,1.2-.2,3.1.5,4.6.7,1.5,1.7,2.6,2.6,3.2.9.7,1.7,1.1,2.4,1.4h.2c0,0,0,.1,0,.1h.1s.2.1.2.1c1.2.3,2.5.3,3.7.5,1.2.2,2.4.3,3.6.5,1.2.3,1.9,1.5,1.9,2.6,0,1.1-.8,2.2-1.8,2.5-.5.2-1,.2-1.5.1-.5,0-1-.1-1.4-.2-.9-.1-1.8-.2-2.6-.3-.9-.2-1.7-.3-2.4-.2,0,0-.1,0-.3,0h-.2c0,0,0,0-.4.1-.4.1-.9.3-1.3.5-.5.2-.9.5-1.4.8-.9.6-1.9,1.5-2.5,2.5-.2.2-.3.5-.5.7,0,.2-.2.4-.3.6-.2.4-.4.9-.6,1.4-.3,1.1-.6,2.6-.1,4.5.2.9.7,1.9,1.3,2.6.5.7,1,1.1,1.4,1.5.7.6,1.4,1,2.2,1.4.2,0,.2,0,.3.1h.2c0,.1.1.2.2.2.6.2,1.3.2,1.9.2.6,0,1.3,0,1.9.5.5.4.9,1,1,1.7,0,.7,0,1.4-.5,2-.4.5-1.1.9-1.8,1-.7,0-1.4,0-2.2,0-16.1.6-33.3,1.2-51.2,1.9-2.4,0-4.8.2-7.2.3h-1.8c0,0-.9.1-.9.1h-.5s-.8,0-.8,0c-2,.2-4,.8-5.8,1.8-.9.5-1.7,1.1-2.5,1.7-.7.6-1.6,1.6-1.9,1.9l-2.4,2.7c-1.6,1.8-3.3,3.6-4.9,5.4-6.5,7.3-13.1,14.6-19.7,21.9-13.1,14.7-26.2,29.3-38.7,43.4l-33.2,35.7-4.7,5.4s-44.2,65.9,24.1-6.8l-.8,1.4,13.1-14.7c15.9-17.5,22.9-25.9,22.1-24.5l-21.7,24.1c15.9-17.7,5-5.2-.9,1.7,6.6-7.4,13.1-14.5,18.4-20.4,3-3.6-2.4,2.5-4.9,5.2,8.4-9.6,20.1-23.1,30.6-34.6,16.3-18.1,1.4-.8,20.4-22,4.1-4.6,8.3-9.2,12.4-13.8l1.4-1.6c0,0,.2-.1.3-.2.2-.1.4-.2.6-.2,3.1-.1,6.1-.2,9.2-.4,12.3-.5,24.6-1,36.9-1.4,7.6-.3,15.2-.6,22.8-.9,1.4,0,3,0,4.2-.4.7,0,1.2-.3,1.8-.4.5-.2,1.1-.4,1.5-.6,1.9-.8,3.2-1.6,4.6-2.9,1.4-1.2,2.7-2.9,3.6-4.8.9-1.9,1.4-4.1,1.4-6.2,0-2.2-.4-4.3-1.2-6.2-.8-1.9-2-3.6-3.3-4.9-.6-.6-1.3-1.2-1.9-1.6-.6-.4-1.3-.9-2.2-1.3-.8-.4-1.8-.8-3.1-1.2-1.3-.4-2.9-.6-4.7-.6-.9,0-1.8,0-2.6,0h-.5s-.4,0-.4,0h0s0,0,0,0c.4-.7-.5,1-.4.8h0s0,.1,0,.1c0,.1,0,0,0,0h0s0,0,0,0c0,0,.4-.5,0,0l-.3.4c-.8,1-1.2,1.5-1.6,1.9-.7.8-1,1.1-1.3,1.3-.1,0-.2.2-.3.2,0,0,0,0,0,0,.1,0,.6-.1,1.4,0,.8.2,1.8.5,2.8,1.1l.4.2h.2c-5.7-3.1-1.6-.8-2.9-1.5h0s0,0,0,0,0,0,0,0h0s0,0,0,0c0,0,.1.1.1.2.1.1.3.4.3.5,0,.1,0,.2.1.3,0,.2.2.3.2.5s.1.3.2.5v.2c.3.9-.5-1.8.6,1.9h0s.1,0,.1,0h.9c0,0,.2,0,.2,0h.3s.6.1.6.1c.8.1,1.7.3,2.6.4.9.2,1.7.2,2.5.4l9.1,1c.7,0,1.4,0,2,.1.6,0,1.2,0,1.8-.1.3,0,.5,0,.6-.2l.5-.2,1-.4,4-1.5,2-.7h.2c0,0,.2-.2.2-.2.1,0,.2-.1.3-.2.2-.2.5-.4.7-.6,1-.9,2.2-2.2,3.2-3.8.9-1.6,1.7-3.6,1.9-5.6.3-2,.1-4.1-.4-6-.5-1.9-1.3-3.5-2.1-4.7-.4-.6-.8-1.1-1.1-1.4l-1.9-1.2-3.8-2.4-1.9-1.2-.5-.3c-.3,0-.6-.2-.9-.3-.6-.2-1.3-.3-2-.4l-9.3-1.3c-1.6-.2-3.5-.3-5.2-.5-.9,0-1.7-.2-2.5-.3-.2,0-.4,0-.6-.1h-.3c0-.2,0,0-.1.2l-.4.9c-.1.3-.3.6-.5.9-.5,1-1.1,1.8-1.6,2.2-.4.4-.7.5-.6.5,0,0,0,0,.1,0,0,0,.2,0,.3,0,0,0,.3,0,.4,0,0,0,.1,0,.2,0h-.1c-.1,0-.3-.1-.4-.2,0,0,0,0,0,0,.1,0,.3.3.4.4,0,0,.2.2.2.4,0,.2.2.3.2.5,0,.2.4.8.5,1.3,0,.2.1.5.2.7,0,.3.2.6.2.9v.5c.1,0,.2.2.2.2,0,0,0,.2,0,.2,0,0,0,0,0,0,0,0,0,0,.1,0,0,0,.1,0,.2,0,0,0,.2,0,.3,0,.5,0,1,0,1.7.1l3,.4c3.1.3,6.2.4,9.4.7l5.2-.9,2.6-.4c.7-.3,1.3-.6,1.9-.9,2.5-1.4,4.8-3.8,6.3-6.7,1.4-2.9,2-6.3,1.5-9.5-.5-3.2-2-6.2-4-8.3-1-1.1-2-1.9-3.3-2.8-1.3-.8-3-1.7-5-2.2-2.1-.5-4.3-.9-6.5-1.3l-5.4-1.1c-4.5-.9-9-1.8-13.4-2.7-9-1.8-17.9-3.6-26.9-5.4l-3.4-.7-1.7-.3-.8-.2c0,0-.2,0-.3,0-.8-.2-1.5-.7-2-1.2-.3-.3-.5-.6-.7-1-.1-.2-.2-.4-.2-.6,0,0,0-.2,0-.3h0c0-.1,0-.2,0-.2v-.2s-1.6-6.7-1.6-6.7c-2.1-8.9-4.2-17.9-6.4-26.8-1.1-4.5-2.1-9-3.2-13.5l-1.6-6.7-.2-.6-.2-.7c-.1-.5-.3-.9-.5-1.4-.2-.5-.4-.9-.6-1.4-.2-.4-.4-.9-.7-1.3-1-1.7-2.2-3.3-3.6-4.6-2.9-2.7-6.6-4.5-10.5-5.1-2-.3-3.9-.3-5.9,0-2,.3-3.9.8-5.7,1.7-3.6,1.7-6.6,4.4-8.7,7.8-1,1.7-1.8,3.6-2.3,5.5-.2,1-.4,1.9-.5,2.9l-.2,1.8c-.8,9.3-1.5,18.5-2.3,27.8-.4,3.4,0-.7.2-5-.4,5.5-.9,10.8-1.3,16.1,0,.5-.2,1-.5,1.5-.1.2-.3.5-.4.7,0,.1-.2.2-.2.3l-.5.5c-1.8,2-3.7,4.1-5.5,6.1-7.3,8-14.5,15.9-21.5,23.7-14.1,15.6-27.9,30.8-41.9,46.2-7.9,8.4-10.1,10.6-12.5,13.1.6-.6-1.4,1.6-5.2,5.9-2.9,3.2-7.3,8-12.6,13.9,0,0,0,.1-.1.2h0c0,0,0,0,0,0,0,0,0-.1,0-.2h0c-.2-1.7-.4-3.3-.6-5-1.6-13.5-3.5-28-5.4-42.6-3.9-29.2-8.4-58.6-12.1-80.9-3.7-22.3-6.4-37.6-6.6-38.5Z"/></g><circle class="cls-3" cx="504.9" cy="428.4" r="8.3"/><circle class="cls-3" cx="589.6" cy="473.7" r="8.3"/><path class="cls-3" d="m492.5,457l83.7,45.1c14.7,7.9,15.8,28.6,2.1,38-17.2,11.8-43.2,21-76.4,7.9-36.4-14.3-43.2-46.8-42.3-72,.6-16.6,18.2-26.9,32.9-19Z"/><path class="cls-3" d="m546.2,391.6c-6.3-5.2-13.8-8.8-21.8-10.3-9-1.8-18.2-1.3-27.2.6s-4,3.5-3.3,5.8,3.2,3.8,5.8,3.3,2-.4,3.1-.6,1.1-.2,1.7-.3c1-.1-.5,0,.6,0,1.9-.2,3.8-.4,5.7-.4s4.1,0,6.2.1,1.9.2,2.8.3c-.9-.1.5,0,.6.1.5,0,1,.2,1.4.3,1.7.3,3.4.8,5.1,1.3s1.6.5,2.4.8.8.3,1.2.5c.5.2.5.2,0,0,.2,0,.4.2.6.3,1.6.7,3.1,1.5,4.6,2.4s1.4.9,2.1,1.4.7.5,1,.7c-.8-.6.5.5.7.6,1.9,1.6,4.8,2,6.7,0s2-5,0-6.7h0Z"/><path class="cls-3" d="m600.6,401.9c3.4,1.6,6.7,3.5,9.8,5.6s1.4,1,2.1,1.5c.2.2.5.3.7.5-.3-.3-.4-.3-.1,0,.4.3.8.6,1.2,1,1.4,1.1,2.7,2.4,3.9,3.7s1.2,1.3,1.8,2,.5.6.8,1,.9,1.1.3.4c1.1,1.4,2.1,2.9,3,4.5s.8,1.5,1.2,2.2.4.9.6,1.3c.1.3.1.3,0-.2.1.3.2.5.3.8.7,1.7,1.2,3.4,1.6,5.2s3.5,4,5.8,3.3,3.9-3.2,3.3-5.8c-3.6-16.2-17-27.8-31.4-34.8-2.2-1.1-5.2-.7-6.4,1.7s-.7,5.3,1.7,6.4h0Z"/></g><path class="cls-2" d="m497.7,528.9c6.3,4.5,9.1,4.1,10.1,3.8,3.6-.8,6.6-4.3,6.8-7.6.3-3.7-1.3-7.3-2.9-10.7-4.9-10.3-10.6-20.6-19.1-28.3-2.3-2.1-5.1-4-8.2-4-.1,0-2.7.1-4.4,1.5-5.5,4.4-1.1,20.5,4.8,31,.7,1.3,4.8,8.4,12.9,14.2Z"/></svg>