<?xml version="1.0" encoding="UTF-8"?><svg id="Layer_1" xmlns="http://www.w3.org/2000/svg" viewBox="0 0 1024 1024"><defs><style>.cls-1{fill:#ebebec;}.cls-2{fill:#fff;}.cls-3,.cls-4{fill:#ee8d24;}.cls-4{stroke:#ee8d24;stroke-miterlimit:10;stroke-width:17.3px;}</style></defs><polygon class="cls-1" points="14.7 30.2 1025.1 78.2 1025.1 918.4 0 993.8 14.7 30.2"/><g id="RKPM06"><path class="cls-4" d="M502.9,775.2c-2.2-.4-4.4-.7-6.5-1.1-79.4-13.2-158.8-26.5-238.3-39.7-9.7-1.6-11-2.4-10.7-12.5,.4-15,.5-30.1,2.7-44.9,7-48.1,14.2-96.1,22.6-144,15.4-87.7,44.9-253.7,60.8-341.3,1.7-9.2,2.5-18.5,3.3-27.8,.4-5,4-5.6,7.2-5.7,10.7-.3,21.6-.8,32.2,.3,67.6,7.4,134.1,21.3,200.8,33.9,35.1,6.7,70.4,12.9,105.6,19.3,2.2,.4,4.4,.7,6.7,.7,8.5,.2,10.3,.8,10.2,9.6-.2,16.6-.4,33.4-3,49.7-5.7,36.3-25.6,151-32.4,187.2-6.2,33.2-13.2,66.2-19.3,99.4-1.9,10.3-2.3,20.8-3.3,31.2-6.3,.8-12.7,1.5-17.8,2.2-.5-46.3,13.4-90.9,22.6-136.2,7-34.5,27.6-147.4,28.1-182.7,.2-11.2-1.5-22.7-4.2-33.5-2.7-11-9.8-14.2-21-14.2-8.3,0-16.7-.9-24.8-2.5-37.4-7.6-74.8-15.9-112.2-23.5-35.9-7.3-71.8-14.7-108.4-16-12.2-.4-24.7,1-36.8,3-10.4,1.8-16.1,8.4-18,19.9-20.9,127.6-55.3,333.7-76.7,461.2-1.8,10.4,.8,18.9,9.4,23.7,10.8,6.1,22.4,11.7,34.3,15,36,10,73.2,12.6,110.2,16.9,17.5,2,34.9,5,52.3,8.1,2.5,.4,5.4,3.5,6.4,6.1,5.2,12.9,9.1,26.5,18.3,38.2Zm-79.7-21.3c0,.4-.1,.9-.2,1.3,8.4,1.4,16.8,3,25.2,4.1,3.9,.5,8.2,.4,12-.5,2.1-.5,4.5-3.2,5-5.3,.4-1.7-1.4-4.9-3.2-5.9-4.2-2.3-8.8-4.8-13.4-5.2-17.3-1.7-34.7-2.7-52-3.9-3.3-.2-6.3,.5-6.7,4.5-.4,4,1.9,5.8,5.7,6.4,9.2,1.4,18.4,3,27.6,4.6Z"/><path class="cls-3" d="M503.7,654.1c5.6,10.1,10.3,19.4,15.9,28.2,1.6,2.5,5.8,5.1,8.2,4.6,2.3-.5,5-4.7,5.5-7.6,.8-4,.6-8.6-.8-12.4-10.8-27.6-22.5-54.8-33-82.5-6.2-16.3-11.1-33-16.2-49.7-1.2-4-1.2-8.4-1.1-12.6,.1-4.8,3.1-6.3,7.5-4.8,5.2,1.8,9.4,4.5,11.3,10.1,5.8,17.5,11.5,35.1,17.8,52.4,5.2,14,11.1,27.8,16.9,41.5,2.6,6.3,9,7.2,13.7,2.3,1.5-1.6,2.9-3.4,4.2-5.2,4.4-6.4,10.7-9,18.1-9.4,3.7,7.4,7.3,9.5,13.3,5.4,10.9-7.5,22-4.9,33.4-2.7,4.3,.8,8.8,1.4,13.1,1,13.6-1.3,19.1,1,25,13.5,9.6,20.4,18.9,40.9,27.7,61.6,4,9.4,.4,18.9-2.2,28-2.8,9.5-6.4,18.8-9.9,28.1-.6,1.7-2.1,3.7-3.7,4.3-22.7,8.8-45.3,18-68.3,25.9-16.2,5.6-33.1,7.9-50.3,3.6-12.5-3.1-23-9.4-30.7-19.5-15.7-20.6-27-43.4-31.8-69-1.1-5.9-1.1-12.1-.4-18.1,1.3-10.5,7.2-15.8,16.6-17.2Z"/><g><path d="M729.8,262.9c13.4,3.4,19,13.2,21.4,25.2,5.2,26.3,1,51.3-12.5,74.5-6.1,10.6-14.7,17.9-28.4,16.7-1,6.1-15.1,90.5-16.1,96.4,21.4,10.9,27.4,23.5,22.7,47.5-3.9,19.7-15.3,29.7-36.8,31.2-3.3,19.7-6.6,39.6-9.7,58.4,6,9.3,12.9,18.1,17.7,27.9,8.5,17.5,16.3,35.4,23.4,53.5,5.6,14.3,5.2,28.9-1.4,43.2-4.6,10.1-6.2,21.1-4.8,32.2,1.2,9.6,2.5,19.3,5,28.7,3.1,11.5,1.2,21.6-8.4,28.3-9.6,6.6-20.1,12.2-30.9,16.6-17.6,7.1-35.8,13-53.8,19.2-10.9,3.8-22,1-29.2-9.1-5.3-7.5-9.4-16.1-12.8-24.7-1.8-4.5-3.8-6.2-8.4-6.9-101.5-16.8-202.9-33.7-304.4-50.6-16.3-2.7-26.1-11.9-27.9-26.2-.3-2.8-.2-5.7,.4-8.4,3.2-16.1,7.5-32,9.9-48.3,12.7-86.9,24.2-174,37.7-260.7,7.1-45.1,30.1-168.3,39.9-213,3.5-15.7,10.3-30.7,16-45.9,1.6-4.3,4.5-8.2,7.3-11.8,5.4-6.8,9.5-7.1,17.5-3.6,5.5,2.4,11.4,4.6,17.4,5.4,36,4.8,72.1,9.4,108.2,13.7,52.1,6.2,104.3,11.7,155.5,23.2,22.2,5,44.2,10.7,64.5,21.5,3.4,1.8,6.7,3.8,9.9,6,15.8,11.2,18.7,21.5,11.1,39.9Zm-220.8,388.7c-.5-1.4-1.1-3-1.6-4.5-11.9-31.8-23.7-63.5-35.8-95.2-.7-1.8-3.5-3.6-5.6-3.9-13.6-2.2-27.5-3.1-41-6.2-13.8-3.1-27.1-8.1-40.5-12.7-2.2-.8-3.5-4-5.2-6.1,2.3-1.4,4.5-4,6.8-4.1,9.9-.5,19.9-1.3,29.7,0,17.1,2.1,34.1,5.3,51.1,8.5,4.3,.8,6.7,.4,9.5-3.5,6.7-9.5,16.4-12.9,27.9-10.6,11.3,2.2,19,9,23.1,19.6,1.7,4.3,4,5.8,8.3,6.4,8.5,1.1,16.9,2.6,25.3,4.2,5.3,1,11.6,6.9,11.2,10.7-.7,6.5-6.3,6.6-10.9,7.6-3.1,.6-6.5,.8-9.7,.6-4.5-.4-8.9-1.4-14-2.2,7.3,19.5,14.2,38,21.2,56.8,9.3-5.1,18.4-5.1,27.5,0,.8,.4,2,.9,2.7,.7,7.7-2.6,15.4-5.4,22.2-7.8,1.6-9.6,3.2-19.6,4.9-29.5,11.4-66.3,36.2-211,47.2-277.4,1.9-11.3,1.2-23,1.2-34.6,0-2.1-2.5-5.6-4.2-5.9-17.4-2.9-35-4.8-52.3-7.9-58.6-10.6-117.1-22-175.7-32.2-14.1-2.5-28.7-1.9-43.1-2.4-6.3-.2-9.4,2.8-10.5,9.7-20.7,125.8-54.7,330-75.9,455.7-1.1,6.5,.6,9.7,6.3,11.4,10.3,3.1,20.5,6.9,31,8.7,47.7,7.9,95.5,15.2,143.3,22.7,.5,0,1-.2,2-.4-2.7-7.5-5.6-14.6-8-21.9-5.7-17.4-.4-34.1,14.6-44.6,5.1-3.6,11-6,17.1-9.2Zm4.6,141c-9.2-11.7-13.1-25.2-18.3-38.2-1-2.5-3.9-5.7-6.4-6.1-17.4-3.1-34.8-6-52.3-8.1-36.9-4.3-74.2-6.9-110.2-16.9-11.9-3.3-23.5-8.9-34.3-15-8.6-4.8-11.1-13.3-9.4-23.7,21.5-127.5,55.9-333.6,76.7-461.2,1.9-11.5,7.5-18.2,18-19.9,12.1-2.1,24.6-3.5,36.8-3,36.7,1.3,72.6,8.7,108.4,16,37.4,7.6,74.8,15.9,112.2,23.5,8.1,1.7,16.5,2.5,24.8,2.5,11.2,0,18.3,3.2,21,14.2,2.7,10.9,4.4,22.4,4.2,33.5-.5,35.3-21.1,148.3-28.1,182.7-9.2,45.4-23.2,89.9-22.6,136.2,5.1-.6,11.5-1.4,17.8-2.2,1.1-10.4,1.4-21,3.3-31.2,6.2-33.2,13.1-66.2,19.3-99.4,6.8-36.2,26.7-150.8,32.4-187.2,2.5-16.3,2.8-33.1,3-49.7,0-8.8-1.7-9.4-10.2-9.6-2.2,0-4.5-.3-6.7-.7-35.2-6.4-70.4-12.7-105.6-19.3-66.7-12.7-133.2-26.6-200.8-33.9-10.6-1.2-21.5-.6-32.2-.3-3.2,0-6.8,.7-7.2,5.7-.8,9.3-1.7,18.6-3.3,27.8-15.9,87.6-45.3,253.6-60.8,341.3-8.4,47.8-15.6,95.9-22.6,144-2.2,14.8-2.3,29.9-2.7,44.9-.2,10.1,1,10.9,10.7,12.5,79.4,13.2,158.8,26.5,238.3,39.7s4.4,.7,6.5,1.1Zm.7-121c-9.3,1.4-15.3,6.7-16.6,17.2-.7,5.9-.7,12.2,.4,18.1,4.8,25.6,16.1,48.4,31.8,69,7.7,10.2,18.3,16.5,30.7,19.5,17.2,4.2,34.1,2,50.3-3.6,23-7.9,45.6-17.1,68.3-25.9,1.6-.6,3-2.6,3.7-4.3,3.5-9.3,7.1-18.6,9.9-28.1,2.7-9.1,6.2-18.6,2.2-28-8.9-20.7-18.1-41.2-27.7-61.6-5.9-12.5-11.4-14.9-25-13.5-4.3,.4-8.8-.2-13.1-1-11.4-2.2-22.5-4.8-33.4,2.7-5.9,4-9.6,1.9-13.3-5.4-7.4,.4-13.7,3.1-18.1,9.4-1.3,1.8-2.7,3.6-4.2,5.2-4.8,5-11.1,4-13.7-2.3-5.8-13.8-11.8-27.5-16.9-41.5-6.4-17.3-12-34.9-17.8-52.4-1.9-5.6-6.1-8.4-11.3-10.1-4.4-1.5-7.4,0-7.5,4.8,0,4.2-.1,8.7,1.1,12.6,5.1,16.7,10,33.4,16.2,49.7,10.6,27.7,22.2,54.9,33,82.5,1.5,3.7,1.6,8.4,.8,12.4-.6,2.9-3.2,7.1-5.5,7.6-2.4,.5-6.7-2.2-8.2-4.6-5.6-8.8-10.3-18.2-15.9-28.2Zm170.2,114.2c-5.3,0-6.4,2.5-6.4,6.7,0,5.7-.7,11.4-1.8,16.9-.4,1.8-2.9,3.2-4.4,4.8-1.3-1.8-3.5-3.4-3.7-5.3-.5-5.6-.3-11.2-.3-18.6-3.5,2.7-8.3,4.6-8.6,7-1.1,9.3-.7,18.7-.8,27.8,8.8-3,17.4-6,26-9,5.7-2,8.3-6,6.7-11.7-1.7-6.2-4.2-12.2-6.5-18.5Zm-53,19.2c-3.8,1.4-7,2.1-9.4,3.7-1.8,1.2-3.9,3.6-4,5.5-.4,8.8,0,17.6,0,26.8,3.3-.9,6.9-1.8,10.5-2.7-3.7-11.7,.2-22,3-33.3Zm98.1-475c-12.6,5.6-17.7,15.9-14.9,30.1,10.4-7.7,11.5-19,14.9-30.1Zm-124.9,510.3c-.5-8.1-1-16.2-1.5-25.5-3.6,2.3-8.7,3.6-9.7,6.4-2.6,7,4,16.6,11.2,19.1Zm44.2-42.7c-2.7,2-6.5,3.4-6.6,5.1-.8,9.9-.8,20-1.1,30.9,2.8-1.3,4.5-2.1,6.2-2.9-.6-.2-1.1-.4-1.7-.6,1-10.3,2.1-20.6,3.2-32.5Zm35.9-264.2c7.8,0,14.5-11.1,12.1-19.9-11.5,4.5-12.1,5.4-12.1,19.9Zm47.9-227.5c-12,4.1-12.6,5.1-12.9,17.4,3.7-1,7.3-2,11.4-3.1,.5-4.4,.9-8.9,1.5-14.3Z"/><path class="cls-2" d="M508.9,651.6c-6.1,3.3-12,5.7-17.1,9.2-15,10.5-20.3,27.2-14.6,44.6,2.4,7.3,5.2,14.4,8,21.9-.9,.2-1.5,.5-2,.4-47.8-7.5-95.6-14.8-143.3-22.7-10.5-1.7-20.7-5.6-31-8.7-5.7-1.7-7.4-4.9-6.3-11.4,21.2-125.7,55.2-329.9,75.9-455.7,1.1-6.9,4.3-9.9,10.5-9.7,14.4,.5,29,0,43.1,2.4,58.7,10.3,117.1,21.6,175.7,32.2,17.3,3.1,34.9,5,52.3,7.9,1.8,.3,4.2,3.9,4.2,5.9,0,11.5,.7,23.3-1.2,34.6-11,66.4-35.8,211.1-47.2,277.4-1.7,9.9-3.3,19.9-4.9,29.5-6.8,2.4-14.5,5.2-22.2,7.8-.7,.3-1.9-.2-2.7-.7-9.1-5-18.2-5.1-27.5,0-7-18.7-13.9-37.2-21.2-56.8,5.2,.9,9.6,1.9,14,2.2,3.2,.3,6.5,0,9.7-.6,4.6-.9,10.3-1.1,10.9-7.6,.4-3.8-5.9-9.7-11.2-10.7-8.4-1.6-16.8-3.1-25.3-4.2-4.3-.6-6.6-2.1-8.3-6.4-4.1-10.5-11.9-17.3-23.1-19.6-11.4-2.3-21.1,1.1-27.9,10.6-2.8,3.9-5.2,4.3-9.5,3.5-17-3.1-34-6.4-51.1-8.5-9.8-1.2-19.8-.4-29.7,0-2.3,.1-4.5,2.7-6.8,4.1,1.7,2.1,3,5.3,5.2,6.1,13.4,4.6,26.7,9.6,40.5,12.7,13.4,3.1,27.3,4,41,6.2,2.1,.3,4.9,2.1,5.6,3.9,12.1,31.7,23.9,63.4,35.8,95.2,.6,1.5,1.1,3,1.6,4.5Z"/><path class="cls-2" d="M684.4,785.8c2.2,6.3,4.8,12.3,6.5,18.5,1.6,5.8-1,9.8-6.7,11.7-8.6,3-17.2,5.9-26,9,.2-9.1-.2-18.5,.8-27.8,.3-2.4,5.1-4.2,8.6-7,0,7.4-.2,13.1,.3,18.6,.2,1.9,2.4,3.5,3.7,5.3,1.5-1.6,4.1-3,4.4-4.8,1.1-5.5,1.7-11.3,1.8-16.9,0-4.2,1.2-6.6,6.4-6.7Z"/><path class="cls-2" d="M631.4,805.1c-2.7,11.3-6.7,21.6-3,33.3-3.6,.9-7.2,1.9-10.5,2.7,0-9.3-.4-18.1,0-26.8,0-1.9,2.2-4.4,4-5.5,2.5-1.6,5.6-2.2,9.4-3.7Z"/><path class="cls-2" d="M729.6,330c-3.4,11.1-4.5,22.4-14.9,30.1-2.8-14.1,2.3-24.5,14.9-30.1Z"/><path class="cls-2" d="M604.7,840.4c-7.3-2.5-13.9-12.2-11.2-19.1,1.1-2.8,6.1-4.1,9.7-6.4,.6,9.3,1,17.4,1.5,25.5Z"/><path class="cls-2" d="M648.9,797.7c-1.2,11.9-2.2,22.2-3.2,32.5,.6,.2,1.1,.4,1.7,.6-1.7,.8-3.4,1.6-6.2,2.9,.3-10.9,.3-20.9,1.1-30.9,.1-1.7,3.9-3.1,6.6-5.1Z"/><path class="cls-2" d="M684.8,533.5c0-14.5,.6-15.4,12.1-19.9,2.4,8.8-4.4,19.8-12.1,19.9Z"/><path class="cls-2" d="M732.7,306c-.6,5.4-1.1,9.9-1.5,14.3-4.1,1.1-7.7,2.1-11.4,3.1,.3-12.4,.9-13.3,12.9-17.4Z"/><path d="M433.8,771.4c-9.2-1.5-18.4-3.1-27.6-4.6-3.8-.6-6.1-2.4-5.7-6.4,.4-3.9,3.3-4.7,6.7-4.5,17.4,1.2,34.7,2.2,52,3.9,4.6,.5,9.2,2.9,13.4,5.2,1.7,.9,3.5,4.2,3.2,5.9-.5,2.1-2.9,4.8-5,5.3-3.8,.9-8,1-12,.5-8.4-1.1-16.8-2.7-25.2-4.1,0-.4,.1-.9,.2-1.3Z"/></g></g></svg>