<?xml version="1.0" encoding="UTF-8"?><svg id="Layer_1" xmlns="http://www.w3.org/2000/svg" viewBox="0 0 1024 1024"><defs><style>.cls-1{fill:#ebebec;}.cls-2{fill:#ee2a7b;}.cls-3{fill:#fff;}</style></defs><polygon class="cls-1" points="1021.9 1004.8 939.3 19.2 42.7 54.7 2.1 956.4 1021.9 1004.8"/><g id="_2cs0rL"><path class="cls-2" d="M444.2,690c-23.2-103.8-46.3-206.9-69.6-310.8,16.4-3.9,32.6-7.7,48.8-11.4,110-25.6,219.9-51.2,329.9-76.7,3.2-.8,6.5-1.4,9.8-1.9,12.9-1.7,22.6,4.5,25.6,17.3,7.6,33,14.3,66.1,22.2,99,12.9,54,26.5,107.8,39.7,161.7,1.3,5.3,2.3,10.8,2.6,16.2,.6,12-2.7,16.6-14.4,19.3-25.1,5.7-50.3,11-75.4,16.5-100.5,22.2-200.9,44.5-301.4,66.8-5.8,1.3-11.5,2.5-17.8,3.9Zm158.2-327.6c-72.4-.3-131.7,58.4-132.3,131.1-.7,73,58.7,132.9,131.8,133.1,72.1,.2,131.8-59.2,132.1-131.5,.3-72.8-58.8-132.3-131.6-132.6Z"/><path class="cls-2" d="M279.2,394.6c-1.7-7.9-3.3-15.1-5-23.2,22.1-5.4,43.9-10.8,66.6-16.4,2.1,8,4.1,15.5,6.3,23.9-22.8,5.3-45,10.4-67.9,15.6Z"/><path class="cls-2" d="M295.1,545.7c19.4-4.7,37.8-9.1,57.3-13.8,1.1,5.6,2.1,10.8,3.2,16.6-19.6,4.6-38.3,8.9-58,13.5-.8-5.5-1.6-10.5-2.5-16.3Z"/><g><path d="M345.4,387.6c17.1-3.9,33.8-7.6,50.4-11.5,11.8-2.7,23.6-5.7,35.5-8.1,4.4-.9,6.4-3,7.6-7.1,4.8-16,10-31.8,14.7-47.8,6.3-21.3,19.8-33.3,42-37.6,25.5-4.9,50.6-11.8,75.7-18.2,15.2-3.9,25.9,1.6,34.5,13.7,10.5,14.8,21.3,29.3,31.7,44.2,2.3,3.2,4.2,4.1,8.2,3.1,29.6-7.2,59.3-14.2,89-21,6-1.4,12.3-2.2,18.4-1.8,17.1,1.1,29.3,11.5,34,29.8,4.4,17.1,7.2,34.5,11.3,51.7,16.9,70.7,34.1,141.3,51,212,1.7,6.9,3.2,14,4,21,2.2,17.6-4,29.5-20.6,35.7-13.1,4.9-26.9,8.2-40.5,11.3-113.5,26.2-227.1,52.2-340.6,78.5-51.1,11.8-102,24.1-153,36.1-4.4,1-8.9,1.8-13.4,2.5-20.5,2.9-33.7-7-37.9-27.7-5.9-29.2-11.6-58.4-18-87.5-13.7-63.1-27.8-126.1-41.6-189.2-1.4-6.3-2.5-12.6-3.4-19-1.9-13.1,2.6-24.1,14-30.5,7.7-4.4,16.7-6.3,25.2-9.2,2-.7,4.2-.7,6.3-1.3,9.1-2.8,9.7-3.8,7.8-13-4.5-22.2-3.6-23.6,18.8-29,22.2-5.4,44.4-10.9,66.6-16.3,9.6-2.4,12.1-.8,14.8,8.9,2.4,8.9,4.8,17.9,7.3,27.5Zm81.7,324.3c6.3-1.4,12.1-2.6,17.8-3.9,100.5-22.3,200.9-44.6,301.4-66.8,25.1-5.6,50.3-10.8,75.4-16.5,11.7-2.7,15-7.3,14.4-19.3-.3-5.4-1.3-10.9-2.6-16.2-13.2-53.9-26.8-107.7-39.7-161.7-7.9-32.9-14.6-66.1-22.2-99-2.9-12.8-12.7-19-25.6-17.3-3.3,.4-6.6,1.1-9.8,1.9-110,25.6-220,51.1-329.9,76.7-16.2,3.8-32.3,7.6-48.8,11.4,23.2,103.9,46.3,207,69.6,310.8Zm-67-227.5c-16.7,15.3-18.2,16.7-28.9,19.5-23,6-46.1,11.8-69.3,17.4-9.9,2.4-20,3.9-30.3,5.9,2.5,11.5,5,22.4,7.4,33.3,12,54.7,23.8,109.4,36.1,164.1,3.9,17.3,10.4,21.4,27.8,17.4,24.6-5.7,49-12.1,73.5-18.1,11.7-2.9,23.4-5.5,35.5-8.4-17.4-77.5-34.5-154.1-51.7-231.1Zm-133,26.2c2,.3,2.8,.6,3.4,.5,33.4-7.8,66.8-15.4,100-23.6,8.1-2,14.4-7.6,17.2-15.9,3.4-9.9,6-19.8,2.9-30.6-3.4-11.8-5.6-23.9-8.5-36.3-7.6,1.7-14.3,3.3-21,4.7-31.2,6.7-62.4,13.2-93.6,20.1-10,2.2-13.5,6.4-12,16.2,3.3,21.8,7.6,43.5,11.5,64.9Zm239.7-150.8c52.5-12.2,104.5-24.2,157.2-36.5-8-11.2-15.4-21.6-23-32-17.9-24.6-13.3-21.7-41.2-15-22.2,5.3-44.5,10.6-66.7,16-5.5,1.4-11.5,2.7-13.1,9.5-4.4,19-8.7,38-13.3,58Zm-204.7,47.1c22.9-5.3,45.1-10.4,67.9-15.6-2.2-8.4-4.2-15.9-6.3-23.9-22.7,5.6-44.5,10.9-66.6,16.4,1.7,8.1,3.3,15.2,5,23.2Z"/><path class="cls-3" d="M360,484.3c17.2,77,34.4,153.6,51.7,231.1-12.1,2.8-23.8,5.5-35.5,8.4-24.5,6-48.9,12.4-73.5,18.1-17.4,4-24,0-27.8-17.4-12.2-54.6-24.1-109.4-36.1-164.1-2.4-10.9-4.8-21.8-7.4-33.3,10.4-2,20.4-3.5,30.3-5.9,23.2-5.6,46.3-11.3,69.3-17.4,10.8-2.8,12.2-4.2,28.9-19.5Zm-4.3,79.9c-2.6-10.4-5-20.8-7.8-31.1-1.4-5.2-5.4-6.9-10.6-5.6-23.1,5.6-46.3,10.9-69.3,17-2.9,.8-7,5.6-6.8,8.2,.9,10.6,3.1,21.2,5.3,31.7,1.1,5.2,4.9,7.6,10.2,6.4,23.7-5.4,47.3-10.9,70.9-16.5,5.2-1.2,7.7-4.5,8.1-10.1Z"/><path class="cls-3" d="M227,510.5c-3.8-21.4-8.1-43.1-11.5-64.9-1.5-9.8,2-14,12-16.2,31.1-6.9,62.4-13.4,93.6-20.1,6.7-1.4,13.4-3,21-4.7,2.8,12.4,5,24.5,8.5,36.3,3.2,10.8,.5,20.7-2.9,30.6-2.8,8.3-9.1,13.9-17.2,15.9-33.3,8.2-66.7,15.8-100,23.6-.6,.1-1.4-.2-3.4-.5Zm46.3-47.4c0-10.2-7.8-18.2-18-18.2-9.9,0-17.8,7.6-18,17.5-.2,10.2,7.6,18.4,17.7,18.6,10.1,.2,18.3-7.8,18.4-17.9Zm26.2-21.6c-7.4,.2-13.6,6.7-13.3,14.1,.3,7.5,6.6,13.2,14.3,12.9,7.3-.3,12.9-6.2,12.8-13.5,0-7.5-6.4-13.6-13.8-13.4Z"/><path class="cls-3" d="M466.7,359.7c4.6-20.1,8.9-39.1,13.3-58,1.6-6.8,7.5-8.1,13.1-9.5,22.2-5.4,44.4-10.7,66.7-16,27.9-6.6,23.3-9.5,41.2,15,7.6,10.4,15,20.9,23,32-52.8,12.2-104.8,24.3-157.2,36.5Zm42.5-32.1c18.4-5,35-9.2,51.3-14.3,2-.6,4.4-6.5,3.5-8.5-1.2-2.6-6-5.8-8.4-5.3-16,3.6-31.9,7.8-47.7,12.5-2.4,.7-5.2,5.5-4.8,8.1,.4,2.8,4.1,5.2,6.1,7.5Z"/><path d="M585.3,384.2c72.8,.3,131.9,59.9,131.6,132.6-.3,72.2-60,131.7-132.1,131.5-73.1-.2-132.5-60.1-131.8-133.1,.7-72.7,60-131.4,132.3-131.1Zm-.6,15.7c-64.2,.3-116.2,52.3-116.1,116.3,0,64.3,52.5,116.6,116.7,116.4,63.8-.2,116-52.8,115.8-116.7-.2-63.9-52.8-116.3-116.4-116Z"/><path d="M355.7,564.2c-.5,5.6-3,8.9-8.1,10.1-23.6,5.5-47.3,11.1-70.9,16.5-5.3,1.2-9.1-1.2-10.2-6.4-2.2-10.5-4.4-21-5.3-31.7-.2-2.6,3.9-7.5,6.8-8.2,23-6.1,46.2-11.4,69.3-17,5.3-1.3,9.2,.4,10.6,5.6,2.8,10.3,5.2,20.7,7.8,31.1Zm-77.7-6.2c.9,5.8,1.7,10.8,2.5,16.3,19.7-4.6,38.4-8.9,58-13.5-1.1-5.9-2.1-11-3.2-16.6-19.5,4.7-37.9,9.1-57.3,13.8Z"/><path d="M273.3,463.1c0,10.1-8.3,18.1-18.4,17.9-10-.2-17.9-8.5-17.7-18.6,.2-9.9,8.1-17.5,18-17.5,10.2,0,18.1,8,18,18.2Z"/><path d="M299.5,441.4c7.4-.2,13.8,5.9,13.8,13.4,0,7.3-5.5,13.2-12.8,13.5-7.6,.3-14-5.4-14.3-12.9-.3-7.3,5.8-13.9,13.3-14.1Z"/><path d="M509.2,327.6c-2-2.3-5.8-4.7-6.1-7.5-.3-2.6,2.5-7.4,4.8-8.1,15.7-4.8,31.6-9,47.7-12.5,2.5-.5,7.2,2.7,8.4,5.3,.9,2-1.5,7.9-3.5,8.5-16.4,5.1-33,9.3-51.3,14.3Z"/><path class="cls-3" d="M584.7,400c63.7-.3,116.3,52.1,116.4,116,.2,63.8-52,116.4-115.8,116.7-64.2,.2-116.7-52.1-116.7-116.4,0-63.9,51.9-116,116.1-116.3Zm-85.9,115.6c-.1,47,38.4,86.4,84.8,86.9,48.1,.4,87.2-38.5,87.1-86.6-.1-46.7-38.1-85.8-83.7-86.1-48.1-.3-88.1,38.5-88.2,85.9Z"/><path d="M498.9,515.5c.1-47.3,40.1-86.2,88.2-85.9,45.7,.3,83.6,39.4,83.7,86.1,.1,48.1-39,87.1-87.1,86.6-46.4-.4-85-39.9-84.8-86.9Zm15.7,.5c.1,38.5,32.1,70.7,70,70.6,39.1-.1,70.6-31.6,70.6-70.7,0-38.2-31.4-70.6-68.2-70.6-40,0-72.5,31.8-72.4,70.6Z"/><path class="cls-3" d="M514.6,516.1c-.1-38.8,32.4-70.5,72.4-70.6,36.8,0,68.2,32.4,68.2,70.6,0,39-31.5,70.5-70.6,70.7-37.9,.1-69.9-32.1-70-70.6Zm36-26.6c-1,.7-3.5,1.8-4.9,3.7-8.5,11.6-7.5,39.2,2.2,50.1,1.9,2.1,7.4,3.4,9.7,2.2,2.3-1.2,4.4-7.1,3.3-9.2-6.1-12.1-7-23.9-1.5-36.4,2.4-5.5-1.6-10.4-8.7-10.4Z"/><path d="M550.6,489.5c7.1,0,11.1,4.9,8.7,10.4-5.5,12.6-4.6,24.3,1.5,36.4,1.1,2.2-1.1,8-3.3,9.2-2.3,1.2-7.8,0-9.7-2.2-9.7-10.9-10.6-38.6-2.2-50.1,1.4-1.9,3.9-3,4.9-3.7Z"/></g></g></svg>