<?xml version="1.0" encoding="UTF-8"?><svg id="Layer_1" xmlns="http://www.w3.org/2000/svg" viewBox="0 0 1024 1024"><defs><style>.cls-1{fill:#ebebec;}.cls-2{fill:#fff;}.cls-3{fill:#edc022;}</style></defs><polygon class="cls-1" points="11.2 27.4 1027.5 75.7 1027.5 920.8 -3.5 996.6 11.2 27.4"/><g id="_2cs0rL"><path class="cls-3" d="M451.7,692.7c-23.6-105.3-47-210-70.6-315.4,16.7-3.9,33.1-7.8,49.5-11.6,111.6-26,223.2-51.9,334.9-77.9,3.3-.8,6.6-1.5,10-1.9,13.1-1.7,23,4.6,26,17.6,7.7,33.5,14.5,67.1,22.5,100.5,13.1,54.8,26.9,109.4,40.3,164.1,1.3,5.4,2.3,10.9,2.6,16.4,.7,12.1-2.7,16.9-14.6,19.6-25.4,5.8-51,11.1-76.5,16.8-102,22.6-203.9,45.2-305.9,67.8-5.8,1.3-11.7,2.6-18.1,4Zm160.6-332.5c-73.5-.3-133.6,59.3-134.3,133-.7,74,59.6,134.8,133.8,135,73.2,.2,133.8-60.1,134.1-133.5,.3-73.9-59.7-134.3-133.6-134.6Z"/><path class="cls-3" d="M284.2,392.8c-1.7-8.1-3.3-15.3-5.1-23.5,22.4-5.5,44.6-10.9,67.6-16.6,2.1,8.1,4.1,15.7,6.4,24.2-23.2,5.3-45.7,10.5-68.9,15.9Z"/><path class="cls-3" d="M300.4,546.2c19.7-4.8,38.4-9.3,58.2-14,1.1,5.7,2.1,10.9,3.3,16.9-19.9,4.6-38.9,9.1-58.9,13.7-.9-5.6-1.6-10.7-2.5-16.6Z"/><g><path d="M351.4,385.7c17.3-3.9,34.3-7.8,51.2-11.6,12-2.8,24-5.8,36.1-8.2,4.5-.9,6.5-3.1,7.7-7.2,4.8-16.2,10.1-32.3,14.9-48.5,6.3-21.7,20.1-33.8,42.7-38.2,25.8-5,51.3-11.9,76.8-18.5,15.4-4,26.3,1.6,35,13.9,10.6,15,21.6,29.8,32.2,44.8,2.3,3.3,4.2,4.1,8.3,3.1,30.1-7.3,60.2-14.4,90.4-21.3,6.1-1.4,12.5-2.2,18.7-1.8,17.4,1.1,29.7,11.7,34.5,30.3,4.4,17.3,7.3,35,11.5,52.4,17.2,71.7,34.6,143.4,51.8,215.1,1.7,7,3.2,14.2,4.1,21.3,2.2,17.8-4.1,29.9-20.9,36.2-13.3,5-27.3,8.3-41.1,11.5-115.2,26.6-230.5,53-345.7,79.6-51.8,12-103.5,24.5-155.3,36.6-4.5,1.1-9,1.8-13.6,2.5-20.8,2.9-34.2-7.1-38.5-28.1-5.9-29.6-11.8-59.3-18.2-88.9-13.9-64.1-28.2-128-42.2-192.1-1.4-6.4-2.6-12.8-3.5-19.3-1.9-13.3,2.7-24.4,14.2-31,7.8-4.4,17-6.4,25.6-9.3,2-.7,4.3-.7,6.4-1.3,9.3-2.8,9.9-3.9,8-13.2-4.6-22.5-3.6-23.9,19.1-29.4,22.6-5.5,45.1-11.1,67.6-16.6,9.8-2.4,12.3-.8,15,9.1,2.4,9.1,4.8,18.1,7.4,27.9Zm82.9,329.1c6.4-1.4,12.3-2.7,18.1-4,102-22.6,203.9-45.2,305.9-67.8,25.5-5.6,51.1-10.9,76.5-16.8,11.9-2.7,15.2-7.5,14.6-19.6-.3-5.5-1.3-11.1-2.6-16.4-13.4-54.7-27.2-109.3-40.3-164.1-8-33.4-14.8-67.1-22.5-100.5-3-13-12.9-19.3-26-17.6-3.4,.4-6.7,1.1-10,1.9-111.6,25.9-223.2,51.9-334.9,77.9-16.4,3.8-32.8,7.7-49.5,11.6,23.6,105.4,47,210.1,70.6,315.4Zm-68-230.9c-17,15.5-18.4,16.9-29.4,19.8-23.4,6.1-46.8,12-70.3,17.6-10,2.4-20.3,4-30.8,6,2.6,11.7,5.1,22.7,7.5,33.8,12.2,55.5,24.2,111.1,36.6,166.5,3.9,17.6,10.6,21.7,28.2,17.6,25-5.8,49.7-12.3,74.6-18.4,11.9-2.9,23.8-5.6,36-8.5-17.6-78.7-35-156.4-52.5-234.5Zm-135,26.6c2.1,.3,2.8,.6,3.4,.5,33.9-7.9,67.8-15.6,101.5-23.9,8.2-2,14.6-7.7,17.5-16.1,3.4-10.1,6.1-20.1,2.9-31.1-3.5-11.9-5.7-24.2-8.6-36.8-7.7,1.7-14.5,3.3-21.3,4.8-31.7,6.8-63.4,13.4-95,20.4-10.1,2.2-13.7,6.5-12.1,16.4,3.4,22.1,7.7,44.1,11.6,65.9Zm243.3-153c53.2-12.3,106-24.6,159.6-37-8.1-11.3-15.6-22-23.3-32.5-18.1-24.9-13.5-22-41.8-15.2-22.6,5.4-45.1,10.7-67.7,16.2-5.6,1.4-11.7,2.7-13.3,9.6-4.5,19.3-8.9,38.5-13.5,58.9Zm-207.7,47.8c23.2-5.4,45.7-10.5,68.9-15.9-2.2-8.5-4.2-16.1-6.4-24.2-23,5.7-45.2,11.1-67.6,16.6,1.8,8.2,3.3,15.4,5.1,23.5Z"/><path class="cls-2" d="M366.3,483.9c17.5,78.1,34.9,155.9,52.5,234.5-12.2,2.9-24.2,5.6-36,8.5-24.9,6.1-49.7,12.6-74.6,18.4-17.7,4.1-24.3,0-28.2-17.6-12.4-55.5-24.4-111-36.6-166.5-2.4-11.1-4.9-22.1-7.5-33.8,10.5-2,20.7-3.6,30.8-6,23.5-5.6,46.9-11.5,70.3-17.6,10.9-2.9,12.4-4.3,29.4-19.8Zm-4.4,81.1c-2.6-10.5-5.1-21.1-7.9-31.5-1.5-5.3-5.4-7-10.8-5.7-23.5,5.7-47,11.1-70.3,17.3-3,.8-7.1,5.7-6.9,8.3,.9,10.8,3.1,21.5,5.4,32.1,1.1,5.2,5,7.7,10.4,6.5,24-5.5,48-11.1,72-16.7,5.2-1.2,7.8-4.5,8.3-10.2Z"/><path class="cls-2" d="M231.3,510.5c-3.9-21.7-8.2-43.7-11.6-65.9-1.5-9.9,2-14.2,12.1-16.4,31.6-7,63.3-13.6,95-20.4,6.8-1.5,13.6-3.1,21.3-4.8,2.9,12.6,5.1,24.9,8.6,36.8,3.2,11,.5,21-2.9,31.1-2.9,8.4-9.3,14.1-17.5,16.1-33.8,8.3-67.7,16-101.5,23.9-.6,.1-1.4-.2-3.4-.5Zm47-48.1c0-10.4-7.9-18.4-18.3-18.4-10.1,0-18,7.7-18.3,17.7-.2,10.3,7.7,18.7,17.9,18.9,10.2,.2,18.6-7.9,18.7-18.2Zm26.5-22c-7.5,.2-13.8,6.8-13.5,14.3,.3,7.6,6.7,13.4,14.5,13.1,7.4-.3,13.1-6.3,13-13.7,0-7.6-6.5-13.8-14-13.6Z"/><path class="cls-2" d="M474.6,357.4c4.7-20.4,9-39.6,13.5-58.9,1.6-6.9,7.6-8.2,13.3-9.6,22.5-5.5,45.1-10.9,67.7-16.2,28.3-6.7,23.7-9.7,41.8,15.2,7.7,10.5,15.2,21.2,23.3,32.5-53.6,12.4-106.3,24.7-159.6,37Zm43.2-32.6c18.6-5.1,35.5-9.4,52.1-14.5,2-.6,4.5-6.6,3.5-8.7-1.2-2.7-6.1-5.9-8.6-5.4-16.3,3.6-32.4,7.9-48.4,12.7-2.4,.7-5.2,5.6-4.9,8.2,.4,2.9,4.2,5.3,6.2,7.6Z"/><path d="M594.9,382.3c73.9,.3,133.8,60.8,133.6,134.6-.3,73.3-60.9,133.6-134.1,133.5-74.2-.2-134.5-61-133.8-135,.7-73.8,60.9-133.4,134.3-133Zm-.6,16c-65.2,.3-117.9,53.1-117.8,118,0,65.3,53.3,118.4,118.5,118.1,64.7-.2,117.7-53.6,117.5-118.4-.2-64.8-53.6-118-118.2-117.7Z"/><path d="M361.9,565c-.5,5.7-3,9-8.3,10.2-24,5.6-48,11.2-72,16.7-5.4,1.2-9.3-1.2-10.4-6.5-2.2-10.6-4.4-21.3-5.4-32.1-.2-2.7,3.9-7.6,6.9-8.3,23.3-6.2,46.9-11.6,70.3-17.3,5.3-1.3,9.3,.4,10.8,5.7,2.9,10.4,5.3,21,7.9,31.5Zm-78.9-6.3c.9,5.9,1.7,11,2.5,16.6,20-4.7,39-9.1,58.9-13.7-1.2-6-2.2-11.2-3.3-16.9-19.8,4.8-38.5,9.3-58.2,14Z"/><path d="M278.3,462.3c0,10.2-8.4,18.4-18.7,18.2-10.2-.2-18.2-8.6-17.9-18.9,.2-10,8.2-17.7,18.3-17.7,10.4,0,18.4,8.1,18.3,18.4Z"/><path d="M304.8,440.4c7.6-.2,14,6,14,13.6,0,7.4-5.6,13.4-13,13.7-7.8,.3-14.2-5.4-14.5-13.1-.3-7.5,5.9-14.1,13.5-14.3Z"/><path d="M517.7,324.8c-2-2.3-5.8-4.7-6.2-7.6-.3-2.6,2.5-7.5,4.9-8.2,16-4.8,32.1-9.1,48.4-12.7,2.5-.6,7.4,2.7,8.6,5.4,.9,2.1-1.5,8-3.5,8.7-16.6,5.1-33.5,9.4-52.1,14.5Z"/><path class="cls-2" d="M594.4,398.3c64.6-.3,118,52.9,118.2,117.7,.2,64.8-52.8,118.2-117.5,118.4-65.2,.2-118.4-52.8-118.5-118.1,0-64.9,52.7-117.7,117.8-118Zm-87.1,117.3c-.1,47.7,39,87.7,86.1,88.2,48.8,.5,88.5-39.1,88.4-87.9-.1-47.4-38.6-87.1-85-87.4-48.8-.4-89.4,39.1-89.5,87.1Z"/><path d="M507.2,515.6c.2-48,40.7-87.5,89.5-87.1,46.3,.3,84.8,40,85,87.4,.1,48.9-39.6,88.4-88.4,87.9-47.1-.4-86.2-40.5-86.1-88.2Zm15.9,.6c.1,39.1,32.5,71.8,71,71.6,39.7-.1,71.6-32.1,71.6-71.7,0-38.8-31.8-71.7-69.2-71.6-40.6,0-73.6,32.3-73.5,71.7Z"/><path class="cls-2" d="M523.2,516.2c-.1-39.4,32.9-71.6,73.5-71.7,37.4,0,69.2,32.9,69.2,71.6,0,39.6-31.9,71.6-71.6,71.7-38.5,.1-70.9-32.6-71-71.6Zm36.5-27c-1,.7-3.6,1.8-5,3.8-8.6,11.7-7.7,39.8,2.2,50.9,1.9,2.2,7.5,3.5,9.8,2.2,2.3-1.3,4.5-7.2,3.4-9.4-6.2-12.3-7.1-24.2-1.5-37,2.4-5.5-1.7-10.6-8.8-10.5Z"/><path d="M559.7,489.1c7.2,0,11.3,5,8.8,10.5-5.6,12.8-4.7,24.7,1.5,37,1.1,2.2-1.1,8.1-3.4,9.4-2.3,1.3-7.9,0-9.8-2.2-9.9-11.1-10.8-39.2-2.2-50.9,1.4-1.9,4-3,5-3.8Z"/></g></g></svg>