<?xml version="1.0" encoding="UTF-8"?><svg id="Layer_1" xmlns="http://www.w3.org/2000/svg" viewBox="0 0 1024 1024"><defs><style>.cls-1{fill:#ebebec;}.cls-2{fill:#fff;}.cls-3{fill:#ee8d24;}</style></defs><polygon class="cls-1" points="1010.9 931.6 51.6 1022 13.1 31.6 907.2 2 1010.9 931.6"/><g id="_8YJ5Pv"><g><path class="cls-3" d="M762.2,709c-144.2,18.9-285.8,45.8-430,60.4-2-24.6-3.8-48-5.7-71.8,24.1,1.7,43.8-11,64.9-18,39.6-13.2,80.1-21,121.7-23.9,47.3-3.3,94.6-7.6,141.9-10.7,32.8-2.2,65.2,.4,96.5,12,5.2,1.9,7.1,4.7,7.4,10.1,.8,13.7,2.1,27.3,3.3,42Zm-201.1-11.7c-6,3-13.3,5.8-19.3,10.2-2,1.5-2.4,8-.8,10.7,1.2,2,7.7,3,10,1.5,6.9-4.4,13.1-5.1,20.8-2.3,2.4,.9,7.6-1.8,9.4-4.3,2.6-3.8,.9-8.4-3.6-10.3-4.6-2-9.6-3.2-16.5-5.4Z"/><path class="cls-3" d="M267.7,401.3c16.1,52.7,28.9,106.1,32.4,161.7,4,62.3,9.4,124.5,14.2,186.8,.2,2.6,0,5.2,0,7.7-11.1-7.9-22.1-15.5-32.8-23.5-1.4-1.1-1.7-4.3-1.6-6.6,.6-19.4,1.3-38.8,2.2-58.3,.3-6-1.3-10.4-7.8-11.2-5.4-.7-8.2,3.4-8.5,11.2-.8,19.2-1.7,38.3-2.6,57.7h-48.8c24.9-107.9,35.6-217.5,53.4-325.6Z"/><path class="cls-3" d="M480.4,468.8h30.1c2.2,0,4,1.7,4.1,3.8,.5,8.4,.9,17.2,1.4,26.2s-1.6,4.2-3.9,4.3c-10.7,.6-20.9,1.1-31.5,1.6s-4.3-1.7-4.3-4.1v-27.9c0-2.2,1.8-4.1,4.1-4.1Z"/><path class="cls-3" d="M602.4,384.2c.4,7.2,.8,14.7,1.2,22.6,.2,3.3-2.4,6.1-5.7,6.3-9.2,.4-18.2,.9-27.5,1.3-3.4,.2-6.3-2.6-6.3-6v-23.9c0-3.3,2.7-6,6-6h26.3c3.2,0,5.8,2.5,6,5.7Z"/><path class="cls-3" d="M662.1,372.1h29.8c2.3,0,4.1,1.7,4.3,4,.5,8.2,1,16.9,1.5,25.8,.1,2.4-1.7,4.4-4,4.5-10.8,.6-21.2,1.3-31.6,1.5-1.4,0-4-2.8-4-4.3-.3-8.8-.2-17.6-.2-27.2,0-2.4,1.9-4.3,4.3-4.3Z"/><g><path d="M382.8,256.1c7.6,.6,14.6,1.2,22.1,1.9,4.4-13.8,10.3-26.8,23.8-33.2,6.1-2.9,14-4,20.6-3.1,16.5,2.4,27.6,18.7,28.7,40.5,13,.8,26.1,1.7,39.1,2.5,8.6-34.9,23.3-38.7,38.8-37.8,16.8,1,27.9,15.6,31.8,41.4,10.5,.6,21.2,1.2,32.1,1.8,3.9-13.3,6.5-27.2,19.6-33.7,6-3,13.8-4.3,20.5-3.7,17,1.6,27.8,16.6,30.2,40.6,13.5,.7,27.2,1.6,40.8,2.1,19.2,.7,32.1,18.4,24.7,36.3-3.7,8.7-11,15.9-16.5,23.9-1.6,2.4-3.9,5.2-3.9,7.8,.7,91.6,23.2,177.8,65.9,258.7,3,5.6,7.1,10.6,10.8,15.8,1.4,2,3.2,3.7,4.6,5.8,4.6,6.7,10.1,13.7,5.1,22.2-5,8.5-13.7,7.3-21.8,6.5-4.9-.5-9.7-1.1-15.9-1.8,.7,9.1,1.3,18,2.1,26.9,1.2,13.5,2.7,26.9,3.8,40.4,.7,9-1.3,10.7-10.3,12.6-25.7,5.4-51.2,11.8-77,16.5-51,9.2-102.1,17.7-153.2,26.1-50.9,8.3-101.8,16.6-152.8,24.1-19.4,2.9-39.1,3.9-58.7,5.4-10.9,.8-21-2.9-27.5-11.6-20.1-27-49.1-29.9-79.1-30.4-6.6-.1-13.3,.8-19.9,1.1-10.1,.4-15-3.6-14.6-13.8,.4-11,1.6-22.1,3.3-33,7.8-50.5,15.9-100.9,23.7-151.3,5.9-38.4,12.4-76.7,16.8-115.2,6.4-55.4,11-111,16.9-166.5,1-9.2-1.3-19.9,7.2-26.9,3.5-2.9,8.3-5.5,12.6-5.7,10.8-.3,21.6,1.1,32.4,1.2,2.2,0,5.4-2,6.3-3.9,7.5-15.5,19.7-24.3,33.4-23.6,14.3,.8,26,10.8,31.5,27.1,.6,1.9,1.2,3.7,1.9,6.1Zm421.8,379.8c-6.2-8.8-12.6-16.1-17.1-24.4-7.7-14.2-14.7-28.9-21.2-43.7-25.4-58.3-41-119.2-45.8-182.7-1.4-18.6-2.1-37.2-3.1-56.2-142.8-6.1-285.7-12.3-429.1-18.4-.2,3.2-.5,5.6-.6,8-1.6,34.7,1.4,69.1,11.6,102.1,19.8,63.9,27.1,129.6,31.7,195.9,1.3,18.3,4.5,36.5,6.8,54.7,1,7.7,5,8.7,11.8,6.7,19-5.6,38.1-11.4,57.4-16,67-16.1,135.1-25.9,203.8-30,53.1-3.2,106.2-3.5,159.3,1.1,11.2,1,22.5,2,34.5,3.1Zm-31.9,79.5c-1.2-14.7-2.5-28.3-3.3-42-.3-5.4-2.2-8.2-7.4-10.1-31.3-11.6-63.7-14.2-96.5-12-47.3,3.2-94.6,7.4-141.9,10.7-41.6,2.9-82.1,10.7-121.7,23.9-21.2,7.1-40.8,19.7-64.9,18,1.9,23.8,3.8,47.2,5.7,71.8,144.2-14.6,285.8-41.5,430-60.4ZM278.1,407.7c-17.7,108.1-28.5,217.8-53.4,325.6h48.8c.9-19.4,1.8-38.6,2.6-57.7,.3-7.7,3.2-11.8,8.5-11.2,6.5,.8,8,5.2,7.8,11.2-.9,19.4-1.6,38.8-2.2,58.3,0,2.2,.2,5.5,1.6,6.6,10.7,8,21.7,15.6,32.8,23.5,0-2.5,.2-5.1,0-7.7-4.8-62.3-10.2-124.5-14.2-186.8-3.5-55.5-16.3-109-32.4-161.7Zm88.7-136c-28.9-2.2-55.9-4.3-82.9-6.4v29.2c5.5,0,10.7-.1,15.8,0,17.2,.6,34.3,1.4,51.5,1.8,2.3,0,5.9-.9,6.7-2.5,3.3-6.9,5.8-14.2,9-22.2Zm98,29.7c26.1,1.2,51.1,2.4,76.2,3.5,19.1,.9,20.8-.5,25.5-19.5,0-.2,0-.4-.2-1.5-30.4-1.7-61.1-3.5-91.9-5.2-3.1,7.4-6.1,14.5-9.6,22.7Zm112,4.9c26.6,1.1,52.3,2.3,78.1,3.2,2.1,0,5.3-.8,6.2-2.3,3.3-5.5,5.8-11.5,9-18.1-28.5-1.4-55.4-2.8-82.3-4-1.4,0-3.8,1.3-4.3,2.5-2.4,5.8-4.3,11.9-6.6,18.7Zm-193.7-33.5c-2.5,8.3-5,16.4-7.5,24.6,21.9,1,43.4,2.1,65,3,2,0,5.1-.3,5.8-1.5,3.9-6.6,7.2-13.5,11.2-21.4-26.1-1.7-50.2-3.2-74.5-4.8Zm295.6,37.8c20,.9,39,1.8,58.1,2.7,.6-.9,1.3-1.9,1.8-3,5.8-11.4,1.5-18.4-11.4-18.7-6.9-.2-13.7-.5-20.6-1q-19-1.4-26.2,15.6c-.5,1.1-.9,2.2-1.8,4.4Zm-218.1-49.4c.7-12.3-6.4-22.6-15.5-23.8-9.6-1.3-19.6,8.4-22.2,21.6,12.4,.7,24.8,1.5,37.7,2.2Zm108.9,6.2c1.5-11.9-6.3-23.5-15.9-24.3-9.9-.9-17.6,8.3-18.3,22.7,11.2,.5,22.5,1.1,34.2,1.7Zm68.2,3.5c12.2,.6,23.8,1.2,35.5,1.7-.1-13.6-7.8-23.8-17.2-24-10.3-.3-16.8,7.4-18.2,22.3Zm-273-16c-4.3-11.5-8.7-15.3-16.7-15.2-7.4,.1-12.9,4.4-15.4,12.6,10.6,.9,21,1.7,32.1,2.6Z"/><g><path d="M382.8,256.1l22.1,1.7s-.2,.1-.2,.1c1.5-4.6,3.1-9.3,5.3-13.7,3.5-7.5,8.8-14.3,16.1-18.5,5.6-3.2,12.1-4.8,18.6-4.8,15.9-.3,27.5,12.3,31.5,26.7,1.4,4.7,2.2,9.6,2.5,14.5l-.6-.6s39.1,2.4,39.1,2.4c0,0-.7,.5-.7,.5,1.4-5.3,2.9-10.7,5.1-15.8,3.6-8.4,9.1-17,18-20.5,8.5-3.4,21.1-3.3,29.1,1.6,13.1,8,17.7,24,20.1,38.3,0,0-.9-.8-.9-.8,0,0,32.1,1.7,32.1,1.7l-1,.7c2.8-9.3,4.8-19.4,11.1-27.1,6.4-7.9,17-11.1,26.8-11.1,10.2-.1,19.9,5.1,25.4,13.7,5.6,8.3,7.9,18.2,9,28,0,0-1-1-1-1,4.5,.3,34.2,1.7,38.3,2,3.2,.1,6.6,.4,9.7,1.3,2.4,.8,5.1,1.7,7.3,3.1,0,0,1.7,1,1.7,1,0,0,1.6,1.2,1.6,1.2,9.2,7.1,12.4,19.9,7.9,30.6-1.9,4.9-5,9.2-8.1,13.3-3.2,4.1-6.4,8-9.3,12.2-1.2,1.9-3,4-3.1,6.3,0,0,.1,7.6,.1,7.6,1.2,87,24.2,173.3,64.7,250.2,2.9,5.7,7,10.7,10.7,15.9,1.4,2.1,3.3,3.9,4.8,6,0,0,2.2,3.2,2.2,3.2,2.9,4.2,5.8,9.1,5.2,14.4-.7,5.2-4.3,10-9.3,11.7-5,1.6-10.3,.8-15.4,.4,0,0-15.3-1.7-15.3-1.7,0,0,.4-.4,.4-.4,1.1,14,2.1,27.9,3.5,41.9,0,0,2,20.9,2,20.9,.2,1.7,.3,3.5,.5,5.2,.2,2.6,.3,5.6-1.2,7.9-1.6,2.3-4.5,3.2-7,3.8-62.8,15.5-142.4,28-206.4,39.1-47,8.3-118.7,19.1-165.9,26.8-22.4,4-45.2,5.7-67.9,7.2-11.9,1.5-24-1.2-31.8-11.2-13.7-18.7-32.9-26.8-55.4-29.2-13.9-1.6-27.7-1.6-41.7-.3-11.1,.9-18.3-3.4-17.2-16.3,.5-12.3,2.1-24.6,4-36.7,12.8-84.9,30.5-185,40.9-270,5.3-47.4,10.1-98.7,15-146.3,0,0,1.1-10.4,1.1-10.4,.7-5.2,.3-10.5,1-15.7,.6-5.4,3.2-10.6,7.7-13.8,4.2-3.3,9.5-5.4,15-5,8.8,0,17.5,.9,26.2,1.2,1.7,0,3.5,.3,5-.3,1.5-.6,3-1.6,3.9-2.9,.8-1.4,1.6-3.1,2.5-4.6,4.4-7.6,10.9-14.3,19.3-17.5,13.5-5.4,29.3,.7,37.3,12.4,4.2,5.7,6.5,12.4,8.4,19.1h0Zm-.2,.2c-2.1-6.7-4.3-13.4-8.6-19.1-7.9-11.5-23.6-17.4-36.7-12-8.1,3.2-14.4,9.8-18.8,17.3-1.5,2.1-2.1,5.1-4.4,6.6-1.3,.9-2.8,1.7-4.5,1.8-.2,0-.4,0-.7,0,0,0-2.6,0-2.6,0-8.8-.2-17.5-1.1-26.2-1.1-5.2-.4-10.1,1.6-14.2,4.8-4.2,3-6.6,7.9-7.1,13-.6,5.2-.2,10.5-.9,15.7,0,0-1.1,10.4-1.1,10.4-4.6,47.7-9.2,98.9-14.4,146.4-10.1,85-27.7,185.2-40.5,270.1-2,12.1-3.5,24.2-4,36.4-.7,10.1,3.4,14.6,14.5,13.7,7-.4,14.1-1.3,21.1-.9,21,.5,43.3,2.5,61,14.8,7.1,4.7,12.7,11,17.9,17.7,5.8,6.8,14.9,10.1,23.7,9.7,24.4-1.5,48.9-3.2,73-7.4,47.3-7.6,118.9-18.1,166-26.2,47.1-8.5,118.9-18.6,165.4-29.2,13.7-3.1,27.4-6.1,41-9,1.7-.4,3.3-.9,4.8-1.8,1.4-.9,2.4-2.3,2.6-3.9,.6-3.4,0-6.9-.3-10.3,0,0-1.9-20.9-1.9-20.9-1.4-14.1-2.4-28.2-3.5-42.3,0,0,.5,0,.5,0,0,0,15.3,1.8,15.3,1.8,5,.5,10.2,1.3,15.1-.3,4.7-1.6,8.2-6.3,8.8-11.1,.8-6.4-3.9-11.9-7.2-17-1.5-2-3.4-3.9-4.8-6,0,0-2.3-3.1-2.3-3.1-3-4.1-6.2-8.2-8.5-12.8-33.4-63.5-55.7-133.1-63-204.5-1.8-17.8-2.9-35.9-3.1-53.8,.2-3,1.9-5.1,3.5-7.4,2.9-4.3,6.2-8.2,9.3-12.3,6.2-7.7,11.4-17.2,9.1-27.3-1.8-8.5-8.6-15.5-16.7-18.2-3.5-1.3-7.3-1.6-11-1.7-5.3-.2-33.4-1.8-39.3-2-1.4-14-5.8-30.1-18.9-37.4-8.3-4.5-18.7-4.1-27.4-.9-6.7,2.4-12.1,7.5-15.2,13.9-3.4,6.7-5,14-7.2,21.2,0,0-.8,0-.8,0s-32.1-1.8-32.1-1.8h-.8s-.1-.8-.1-.8c-2.3-14.3-7-30.7-20.7-37.9-3.7-1.9-7.9-2.7-12-2.8-10-.6-19,2.5-25,10.7-6,7.9-8.9,17.6-11.5,27,0,0-.6,0-.6,0,0,0-39.1-2.6-39.1-2.6,0,0-.6,0-.6,0,0,0,0-.6,0-.6-.5-9.6-2.9-19.3-8.4-27.3-3.8-5.4-9.1-9.8-15.4-11.8-9.1-2.8-19.7-1.2-27.8,3.6-11.2,6.6-16.7,19.2-20.5,31.2,0,0,0,.2,0,.2s-.2,0-.2,0c0,0-22.2-2-22.2-2h0Z"/><path d="M804.4,635.9c-1.6-2-4.4-5.8-6.1-8-2-2.7-4.1-5.4-6-8.1-4-5.5-7-11.6-10.2-17.5-37.5-71.9-59.8-151.8-63.8-232.9-.8-13.5-1.4-27-2.1-40.4,0,0,1,1,1,1-26.8-1.1-80.5-3.6-107.3-4.8-95.5-4.5-226.2-10.4-321.8-14.2,0,0,.6-.5,.6-.5-.8,8.7-1,17.5-.9,26.2,.1,26.2,3.3,52.5,10.5,77.8,10.5,33.5,18.3,67.9,23.5,102.6,5.2,34.2,8.3,70.1,10.8,104.7,1.3,14.9,4,30.8,5.9,45.6,0,0,.4,3.3,.4,3.3,.1,1.1,.3,2,.6,3,1.2,4.5,5.4,4.2,9.2,3.1,0,0,12.6-3.7,12.6-3.7,84.2-25.2,171.6-38.1,259.2-42.7,61.3-3.4,122.8-1.3,183.8,5.6h0Zm.2,.1c-69.8-6.9-140.3-7.8-210.2-2.1-69.8,5.4-139.4,16.2-207.1,34.3-8.4,2.3-16.9,4.8-25.3,7.3,0,0-12.6,3.7-12.6,3.7-2.2,.6-4.5,1.2-7.1,.6-5.4-1.2-5.8-7.5-6.4-12.1,0,0-.9-6.5-.9-6.5-1.6-12.8-3.9-26.5-5-39.2-1.2-15.6-2.7-37.1-4.2-52.4-4.2-43.6-10.6-87-21.9-129.4-.8-3.3-2.6-9.3-3.5-12.6-6.5-20.8-11.2-42.8-12.8-64.5-1.4-17.5-1.5-35.1,0-52.6,0,0,0-.5,0-.5,0,0,.5,0,.5,0,136.1,6.4,293.2,12.1,429.1,17.9,0,0,1,0,1,0v1c1.5,26.9,2.2,53.9,5.5,80.7,8,67,28.6,132.2,58.9,192.4,4.4,9.2,9.5,17.7,15.9,25.8,0,0,3,4.1,3,4.1l1.5,2c.5,.7,1,1.5,1.5,2.2h0Z"/><path d="M772.6,715.3c-1.3-13.7-2.7-28-3.7-41.7-.2-5.9-3.2-8.7-8.6-10.2-20.3-7.3-41.8-10.8-63.3-11.6-35.1-.9-86.1,5.3-121.7,7.4-20.3,1.6-40.6,2.8-60.9,4.3-40.5,3.4-80.7,11.4-118.9,25.3-18.8,7.3-37.8,17.4-58.6,15.9,0,0,.7-.7,.7-.7l6,71.8s-1-.9-1-.9c70.5-7.4,145-18.3,215.1-28.9,69-10.4,145.8-22.3,214.9-30.7h0Zm.2,.2c-72.5,10.3-168.6,25.9-241.5,37-62.2,9.4-126,18.2-188.5,24.3,0,0-1,0-1,0,0,0,0-.9,0-.9,0,0-5.4-71.8-5.4-71.8,0,0,0-.7,0-.7,0,0,.7,0,.7,0,10.1,.7,20.2-1.2,29.8-4.3,14.4-4.9,28.2-11.8,42.9-16,3.7-1.2,11-3.3,14.6-4.3,29.4-8.3,59.6-13.8,90-16.7,0,0,60.8-5,60.8-5,30.4-2.5,60.8-5,91.3-6.9,30.5-2,61.6,.6,90.6,10.7,4.7,1.7,10.9,3.1,12.3,8.7,.7,2.2,.5,5.4,.8,7.7,0,0,.5,7.6,.5,7.6l2.2,30.5h0Z"/><path d="M278.1,407.8c-16.2,108.3-27.6,219-52.9,325.6,0,0-.5-.6-.5-.6,0,0,48.8,0,48.8,0l-.4,.4c.2-4.1,2.2-52,2.3-54.8,.2-4.9,0-11.5,5.1-14.1,3-1.3,6.7-.5,9.3,1.4,1.8,1.4,2.7,3.6,3,5.7,.5,8.4-1.6,51.8-1.7,61,0,2.4-.4,5.3,1.2,7.2,8.3,6.3,24.2,17.2,32.9,23.3,0,0-1.8,.9-1.8,.9,0-3.8,0-7.3-.3-11.2-5.1-62.7-10.6-128.1-14.4-190.9-3.8-52.3-16.2-103.8-30.7-154h0Zm0-.2c13.8,42.9,25,86.9,30.6,131.7,1.9,14.9,2.9,29.9,4,44.9,3.5,51,8.2,106.1,12,157.2,.2,3.6,1.1,13.3,1.2,16.9,0,2.7-.1,5.2,0,7.8,0,0-1.8-1.2-1.8-1.2-10.8-7.6-21.6-15.2-32.2-23.1-.5-.3-1-.8-1.3-1.2-1.5-2.4-1.3-5.4-1.2-8,.2-4.1,2.2-52,2.3-54.8,.2-3.7,.6-8.3-2.5-10.8-2.2-1.6-5.5-2.4-8-1.3-4.6,2.4-4.3,8.6-4.6,13.1-.2,2.7-2.4,50.8-2.6,54.8,0,0,0,.4,0,.4,0,0-.4,0-.4,0,0,0-48.8,0-48.8,0,0,0-.6,0-.6,0,0,0,.1-.6,.1-.6,23.6-105.4,35-219.3,53.8-325.7h0Z"/><path d="M366.7,271.8c-21.4-1.1-41.4-1.9-62.3-4.1-6.8-.7-13.6-1.4-20.5-2l.4-.4c-.1,8.4,.3,20.6,.5,29.2,0,0-.8-.8-.8-.8,4.1-.1,8.2-.1,12.3-.2,12.3,0,24.7,.5,37,1,5.1,.2,10.3,.5,15.4,.7,2.7,.2,6.2,.4,8.3-1.6,.3-.5,.8-1.7,1.1-2.2,3.1-6.2,5.7-13.3,8.6-19.6h0Zm.2-.1c-2.4,7.3-4.8,14.8-7.9,21.9-1.1,3-4.6,3.6-7.3,3.8-14.4-.1-28.8-.6-43.2-1.3-8.5-.5-17-.5-25.5-.7,0,0,0-.8,0-.8,.3-8.6,.5-20.7,.5-29.2,0,0,0-.4,0-.4,0,0,.4,0,.4,0,13.9,1.1,28.1,1.4,42,2.6,13.9,1.2,27.8,2.6,41,4h0Z"/><path d="M464.8,301.4c24.1,.5,48.1,.9,72,2.7,4.7,.3,9.6,.8,14.3,.5,2.4-.2,4.8-.5,6.8-1.7,3.1-1.8,4.5-5.4,5.6-8.7,.9-2.8,1.5-5.8,2.2-8.7,0,0,0-.2,0-.2,0,0,0,0,0,0,0,0,0-.4,0-.4l-.2-.9,.6,.6c-17.4-.5-40-1.6-57.4-2.6-7.4-.4-26.8-1.8-34.4-2.4,0,0,.8-.5,.8-.5-2.9,6.7-7.3,15.6-10.2,22.3h0Zm-.2,.1c2.5-6.7,6.5-16.8,9.1-23.7,8.1,.3,27.3,1.1,35.1,1.5,17.7,1,40.3,2.5,57.9,3.9,0,.3,.1,1.1,.2,1.4,0,.3,.1,.8,0,1.1-.5,1.7-.9,3.6-1.5,5.2-1.4,4.5-2.8,9.8-7.1,12.5-4.4,2.4-9.5,1.9-14.3,2,0,0-7.3-.1-7.3-.1-23.8-.4-48.6-2.2-72.1-4h0Z"/><path d="M576.8,306.3c17.8,.2,35.2,.4,52.8,1.2,4.3,.2,8.6,.5,12.9,.8,4.3,.3,8.7,.6,13,.8,1.5-.1,3.2-.5,4.5-1.4,.4-.3,.7-.6,.9-1.1,1.1-1.9,2.1-3.8,3.1-5.8,1.9-3.9,3.6-8,5.4-12,0,0,.5,.9,.5,.9-27.4-.6-54.8-1.8-82.2-3.7-1.3,0-2.9,.8-3.6,1.7,0,0,0,.1-.1,.2,0,0-.2,.4-.2,.4-.7,1.7-1.5,3.6-2.2,5.4-1.4,3.5-3.3,9-4.8,12.4h0Zm-.2,.1c1.5-5.4,3.1-10.9,4.9-16.2,.3-.7,.7-2.1,1-2.8,.3-.8,1-1.5,1.6-1.9,1-.7,2.3-1.3,3.6-1.3,9.5,.3,19,.6,28.5,1,18.2,.9,36.4,1.9,54.6,3.3,0,0-.4,.8-.4,.8l-5.9,11.8c-1.2,2.2-2.3,4.4-3.6,6.5-1.4,1.5-3.5,2-5.5,2.2-26.2-.1-53-1.5-78.9-3.5h0Z"/><path d="M383,273c-1.8,7.3-4.7,17.8-6.7,24.8,0,0-.9-1.2-.9-1.2,11.5,.3,24.2,1,35.7,2,7.9,.6,15.9,1.1,23.8,1.4,3.3,0,6.9,.7,10-.7,.4-.2,.6-.3,.8-.8,3.8-6.9,7.1-14.2,10.6-21.3l.9,1.6c-6.2-.3-12.3-.6-18.4-1-6.1-.4-12.3-.9-18.4-1.3-12.5-1-24.9-2.1-37.5-3.4h0Zm-.1-.2c12.2,.3,24.7,.8,37,1.4,6.3,.3,12.5,.6,18.8,1,6.9,.4,13.7,1,20.6,1.5,0,0-.8,1.5-.8,1.5-3.7,7-7.3,14.1-11.5,20.9-.5,1-1.8,1.5-2.9,1.7-2,.5-7,0-9.1-.1-7.9-.5-15.9-.8-23.8-.9-12-.1-25.1-.6-37-1.5,2.7-8.4,5.8-17.3,8.7-25.6h0Z"/><path d="M678.7,310.6c15.2,.2,29,0,43.7,1.3,4.7,.4,9.5,.8,14.3,1.1,0,0-.3,.2-.3,.2,.5-.8,1.1-1.6,1.5-2.4,5.8-10.9,1.9-18-10.6-18-1.8,0-12.4-.4-14.5-.5-3.4-.1-8.2-.4-11.5-.7-5.2-.3-11.6-1.3-14.8,3.9-2.2,3.1-6,11.7-7.9,15.2h0Zm-.2,.1c8.2-25.4,9.8-22.2,34.5-21,0,0,11.5,.7,11.5,.7,5.5,.3,13.1,.7,16.1,6.4,2.6,5.7-.5,11.9-3.6,16.7,0,0-.1,.2-.1,.2,0,0-.2,0-.2,0-9.8-.4-19.8-.1-29.6-.8-9.8-.6-19.5-1.4-28.6-2.2h0Z"/><path d="M460.4,261.1c-.5-7.7-3.3-15.8-9.8-20.4-7-5.3-15.5-2.5-20.5,4.2-3.3,4.2-5.1,9.2-6.1,14.4,0,0-1.1-1.4-1.1-1.4,12.8,.4,24.6,1.7,37.5,3.3h0Zm.2,.2c-12.2,.2-25.4,0-37.8-1.2,0,0-1.4,0-1.4,0,0,0,.3-1.3,.3-1.3,2.4-12.7,16.7-27.9,30.1-19.8,7.1,4.8,10.1,14.1,8.7,22.3h0Z"/><path d="M569.3,267.4c0-7.7-3-15.8-9.2-20.6-6.6-5.6-15.8-3.5-19.9,4-2.6,4.6-3.6,9.9-3.8,15.1,0,0-1.1-1.3-1.1-1.3h4.2c10.1,.6,19.6,1.6,29.9,2.8h0Zm.2,.2c-11,.3-23.1,.3-34.3-.6,0,0-1.2,0-1.2,0v-1.2c.5-5.5,2-11.1,5.3-15.6,4.8-7.1,14.8-10.2,22.1-5,6.9,4.9,10.1,14.3,8.2,22.4h0Z"/><path d="M637.7,270.9c11.8-.3,23.7-.1,35.4,1.4,0,0-.5,.5-.5,.5,.7-12.7-10.2-27.7-23.9-21.3-7.2,3.6-9.4,12.1-11.1,19.5h0Zm-.2,.2c0-8.2,2.2-17.8,10.1-21.9,5.2-2.7,11.9-2.2,16.6,1.3,6.9,5.2,8.9,14.1,9.4,22.2,0,0,0,.5,0,.5h-.5c-11.7,.3-24.1-.5-35.5-2.1h0Z"/><path d="M364.5,254.9c-1.9-3.2-3.6-6.6-6-9.4-3.4-4.2-9.4-5.8-14.7-4.7-5.7,1.2-9,6.6-10.3,11.9,0,0-.9-1.4-.9-1.4,11,.4,20.7,1.9,31.9,3.6h0Zm.2,.1c-10.2,0-21.9-.3-32.3-1.6,0,0-1.3-.2-1.3-.2l.4-1.2c1.3-3.7,3.6-7.2,6.9-9.5,4.8-3.3,11.5-4.8,17.1-2.3,4.6,2.3,7,7.2,8.5,11.9,.3,.9,.5,2.1,.7,2.9h0Z"/></g></g><path class="cls-2" d="M366.8,271.7c-3.1,8-5.6,15.3-9,22.2-.8,1.6-4.4,2.5-6.7,2.5-17.2-.4-34.3-1.2-51.5-1.8-5.1-.2-10.2,0-15.8,0v-29.2c27,2.1,54,4.1,82.9,6.4Z"/><path class="cls-2" d="M464.7,301.4c3.4-8.2,6.4-15.3,9.6-22.7,30.8,1.7,61.4,3.5,91.9,5.2,.2,1.1,.3,1.3,.2,1.5-4.6,19-6.4,20.3-25.5,19.5-25-1.1-50.1-2.3-76.2-3.5Z"/><path class="cls-2" d="M576.7,306.3c2.3-6.8,4.2-12.8,6.6-18.7,.5-1.3,2.9-2.6,4.3-2.5,26.9,1.2,53.9,2.5,82.3,4-3.2,6.6-5.7,12.6-9,18.1-.9,1.5-4.1,2.4-6.2,2.3-25.7-.9-51.4-2.1-78.1-3.2Z"/><path class="cls-2" d="M383,272.9c24.3,1.6,48.5,3.1,74.5,4.8-4.1,7.9-7.3,14.8-11.2,21.4-.7,1.3-3.9,1.6-5.8,1.5-21.5-.9-43.1-2-65-3,2.5-8.3,5-16.3,7.5-24.6Z"/><path class="cls-2" d="M678.6,310.7c.9-2.2,1.3-3.3,1.8-4.4q7.3-17,26.2-15.6c6.9,.5,13.7,.8,20.6,1,12.9,.3,17.2,7.3,11.4,18.7-.5,1.1-1.3,2.1-1.8,3-19.2-.9-38.2-1.8-58.1-2.7Z"/><path class="cls-2" d="M460.5,261.2c-12.9-.8-25.2-1.5-37.7-2.2,2.6-13.2,12.6-22.9,22.2-21.6,9.1,1.2,16.1,11.5,15.5,23.8Z"/><path class="cls-2" d="M569.4,267.4c-11.7-.6-23-1.1-34.2-1.7,.8-14.3,8.5-23.6,18.3-22.7,9.6,.9,17.4,12.4,15.9,24.3Z"/><path class="cls-2" d="M637.6,271c1.5-14.9,7.9-22.6,18.2-22.3,9.4,.3,17.1,10.5,17.2,24-11.7-.6-23.3-1.1-35.5-1.7Z"/><path class="cls-2" d="M364.6,255c-11.1-.9-21.5-1.7-32.1-2.6,2.6-8.2,8-12.5,15.4-12.6,7.9-.1,12.3,3.7,16.7,15.2Z"/><g><path d="M598.1,542.4c6.9,0,13.8,.1,20.6,0,6.6-.1,9.5,3.4,9.7,9.4,.4,12.5,.6,25.1,1,37.6,.2,6.3-2.8,9.7-9,10.1-13.2,.7-26.5,1.7-39.7,2-8.8,.2-12.1-2.4-12.6-10.9-.9-13.5-.8-27-.9-40.5,0-5.3,4.1-6.4,8.1-6.6,7.6-.3,15.2,0,22.8,0,0-.3,0-.7,0-1Zm-19.1,12.5v35.6c13.6-.8,26.5-1.5,39.7-2.2-.7-12.1-1.3-23.5-2-35.2-12.9,.6-25.2,1.2-37.7,1.8Z"/><g><path d="M598,542.3l13.9-.6c3.6,0,7.3-.6,10.9,.2,7.3,1.9,6.7,9.6,6.9,15.7,.4,8.1,.3,19.8,.4,28,0,3.4,.4,7.5-1.6,10.5-2,3.2-6.2,3.8-9.7,3.9,0,0-7,.4-7,.4-8.2,.5-19.8,1.6-27.9,1.9-4.7,.1-10.5,.9-14.1-3-3.4-4.1-2.8-9.3-3.2-14.1-.6-11.6-.5-23.4-.4-35-.1-6.6,5.8-7.9,11.1-7.6,7,0,14,.3,21,.6,0,0-.2,.2-.2,.2,0-.4,0-.7,0-1.1h0Zm.2,.2c0,.4,0,.7,0,1.1,0,0-.2,0-.2,0-7,.3-14,.3-20.9,.7-4.1,0-9.4,.7-9,6,.3,10.8,.4,24.1,.8,34.9,.4,6.4-.6,14.5,8,15.1,11.5,.5,23.2-.3,34.8-.7,0,0,7-.4,7-.4,4.6,0,9.4-1.5,10-6.7,.4-1.9,0-4.9,0-6.9-.7-10.9-1.1-24-1.3-34.8-.8-9.1-8.3-7.4-15.1-7.8,0,0-14.1-.5-14.1-.5h0Z"/><path d="M579.1,554.9c.6,12.1,1.1,23.5,1,35.5,0,0-1.1-1-1.1-1,3.3-.1,6.6-.1,9.9-.2,6.6,0,13.3-.3,19.9-.8,3.3-.2,6.6-.6,9.9-.8,0,0-.7,.7-.7,.7-.6-5.8-1-11.7-1.4-17.6-.4-5.2-.9-12.5-1.2-17.6,0,0,1.4,1.2,1.4,1.2-12.1,.5-25.5,.6-37.7,.6h0Zm-.2-.2c12.7-1.2,26.3-2.4,39-3.1,.6,12,1.3,24.5,1.5,36.5,0,0,0,.7,0,.7h-.7c-13.6,0-27.2,1.4-40.8,2.6-.2-12.1,.3-24.8,.9-36.8h0Z"/></g></g><g><path d="M413.7,394.4c0,5.9-.2,11.8,0,17.7,.2,6.3-2.7,10-8.9,10.4-14,.8-28,1.4-42,1.6-5.7,0-10.2-2.6-10.4-9.1-.5-14.2-.9-28.5-.7-42.7,0-1.9,4-5.3,6.2-5.5,15.7-.9,31.4-1.3,47.2-1.4,5.7,0,7.3,4.3,7.5,9.1,.2,6.6,0,13.3,0,19.9,.3,0,.6,0,1,0Zm-10.7,16.8c-.6-12-1.2-23.4-1.8-35.2-13.1,.6-25.7,1.2-37.9,1.7v35.5c13.5-.7,26.1-1.4,39.7-2.1Z"/><g><path d="M413.8,394.3c.3,4.1,.3,9.9,.5,14,.9,9-.7,15-10.9,15.3-11.5,.8-23.3,1.2-34.8,1.1-2.1,0-5,0-7-.1-5.1-.2-9.3-3.9-9.4-9.2,0,0-.3-7-.3-7-.4-10.9-1.2-24-1.1-34.8,0-.6,0-1.4,0-2,1-2.9,4.5-5.8,7.6-6,2.2-.1,8.2-.5,10.4-.6,12.4-.6,25.1-.9,37.6-.6,6.4,.6,7.5,7.3,7,12.6-.1,5.8-.3,11.7-.5,17.4,0,0-.2-.2-.2-.2,.4,0,.7,0,1.1,0h0Zm-.2,.2c-.4,0-.7,0-1,0,0,0,0-.2,0-.2-.2-5.8-.5-11.6-.6-17.4,0-6-1-11.4-8.3-10.5-10,.3-24.7,.7-34.8,1.1-2.5,.1-8.4,.3-10.8,.4-2.1,.4-4.4,2.3-5.2,4.1,0,0,0,.1,0,.2,0,0,0,.4,0,.4-.4,14.1-.5,28.5,0,42.6,0,4.9,4,8.2,8.7,8.2,1.9,.1,4.9-.2,6.9-.2,11.5-.6,23.2-1.3,34.7-1.8,9.4,0,10-5.2,9.8-13.2,.1-4.5,.3-9.4,.6-13.8h0Z"/><path d="M402.9,411.1c-1.2-12-2.3-23.3-2.8-35.1,0,0,1.1,1,1.1,1-3.2,.1-6.3,0-9.5,.1-6.3,0-12.6,.1-19,.5-3.2,.2-6.3,.4-9.5,.7,0,0,.6-.6,.6-.6,.3,8.6,.5,18,.6,26.7,0,3,0,5.9,0,8.9l-1.4-1.3c12.8-.7,26.9-.8,39.7-.8h0Zm.2,.2c-12.9,1.3-26.8,2.6-39.7,3.3,0,0-1.4,0-1.4,0,0-5.7,.1-13.4,.2-19.1,0-5.9,.3-11.8,.5-17.8,0,0,0-.6,0-.6h.6c13,0,25.9-1.3,38.9-2.2,.8,12,1,24.6,.9,36.4h0Z"/></g></g><g><path d="M519.5,479.8c.5,7.7,1.1,13.5,1.2,19.4,.2,8.2-2.6,11.6-10.4,12.1-12.5,.8-25,1.4-37.5,1.6-10.5,.2-13.2-2.4-13.8-12.7-.6-12-.8-24.1-1.2-36.1-.2-6.2,2.7-9.1,8.7-9.3,14.2-.6,28.4-1.3,42.7-1.6,6.4-.2,10.2,3.2,10.3,9.9,0,6.1,0,12.3,0,16.6Zm-49.6-14.2v36.3c13.4-.7,26.2-1.4,39.8-2.1-.6-11.9-1.2-23.3-1.8-34.2h-38Z"/><g><path d="M519.7,479.8c.3,4.6,.7,9.3,1.2,14,.3,4.7,1.4,9.7-1.1,14.1-2.8,4.5-8.7,4.4-13.4,4.8-9.3,.7-18.7,.9-28,.9-5.4-.3-13,1.1-17-3.4-2.2-2.9-2.4-6.8-2.7-10.2-.3-4.7-.6-9.3-.8-14-.4-6.7-.7-14.2-1.1-21-.6-5.7,2-10.6,8.2-11.1,2.1-.3,5-.2,7.1-.4,9.3-.4,18.7-.7,28-1,2.3,0,4.7,0,7-.1,2.3,0,4.9,0,7.2,.9,5.1,2,6,7.7,5.5,12.5-.1,4.7-.2,9.3-.2,14h0Zm-.2,0c0-4.7,0-9.3-.2-14,.2-6.1-1.6-11.5-8.6-11.6-12.8,.7-25.6,1.4-38.4,1.7-3.9,.3-9.6-.7-12.1,2.9-1.2,1.8-1.3,3.9-1.2,6.1,0,0,.1,7,.1,7,0,4.7,0,9.3,.1,14,.3,6.9-.4,14.1,1.2,20.8,1.2,5,6.4,5.9,10.9,5.7,12.8-.4,25.6-1.5,38.4-2.1,6.7-.1,10.3-2.6,10.5-9.6,.2-7-.4-14-.8-20.9h0Z"/><path d="M470,465.7c.6,12.4,1.2,24,.9,36.2,0,0-1.1-1-1.1-1,13.3-.2,26.6-.4,39.9-1.8,0,0-.7,.8-.7,.8-.4-4.3-1.1-12.8-1.3-17.1-.4-5-.8-12.1-1.1-17.1,0,0,1.3,1.2,1.3,1.2-12.1,0-25.7-.7-37.9-1.2h0Zm-.2-.2c12.4-.6,25.7-1.2,38.1-1.2,0,0,1.2,0,1.2,0v1.2c.5,7.9,.8,17.7,1.1,25.6,0,0,.2,8.6,.2,8.6v.8s-.7,0-.7,0c-13.7,0-27.3,1.2-40.9,2.5-.3-12.3,.3-25.3,.9-37.4h0Z"/></g></g><g><path d="M693,538.3c8.3,0,15.4,.1,22.6,0,6.3-.1,8.9,3.3,9.2,9,.5,12.3,1,24.5,1.3,36.8,.2,7.6-2.9,11.3-10.1,11.6-13,.7-26,1.3-38.9,1.5-9.7,.1-12.1-2.4-12.5-12.2-.5-12-.8-24-1.3-36-.3-6,1.9-9.1,8.4-9.2,7.6-.1,15.2-.9,21.6-1.4Zm-17.7,11.4v36.5c13.6-.7,26.4-1.4,39.8-2.1-.7-12.3-1.4-23.7-2-34.3h-37.8Z"/><g><path d="M693,538.2c6.7,0,14.2-.2,21-.5,7.9-.8,11.7,2.8,11.9,10.7,.5,9.5,.6,21.8,.7,31.4,0,2.3,.2,4.7-.2,7.1-1.1,9.6-9,9-16.6,9.5,0,0-14,.9-14,.9-4.7,.3-9.3,.6-14,.7-4.7,0-10,1-14.3-1.5-4.4-3-4.2-9.1-4.5-13.8-.4-9.3-.7-18.6-.9-27.9-.3-8.3-1.1-16.1,10-15.6,7,.1,13.9-.4,20.9-.9h0Zm0,.2c-4.6,.4-9.3,.8-13.9,1.3-2.3,.2-4.7,.4-7,.5-2.2,0-4.5,.4-6.1,1.8-1.6,1.3-1.9,3.5-1.9,5.7,0,0,.4,6.9,.4,6.9,.3,4.7,.4,9.3,.6,14,.2,4.7,.4,9.3,.5,14,.3,7.5,0,13.4,9.3,13.5,13.4,0,28.5,0,41.8-.8,9.2-.7,9.2-8,8.5-15.3,0,0-.8-13.9-.8-13.9-.2-4.7-.4-9.3-.5-14,0-8.1,0-13.4-9.8-13.2-6.8-.2-14.2-.4-21-.4h0Z"/><path d="M675.4,549.8c.6,12.5,1.2,24.1,.9,36.4,0,0-1.1-1-1.1-1,13.3-.2,26.6-.5,39.8-1.9,0,0-.7,.8-.7,.8-.4-4.3-1.1-12.9-1.4-17.1-.4-5-.9-12.2-1.1-17.2,0,0,1.3,1.2,1.3,1.2-12.1,0-25.5-.7-37.7-1.2h0Zm-.2-.2c12.3-.6,25.5-1.2,37.9-1.2,0,0,1.2,0,1.2,0v1.2c.6,7.9,.9,17.8,1.3,25.8,0,0,.2,8.6,.2,8.6v.8s-.7,0-.7,0c-13.7,0-27.2,1.3-40.8,2.5-.3-12.4,.3-25.4,.9-37.7h0Z"/></g></g><g><path d="M571.7,360.9c7.1,0,14.2,0,21.3,0,6.8-.1,10,3.3,10.1,9.8,.4,12.5,.6,25,1,37.5,.2,6.7-3.1,10.1-9.6,10.4-13,.6-25.9,1.3-38.9,1.5-9.7,.2-12-1.8-12.6-11.1-.8-13-1-26-1.3-39-.1-4.7,2.2-7.4,7.1-7.4,7.6,0,15.2,0,22.8,0,0-.6,0-1.1,0-1.7Zm20,12.1h-38v36.1c13.6-.7,26.4-1.3,39.7-1.9-.6-12.2-1.2-23.6-1.7-34.2Z"/><g><path d="M571.6,360.8c5,0,16.2-.8,21-.8,7.6-.5,11.8,4,11.6,11.5,0,0,.1,3.5,.1,3.5,.4,8.1,.3,19.7,.4,28-.1,4.5,.8,10.2-3.1,13.5-3.3,3-9.6,2.3-13.7,2.7-4.7,.2-9.3,.5-14,.8-33,1.8-31.8,5.6-33-28.7-.2-6.7-.2-14.2-.3-21-.2-6.6,3.8-9.2,10-8.6,0,0,7,.2,7,.2,4.7,.1,9.3,.3,14,.5,0,0-.2,.2-.2,.2,0-.6,0-1.2,.1-1.8h0Zm.2,.2v.7c0,.7,.1,.8,.1,1.1,0,0-.2,0-.2,0-6.7,.3-14.2,.5-21,.6-.9,0-2.5,0-3.4,.2-3.5,.4-4.8,3.5-4.5,6.7,0,0,.3,7,.3,7s.5,14,.5,14c.1,4.7,.3,9.3,.5,13.9,.2,3.4,0,6.8,1.2,10,2,5.2,10,3.6,14.6,3.8,11-.3,24-.3,34.9-.8,4.9-.2,8.7-3.1,8.7-8.2,.1-1.9-.2-4.9-.3-6.9,0,0-.7-14-.7-14-.2-4.7-.3-9.3-.4-14-.1-1.9,0-5-.3-6.8-1.2-8.3-9.9-6.4-16-6.8,0,0-14.1-.5-14.1-.5h0Z"/><path d="M591.6,373c-12.7,.6-25.2,1.2-37.9,.9,0,0,1-1,1-1-.3,8.8-.8,18.4-.6,27.1,0,3,.2,6,.2,9l-.7-.7,9.9-.8c5.7-.4,14-.9,19.9-1.2,3.3-.2,6.6-.3,9.9-.5,0,0-1.2,1.3-1.2,1.3-.4-9.7-.5-24.3-.6-34.2h0Zm.2-.2c1.2,11.6,2.4,23.9,3,35.5-10,.6-21.1,.9-31.1,1.2,0,0-10,.1-10,.1h-.7s0-.7,0-.7c.6-12.2,.2-24.9-.4-37.1,13-.3,26.2,.2,39.1,.9h0Z"/></g></g><g><path d="M617,482.5c0,5.9-.2,11.8,0,17.7,.3,7.1-3.3,10.7-9.9,11.1-13.2,.8-26.5,1.5-39.7,1.6-8.9,0-11.8-3.1-12.2-12.1-.5-12.3-.8-24.5-1.1-36.8-.2-5.6,2.4-8.8,8.2-9,14.5-.6,28.9-1.3,43.4-1.7,6.5-.2,9.7,3.3,9.8,10.1,.1,6.4,0,12.8,0,19.1,.5,0,.9,0,1.4,0Zm-50.8,19.5c14-.8,26.6-1.5,39.7-2.2-.5-12.1-1.1-23.4-1.6-35.1-13.6,.6-26.2,1.2-38.1,1.8v35.6Z"/><g><path d="M617.1,482.4c.3,4.1,.3,10,.5,14.1,.2,3.6,.7,7.4-1.1,10.7-1.8,3.5-6.1,5-9.7,5.1,0,0-7,.4-7,.4-4.7,.3-9.3,.5-14,.6-7,0-14,.3-21.1-.1-9.6-.7-9.9-8.3-10.1-16.1-.4-10.5-1.1-21-1.6-31.5,0-1-.2-2.6,0-3.6,.4-6.4,5.2-8.5,11-8.4,0,0,7-.3,7-.3,8.1-.5,19.8-.8,28-1,2.3,0,4.6-.1,7-.2,7.8,0,10.8,5.7,10.2,12.8-.1,5.8-.3,11.7-.5,17.5,0,0-.2-.2-.2-.2,.5,0,1,0,1.5,0h0Zm-.2,.2c-.5,0-1,0-1.5,.1,0,0,0-.2,0-.2-.2-4.7-.4-9.3-.5-14,0-6.8,.2-14.4-8.8-14.2-10.9,.6-24.1,1.2-34.9,1.5,0,0-7,.2-7,.2-7.1-.1-9.4,2.5-9,9.6,.2,10.5,.2,21,.4,31.5-.1,13.4,3,16,16.3,15,10.8-.5,24.1-1.4,34.9-1.9,9.1-.3,9.9-6.1,9.6-13.8,0-4.5,.3-9.4,.6-13.9h0Z"/><path d="M566.4,501.8c13-1.3,26.6-2.8,39.6-3.1,0,0-.9,1-.9,1,0-5.2,0-12.5-.2-17.6-.2-5.9-.6-11.7-1.1-17.5,0,0,.7,.7,.7,.7l-9.5,.8c-5.5,.4-13.5,.8-19.1,1.2-3.2,.2-6.4,.3-9.5,.4l1.2-1.3c0,10.1-.7,25.2-1.2,35.5h0Zm-.2,.2c-.6-11.6-1.1-24-1.2-35.7,0,0,0-1.2,0-1.2h1.2c9.2-.6,19.4-.9,28.6-1.1,0,0,9.5-.1,9.5-.1h.7s0,.7,0,.7c0,11.8,.8,24.1,1.9,36-13.5,1.3-27.3,1.4-40.8,1.5h0Z"/></g></g><g><path d="M681.8,450.2c6.6-.3,13.2-.7,19.8-.9,5.9-.2,10,2.1,10.2,8.8,.4,13,.8,26,1.3,39,.3,6.5-3.3,9.7-9.2,10-13.2,.8-26.4,1.3-39.7,1.6-9.1,.1-12.2-2.4-12.7-11.5-.7-13-.5-26-.7-39,0-4.9,2.7-7,7.4-7.1,7.8-.3,15.7-.7,23.5-1.1,0,0,0,.2,0,.3Zm-19.1,47.5c14.1-.8,26.7-1.5,39.7-2.2-.5-12.2-1.1-23.6-1.5-33.9h-38.2v36.1Z"/><g><path d="M681.9,450.1c2.5-.2,15.2-1.3,17.4-1.5,6.9-.9,13.2,1.1,13.6,9,0,0,.3,7,.3,7,.4,8.1,.4,19.8,.5,28,0,0,0,3.5,0,3.5,.5,7.4-3.6,11.4-10.8,11.4-10.8,.6-24.1,1.6-34.9,2-5.9,.2-14,1-16.4-5.9-1.3-3.4-1.2-7.2-1.5-10.7-.5-9.3-.4-18.7-.3-28,0,0,0-7,0-7,.1-6.8,5.2-8,10.9-7.7,6.8-.1,14.2-.3,21-.3,0,0,.1,0,.1,0,0,.1,0,.2,0,.3h0Zm-.2,.2c0-.1,0-.2,0-.4,0,0,.1,.1,.1,.1-4.6,.4-9.3,.8-14,1.2l-7,.5c-4.4,.2-9.1,.5-8.9,6.2,.3,10.8,.3,24.1,.7,34.9,.1,13.2,1.9,15.2,15.3,14.8,8.2-.1,19.8,0,28-.5,4.4-.4,9.5,.4,13.5-2,4.2-2.7,3.2-8.2,3-12.4,0,0-.8-14-.8-14-.3-6.7-.6-14.2-.7-20.9-.3-9-8.6-7.7-15.2-7.6,0,0-13.9,.1-13.9,.1h0Z"/><path d="M662.8,497.6c13-1.3,26.5-2.7,39.6-3,0,0-.9,1-.9,1,0-8.5,0-17-.6-25.5-.2-2.8-.4-5.6-.6-8.5l.7,.6s-9.5,.3-9.5,.3c-9.5,.2-19.1,.4-28.6,.3,0,0,1.3-1.3,1.3-1.3,0,10.3-.7,25.5-1.2,36h0Zm-.2,.2c-.6-11.7-1.1-24.4-1.2-36.2,0,0,0-1.3,0-1.3h1.3c9.5,0,19.1,.1,28.6,.3,0,0,9.5,.3,9.5,.3h.6s0,.6,0,.6c0,11.6,.8,23.2,1.8,34.8-13.5,1.3-27.3,1.4-40.8,1.4h0Z"/></g></g><g><path d="M438.9,575c0,6.4,0,12.8,0,19.2,0,5.6-2.7,8.9-8.4,9.1-13.5,.7-27,1.5-40.5,1.8-9,.2-11.8-2.1-12.4-11-.9-13.2-.8-26.5-1-39.8,0-5,3.3-6.8,7.8-6.9,14.3-.6,28.5-1.2,42.8-1.5,7.5-.2,10.7,3.1,10.8,10.7,.1,6.1,0,12.3,0,18.4,.3,0,.6,0,1,0Zm-10.6,17.4c-.6-11.8-1.3-23.2-1.8-33.8h-37.8v35.7c13.5-.7,26.2-1.3,39.6-2Z"/><g><path d="M439,575l.5,13.9s.1,3.6,.1,3.6c.6,6.5-2,11.6-9.1,11.9-12.2,.8-24.5,1.4-36.7,1.4-14.4,.4-16.4-2-16.9-16.2-.6-9.3-1-18.6-1.2-28,0,0-.2-7-.2-7-.3-6.7,5.3-8.5,10.8-8.4,0,0,7-.3,7-.3,9.5-.5,21.9-.8,31.5-1,12.4-.8,14.6,5,13.8,16.2-.1,4.7-.3,9.3-.5,14,0,0-.2-.2-.2-.2,.4,0,.7,0,1.1,0h0Zm-.2,.2c-.4,0-.7,0-1,0,0,0,0-.2,0-.2-.2-4.7-.4-9.3-.5-14-.2-4.2,.4-9.5-3.1-12.4-3.5-2.6-8.8-1.4-12.9-1.4-8.2,.4-19.8,.8-27.9,1.1,0,0-7,.2-7,.2-4.3,0-8.9,.5-8.7,6,0,4.4-.1,16.4-.1,21,0,4.7,0,9.3,.2,14,.4,4.4-.2,9.7,2.9,13.1,3.5,3,8.8,1.9,13.1,1.8,4.7-.2,9.3-.6,13.9-.9,7.8-.6,16.5-.7,24.3-1.3,6.8-1.1,6-7.7,6.2-13,0,0,.6-14,.6-14h0Z"/><path d="M428.2,592.3c-1.2-11.5-2.3-22.3-2.8-33.6,0,0,1.1,1,1.1,1-12.6-.3-25.2-1.1-37.8-.5,0,0,.6-.6,.6-.6,.2,5.3,.4,12.7,.5,17.9,0,5.3,.2,12.7,.2,17.9,0,0-1.4-1.3-1.4-1.3,12.7-.6,26.8-.7,39.6-.7h0Zm.2,.2c-12.8,1.3-26.8,2.6-39.6,3.2,0,0-1.4,0-1.4,0v-1.4c0-8.6,.2-18.2,.4-26.8,0,0,.3-8.9,.3-8.9,0,0,0-.6,0-.6h.6c12.9,.7,25.8-.2,38.8-.5,.8,11.5,.9,23.6,.9,34.9h0Z"/></g></g><g><path d="M475.7,360.9c6.6,0,13.2,0,19.9,0,8,0,10.7,2.3,11,10.2,.4,12.3,1,24.5,1.3,36.8,.1,7.4-2.6,10.3-10,10.7-12.7,.6-25.5,1.3-38.2,1.5-10,.2-13.1-2.5-13.5-12.2-.6-12.5-.7-25-.9-37.5,0-4.9,2.3-7.7,7.7-7.8,7.6-.1,15.2-.7,22.8-1,0-.2,0-.5,0-.7Zm21.3,46.3c-.6-12.4-1.1-23.7-1.6-34.1h-38v36.1c13.6-.7,26.2-1.3,39.6-1.9Z"/><g><path d="M475.7,360.8l13.9-.6c5.7,0,14-1.8,16.9,4.6,1.4,3.4,1.1,7.2,1.4,10.7,.2,4.7,.3,9.3,.4,14,0,0,.2,14,.2,14,.3,8.3,0,15-10.2,15.4-11.6,.5-23.4,1.3-34.9,2-5.8,.3-13.9,1.2-16.8-5.2-1.5-3.4-1.5-7.2-1.7-10.7-.2-4.7-.4-9.3-.5-14-.1-6.7-.1-14.2,0-21,.2-6.7,4.5-8.5,10.5-8.3,0,0,7-.1,7-.1,4.7,0,9.3-.1,14-.1v.2c-.1-.3-.1-.5,0-.8h0Zm.2,.2c0,.3,0,.5,0,.7,0,0-.2,0-.2,0-4.6,.4-9.3,.8-13.9,1.1l-7,.5c-2,.2-4.5,.1-6.2,1.4-1.6,1.1-2.2,3.2-2.2,5.3l.2,7,.3,14c0,4.7,.3,9.3,.4,13.9,.2,4.1-.2,9.4,3.1,12.2,3.5,2.6,8.7,1.9,12.8,1.9,9.3-.2,18.6-.3,27.9-.5,12.8-.2,17.4-.3,15.8-14.9-.6-8.2-1.1-19.8-1.4-27.9-.2-3.4,.1-6.9-1-10-1.2-3.2-4.7-3.8-7.9-3.9,0,0-6.8-.2-6.8-.2,0,0-14-.5-14-.5h0Z"/><path d="M496.9,407.1c-1.1-11.6-2.1-22.6-2.5-34,0,0,1.1,1,1.1,1-12.7-.4-25.4-1.1-38-.5,0,0,.6-.6,.6-.6,.3,8.7,.5,18.3,.6,27.1,0,3,0,6,0,9,0,0-1.4-1.3-1.4-1.3,12.7-.6,26.8-.7,39.6-.7h0Zm.2,.2c-12.9,1.2-26.8,2.5-39.6,3.1,0,0-1.4,0-1.4,0,0-5.8,.1-13.5,.2-19.4,0-6,.3-12,.5-18v-.6s.6,0,.6,0c13,.6,26-.2,39.1-.5,.7,11.7,.8,23.8,.6,35.3h0Z"/></g></g><g><path d="M533,571.3c0,6.1-.1,12.3,0,18.4,.2,5.6-2.2,9.1-7.9,9.5-14,.9-27.9,1.8-41.9,2.3-6.5,.2-11.2-3.1-11.5-9.9-.7-14-1-28-.8-41.9,0-1.8,3.5-5.1,5.5-5.3,15.9-1,31.9-1.3,47.8-1.8,5.4-.2,7.4,3.3,7.5,8,.1,6.9,0,13.7,0,20.6,.4,0,.8,0,1.2,0Zm-12.3-18.2c-13.2,.6-25.8,1.2-38,1.7v35.6c13.9-.8,26.7-1.5,39.6-2.2-.5-12-1-23.3-1.6-35.1Z"/><g><path d="M533.1,571.2s.6,13.9,.6,13.9c0,3.5,.8,7.5-.9,10.8-1.7,3.7-6.2,4.4-9.8,4.5,0,0-6.9,.4-6.9,.4-4.6,.3-9.3,.5-13.9,.7,0,0-13.9,.4-13.9,.4h-3.5c-6.3,.7-12.4-2.2-13.2-9.1-.8-13.7-1.6-28.9-1.6-42.6-.2-3,3.7-6.6,6.5-6.9,2.8-.2,8.7-.5,11.5-.7,12.4-.6,25-1,37.5-1,8.8,.9,7.1,9.4,7.1,15.7,0,4.6-.3,9.3-.4,13.9,0,0-.2-.2-.2-.2,.5,0,.9,0,1.3,0h0Zm-.2,.2c-.5,0-.9,0-1.3,0,0,0,0-.2,0-.2-.2-4.6-.4-9.3-.5-13.9-.4-5.3,1.3-14-6.7-13.7-13.4,.6-30,1.2-43.4,1.7,0,0-3.5,.2-3.5,.2-.2,0-1.2,0-1.4,.1-1.6,.6-3.7,2.4-4.1,4.1,0,.2,0,1,0,1.3-.2,11.5-.4,23.2,0,34.7,.3,4.4-.4,9.6,3.2,12.8,3.5,3.2,8.7,2.3,13,2,10.8-1,23.9-1.8,34.7-2.3,4.6,0,8.7-.9,9.3-6.3,.2-1.8,.2-4.8,.3-6.7,0,0,.5-14,.5-14h0Z"/><path d="M520.6,553.2c-12.5,1.2-25.4,2.4-37.9,2.6,0,0,.9-1,.9-1-.3,8.6-.8,18.1-.6,26.7,0,3,.2,5.9,.2,8.9l-.7-.6,9.9-.9c5.7-.4,14-1,19.8-1.4,3.3-.2,6.6-.4,9.9-.5,0,0-1.2,1.3-1.2,1.3-.4-10-.4-24.9-.4-35.1h0Zm.2-.2c1.1,11.9,2.2,24.5,2.8,36.4-10,.7-21,1.1-31,1.5,0,0-9.9,.2-9.9,.2h-.7s0-.6,0-.6c.5-12,.2-24.5-.4-36.5,13-.9,26.2-1,39.1-.9h0Z"/></g></g><g><path d="M699.7,386.1c.4,5.4,.8,10.8,1,16.2,.3,8.6-2.6,11.7-11,12.1-13,.5-26,1.2-39,1.4-8.6,.1-10.9-2.3-11.3-10.8-.6-11.8-1.3-23.6-1.1-35.3,.2-10.5,1.4-11.1,11.7-11.4,12.8-.4,25.5-1.1,38.3-1.4,8.3-.2,11,2.6,11.3,10.8,.1,3.2,.1,6.4,.1,9.6,0,2.9,0,5.9,0,8.9Zm-49.9-17.1c0,11.4-.2,21.5,.2,31.5,0,1.6,2.7,4.4,4,4.3,11.7-.3,23.4-1.1,35.8-1.8-.7-12-1.3-23.4-1.9-34.1h-38.1Z"/><g><path d="M699.8,386.1c.3,4.6,.6,9.3,1.1,13.9,1.2,8.8-.8,14.8-10.7,15.3-11.6,.8-23.2,1.1-34.9,1.1-14.8,.4-16.1-1.8-16.6-16.2-.4-8.2-1.5-19.8-1.5-27.9,0-3.6-.3-7.2,.9-10.8,1.5-4.1,6.6-4.1,10.1-4.3,0,0,7-.3,7-.3,9.3-.4,18.6-.7,27.9-.9,3.5,0,7.2-.4,10.7,.6,6.9,1.8,6.2,10.1,6.1,15.7,0,0-.1,14-.1,14h0Zm-.2,0c0-6.9,0-14-.7-20.9-.9-7.3-5.8-7.8-12.1-7.2-10.4,.6-20.9,1-31.4,1.3,0,0-7,.2-7,.2-2.1,0-4.5,0-6.4,.9-3.3,1.4-2.5,8.6-2.8,11.8-.2,9.3,0,18.6,.4,27.9,.3,13.9,1.4,16.1,15.7,14.9,9.3-.5,18.6-1.2,27.9-1.5,4.4-.4,9.3,.4,13.4-1.5,4.1-2.3,3.9-7.8,3.8-12-.1-4.6-.4-9.3-.7-13.9h0Z"/><path d="M649.9,369c.7,8.8,.8,18.7,1.1,27.5,0,1,0,3,.1,3.9,.3,1.3,1.7,2.8,2.9,3.3,0,0,.2,0,.2,0h1.1c5.2,0,10.9,.1,16.1-.1,6.1-.2,12.2-.8,18.4-1.3l-.6,.7c-.8-8.2-1.5-17.3-2-25.5-.2-2.8-.4-5.7-.5-8.5l1.3,1.2c-12.2,0-25.8-.6-38-1.2h0Zm-.2-.2c12.8-.6,26.5-1.2,39.4-1.2,.6,11.6,1.2,23.7,1.4,35.4,0,0,0,.7,0,.7,0,0-.7,0-.7,0-11.9,0-23.8,1.2-35.6,2-2.3,.1-5-2.9-5.3-5.1,0-1.4-.1-2.8-.1-4.1-.1-9.2,.2-18.6,.9-27.7h0Z"/></g></g><g><path d="M426.6,486.1c0,6.4,0,12.7,0,19.1,0,5.9-2.8,9.3-8.7,9.7-13.2,.7-26.4,1.6-39.7,1.9-10,.2-13-3-13.4-13.2-.5-11.8-.7-23.5-1.1-35.3-.2-6,2.5-9.2,8.7-9.4,13.7-.5,27.4-1.1,41.2-1.5,8.7-.3,11.6,2.6,11.7,11.1,0,5.9,0,11.8,0,17.7,.5,0,.9,0,1.4,0Zm-11.1,17.8c-.5-12-1-23.3-1.6-35.3-13.4,.6-26,1.1-37.9,1.7v35.6c13.6-.7,26-1.3,39.4-2Z"/><g><path d="M426.7,486l.5,13.9c0,3.5,.7,7.5-.9,10.8-1.5,3.7-6,5.2-9.5,5.2,0,0-7,.4-7,.4-4.6,.3-9.3,.5-14,.7-4.7,.1-9.3,.2-14,.2-5.5,0-13.3,.6-15.9-5.5-1.5-3.3-1.5-6.9-1.7-10.4-.4-9.3-1-18.6-1.4-27.9,0-3.5-.9-7.5,.6-10.9,1.5-3.8,6.3-5.2,9.8-5.1,0,0,7-.3,7-.3,10.2-.5,23-.8,33.2-1,11.7-.3,12.9,5.8,12.3,15.9-.1,4.7-.3,9.3-.5,14,0,0-.2-.2-.2-.2,.5,0,1,0,1.5,0h0Zm-.2,.2c-.5,0-1,0-1.5,.1,0,0,0-.2,0-.2-.4-6.9-.2-14-.9-20.8-.9-7.1-6.5-7.1-12.3-6.7-9.6,.5-21.9,1-31.4,1.3,0,0-7,.2-7,.2-7-.1-9.1,3.2-8.7,10,.2,10.5,.1,21,.3,31.4,0,13.4,3.9,15.7,16.8,14.6,11.5-.7,23.3-1.5,34.9-2,9.5,0,9.1-6.1,9.3-13.7,0,0,.5-14,.5-14h0Z"/><path d="M415.4,503.8c-1.1-12-2.1-23.3-2.5-35.2,0,0,1.1,1,1.1,1-3.2,.1-6.3,0-9.5,.1-6.3,0-12.6,.1-19,.5-3.2,.2-6.3,.4-9.5,.7,0,0,.6-.6,.6-.6,.3,8.6,.5,18.1,.6,26.7,0,3,0,5.9,0,8.9,0,0-1.4-1.3-1.4-1.3,12.7-.6,26.7-.7,39.4-.8h0Zm.2,.2c-12.8,1.3-26.6,2.6-39.5,3.2,0,0-1.4,0-1.4,0,0-5.7,.1-13.4,.2-19.2,0-5.9,.3-11.9,.5-17.8v-.6s.6,0,.6,0c13,0,25.9-1.2,38.9-2.1,.7,12,.8,24.6,.7,36.5h0Z"/></g></g><g><path d="M571.6,703.8c6.9,2.2,11.9,3.4,16.5,5.4,4.5,2,6.3,6.5,3.6,10.3-1.8,2.5-6.9,5.2-9.4,4.3-7.7-2.8-13.9-2-20.8,2.3-2.3,1.5-8.9,.4-10-1.5-1.6-2.6-1.2-9.2,.8-10.7,6.1-4.4,13.3-7.2,19.3-10.2Z"/><path d="M571.6,703.6c4.5,.9,8.7,1.8,13,3.2,2.2,.8,4.5,1.4,6.4,2.9,5.9,5.1,2.2,12-4.4,14.1-1.3,.5-2.9,.9-4.4,.4-.8-.3-1.6-.6-2.4-.8-3.1-.9-6.5-1-9.7-.2-3.3,.8-5.9,2.5-8.9,4.2-3.1,1.1-8.6,.6-10.9-2-1.4-2.2-1.4-4.8-1.2-7.3,.2-1.8,.8-4.2,2.5-5.3,6.1-4.2,13-6.5,19.8-9.2h0Zm0,.2c-6.2,3.8-13.2,6.7-18.8,11.3-.6,.9-.8,2-.9,3.3-.2,1.8-.1,4,.7,5.6,.4,.5,1.4,.9,2.2,1.1,1.8,.5,4.1,.8,5.8,.3,4.8-2.9,10.6-4.5,16.2-3.4,1.9,.3,3.8,.9,5.7,1.5,.2,0,.5,.1,.7,.1,3.7-.2,8.4-3.3,8.7-7.3,.3-4.4-4.3-6.4-7.9-7.7-4.1-1.6-8.4-2.9-12.4-4.7h0Z"/></g><path class="cls-2" d="M579,554.8c12.5-.6,24.8-1.2,37.7-1.8,.7,11.6,1.3,23,2,35.2-13.2,.7-26.1,1.4-39.7,2.2v-35.6Z"/><path class="cls-2" d="M403,411.2c-13.6,.7-26.3,1.4-39.7,2.1v-35.5c12.2-.6,24.8-1.1,37.9-1.7,.6,11.8,1.2,23.2,1.8,35.2Z"/><path class="cls-2" d="M675.3,549.7h37.8c.6,10.6,1.3,22,2,34.3-13.4,.7-26.2,1.4-39.8,2.1v-36.5Z"/><path class="cls-2" d="M566.3,501.9v-35.6c12-.5,24.5-1.1,38.1-1.8,.5,11.7,1,23,1.6,35.1-13.1,.7-25.7,1.4-39.7,2.2Z"/><path class="cls-2" d="M662.7,497.7v-36.1h38.2c.5,10.3,1,21.7,1.5,33.9-12.9,.7-25.6,1.4-39.7,2.2Z"/><path class="cls-2" d="M428.2,592.4c-13.4,.7-26.1,1.3-39.6,2v-35.7h37.8c.6,10.6,1.2,22,1.8,33.8Z"/><path class="cls-2" d="M497,407.2c-13.4,.7-26,1.3-39.6,1.9v-36.1h38c.5,10.4,1,21.7,1.6,34.1Z"/><path class="cls-2" d="M520.6,553.1c.5,11.8,1,23.1,1.6,35.1-12.9,.7-25.7,1.4-39.6,2.2v-35.6c12.2-.6,24.8-1.1,38-1.7Z"/><path class="cls-2" d="M415.5,503.9c-13.4,.7-25.9,1.3-39.4,2v-35.6c11.9-.5,24.5-1.1,37.9-1.7,.5,12,1,23.2,1.6,35.3Z"/></g></g></svg>