<?xml version="1.0" encoding="UTF-8"?><svg id="Layer_1" xmlns="http://www.w3.org/2000/svg" viewBox="0 0 1024 1024"><defs><style>.cls-1{fill:#ebebec;}.cls-2{fill:#fff;}.cls-3{fill:#edc022;}</style></defs><polygon class="cls-1" points="31.7 4 1026.6 13.8 948.2 1020 -2.6 944.9 31.7 4"/><path class="cls-3" d="M287.1,613.7c26.3-10.3,50.5-23.4,72.4-40.4,7-5.4,13.8-7,22.1-5.3,22.1,4.4,44.4,4.8,66.7,1.4,53.9-8.2,100.3-31.1,136.6-72,35.6-40.1,48.9-86.5,33.6-139-13.2-45.3-42.9-77.9-83.1-100.9-49.7-28.4-103.5-37.6-159.9-28.7-49.7,7.8-93.5,28.3-128.3,65.7-50.5,54.4-56.2,133.1-12.2,190.8,12.5,16.4,28.4,30.6,44.3,44.1,11.8,10,16.5,21.7,17.4,36.2,1.1,16.8-1.9,32.8-9.7,48.1Z"/><g id="gbNYCU"><g><path d="M394.4,227.2c73.4,1.1,131.5,18.3,181.5,58.9,34.4,27.9,55.6,63.9,61.6,108.1,.7,5.5,3.5,5.8,7.8,5.5,35.6-2.5,70.5,1.7,104.4,13,44.9,15,82.3,40.3,108.5,80.3,41.5,63.4,32.6,142.1-22.3,198-8.6,8.7-18.5,16.1-27.4,24.5-3.2,3.1-6.4,7.4-7.4,11.6-4.5,19.3-1.3,37.2,11.4,52.9,1.5,1.9,3,3.8,4.2,5.9,4.1,7.7-.7,17-9.2,17.7-7.6,.7-15.3,.9-22.9,1.7-8.6,1-16.2-1.1-22.9-6.4-14.5-11.4-29.2-22.7-43.4-34.6-4.2-3.5-8-4.6-13-3.8-30.8,4.8-61.8,6.8-92.5,1-75.7-14.3-132.1-53.5-161.7-126.8-2.2-5.5-3.8-11.4-5.1-17.2-.8-3.6-2.2-4.8-5.8-4.3-26.4,3-52.8,2-78.9-2.9-4.6-.9-8,.3-11.7,3.5-13.1,11.4-26.8,21.9-39.8,33.3-12.5,10.9-26.6,13.3-42.3,10.5-3.7-.7-7.6-.9-11.4-1.1-9.6-.5-15.2-10.3-10.5-18.7,1.5-2.7,3.5-5.2,5.4-7.6,12.3-15.8,14.2-33.6,11-52.6-1.4-8.1-5.8-13.4-12.6-18.1-38.3-26.3-63.1-62.3-73.3-107.5-12.5-55.7,3-104.7,40-147,34.2-39.1,78.6-60.9,128.8-71.3,19.4-4,39.4-5.4,49.6-6.7Zm-124.5,406.1c26.3-10.3,50.5-23.4,72.4-40.4,7-5.4,13.8-7,22.1-5.3,22.1,4.4,44.4,4.8,66.7,1.4,53.9-8.2,100.3-31.1,136.6-72,35.6-40.1,48.9-86.5,33.6-139-13.2-45.3-42.9-77.9-83.1-100.9-49.7-28.4-103.5-37.6-159.9-28.7-49.7,7.8-93.5,28.3-128.3,65.7-50.5,54.4-56.2,133.1-12.2,190.8,12.5,16.4,28.4,30.6,44.3,44.1,11.8,10,16.5,21.7,17.4,36.2,1.1,16.8-1.9,32.8-9.7,48.1Zm299.6-73.1c-28.4,23.7-59.6,38.6-94,47.4,.5,2.6,.8,4.4,1.3,6.2,8,29.4,23.6,54.3,46.4,74,52.8,45.5,114.4,60.6,182.6,50.6,6-.9,10.9-.1,15.5,3.4,2.9,2.2,5.8,4.3,8.7,6.4,19.1,13.4,39.7,23.8,61.8,33-.2-1.5-.1-2.3-.4-2.8-8.7-15.1-10.2-31.2-8-48.1,1.8-13.9,7.2-25,19.8-32.4,13.2-7.8,23.6-18.8,32.7-31.2,32.5-44.5,41.7-92.5,19.3-143.9-18.8-43-52.9-70.6-95.4-88.5-38.5-16.2-78.5-20.7-118.9-15.7-3,18.7-5.9,36.6-8.7,54.5-21.2,44.7-62.8,87.2-62.8,87.2Z"/><g><path d="M394.4,227.1c71,.9,135.5,17.6,189.6,65.7,27.8,24.7,47,58.7,52.9,95.5,0,0,.7,4.2,.7,4.2,.5,2.5,.6,6,3.6,6.7,4.1,.6,8.5-.4,12.7-.3,11.4-.5,22.8-.3,34.2,.7,22.7,1.9,45.3,6.8,66.8,14.5,73,24.4,134.2,92.2,129.3,172.3-2.1,40.1-21.2,78.2-49.6,106.2-6.1,6-12.8,11.4-19.2,17-5.2,4.7-11.1,9.3-13.6,16-4.2,15-3,31.8,4.8,45.4,2.7,5.1,6.7,9.2,9.8,14,4.1,6.2,1.7,15.5-5.5,18.1-1.3,.5-2.8,.8-4.2,.9-5.7,.5-11.4,.7-17.1,1.2-2.8,.2-5.7,.7-8.5,.7-5.7,.1-11.5-1.4-16.4-4.5-2-1.1-5-3.7-6.9-5.1,0,0-6.7-5.3-6.7-5.3-9-7-18-14-26.8-21.3-4.2-3.2-8.7-8.4-14.1-8.9-2.8-.4-5.6,.3-8.4,.7-2.8,.4-5.6,.8-8.5,1.2-5.7,.7-11.3,1.3-17,1.8-17.1,1.4-34.3,1.5-51.3-.6-28.2-3.8-56.1-11.9-81.5-24.9-41.2-20.6-73-56.6-90.8-98.9-2.3-5.2-4.4-10.6-5.8-16.1-.4-1.4-.7-2.8-1-4.2-.6-2.4-.8-6-3.9-6.1-18.4,1.7-37,2.5-55.5,.7-5.7-.5-11.4-1.2-17-2.1-4.2-.4-8.3-2-12.5-1.6-2.8,.3-5.2,1.8-7.3,3.7-6.2,5.3-16.7,14-23,19.2-4.4,3.6-8.8,7.3-13.1,11-4.3,3.8-8.7,7.6-13.9,10.1-10.3,5.3-22.5,5.6-33.7,3.4-2.8-.4-5.6-.6-8.5-.8-2.9,0-5.9-.6-8.4-2.3-5.1-3.2-7.3-10.1-4.9-15.6,2.4-5.2,6.7-9.3,9.7-14.2,9.4-14.4,10.5-32.6,7.1-49.1-1.2-5.5-4.6-10.3-9-13.8-3.2-2.5-7.1-5.1-10.3-7.5-10.2-7.8-19.8-16.5-28.2-26.2-30-34.5-45.1-81.5-41.6-127,2.7-31.4,15.9-61.3,35.2-86,15.6-20.3,35-37.9,57-51.1,24.3-14.8,51.6-24.6,79.5-30.4,16.7-3.6,33.8-5,50.8-7h0Zm0,.1c-17,2-34.1,3.4-50.8,7-50.1,10.2-98.2,35-130.8,75-14.6,17.3-26.5,37.4-33.4,59-9,27.1-9.2,56.5-2.9,84.2,8.6,39,30.9,74.5,62.5,98.9,4.3,3.6,9.4,6.8,13.7,10.2,4.5,3.6,8.1,8.6,9.3,14.3,3.1,15.4,2.5,32.1-5.1,46.1-1.4,2.5-2.9,5-4.6,7.3-2.5,3.4-5.4,6.6-7.2,10.5-3,7.1,1.7,15.1,9.3,16.3,3.9,.4,7.8,.4,11.7,1.1,0,0,4.2,.7,4.2,.7,1.4,.2,2.8,.4,4.2,.4,8.4,.7,17.1-.6,24.7-4.4,5.1-2.5,9.4-6.2,13.7-9.9,4.3-3.7,8.7-7.4,13.1-11,4.7-3.9,15.3-12.6,19.7-16.4,2.2-1.8,4.4-4,6.8-5.3,5.3-3,11.4-.3,17,.2,5.6,.9,11.3,1.6,16.9,2.1,17.7,1.6,35.6,1.4,53.2-.6,3.8-.6,5.9,.9,6.5,4.7,.5,2,.9,4.3,1.5,6.2,2.9,11,7.9,21.3,13,31.4,17.9,34.8,46.3,64.1,81.1,82.2,15.7,8.3,32.5,14.6,49.7,19.2,22,6,44.7,9,67.5,8.3,14.2-.4,28.4-1.8,42.5-3.9,11.9-2.5,14.3,1.3,22.9,8.4,8.8,7.2,17.8,14.3,26.8,21.3l6.7,5.3c2.3,1.7,4.4,3.6,6.8,5.1,4.8,3,10.5,4.5,16.2,4.4,2.8,0,5.7-.5,8.5-.7,5.7-.5,11.4-.7,17.1-1.2,1.4,0,2.8-.3,4.1-.8,6.9-2.6,9.5-11.5,5.4-17.6-3.1-4.7-7.1-8.9-9.8-14-7.8-13.8-9.1-30.6-4.8-45.7,2.5-6.9,8.5-11.5,13.7-16.2,6.4-5.6,13.1-11,19.2-17,28.2-28,47.3-65.9,49.3-105.9,4.7-79.8-56.3-147.2-129-171.4-21.4-7.7-43.9-12.6-66.5-14.5-11.3-1-22.7-1.2-34.1-.8-4.3,0-8.6,.9-12.9,.3-3.3-.7-3.7-4.6-4.1-7.3,0,0-.7-4.2-.7-4.2-5.8-36.7-24.9-70.6-52.5-95.3-53.9-48.2-118.3-64.9-189.3-65.9h0Z"/><path d="M270,633.2c24.9-9.9,48.9-22.7,70.2-39,2.7-2,5.4-4.1,8.5-5.5,3.1-1.4,6.5-2.1,9.9-2.1,6.7,.3,13.2,2.3,20,2.9,66.3,7.1,136.7-18,182.9-66.3,18.6-19.2,33.9-42.3,41.1-68.2,7.5-25.9,5.9-53.7-2-79.3-27.8-92.5-136.3-139-226.9-128.9-26.6,2.8-53.1,9.1-77.5,20.2-63.5,29.1-112.2,88.7-106.9,161.2,1.8,25.1,10.5,49.6,24.7,70.3,13.2,19.4,31.1,35.3,48.8,50.5,14,11.7,18,27.9,17.3,45.5-.4,13.4-3.8,26.9-10,38.7h0Zm0,0c9-18,12.2-39,8-58.8-3.6-15.1-11.9-22.3-23.2-31.7-15.2-13.2-30-27.2-41.4-43.9-19.2-27.7-28.2-62.3-24.7-95.9,6-62.1,52.1-111.7,107.2-136.8,36.8-16.5,77.9-23.3,118.1-21.1,78.9,5.2,163.3,51,187,130.5,8,25.7,9.7,53.6,2.2,79.6-7.2,26.1-22.5,49.2-41.1,68.6-34.2,36.4-81.5,58.4-130.7,65.5-17.5,2.6-35.3,3-52.8,.8-6.7-.6-13.2-2.6-19.9-2.9-6.8-.2-12.9,3.2-18.1,7.5-21.5,16.3-45.4,28.9-70.6,38.7h0Z"/><path d="M569.5,560.2c-26.8,22.5-60.7,39.7-93.8,47.3,.4,2,.7,4,1.2,5.9l1.7,5.8c3.7,11.5,8.6,22.7,14.9,33.1,8.4,13.8,19.1,26.2,31.5,36.5,50.5,43.8,115.5,59.5,181.1,49.3,6.4-1.1,12.2,.6,17.1,4.7,21,15.9,44.5,28.1,68.7,38.2,0,0-.2,.2-.2,.2-.2-1.1,0-2.1-.6-3-2.3-4-4.2-8.3-5.5-12.7-4.7-14.7-4.4-36.1,1.7-50.3,2.8-6.6,7.7-12.2,13.7-16.1,3.4-2.2,7.5-4.5,10.6-7.1,17.9-13.9,30.8-33.4,41.1-53.5,27.1-52.6,13.8-114.6-25-157.6-30.8-33.4-74.6-53.2-118.9-60.9-22.4-3.7-45.3-3.9-67.8-1.1l.3-.3s-8.8,54.5-8.8,54.5c-15.9,32.3-38.4,61-62.9,87.1h0Zm0,0c24.4-26.1,46.9-55.2,62.6-87.1,.1-.1,8.6-54.6,8.6-54.7,22.6-2.9,45.7-2.8,68.3,.8,66.6,10.8,133.4,52.6,152.9,120.1,6.8,21.7,8.2,45.2,3.1,67.5-7,30.8-28,66.1-53,85.6-4.3,3.5-9.7,6-14,9.6-9,7.2-13.2,18.5-14.3,29.7-1.4,11.2-1,22.8,2.4,33.6,1.3,4.4,3.2,8.6,5.5,12.6,.6,1,.4,2.3,.7,3.4,0,0-.3-.1-.3-.1-24.2-10.1-47.9-22.2-68.9-38.1-4.9-4.1-10.5-5.7-16.8-4.6-65.4,10.4-131.4-5.2-181.7-49.3-25-20.8-42.8-50.2-49.3-82,34.4-8.5,67-24.5,94.2-47.2h0Z"/></g></g></g><path class="cls-2" d="M569.5,560.2c-28.4,23.7-59.6,38.6-94,47.4,.5,2.6,.8,4.4,1.3,6.2,8,29.4,23.6,54.3,46.4,74,52.8,45.5,114.4,60.6,182.6,50.6,6-.9,10.9-.1,15.5,3.4,2.9,2.2,5.8,4.3,8.7,6.4,19.1,13.4,39.7,23.8,61.8,33-.2-1.5-.1-2.3-.4-2.8-8.7-15.1-10.2-31.2-8-48.1,1.8-13.9,7.2-25,19.8-32.4,13.2-7.8,23.6-18.8,32.7-31.2,32.5-44.5,41.7-92.5,19.3-143.9-18.8-43-52.9-70.6-95.4-88.5-38.5-16.2-78.5-20.7-118.9-15.7-3,18.7-5.9,36.6-8.7,54.5-21.2,44.7-62.8,87.2-62.8,87.2Z"/></svg>