<?xml version="1.0" encoding="UTF-8"?><svg id="Layer_1" xmlns="http://www.w3.org/2000/svg" viewBox="0 0 1024 1024"><defs><style>.cls-1{fill:#ebebec;}.cls-2{fill:#fff;}.cls-3{fill:#edc022;}</style></defs><polygon class="cls-1" points="13.2 29.3 1025.5 77.4 1025.5 919.2 -1.5 994.7 13.2 29.3"/><g><path class="cls-2" d="M531.9,490.5c10-.4,17.9,7.9,26.9,12.3,7.5,3.7,16,4.7,24.3,5.5,6.5,.7,13.2,1.3,19.6-.3,22.2-5.4,31.7-33.5,52.5-43.3,7.2-3.4,15.3-4.3,23.2-5.2,11.2-1.2,22.3-2.4,33.5-3.7-.1-26.3-1.5-52.6-4.1-78.8-32.8-6.2-66.9-12.4-99.4-4.3-24.2,6-46.8,19.9-71.7,20.1-7.1,0-18.9-.4-20.7,9.1-1.2,6.4,4,16.7,5.3,22.9,4.6,21.7,8.1,43.6,10.7,65.6Z"/><path class="cls-3" d="M518.5,409c1.2,1.4,3.2,2.1,7,2.9,5.7,1.3,11.5,2.1,17.3,2.5,11.7,.8,23.4,0,34.8-2.7,9.5-2.2,18.6-5.4,27.9-8.1,17.7-5.1,36.1-8.1,54.5-8.8,9-.4,18-.2,27,.5,4.5,.3,16.5,4.1,20.5,.9,4-3.3,1.3-19.3,1.4-24.3,.2-9.1,.6-18.2,1.3-27.3,1.4-18.6,3.7-37,6.7-55.4-3.3,1.6-5.3,2.6-7.3,3.5-67.5,33.5-137.7,45.4-212,28,0,.4,0,1.8,.4,3.2,6.2,25.6,12.3,51.3,17.9,77,.9,4.2,1.3,6.5,2.7,8.1Z"/><path class="cls-3" d="M712.7,448.4c-.5-.6-1.1-1.1-1.8-1.4-6.3-3.2-20.1-.6-26.8,.2-16.9,2-33.6,7.5-48.9,14.1-18,7.8-32.3,20.3-52.2,24.4-14.6,3-41.5,3.3-52-9.9,1.4,10,3.5,20,5.1,30,2.7,17.2,5.6,34.4,3.8,51.8-1.2,11,3.2,18.8,12.1,24.4,7,4.4,15.2,6.5,23,4.4,14.1-3.8,28.2-8,41.7-13.7,35.4-15,71.8-18.7,109.3-10.6,9.9,2.1,19.6,5.5,30.1,8.5-18.1-32.2-31.2-67.1-38.8-103.3-1.1-5.3-.9-14.7-4.6-18.9Z"/></g><g><path class="cls-2" d="M503.4,431.5c6-.9-9.7-54.4-11.7-58.9-3.2-7.5-8.3-6-16.2-6.5s-14.4-.5-21.6-.2c-19.1,.7-29.8,15.3-44.6,24.9-12.1,7.9-27.2,10.2-41.7,10.6-14.5,.4-29.1-.9-43.6,.6,16.2,30.5,29.8,62.4,40.6,95.2,26-1.1,49-16.1,70-31.1,21.1-15,43-31,68.7-34.6Z"/><path class="cls-3" d="M504,422c-19.6,2-34.9,6.8-51.6,17.7-15.7,10.3-30.1,23.1-45.8,33-7.9,5-16.6,9-25.8,10.8-4.6,.9-9,.7-13.7,.8-5.7,0-6-.7-4.9,5.2,1.9,10.1,7.6,20.6,11,30.3,3.5,9.7,6.9,19.4,10.2,29.2,5.2,14.9,8.8,30.3,6.6,46.4-.6,4.2,0,8.6,0,12.8,.5,.2,1,.4,1.6,.6,.7-1,1.5-1.9,2.2-2.9,19.7-28.9,46.6-50.1,74.4-70.4,10.4-7.6,21.4-14.5,34.7-15.5,6.8-.5,13.8,.9,20.9,1.5-1.7-10.5-2.9-21.4-5.1-32.1-4.8-22.4-9.7-44.9-14.5-67.3Z"/><path class="cls-3" d="M360.9,405.6c2.4-.3,4.8-.6,7.2-1,20.7-3.1,46.1-8.5,62.9-21.5,19.3-14.9,41.2-8.9,63.3-5.6-4.7-21.4-9.3-42.8-14-64.2-1.9-9-4.1-17.9-5.3-27-.6-4.5,1-9.2,1.2-13.8,.4-8.9-3.2-14.5-11.2-17.7-8.1-3.3-16.4-2.5-23.7,1.7-8,4.6-15.6,10-22.7,15.8-11.3,9.1-22.3,18.6-36.1,24.1-31,12.4-62.4,16.1-94.8,5.9-10.4-3.3-21.1-5.7-33.4-3,2.9,3.1,5.1,5.3,7.2,7.6,22.7,23.6,42.8,49.2,57.2,78.9,2.4,5,4.7,10.1,7.2,15.1,2.8,5.6,3.2,5.9,9.4,6.1,8.5,.2,17.1-.3,25.6-1.3Z"/></g><g id="BWUsXS"><g><path d="M406.9,641.6c16.7,33.3,34.2,68.3,51.9,103.1,13,25.5,26.3,50.8,39.7,76,4.7,8.9,5.3,17.6-.3,26.2-6.3,9.7-17.9,12.4-28.3,7.3-10.3-5-17.6-12.9-22.8-22.8-11.9-22.9-24-45.8-35.6-68.9-69-136.2-130.8-275.6-187.9-417.1-1.6-3.9-3.4-5.7-7.8-6.6-17.9-3.8-30.3-14.6-35.5-32.2-5-17.1,.5-31.9,12.8-44.4,1.9-2,3.6-4.1,5.5-6.1,13.4-14.5,33.6-18.4,50-9.6,14.9,7.9,21.6,26.3,16.7,45.6-.6,2.4-1.3,4.8-2.2,7.9,20.9-6.4,39.7,2.2,59.2,5.7,33.8,6.1,64.7-1.1,92.3-21.5,9.6-7.1,18.5-15.4,28.4-22,11.4-7.7,24.2-11.9,38.3-8.5,18,4.4,28.2,19.4,25.7,37.8-2.8,20.2-.9,24.9,18.9,30.3,14.4,3.9,29.7,5.8,44.7,6.3,54.7,1.6,106.3-11.2,154.5-37.1,3.6-1.9,7.7-3.9,11.7-4,8-.2,13,6.6,11.6,14.5-6.8,37.2-9.9,74.7-8.4,112.5,2.3,59,16.2,114.8,46.7,165.7,9.1,15.1,.5,22-13,25.1-5,1.1-11.3,.4-16.1-1.6-29.9-12.4-59.3-7.9-88.9,1-19.5,5.9-39,11.6-58.8,16.5-13.6,3.3-27.5,3.7-41.2-.6-16.2-5-24.5-15.6-25.9-32.6-.4-4.8-.7-9.6-1.3-14.4-1.1-10.1-9.8-16.2-20.4-12.9-10.4,3.2-20.8,7.2-30,12.7-17.4,10.5-34.5,21.8-50.8,34-7.2,5.4-11.9,14.1-18.2,20.8-4.3,4.6-9.3,8.5-15.3,13.8Zm106.9-306.8c0,.4,0,1.8,.4,3.2,14.6,60.2,28.4,120.6,38.2,181.8,2.7,17.2,5.6,34.4,3.8,51.8-1.2,11,3.2,18.8,12.1,24.4,7,4.4,15.2,6.5,23,4.4,14.1-3.8,28.2-8,41.7-13.7,35.4-15,71.8-18.7,109.3-10.6,9.9,2.1,19.6,5.5,30.1,8.5-49.7-88.6-55.4-182.9-39.2-281.4-3.3,1.6-5.3,2.6-7.3,3.5-67.5,33.5-137.7,45.4-212,28Zm-243.2-21.5c2.9,3.1,5.1,5.3,7.2,7.6,22.7,23.6,42.8,49.2,57.2,78.9,25.6,52.9,45.7,107.9,64.9,163.2,5.2,14.9,8.8,30.3,6.6,46.4-.6,4.2,0,8.6,0,12.8,.5,.2,1,.4,1.6,.6,.7-1,1.5-1.9,2.1-2.9,19.7-28.9,46.6-50.1,74.4-70.4,10.4-7.6,21.4-14.5,34.7-15.5,6.8-.5,13.8,.9,20.9,1.5-1.7-10.5-2.9-21.4-5.1-32.1-12.6-58.7-25.4-117.4-38.2-176-1.9-9-4.1-17.9-5.3-27-.6-4.5,1-9.2,1.2-13.8,.4-8.9-3.2-14.5-11.2-17.7-8.1-3.3-16.4-2.5-23.7,1.7-8,4.6-15.6,10-22.7,15.8-11.3,9.1-22.3,18.6-36.1,24.1-31,12.4-62.4,16.1-94.8,5.9-10.4-3.3-21.1-5.7-33.4-3Zm-71.6-21c0,1.5,0,3,0,4.4,1.1,14.1,10,19.7,23.2,15.4,2.3-.8,6.7,.8,8.4,2.8,2.9,3.5,4.5,8,6.3,12.3,60.4,147.3,127.7,291.4,195.9,435.1,9.3,19.6,18.3,39.2,28.2,58.5,3.6,7,8.8,13.2,14,19.2,1.4,1.6,6.1,2.5,7.7,1.4,2.3-1.6,4.3-5.2,4.5-8,.2-2.8-1.6-6-3.1-8.7-63.5-119.6-123.1-241-176.9-365.3-21.3-49.4-41.5-99.2-61.9-149-1.3-3.2-1.6-8.7,.2-10.9,5.8-6.7,7-14.3,6.5-22.4-1-14.5-12.3-22.9-26.7-20.2-15.2,2.9-26.4,17.8-26.4,35.4Zm75.1,44.3c-.7,.5-1.4,.9-2.1,1.4,36.8,91,76.3,180.8,120.1,268.9,0-9.6,0-19.4-3.1-28.1-13-37.7-26.4-75.3-40.7-112.5-11.4-29.6-23.4-59.1-41-85.7-10.1-15.3-22.1-29.4-33.2-44.1Z"/><g><path d="M407,641.6c27.6,54.8,62.1,123,90.9,177.2,3.4,6,5.8,13.1,4.1,20-4.3,17.1-21.5,23.3-36.4,13.4-7.2-4.3-13-10.6-17.2-17.8-2.2-4-16.7-32-19.2-36.8-71.7-137.3-135.2-279-193.8-422.4,0,0-12.5-30.8-12.5-30.8-.6-1.2-1.3-2.4-2.3-3.3-2.1-1.8-5-2.1-7.6-2.8-6.7-1.8-13.2-4.7-18.5-9.2-6.5-5.3-11.1-12.6-13.7-20.5-3.2-9.2-3.4-19.5,.2-28.6,1.5-3.9,3.6-7.5,6-10.9,3.3-4.5,7.4-8.3,10.9-12.5,3.7-4.1,8.1-7.6,13.1-10.2,19.5-10.6,46.3-3,53.7,18.9,2.6,7.2,2.9,15.1,1.7,22.6-.2,1.4-.6,2.7-.8,4.1l-2.2,8-.3-.3c13.5-4.2,27.7-1.9,41.1,1.5,10,2.5,20.2,5,30.5,5.8,32.2,2.9,61.6-7.7,86.3-28.1,19-15.5,38.3-33.6,64.8-24.3,13.7,4.7,22.7,17.8,22,32.3-.2,6.8-2.1,13.8-1,20.6,.3,1.7,.9,3.3,1.8,4.7,2.9,4.3,8.1,6.1,12.8,7.7,29.8,9.1,61.7,8.9,92.4,5.7,34.3-3.9,67.9-13.9,98.9-29.1,6.4-2.9,12.1-6.7,18.7-9.2,6.9-2.7,15.2-.3,17.3,7.7,1,3.5,0,7-.5,10.5-16.4,92.9-10,193.9,40.2,276,2.4,4.7,3.9,10.6,.7,15.3-3.2,4.5-8.4,6.5-13.5,7.8-5.1,1.5-10.6,1.3-15.6-.2-9.7-3.7-19.5-6.9-29.9-7.9-20.7-2.2-41.4,2-61.2,7.9-19.9,6-39.8,11.8-60,16.7-13.5,3.2-27.9,3.2-41.1-1.2-10-3-19-10.2-22.5-20.2-2.5-6.5-2.7-13.6-3.4-20.5,0,0-.5-5.2-.5-5.2-.3-5.1-2.7-10.2-7.3-12.8-6.2-3.9-13.5-1-19.8,1.2-9.8,3.3-19.2,7.8-28,13.4-14.8,9-29.2,18.6-43.1,28.9-8.9,5.7-14,15.1-20.9,22.8-4.7,5-10.3,9.3-15.4,13.9h0Zm0,0c5.2-4.7,10.7-8.9,15.4-14,4.7-5.1,8.3-11,13-16.1,4.7-5.1,10.7-8.7,16.3-12.9,5.6-4,11.4-7.9,17.1-11.7,8.7-5.7,17.4-11.4,26.4-16.4,6.1-3.3,12.5-5.9,19.1-8.2,6.4-2.3,13.8-5.1,20.2-1.2,4.7,2.6,7.2,7.9,7.5,13.1,0,0,.5,5.2,.5,5.2,.7,6.8,.8,13.9,3.4,20.3,3.5,9.9,12.3,16.8,22.2,19.8,13.1,4.4,27.4,4.3,40.8,1.1,20.2-4.9,40.1-10.8,59.9-16.8,19.8-6,40.7-10.3,61.5-8,10.4,.9,20.5,4.2,30.1,7.9,6.6,2.1,13.7,1.3,20-1.4,3.1-1.3,6.1-3.1,8-5.9,2.9-4.4,1.5-9.9-.8-14.3-50.3-82.2-56.7-183.5-40.3-276.6,.6-3.3,1.5-6.7,.5-10.1-1.9-7.3-9.4-9.6-16.1-7-6.4,2.4-12.3,6.3-18.6,9.1-43.6,21.3-92.2,32.2-140.7,31-13.9-.3-27.7-1.8-41.2-4.9-6.7-1.8-13.7-3.2-19.6-7.1-8.1-5.3-6-16.2-5-24.4,.7-5.1,.7-10.3-.8-15.3-3.5-13.8-16.6-22.6-30.3-23.8-21.6-2.4-38.5,13.8-54.1,26.4-24.9,20.5-54.4,31-86.7,28.1-2.2-.2-7.9-.9-10.3-1.3-13.7-2.2-26.8-7.2-40.6-8.1-6.9-.6-13.8,.2-20.5,2.1h-.4c0,.1,0-.3,0-.3,.7-2.4,2.7-9.5,3.1-12,1.2-7.5,.9-15.3-1.6-22.4-7.2-21.7-33.9-29.2-53.2-18.7-4.9,2.5-9.3,6-13,10.1-3.5,4.3-7.7,8-10.9,12.5-2.4,3.4-4.5,7-6,10.8-3.5,9-3.3,19.2-.2,28.3,2.6,7.8,7.2,15.1,13.6,20.3,4.2,3.6,9.2,6.1,14.4,7.9,2.6,.9,5.3,1.5,8,2.2,2.8,.7,5.1,2.8,6.2,5.4,0,0,12.5,30.8,12.5,30.8,58.8,143.3,122.6,284.8,194,422.3,0,0,15.2,29.5,15.2,29.5,1.3,2.5,2.5,4.9,3.9,7.3,4.1,7.1,9.9,13.4,17,17.6,9.5,6.3,21.8,6.8,29.8-2.2,5.6-6.1,7.7-15,4.9-22.9-.8-2.6-2-5.1-3.4-7.5-6.3-11.7-32.9-63.4-38.4-73.6-13.3-26.5-38.6-76.9-52.1-103.9h0Z"/><path d="M513.9,334.9c0,2.4,.9,4.9,1.4,7.3l1.8,7.3c13.1,53.5,25.2,107.4,34.3,161.7,3.2,19.7,7.2,39.7,5.2,59.8-.6,4.9-.2,10,2.1,14.5,4.5,8.7,14.6,14.3,24.1,15.4,5,.6,9.8-1,14.6-2.3,12.1-3.3,24-7.1,35.6-12,4.2-1.7,9.9-3.9,14.1-5.3,30.9-10.4,64.6-12.2,96.5-5,9.8,2.2,19.3,5.5,28.9,8.2l-.3,.4c-11.8-21.1-21.6-43.3-29.1-66.3-15.1-46-20.1-94.9-18-143.2,1-24.2,3.7-48.2,7.6-72.1l.7,.5c-4.2,2.1-8.5,4.1-12.8,6.1-64,31.2-137.2,42.2-206.8,25.1h0Zm0,0c70.2,16.5,142,5.5,206.4-25.9,4.5-2.1,9.1-4.3,13.6-6.5-4,24.1-6.8,48.5-7.8,72.9-3.5,72.3,10.7,146,46.6,209.2,0,0,.3,.5,.3,.5l-.6-.2c-9.6-2.7-19.1-6-28.9-8.2-29.3-6.7-60.3-5.9-89.1,2.7-6.9,2.1-14.5,4.8-21.2,7.6-11.6,4.9-23.5,8.7-35.6,12.1-2.4,.7-4.8,1.4-7.3,1.9-7.5,1.7-15.4-.5-21.8-4.5-9.5-5.6-14.1-14.6-12.7-25.6,1.9-20-2.2-39.9-5.3-59.6-9.3-56.5-22.2-113.4-35.4-169.1,0,0-.9-3.7-.9-3.7-.3-1.2-.4-2.4-.4-3.8h0Z"/><path d="M270.7,313.4c20.1,20.4,39.3,42.1,54,66.8,7.5,12.3,13.5,25.4,19.5,38.4,17.9,39.1,33.3,79.4,47.5,120,8.2,24.4,18.8,46.6,14.8,73.1-.2,3.6,.1,7.1,0,10.7l-.2-.2,1.6,.6c6.7-10.5,16.7-22.4,26.2-31.8,14.7-14.7,31.1-27.5,47.8-39.8,11-8.2,23.1-16.3,37.2-17.3,7-.5,13.8,1,20.7,1.5l-.3,.3c-1.6-10.4-2.8-20.8-5-31-9.6-44.1-23.9-109.4-33.5-153.7-2.6-12.7-8.6-37.5-10.3-50.1-.8-6.6,2.2-13,.7-19.5-1.3-8-9.3-12.4-16.7-13.5-8-1.3-15.3,1.8-21.8,6.2-15.7,9.5-28.5,23.1-44.6,32.3-13.9,7.5-29.3,11.9-44.8,14.6-1.2,.2-4.7,.6-5.9,.8-1.4,0-4.5,.5-5.9,.6-2.1,.1-5.7,.3-7.9,.3-6.4,.1-13.3-.3-19.6-1.3-7.8-1-15.5-3.1-23-5.4-9.9-3.1-20.6-4.6-30.9-2.5h0Zm0,0c13.2-3.2,26.1,.6,38.7,4.4,6.3,1.7,12.8,2.9,19.3,3.6,6.4,.6,13.2,.9,19.6,.6,2,0,5.9-.4,7.8-.6,1-.1,2.9-.3,3.9-.5,11.7-1.6,23.1-4.7,34.1-8.8,4.9-1.8,9.7-3.8,14.2-6.5,18.2-10.6,32.5-26.7,51.3-36.4,11.2-5.8,30.5-2.1,33.2,11.9,1.1,5.3-.4,10.6-.8,15.8-.2,2.6,.3,5.1,.7,7.7,.8,5.2,1.9,10.3,3,15.4,9.6,44.1,23.7,109.5,33.3,153.8,0,0,6.6,30.8,6.6,30.8,2.1,10.3,3.3,20.7,4.9,31.1v.4c0,0-.3,0-.3,0-16.1-1.9-25.1-3.5-40.3,4.3-12.2,6.5-22.9,15.5-33.9,23.7-17.7,13.7-34.6,28.9-48.4,46.6-3.1,3.9-6.3,8.7-9.3,12.7,0,0-.2,0-.2,0l-1.6-.6h-.2c0,0,0-.2,0-.2-.2-5.3-.4-10.8,.4-16.1,.1-1.4,.2-4,.3-5.4,.5-20.9-9.2-42.6-15.8-62.1-14.4-40.5-29.7-80.8-47.5-120-6-13-11.9-26.1-19.4-38.4-14.7-24.7-33.7-46.5-53.6-67.1h0Z"/><path d="M199.1,292.4c-.7,11.1,4.1,22.3,16.9,21,1.6-.2,3.5-.4,5.1-1,3.3-1.3,7.3,0,9.7,2.5,3.3,4.1,5,9.2,7,14,0,0,8,19.4,8,19.4,64.8,154.7,136.1,307,208.3,458.4,0,0,4.7,9.4,4.7,9.4,1.6,3.1,3.1,6.3,5,9.2,3.3,5.2,7.3,9.8,11.2,14.4,1.7,1.8,4.7,2.3,7.1,1.7,2.9-1.6,4.6-5.3,4.8-8.5,0-1.7-.7-3.3-1.4-4.9l-9.8-18.5c-78.7-148.3-150.7-300.2-213.1-456,0,0-15.8-38.9-15.8-38.9-1.8-4-3.5-8.3-2.5-12.8,.5-2.6,3-4.3,4.1-6.7,4.8-8.4,5.1-21.9-.5-29.9-6.1-9.1-18.6-10.6-28.2-6.5-13.2,5.4-20.8,19.8-20.8,33.6h0Zm-.1,0c0-13.9,7.6-28.4,20.8-33.8,9.7-4.1,22.3-2.7,28.5,6.6,5.6,8,5.4,21.8,.6,30.3-.9,1.5-1.9,3-3,4.3-1,1.3-1.2,3.2-1.2,4.8,0,3.6,1.4,6.7,2.8,9.9,57.4,142.7,120.3,283.4,190.4,420.3,15.7,31,32.1,62.4,48.3,93.1,.7,1.6,1.4,3.3,1.5,5.1,0,2.7-1.3,5.3-3,7.3-.6,.7-1.2,1.3-2.1,1.7-1.8,.5-3.6,.2-5.3-.4-.8-.3-1.7-.7-2.3-1.5-6.4-7.2-12.3-14.9-16.3-23.8-77.1-160.7-153.4-322.2-220.9-487.2-1.4-3.2-2.5-6.5-4.2-9.6-1.5-3.1-3.6-6.2-7.2-7-1.7-.5-3.4-.5-5.1,.1,0,0-1.3,.4-1.3,.4-1.2,.3-2.7,.5-3.9,.6-12.9,1.3-17.7-10-17-21.2h0Z"/><path d="M274.1,336.7l-2.1,1.4h0c13.9,33.6,28.3,68.2,43,101.7,24.2,55.8,50.1,112.8,77.3,167.1,0,0-.5,.1-.5,.1,0-6.2,0-12.4-1-18.6-.5-5.3-3.4-12.8-5.2-17.8,0,0-12.4-35.2-12.4-35.2-17.2-46.5-32.7-94.1-56.3-137.9-11.9-21.9-28.1-41-43-60.8h0Zm0,0c15.3,19.7,31.5,38.6,43.6,60.5,24,43.7,39.2,91.4,56.5,138,5.2,14.5,10.3,29.4,15.3,44,2.9,8.9,2.9,18.5,2.9,27.8,0,0,0,1.2,0,1.2l-.5-1.1c-29.6-60.2-58.7-122.2-84.9-183.9-11.9-28.1-23.9-56.8-35.1-85.2,0,0,0,0,0,0l2.2-1.4h0Z"/></g></g></g><path d="M524.8,395.5c0,.2,.1,.2,.1,.5,0,1-.2,2.2-1.1,2.8-.8,.7-2.2,.7-3.9,.2,0,0-.3-.1-.4-.2-1.5-2.3-3.8-4.1-6.5-5.6-3.1-1.6-6.6-2.7-10.2-3.4-3.6-.7-7.3-1.1-10.9-1.1-7.7,.2-15.4,.4-22.8,1.6-3.7,.6-7.3,1.5-10.8,2.7-3.5,1.2-6.9,2.7-10.3,4.4-6.8,3.4-13.3,7.6-20,11.6-3.4,2-6.8,4-10.4,5.8-1.8,.9-3.6,1.7-5.4,2.6-1.8,.8-3.7,1.5-5.6,2.3-7.5,2.8-15.3,4.8-23.2,5.9-7.9,1.1-16,1.4-23.9,.8-.2,0-.5,0-.7,0h-.6c0,0-.4,0-.4,0h-.8c0,0-1.6-.2-1.6-.2-1,0-2.1-.2-3.1-.4,0,0-.6-.1-1.6-.3-1-.2-2.4-.6-4-1-1.6-.4-3.3-1-5.1-1.6l-.7-.2-1-.3c-.4,0-.6-.4-.8-.7-.2-.3-.5-.6-.6-.8-.5-.8-1-1.5-1.4-2.2-1.5-2.4-2.5-3.8-3.1-4.7-.6-.9-.7-1.3-.2-1.4,.4,0,1.3,.3,2.5,1,1.1,.7,2.4,1.9,3.6,3.1,0-.2,.6,.5,1.6,1.6,.2,.2,.2,.1,.2,.2,0,0,0,0,.2,0,.2,0,.1,0,.7,0,.9,.2,2,.3,3,.5,2.1,.3,4.1,.6,5.7,.7,1.6,.1,2.6,.2,2.6,.2,1,.2,1.9,.2,2.9,.3h1.4c0,.1,1.5,.3,1.5,.3l2.8,.2c7.4,.4,14.9,0,22.2-1.3,7.3-1.2,14.5-3.1,21.4-5.9l2.6-1c.9-.4,1.7-.8,2.5-1.1,1.7-.8,3.4-1.6,5-2.5,3.3-1.7,6.6-3.6,9.8-5.6,6.5-3.9,13.1-8,20.1-11.5,3.5-1.7,7.2-3.3,11-4.6,3.8-1.3,7.7-2.2,11.6-2.8,3.9-.6,7.8-1,11.7-1.2,1.9-.1,3.9-.2,5.8-.3h2.9c1-.1,1.9-.2,2.9-.2,4.1,0,8.1,.4,12,1.2,4,.8,7.9,2,11.6,4,3.3,1.8,6.6,4.2,8.9,7.7Z"/><path d="M363.4,492.6c0-.1,0-.2,0-.4,.1-1.6,1.3-4.4,5.1-2.8,0,0,.4,.2,.4,.3,.8,1.5,1.6,2.8,2.4,3.9,.4,.5,.9,1,1.3,1.4,.4,.4,.9,.6,1.3,.8,.2,0,.4,.1,.7,.1h.2s.3,0,.3,0h.6s2.6,.1,2.6,.1h1.3c0,0,1.3,0,1.3,0h2.6c1.7,0,3.5-.2,5.2-.3,1.7-.1,3.4-.4,5.2-.6,6.9-1,13.6-2.8,20.1-5.2,13-5,24.8-12.8,34.3-22.9,4.8-5.1,9.5-10.8,15.2-15.6,5.7-4.9,12.1-8.8,18.8-12,6.8-3,14-5.3,21.3-6.4l2.4-.3c.5,0,1-.2,1.6-.2l3.1-.3s.2,0,.4,0c.3,0,.7,0,1.2,0,1,0,2.5,0,4.1,.2,1.7,.2,3.5,.3,5.4,.7,1.8,.4,3.7,.6,5.5,1.4,.8,.3,1.5,.8,2.1,1.3,.6,.5,.9,1.1,1.1,1.7,.4,1,.5,1.8,.5,2.4,0,1.1-.3,1.5-.6,1.3-.4-.2-.8-1-1.5-1.9-.3-.4-.7-.8-1.1-1-.4-.2-.9-.4-1.6-.4,.1,0-.6,0-2-.1-.7,0-1.6,0-2.6,0-1,0-2,0-3,0-4.1,0-8.3,.7-8.3,.7-.9,0-1.9,.1-2.9,.3l-1.4,.2-1.4,.2c-.8,0-1.7,.3-2.5,.4-3.3,.6-6.6,1.5-9.8,2.6-3.2,1.1-6.4,2.3-9.4,3.9-3.1,1.5-6,3.2-8.8,5l-2.1,1.5-1,.7-1,.8-2,1.6c-.6,.5-1.3,1.1-1.9,1.7-5.1,4.5-9.5,9.9-14.5,15.1-10.1,10.5-22.6,18.6-36.2,23.7-6.8,2.6-13.9,4.4-21.1,5.4-1.8,.2-3.6,.5-5.4,.6l-2.7,.2c-.9,0-1.8,.1-2.7,.1-1.8,0-3.6,.1-5.5,0h-2.7c0-.1-.7-.2-.7-.2h-.3s-.5,0-.5,0c-.7,0-1.3-.2-1.9-.4-1.2-.4-2.3-1.1-3.2-1.8-.9-.7-1.6-1.5-2.2-2.4-1.2-1.6-2.2-3.3-3-4.8Z"/><path d="M740.8,464.2c0,.2,0,.2,0,.5-.1,.9-.7,2-1.6,2.5-.9,.5-2.2,.3-3.9-.6,0,0-.3-.2-.4-.3-.3-.8-.7-1.6-1.3-2.4l-.9-1.3-.2-.3h0s0,0,0,0l-2.2-.4c-4.4-.8-8.9-1.2-13.3-1.5-2.2,0-4.5-.2-6.7-.1-2.2,0-4.5,0-6.7,.2-8.9,.6-17.8,2.1-26.4,4.6-8.6,2.5-16.9,6-24.7,10.3-7.8,4.3-15,9.8-22.5,15.3-7.4,5.4-15.2,10.9-24.1,14.7-4.4,1.9-9.1,3.3-14,4-4.9,.7-9.8,.7-14.6,0-9.7-1.4-18.9-5.5-26.4-11.7l-1.5-1.3c-.2-.2-.4-.3-.6-.5l-1.1-1.1-1.1-1.1c-.4-.4-.7-.8-1.1-1.2,0,0-.4-.5-1-1.3-.6-.8-1.2-1.8-2.2-2.8-.9-1.1-2.3-2.3-3.6-3.7-.7-.7-1.3-1.5-1.9-2.2-.1-.2-.3-.4-.5-.7-.2-.2-.3-.5-.4-.7-.2-.5-.4-1-.5-1.4-.4-1.6-.5-2.7-.6-3.7,0-.9-.1-1.6-.2-2.1-.1-1,0-1.5,.4-1.3,.4,.1,1.1,.8,1.8,2,.6,1.2,1.2,2.8,1.9,4,0-.1,.3,.6,1.1,1.2,1.1,1,2.5,2.1,4.3,3.3,.9,.6,1.8,1.3,2.7,2.1,.9,.7,1.6,1.5,2.2,2.2,1.1,1.1,1.8,1.8,1.8,1.8,.6,.7,1.3,1.3,1.9,2,.3,.3,.7,.7,1,1l1.2,1.1c.8,.7,1.7,1.3,2.5,1.9,6.8,5,15.1,8.1,23.5,8.8,4.2,.4,8.5,.2,12.6-.7,4.2-.8,8.2-2.3,12.1-4.1,7.8-3.7,15.1-8.8,22.3-14.2,3.6-2.7,7.3-5.4,11.1-8,3.8-2.6,7.7-5.1,11.8-7.3,8.1-4.4,16.8-7.9,25.7-10.5,17.8-5,36.7-6.2,55-3.1l4.8,.8,1.7,2.5c.3,.5,.6,1,1,1.5,.7,1,1.4,2.3,1.8,3.6Z"/><path d="M730.6,404.9s0,0,.2,0c.2,.1,.5,.3,.9,.4,.4,.1,.9,.2,1.4,.4,.5,.1,1,.4,1.4,1,.3,.6,.6,1.6-.2,3,0,0-.4,.5-.6,.7-1.3,.7-2.6,.9-3.7,1-1.2,0-2.2,0-3.2-.1-.5,0-1-.2-1.5-.2l-1.4-.3-2.4-.5c-8.2-1.7-16.7-2.2-25.2-1.9-8.5,.3-17,1.4-25.4,3-16.9,3.1-33.5,8.1-50.4,12.5-8.4,2.2-16.9,4.3-25.5,6.2-4.3,.9-8.6,1.8-12.9,2.6-2.2,.4-4.3,.8-6.5,1.1-1.1,.2-2.1,.4-3.3,.5-1.2,.1-2.3,.3-3.5,.3-4.6,.3-9.3-.2-13.8-1.2-4.5-1-8.7-2.5-12.8-3.8l-3.8-1.2-2.8-.8s-.5-.2-1.5-.5c-.9-.3-2.2-.7-3.7-1.2-.4-.1-.8-.2-1.1-.3-.2,0-.4-.1-.6-.2h-.2s-.3-.1-.3-.1h-.6c-.4-.2-.7-.3-1.1-.4h-.6c0-.1-.3-.2-.3-.2,0,0,0-.2-.1-.2-.3-.7-.5-1.4-.8-2.2-.3-.9-.6-1.8-.9-2.7-.3-.9-.6-1.7-.8-2.6-.9-2.8-1-4.8-.8-5.9,.2-1.1,.5-1.4,.8-1.2,.3,.3,.7,1,1.2,2.1,.5,1.1,1.2,2.4,2,3.8,0-.2,.4,.6,1.2,1.9,.4,.7,.8,1.4,1.3,2.3l.2,.2h.1c.1,.1,.2,0,.3,0,0,0,0,0,0,0h.2s.4,0,.4,0h.8c.5,.2,1.1,.3,1.6,.3,1,.2,2,.3,2.8,.5,.8,.2,1.5,.3,2,.4,.5,.1,.7,.2,.7,.2,1,.3,2,.6,2.9,.9l6.1,2c4,1.3,8,2.5,11.9,3.2,4,.7,7.9,.8,11.9,.4l1.5-.2,1.6-.2,3.1-.5c2.1-.3,4.2-.7,6.2-1.1,4.2-.8,8.3-1.6,12.4-2.6,8.3-1.8,16.5-3.9,24.8-6.1,16.5-4.3,33-9.2,50-12.3,8.5-1.5,17.2-2.7,25.9-2.9,8.7-.3,17.6,.3,26.2,2l2.6,.5,1.2,.2c.4,0,.7,.1,1.1,.2,1.4,.2,2.7,0,3.1-.2Z"/></svg>