<?xml version="1.0" encoding="UTF-8"?><svg id="Layer_1" xmlns="http://www.w3.org/2000/svg" viewBox="0 0 1024 1024"><defs><style>.cls-1{fill:#ebebec;}.cls-2{fill:#fff;}.cls-3{fill:#ee8d24;}</style></defs><polygon class="cls-1" points="6.2 23.2 88.2 1000.8 977.5 965.6 1017.8 71.2 6.2 23.2"/><g id="FVPFjw"><g><g><path d="M592.7,241.3c-7.2,13.7-13.9,26.7-21.2,39.4-.7,1.2-6.1,1.2-8-.1-1.8-1.3-3.4-5.7-2.5-7.6,5.2-11.9,10.9-23.6,17.1-35,1.1-2,5.5-3.5,8.1-3.1,2.2,.3,3.9,3.7,6.5,6.4Z"/><path d="M592.9,241.3c-3.8,9.1-8.2,18.1-13.1,26.7-2.7,4.4-5.3,8.8-8.1,13.2-1,.7-2.2,.7-3.4,.8-1.9,0-4.1-.1-5.5-1.6-1.7-2-2.9-4.7-2.5-7.4,.6-1.8,1.4-3.5,2.1-5.3,3.9-9.1,8-18.2,12.9-26.8,.1-.2,2-3.6,2.1-3.7,2-2.7,8.3-4.4,10.9-2,1.8,1.8,3,4.1,4.6,6.1h0Zm-.2,0c-4.4-3.8-4.7-7.8-11.4-4.6-1,.5-1.9,1.1-2.2,2l-1.7,3.3-3.3,6.6c-3.2,6.4-6.8,13.4-9.9,19.9-.3,.5-1.8,3.7-2.1,4.2-1,1.7-.3,3.9,.4,5.6,1.2,3,4.8,3.2,7.6,2.8,.6-.1,1.1-.3,1.3-.7,1.2-2.2,2.3-4.4,3.4-6.6,5.3-11,11.3-22.1,17.9-32.4h0Z"/></g><g><path d="M529.1,280.2c-1.8,1.7-3.9,5.2-6.5,5.7-2.4,.4-7.1-1.8-7.7-3.9-3.4-11-6.3-22.1-8.4-33.4-.4-2.1,3-6.4,5.4-7.2,2-.7,6.9,1.8,7.6,3.9,3.5,10.9,6.2,22.1,9.6,35Z"/><path d="M529.2,280.2c-1.9,2.2-3.1,5.1-6,6.2-2.9,.8-7.7-1.1-9.1-3.8-3.3-9.2-4.6-19.2-6.9-28.7-.4-1.7-.8-3.6-1.3-5.3-.3-1.7,.7-3.4,1.6-4.8,1.4-2,3.7-4.3,6.4-3.6,3,.6,6.5,2.5,7.1,5.6,.9,2.6,1.7,5.4,2.5,8,2.3,8.6,4.2,17.5,5.7,26.3h0Zm-.2,0c-2.7-7.2-5.7-18-7.9-25.5-.3-1.1-2-7-2.3-8-.2-.5-.3-1.2-.4-1.3-.9-1.4-3.1-2.6-4.8-3-2.4-.8-5.5,3.1-6.2,5.1-.2,.4-.2,.9,0,1.4,.8,6.1,2.2,12.1,4.1,17.9,1.4,4.4,3.2,10,4.5,14.3,.2,.6,.2,.8,.5,1.1,1.5,1.6,4.2,3.1,6.5,2.8,2.5-.7,4.1-3.3,6.2-4.9h0Z"/></g><g><path d="M456.5,280.1c.1-6.7,5.7-10.2,10.7-7.1,7.9,5,15.5,10.3,22.6,16.3,1.8,1.5,2.3,7,.9,8.9-1.3,1.9-6.7,3.4-8.6,2.2-8.1-4.9-15.7-10.7-23.3-16.4-1.3-1-1.8-3.2-2.2-4Z"/><path d="M456.4,280.1c-.5-4.3,2.3-9.1,7-9.2,2.2-.1,4.3,1.1,6,2.3,1.7,1.1,3.4,2.2,5,3.4,2.8,2.1,6.7,5.3,9.4,7.5,1.3,1.1,5.3,4.1,6.5,5.2,2,2.3,2.8,7.8,.6,10.2-1.7,1.6-3.8,2.2-6.1,2.6-1,.1-2.2,.1-3.2-.4-2.8-1.5-5.5-3.2-8.1-5-4.9-3.5-9.6-7.2-14.2-11.2-.8-.7-1.7-1.4-2.1-2.4-.5-1-.6-2-.9-2.9h0Zm.2,0c.7,1.2,1.1,2.7,2.3,3.5,0,0,1.2,.8,1.2,.8,6.7,4.4,13.2,9,19.8,13.3,1,.6,1.9,1.3,2.9,1.8,1.4,.4,3,0,4.4-.4,.9-.3,1.7-.7,2.3-1.2,1.2-1.2,1.1-3.3,1.1-4.9-.2-1.4-.4-2.8-1.5-3.7,0,0-1.1-1-1.1-1-4.5-4-9.6-7.1-14.7-10.2-1.7-1.1-3.4-2.1-5-3.2-1.6-1.1-3-2.1-4.9-2.2-3.9-.1-6.4,3.7-6.8,7.3h0Z"/></g><path class="cls-3" d="M376.2,332.6c22.2,.7,44.5,.8,66.6,2.4,14.7,1.1,29.5,3.3,43.7,7,33,8.6,49.8,32.3,56.5,64.4,7.4,35.7,8,71.7,4.2,107.9-5.9,57.2-23,110.9-51.2,161-14.6,25.9-31.7,50.1-54.6,69.6-44.1,37.4-98.3,33.7-137.2-9.1-17.5-19.2-29.8-41.7-41.3-64.8-22.8-46-37.9-94.3-44.2-145.3-5.2-42.2-3.9-84.3,4-126.2,4.7-24.9,19.3-42.3,42.3-52.8,18.9-8.6,39.1-11.9,59.6-13,17.2-.9,34.4-.2,51.6-.2,0-.3,0-.6,0-1Zm7.7,359.7c16.8,0,31.8-7.7,45-19.5,23.5-20.9,33.7-49.8,45.6-77.5,.8-2-.4-6-2-7.5-1.7-1.5-5.5-2-7.7-1.2-3.8,1.4-7,4.2-10.5,6.4-13.1,8.1-25.7,17.1-39.3,24.2-27.6,14.4-54.6,12.5-79.9-6-10.5-7.7-20.4-16.3-30.4-24.6-3.5-2.9-6.8-5.9-11.5-2.6-4.3,3-3.7,7.2-1.7,11.1,8.8,16.9,17,34.3,27,50.5,6.8,11,15.6,21,24.7,30.2,10.5,10.7,23.8,16.7,40.7,16.5Zm80.5-235.7c-3.3,0-6.6-.3-9.8,0-15.7,1.8-30.3,5.8-41.3,18.4-4.4,5.1-4.5,10.2,0,14.4,6.3,5.9,12.7,12.2,20.1,16.3,25.4,13.9,58.7,6.9,81.1-16.2,5.9-6.1,5.8-10.2-.9-15.8-14.2-12-30.7-17.7-49.3-17.2Zm-160.3,56.3c15.6,.3,31.4-5,45.3-15.8,7.1-5.4,7.5-9.9,1.4-16.2-2.4-2.5-4.9-5-7.5-7.2-25.9-22.2-61.9-23.4-86.2-2.8-13.4,11.4-16.7,16.4,1.6,30.1,12.7,9.5,27.8,11.8,45.3,11.9Z"/><path class="cls-2" d="M560.3,622.2c10.7-2.1,21.2-4.7,31.9-6.3,18-2.7,34.7,1.9,49.6,11.9,9,6,17.1,13.4,25.5,20.4,4.1,3.4,7.8,7.4,13.8,5,6-2.4,7.1-7.8,7.3-13.4,.6-16-7.1-29-15.8-41.3-11.7-16.7-27.5-27.8-48.4-30-14.7-1.6-27.9,3.3-40.4,10.5-4.5,2.6-8.8,5.4-13.4,8.3,2.9-18.1,6.5-35.6,8.3-53.3,1.8-17.7,1.9-35.6,2.7-53.8,12.6,4.1,25.6,5.6,38.9,2.5,20.5-4.8,22.7-10.3,10.1-27.1-12.4-16.7-28.9-26.2-50.2-25.8-4,0-4.5-1.6-5.1-4.8-4.2-19.8-10.8-38.5-24.3-54.2-1.1-1.2-1-4.4-.2-6.1,9.2-20.2,25.5-29.8,47.3-29.8,42.2-.1,83.1,7.7,123.1,20.4,24.2,7.7,47.2,17.8,67.6,33.3,14.5,11,21.2,25.6,22.6,43.6,3,40.1-5.7,77.9-22.1,114.1-25.8,57-62.6,105.5-113.2,142.7-21.3,15.7-44.5,26.7-72,24-28.2-2.9-47.5-18.8-61.3-42.5-.6-1.1-.7-3-.2-4.1,6-14.9,12.1-29.8,18-44.1Zm173.8-102.2c13.9-.4,24.7-3.3,34.7-9,8.2-4.6,9.1-8.8,3.7-16.3-10.4-14.5-24.6-23-41.9-26.5-14.1-2.8-28.1-3.5-41.1,4.4-7.3,4.5-8.4,8.1-4.6,15.7,10.7,21.1,28.2,31.2,49.1,31.6Z"/><path class="cls-2" d="M673.2,632.7c-28.6-25.2-60.1-39.9-99.5-27.9,11.1-14.3,38.8-24.9,54.5-20.9,25.4,6.5,37.1,25.9,45,48.9Z"/><path class="cls-2" d="M620.3,467.6c-12.9,3.9-25,2.6-36.6-2.5-1.8-.8-3.5-3.6-3.9-5.8-.8-4.5-.7-9.1-1-13.6,13.8-3.9,33.9,6.4,41.5,21.9Z"/><g><path d="M400.9,709.3c-16.9,.2-30.2-5.8-40.7-16.5-9.1-9.2-17.9-19.2-24.7-30.2-10-16.2-18.2-33.6-27-50.5-2-3.9-2.6-8.1,1.7-11.1,4.7-3.3,8-.3,11.5,2.6,10,8.4,19.9,17,30.4,24.6,25.3,18.4,52.3,20.4,79.9,6,13.6-7.1,26.3-16.1,39.3-24.2,3.5-2.2,6.7-5,10.5-6.4,2.2-.8,6-.3,7.7,1.2,1.7,1.5,2.9,5.5,2,7.5-12,27.7-22.2,56.6-45.6,77.5-13.2,11.8-28.2,19.5-45,19.5Zm66.3-77.4c-6,3.4-10.4,6-14.8,8.5-15.1,8.3-30.7,15.4-48.1,17.4-23.1,2.6-43.1-5.6-61.8-18.2-1.4-1-3-1.8-4.5-2.7,8.7,17.1,18.1,33.1,32.4,45.7,16.3,14.3,33.9,16.2,52.9,5.5,21.8-12.3,33.5-32.6,43.9-56.2Z"/><g><path d="M400.9,709.5c-13.3,.3-26.6-3.9-36.9-12.4-9.9-8.8-18.9-18.7-26.6-29.5-8.9-13.2-16-27.5-23.1-41.6,0,0-7.1-14.2-7.1-14.2-.5-1.3-1-2.6-1.1-4.1-.5-4.5,3.6-8.5,8-8.6,2.9,0,5.2,2,7.3,3.8,5.9,5,12.2,10.5,18.1,15.3,6.1,5,12.3,10,19,14.1,11.1,6.9,24.1,11.1,37.2,11,26.8,0,49.2-17.8,70.8-31.5,1.8-1.2,4.9-3,6.6-4.3,2.7-1.9,5.6-4.1,9-5.1,3-.6,6.4-.1,8.7,2.2,1.9,2.4,2.9,5.9,1.7,8.8-.5,1.1-1.8,4.3-2.3,5.5-8.2,19.4-16.3,39.4-29.4,56.2-14.5,18.4-35.6,34.6-59.9,34.6h0Zm0-.2c24.2-.1,44.7-16.8,58.5-35.5,12.5-17,20.3-36.8,28.5-56.1,.4-1,1.9-4.5,2.3-5.5,.8-1.9-.1-4.5-1.3-6.1-1.5-1.5-4.1-1.7-6.1-1.4-3,.9-5.5,2.8-8.2,4.6-4.3,2.8-15.6,9.9-20,12.8-17.8,11.5-36.8,22.8-58.8,22.3-12-.1-23.8-3.8-34.2-9.6-14.8-8.7-27.6-20.6-40.9-31.3-1.9-1.5-4-3.3-6.5-3.3-2.3,0-4.7,1.8-5.8,3.8-1.2,2.1-.6,4.7,.4,6.9,12.5,23,22.8,47.7,39.6,68.1,15.1,18.2,27.1,30.3,52.4,30.2h0Z"/><path d="M467.1,632.1c-38.1,24.5-71.8,39.2-114.4,14.4-3.8-2.1-7.5-4.6-11.2-6.9,0,0-3.7-2.2-3.7-2.2,0,0,.6-.5,.6-.5,8.8,17.2,19.2,33.9,34.2,46.2,12.1,10.3,27.3,13.7,42.2,7.7,26.5-10.5,40.5-34.3,52.3-58.7h0Zm.2-.2c-8.5,21.6-20.6,43.4-41,55.9-9.9,6.4-22.3,10.3-34.1,7.7-26.5-6-43.2-35.9-54.5-58.4,0,0-.7-1.3-.7-1.3l1.2,.7c5,2.9,9.8,6.4,14.9,9.1,20.7,11.7,43.9,14.6,66.8,7.9,16.6-4.7,32.3-13.8,47.4-21.7h0Z"/></g></g><g><path d="M481.4,473.6c18.6-.5,35.1,5.2,49.3,17.2,6.7,5.6,6.8,9.7,.9,15.8-22.4,23.1-55.8,30.2-81.1,16.2-7.5-4.1-13.9-10.4-20.1-16.3-4.5-4.3-4.4-9.3,0-14.4,11-12.6,25.6-16.6,41.3-18.4,3.2-.4,6.5,0,9.8,0Zm36,25.7c-20-15.5-56.4-15.6-73.4-.3,15.7,21.1,52.7,21.5,73.4,.3Z"/><g><path d="M481.4,473.5c16.3-.5,33,3.6,46.2,13.5,15,10.4,10.1,16.2-2,26-13.8,11-31.2,17.8-49,17.6-9.6-.1-19.2-2.7-27.6-7.4-4.8-2.7-9.1-6.3-13.1-9.9-5.1-4.9-12.9-9.7-9.2-17.9,1.2-2.7,3.2-4.7,5.2-6.8,4.9-4.9,11-8.5,17.5-10.8,10.3-3.5,21.3-5,32.1-4.4h0Zm0,.2c-5.4-.2-10.8,0-16.1,1.1-10.4,1.9-20.8,5.8-28.9,12.9-3.4,3.2-8.2,7.2-8.1,12.1,.1,2.4,1.5,4.4,3.4,6,0,0,5.9,5.5,5.9,5.5,4.9,4.5,10.1,8.8,16.1,11.6,10.1,5.1,21.8,6.9,33,5.8,1.9-.3,4.1-.5,6-.9,0,0,3.9-.9,3.9-.9,1.2-.2,2.7-.9,3.9-1.2,2.5-.8,5.1-1.9,7.5-2.9,6-2.9,11.9-6.6,16.8-11,2.1-1.7,3.9-3.7,5.8-5.5,1.7-1.8,3.5-3.9,4.2-6.3,1-5.1-5-8.6-8.4-11.4-12.8-9.8-28.7-15.6-44.9-15h0Z"/><path d="M517.4,499.4c-10.9-7.1-23.8-10.3-36.7-10.7-6.4-.3-13,.1-19.3,1.8-6.3,1.7-12.3,4.6-16.9,9v-.8c2.2,2.7,4.7,5,7.4,6.9,13.8,9.8,32.7,10.2,48.2,4.3,6.3-2.4,12.1-6.1,17.2-10.5h0Zm.2,0c-18,21.3-57,23.9-74,0,0,0-.3-.5-.3-.5,0,0,.4-.3,.4-.3,5.1-4.3,11.2-7,17.5-8.9,12.6-3.9,26.5-4.1,39.1,0,6.3,2,12.4,5.2,17.3,9.6h0Z"/></g></g><g><path d="M321.1,529.9c-17.5,0-32.6-2.4-45.3-11.9-18.3-13.6-14.9-18.7-1.6-30.1,24.3-20.6,60.2-19.4,86.2,2.8,2.6,2.3,5.1,4.7,7.5,7.2,6,6.3,5.6,10.8-1.4,16.2-14,10.7-29.7,16.1-45.3,15.8Zm-40.7-27.1c16,16,57.8,17,72.9,1.7-19.6-21.6-56-22.5-72.9-1.7Z"/><g><path d="M321.1,530c-14.8,0-30.6-1.1-43.4-9.4-5.6-4-11.7-8-14.8-14.5-2.7-5.8,2.3-11.3,6.4-14.8,4-3.6,8.5-7,13.1-9.7,21.5-12.8,49.3-11.7,70.2,1.9,0,0,3.5,2.3,3.5,2.3,3.2,2.4,6.7,5.1,9.5,7.9,3.9,3.9,9.6,8.9,7.2,15-1.2,2.8-3.5,4.7-5.8,6.5-13.1,9.8-29.6,15.2-45.9,14.8h0Zm0-.2c16.4,.4,31.9-6.5,44.5-16.5,1.9-1.5,3.9-3.3,4.9-5.6,1.7-4.8-3.7-9-6.7-12.2-2.7-2.8-6.1-5.4-9.1-7.8-1.9-1.3-4.7-3.3-6.7-4.3-17.8-10.4-40.8-13-59.8-4-6.7,3.1-12.7,7.7-17.9,12.9-2.7,2.7-5.7,5.6-6.1,9.5-.2,6.1,7.2,11,11.5,14.7,12.8,10.2,29.4,13.3,45.5,13.2h0Z"/><path d="M280.5,502.8c10.1,8.2,23.5,10.9,36.2,11.6,9.6,.5,19.7-.2,28.5-4.6,2.9-1.5,5.6-3.3,7.8-5.6,0,0,0,.8,0,.8-4.7-4.8-10.4-8.6-16.5-11.3-18.2-8-41.8-5.9-55.8,9.2h0Zm-.2,0c17.3-23.6,55.8-20.1,73.5,1.3,0,0,.4,.5,.4,.5-2.5,2.5-5.6,4.4-8.7,5.9-15,6.8-32.7,7.9-48.4,2.7-6.3-2.1-12.3-5.3-16.8-10.4h0Z"/></g></g><g><path d="M734.2,520c-21-.4-38.5-10.5-49.1-31.6-3.9-7.6-2.7-11.2,4.6-15.7,13-7.9,26.9-7.2,41.1-4.4,17.3,3.5,31.5,12,41.9,26.5,5.4,7.5,4.4,11.7-3.7,16.3-10,5.7-20.8,8.6-34.7,9Zm23.4-19.8c-11.2-16-42.2-24.5-57.5-16,7.9,19.3,34,26.7,57.5,16Z"/><g><path d="M734.2,520.1c-14.4-.2-29.3-5.1-39.4-15.9-3.4-3.5-6.3-7.5-8.7-11.8-1.7-3.3-3.6-6.6-4-10.3-.4-6.9,7.3-9.9,12.4-12.5,8.9-3.9,18.9-4.4,28.5-3.3,9.6,1,19.2,3.3,27.9,7.8,8.7,4.5,16.3,11,22.1,18.9,1.4,2,2.9,4.1,3.7,6.6,2.8,8.7-7.9,12.7-14.2,15.4-9.1,3.6-18.8,4.8-28.3,5h0Zm0-.2c11.9-.2,23.8-3.4,34-9.6,3.6-2.1,7.9-5.2,6.2-9.8-.7-2-2-4-3.4-5.8-5.6-7.5-12.7-14-21.1-18.4-8.3-4.6-17.6-7.1-27-8.5-9.4-1.5-19.3-1.2-28,2.7-4,2-8.8,4.3-10.8,8.4-1.6,4.4,1.8,8.8,3.8,12.6,4.9,8.1,11.3,15.3,19.2,20.4,8,5.2,17.5,7.9,27.1,8h0Z"/><path d="M757.5,500.2c-7-7.9-16.6-12.8-26.5-15.9-9.7-3.2-21.3-4.9-30.5,.5,0,0,.3-.8,.3-.8,7,15.3,25,21.4,40.9,19.8,5.4-.4,10.8-1.9,15.9-3.6h0Zm.2,0c-19.4,11.2-49.6,7.1-58.1-15.8,0,0-.2-.5-.2-.5l.5-.2c4.9-2.4,10.4-3.1,15.7-3.2,15.5-.4,33.8,6,42.2,19.8h0Z"/></g></g><path class="cls-2" d="M467.2,632c-10.4,23.6-22.1,43.9-43.9,56.2-19,10.7-36.6,8.9-52.9-5.5-14.3-12.6-23.7-28.6-32.4-45.7,1.5,.9,3,1.7,4.5,2.7,18.7,12.6,38.7,20.8,61.8,18.2,17.4-2,33-9,48.1-17.4,4.5-2.5,8.8-5.1,14.8-8.5Z"/><path class="cls-2" d="M517.5,499.4c-20.7,21.2-57.7,20.8-73.4-.3,17-15.3,53.4-15.3,73.4,.3Z"/><path class="cls-2" d="M280.4,502.8c16.9-20.7,53.3-19.9,72.9,1.7-15.2,15.3-56.9,14.3-72.9-1.7Z"/><path class="cls-2" d="M757.6,500.2c-23.5,10.7-49.5,3.3-57.5-16,15.2-8.4,46.2,0,57.5,16Z"/><g><path d="M535.5,702.6c-8.9,13.5-17.4,27.5-27,40.6-22.3,30.4-49.9,54.1-87.1,64.4-26.4,7.3-51.9,6.5-77.2-6.8-40.9-21.6-67.1-56-87.6-95.7-22.2-42.9-34.5-89-43.3-136.2-7.6-40.5-8.5-81.4-3.8-122.3,3.5-30.8,12.9-59.5,38-79.8,18.1-14.6,39.8-22.1,62.4-26.7,29.9-6.1,60.2-5.6,90.5-4.9,21.3,.5,42.7,1.1,64,2.2,25.7,1.3,50.5,6.4,72.6,21,1.4-2.2,2.6-4.2,3.8-6.3,12-21.1,30.7-31.5,54.3-31.5,65,0,127,13.1,184.5,44.4,7.8,4.2,15,9.7,21.9,15.4,14.9,12.2,22,28.3,24,47.6,3.7,36.8-3.9,71.6-15.4,106.3-16.4,49-41.7,92.7-75.2,131.8-23.4,27.3-50.1,50.5-85.2,61.6-32.2,10.2-64,9.9-93.7-8.5-7.3-4.5-13.5-10.9-20.4-16.5Zm-142.4-353c0,.3,0,.6,0,1-17.2,0-34.5-.7-51.6,.2-20.4,1.1-40.7,4.3-59.6,13-23,10.5-37.6,27.9-42.3,52.8-7.9,41.8-9.2,83.9-4,126.2,6.3,50.9,21.4,99.3,44.2,145.3,11.4,23,23.8,45.5,41.3,64.8,38.9,42.8,93.2,46.5,137.2,9.1,22.9-19.4,39.9-43.7,54.6-69.6,28.3-50.1,45.4-103.7,51.2-161,3.7-36.2,3.2-72.2-4.2-107.9-6.6-32-23.5-55.7-56.5-64.4-14.2-3.7-29-5.9-43.7-7-22.1-1.6-44.4-1.7-66.6-2.4Zm167.2,272.6c-5.9,14.4-12,29.2-18,44.1-.5,1.2-.4,3.1,.2,4.1,13.9,23.6,33.1,39.6,61.3,42.5,27.5,2.8,50.7-8.3,72-24,50.7-37.3,87.4-85.8,113.2-142.7,16.4-36.2,25.1-73.9,22.1-114.1-1.4-18.1-8.1-32.6-22.6-43.6-20.4-15.5-43.4-25.7-67.6-33.3-40-12.7-81-20.5-123.1-20.4-21.8,0-38.1,9.6-47.3,29.8-.8,1.7-.8,4.9,.2,6.1,13.5,15.7,20.1,34.4,24.3,54.2,.7,3.2,1.1,4.9,5.1,4.8,21.3-.5,37.7,9,50.2,25.8,12.5,16.8,10.3,22.3-10.1,27.1-13.3,3.1-26.3,1.6-38.9-2.5-.8,18.2-.9,36.1-2.7,53.8-1.8,17.7-5.4,35.1-8.3,53.3,4.7-2.9,9-5.7,13.4-8.3,12.5-7.2,25.6-12,40.4-10.5,20.9,2.2,36.6,13.3,48.4,30,8.6,12.3,16.4,25.3,15.8,41.3-.2,5.6-1.3,11-7.3,13.4-5.9,2.4-9.7-1.6-13.8-5-8.3-7-16.5-14.3-25.5-20.4-14.9-10-31.6-14.6-49.6-11.9-10.7,1.6-21.2,4.1-31.9,6.3Zm112.9,10.5c-7.9-23-19.6-42.4-45-48.9-15.7-4-43.5,6.6-54.5,20.9,39.5-11.9,70.9,2.7,99.5,27.9Zm-53-165.1c-7.6-15.6-27.7-25.9-41.5-21.9,.3,4.6,.2,9.2,1,13.6,.4,2.1,2,5,3.9,5.8,11.6,5.2,23.7,6.4,36.6,2.5Z"/><g><path d="M535.6,702.8c-22.3,35.9-46.5,74-85.3,94.1-23.6,12.5-51.3,19.4-78,14.7-12-2.1-23.4-6.8-33.9-12.9-77.9-44.8-110.6-145.7-125.9-229.3-8.6-47.9-10.5-113,4.6-159.4,3.4-9.5,8.1-18.5,14.1-26.6,41-52.7,120.9-49.8,181.4-48.2,0,0,32.1,1,32.1,1,15.6,.4,32.7,.8,48.1,3.9,15.9,3.1,31.3,8.8,44.8,17.7,0,0-1.2,.3-1.2,.3,0,0,3.4-5.6,3.4-5.6,0,0,1.7-2.8,1.7-2.8,7.3-12.4,18.9-22.3,32.7-26.8,8.4-2.8,17.4-3.5,26.2-3.2,5.8,0,13.8,.3,19.7,.5,54.6,2.7,108.9,16.3,157.3,42.2,7.9,3.9,15.2,9.1,22,14.5,7,5.4,13.4,11.9,17.8,19.6,8.1,13.4,10.1,29.4,10.6,44.7,1.1,65.1-28.3,136.8-64.6,190-3.5,5.1-7.8,11.1-11.5,15.9-19.9,25.9-42.4,50.8-70.9,67.5-37.6,22-86.7,29.4-124.8,4.7-6.3-3.9-14.5-11.6-20.2-16.5h0Zm0-.2c3.1,2.5,7,5.9,10,8.5,38.2,33.1,93.2,26.6,134.2,2.3,28.1-16.7,50.3-41.6,70-67.4,3.7-4.8,8-10.9,11.4-15.9,17.2-25.1,31.4-52.3,42.2-80.8,15.1-40.4,26.3-84,20-127.3-2.1-12.7-7.4-24.9-16.2-34.3-2.9-3.2-6.1-5.9-9.6-8.6-6.8-5.4-13.8-10.4-21.6-14.3-49.9-26.8-106.2-40.5-162.7-42.5-3.3-.2-9.8-.3-13.1-.3-4.4,0-8.7-.1-13,.3-8.5,.9-16.9,3.5-24.3,7.9-9.3,5.5-16.5,13.9-21.8,23.3-.5,.8-3.5,5.8-3.9,6.4-28.3-19.1-59.6-21.6-92.7-22.3-61.5-1.4-133.4-10.5-188,23.3-28.7,18.3-41.7,47.7-46,80.5-8.7,63.9,.2,128.5,18.2,190,19.2,63.9,50.6,131,110.4,165.6,10.3,6.1,21.5,10.7,33.2,12.8,37,6.4,75.3-8.3,103.5-32,16.4-13.8,29.9-30.6,41.7-48.3,5.9-8.8,11.7-18.1,17.7-26.9h0Z"/><path d="M393.3,349.7c0,.3,0,.7,0,1,0,0-.1,0-.1,0-13.2,0-26.3-.2-39.5,0-37.6,1-83.1,7.4-104.4,42.3-5,8.4-7.9,17.9-9.4,27.5-2.9,16.1-4.7,32.5-5.7,48.9-5,91.8,20.9,184.8,70.7,262,11.1,16.2,24.3,31.3,41.2,41.7,28.5,18,64.2,18,93.1,1,34.1-20.2,57.1-54.2,75.9-88.4,37.6-69.1,55-149.3,48.7-227.7-3.8-39.9-11-80.9-53.5-96.2-6.1-2.2-12.6-3.7-19-5-31.9-6.6-65.7-5.7-98.1-7.2h0Zm-.2-.2c38.6,1.1,79.2-.9,116.6,10.5,44.4,15,52.4,56.5,56.5,97.9,6.6,78.9-11,159.6-49.1,229-29.6,55.4-83.4,121-153.7,95.7-38.1-14.1-61.1-50.4-79-84.8-46.2-87.2-65.6-190.2-44.3-287.3,9-35.4,40.7-51.5,74.2-57.4,26.1-4.7,52.6-2.9,78.9-2.7,0,0-.1,.1-.1,.1,0-.4,0-.7,0-1.1h0Z"/><path d="M560.4,622.3c-3.5,8.8-13.8,34.5-17.2,43.1-.7,1.5-1,3-.4,4.6,0,.3,.3,.5,.5,.8l2.1,3.4c1.5,2.2,3,4.5,4.6,6.6,16.5,22.7,41.6,34.1,69.5,31.5,16-1.4,31.2-7.9,44.7-16.4,42.6-28.1,77.6-67,103.6-110.7,6.7-11.3,13.2-23.7,18.8-35.6,18.4-38.6,28.8-82.2,23.2-124.9-2.5-16.4-11.9-29.9-25.7-38.9-43.9-31.1-114.8-46.7-168.2-49.7-10.6-.3-21.5-1.2-31.9,1.2-15,3.2-27.3,14.7-32.7,28.8-.3,1.3-.3,3,.4,4.1,0,0,.6,.8,.6,.8,11.5,13.5,18.5,30.3,22.6,47.4,.6,2.6,1.2,5.3,1.8,7.9,.3,1.1,.5,1.9,1.6,2.3,2.2,.6,5.3,0,7.7,.4,18.3,.8,34.3,10.9,45,25.4,3.6,5.1,9.6,12.2,8.2,19-2.1,7-11.6,8.8-17.7,10.5-13.3,3.4-27.5,2-40.5-2.3,0,0,1.7-1.2,1.7-1.2-.8,17.9-.9,35.9-2.7,53.9-1.9,18-5.5,35.6-8.3,53.3,0,0-1.9-1.2-1.9-1.2,16.3-10.7,34.4-21.3,54.7-18.8,20.2,2,37.4,13.8,48.7,30.4,9.4,13.1,17.9,28.8,15.7,45.5-.4,3.4-1.8,6.9-4.6,9-2.8,2.1-6.6,3.2-9.9,1.9-3.2-1.2-5.6-3.7-8.1-5.7-5-4.2-9.8-8.5-14.9-12.5-10-8.2-21.1-15.2-33.7-18.3-19.1-5.2-38.6,1.4-57.4,4.8h0Zm-.2-.2c28.6-5.9,48.2-13.5,76,1.6,11.4,6.4,21.1,15.3,31.1,23.5,5.1,4.4,9.6,8.5,16.1,3.7,3.8-3,4.2-8.2,4.2-12.7,0-8-2.2-15.8-5.7-23-7.4-14-17-27.8-30.6-36.4-13.4-8.4-30.3-11.9-45.8-7.8-12.6,3.2-23.4,10.3-34.3,17.2,0,0-2.3,1.4-2.3,1.4,2.9-18.6,6.8-37.1,8.7-55.8,1.9-18.3,1.8-36.9,2.7-55.4,13.1,4.4,27.2,6.2,40.7,2.8,5.1-1.4,14.2-3.1,15.9-8.6,1.8-7.5-12.9-23.8-18.6-28.5-10-8.7-23.2-13.3-36.4-13.2-1.3,0-3.1,0-4.4-.4-1.6-.4-2.7-2.3-3-3.8-.6-2.7-1.1-5.2-1.8-7.9-3.1-13-7.7-25.7-14.8-37-2.1-3.4-4.5-6.6-7.1-9.7,0,0-.7-.8-.7-.8-.8-1-.9-2.3-1-3.5-.1-2.9,1.6-5.4,2.9-7.9,4-7.2,9.5-13.6,16.5-18,14-9.3,31.5-8.1,47.5-7.3,32.3,1.7,64.3,8,95.3,17.2,25.8,7.5,51.2,17.6,73.3,33.3,4.4,3.1,8.8,6.4,12.4,10.5,15.6,16.4,15.8,39.9,15.3,61.3-3.3,79.6-55.2,165-114.7,216.2-26.7,22.9-56.9,44.9-94.1,40.7-27.5-2.8-48.3-19.8-61.4-43.4-.7-1.7-.3-3.6,.5-5.2,.4-1.1,1.9-4.5,2.3-5.6,1.8-4.3,13.4-32.3,15.5-37.3h0Z"/><path d="M673.2,632.6c-6.1-14.7-13.5-30-26.9-39.3-4.3-3.1-9.1-5.5-14.1-7.4-3.7-1.3-7.8-2.4-11.7-2.3-12.1,0-24.1,4.4-34.2,11-4.5,3-8.6,6.5-11.8,10.7l-1-1.4c5.2-1.5,11.3-3.2,16.7-3.7,32.1-4.6,60.6,10.6,83,32.4h0Zm.1,.2c-24.3-19.5-50.6-34.2-82.9-30.4-5.2,.5-11.3,1.9-16.5,3.2,0,0-2.7,.7-2.7,.7l1.7-2.1c10.3-12,27.9-19.4,43.3-21.5,3.4-.4,7-.5,10.3,0,1.4,0,4.6,1.1,6,1.5,5.3,1.6,10.3,4.1,14.8,7.3,13.6,9.7,21.4,25.5,25.8,41.3h0Z"/><path d="M620.1,467.5c-4.5-6.9-10.6-12.6-17.8-16.7-6.9-4.2-15.5-7.3-23.5-4.7,0,0,.4-.5,.4-.5l.7,7.3c.2,1.7,.4,3.6,.7,5.3,.4,2.2,1.5,4.8,3.6,5.8,11.3,4.9,23.8,6.1,35.9,3.5h0Zm.2,0c-12,5-26,4.1-37.6-1.7-6.2-4.2-4.1-13.8-4.5-20.3,0,0,0-.4,0-.4,4.3-1.1,8.7-1,13-.3,12.6,1.8,24.5,10.6,29.1,22.6h0Z"/></g></g></g></g></svg>