<?xml version="1.0" encoding="UTF-8"?><svg id="Layer_1" xmlns="http://www.w3.org/2000/svg" viewBox="0 0 1024 1024"><defs><style>.cls-1{fill:#ebebec;}.cls-2{fill:#fff;}.cls-3{fill:#b6cc3b;}</style></defs><polygon class="cls-1" points="20.5 36.4 1018 83.7 1018 913.2 6 987.6 20.5 36.4"/><g id="_1p12S7"><g><path class="cls-3" d="M591.6,752.3h-7.7c-100.5,0-201.1,0-301.6,.2-7.2,0-9.3-2.3-9.4-8.9-.4-34.8-1.2-69.6-1.4-104.4-.2-36.9,.2-73.8,0-110.7,0-7.2,4.1-11.3,9.7-12.8,12.7-3.5,25.5-7.2,38.5-8.5,48.4-4.9,96.9-2.3,145.4-.8,33.4,1.1,66.8,1.9,100.2,1.9,15.9,0,20.6,.8,24.1,16.7,4.2,18.9,7.8,38.4,7.9,57.6,.2,40.4-1.8,80.7-3.2,121.1-.5,16-1.7,31.9-2.6,48.7Zm-212.6-128.1c-.2,20.1,4.2,32.2,13.8,42.2,19.4,20.3,48.9,21.7,73.9,3.7,39.7-28.6,36.1-84.6-7.3-103.7-8.5-3.8-18.8-4.7-28.3-4.8-8.4,0-15.3,4.5-17.6,13.9-.4,1.8-2.7,3.4-4.5,4.4-19.7,11.1-29.4,28.1-30.1,44.3Zm-103.5-56.1c.9,3,1.5,7.5,3.6,11.1,1.4,2.4,5,4.8,7.5,4.7,2.5-.1,5.7-2.9,7.1-5.3,2.2-3.7,2.5-8.5,4.6-12.3,3.5-6.3,7.6-12.3,12-18.1,2.2-2.9,5.7-4.7,8.5-7.1,3.9-3.5,7.9-7.2,5.1-13-3-6.1-8.7-6.3-14.4-5.4-2.7,.4-5.4,1.4-7.8,2.8-15.8,9.2-23.8,23.3-26.1,42.6Zm296.2,127.4c-.7-3.1-1-8.4-3.1-12.8-1.4-2.9-5.5-5.9-8.4-6-2.3,0-5.5,4.1-6.7,7.1-4,9.7-7,19.9-11,29.6-2.6,6.4-2.2,13.2,2.3,16.4,4.4,3.1,10.7,2.1,15.5-3.2,7.5-8.2,10.5-18.2,11.4-31.1Zm-222.1-179.4c-5.8,0-10.6,4.6-10.9,10.4-.2,6.1,4.1,10.8,10,11,6.1,.2,11.2-4.6,11.2-10.7,0-6.1-4.4-10.7-10.4-10.7Zm177,205.5c-2.6,4.5-5.1,7-5,9.3,.2,2,3.4,3.8,5.3,5.7,1.9-2.2,4.8-4.2,5.2-6.6,.3-1.9-2.6-4.3-5.6-8.5Z"/><path class="cls-3" d="M791.1,625.3c-1.7,29.1-2.1,57.6-5.6,85.8-2.5,20.1-12.4,37.6-34.4,43-16.3,4-33.1,2.9-48.9-2.7-13.9-4.9-21.3-16.5-25.3-30-2.5-8.5-4.7-17.5-5-26.3-.7-23.1-.2-46.1-.2-69.8h119.4Z"/><path class="cls-3" d="M804,625.1c16.7-3.3,23.9,1,25.6,16.8,1.3,12.1,.7,24.4,.3,36.6-.2,5.8-4,9.5-9.7,10.4-5,.8-10.1,1-16.2,1.6v-65.4Z"/><g><path d="M188.4,766.5c-3.5-27.9,16.1-47.4,45.8-44.4,0-20,.4-39.8,0-59.6-.8-30.9-2.6-61.7-3.3-92.5-.2-8.2,1.4-16.7,3.3-24.7,6.8-28.9,27.3-42.3,54.7-47.2,28-5.1,56-2.7,83.9,.6,1.6,.2,3.2,.4,5.5,.6,0-6.5,.2-12.8-.1-19,0-1.4-1.7-3.2-3.1-3.9-31.3-15.8-44.8-43.5-51-76.2-.4-2.2-.8-4.5-1.2-6.7-12.1-.7-22.7-12.5-25.3-27.6-1.8-10.7-.3-20.7,4.7-30.3,.9-1.7,1.3-4.8,.4-5.9-25-31.3-15.4-70,4.1-96.8,31.8-43.7,81.1-59.2,134.7-42.1,8.8,2.8,17.5,6.3,25.8,10.3,8.3,4,16.2,9,24.4,13.7,3.7-3.5,7.5-7.4,11.7-10.9,2.1-1.7,4.7-3,7.3-3.9,5.2-1.8,11.2-4.4,15.1,1.8,3.7,5.9-.9,10.5-4.4,14.8-1.7,2.1-3.9,3.8-5.9,5.6,6.8,.3,13.4,.2,19.7,1.2,2.2,.4,5.4,3.4,5.6,5.5,.2,2.1-2.3,5.6-4.5,6.6-5.2,2.2-11,3.3-17.3,5.1,1.3,1.8,2.7,3.7,4.1,5.6,15.5,20.5,20.6,43.6,17.6,69-.3,2.3,.6,5.4,2.1,7.1,23.2,25.2,15.5,60.6-16,74.5-2.2,1-4.4,4-4.9,6.4-6.5,36.7-27,62.4-60.8,77.5-3.8,1.7-5.5,3.4-5.1,7.6,.3,3.4,0,6.9,0,10.6,16.3,0,32.2,.4,48.1-.1,21.1-.7,42.3-1.6,63,3.6,23.9,6.1,33.9,19.4,33.8,44,0,66.7,0,133.3,0,200,0,6.7,0,13.4,0,20.5h49.6c-5.1-17-10.8-33.6-15-50.6-3-12.1-5-24.6-5.7-37-1.5-27.5,11.9-43.3,39.3-45.6,20.1-1.6,40.3-1.2,60.5-1.2,18.1,0,36.2,.8,54.3,.9,22.1,.2,34.2,9.5,40,31,3.7,13.4,3.2,26.7-.8,39.8-6.9,22.7-19.5,31.3-43.4,30.7-5.2,10.9-10.2,21.4-15.4,32.4,4.2,0,9.1,.5,13.8-.1,9.5-1.3,17.2,2,24,8.3,4.8,4.4,10,8.4,14.3,13.2,9.3,10.7,8.2,21.1-4.4,27.6-10.6,5.4-22.2,9.5-33.8,12-39.6,8.7-80.1,10.2-120.4,11.2-87.3,2.1-174.6-.6-261.9-3.6-64-2.2-128.1-3.1-192.2-4.5-3.4,0-7,.4-10.3,1.1-14.4,2.9-26.2-2.1-33.6-14.5-7.5-12.5-6.1-28.1,3.2-38.9,6.4-7.4,14.7-11,24.8-12.1Zm387.1,.4c.9-16.8,2-32.7,2.6-48.7,1.4-40.4,3.4-80.7,3.2-121.1-.1-19.2-3.7-38.7-7.9-57.6-3.5-15.9-8.2-16.7-24.1-16.7-33.4,0-66.8-.8-100.2-1.9-48.5-1.5-97-4.1-145.4,.8-13,1.3-25.8,5-38.5,8.5-5.6,1.6-9.7,5.7-9.7,12.8,.1,36.9-.3,73.8,0,110.7,.2,34.8,1,69.6,1.4,104.4,0,6.6,2.2,9,9.4,8.9,100.5-.3,201.1-.2,301.6-.2h7.7Zm-69.4-444.6c15.3-9.4,20.8-22.4,14-37.8-4.3-9.8-10.5-19.3-17.9-27-27-27.9-60.3-44.4-98.8-49.3-40.3-5.2-71.7,14.5-85,52.8-2.1,6.1-3.8,12.4-4.8,18.8-.4,2.9,.5,7.1,2.4,9.1,14.7,15.1,32.7,21.6,53.6,18.7,11.9-1.6,23.7-4.2,35.6-5.9,2.4-.3,5.1,1.6,7.7,2.4-1.3,2.2-2.2,5-4.1,6.5-15.4,11.5-32.9,15.6-51.8,13.7-14.3-1.4-27.1-6.7-38.7-15.4,.9,2.6,2.1,4.7,3.6,6.6,20,25.6,46.4,33.3,77.4,26.9,22.9-4.8,41.3-17.1,55.9-35.3,5.8-7.3,11.8-9.4,17.1-6.1,11.2,7,22.2,14.1,33.5,21.3Zm20.8,16.4c-5.9,1.6-10.9,4.3-15.3,3.7-7.8-1-15.5-3.5-22.8-6.5-6.3-2.6-12-6.8-18-10.2-20.6,18.8-44.8,31.2-71.4,38.7-18.2,5.2-36.6,9.2-53.5-3.1,0,12.1-1.2,24.2,.2,36,4.8,40.3,34.1,66.2,75.3,67.7,38.5,1.4,71.6-24.1,77.3-62.8,2.2-15,8.8-23.4,20.8-29.9,1.6-.9,3.1-2,4.6-3.1,14.4-10.2,14.9-19,2.8-30.6Zm275.4,463.5c0-1.3,0-2.6-.1-3.9-5.1-1.7-10.1-4.5-15.3-4.9-34-2.6-68-6.9-102-6.7-131.6,.7-263.2,2.9-394.9,4.2-33.6,.3-67.2-.9-100.9-1-3.3,0-7.9,2.6-9.4,5.3-1.6,2.8-1.4,8.1,.3,10.8,1.7,2.7,6.3,4.8,9.7,4.8,10.9,0,21.7-1.8,32.6-1.7,89.8,1.3,179.7,3.5,269.5,4.1,81.7,.6,163.4,0,245.1-.8,17.1-.2,34.2-3.1,51.2-5.3,4.9-.6,9.5-3.3,14.3-5Zm-43.3-146.2h-101.9c0,20.2-.4,39.9,.2,59.6,.2,7.5,2.1,15.2,4.2,22.4,3.4,11.5,9.8,21.4,21.6,25.6,13.5,4.8,27.8,5.7,41.7,2.3,18.8-4.6,27.2-19.6,29.4-36.7,3-24,3.3-48.3,4.8-73.2Zm20.7-.2v55.8c5.2-.5,9.5-.7,13.8-1.4,4.9-.8,8.2-4,8.3-8.9,.3-10.4,.8-20.9-.3-31.2-1.5-13.5-7.6-17.1-21.8-14.3Zm-546.6,89.3c-18.8-2.1-24,3.2-21.3,21.4h21.3v-21.4Zm200.7-256.6c-11.2-.6-21.9-1.2-32.8-1.8v12.1h32.8v-10.3Zm-119-145.7c-2.4,12.5-1.5,23.6,6.3,33.7,.8-7.5,.1-15.1,1.1-22.5,.8-6-1.4-8.9-7.3-11.2Z"/><g><path d="M188.3,766.4c-1.8-12.2,1.6-25.8,10.9-34.4,9.2-8.8,22.6-11.6,35-10.3,0,0-.4,.3-.4,.3,0-14.3,.1-28.7,0-43-.2-24.7-2.1-60.9-3-86-.4-14.3-1.9-28.9,1.5-43,3.1-16.7,10.3-31,24.6-40.8,32.2-21.2,84.8-15.3,121.5-11,0,0-1.1,1-1.1,1,0-5.3,.1-10.5,0-15.7,0-.6-.1-2.5-.1-3.2-.2-1.2-1.2-2.2-2.2-2.9,0,0-3.4-1.9-3.4-1.9,0,0-1.7-1-1.7-1l-.9-.5s-.8-.5-.8-.5c-18.4-10.9-31.7-29-38.6-49.1-3.5-10-5.9-20.4-7.6-30.8l1,.9c-8.6-.5-16-6.3-20.5-13.3-8.7-13.7-8.7-32-1.1-46.1,.6-1.4,1.2-3.3,.6-4.7-4.1-5.2-7.6-11-10.2-17.2-6.4-15.3-6.4-32.7-1.8-48.4,4.5-15.8,13.2-30.2,24-42.4,34-39.6,86.9-48.3,134.6-30,15.4,5.3,29.7,13.5,43.6,21.8,0,0-.9,.1-.9,.1,6.1-5.4,11.6-12.7,19.7-15,5.4-1.9,12-3.9,15.6,2.3,3.7,5.8-.8,11.1-4.5,15.3-1.8,2.2-4.1,3.9-6,5.8l-.4-1.1c4.5,.2,9,.3,13.6,.6,2.3,.2,4.6,.3,6.9,.9,2.3,.9,4.1,2.6,5.2,4.9,.8,2.5-.9,4.9-2.5,6.6-1.7,1.8-4.1,2.2-6.3,3-4.3,1.4-8.8,2.3-13.1,3.5,0,0,.3-.8,.3-.8,7.9,10.2,15,21.3,18.6,33.9,3.8,12.4,4.6,25.6,3.3,38.5-.1,1.6-.5,3.2-.2,4.7,.2,1.5,.8,3,1.7,4.2,2.1,2.4,4.2,4.9,6,7.7,15.8,24,6.8,53.5-18.6,66.1-1.4,.7-3,1.3-4.3,2.1-1.8,1.4-3.3,3.4-3.8,5.7-4.9,28.5-20.2,53.7-45,69.1-5.4,3.6-11.3,6.4-17.1,9.1-2.1,1-3.8,2.8-3.8,5.2,.3,4,.2,8.1,.1,12.1,0,0-.4-.4-.4-.4,16.4,0,32.8,.4,49.1-.2,20.4-.7,41.2-1.5,61.2,3.4,24,5.6,35.2,19.3,35.2,44.1,.2,10.3,.2,205.7,.3,221,0,0-1-1-1-1s49.6,0,49.6,0c0,0-1,1.3-1,1.3-8.7-28.7-19.3-57.5-20.7-87.8-1-18.2,4.5-34.8,22.2-42.6,0,0,3.2-1.2,3.2-1.2,.5-.2,1.1-.4,1.6-.5l1.6-.5s1.6-.5,1.6-.5c.5-.1,1.1-.2,1.7-.3,0,0,3.3-.6,3.3-.6,0,0,3.4-.4,3.4-.4,0,0,1.7-.2,1.7-.2,38.4-2.6,76.9-.8,115.4-.4,0,0,3.4,.1,3.4,.1,1.1,0,2.3,.2,3.4,.3,9.1,1,18.3,4.6,24.3,11.8,8.7,10.4,12,25.1,12.2,38.4-.2,16.9-6,39-21.5,48-8,4.7-17.5,5.5-26.6,5.4,0,0,1.2-.7,1.2-.7,0,0-15.4,32.4-15.4,32.4,0,0-1.1-1.8-1.1-1.8,4.4,0,8.6,.4,12.7,0,2-.3,4.5-.4,6.6-.3,7.9,.3,15.1,4.6,20.6,10,0,0,2.4,2.1,2.4,2.1,1.6,1.4,3.3,2.8,4.9,4.3,14.2,12.1,19,27.6-2,36.8-9.8,4.7-20.1,8.2-30.6,10.5-25.2,5.5-51,8.2-76.8,9.7-103,4.7-206.1,1.2-309.1-2.4-58.5-2-121.6-3.3-180.2-4.6,0,0-6.4-.2-6.4-.2-2.2,0-4.3-.1-6.4,0-4.8,.4-9.5,1.8-14.4,1.7-13.2,0-23.8-8.6-28.5-20.6-8.5-22.4,7.4-44.5,30.7-46.2h0Zm.2,.2c-8.6,1-16.9,4-23,10.3-9.2,9-12.2,23.5-7.3,35.5,4.7,11.7,15,20.2,27.9,20,4.9,0,9.5-1.4,14.3-1.8,2.2-.2,4.3-.1,6.5,0,0,0,6.4,.1,6.4,.1,58.7,1,121.7,2,180.3,3.9,102.9,3.3,206,6.7,308.9,1.7,17.1-1,34.2-2.5,51.1-5,16.8-2.6,33.8-5.6,49.5-12.4,5.6-2.5,11.8-4.8,15.9-9.5,8.6-11.5-5.2-22.9-13.5-30,0,0-2.4-2.1-2.4-2.1-3.8-3.6-8.1-6.7-13-8.2-4-1.3-8.1-1.3-12.2-.8-5.2,.5-10.1,0-15,0,0,0,.9-1.8,.9-1.8,0,0,15.4-32.4,15.4-32.4,0,0,.4-.7,.4-.7,4.7,.1,9.4,0,13.9-.8,13.9-2.1,22.9-11.2,27.5-24.3,5.4-14.3,6.5-30.4,2-45.1-2.8-10.3-8.7-20.5-18.9-24.9-7.8-3.7-17.2-3.8-25.7-3.8-36.7-.6-73.5-2.3-110.1,.5,0,0-3.3,.4-3.3,.4,0,0-3.2,.6-3.2,.6-1.5,.2-3.3,.8-4.8,1.2-20,6.1-26.5,22.5-25.5,42,1.4,30.6,12.2,59.5,20.9,88.7,0,0-1.4,0-1.4,0s-49.6,0-49.6,0-1,0-1,0c0,0,0-1,0-1,0,0,.3-196.5,.3-196.5-.2-8.6,.7-28.5-1-36.7-4.2-23.4-24.2-30.2-45.1-33.3-16.2-2.3-32.6-1.7-48.9-1.2-16.5,.6-33.1,.1-49.6,.1,0-3.4,.2-6.8,0-10.1-.6-3.8,.4-6.7,4.1-8.4,33.9-14.7,55.4-41,61.8-77.6,.6-2.9,2.5-5.5,5.2-6.8,0,0,1.1-.5,1.1-.5,.7-.4,1.5-.7,2.2-1,2.9-1.5,5.6-3.2,8.1-5.1,19.1-14.3,23.3-40,10.1-59.9-1.8-2.7-3.8-5.1-5.9-7.6-1-1.4-1.6-3-1.9-4.7-.1-.8-.2-1.7,0-2.5l.2-2.4c2.8-27.5-4.5-50.2-21.9-71.6,0,0-.4-.6-.4-.6,0,0,.7-.2,.7-.2,4.4-1.2,8.8-2.2,13.1-3.6,1.5-.6,3.2-1,4.6-1.8,1.3-.8,2.4-2.2,3.1-3.6,.4-1,.8-2,.4-2.8-.8-1.8-2.6-3.5-4.5-4.2-6.6-1.2-13.4-.9-20.1-1.3,0,0-1.5,0-1.5,0,0,0,1.1-1,1.1-1,4.1-3.6,8.1-7.4,10.6-12.2,1.9-3.5,.2-7.9-3-10-3.6-2-7.6-.2-11.4,1-2.6,.8-5,2-7.1,3.6-4.2,3.4-8,7.4-12,11.2,0,0-.4,.4-.4,.4,0,0-.5-.3-.5-.3-27.3-16.9-58.1-30.4-90.8-30.5-32.4-.6-64.1,14.2-85.1,38.7-15.9,17.9-27.3,41.1-26.7,65.4,.3,14,5.3,27.8,13.9,38.8,0,0,.9,1.3,.9,1.3,.5,.7,.6,1.4,.6,2,.3,3.4-1.8,6.1-2.9,9.1-2.3,5.5-3.5,11.4-3.5,17.4-.2,15,8.6,33.4,25.1,35,0,0,.8,0,.8,0s.1,.8,.1,.8c1.7,10.4,4,20.6,7.4,30.4,7.2,20.9,21.4,39.6,41.1,50,0,0,3.5,1.9,3.5,1.9,.7,.4,1.2,.9,1.7,1.5,.7,.8,1.5,2,1.4,3.2,.3,6.6,.1,13.3,.1,19.8-36.5-4.3-89.5-10.5-121.4,10.3-8.8,6-15.7,14.6-19.7,24.4-4.3,11.6-6.9,24.1-6.6,36.5,.2,14.6,1.7,49.4,2.2,64.5,1.3,28.7,1,57.4,.7,86.1,0,0,0,.4,0,.4,0,0-.4,0-.4,0-28-3.1-49.2,15.2-45.7,44.2h0Z"/><path d="M575.4,766.7c2.3-45.8,3.7-92,4.7-137.8,.2-11.5,.3-23,.1-34.5-.4-17.2-3.4-34.2-7.1-51-1.2-5.4-2.1-11.3-5.5-15.6-3.8-4.2-10-3.9-15.3-4.1-74.7,.7-149.5-7.1-224.2-3.6-11.4,.7-23,1.4-34.3,3.4-9.6,1.8-19.8,4.7-29.2,7.4-5.6,1.7-8.8,6.8-8.5,12.6,0,0,0,4.3,0,4.3,0,0,0,17.3,0,17.3,.1,17.2,.1,51.8,.2,69-.2,32,1.3,88.5,1.6,120.7,.2,3.9-.7,8.5,3.1,10.2-2.7,1.3,38.7,.5,38.2,.7,87.7,0,188.5,.3,275.9,1h0Zm.2,.2c-99.1,.9-211.7,1.4-310.7,1.4-5.8,0-9.2-2.9-9.3-9.1-.3-34.2-1.4-91.1-1.2-125.1,.1-17.2,.2-51.8,.3-69,0,0,0-17.3,0-17.3s0-4.3,0-4.3c-.2-4.5,1.6-9.3,5.4-11.8,2.4-1.8,5.4-2.4,8.2-3.1,0,0,8.3-2.2,8.3-2.2,11.1-3,22.5-5.1,34-5.8,74.6-5.5,149.5,1.9,224.2,1.2,5.3,.2,20.7-.4,26,.6,10.5,1.3,12.4,12.1,14.2,20.7,3.6,16.9,6.6,34,6.9,51.4,.3,34.5-1.3,69-2.8,103.5-.7,22.3-2.3,46.6-3.9,69h0Z"/><path d="M506.1,322.1c12-7.5,19.7-19.1,14.9-33.5-7.5-21.3-24.6-37.4-42.5-50.4-21.8-15.6-47.6-25.4-74.2-29-17.6-2.5-36.2-.4-51.7,8.6-19.7,11.1-31.8,32.2-37,53.7-.7,2.7-1.2,5.5-1.6,8.2-.4,3.8,.8,7.8,3.9,10.2,1.6,1.5,3.3,3.1,5,4.4,10.4,8.5,23.7,13.2,37.1,13,8.9,0,17.8-2.1,26.6-3.6,5.5-1,11.1-2.1,16.6-2.9,0,0,1.7-.3,1.7-.3,3-.5,6,1.6,8.4,2.4,0,0,1.2,.4,1.2,.4l-.6,1c-1.3,2.1-2.3,5.5-4.7,7,0,0-1.3,1-1.3,1-11.7,8.5-26.1,13-40.4,13.2-17.8,.6-35.6-5.1-49.7-15.9,0,0,2-1.5,2-1.5,1.4,4.3,4.5,7.6,7.4,11,8,8.9,17.9,16.1,29.2,20,18.9,6.5,40.1,4.2,58.6-2.8,12.8-5,24.3-13.1,33.8-23,5-4.8,8.5-11.6,15.3-14.2,2.9-1.1,6.2-.7,8.8,1,0,0,1.5,.9,1.5,.9l2.9,1.9c4.1,2.6,24.6,16,29,18.9h0Zm0,.2c-4.6-2.9-25.4-15.7-29.5-18.3,0,0-3-1.8-3-1.8,0,0-1.5-.9-1.5-.9-2.3-1.5-5.2-1.7-7.8-.8-6.5,2.6-9.8,9.4-14.6,14.1-9.5,10.3-21.1,18.6-34.2,23.8-19.5,7.6-41.9,10.1-61.8,2.6-11.1-4.1-20.7-11.3-28.6-20-3.1-3.6-6.4-7.3-7.9-11.9,0,0-1.4-4-1.4-4,7.9,6.1,16.5,11.4,26.1,14.5,20.4,6.5,43.9,4.6,62-7.1,.9-.6,1.8-1.2,2.7-1.8,.7-.5,1.9-1.2,2.4-1.8,1.3-1.4,2-3.5,3.2-5.5l.5,1.4c-2.8-.9-4.8-2.7-7.5-2.4,0,0-1.7,.2-1.7,.2-30.6,4.2-53.9,14.1-81.1-7.6-1.7-1.4-3.5-3-5.1-4.5,0,0-1.2-1.2-1.2-1.2-2.1-2-2.9-5.1-3-8,.1-3.4,1-6.8,1.7-10.1,5.3-21.8,17.3-43,37.1-54.6,23.8-14.6,53.4-11.6,79.1-4,26.1,7.6,50,22.2,69.1,41.4,9.7,9.5,17.5,21.2,21.9,34,4.6,14.9-3.4,26.7-16,34.1h0Z"/><path d="M526.9,338.7c-1.9,.6-5.1,1.7-7.1,2.5-2.4,.8-4.8,1.7-7.5,1.6-5.1-.5-10-1.6-14.9-3.1-4.8-1.6-9.6-3.2-14.1-5.6-4.5-2.4-8.7-5.2-13-7.7,0,0,1.1-.1,1.1-.1-8.5,7.8-17.8,14.8-27.8,20.6-9.9,5.9-20.5,10.7-31.4,14.5-10.9,3.7-22.1,6.9-33.5,8.3-11.5,1.4-23.7-.9-33-8,0,0,.7-.4,.7-.4-.1,14-1.6,28.2,1.2,42,2.6,13.7,8.9,26.8,18.3,37,12.8,13.5,30.1,21,48.4,22.9,41.4,4.8,78.2-21.6,83.7-63.5,1.5-8.9,5.9-17.4,13.1-23,4.9-3.9,10.7-6.2,15.4-10.2,12.1-9.3,10.6-17.7,.4-27.9h0Zm0-.2c15.5,14.1,9.1,23.8-6.1,33.9-9.4,4.9-16.9,12.3-19.6,22.8-.9,2.9-1.5,7.2-2,10.3-1.9,10.5-6,20.7-12.2,29.5-15.5,22.2-43.6,33.9-70.3,30.9-12.4-1-24.8-4.6-35.5-10.9-18.9-11.1-30.7-30-34.6-51.4-2.7-13.9-1.1-28.2-1.2-42.2,0,0,0-.8,0-.8,0,0,.7,.5,.7,.5,14.7,10.9,32.6,8.5,49.1,3.6,27.5-7.6,53.8-20.4,75-39.7,0,0,.5-.4,.5-.4l.6,.3c4.4,2.6,8.5,5.5,12.8,7.9,4.3,2.4,9.1,4.2,13.8,5.8,4.7,1.6,9.6,2.9,14.5,3.5,5,.1,9.6-2.5,14.6-3.5h0Z"/><path d="M802.2,802s-.2-3.8-.2-3.8c0,0,.1,.1,.1,.1-3.1-1-6.1-2.4-9.2-3.4-3.1-1.2-6.3-1.4-9.6-1.6-19.7-1.5-39.3-3.3-59-4.6-52-3.1-182.5,1-236.5,.8-85.1,.7-214.4,2.5-298.2,1-3.8,0-7.8,2.2-9.6,5.5-1.6,4.2-1,9.9,3.4,12.2,2.7,1.7,5.9,2.2,9.1,1.9,9.8-.3,19.7-1.8,29.5-1.7,36,.4,72.5,.9,108.4,1.5,136.3,2.5,277.6,3.3,413.9,1.9,13.1-.6,26.1-2.5,39.2-4.2,0,0,4.9-.6,4.9-.6,1.6-.2,3.2-.7,4.7-1.2,3.1-1,6.1-2.6,9.1-3.6h0Zm.2,.1c-3,1.2-6.1,2.7-9.2,3.8-2.5,1.1-6.9,1.6-9.7,2-13,1.9-26,4-39.2,4.7-169.6,4-342.8,1.3-512.5-2.5-4.7-.1-14.7-.3-19.6,.1-6.5,.4-13.1,1.1-19.7,1.2-3.4,.3-6.9-.3-9.9-2.2-1.4-.9-2.9-2.1-3.7-3.8-2.1-4.7-1.3-11.3,3.4-14,2.1-1.4,4.7-2.4,7.3-2.3,0,0,2.5,0,2.5,0,12.5,0,46,.8,59.1,1,50,.7,107.5-.7,157.7-1.4,88-1.6,188.1-2.9,276-3,32.9,0,65.6,4,98.3,6.9,3.3,.2,6.6,.6,9.7,1.8,3.2,1.1,6.2,2.5,9.3,3.6,0,0,0,.1,0,.1,0,0,0,4,0,4h0Z"/><path d="M758.9,656c-23.8,.5-52.8,.9-76.5,1-8.4,0-16.8,0-25.3-.1l.9-.9c-.3,17.7-.9,35.4-.5,53.1,0,8.9,1.1,17.6,3.8,26.1,2.3,8.3,6.1,16.7,12.9,22.3,3.3,2.8,7.3,4.7,11.4,5.9,6.9,2.2,14.2,3.3,21.5,3.4,27.4,.2,43.5-12.6,46.3-40.2,2.9-22.9,3.5-47.4,5.5-70.5h0Zm.2-.2c-.7,23-.9,48-3.4,70.9-.7,8.2-2.8,16.5-7.1,23.6-5.1,8.6-14,14.6-23.7,16.7-11.7,2.7-24,2.5-35.6-.6-5.8-1.5-11.7-3.7-16.2-7.7-6.9-6-10.6-14.7-12.7-23.3-2.4-8.6-3.6-17.4-3.5-26.3-.3-12-.5-40.8-.6-53.1,0,0,0-.9,0-.9,0,0,1,0,1,0,32.9-.4,69,.3,102,.9h0Z"/><path d="M779.7,655.8c.6,9.7,.9,18.7,1,27.8,.1,9.3-.6,18.6-.7,27.9,0,0-.4-.4-.4-.4,3.7-.3,7.5-.6,11.1-1.1,5.7-.5,10.4-3.3,10-9.6,0-11,.6-22.3-.9-33.3-1.7-11.9-9.9-12.5-20.1-11.3h0Zm-.2-.2c15.2-4.2,22.3,1.1,23.4,16.7,.9,9.3,.3,18.8-.2,28.1,0,7.1-5.4,10.4-11.9,10.5-3.9,.4-7.7,.5-11.6,.9,0-4.8-.3-9.6-.4-14.4-.6-13.8,0-28.6,.7-41.9h0Z"/><path d="M233,745.1c-9.5,.4-20.2-.5-21.4,11.7-.3,3.2,0,6.4,.7,9.5,0,0-.5-.5-.5-.5,6.9-.5,14.4-.7,21.3-.7,0,0-1.3,1.3-1.3,1.3,0-6.9,.6-14.3,1.2-21.3h0Zm.2-.2c.7,7.5,1.2,15.1,1.2,22.8-3.6,0-8.3-.1-12-.2-3.3,0-7.8-.4-11.2-.6-.2-6.3-2.2-14.7,2.5-19.8,5-4.8,13.2-3.7,19.4-2.2h0Z"/><path d="M433.7,488.5c-5.7,.2-11.2,.2-16.8,0-5.4,0-10.6-1-16-1.5,0,0,.4-.4,.4-.4-.1,4,0,8.1,.3,12.1,0,0-.7-.7-.7-.7,2.7-.2,5.5-.3,8.2-.4,2.7,0,9.7-.2,12.3-.2,4,0,8.4,.2,12.3,.4,0,0-.9,.9-.9,.9,.2-2.8,.6-7.3,.8-10.3h0Zm.2-.2c.3,3.5,.8,7.8,.9,11.3-4.3,.2-9,.4-13.3,.4-6.6,0-14.7-.2-21.3-.6,.3-4.4,.5-8.8,.4-13.2,0,0,.4,0,.4,0,10.9-.2,22.1,.3,32.9,2.1h0Z"/><path d="M314.8,342.9c0,2.9-.2,5.8-.2,8.7,.1,8.6,.7,18,6.9,24.5,0,0-1.1,.3-1.1,.3,.2-7-.6-14,.2-21,1.2-6.7,0-9.1-5.8-12.5h0Zm-.1-.2c9.1,2.1,9.1,7.3,8.3,15.2-.4,6.2-.2,12.5-1.4,18.6,0,0-.3,1.5-.3,1.5,0,0-.8-1.2-.8-1.2-3.2-5.1-6.2-10.4-7.5-16.3-1.1-5.9-.3-12.2,1.7-17.9h0Z"/></g></g><g><path d="M706.8,563.8c2.6-8.5,4.7-17.3,7.9-25.6,4.5-11.7,8.6-23.3,8-36.2-.3-6.4,4.4-8.8,10.3-5.8,8.1,4,13.3,13.6,11.1,23.3-2,8.9-5.1,17.8-8.6,26.2-6,14.4-6.5,28,2.2,41.7,1.6,2.5,1.2,8.4-.7,10.3-1.9,2-7.6,2.4-10.4,1.1-14.3-6.9-18.3-19.8-19.7-35Z"/><path d="M706.7,563.8c1.1-4.3,2.5-10.5,3.7-14.7,3.8-14.5,11-28.3,11.3-43.6,.2-2.6-.4-5.3,.8-7.8,4.8-8.4,16.1,.3,19.3,6,2.7,4.4,3.8,9.7,3,14.8-1,5-2.3,9.9-3.8,14.8-1.5,4.8-3.3,9.6-5.1,14.3-2.6,7-4.1,14.4-3.4,21.8,.6,4.9,2,9.6,4.3,13.9,.7,1.5,1.6,2.7,2.4,4.2,1,2.3,1,4.9,.5,7.3-.3,1.3-.7,2.8-2,4.1-2.9,2.3-6.8,2.4-10.2,1.6-1.8-.5-3.8-1.8-5.3-2.8-11.3-7.2-15-21.1-15.4-33.8h0Zm.2,0c1.3,9.7,3.6,20.1,10.7,27.3,2.9,3,6.5,5.6,10.4,7,2.6,.5,5.8,.4,7.9-1.2,1.6-1.9,1.6-5.4,1-7.7-.6-1.7-1.8-3.1-2.5-4.8-6.3-11.6-5.6-25.8-.4-37.6,3.9-9.1,7.8-18.8,9.9-28.5,1.4-7.3-1.8-15.3-7.8-19.7-4.6-3.7-12.9-5.3-12.5,3,.5,6.4-.3,12.9-1.9,19.1-1.9,7.4-4.9,14.4-7.6,21.5-2.5,6.8-4.7,14.7-7.2,21.5h0Z"/></g><g><path d="M691.4,540c-1.7,7.2-2.7,14.5-5.1,21.5-4,11.6-3.6,22.6,1.7,33.7,1.1,2.3,1.6,6.6,.3,7.8-1.5,1.5-5.6,1.6-8,.8-15.6-5.2-24.6-22.2-19.5-38,4.2-13.2,7.1-26.2,5.5-40.2-.8-7.5,6.5-11.7,13.3-8.2,9.1,4.7,11.1,13,11.8,22.6Z"/><path d="M691.6,540c-1.1,6.2-2,13.1-3.7,19.2-4.2,12.2-4.4,23.8,.9,35.7,.7,1.6,1,3.3,1,5.1,0,1.3,0,2.6-1.1,3.6-2,1.6-4.4,1.4-6.7,1.2-1.6-.2-3.2-1.1-4.7-1.6,0,0-1.5-.8-1.5-.8-11.8-6.1-19.2-19.9-16.9-33.1,.8-4.3,2.3-8.4,3.3-12.6,2.1-8.3,3.3-16.8,3.1-25.3,0-2.1-.3-4.4-.4-6.5-.2-3.7,2.1-7.5,5.5-8.9,5.7-2.4,11.7,1.2,15.4,5.5,4.4,5.2,5.4,12.1,5.6,18.7h0Zm-.2,0c-.8-6.3-2.1-12.9-6.5-17.6-2.8-2.7-6.6-5.4-10.6-5.1-3.9,.1-7,3.5-6.7,7.4,.1,2.1,.4,4.3,.5,6.5,.6,13.3-3.4,25.9-7.1,38.4-2.7,12.5,3.7,26.4,15.3,32.1,0,0,1.4,.7,1.4,.7,.8,.3,2.1,.8,3,1.1,2.3,.6,5.4,.6,7.2-.9,1.1-1.8,.2-5-.6-6.9-6.2-11.8-5.7-24.7-.9-36.9,2-6.2,3.2-12.6,5-18.8h0Z"/></g><path class="cls-2" d="M506.1,322.2c-11.3-7.2-22.4-14.3-33.5-21.3-5.3-3.3-11.3-1.2-17.1,6.1-14.6,18.2-33,30.5-55.9,35.3-31,6.4-57.4-1.2-77.4-26.9-1.5-1.9-2.7-4.1-3.6-6.6,11.6,8.7,24.4,14,38.7,15.4,18.9,1.9,36.4-2.2,51.8-13.7,1.9-1.4,2.8-4.3,4.1-6.5-2.6-.9-5.3-2.8-7.7-2.4-11.9,1.7-23.7,4.2-35.6,5.9-21,2.9-38.9-3.6-53.6-18.7-1.9-2-2.9-6.2-2.4-9.1,.9-6.4,2.6-12.7,4.8-18.8,13.3-38.3,44.7-58,85-52.8,38.6,5,71.8,21.4,98.8,49.3,7.4,7.6,13.6,17.2,17.9,27,6.7,15.4,1.3,28.4-14,37.8Z"/><path class="cls-2" d="M802.3,802.1c-4.8,1.7-9.4,4.4-14.3,5-17,2.2-34.1,5.2-51.2,5.3-81.7,.8-163.4,1.5-245.1,.8-89.8-.7-179.7-2.9-269.5-4.1-10.9-.2-21.7,1.7-32.6,1.7-3.3,0-8-2.2-9.7-4.8-1.7-2.7-1.9-8-.3-10.8,1.6-2.8,6.2-5.3,9.4-5.3,33.6,0,67.2,1.3,100.9,1,131.6-1.3,263.2-3.6,394.9-4.2,34-.2,68,4.1,102,6.7,5.2,.4,10.2,3.2,15.3,4.9,0,1.3,0,2.6,.1,3.9Z"/><path class="cls-2" d="M233.1,745v21.4h-21.3c-2.7-18.2,2.5-23.5,21.3-21.4Z"/><path class="cls-2" d="M433.8,488.4v10.3h-32.8v-12.1c10.9,.6,21.6,1.2,32.8,1.8Z"/><path class="cls-2" d="M314.8,342.7c5.9,2.3,8.1,5.1,7.3,11.2-.9,7.4-.2,15-1.1,22.5-7.8-10.1-8.7-21.2-6.3-33.7Z"/><g><path d="M362.9,638.7c.7-16.2,10.4-33.2,30.1-44.3,1.8-1,4.1-2.7,4.5-4.4,2.3-9.4,9.2-14,17.6-13.9,9.5,.1,19.8,1,28.3,4.8,43.3,19.1,47,75.1,7.3,103.7-25,18-54.6,16.6-73.9-3.7-9.6-10-14.1-22.1-13.8-42.2Zm92.5-3.1c.1-19.3-18.8-35.7-41.8-36.2-14.4-.3-32.2,22.5-32.5,41.5-.3,19.1,13.9,33.4,33.3,33.5,20.3,.1,40.9-19.4,41.1-38.8Z"/><g><path d="M362.8,638.7c.7-16.2,10-30.9,22.8-40.5,1.8-1.3,4.1-2.9,6.1-4.1,1.8-1.2,4-2.2,4.8-4.2,0,0,.4-1.3,.4-1.3,1.6-5.9,6.1-11.1,12.1-12.8,3.9-1.2,7.9-.8,11.8-.6,7.7,.5,15.6,1.7,22.8,5,14.1,6.4,26,18.1,31.5,32.7,11.9,31.2-4.6,64-33.4,78.7-13.9,7.2-31,9.3-45.7,3.4-14.5-5.7-26.7-18.1-30.7-33.3-2-7.5-2.5-15.3-2.4-23h0Zm.2,0c-.4,15.2,3.2,31.4,14.7,42,24.3,24.2,61.2,17.1,83.1-6.7,13.7-14.5,20.2-35.9,15.2-55.4-6.4-25.2-29.7-41.4-55.3-41.4-3.7,0-7.5-.5-11.1,.6-5.3,1.5-9.3,6-10.7,11.3-.6,3.4-3.6,5.1-6.3,6.6-1.9,1.1-4.2,2.5-6.1,3.8-12.9,8.9-22.9,23.2-23.5,39.2h0Z"/><path d="M455.3,635.6c0-21.5-22.8-34.9-42.4-35.2-12.7,.7-23.2,14.2-27.8,25.1-5.8,13-4,29.5,6.9,39.3,10.5,9.7,26.9,10.7,39.3,4.1,12.5-6.4,23.7-18.6,24-33.3h0Zm.2,0c-.1,9.8-4.9,19.1-11.5,26.3-10.1,11-26,17-40.7,12.1-21.1-6.9-28-29.6-18.9-48.9,5-11,15.5-25.5,28.5-26.6,20.8-.8,42.8,15.1,42.7,37.1h0Z"/></g></g><g><path d="M259.4,582.6c2.3-19.3,10.3-33.5,26.1-42.6,2.4-1.4,5.1-2.4,7.8-2.8,5.7-.9,11.5-.7,14.4,5.4,2.8,5.8-1.2,9.6-5.1,13-2.8,2.5-6.3,4.3-8.5,7.1-4.4,5.7-8.5,11.8-12,18.1-2.1,3.8-2.4,8.5-4.6,12.3-1.4,2.5-4.6,5.2-7.1,5.3-2.5,.1-6.1-2.3-7.5-4.7-2.1-3.6-2.7-8.2-3.6-11.1Z"/><path d="M259.2,582.6c.9-18.4,9.6-35.2,26.5-43.5,5.8-2.8,15.5-4.5,20.4,.5,2.5,2.7,4.1,6.7,2.4,10.2-2.7,5.8-8.8,8.7-13,13.1-4.2,5.4-8,11.4-11.5,17.3-2.9,4.3-2.9,10.1-6.2,14.5-1.8,2.2-4.1,4.3-7.2,4.6-3.5,0-6.4-2.4-8.2-5.2-2-3.6-2.3-7.7-3.2-11.6h0Zm.2,0c1.3,3.6,2,7.6,4.1,10.9,1.5,2.1,4.5,4.1,6.9,4,2.1-.3,4.2-2.3,5.5-4.1,2.6-3.9,2.6-9,5.1-13.4,1.5-2.6,3.2-5.4,4.9-7.9,3.1-4.3,5.9-9.1,9.9-12.6,4.5-3.7,13.6-8.2,12-15-2.3-9.7-14.8-8.3-21.5-4.2-15.8,9.6-23.8,24.5-26.9,42.3h0Z"/></g><g><path d="M555.5,710c-.8,12.9-3.9,22.9-11.4,31.1-4.8,5.3-11.2,6.3-15.5,3.2-4.5-3.2-5-10-2.3-16.4,4-9.7,7-19.9,11-29.6,1.2-3,4.5-7.1,6.7-7.1,2.9,0,7,3.1,8.4,6,2.2,4.4,2.5,9.7,3.1,12.8Z"/><path d="M555.7,710c.2,11.3-2.6,23.4-10.7,31.7-2.1,2.1-4.6,3.8-7.5,4.5-10.9,2.3-15.4-7.8-12.4-17,.7-2.4,2-5.6,2.7-8,0,0,2.7-8,2.7-8,1.8-5.3,3.5-10.7,5.8-16,.7-1.4,1.5-2.6,2.4-3.8,1.2-1.4,2.8-3.2,5-3.5,2.8,0,5.3,1.7,7.2,3.6,4.2,4.3,4,10.8,4.8,16.4h0Zm-.2,0c-1.7-6.2-2.2-14.3-9.1-17.1-1-.4-2-.9-3.1-.4-2,1.2-3.7,3.7-4.7,5.8-4.2,10.2-7.6,21.1-12.3,31.3-1.4,3.8-1.9,8.3,.2,11.8,2.1,3.6,6.8,4.9,10.6,3.4,2.5-.9,4.7-2.6,6.4-4.6,7.5-8.4,10.4-19.4,11.9-30.3h0Z"/></g><g><path d="M333.5,530.6c6,0,10.5,4.6,10.4,10.7,0,6.1-5.1,10.9-11.2,10.7-6-.2-10.2-5-10-11,.2-5.8,5-10.4,10.9-10.4Z"/><path d="M333.5,530.5c10.9-.2,15.3,11.5,7.4,18.8-7.6,7.1-19.8,2.7-19.6-8.1,0-6.5,6.1-10.9,12.2-10.7h0Zm0,.2c-8.3,0-12.5,11.5-7.2,17.3,6.1,6.6,17.2,2.8,16.5-6.6,0-5.2-3.7-10.8-9.4-10.7h0Z"/></g><g><path d="M510.5,736.2c2.9,4.2,5.9,6.6,5.6,8.5-.4,2.4-3.3,4.4-5.2,6.6-1.9-1.9-5.2-3.7-5.3-5.7-.2-2.3,2.4-4.8,5-9.3Z"/><path d="M510.5,736c.6,.4,1.4,1.1,1.9,1.6,1.8,1.9,4.5,3.7,4.6,6.6,0,.7-.4,1.5-.9,2-1.5,1.9-3.6,3.3-4.8,5.3,0,0-.3,.5-.3,.5l-.7-.5c-2.2-1.6-5.9-3.1-6.2-6.4,.1-3.2,2.7-5.3,4.5-7.5,.5-.5,1.2-1.3,1.7-1.8h0Zm0,.2c-.3,1.5-1,3-1.7,4.4-.8,1.8-2,3.2-1.9,4.9,.8,2,3.1,3.2,4.5,5.2,0,0-1,0-1,0,1.2-1.1,2.5-2,3.5-3.2,.7-.9,1.4-2.1,1.3-3.2-1.3-2.7-3.9-5-4.6-8.1h0Z"/></g><path class="cls-2" d="M455.4,635.6c-.2,19.4-20.8,38.9-41.1,38.8-19.4-.1-33.5-14.4-33.3-33.5,.3-19,18.1-41.8,32.5-41.5,23,.4,42,16.9,41.8,36.2Z"/></g></g></svg>