<?xml version="1.0" encoding="UTF-8"?><svg id="Layer_1" xmlns="http://www.w3.org/2000/svg" viewBox="0 0 1024 1024"><defs><style>.cls-1{fill:#ebebec;}.cls-2{fill:#f1f2f2;}.cls-3{fill:#edc022;}</style></defs><polygon class="cls-1" points="7.9 -.2 77.6 1023.9 919.4 1023.9 988.1 -.2 7.9 -.2"/><polygon class="cls-3" points="177.6 386.6 585.4 238.2 608.8 275.8 761.2 767.9 366 906.4 169.2 405.2 177.6 386.6"/><g id="DzXG34"><g><g><path d="M533.3,216.5c20.8-7.8,40.9-15.3,61-22.9,2.8-1.1,5.7-2.1,8.6-3.1,6.3-2.2,11.5-1.8,14.2,5.5,.6,1.5,2.1,3,3.5,3.8,8.8,5.3,12.8,13.5,15.9,23,52.4,161.9,105,323.8,157.7,485.6,2.1,6.5,3.5,12-2,17.3-.4,.3-.8,.9-.8,1.3,.5,13.7-10.8,14.1-19.4,17-106.7,36.9-213.5,73.6-320.2,110.5-19.6,6.8-38.8,14.7-58.2,22.2-14.6,5.6-15.2,5.5-20.7-8.8-29.5-76.8-58.9-153.7-88.4-230.6-35.9-93.6-71.9-187.3-107.8-280.9-4.3-11.3-4-12.4,5.4-19.8,94.8-74.8,198.9-133.9,309.1-182.6,6.2-2.7,9.6-1,15.1,3.2,16.6,12.6,16.4,32.2,23.4,48.8,1.3,3.2,2.3,6.6,3.6,10.4ZM196.2,358.2c63.8,166.5,127.9,333.9,191.4,499.8,128.3-44.6,255.5-88.9,383.1-133.3-55.7-171.2-111.7-343.1-167.7-515-135.6,49.5-270.7,98.8-406.8,148.5ZM493.5,172.2c-96.4,42.9-186.4,93.3-269.9,154.9,.3,.6,.6,1.2,.9,1.9,94.6-34.3,189.3-68.7,284.4-103.2-5.3-18.3-10.3-35.5-15.5-53.6Z"/><g><path d="M533.3,216.4c7.9-2.6,67-26.1,74.1-27.2,2.8-.4,5.9,.5,7.6,2.8,.9,1.1,1.6,2.3,2.1,3.7,.9,2.8,3.7,3.9,5.8,5.5,4.6,3.3,8,7.9,10.4,12.9,2.6,3,43.7,134.2,46.8,142.1,22.3,68.6,91.9,282.5,113,347.9,2,6.4,5.6,14.1,.8,20.1-.6,1-1.8,1.6-2.2,2.7,.5,11-6.9,14-16.4,16.3-4.4,1.4-11.3,3.7-15.7,5.3-96.1,33.1-218.4,75.2-314.3,108.6-17.8,6.5-36.6,14.1-54.3,20.9-5.2,1.6-11.4,5.3-14.8-1.9-58.8-149.9-141.4-368.9-199.9-520-1.3-3.9-3.7-8.3-1.8-12.4,2.1-3.8,5.9-6.1,9.1-8.7,3.3-2.6,9.9-7.6,13.2-10.2,55-42,113.8-79.4,174.7-112.4,28.9-15.6,59.4-30.9,89.2-44.7,8.8-4.2,21.3-9.6,30.3-13.7,2.5-1.2,5.4-2,8.2-1.3,2.7,.7,5,2.4,7.3,4.1,4.5,3.3,8.2,7.6,10.9,12.5,5.6,9.7,7.3,20.9,10.8,31.4,1.9,5.2,3.9,10.4,5.5,15.7h0Zm0,0c-1.7-5.4-3.6-10.4-5.6-15.7-3.6-10.5-5.3-21.6-10.9-31.3-2.7-4.8-6.4-9.1-10.9-12.3-2.2-1.6-4.5-3.3-7.2-4-2.7-.7-5.5,0-7.9,1.3-9.1,4-21.4,9.7-30.2,13.8-29.8,13.8-60.2,29.2-89.1,44.8-60.8,33.1-119.5,70.5-174.4,112.6-5.9,4.7-13.9,10.4-19.5,15.4-5.1,4.3-2.5,9.3-.6,14.7,58.6,151.4,141.1,369.7,199.6,520,.7,1.2,1.4,2.4,2.4,3.2,2.3,1.6,5.3,.6,7.7-.1,1.8-.5,9.6-3.5,11.7-4.3,25.6-10.3,51.9-20,78-28.8,83.7-28.9,199.5-68.7,282.9-97.7,4.3-1.5,11.4-4,15.8-5.3,8.8-2.3,16.6-4.8,16-15.9,0-.6,.6-1.1,.9-1.5,6.5-5.9,2.7-14,.5-21-20.9-64-91.1-280.4-113-347.9-2.8-8.2-44.4-138.8-46.6-142.2-2.4-5-5.7-9.5-10.2-12.8-2.2-1.6-5-2.9-5.9-5.7-.9-2.5-2.6-5-5.3-5.9-2.6-.9-5.4-.3-8,.5-.7,.2-67,24.7-70.2,26h0Z"/><path d="M196.2,358.3c32,83.2,113.1,294.4,144,374.7-.2-.4,48.7,126.3,47.3,124.7,0,0,191.6-66.5,191.6-66.5-.3,.1,192.6-67.5,191.3-66.4,0,0-167.9-514.9-167.9-514.9,3.5-.4-407.1,148.7-406.3,148.4h0Zm0,0c.4-.2,406.8-148.9,407.2-149.1,.3,.2,167.4,515.3,167.6,515.6,.5,.6-191.6,66.5-191.7,66.9-.3,.1-191.5,66.8-191.8,66.9,0,0-.1-.3-.1-.3-53.9-139.5-137.1-358.7-191.2-499.9h0Z"/><path d="M493.5,172.3c-82.6,37.4-163.3,80.8-238.1,132.3-7.9,5.5-23.9,17-31.7,22.7,0,0,0-.3,0-.3l.9,1.9h-.3c63.3-23.3,149.9-54.8,213.2-77.8,0,0,71.2-25.6,71.2-25.6,0,1.7-15.5-53.6-15.4-53.2h0Zm0,0c0,.3,15.7,53.5,15.8,53.8,.1,0-71.3,26.1-71.3,26.1-63.3,23-150,54.4-213.4,77.2,0,0-.2,0-.2,0v-.2c0,0-1-1.9-1-1.9v-.2c0,0,0-.1,0-.1l15.8-11.4c79.2-56.6,165-104.5,254.2-143.4h0Z"/></g></g><g><path d="M415.7,768.1c-2-2.2-6.4-4.8-6.5-7.7-.1-3.3,2.7-8.3,5.6-9.8,6.9-3.5,14.7-5.3,22.1-7.8,85.9-29.1,170.3-62,253.3-98.7,1.2-.5,2.3-1,3.5-1.5,5.5-2.7,10.2-1.8,12.8,3.8,2.6,5.7-.2,9.8-5.6,12.2-14.4,6.3-28.7,12.6-43.2,18.7-76.7,32.6-154.6,61.9-233.6,88.3-2.2,.7-4.4,1.3-8.5,2.5Z"/><path d="M415.7,768.2c-4.2-4.2-8.9-5.8-5.3-12.7,.8-1.5,1.8-3,3.1-4.1,1.4-1.1,3-1.7,4.6-2.4,4.7-2,9.7-3.5,14.6-5,71.3-24.2,141.8-50.9,211.3-80,14.6-6.2,35-15.1,49.5-21.5,2.3-1.1,5-2,7.6-1.4,4.4,1.1,7,6,6.7,10.3-.3,2.7-2.2,5-4.4,6.3-2.4,1.5-6.7,3.1-9.4,4.3-90.8,40-183.7,76.3-278.3,106.2h0Zm0,0c25.7-8,52.3-17.8,77.6-26.8,64.3-23.4,128.2-48.5,190.9-75.9,2.5-1.1,11.6-5,14.2-6.1,3.8-1.5,8.2-3.6,8.7-8,.2-2.5-.8-5-2.2-7-2.3-3.3-6.7-3.5-10.1-2-7.7,3.4-23.9,10.4-31.8,13.8-75.5,32.4-152.1,62.5-230.2,88.3-4.9,1.5-9.8,2.9-14.6,4.9-1.5,.7-3.2,1.3-4.5,2.3-1.3,1.1-2.3,2.5-3.1,4-3.5,6.7,.8,8.2,5.1,12.5h0Z"/></g></g></g><path class="cls-2" d="M392.4,603.8c38.2,.8,74.8-14.1,110.1-28.7,20.7-8.6,41.5-17.1,62.2-25.7,13.3-5.5,26.8-11.1,37.6-20.6,2-1.8,4-3.8,4.7-6.3,.7-2.6,0-5.4-.7-8-10.4-37.6-22-75-34.8-111.9-1.7-4.8-35-75.3-33.5-75.9-27.4,10.6-51.4,27.3-80.7,34.6-28.4,7.1-57.4,12-85.5,20.4-18.3,5.5-56.2,12.2-52.4,36.3,1.7,11,9.7,23.3,13.1,34.1,5.1,16.2,10.3,32.5,16,48.5,12.6,35.1,27.3,69.6,43.9,103Z"/><path d="M395.7,608.5c-.2,0-.3,0-.6-.2-1.1-.7-2.3-1.8-2.7-3.3-.4-1.5,.2-3.4,2.6-5.4,0,0,.5-.3,.7-.4h3.7s3.7-.2,3.7-.2c1.2,0,2.4-.1,3.7-.2l3.7-.4,2.5-.2,5.9-.8c2-.2,3.9-.7,5.9-1,2-.3,3.9-.8,5.8-1.2,7.8-1.7,15.5-3.8,23.1-6.3,15.2-4.9,30.2-10.9,45.2-17.1l45-18.6,22.5-9.3c7.4-3.1,14.7-6.3,21.4-10.2,3.3-2,6.5-4.1,9.5-6.5l2.2-1.8c.7-.6,1.3-1.2,1.8-1.7,.5-.5,.9-1.1,1.1-1.5,.2-.5,.3-.8,.4-1.3,.1-1-.1-2.5-.6-4.3l-1.6-5.8-3.3-11.7c-4.5-15.6-9.2-31.1-14-46.6-4.9-15.5-9.9-30.9-15.2-46.2l-.5-1.4c-.2-.6-.2-.7-.4-1.2l-1.2-2.7-2.5-5.5-5.1-11.1-10.2-22.2c-3.4-7.4-6.7-14.8-10-22.3-.8-1.9-1.6-3.8-2.4-5.7l-.5-1.2h-.1s-.2,.1-.2,.1l-.8,.3c-1.8,.8-3.7,1.6-5.5,2.4-14.6,6.6-28.8,14.5-44,21.1-7.6,3.3-15.5,6.2-23.6,8.3-2,.6-4,1.1-6,1.5l-6,1.4-11.9,2.7c-15.9,3.5-31.8,6.8-47.4,10.8h-.1s-3.3,.9-3.3,.9c-1.8,.5-3.5,.9-5.2,1.4-1.7,.5-3.5,1-5.2,1.5l-5.3,1.5-5.3,1.5c-7,1.9-14,3.8-20.5,6.4-3.2,1.3-6.4,2.7-9.3,4.4-2.9,1.7-5.5,3.6-7.5,5.8-1,1.1-1.8,2.3-2.5,3.5-.6,1.2-1.1,2.5-1.3,3.8-.2,1.3-.3,2.7-.1,4.2,0,.4,0,.7,.1,1.1l.2,1.2c.1,.8,.4,1.6,.6,2.4,1.8,6.4,5.1,12.8,8.1,19.6,1.5,3.4,3.1,7,4.2,10.7l3.3,10.5c4.4,13.9,9,27.7,14,41.4,5,13.7,10.3,27.2,15.9,40.7,1.4,3.4,2.8,6.7,4.3,10.1l4,9.1,.7,1.6,2.8,6.2s1.2,3.3,2.9,7.8c1.6,4.5,3.6,10.2,5.2,15,5.6,16,.8,10.9-4.8,1.9,.1,.5-3-4.9-6.1-10.6-3.1-5.6-6.1-11.5-6.1-11.5l-2.7-6-4.3-9.8c-2.8-6.4-5.5-12.9-8.1-19.4-5.3-13-10.3-26.1-15-39.4-4.7-13.3-9-26.6-13.2-40l-1.6-5c-.3-.8-.5-1.5-.8-2.3-.3-.8-.6-1.5-.9-2.3-1.2-3.1-2.7-6.2-4.1-9.4-1.5-3.2-3-6.4-4.3-9.8-1.3-3.4-2.5-7-3.2-11-.8-4-.4-8.7,1.2-12.8,1.6-4.1,4.4-7.5,7.4-10.2,6.1-5.3,13-8.3,19.8-10.9,6.8-2.5,13.7-4.4,20.4-6.2l5-1.4,5-1.5c3.4-1,6.8-1.9,10.2-2.8l3.3-.9h.1c15.9-4.1,31.8-7.4,47.7-10.9l11.8-2.7,5.9-1.4c2-.5,3.9-.9,5.8-1.5,7.6-2,15-4.8,22.3-7.9,14.6-6.3,28.8-14.2,43.9-21,1.9-.9,3.8-1.7,5.7-2.5l.7-.3,1.3-.5,2.6-1.1,.7-.3h.3c0-.1,.3-.3,.3-.1l.5,1.3,1,2.7,.5,1.3,.3,.7v.4c0,.2,.1,.2,1-.5l1.9-1.5c.8-.7,1.2-.9,1-.5v.4c.2,.3,.3,.5,.4,.7l.5,1.4,.7,1.6c.8,1.8,1.5,3.7,2.4,5.5,3.2,7.4,6.6,14.8,9.9,22.2l10.1,22.1,5.1,11.1,2.5,5.6c.4,.9,.8,1.9,1.3,2.9,.2,.5,.5,1.3,.6,1.7l.5,1.4c5.3,15.4,10.4,30.9,15.3,46.4,4.9,15.5,9.6,31.1,14.1,46.8l3.3,11.7,1.6,5.9c.5,2.1,1.2,4.6,.9,7.7-.1,1.5-.7,3.2-1.4,4.5-.7,1.4-1.6,2.5-2.4,3.5-.9,1-1.7,1.8-2.6,2.5-.8,.7-1.7,1.4-2.5,2.1-3.4,2.7-7,5.1-10.6,7.3-7.3,4.3-15,7.6-22.5,10.8l-22.5,9.3-45.1,18.6c-15,6.2-30.2,12.3-45.9,17.4-7.8,2.5-15.8,4.7-23.9,6.5-2,.4-4.1,.9-6.1,1.2-2.1,.3-4.1,.8-6.2,1.1-2.1,.3-4.1,.6-6.2,.9l-2.6,.3-3.9,.4c-1.3,.1-2.6,.1-3.9,.2l-3.9,.2h-3.9Z"/></svg>