<?xml version="1.0" encoding="UTF-8"?><svg id="Layer_1" xmlns="http://www.w3.org/2000/svg" viewBox="0 0 1024 1024"><defs><style>.cls-1{fill:#ebebec;}.cls-2{fill:#fff;}.cls-3{fill:#ee8d24;}</style></defs><polygon class="cls-1" points="40.8 13.5 1016.9 23.2 939.9 1010.5 7.1 936.7 40.8 13.5"/><g id="gRvCK6"><g><path class="cls-3" d="M660.9,723.5h-19.3c-.4-6.8-.4-13.4-1.2-19.9-2.1-16.8-13.1-26.5-29.9-26.4-37.4,.3-74.7,.7-112.1,1.1-17.8,.2-26.7,8.8-27.7,26.8-.4,6.8-.7,13.6-1.1,20.9h-29.2c-10.4-146.2-12.1-292.4-4.9-439.4,7,0,14.7-.2,22.4,.2,1.3,0,3.2,3.1,3.5,4.9,1.1,7.3,1.1,14.8,2.5,22,2.5,12.9,10.3,19.7,23.4,19.6,29.8-.2,59.5-1,89.3-1.6,9.1-.2,18.2-.5,27.3-.7,15.5-.3,27.3-11.3,28.4-26.9,.4-5.6,0-11.3,0-17.7h29.1c7.1,145.9,7.3,291.2-.6,437.1Zm-183.3-221.2c0,26.2,0,52.3,0,78.5,0,9.5,4,12.6,12.3,8.4,17.8-9.1,35.9-18,52.8-28.7,26.7-16.9,52.5-35.3,78.6-53.1,6-4.1,6-9-.3-12.9-13.3-8.3-26.7-16.5-40.2-24.6-30.1-17.9-60.2-35.8-90.4-53.4-2.6-1.5-6.9-2.9-9-1.8-2.2,1.2-3.6,5.5-3.6,8.5-.3,26.4-.2,52.7-.2,79.1Z"/><g><path d="M532.3,290c65.2,0,130.5,0,195.7,0,28.3,0,49.5,20.5,50.7,49,.1,2.7,.2,5.3,.2,8,0,117.1,0,234.1,0,351.2,0,16.2-3.7,30.8-15,42.8-9.5,10.1-21.4,14.2-35.2,14.2-40.6-.3-81.1-.6-121.7,0-47.2,.7-94.4,2.5-141.6,3.7-36.2,.9-72.4,2-108.6,2.6-10.8,.2-21.7,0-32.3-1.9-28.8-5.2-45.6-23.4-49.9-53.5-1.5-10.7-2.3-21.5-2.5-32.3-1.2-97.1-2.3-194.2-3.2-291.4-.2-17.1,1.5-34,7.3-50.3,9.4-26,33.2-41.9,60.8-41.9,65.1,.1,130.1,0,195.2,0Zm113.4,450.3c7.8-145.8,7.7-291.2,.6-437.1h-29.1c0,6.4,.3,12,0,17.7-1.1,15.5-12.9,26.5-28.4,26.9-9.1,.2-18.2,.5-27.3,.7-29.8,.6-59.5,1.4-89.3,1.6-13.1,0-20.8-6.6-23.4-19.6-1.4-7.2-1.4-14.7-2.5-22-.3-1.8-2.2-4.8-3.5-4.9-7.7-.5-15.5-.2-22.4-.2-7.2,146.9-5.5,293.2,4.9,439.4h29.2c.4-7.3,.7-14.1,1.1-20.9,1-18,9.9-26.6,27.7-26.8,37.4-.4,74.7-.8,112.1-1.1,16.8-.1,27.8,9.6,29.9,26.4,.8,6.5,.8,13.1,1.2,19.9h19.3Zm-233.5,2.8c-10.5-146.8-11.9-293-5.1-439.6-1.4,0-2.9-.2-4.4-.2-23.3,0-46.6,.1-70,0-12.1,0-21,5.5-27.6,15.2-6.1,8.8-7.3,18.8-7.3,29.3,0,116.6,0,233.3,0,349.9,0,3.4,0,6.8,.3,10.2,1.5,19.6,15.2,33.5,34.8,34.4,15.1,.7,30.3,.7,45.5,.8,11,.1,21.9,0,33.7,0Zm246.4-1.3c25,0,48.8-.1,72.7,0,10,0,18-3.9,24.4-11.2,8.1-9.4,10.4-20.7,10.4-32.8,0-116.8,0-233.7,0-350.5,0-4.2-.4-8.3-1-12.4-2.9-19.5-16.9-31.6-36.6-31.6-21,0-42.1,0-63.1,0-2,0-4,0-6.1,0,7.5,146.1,7.4,291.3-.5,438.5Zm-191.3,1c49.2-.8,97.1-1.6,145.2-2.4,0-5.3,0-10.2,0-15-.3-12.5-6.8-18.7-19.2-18.6-30.3,.3-60.7,.5-91,.8-8,0-15.9,.4-23.8,.7-5.4,.2-8.5,3.6-9.1,8.6-1,8.4-1.4,16.9-2,26Zm-8.3-439.3c.3,5.8,.6,11.1,1,16.3,.1,1.7,.5,3.4,.8,5.1,1.6,10.1,4.3,12.6,14.6,12.5,11.6-.1,23.1-.6,34.7-.9,26-.6,51.9-1.2,77.9-1.9,9.3-.3,14.8-5.2,15.9-14.5,.6-5.4,.1-10.9,.1-16.6h-145.1Z"/><g><path d="M532.3,289.8c51.6,0,148.1-.5,198.9-.4,0,0,1.8,0,1.8,0,.6,0,1.2,.1,1.8,.2,0,0,3.6,.5,3.6,.5,3.2,.7,7.5,1.7,10.5,3.1,13.7,5.5,24.3,17.7,28.3,31.8,2.9,9,2.5,19.6,2.6,28.9,.4,87.9,0,200.8-.2,289.2,0,19.3,0,38.5-.2,57.9-.3,9.7-2.2,19.5-6.7,28.1-6.7,13-19.2,23.1-33.8,25.3-9,1.6-33.8,.3-43.4,.5-104.7-1.1-213.3,4.4-318.1,6.6-22.6,.3-46.9,2.9-68.4-5.7-19.6-8.1-30.4-24.2-34.6-44.6-4.5-23.5-3.4-51.9-3.9-75.9-.5-71.6-2.4-188.9-2.6-260.3,.3-14.5,2.3-29.2,7.2-42.9,8.2-23.7,29.6-40.3,54.6-42.6,4-.6,10.4-.3,14.5-.3,44.8,.2,142.1,.5,188,.5h0Zm0,.2c-38.1,0-136.7,.2-173.5,.4-7.8,.2-21-.3-28.8,.5-9.5,.9-18.8,4-26.9,9-25.9,15.3-32.5,47.1-33,75.1,.5,71.2,2.3,188.8,3,260.3,.4,16.7-.2,41.2,1.4,57.7,1.2,14.3,3.5,28.7,11.3,40.8,14.1,21.7,38.7,26.1,62.8,26.2,124.4-1.7,251.6-7.6,375.9-5.6,7.2,.2,14.4-.2,21.3-2.5,16.1-5.3,27.5-20.3,31-36.6,1-4.7,1.5-9.5,1.7-14.3,0-38.4-.4-133.7-.5-173.5-.3-57.3,.3-130.7-.1-188-.5-20.8-12.6-39.6-32.7-46.3-1.7-.8-5-1.3-6.9-1.9-2.2-.3-4.9-.8-7.1-.8-50.4-.6-147.5-.5-198.8-.7h0Z"/><path d="M645.7,740.2c2.9-62.4,4.6-128.6,4.9-191.1,.2-45.3-.3-91.4-1.3-136.6-.9-36.4-2.1-72.8-3.7-109.2,0,0,.7,.7,.7,.7,0,0-29.1-.1-29.1-.1,0,0,.6-.6,.6-.6-.2,8.1,.9,16.6-1.4,24.6-2.3,8-8.4,14.8-16.1,18-2.6,1-5.2,1.8-8,2.1-24.5,1.2-49.1,1-73.7,1.7-5.9,0-35.6,.7-40.9,.8-5.5,.1-11.2,.5-16.3-1.8-8-3.1-12.3-11.7-13.4-19.8-.9-5.4-1.2-10.9-1.8-16.3-.3-2.6-.4-5.3-2.2-7.4-.4-.5-.9-.9-1.2-1-.6,0-1.3,0-2-.1-1.4,0-2.7,0-4.1-.1-5.4-.1-10.9,0-16.4,0,0,0,.7-.6,.7-.6-1.7,36.6-2.8,73.2-3.4,109.8-1.8,109.9,1.2,219.8,8.9,329.4,0,0-1.2-1.1-1.2-1.1,0,0,29.2,0,29.2,0,0,0-1.1,1.1-1.1,1.1,.2-3.4,.8-15.9,1-18.8,.3-13,4.9-25.2,18.7-28.6,.5-.1,1.4-.4,1.9-.4,0,0,1.9-.4,1.9-.4s1.9-.2,1.9-.2c4.4-.5,10.7-.2,15.1-.3,9.5,0,35.4-.2,45.2-.3,15.6,0,41.1-.2,56.5-.3,0,0,1.9,0,1.9,0,0,0,1,0,1,0,0,0,1,.1,1,.1l1.9,.2c16.6,2.4,24.3,15.6,24.8,31.4,.3,5,.4,10,.6,15.1,0,0-.2-.2-.2-.2,0,0,19.2,.1,19.2,.1h0Zm.2,.2s-19.3,.1-19.3,.1c0,0-.2,0-.2,0-.8-9.9,0-20.5-3.9-29.8-3.8-9.5-13.1-15.3-23-16-1-.2-2.7-.1-3.7-.2-15.3,.2-40.9,.5-56.5,.7-13.9,.2-39.1,.5-52.7,.7-9.8-.1-20.1,1.3-25.6,10.4-3.9,6.3-4.1,14.1-4.4,21.4,0,0-.7,15-.7,15,0,0,0,1.1,0,1.1s-1.1,0-1.1,0c0,0-29.2,0-29.2,0,0,0-1.1,0-1.1,0,0,0,0-1.1,0-1.1-7.9-109.7-10.8-219.7-8.4-329.6,.8-36.9,2.2-73.7,4.1-110.5,5.7,0,11.3,0,17,0,2.1,0,4.1,0,6.2,.3,.9,.2,1.4,.8,2,1.4,1.9,2.2,2.1,5.2,2.4,8,.6,5.4,.8,10.9,1.7,16.2,1.1,7.9,5,16.1,12.8,19.1,5,2.2,10.6,1.8,16,1.7,34.6-.5,72-1.2,106.4-2.1,5.4,0,10.9-.3,15.9-2.5,7.5-3.1,13.3-9.7,15.5-17.4,2.3-8.1,1-16.6,1.2-24.9,0,0,.6,0,.6,0,0,0,29.1-.1,29.1-.1,0,0,.7,0,.7,0,7.8,145.5,7.6,292.4-1.2,437.9h0Z"/><path d="M412.2,743c-8.9-109.2-11.9-220.1-9.3-329.6,1.3-35.9,1.5-75.4,4.3-109.5-5.5-.4-14.1-.2-19.7-.2-16.3,.2-38,0-54.2,.1-15.3-.5-27.6,10.6-32.1,24.7-2,6.2-2.4,12.7-2.4,19.3,.1,12.1,.3,84.8,.3,98.6,.2,80,.2,167-.1,246.5,0,5.7-.2,11.4,.5,17.1,2,17.9,15.8,30.8,33.9,31.5,25.8,1.2,52.8,1.1,78.8,1.4h0Zm.2,.2c-11.7,0-28,.3-39.5,.3-13.1,0-26.3,0-39.5-.5-6.6-.3-13.4-2-19-5.7-5.7-3.5-10.3-8.9-13.2-14.9-2.9-6.1-3.9-13-4-19.5-.5-59.2-.3-118.4-.4-177.5,0-48.7,.2-128.9,.4-177.5,0-6.6,.5-13.3,2.6-19.7,4.1-12.6,15-23.8,28.6-25.2,2.8-.4,7-.2,9.9-.2,20,.1,44.2,.1,64.1,.2,1.8,0,3.5,.2,5.3,.3-1.7,36.7-2.8,73.5-3.3,110.3-1.4,109.5,1.3,220.4,8,329.7h0Z"/><path d="M658.7,741.7c13,0,45.7-.4,58.2-.5,0,0,9.6,0,9.6,0,4.8,0,9.6,.1,14.2-1.4,10.7-3.3,18.5-12.9,21.8-23.3,1.9-6.1,2.6-12.5,2.5-18.9-.2-58.2-.3-116.5,.1-174.7,.4-56.8,.5-117.8,.3-174.7,0-8-.8-16.2-3.9-23.6-4.6-11-14.5-18.3-26.2-20.1-5-.8-12.9-.4-18.1-.5-12.4,0-45.4,.2-58.2,.2,0,0,1-1.1,1-1.1,2,36.5,3.4,73.1,4.4,109.6,2.8,109.4,1,219.6-5.9,328.9h0Zm-.2,.2c4.9-109.4,6.3-219.6,3.6-329-.8-36.5-2.2-73.1-4-109.6v-1.1c0,0,1,0,1,0,13,0,45.7,.2,58.2,.2,4.7,0,12.5-.2,17.1,.5,12.6,1.5,23.4,9.5,28.2,21.2,3.1,7.6,3.8,15.9,3.8,24-.4,116.2,1.1,233.3,.5,349.4,.4,16.5-5.7,33.9-21.2,41.8-5.9,3.1-12.8,3.3-19.3,3.1-17.6,0-50.1-.5-68-.6h0Z"/><path d="M467.5,742.7c20.4-.8,52.3-1.7,72.9-2.1,24.1-.5,48,0,72.2-.6,0,0-.4,.4-.4,.4-.1-4.4,.2-14.5-.5-18.7-1.9-12.8-11.6-14.7-22.8-13.9-8.3,.2-16.7,.3-25,.4-23.8,.5-51.4,.3-75.1,.8,0,0-6.2,.1-6.2,.1,0,0-3.1,0-3.1,0-2.9,0-5.9,.8-7.6,3.2-1.2,1.6-1.6,3.5-1.8,5.5-.5,4.1-.9,8.3-1.3,12.4l-.5,6.2c-.1,1.7-.4,4.5-.6,6.1h0Zm-.2,.2c0-3.6,.4-9,.5-12.6,.2-4.2,.4-8.3,.8-12.5,.1-4.5,2.8-9.1,7.4-10,1.8-.5,4.5-.4,6.4-.5,9.7-.4,21.6-1,31.3-1,14-.3,35.9-.3,50.1-.4,8.3,0,16.7,0,25,0,4.2,0,8.6-.2,12.7,1.2,9.4,2.9,12,12,11.5,20.9,0,0,0,12.5,0,12.5,0,0,0,.4,0,.4s-.4,0-.4,0c-12.1,.1-24.2,.4-36.4,.9-34.5,1.3-74.3,1.4-108.8,1.2h0Z"/><path d="M459.2,303.6c.2,2.3,1.2,13.2,1.4,15.2,.3,3,1,6,1.6,9,.8,3.8,2.7,7.5,6.9,8.2,3.8,.8,8,.4,12,.3,8.2-.2,16.4-.6,24.6-.7,24.6-.6,49.2-.3,73.8-1.2,3.4-.2,8.9,0,12.2-.7,9.1-1.7,12.1-9.4,11.9-17.9,0-4-.3-8.1-.3-12.3,0,0,1,1,1,1-46.8,.6-98.1,0-145-.9h0Zm-.2-.2c33.7-.6,75.1-1.3,108.7-1.1,12.5,0,25,0,37.5,.2-.3,8.4,1.5,17.8-3,25.5-5.2,8.3-14.4,6.9-22.8,7.2-8.2,.1-16.4,.3-24.6,.6-26.6,1.1-53.3,2.2-79.9,2.5-7.7,.1-12.7-1.9-14.1-10.2-.5-3.1-1.2-6.1-1.3-9.2-.1-2.1-.4-13.1-.5-15.4h0Z"/></g></g><path class="cls-2" d="M412.2,743.1c-11.7,0-22.7,0-33.7,0-15.2-.2-30.3-.1-45.5-.8-19.6-.9-33.3-14.8-34.8-34.4-.3-3.4-.3-6.8-.3-10.2,0-116.6,0-233.3,0-349.9,0-10.4,1.2-20.4,7.3-29.3,6.6-9.6,15.5-15.2,27.6-15.2,23.3,.2,46.6,0,70,0,1.5,0,3,.2,4.4,.2-6.9,146.6-5.4,292.8,5.1,439.6Zm-60.4-128.8c5.9,0,11.7,0,17.6,0,9.4,0,14.3-5,14.1-14.5-.2-10-.6-20.1-1.1-30.1-.4-8.4-5.4-13.3-13.8-13.4-11.6,0-23.1,0-34.7,.4-8.8,.2-13.7,5.1-13.8,13.9-.2,10.2-.3,20.5-.2,30.7,0,8.2,4.8,12.9,13.1,13,6.2,0,12.5,0,18.7,0Zm-.5,100.1c6.1,0,12.1,0,18.2,0,9.1,0,14.1-5,14-14.1-.2-10.4-.6-20.8-1.1-31.2-.4-7.3-5.2-12.5-12.1-12.6-12.3-.2-24.6-.2-36.9,.3-8.5,.3-13,5.4-13.2,14-.2,10-.2,20.1-.2,30.1,0,8.6,4.7,13.4,13.2,13.5,6.1,0,12.1,0,18.2,0Zm.2-209.5c6.2,0,12.5,0,18.7,0,8-.1,13.2-5.2,13.1-13.2-.1-10.8-.5-21.6-1.1-32.3-.4-7.2-5.3-12.2-12.4-12.3-12.1-.2-24.2-.2-36.3,.2-8.5,.3-13.2,5.3-13.4,13.7-.2,10.2-.3,20.4-.3,30.7,0,8.5,4.9,13.1,13.5,13.2,6.1,0,12.1,0,18.2,0Zm-.1-117.2h0c5.9,0,11.7,0,17.6,0,9.9,0,14.7-4.9,14.4-14.7-.2-10-.6-20.1-1.1-30.1-.4-8.2-5.5-13.1-14-13.1-11.7,0-23.5,.2-35.2,.5-7.9,.2-12.8,5-13,12.8-.3,10.8-.3,21.6-.2,32.4,0,7.3,4.9,12,12.2,12.2,6.4,.2,12.9,0,19.3,0Z"/><path class="cls-2" d="M658.6,741.8c8-147.2,8-292.4,.5-438.5,2.2,0,4.1,0,6.1,0,21,0,42.1,0,63.1,0,19.7,0,33.7,12.1,36.6,31.6,.6,4.1,1,8.3,1,12.4,0,116.8,0,233.7,0,350.5,0,12.1-2.3,23.4-10.4,32.8-6.4,7.4-14.4,11.3-24.4,11.2-23.9-.2-47.7,0-72.7,0Zm57.7-347.1s0,0,0,0c6.3,0,12.5,.1,18.8,0,8.4-.2,13.1-4.9,12.9-13.2-.2-11-.7-22-1.2-33-.3-6.7-4.9-11.7-11.6-11.8-12.9-.2-25.8,0-38.7,.5-7,.3-11.1,4.8-11.5,11.8-.5,11-.7,22-.7,33,0,7.4,5.1,12.4,12.6,12.6,6.4,.2,12.9,0,19.3,0Zm-.2,112.5c6.4,0,12.9,0,19.3,0,7.9-.1,12.8-5,12.6-12.9-.2-11.2-.6-22.3-1.2-33.5-.4-6.9-5.3-11.5-12.2-11.6-12.3-.1-24.6,0-36.9,.2-7.6,.2-12.3,4.9-12.6,12.6-.4,10.8-.7,21.6-.6,32.3,0,7.7,5.3,12.7,13,12.8,6.2,.1,12.5,0,18.7,0Zm.3,109.3c6.4,0,12.9,.1,19.3,0,7.6-.2,12.5-4.9,12.4-12.5-.2-11.3-.6-22.7-1.3-34-.4-6.6-5.2-11.3-11.9-11.4-12.5-.1-25-.1-37.5,.3-7,.2-11.9,4.6-12.2,11.1-.6,11.3-.9,22.7-.8,34,0,7.6,5.4,12.4,13.2,12.6,6.2,.1,12.5,0,18.7,0Zm-.1,104.7c6.4,0,12.9,.1,19.3,0,7.7-.2,12.6-4.8,12.5-12.4-.2-11.4-.6-22.7-1.3-34.1-.4-6.4-5-11.2-11.3-11.4-12.9-.2-25.8-.1-38.6,.4-6.7,.3-11.2,4.9-11.5,11.1-.5,11.2-.9,22.4-.8,33.5,0,7.8,5.2,12.6,13,12.8,6.3,.1,12.5,0,18.8,0Z"/><g><path d="M462.4,519.1c0-26.4-.1-52.7,.2-79.1,0-3,1.5-7.4,3.6-8.5,2.1-1.1,6.4,.3,9,1.8,30.2,17.7,60.3,35.5,90.4,53.4,13.5,8,26.9,16.2,40.2,24.6,6.3,3.9,6.3,8.8,.3,12.9-26.1,17.8-51.9,36.2-78.6,53.1-16.9,10.7-34.9,19.6-52.8,28.7-8.3,4.2-12.3,1.1-12.3-8.4,0-26.2,0-52.3,0-78.5Z"/><path d="M462.3,519.1c0-24.4-.3-48.8-.6-73.2,0-2.2-.3-6.1,.2-8.3,1.6-8.4,6.2-9.1,13.3-5.6,21.5,12.5,48.4,29,69.7,41.9,12.9,7.6,29,17.4,41.8,25.2,4.6,2.8,9.3,5.6,13.9,8.4,1.9,1.2,5.1,2.9,7,4.3,6.4,4.7,3.5,10.4-2.2,13.8-15.2,10.6-31.4,22.1-46.7,32.5-17.9,12.2-35.9,24.5-55.2,34.5-9.6,5.1-19.2,10-29,14.8-9.8,4.6-13.5-1.9-13-11.1,0-2.4,.1-9.6,.2-12.2,.4-19.3,.6-46.1,.7-65h0Zm.2,0c0,18.9,.4,45.9,.7,65,0,2.4,.1,9.8,.2,12.2,0,7.2,1.5,13.3,10,9,19.2-9.9,38.7-19.5,56.8-31.2,23.7-15,50.9-34.1,74.3-49.7,5-2.9,8-7.4,2.3-11.7-1.8-1.3-4.9-3.1-6.8-4.4-4.6-2.9-9.2-5.7-13.8-8.6-17.5-11-38-22.9-55.9-33.2,0,0-28.2-16.3-28.2-16.3-1.5-.8-30.6-18.5-31.5-17.9-1.2-.3-2.5-.5-3.5-.3-.9,.2-1.6,1.1-2.2,2.2-1.2,2.2-1.6,5-1.5,7.4-.4,25.7-.9,51.5-1,77.2h0Z"/></g><g><path d="M351.9,614.2c-6.2,0-12.5,0-18.7,0-8.3-.1-13.1-4.8-13.1-13,0-10.2,0-20.5,.2-30.7,.2-8.8,5-13.7,13.8-13.9,11.5-.3,23.1-.4,34.7-.4,8.4,0,13.4,5,13.8,13.4,.5,10,.9,20.1,1.1,30.1,.2,9.5-4.6,14.4-14.1,14.5-5.9,0-11.7,0-17.6,0Zm19-13.2c-.5-10.8-1-21.3-1.5-31.4h-36v31.4h37.6Z"/><g><path d="M351.9,614.4c-4.6,0-9.2,0-13.7,.2-2,0-4.9,.3-6.9,0-6.5-.3-11.6-4.8-12.1-11.4-.4-5.8,0-11.5,0-17.3,0,0,.4-13.7,.4-13.7,0-2.3,.2-4.7,1-6.9,2.4-7.9,9.8-9.4,17.1-9.1,4.6,0,9.2-.3,13.7-.4,4.6-.1,9.2-.3,13.7-.4,2.1,0,5-.3,7,.2,8.4,1.3,11.9,8.5,11.7,16.3,.4,9.2,.7,18.3,.9,27.5,.2,12.7-7.6,16.3-19.1,15.2-4.6-.1-9.2-.2-13.7-.2h0Zm0-.2c4.6,0,9.2,0,13.7-.2,6.6,0,14.1-.7,16.1-8.1,.6-2,.7-4.2,.6-6.4-.2-4.6-.4-9.1-.6-13.7-.2-4.6-.3-9.1-.5-13.7,0-4.4-.6-8.8-3.9-11.7-3.2-3-8.1-3.1-12.3-3-4.6,0-9.1-.1-13.7-.2-4.6,0-9.2-.1-13.7-.1-8.7-.5-16.1,2.1-16.7,11.9-.1,2.2,.2,14.7,.2,17.1,0,4.6,0,9.1,0,13.7-.2,4.3,.6,8.9,4.2,11.6,3.5,2.7,8.6,2.5,12.9,2.6,4.6,.2,9.1,.2,13.7,.2h0Z"/><path d="M370.8,601c-1.1-10.7-2.1-20.7-2.5-31.3,0,0,1.1,1,1.1,1-9-.2-18-.9-27-.7-3,0-6,.1-9,.2l.6-.6c.2,5.2,.4,10.5,.5,15.7,0,5.2,.2,10.5,.2,15.7,0,0-1.3-1.3-1.3-1.3,12.1,0,25.4,.6,37.5,1.2h0Zm.2,.2c-12.2,.6-25.4,1.2-37.7,1.2,0,0-1.3,0-1.3,0,0,0,0-1.3,0-1.3,0-10.5,.2-21,.7-31.4,0,0,0-.7,0-.7,3.2,.1,6.4,.2,9.6,.3,9.3,.2,18.7-.5,28-.7,.7,10.7,.7,22,.6,32.6h0Z"/></g></g><g><path d="M351.4,714.3c-6.1,0-12.1,0-18.2,0-8.5-.1-13.2-4.9-13.2-13.5,0-10,0-20.1,.2-30.1,.1-8.5,4.7-13.7,13.2-14,12.3-.4,24.6-.4,36.9-.3,6.9,0,11.7,5.2,12.1,12.6,.5,10.4,.9,20.8,1.1,31.2,.2,9.1-4.9,14-14,14.1-6.1,0-12.1,0-18.2,0Zm18-44.6h-36.1v31.4h37.5c-.5-10.7-1-21-1.4-31.4Z"/><g><path d="M351.4,714.5c-4.6,0-9.2,0-13.7,.2-3.4,0-7,.5-10.4-.7-4.2-1.3-7.2-5.1-7.9-9.4-.4-1.7-.4-3.6-.4-5.3-.1-8,.4-19.4,.6-27.5,0-7.6,3.6-14.3,11.7-15.2,2.3-.3,4.6-.3,6.9-.4,10.3-.4,20.6-.7,30.9-.7,1.1,0,2.5,0,3.6,.2,6.4,.9,10.8,7.1,11,13.3,0,0,.2,3.4,.2,3.4,.4,9.2,.7,18.3,.9,27.5,.4,8-4.3,14.4-12.6,14.9-6.9,.1-13.7-.4-20.7-.3h0Zm0-.2c4.6,0,9.2,0,13.7-.2,4.4-.2,9.2,0,12.8-2.7,3.6-2.6,4.6-7.1,4.4-11.4-.5-9.1-.8-18.3-1.1-27.4,0,0,0-3.4,0-3.4-.1-5.6-3.9-10.8-9.7-11.5-1.5-.1-4.4-.2-5.9-.2-10.8-.2-23.6-.9-34.3,0-7.7,.9-10.9,7.3-10.4,14.5,0,0,.2,13.7,.2,13.7,.1,5.7-.1,11.4,0,17.1,0,1.1,.2,2.2,.5,3.2,2.1,7.6,9.3,8.3,16,8.2,4.6,.2,9.2,.2,13.7,.2h0Z"/><path d="M369.4,669.8c-12.1,.6-24,1.3-36,.9,0,0,.9-.9,.9-.9-.3,7.6-.7,16-.5,23.5,0,2.6,.2,5.2,.2,7.8,0,0-.6-.6-.6-.6,6.3-.3,12.5-.5,18.8-.5,5.5-.1,13.3-.2,18.8-.1,0,0-1.3,1.3-1.3,1.3-.3-8.9-.3-22.3-.2-31.4h0Zm.2-.2c1,10.2,2.1,21.1,2.6,31.4,0,0,0,1.3,0,1.3-6,.2-14,0-20.1,0-6.3,0-12.5-.3-18.8-.5,0,0-.7,0-.7,0v-.6c.5-10.6,.2-21.7-.3-32.3,12.3-.5,24.9,.1,37.2,.8h0Z"/></g></g><g><path d="M351.6,504.9c-6.1,0-12.1,0-18.2,0-8.6,0-13.5-4.8-13.5-13.2,0-10.2,0-20.4,.3-30.7,.2-8.4,4.9-13.5,13.4-13.7,12.1-.4,24.2-.4,36.3-.2,7,0,12,5,12.4,12.3,.6,10.8,1,21.6,1.1,32.3,0,8.1-5.1,13.1-13.1,13.2-6.2,.1-12.5,0-18.7,0Zm-18.7-44.7c0,9.8-.1,18.7,.1,27.5,0,1.4,1.5,4,2.3,4.1,11.8,.3,23.7,.2,35.5,.2-.6-11.2-1.1-21.6-1.6-31.8h-36.4Z"/><g><path d="M351.6,505c-4.6,0-9.2,0-13.7,.2-11.4,1.1-19.4-2.3-19-15.1-.1-8,.4-19.4,.7-27.5,0-4.6,1.2-9.7,5-12.7,3.7-3.1,8.8-3.1,13.3-3.2,8.1-.2,19.5-.7,27.5-.7,2.1,.1,4.9-.2,7,.2,6.4,.8,11.1,6.7,11.3,13,0,0,.2,3.4,.2,3.4,.5,10.3,1.1,20.7,.7,31.1-.6,6.4-5.8,11.2-12.2,11.6-2,.2-4.9,0-6.9,0-4.6-.1-9.2-.2-13.7-.2h0Zm0-.2c4.6,0,9.2,0,13.7-.2,1.9-.2,4.9,0,6.8-.4,5.5-.6,9.9-5.2,10.1-10.7,.1-9.3-.7-21.3-1-30.7,0,0-.1-3.4-.1-3.4,0-5.3-3.8-10.3-9.2-11.1-1.8-.4-4.8-.2-6.7-.3-8.1-.1-19.5-.6-27.4-.4-10.9-.5-17.5,3.3-17,15.1,0,0,.2,13.7,.2,13.7,0,4.6,0,9.1,0,13.7,0,2.3,0,4.4,.6,6.5,2.2,7.4,9.7,8,16.3,8,4.6,.2,9.2,.2,13.7,.2h0Z"/><path d="M333,460.3c.5,8.9,1,16.8,1.1,25.4,0,1.1-.1,2.5,.5,3.6,.3,.5,.6,1.1,.9,1.4,0,0,.1,0,0,0,0,0,0,0,0,0h.1c.6,0,9,.4,9.8,.4,8.5,.5,17,.5,25.5,.1,0,0-.7,.7-.7,.7l-.7-7.9c-.3-4.6-.8-11.2-1.1-15.9-.2-2.6-.3-5.3-.5-7.9,0,0,1.3,1.2,1.3,1.2-11.7,0-24.6-.6-36.3-1.2h0Zm-.2-.2c11.8-.6,24.7-1.2,36.5-1.2,0,0,1.2,0,1.2,0,0,0,0,1.2,0,1.2,.4,7.6,.7,16.2,.8,23.9,0,0,.1,8,.1,8v.7s-.7,0-.7,0c-11.2-.6-22.8-.3-34,.2-.4,0-1.3,0-1.7,0-1.4-.3-2-1.6-2.5-2.5-.8-1.3-.8-3.1-.7-4.6,0-8.4,.4-17.4,.9-25.5h0Z"/></g></g><g><path d="M351.5,387.7c-6.4,0-12.9,.1-19.3,0-7.3-.2-12.1-4.9-12.2-12.2-.1-10.8,0-21.6,.2-32.4,.2-7.8,5.1-12.6,13-12.8,11.7-.3,23.5-.5,35.2-.5,8.5,0,13.6,4.9,14,13.1,.5,10,.9,20,1.1,30.1,.2,9.8-4.6,14.6-14.4,14.7-5.9,0-11.7,0-17.6,0h0Zm-18.2-44.6v31.6h37.4c-.6-10.8-1.1-21.3-1.7-31.6h-35.7Z"/><g><path d="M351.4,387.8c-2.4,0-15,.6-17.1,.6-8.4,.8-15.2-4.1-15.3-12.9,0-5.4,0-10.9,.2-16.3,0,0,.4-13.7,.4-13.7,0-3.4,.5-7.2,2.5-10.1,2.7-4,7.8-5.5,12.4-5.4,0,0,3.4,0,3.4,0,4.6-.1,9.1-.3,13.7-.5,4.6-.2,9.2-.4,13.7-.5,4.8-.3,10,0,13.7,3.4,3.8,3.3,4.7,8.6,4.7,13.4,.4,9.2,.7,18.3,.9,27.5,0,13-7.9,16-19.5,15.1-4.5-.2-9.6-.2-13.8-.5h0Zm.2-.2c3.6-.3,9.3-.4,13.6-.5,6.3,0,14.2-.5,16.4-7.5,.7-2,.9-4.2,.8-6.4l-.6-13.7c-.2-4.6-.4-9.1-.5-13.7,.4-10.9-5.2-15.6-15.9-15-4.6,0-9.1,0-13.7,0-6.8,0-13.8-.3-20.5,.2-7.7,1-10.9,7.3-10.2,14.6,0,0,.2,13.7,.2,13.7,0,4.6,0,9.1,0,13.7-.3,4.4,.4,8.8,4,11.6,3.5,2.9,8.5,2.4,12.8,2.6,0,0,13.7,.6,13.7,.6h0Z"/><path d="M333.4,343.2c.6,10.8,1.1,20.9,1,31.5,0,0-1.1-1.1-1.1-1.1,9.3,.2,18.7,.9,28,.7,3.1,0,6.2-.2,9.3-.3l-.7,.7c-.5-5.3-.9-10.5-1.3-15.8-.3-4.6-.8-11.2-1-15.8,0,0,1.3,1.2,1.3,1.2-11.4,0-24.1-.7-35.6-1.2h0Zm-.2-.2c12.2-.7,24.7-1.2,37-1.2,.5,10.8,1,22.1,1.1,32.9,0,0,0,.8,0,.8,0,0-.7,0-.7,0-12.8-.7-25.6,0-38.4,.4-.2-10.8,.3-22.1,1-32.8h0Z"/></g></g><g><path d="M716.3,394.6c-6.4,0-12.9,.2-19.3,0-7.5-.3-12.5-5.2-12.6-12.6,0-11,.2-22,.7-33,.3-7,4.4-11.5,11.5-11.8,12.9-.5,25.8-.7,38.7-.5,6.6,.1,11.2,5.1,11.6,11.8,.6,11,1,22,1.2,33,.2,8.3-4.5,13-12.9,13.2-6.3,.2-12.5,0-18.8,0,0,0,0,0,0,0Zm19-13.1c-.5-10.8-1-21.3-1.4-31.4h-35.8v31.4h37.3Z"/><g><path d="M716.2,394.7c-4.5,.3-9.2,.5-13.7,.6-2.1,0-4.9,.2-7,0-6.4-.4-11.7-5.4-12.1-11.9-.4-10.4,.2-20.7,.8-31.1,.2-4.6,.7-9.8,4.7-12.9,3.8-3.1,8.9-2.6,13.4-2.9,10.3-.5,20.7-.9,31-.9,7.5-.6,13.4,3.9,14.5,11.4,.2,1.2,.3,4,.3,5.3,.4,10.4,1,20.7,.9,31.1-.4,6.7-5.4,11.5-12,11.8-2,.2-4.9,0-7,0-4.5-.2-9.6-.2-13.9-.5h0Zm.2-.2c3.6-.2,9.3-.4,13.7-.5,6.5,0,14-.2,16.3-7.6,.6-2.1,.6-4.3,.5-6.5-.3-4.6-.4-9.2-.6-13.7-.2-4.6-.4-9.2-.5-13.7v-3.4c0-6-4.4-11.3-10.6-11.3-10.9-.3-21.8-.6-32.7-.4-2.3,0-4.6,0-6.9,.3-6.1,.5-9.9,5.4-9.9,11.3-.1,5.7-.1,11.5-.1,17.2,0,2.5-.1,14.9,0,17.1,.3,5.6,4.7,9.8,10.2,10.4,1.8,.3,4.9,.2,6.8,.4,4,.2,9.9,.2,13.9,.5h0Z"/><path d="M735.2,381.4c-1.1-10.7-2-20.7-2.4-31.3,0,0,1.1,1,1.1,1-9-.2-17.9-.9-26.9-.7-3,0-6,.2-9,.3,0,0,.6-.6,.6-.6,.2,5.2,.4,10.5,.5,15.7,0,5.2,.2,10.5,.2,15.7,0,0-1.3-1.3-1.3-1.3,12,0,25.2,.6,37.2,1.2h0Zm.2,.2c-12.1,.6-25.2,1.2-37.4,1.2,0,0-1.3,0-1.3,0,0,0,0-1.3,0-1.3,0-10.5,.2-21,.7-31.4,0,0,0-.7,0-.7,3.2,.1,6.4,.2,9.6,.3,9.3,.2,18.6-.5,27.9-.7,.6,10.7,.7,22,.5,32.6h0Z"/></g></g><g><path d="M716.1,507.2c-6.2,0-12.5,0-18.7,0-7.7-.2-12.9-5.1-13-12.8,0-10.8,.2-21.6,.6-32.3,.3-7.6,5.1-12.4,12.6-12.6,12.3-.3,24.6-.3,36.9-.2,7,0,11.9,4.7,12.2,11.6,.6,11.1,1.1,22.3,1.2,33.5,.1,7.9-4.8,12.7-12.6,12.9-6.4,.1-12.9,0-19.3,0Zm-18.1-13.2h37.3c-.5-10.8-.9-21.2-1.4-31.2h-35.9v31.2Z"/><g><path d="M716.1,507.3c-5.7,0-11.5,0-17.2,.3-9.8,.8-16.2-5.6-15.5-15.4-.1-9.2,.3-18.4,.9-27.5,0-9.6,4.9-16,14.9-15.6,11.5-.1,23-.6,34.4-.8,8.1-.6,14.5,5.3,14.5,13.5,0,0,.2,3.4,.2,3.4,.4,9.8,.8,19.5,1,29.3,0,9.4-7,14.1-15.9,13.2-5.7-.2-11.5-.3-17.2-.3h0Zm0-.2c4.6,0,9.2,0,13.8-.2,2-.1,4.9,0,6.8-.3,5.6-.5,10-4.8,10.2-10.5,0-5.6-.5-11.4-.7-17-.2-4.6-.4-9.2-.5-13.7,0,0,0-3.4,0-3.4,.2-7-5.1-11.9-12-11.5-10.3,0-20.6-.4-31-.4,0,0-3.4,0-3.4,0-5.7-.4-11.5,2.4-13,8.2-.6,2.1-.6,4.4-.6,6.7,0,4.6,0,9.2,0,13.8,0,0,0,13.7,0,13.7-.3,4.3,.5,8.9,4.1,11.7,3.5,3,8.4,2.8,12.8,2.9,4.6,.2,9.2,.2,13.8,.2h0Z"/><path d="M698.1,493.9c12.8-.6,24.6-1.3,37.2-.8,0,0-.9,.9-.9,.9,0-10.3-.2-21-1.2-31.2,0,0,.7,.7,.7,.7-4.5,.2-13.5,.4-18,.5-5.3,.1-12.8,.2-18,0,0,0,1.3-1.3,1.3-1.3,0,8.8-.7,22.1-1.2,31.1h0Zm-.2,.2c-.6-10.6-1.1-21.9-1.2-32.6,8.8-.2,19.4,0,28.2,.2,0,0,9,.3,9,.3,0,0,.7,0,.7,0v.6c0,10.6,.6,21.5,1.7,32.1-12.6,.6-26,0-38.4-.8h0Z"/></g></g><g><path d="M716.4,616.5c-6.2,0-12.5,0-18.7,0-7.8-.1-13.1-4.9-13.2-12.6,0-11.3,.3-22.7,.8-34,.3-6.5,5.2-10.9,12.2-11.1,12.5-.4,25-.4,37.5-.3,6.6,0,11.5,4.8,11.9,11.4,.7,11.3,1.1,22.7,1.3,34,.1,7.6-4.8,12.3-12.4,12.5-6.4,.1-12.9,0-19.3,0Zm-18.3-44.8v31.5h37.2c-.5-10.9-1-21.4-1.5-31.5h-35.8Z"/><g><path d="M716.4,616.6c-5.7,0-11.5,0-17.2,.3-9.7,.8-16.4-5.2-15.8-15.1-.1-9.2,.4-18.4,1-27.6,0,0,.2-3.4,.2-3.4,0-3.5,1.5-7.2,4.4-9.4,3.7-3.2,8.8-3,13.4-3.1,8.1-.2,19.5-.7,27.6-.7,3.5,0,7.4-.5,10.6,1.2,4.7,2,7.5,7.1,7.5,12.1,0,0,.2,3.4,.2,3.4,.6,10.4,1.1,20.7,.9,31.1-.7,8.5-7.7,12.4-15.6,11.6-5.7-.2-11.5-.3-17.2-.3h0Zm0-.2c4.6,0,9.2,0,13.8-.2,2-.2,4.9,0,6.8-.3,4.3-.5,8.3-3.2,9.5-7.5,.7-2.1,.5-4.2,.4-6.5-.2-4.6-.3-9.2-.5-13.7,0,0-.6-13.7-.6-13.7l-.2-3.4c0-7.1-5.2-11.8-12.2-11.4-9.4-.2-21.6-.6-31-.5-4.4,0-9.4-.2-12.9,2.9-2.6,2.2-3.8,5.5-3.7,8.9,0,0,0,3.4,0,3.4-.2,8-.1,19.4-.2,27.5-.1,3.3,0,6.6,2.1,9.3,2.5,3.7,7.2,5,11.6,5,0,0,3.4,.1,3.4,.1,4.6,.2,9.2,.2,13.8,.2h0Z"/><path d="M698.2,571.8c.6,10.8,1.1,20.9,1,31.5,0,0-1.1-1.1-1.1-1.1,9.3,.2,18.6,.9,27.9,.7,3.1,0,6.2-.2,9.3-.3l-.7,.7c-.5-5.2-.9-10.5-1.2-15.8-.3-4.6-.7-11.2-.9-15.8,0,0,1.3,1.2,1.3,1.2-11.4,0-24.2-.7-35.7-1.2h0Zm-.2-.2c12.2-.7,24.8-1.2,37.1-1.2,.5,10.8,.9,22,.9,32.8,0,0,0,.7,0,.7,0,0-.7,0-.7,0-12.8-.7-25.5,0-38.3,.4-.2-10.8,.3-22.1,1-32.7h0Z"/></g></g><g><path d="M716.3,721.2c-6.3,0-12.5,.1-18.8,0-7.8-.2-12.9-5-13-12.8,0-11.2,.3-22.4,.8-33.5,.3-6.3,4.7-10.9,11.5-11.1,12.9-.5,25.8-.6,38.6-.4,6.3,.1,11,5,11.3,11.4,.7,11.3,1.1,22.7,1.3,34.1,.1,7.6-4.8,12.2-12.5,12.4-6.4,.1-12.9,0-19.3,0Zm-18.1-44.7v31.4h37.2c-.5-10.9-1-21.4-1.5-31.4h-35.7Z"/><g><path d="M716.3,721.4c-5.7,0-11.5,0-17.2,.3-9.8,.8-16.2-5.3-15.6-15.3,0-9.2,.4-18.4,1.1-27.5,0,0,.2-3.4,.2-3.4,.1-3.6,1.6-7.1,4.5-9.4,3.8-3.1,8.9-2.6,13.4-2.9,4.6-.2,9.2-.4,13.8-.5,5.7-.2,11.5-.3,17.2-.3,8.3-.7,14.3,5.1,14.5,13.4,.7,10.3,1.1,20.7,1.1,31,.7,10.2-5.8,15.8-15.8,14.9-5.7-.2-11.5-.3-17.2-.3h0Zm0-.2c4.6,0,9.2,0,13.8-.2,2-.1,4.9,0,6.8-.3,4.3-.4,8.4-3.1,9.6-7.3,.7-2.1,.6-4.2,.5-6.5-.2-4.6-.3-9.2-.5-13.7,0,0-.6-13.7-.6-13.7l-.2-3.4c0-3.2-1-6.3-3.3-8.6-1.8-1.8-4.4-2.8-7-2.9-1.1,0-4.1-.1-5.2-.2-4.6-.1-9.2-.3-13.7-.3-6.8,0-13.8-.1-20.6,.2-5.8,.5-10.2,5.4-9.9,11.3,0,0,0,3.4,0,3.4,0,4.6-.1,9.2-.1,13.8,0,0-.1,13.7-.1,13.7,0,2.3,0,4.4,.6,6.5,1.5,5.5,7.4,8.1,12.9,7.9,0,0,3.4,.1,3.4,.1,4.6,.2,9.2,.2,13.8,.2h0Z"/><path d="M698.3,676.6c.6,10.7,1.1,20.8,1,31.3,0,0-1.1-1.1-1.1-1.1,9.3,.2,18.6,.9,27.9,.7,3.1,0,6.2-.2,9.3-.3l-.7,.7c-.5-5.2-.9-10.5-1.2-15.7-.3-4.6-.7-11.1-.9-15.7,0,0,1.3,1.2,1.3,1.2-11.4,0-24.1-.6-35.6-1.2h0Zm-.2-.2c12.2-.7,24.7-1.2,37-1.2,.5,10.7,.9,21.9,.9,32.7,0,0,0,.7,0,.7s-.7,0-.7,0c-12.7-.7-25.5,0-38.2,.4-.2-10.8,.3-22,1-32.6h0Z"/></g></g></g></g></svg>