<?xml version="1.0" encoding="UTF-8"?><svg id="Layer_1" xmlns="http://www.w3.org/2000/svg" viewBox="0 0 1024 1024"><defs><style>.cls-1{fill:#ebebec;}.cls-2{fill:#fff;}.cls-3{fill:#ee8d24;}</style></defs><polygon class="cls-1" points="22.6 38.4 1015.8 85.6 1015.8 911.5 8.2 985.6 22.6 38.4"/><g><path d="M276.1,532.8c3.7,0,7.7-.8,11.2,.2,2.6,.8,6.4,3.8,6.3,5.8,0,2.6-3.1,7.2-5.2,7.4-8.3,.9-16.7,.8-25,0-2-.2-5.4-4.8-5.1-6.8,.5-2.5,3.8-5.5,6.6-6.3,3.4-1.1,7.4-.3,11.2-.3Z"/><path d="M276.1,532.7c3.6,0,7-1,10.7-.6,1.9,.3,3.7,1.2,5.1,2.4,1.2,1,2.3,2.1,2.7,3.7,.4,3.1-3.5,8.7-6.8,8.5-7.6,.4-17,1.4-24.5,.7-2.5-.5-4-2.5-5.2-4.5-.5-.9-.9-1.8-1-3.1,.3-3.2,3-5.5,5.6-6.9,4.3-2.2,9-.3,13.4-.3h0Zm0,.2c-6.2-.2-11.9-.6-15.8,5.1-.3,.4-.7,1.3-.7,1.7,0,.5,.3,1.2,.7,1.9,.7,1.2,1.8,2.7,2.9,3.3,.2,.1,.7,.2,.9,.2,7.8,.8,15.7,1.9,23.5,.8,.3,0,.9,0,1.1-.3,1.9-1.3,3.2-3.9,3.6-6.1,.1-.7,0-1.1-.4-1.7-4-5.4-10-5.1-16-4.9h0Z"/></g><path class="cls-2" d="M504.5,572.4c91.2,30.8,180.3,65.5,268.8,104.5-2.2,1.1-3.7,2-5.2,2.7-20.1,9.2-40.3,18.2-60.4,27.5-3.1,1.4-6.3,3.7-8.1,6.5-9.7,14.1-19.1,28.5-28.3,42.9-4.4,6.8-.3,16.7,7.9,17.7,20.9,2.5,41.8,5.5,62-4.5,29.4-14.5,59.1-28.5,88.7-42.7,1.5-.7,3-1.4,5.3-2.6-.7,2.2-1.1,3.5-1.6,4.9-23.5,60.6-47,121.2-70.5,181.8-4.9,12.6-14.4,17.6-27.2,12.8-38.7-14.5-77.6-28.7-115.9-44.2-59-23.9-117.6-48.7-176.3-73.2-4.2-1.8-8.4-3.7-12.5-5.7-9.5-4.7-13.5-14.5-9.7-24.4,4.1-10.6,8.5-21.2,12.8-31.7,22.9-56.1,45.9-112.2,68.8-168.2,.4-1.1,.9-2.2,1.5-3.8Z"/><path class="cls-3" d="M880.8,613.1c-9.4,4.9-18.6,9.9-28,14.7-17.6,8.9-35.2,17.8-52.9,26.5-2,1-5.3,1-7.5,0-58.2-23.6-116.1-47.8-174.4-70.9-30.2-11.9-61.1-22-91.7-32.9-2.5-.9-5-2-7.8-3.1,.4-1.4,.8-2.5,1.1-3.6,6.3-17.4,12.6-34.9,18.9-52.3,4.3-12,14-16.9,26.2-13.8,52.6,13.1,103.9,30.2,153.6,51.6,37,15.9,73.3,33.4,109.8,50.6,14.3,6.7,28.2,14.2,42.3,21.4,4.8,2.5,8.6,5.9,10.3,11.8Z"/><path class="cls-3" d="M742,739.9c-6.3-13.3-12.2-25.6-18.2-38.3,13-5.9,25.3-11.4,37.5-16.9,49.2-22.5,97.4-46.9,144.8-73.1,1.8-1,3.6-2,5.4-2.8,5-2.2,9.1-1.2,11.7,3.6,4,7.3,7.8,14.7,11.4,22.2,2.5,5.4,.4,9.7-5.6,12.7-26.3,13.1-52.6,26.4-79,39.4-34,16.8-68.1,33.4-102.1,50.1-1.7,.8-3.3,1.7-5.8,3Z"/><g><path d="M881.3,622c5.1-2.8,9.9-5.5,14.6-8,10.6-5.7,21.7-2.4,27.4,8.1,3.7,6.7,7.2,13.5,10.5,20.4,6.7,13.9,2.8,28.1-10.7,35.5-22.5,12.3-45.5,23.8-68.2,35.9-2.4,1.3-4.8,3.8-5.8,6.3-25.3,64.3-51,128.4-75.2,193.1-9.4,25.1-35.7,36.5-59,27.9-24.4-9-48.5-18.9-72.6-28.7-66.5-27-133-54.2-199.4-81.4-7.8-3.2-15.6-6.9-22.7-11.4-20.1-12.6-25.7-30-17.8-52.8,1.9-5.5,4.1-10.8,6.2-16.2,27.9-70.4,55.8-140.8,83.7-211.2,4.5-11.4,9.1-22.7,13.4-34.2,7.1-18.9,28.1-30.1,51.7-24,49.1,12.7,97.4,28.2,144.2,47.8,36.7,15.4,72.7,32.3,108.8,49.1,18.3,8.5,36.2,18.1,54.2,27.2,7.5,3.8,10.9,7.1,16.6,16.6Zm-376.8-49.6c-.7,1.7-1.1,2.8-1.5,3.8-22.9,56.1-45.9,112.2-68.8,168.2-4.3,10.6-8.7,21.1-12.8,31.7-3.8,9.9,.2,19.8,9.7,24.4,4.1,2,8.3,4,12.5,5.7,58.7,24.5,117.3,49.3,176.3,73.2,38.3,15.5,77.1,29.8,115.9,44.2,12.9,4.8,22.3-.1,27.2-12.8,23.5-60.6,47-121.2,70.5-181.8,.5-1.3,.9-2.7,1.6-4.9-2.3,1.1-3.8,1.9-5.3,2.6-29.6,14.2-59.3,28.2-88.7,42.7-20.2,9.9-41.1,7-62,4.5-8.2-1-12.2-10.9-7.9-17.7,9.3-14.4,18.6-28.8,28.3-42.9,1.9-2.7,5.1-5,8.1-6.5,20.1-9.3,40.2-18.4,60.4-27.5,1.6-.7,3.1-1.6,5.2-2.7-88.5-39-177.6-73.7-268.8-104.5Zm366.6,55.2c-1.7-5.9-5.5-9.4-10.3-11.8-14.1-7.2-28-14.7-42.3-21.4-36.5-17.1-72.8-34.6-109.8-50.6-49.7-21.4-101-38.6-153.6-51.6-12.2-3-21.9,1.8-26.2,13.8-6.3,17.4-12.6,34.9-18.9,52.3-.4,1.1-.7,2.2-1.1,3.6,2.8,1.1,5.3,2.2,7.8,3.1,30.6,10.9,61.5,21,91.7,32.9,58.3,23.1,116.3,47.3,174.4,70.9,2.2,.9,5.4,.9,7.5,0,17.7-8.6,35.4-17.5,52.9-26.5,9.4-4.8,18.6-9.8,28-14.7Zm-138.8,126.8c2.5-1.3,4.2-2.2,5.8-3,34-16.7,68.1-33.3,102.1-50.1,26.4-13,52.7-26.2,79-39.4,6.1-3,8.2-7.4,5.6-12.7-3.6-7.5-7.4-15-11.4-22.2-2.6-4.8-6.7-5.9-11.7-3.6-1.9,.8-3.6,1.9-5.4,2.8-47.4,26.1-95.6,50.6-144.8,73.1-12.2,5.6-24.4,11-37.5,16.9,6,12.6,11.9,25,18.2,38.3Zm-48.8,2.8c13.3-.4,25.3-.8,37.6-1.2-5.3-10.9-10.2-21.2-15.6-32.4-7.4,11.4-14.3,22-22,33.7Z"/><g><path d="M881.3,621.9s10.6-5.9,10.6-5.9c3.3-1.9,7.3-4.2,11.2-4.7,6.1-1.2,12.6,1.1,16.9,5.6,3.3,3,7.1,12,9.3,15.8,.9,1.8,3.3,6.4,4.2,8.1,8.5,15.4,3.7,31.5-12.3,39.1-20.8,11.4-44.9,23.7-65.9,34.9-3,1.6-5,4.4-6,7.7,0,0-2.2,5.7-2.2,5.7-8,20.4-23,58.5-31.2,79.3-14.1,35.8-28,71.9-41.8,107.9-4.5,11-13.1,20.3-23.9,25.3-.5,.2-1,.4-1.4,.6,0,0-2.9,1.1-2.9,1.1-4.9,1.6-10.1,2.6-15.2,2.5-8.3,.2-16.2-2.9-23.7-5.8-15.2-5.8-30.2-11.9-45.3-18-60-24.6-143.1-58.5-203-82.7-20.7-8.8-50.5-17.6-58.6-40.8-4-11.9-1.1-24.8,3.4-36.2,31.5-79.3,71.2-181.8,103-260.6,7.6-15.3,25.1-23.6,41.8-22.1,4,.3,8.3,1.2,12.2,2.3,19.7,5.1,39.2,10.7,58.6,16.9,69.9,21.8,136,53.7,202,85,14.6,7.2,28.9,14.9,43.3,22.3,3.6,1.8,7.2,4,10,7,2.7,2.9,5,6.5,7,9.9h0Zm0,.2c-2.2-3.5-4.3-6.9-7.2-9.9-2.8-3-6.3-5.1-9.9-6.8-14.5-7.2-28.9-14.7-43.6-21.8-66.2-30.7-132.4-62.2-202.3-83.7-19.4-6.1-38.8-11.6-58.5-16.7-19.4-6-41.4-.2-51.1,18.6-31.7,79-71.7,180.7-103.6,260.1-4.4,11-7.4,23.4-3.6,35,7.7,22.6,37.5,31.6,57.6,40.2,78.2,31.8,169.7,70.4,248.3,100.6,3.8,1.4,7.6,2.9,11.4,4,5.8,1.6,11.9,2,17.8,1.2,1.4-.2,3-.6,4.4-.8,.5-.1,1-.3,1.4-.4,0,0,2.9-.9,2.9-.9,1.6-.7,3.9-1.5,5.5-2.4,9.8-4.9,17.5-13.7,21.6-23.8,13.6-36,27.4-72.2,41.6-107.9,8.3-20.9,23.2-58.7,31.4-79.3,.7-1.9,2.6-6.7,3.5-8.6,1.3-2.4,3.3-4.4,5.7-5.7,21-11.2,45.2-23.2,66.1-34.5,15.4-7.2,20.1-22.5,12-37.4-.8-1.7-3.3-6.4-4.1-8.1,0,0-5.5-10.8-5.5-10.8-1.9-3.5-4.7-6.6-8.2-8.5-6.4-3.5-14-2.4-20.1,1.2-1.6,.9-11.6,6.3-13.5,7.2h0Z"/><path d="M504.6,572.5c-23.3,58.3-56.8,141.2-80.6,200-4.9,10.1-4.1,20.2,6.2,26.4,1.4,.8,4.1,2,5.6,2.7,2.3,1.1,6.4,2.9,8.6,3.9,8.9,3.6,29,12,38.1,15.8,59.9,24.5,127.4,54.4,187.7,77.4,19.6,7.5,39.7,15,59.4,22.3,3.1,1.1,8.6,3.5,12,3.8,8.9,1.6,16.3-3.4,19.9-11.4,1.4-3.2,3.4-8.4,4.7-11.8,20.2-52.3,43.7-113.5,63.8-165.8,1.2-3.2,3.3-8.5,4.3-11.9,0,0,1.3,1.2,1.3,1.2,0,0-73,35.4-73,35.4-5.4,2.6-20.1,9.8-25.2,12-2.3,.9-5,1.8-7.3,2.5-15,4.1-30.7,2.7-45.8,.9-3.2-.4-7.6-.5-10.3-2.5-5.6-3.7-7.4-11.8-3.8-17.5,4.4-6.7,13.7-20.7,18.2-27.6,1.7-2.6,6.7-10.1,8.4-12.7,0,0,1.4-2.1,1.4-2.1,2.3-3.8,6.4-6.5,10.3-8.2,16.9-7.7,38.5-17.5,55.4-25.2,3-1.3,6.2-2.9,9.1-4.4,0,0,0,2.2,0,2.2-43.9-19.5-88.3-38-133-55.6-44.4-17.5-90.1-34.2-135.2-49.9h0Zm-.1-.2c92.1,30.4,182.9,65.5,271.7,104.5-1.3,.7-5.5,2.8-6.8,3.5-18.6,8.6-41.3,18.9-60,27.4-3.7,1.6-7.1,3.9-9.3,7.3,0,0-1.4,2.1-1.4,2.1-1.7,2.6-6.6,10-8.4,12.7-4.5,6.9-13.7,20.8-18.1,27.5-2.8,4.5-1.4,11.1,3.1,14,2.2,1.7,6.5,1.7,9.2,2.1,14.9,1.8,30.2,3.3,44.9-.7,3.1-.9,6.5-2,9.4-3.4,17.7-8.3,79.6-38.2,98.1-47-1.5,4.3-3.4,9.9-5.2,14.1-20.4,52.2-44.4,113.2-64.7,165.5-1.4,3.3-3.2,8.6-4.7,11.8-3.8,8.3-11.5,13.6-20.8,11.8-3.6-.5-8.7-2.6-12.1-3.9-19.7-7.3-39.8-14.7-59.5-22.2-60.4-22.7-128.4-51.8-188.2-76.3-8.9-3.7-29.3-12.1-38.1-15.8-3.9-1.8-9.2-4.2-13-6-8.9-4.3-13.6-14-10.7-23.7,26.8-67.2,57-138.5,84.7-205.5h0Z"/><path d="M871,627.6c-1.3-4.3-4.3-8.1-8.2-10.3-3.2-1.9-8.8-4.4-12.2-6.2-15.9-8.4-57.3-27.5-74.3-35.4-33.2-15.4-66.4-30.7-100.4-44.1-34-13.5-68.7-25.1-104.1-34.5-4.4-1.2-8.8-2.3-13.3-3.4-4.4-1.2-8.8-2.2-13.4-1.5-10.1,1.4-14.6,9.5-17.4,18.5-4.2,11.9-11.9,33.5-16.1,45.2-.8,1.9-1.5,4.5-2.1,6.5,0,0-.5-1-.5-1,13,5.2,32.8,11.6,46.2,16.3,44.8,15,93.3,35.3,137.3,53.2,0,0,90.7,37.4,90.7,37.4,2.1,.7,4.7,.8,6.8-.3,26.5-13.1,54.8-26.7,80.9-40.3h0Zm.2,0c-24.9,13.7-53.7,28.2-79,41.1-2.9,1.8-6.3,2.2-9.5,1.1-59.8-23.8-122.1-49.8-182-73.5-29.9-11.8-62.2-21.9-92.2-33.6,0,0-.7-.3-.7-.3,0,0,.2-.7,.2-.7,.6-2,1.5-4.6,2.2-6.5,4.3-11.6,12.2-33.3,16.6-45.1,3-9.3,7.6-17.5,18.2-18.9,4.6-.8,9.3,.4,13.7,1.6,39.9,10.1,79.3,22.3,117.8,36.9,42.8,16.4,84,36.3,125.3,56,16.5,7.8,33,15.8,49.1,24.6,3.1,1.7,9,4.6,12.1,6.5,4,2.5,7,6.3,8.1,10.9h0Z"/><path d="M732.3,754.3c7.1-4.1,18.7-9.7,26.1-13.6,42.8-21.7,89.3-44.4,132.5-65.3,0,0,26.5-13.1,26.5-13.1,3.2-1.6,6.7-3.4,7.8-7,1.2-3.5-1.3-7.1-2.7-10.1-2.2-4.4-4.4-8.8-6.8-13.1-1.8-2.8-3-6.9-6.2-8.6-3.3-1.7-6.8-.2-9.8,1.5,0,0-12.9,7.2-12.9,7.2-12.6,7-26.3,14.5-39,21.1-34.9,18.3-70.3,35.6-106.4,51.4-9,4-18,8-27,11.9l.4-1c5.1,11,12.4,27.2,17.6,38.4h0Zm0,.2c-5.6-11.3-13.4-26.9-18.8-38.1,0,0-.3-.7-.3-.7,0,0,.7-.3,.7-.3,53.7-24.6,107-50,159.2-77.7,0,0,26.1-13.9,26.1-13.9,3.2-1.8,7.6-3.4,11.1-1.3,2.3,1.3,3.7,3.7,4.8,5.9,1.6,3.2,3.5,6.6,5.1,9.9,1.1,2.2,3.9,7.8,4.9,10,3.8,7.1-.6,12-7.1,14.8-24.6,12.2-54.6,27.9-79,40.1-30,15-75.9,36.8-106.5,51.4h0Z"/><path d="M683.6,757.2c13.1-1,24.6-2.3,37.4-1.8,0,0-.5,.8-.5,.8-4.6-11.1-10.9-21.4-16.1-32.1,0,0,2.1,.1,2.1,.1-5.9,9.8-16.1,23.5-22.8,32.9h0Zm-.2,.1c7.1-12.1,14.2-24.6,22.3-36.1,5.5,11.4,9.8,23.4,15.9,34.6,0,0,.4,.7,.4,.7h-.9c-12.2,1.4-25.7,1.1-37.7,.8h0Z"/></g></g><path class="cls-3" d="M235.6,478.2c43.8-3.6,87.1-7.1,130.9-10.7-11.3,52.2,2.9,93.4,50.2,119.2,36.3,19.8,84.9,14.6,115.1-12.7,37.1-33.5,44-74.2,23.6-120.4,41.1-3.4,82-6.8,123.7-10.2,1.2,14.3,2.5,28.4,3.6,42.5,2.9,36.2,5.9,72.4,8.5,108.6,1.1,16.1-5.6,22.8-21.9,24.2-38.4,3.3-76.7,6.9-115,10.3-32,2.8-63.9,5.6-95.9,8.4-31.7,2.8-63.5,5.8-95.2,8.7-31.3,2.8-62.6,5.8-93.9,8.4-11.9,1-20-6.9-21-18.9-3.8-46.5-7.7-93.1-11.6-139.6-.5-5.7-.8-11.5-1.2-17.6Zm40.4,57.9c-3.7,0-7.8-.8-11.2,.3-2.7,.9-6.1,3.8-6.6,6.3-.4,2,3,6.6,5.1,6.8,8.3,.8,16.7,.9,25,0,2.1-.2,5.1-4.8,5.2-7.4,0-2-3.7-5-6.3-5.8-3.5-1-7.4-.2-11.2-.3Z"/><path class="cls-2" d="M668.5,443.8c-18.4,1.6-35.7,3.1-53.1,4.5-24.7,2-49.4,3.7-74.1,5.9-4.3,.4-6.8-.8-9.7-3.7-22.4-22.3-48.4-37.5-81-36.6-36.3,1-64.3,17.3-83.5,48.3-2.2,3.6-4.5,5.3-8.7,5.7-29.6,2.3-59.1,4.7-88.7,7.1-14.7,1.2-29.5,2.4-44.8,3.6-1.1-12-2.2-24-3.2-36.1-.7-8.4-1.4-16.8-1.6-25.2-.2-9.9,5.4-17.3,15.4-18.5,18.4-2.2,37-3.5,55.5-5.1,21.2-1.8,42.4-3.4,63.5-5.5,8.1-.8,14.5-5,19.6-11.4,10.2-12.8,20.6-25.5,30.7-38.4,3.6-4.6,7.9-7.3,13.9-7.8,21.9-1.6,43.7-3.8,65.5-4.9,4.4-.2,10,2.5,13.2,5.7,8.7,8.5,16.6,17.8,24.6,27,7.5,8.6,16.8,12.4,28.3,11.5,30-2.5,60-4.9,90-7,14.7-1.1,21.6,4.5,23,19.1,2,20.2,3.4,40.5,5.1,61.6Zm-20.4-33.8c-.4-4.8-.8-11.9-1.4-18.9-.5-5.1-2.9-8.3-8.6-7.9-20.1,1.6-40.1,3.2-60.2,4.8-6.1,.5-8.4,4.1-7.8,10,.8,7.9,1.4,15.9,2.2,23.8,.7,8,2.3,9.7,10.4,9.1,17.4-1.1,34.8-2.8,52.2-4,12.6-.9,13.8-2,13.1-16.9Zm-211.8-42.9c12.3-.9,25.5-1.9,38.7-3,4.8-.4,9-2,8.7-7.8-.3-5.8-4.6-6.8-9.5-6.4-13.2,1-26.4,1.9-39.6,3-5.2,.4-11.3,.3-11.9,7.7-.4,5,3.7,6.9,13.6,6.5Zm112.5,58.5c6.8,0,12.8-5.9,12.8-12.5,0-6.7-5.9-12.5-12.9-12.5-6.7,0-12.2,5.4-12.2,12.2,0,7.2,5.3,12.8,12.2,12.9Zm-104.9-29.1c5-.5,10.2-.4,15-1.8,2.4-.7,5.5-4.5,5.4-6.8,0-2.3-3.6-6.4-5.7-6.5-7.4-.2-15,.5-22.3,2-2,.4-4.5,4.9-4.3,7.4,0,2,3.5,4.2,6,5.6,1.5,.8,3.9,.2,6,.2Z"/><path class="cls-3" d="M546.5,498.7c0,46.9-37.9,84.9-84.6,85-46.8,.2-85.3-38.4-85.3-85.3,0-46.8,38-84.7,84.9-84.8,47.4,0,85.1,37.6,85,85.1Zm-87.1-68.1c-39.2,2.3-68.1,34-65.8,72,2.3,37.5,34.7,66,72.6,63.9,35.9-2.1,65.7-35.1,63.4-70.4-2.5-38.5-33.7-67.6-70.3-65.5Z"/><path class="cls-2" d="M617.2,342.1c.2,2.7,.4,5.1,.6,8.3-12.8,1-25.2,2-38.1,3-.3-3-.4-5.3-.7-8.2,12.9-1,25.2-2,38.2-3.1Z"/><path class="cls-2" d="M302.8,378.5c-16.8,1.4-32.4,2.7-48.5,4,5.6-10.4,35.9-13.1,48.5-4Z"/><g><path d="M648.1,410c.7,14.9-.5,16.1-13.1,16.9-17.4,1.2-34.8,2.9-52.2,4-8.2,.5-9.7-1.2-10.4-9.1-.7-7.9-1.4-15.9-2.2-23.8-.6-5.9,1.7-9.5,7.8-10,20-1.6,40.1-3.2,60.2-4.8,5.6-.4,8.1,2.8,8.6,7.9,.6,7,1.1,14.1,1.4,18.9Zm-62,6.6c16.3-1.4,31.9-2.7,47.9-4.1-.5-5.3-.9-9.8-1.3-14.7-16.3,1.4-31.9,2.7-47.6,4,.3,5.2,.6,9.6,.9,14.8Z"/><g><path d="M648.2,410c.7,15,0,16.5-15.1,17.8-13.6,1.6-28.6,2.5-42.3,3.1,0,0-7.1,.4-7.1,.4-3.3,0-8.1,.7-10.1-2.7-1.7-3.3-1.5-7-2-10.5-.5-4.7-1-9.4-1.5-14.1-.3-3.6-1.3-7.2-.5-10.9,.8-4.2,5.3-6.2,9-6.3,0,0,7-.6,7-.6,9.4-.8,18.8-1.7,28.2-2.4,7.1-.5,14.1-1.1,21.2-1.4,5.5-.6,10.6,0,11.9,6.3,.5,2.1,.3,5,.5,7.1,.2,4.7,.5,9.4,.9,14.1h0Zm-.2,0c-.5-5.8-1-11.8-1.7-17.6-.2-4.7-2.3-9-7.7-8.3,0,0-3.5,.4-3.5,.4-16.4,1.7-32.9,2.9-49.4,4.1,0,0-7.1,.5-7.1,.5-2.2,.1-4.3,.5-5.9,2-3.1,3.3-1.5,8.7-1.4,12.9,.4,4.7,.6,9.4,1,14.1,.6,3.9-.2,10.7,4.3,12.2,3.8,1,10-.3,13.9-.5,13.7-1.5,28.7-2.8,42.3-3.3,14.8-.3,15.5-1.7,15-16.3h0Z"/><path d="M586.1,416.5c8.2-1.2,16.1-2.2,24.2-3,7.9-.9,15.7-.8,23.6-1.4,0,0-.3,.4-.3,.4-.2-2.5-.4-4.9-.7-7.3-.3-2.4-.6-4.9-.9-7.3l.7,.6c-6.8,.9-16.8,1.9-23.7,2.6-7.9,.8-15.9,1.3-23.8,1.7l.8-1c0,4.2,0,10.5,0,14.8h0Zm-.2,.2c-.6-4.8-1.4-10.9-1.8-15.7,8.2-1,16.4-1.9,24.7-2.4,7.3-.5,17.3-1.2,24.5-1.4,.3,5.3,.5,10.5,1.1,15.7-4.1,.4-8.3,1-12.5,1.5-11.9,1.5-24.1,2.1-35.9,2.4h0Z"/></g></g><g><path d="M436.3,367.2c-9.9,.4-13.9-1.5-13.6-6.5,.6-7.4,6.6-7.3,11.9-7.7,13.2-1.1,26.4-2,39.6-3,5-.4,9.2,.6,9.5,6.4,.3,5.8-3.9,7.4-8.7,7.8-13.2,1.1-26.4,2.1-38.7,3Z"/><path d="M436.3,367.3c-4.3,0-9.2,.7-12.8-2.3-1.2-1.1-1.6-2.9-1.5-4.4,0-3.2,1.9-6.6,5.1-7.6,2.9-1,5.8-1,8.8-1.2,0,0,8.7-.3,8.7-.3,8.7-.2,17.3-1,25.9-2,2.7-.2,6.2-1,8.9-.3,5.3,.9,7,7.9,4.4,12.2-1.8,2.8-5.4,3.8-8.5,4-12.9,1.3-26,1-38.9,1.8h0Zm0-.2c11.5-1,22.9-3.1,34.4-3.8,3.5-.4,8.8,0,11-3.1,1.8-2.9,1-8.1-2.9-9-2.5-.7-5.4-.3-8.3-.3-11.4,.3-23.2,1.6-34.5,3-5.3,.6-11.9,.1-12.5,6.8-.8,6.7,8.2,6.4,12.8,6.4h0Z"/></g><g><path d="M548.8,425.7c-7,0-12.3-5.6-12.2-12.9,0-6.8,5.5-12.2,12.2-12.2,7,0,12.9,5.8,12.9,12.5,0,6.7-6.1,12.6-12.8,12.5Z"/><path d="M548.8,425.8c-9.5,.1-16.2-9-11.9-17.9,5.2-10.4,20-10.6,24.9,.1,4.1,9.1-3.9,18-13,17.8h0Zm0-.2c6.3,0,11.5-6.4,11.5-12.3,0-2.9-1.1-5.8-3.2-8-7.4-7.8-20.2-3.8-19.5,7.6,.2,6.1,4.6,12.7,11.2,12.6h0Z"/></g><g><path d="M444,396.6c-2.1,0-4.5,.7-6-.2-2.4-1.3-5.9-3.6-6-5.6-.1-2.5,2.3-7,4.3-7.4,7.3-1.5,14.9-2.2,22.3-2,2.1,0,5.6,4.1,5.7,6.5,0,2.3-3,6-5.4,6.8-4.8,1.5-10,1.3-15,1.8Z"/><path d="M444,396.7c-2,0-4.3,.9-6.3,0-2.5-1.2-5.8-2.5-6.7-5.4-.4-3.1,2.1-7.8,5.2-8.6,5.2-.6,10.8-1.2,16.1-1.8,2.2-.2,4.4-.4,6.6-.4,2.3,.4,4,2.3,5.3,4,1.2,1.6,1.9,3.9,.8,5.8-4,8.8-13.5,5.4-21.1,6.3h0Zm0-.2c4.8-.5,9.8-1.2,14.4-2.8,2-.7,4.9-4,4.7-6-.5-1.9-2.3-4.4-4.3-5.1-2.1-.2-4.2-.3-6.3-.4-5.3-.2-10.7,.5-15.8,2-2,1.2-3.1,4.2-3.4,6.3,0,2,3.3,4.2,5,5.5,1.7,1.1,3.9,.4,5.9,.5h0Z"/></g><g><path d="M272.7,248.8c-18.4,0-33-13.6-33.1-30.9-.1-19.1,18.6-37.7,37.6-37.4,17.3,.2,31.9,15.2,31.9,32.6,0,19.1-17,35.8-36.4,35.8Zm-.1-14.4c11.8,0,22.1-9.8,22.2-21.1,0-10-8.2-18.7-17.8-18.7-11.2,0-23.4,12.2-23.2,23.3,.1,9.4,8.2,16.5,18.8,16.5Z"/><g><path d="M272.7,248.9c-25.7,.2-43.1-24.4-29.4-47.6,12.2-20.8,39.4-30.3,57.7-11.3,22,23.7,2.1,58.7-28.3,58.8h0Zm0-.2c17.8,0,33.7-15.8,34.9-33.3,1.2-13-6.9-26-18.7-31.4-16.9-8.1-36.5,2.1-44.4,18-11.5,21.5,4,46.7,28.2,46.7h0Z"/><path d="M272.5,234.3c10.3,0,19.4-8.9,21-18.8,1.4-7.4-2.7-15.8-9.8-18.9-7.2-3.4-15.3,.3-20.7,5.4-4.5,4.2-7.9,10-8,16.2,0,9.2,8.6,16.3,17.6,16.1h0Zm0,.2c-21.4-.3-26.5-21-11.1-34.3,11.7-10.5,27.2-7.3,33.1,7.4,5.1,14.5-8,27-22,26.9h0Z"/></g></g><g><path d="M449.7,445.2c36.5-2.1,67.8,27,70.3,65.5,2.3,35.4-27.5,68.4-63.4,70.4-37.9,2.2-70.3-26.4-72.6-63.9-2.3-38.1,26.6-69.7,65.8-72Zm2.4,121.6c29.7,0,53.7-23.9,53.9-53.4,.2-29.5-24.6-54.4-54-54.2-29.5,.1-53.7,24.3-53.7,53.7,0,30.2,23.8,54,53.8,54Z"/><g><path d="M449.7,445.1c37.8-2.4,69.7,28.4,71.3,65.8,1.9,36.5-30.4,70-66.7,71-37.5,1.8-70.8-28.7-71.7-66.3-1.6-38.4,29.5-68.6,67.1-70.4h0Zm0,.2c-26.6,1.2-51.6,19.1-60.5,44.3-16.3,44.8,17.6,91.5,65.1,90.8,17.7,0,35-8.3,47-21.3,18.9-19.6,22.7-49.3,11.4-73.6-10.5-24.3-36-42.2-62.9-40.2h0Z"/><path d="M452,566.7c29.1,.2,52.8-24.9,52.9-53.6,.5-37.7-38.3-64.2-73.1-48.8-52.4,23.6-37.3,101.1,20.3,102.4h0Zm0,.2c-21.4,.3-42.7-12.7-50.8-32.8-15.2-35.9,11.8-76.1,50.8-75.7,28.9,0,54.8,25.6,55,54.6,.5,30.2-25.1,54.1-54.9,53.9h0Z"/></g></g><path class="cls-2" d="M272.5,234.4c-10.6,0-18.7-7.1-18.8-16.5-.1-11,12-23.3,23.2-23.3,9.5,0,17.8,8.7,17.8,18.7,0,11.2-10.4,21.1-22.2,21.1Z"/><path class="cls-2" d="M452,566.8c-30.1,0-53.8-23.8-53.8-54,0-29.4,24.1-53.5,53.7-53.7,29.4-.1,54.2,24.7,54,54.2-.2,29.5-24.2,53.4-53.9,53.4Zm-45.6-57.8c1,8.3,3.5,15.2,8.8,21,3,3.2,7,4.3,9.8,.9,1.7-2.1,2.6-7.2,1.2-9.2-4.9-7.2-5.3-13.9-2.1-21.8,.9-2.2-1.2-7.4-3.3-8.5-2.1-1.1-7.4,.5-8.7,2.5-2.8,4.5-3.9,10-5.7,15.1Zm30,39.9c2.2-2.8,5.6-5.3,6.2-8.4,.7-4-2.4-6.9-7-7-4.6-.1-7.8,1.6-8.1,6.6-.3,5.1,3,6.9,8.9,8.8Z"/><g><path d="M406.5,509c1.8-5.1,2.9-10.6,5.7-15.1,1.3-2,6.6-3.5,8.7-2.5,2.1,1.1,4.1,6.3,3.3,8.5-3.2,7.9-2.9,14.7,2.1,21.8,1.4,2,.5,7.1-1.2,9.2-2.8,3.4-6.8,2.3-9.8-.9-5.3-5.8-7.8-12.7-8.8-21Z"/><path d="M406.3,508.9c1.4-5.5,2.1-11.5,5.5-16.3,1.5-1.5,3.6-2.2,5.6-2.6,1.3-.2,2.5-.2,3.7,.3,2.3,1.4,3,3.7,3.6,6,.2,1.1,.3,2.3-.1,3.5-.4,1-.8,2-1.2,3-2.1,6-.7,12.7,3.2,17.7,.3,.5,.8,1.1,.9,1.6,2,7.1-3.7,15.6-11.2,10.4-6.9-5.7-9.8-15-10-23.7h0Zm.2,0c1.4,6.1,3.4,12.2,7.2,17.2,2,2.6,5.3,6.6,8.8,5.1,2.8-1.4,3.6-5.6,3.1-8.4-1.2-2.3-2.6-4.6-3.2-7.2-1.2-4.3-.8-8.8,.3-12.9,.2-.9,.7-2.2,1-3.1,.2-.8,0-1.9-.3-2.8-.5-1.6-1.6-3.8-3.1-4.5-1.5-.5-3.8,.1-5.4,.8-2.1,.8-2.6,2.5-3.5,4.2-1.8,3.7-3,7.9-4.9,11.7h0Z"/></g><g><path d="M436.5,548.9c-5.9-1.9-9.2-3.7-8.9-8.8,.3-5,3.5-6.7,8.1-6.6,4.6,.1,7.7,3,7,7-.5,3.1-4,5.6-6.2,8.4Z"/><path d="M436.5,549c-4.1-.3-9.5-2.1-9.9-6.9-.3-4.5,2.6-8.5,7.1-9.2,6.1-1.7,12.8,3.2,9.4,9.7-1.6,2.7-4.4,4.5-6.7,6.5h0Zm0-.2c1.1-2.5,3.6-4.8,4.6-7.3,2.3-5.9-5.4-8.5-9.9-6.8-3.6,1.5-3.3,6.6-1.5,9.4,1.6,2.2,4.6,3.2,6.8,4.7h0Z"/></g><path class="cls-3" d="M235,252.6c39.6,23.3,78.5,46.2,117.3,69,4.7,2.7,9.5,7.1,14.4,.5,3.2-4.3,1-8-7.4-12.9-12.7-7.5-25.4-15-37.8-22.3,14.3-27,28.4-53.4,42.7-80.3,18.1,6.1,37,12.3,55.7,18.8,1.5,.5,3.1,2.5,3.7,4.2,8,22.7,15.8,45.5,23.6,68.2,.2,.6,.1,1.2,.2,2.3-6.9,.6-13.7,1.5-20.4,1.9-9.5,.5-16.9,4.6-22.7,11.9-10.1,12.6-20.3,25.2-30.3,37.9-3.8,4.8-8.2,7.9-14.5,8.1-3.8,.1-7.6,.3-11.2,1-9.9,1.9-18.6,2.1-25.5-7.7-2.7-3.8-8.9-5.8-13.9-6.9-13.3-3.2-26.8-2.8-40,.8-10.1,2.7-17,8.9-20.3,19.1-.5,1.5-2.7,3.3-4.3,3.6-18.5,3.4-29.1,16-28.9,34.6q.1,10.6-9.9,14.8c-2.6,1.1-5.3,2.2-8.8,3.6-2.5-8.7-4.3-17.3-7.5-25.4-4.9-12.8-4.2-24.3,1.4-37.1,14.6-33.6,27.9-67.8,41.7-101.7,.7-1.8,1.6-3.6,2.7-6Z"/><g><path d="M565.1,354.8c-.3-5.8-.5-10.6-.7-15.5-.2-4.9,2.5-7.4,7.1-7.8,16.3-1.4,32.6-2.8,49-4,7.8-.5,9.8,1.6,10.4,9.3,.3,3.7,.8,7.5,1.3,11.5,1.2,.2,2.2,.6,3.2,.5,33.7-2.3,50.9,17.7,53.8,46.3,3.6,35.9,7.3,71.7,10.8,107.6,2.6,26.4,5.4,52.8,7.3,79.3,.8,10.9,.7,22.3-1.3,33-3,16.6-18.4,28.9-37.9,31.2-23.5,2.7-47.1,4.6-70.7,6.7-27.8,2.6-55.5,5.1-83.3,7.6-26.7,2.4-53.3,4.7-80,7.1-32.4,2.9-64.8,5.9-97.2,8.8-26,2.3-52,5-78,6.9-18,1.3-33.1-12.9-34.6-31.4-5-62-9.9-124-14.9-186-.5-6.8-1.3-13.6-2-21.4-6.5,2.7-12.3,5.1-18.1,7.6-9.8,4.1-12.5,2.9-15.4-7.1-22.2-78.6-44.5-157.2-66.7-235.9-4.6-16.4-4.6-16.5,11.6-20.7,86.4-22.3,172.8-44.5,259.1-66.8,5.2-1.4,10-2.2,13.3,3.5,.6,1,2.1,1.6,3.3,2,10.4,3.2,14.3,10.8,17.3,20.9,15.8,52.9,32.6,105.5,48.7,158.3,1.8,5.9,4.4,6.8,9.9,6.1,6.5-.9,13.6-2,19.8-.5,6.1,1.5,12.3,5.1,16.9,9.5,8.7,8.2,16.4,17.4,24.1,26.5,5.4,6.3,11.6,9.2,19.9,7.8,4.3-.7,8.7-.6,13.8-1ZM225.9,492.8c.4,6.2,.7,11.9,1.2,17.6,3.8,46.5,7.8,93.1,11.6,139.6,1,12,9.1,19.9,21,18.9,31.3-2.6,62.6-5.5,93.9-8.4,31.7-2.9,63.4-5.8,95.2-8.7,32-2.9,63.9-5.6,95.9-8.4,38.3-3.4,76.7-7,115-10.3,16.2-1.4,23-8.1,21.9-24.2-2.6-36.2-5.6-72.4-8.5-108.6-1.1-14.1-2.4-28.1-3.6-42.5-41.6,3.4-82.5,6.8-123.7,10.2,20.4,46.2,13.5,86.9-23.6,120.4-30.2,27.3-78.8,32.6-115.1,12.7-47.3-25.9-61.5-67.1-50.2-119.2-43.7,3.6-87.1,7.1-130.9,10.7Zm442.5-49c-1.7-21.1-3.1-41.4-5.1-61.6-1.5-14.7-8.3-20.2-23-19.1-30,2.2-60,4.5-90,7-11.5,1-20.7-2.9-28.3-11.5-8-9.2-15.9-18.5-24.6-27-3.3-3.2-8.9-5.9-13.2-5.7-21.9,1.1-43.7,3.3-65.5,4.9-6,.4-10.3,3.1-13.9,7.8-10.1,12.9-20.5,25.6-30.7,38.4-5.1,6.3-11.5,10.6-19.6,11.4-21.1,2-42.3,3.6-63.5,5.5-18.5,1.6-37.1,3-55.5,5.1-10,1.2-15.6,8.5-15.4,18.5,.2,8.4,.9,16.8,1.6,25.2,1,12,2.1,24.1,3.2,36.1,15.3-1.2,30.1-2.4,44.8-3.6,29.6-2.4,59.1-4.8,88.7-7.1,4.2-.3,6.4-2,8.7-5.7,19.2-31,47.2-47.3,83.5-48.3,32.7-.9,58.7,14.3,81,36.6,2.9,2.9,5.4,4.1,9.7,3.7,24.7-2.2,49.4-4,74.1-5.9,17.4-1.4,34.8-2.9,53.1-4.5Zm-500.8-74c1.2-2.9,1.8-4.3,2.3-5.7,14.6-35.5,29.2-71.1,43.9-106.6,3.5-8.5,6.8-9.5,14.8-4.8,10.3,6,20.5,12.2,30.8,18.2,12.9,7.6,25.8,15,38.9,22.7,1.5-2.2,2.8-3.8,3.7-5.5,12.2-23,24.8-45.8,36.5-69.1,7.7-15.3,7.1-15.6,23.4-10.1,14.7,4.9,29.5,9.8,45.5,15.1-9.5-30-18.5-58.8-27.7-87.9-86.8,22.3-173,44.5-259.3,66.7,15.8,55.8,31.4,110.8,47.3,167Zm57.6-102.6c-1.1,2.4-2,4.2-2.7,6-13.8,33.9-27.1,68.1-41.7,101.7-5.6,12.8-6.3,24.4-1.4,37.1,3.1,8.1,5,16.7,7.5,25.4,3.5-1.4,6.2-2.5,8.8-3.6q10.1-4.2,9.9-14.8c-.2-18.6,10.4-31.2,28.9-34.6,1.7-.3,3.8-2.1,4.3-3.6,3.3-10.2,10.1-16.4,20.3-19.1,13.3-3.6,26.7-4,40-.8,5,1.2,11.2,3.2,13.9,6.9,6.9,9.8,15.6,9.6,25.5,7.7,3.7-.7,7.5-.9,11.2-1,6.3-.2,10.7-3.3,14.5-8.1,10-12.7,20.2-25.2,30.3-37.9,5.8-7.3,13.3-11.4,22.7-11.9,6.8-.3,13.5-1.2,20.4-1.9,0-1.1,0-1.8-.2-2.3-7.8-22.8-15.6-45.5-23.6-68.2-.6-1.6-2.1-3.6-3.7-4.2-18.7-6.5-37.5-12.7-55.7-18.8-14.3,26.8-28.3,53.3-42.7,80.3,12.4,7.3,25.1,14.8,37.8,22.3,8.4,4.9,10.6,8.6,7.4,12.9-4.9,6.5-9.7,2.2-14.4-.5-38.9-22.8-77.7-45.7-117.3-69Zm311.5,246.1c0-47.4-37.6-85.1-85-85.1-46.8,0-84.8,38-84.9,84.8,0,46.9,38.5,85.5,85.3,85.3,46.8-.2,84.6-38.2,84.6-85Zm80.4-171.2c-13,1-25.3,2-38.2,3.1,.2,2.9,.4,5.2,.7,8.2,13-1,25.3-2,38.1-3-.2-3.2-.4-5.5-.6-8.3Zm-314.4,36.4c-12.6-9-42.9-6.3-48.5,4,16.1-1.3,31.7-2.6,48.5-4Z"/><g><path d="M565,354.7l-.7-13c-.3-3.2-.3-7.1,2.8-9,2.8-1.8,6.5-1.4,9.6-1.8,0,0,6.5-.6,6.5-.6,9.3-.8,23.3-2,32.6-2.8,7.2-.6,14.6-2.3,15.4,7.8,0,0,1.5,13,1.5,13,0,0-.5-.5-.5-.5,1.4,.3,2.4,.7,3.8,.5,4-.2,8.1-.2,12.1,.3,10.8,1.2,21.4,5.8,28.6,14,9.3,10.1,12.7,24.1,13.6,37.4,.6,5.4,3.5,33.9,4.1,39.9,3.9,44.1,10.9,100.2,13.9,143.9,.7,10.8,.5,21.6-1.5,32.3-1.1,5.4-3.5,10.6-7,14.8-3.4,4.3-7.8,7.8-12.6,10.4-4.8,2.6-10,4.4-15.4,5.4-4.3,.8-11.6,1.4-16,1.9-123.2,11.2-261.2,22.8-383.9,34-4,.2-11.9,1.1-16.1,1.1-16.9-.2-30.5-14.7-31.9-31.2-5.5-65.5-11.4-142.8-17.4-208,0,0,1.2,.7,1.2,.7s-13.3,5.6-13.3,5.6c-5.4,1.9-13.1,7.1-17.8,2.3-2.5-2.9-3.2-6.8-4.3-10.3,0,0-3.9-13.9-3.9-13.9-17.6-61.9-45.4-159.9-63-221.7-4.8-15.7-1.6-16.4,13.7-20.2,71.8-18.6,186.1-47.9,258.1-66.4,5.5-1.6,11.4-2.2,14.8,3.6,.2,.3,.2,.4,.4,.5,.7,.7,1.8,1,2.7,1.4,11.4,3.4,15.5,13.4,18.4,23.8,14.4,47,33.1,108.3,47.3,155,2.1,8.4,5.9,7.4,13.2,6.4,4.8-.6,9.7-1.1,14.5-.3,7.2,1.3,13.8,5.2,19.1,10.1,6.9,6.7,13.3,13.9,19.5,21.3,4.6,5.4,9,11.7,16.4,13,4.7,1.1,9.5-.5,14.3-.5,0,0,7.1-.3,7.1-.3h0Zm.2,.2c-1,.1-2.7,.2-3.7,.2,0,0-3.6,.2-3.6,.2-4.8,0-9.6,1.7-14.4,.6-4.8-.9-9-3.9-12.1-7.6,0,0-4.7-5.5-4.7-5.5-6.2-7.3-12.6-14.5-19.6-21.1-5.2-4.8-11.6-8.6-18.6-9.7-4.7-.7-9.5-.2-14.2,.4-8,1.2-12.1,1.8-14.5-7.2-14.5-46.6-33.6-108-48.1-154.8-2.5-8.9-6.2-18.5-15.5-21.8,0,0-1.6-.6-1.6-.6-.6-.2-1.2-.4-1.8-.7-.6-.3-1.2-.6-1.8-1.2-.3-.2-.6-.7-.7-.9,0,0-.5-.7-.5-.7-.6-.9-1.4-1.6-2.3-2.1-3-1.7-6.4-.6-9.7,.2,0,0-7,1.8-7,1.8-68.8,18.1-182.4,47.1-251.1,64.9-2.3,.6-4.7,1.2-6.9,1.9-2.1,.6-4.4,1.3-5.9,2.7-1.4,1.5-1.1,3.7-.8,5.7,17.6,65,46.2,163.7,64.2,228.8,1.5,4.8,4.2,16.1,6,20.6,.8,1.9,2,3.9,4.2,4.2,4.6,.2,8.9-2.5,13.2-4.1,0,0,13.3-5.5,13.3-5.5l1.1-.5c2.2,21.7,3.7,43.5,5.4,65.2,3.3,39.5,7.9,104.7,11.3,144.1,.5,5.3,2.2,10.4,4.9,14.9,5.5,9,15.5,15.3,26.1,15.5,17.9-.8,45.8-3.7,64-5.3,97.9-9,222.2-20.4,319.8-29.4,10.4-1,21.4-2,31.8-3.5,9.6-1.8,18.9-6.3,25.4-13.7,3.9-4.4,6.7-9.7,7.8-15.4,2-10.4,2.2-21.1,1.6-31.7-2.8-43.5-9.6-99.9-13.6-143.8-.4-6.1-3.5-34.5-3.9-40-.9-13.1-4.1-26.7-13.1-36.7-9.7-11.2-25.3-15-39.6-14-1.4,.2-2.8-.2-4.1-.5,0,0-.4,0-.4,0,0,0,0-.4,0-.4,0,0-1.3-13-1.3-13-.5-5.1-2.4-7.6-7.8-7.4-11.9,.7-27.1,2.1-39.1,2.9,0,0-6.5,.5-6.5,.5-3.1,.4-6.7,0-9.4,1.7-3,1.9-2.9,5.6-2.7,8.7,0,0,.5,13.1,.5,13.1h0Z"/><path d="M226,492.9c3.4,44.6,8.9,100.9,12.6,145.7,1,8,.2,16.7,5.1,22.9,2.3,3.1,5.8,5.2,9.5,6.1,3.9,.9,7.9,.2,11.8,0,125.4-11.7,262.8-23.1,388.7-34.2,7.8-.8,16.7-.9,22.6-6.6,5.9-6,4.9-15.1,4.2-22.8,0,0-3.9-48.6-3.9-48.6-2.7-28.6-5.3-69-8.2-97.2,0,0,.9,.8,.9,.8l-123.7,10.5,1-1.6c5,11.4,8.9,23.4,10.5,35.8,5.4,37.4-12.5,70.2-42.1,92.1-28.9,20.8-68.9,24.4-101.4,10.2-36.1-16.8-60.2-46.2-61.5-87-.5-12.5,1.1-24.9,3.7-37.1,0,0,.8,.9,.8,.9,0,0-130.8,10-130.8,10h0Zm-.2-.2s130.9-11.4,130.9-11.4c0,0,1,0,1,0-4.4,20.3-5.6,41.8,.3,61.9,5.7,19.7,18.8,36.7,35.5,48.4,19.7,14.6,44.4,22.2,69,20.2,21.3-1.4,42.3-9.5,58.4-23.7,37.7-33.4,43.8-75.7,23.2-120.8,0,0,1.6-.1,1.6-.1l123.7-9.9s.9,0,.9,0c3.9,45.2,7.7,101.3,11.3,146.7,2.1,18.2-1.8,28-21.6,29.7-112.8,10-283,26.3-394.7,35.8-4.1,.3-8.3,1-12.4,0-8.7-1.8-14.3-10-15-18.5-3.8-49.5-9-108.7-12-158.2h0Z"/><path d="M668.4,443.7c-1.1-11-2.4-28.1-3.5-39.3-.6-6.6-1.2-13.1-1.9-19.6-.7-10.2-3.6-19.7-15.3-20.9-6-.8-23,1.4-29.4,1.7-18.6,1.5-50.7,4.1-68.9,5.5-10.2,.9-20.6-3.2-27.4-10.9-7.7-8.6-14.9-17.5-23.1-25.7-4.2-4.7-10-8.3-16.5-7.6,0,0-4.9,.3-4.9,.3-13.1,.7-26.2,1.8-39.4,2.8-3.5,.4-21.4,1.1-24.3,2.4-4.7,1.5-7.9,5.4-10.8,9.2,0,0-24.8,30.7-24.8,30.7,0,0-3.1,3.8-3.1,3.8-5,6.7-12.4,11.8-20.8,12.4-32.5,2.9-75.7,6.3-108.2,9.6-3.3,.4-6.5,.7-9.8,1.1-6.4,.5-12.4,4.4-14.4,10.6-1.1,3.1-1.2,6.2-1,9.5,.2,6.6,.8,13.1,1.3,19.7l3.6,39.3s-1-.9-1-.9c44.4-3.8,89-7.4,133.4-11,3.6,0,6.2-2.2,7.9-5.2,11.2-18.1,27.4-33.5,47.4-41.3,17.5-6.9,36.9-9,55.4-6.1,8.6,1.5,17.2,4.1,25,7.9,13.6,6.3,25.7,15.6,36.4,26.1,3.9,4.1,6.3,6.1,12.2,5.3,0,0,7.4-.6,7.4-.6s118.5-9,118.5-9h0Zm.2,.2c-33.3,3.1-92.7,8.4-126,11.2-2.5,.3-5.4,.4-7.8-.8-1.2-.6-2.3-1.4-3.2-2.3-10.5-10.4-22.1-19.8-35.3-26.4-7.6-3.9-15.8-6.8-24.2-8.5-19.2-3.8-39.6-1.8-57.7,5.4-19.5,7.7-35.2,22.7-46.1,40.4-2,3.6-5.7,6.3-9.9,6.4-6.9,.7-123.7,9.6-133.4,10.4,0,0-1,0-1,0,0,0,0-1,0-1-1.1-14-4.1-45.6-4.5-59.1-.6-6.6,1.4-14.2,7.2-18.1,5.7-4,12.8-3.4,19.4-4.3,30.5-2.8,67.6-5.6,98.4-8.4,6.5-.8,13.3-.4,19.1-3.5,5.9-2.8,10.1-8.3,14-13.4,0,0,24.5-30.9,24.5-30.9,3-4,6.4-8.1,11.3-9.8,3.2-1.5,21-2.2,24.7-2.7,13.1-1.1,26.2-2.3,39.4-3.2l4.9-.3c5.2-.6,10.4,1.5,14.4,4.6,2.6,2.2,4.8,4.6,7.1,7,6.8,7.1,13.2,14.8,19.7,22.1,6.4,7.3,16,11.1,25.7,10.3,26.2-1.9,62.3-4.8,88.6-6.7,17.3-1.8,25.4,4.4,26.3,22.3,1.3,13.3,3.4,45.4,4.4,59.2h0Z"/><path d="M167.7,369.7c5.6-14.4,14.7-36.7,20.5-51.3,4.2-10.1,22.1-55.2,26.2-64.2,4.7-9.5,12.3-3.7,18.8,0,3.7,2.2,14,8.2,17.9,10.5,0,0,47.8,27.9,47.8,27.9l-1.4,.3c3.6-4.7,7.3-12.4,10.2-17.6,11.2-20.6,23.1-42.4,33.7-63.2,1-1.9,2.1-3.9,3.7-5.4,.6-.6,1.5-1.1,2.4-1.4,3.9-1,7.8,.9,11.5,1.9,0,0,9.7,3.3,9.7,3.3,12.9,4.4,25.9,8.7,38.8,13,0,0-.5,.5-.5,.5-7-21.9-21-66-28-87.8,0,0,.9,.5,.9,.5-46.7,12.4-115.4,30.1-162,42.2-20.8,5.3-75.8,19.4-97.3,24.9,0,0,.8-1.5,.8-1.5,15,53.8,31.2,113.1,46.2,167.2h0Zm0,.2c-15.7-54.6-33.2-113.5-48.8-168,0,0,1.2-.3,1.2-.3,0,0,64.8-16.8,64.8-16.8,59.3-15.4,135-34.5,194.6-49.6,0,0,.7-.2,.7-.2,0,0,.2,.7,.2,.7,6.7,22,20.5,66.1,27.4,88,0,0,.2,.7,.2,.7,0,0-.7-.2-.7-.2-12.9-4.4-25.9-8.6-38.9-12.9-3.6-1.2-11.1-3.7-14.6-4.7-6.5-1.9-8.7,.3-11.5,5.9-11.8,24-25.1,49-37.7,72.7-1.5,3-3.5,6.1-5.4,8.8,0,0-.5,.8-.5,.8l-.8-.5c-14.1-8.3-34-19.6-47.8-27.9-3.9-2.3-14.1-8.4-17.9-10.6-5.4-2.9-12.2-9.1-16.1-.9-14.7,34.3-33.6,80.8-48.4,114.8h0Z"/><path d="M225.3,267.3c-5.1,11.7-11.9,30-16.7,42-8.3,21.1-16.7,42.1-25.6,63-1.5,3.5-3,6.9-4,10.5-3.5,11.4-1.7,21.7,2.7,32.6,2.5,7.2,4.1,14.6,6.2,21.8,0,0-1.4-.7-1.4-.7,0,0,9.3-3.9,9.3-3.9,2.6-1.2,6.4-2.3,8-4.7,.7-1.1,.7-2.8,.8-4.4-.5-12.5,1.9-24.4,12.3-32.5,5.1-4,11.3-6.3,17.6-7.5,1.7-.5,3.3-1.8,3.8-3.6,2.2-6.6,6.7-12.4,12.8-15.8,15.6-8,44-8.1,59.3,.6,1.4,.9,2.7,2.3,3.7,3.6,2.9,4,7.3,6.9,12.3,7.6,6.7,1,13.3-1.5,20-1.7,10.6,.2,14.4-3.6,20.5-11.7,4.1-5.1,14.7-18.5,18.8-23.7,2.1-2.6,7.4-9.3,9.4-11.9,3.3-3.9,7.6-7.1,12.4-9,3.2-1.2,6.7-1.9,10.1-2,6.7-.4,13.4-1.3,20.1-1.9l-.7,.9c0-.7,0-1.6-.1-2l-.7-2c-5.9-16.8-15.6-44.5-21.6-61.5,0,0-1.4-4.1-1.4-4.1-.5-1.8-1.7-3.4-3.3-4.1,0,0-2.1-.7-2.1-.7-12.7-4.3-40.5-13.6-53.5-18,0,0,1.5-.6,1.5-.6-10.6,20-32,60.2-42.7,80.2,0,0-.5-1.6-.5-1.6,7.6,4.5,27.1,16,34.5,20.4,5.1,3.3,15.8,8,11.5,15.6-2,3.3-5.6,5.8-9.6,4.3-22.2-12.1-100.5-60-123.6-73.5h0Zm0-.2c17.4,10.1,100.3,57.9,115.7,67,0,0,2.9,1.7,2.9,1.7,2.5,1.5,5.6,3.8,8.4,3.2,1.7-.4,3.3-2,4.3-3.7,1.1-1.7,.9-3.4-.4-5-2.7-3.3-6.8-5.3-10.5-7.5-7.3-4.3-27-15.9-34.6-20.3,0,0-1-.6-1-.6,0,0,.6-1,.6-1s21.3-40.1,21.3-40.1l21.4-40.1,.5-.9c11.4,3.9,39.3,13.4,50.4,17.1,1.2,.4,5,1.7,6.2,2.1,3.9,1.4,4.9,6.2,6.1,9.6,5.9,17.2,15.3,44.8,21.1,61.7,.2,.7,.5,1.4,.7,2.1,.3,1.3,0,2,.3,3.1-7,.6-13.9,1.5-21,1.8-3.3,.1-6.6,.7-9.7,1.9-4.7,1.7-8.7,4.8-12,8.5-2.1,2.4-7.4,9.2-9.5,11.7-5.9,7.3-16.4,20.3-22.2,27.5-7.5,9.1-12.7,7.3-23,8.4-5,.7-10,2-15.1,1.3-5.2-.6-9.8-3.6-12.8-7.8-1.8-2.8-4.8-4.4-7.9-5.6-12.6-4.5-26.5-5-39.6-2.5-4.9,1-9.8,2.1-14.1,4.6-5.8,3.2-9.9,8.8-11.9,15-.6,2.3-2.7,4.1-5,4.8-6,1.2-12,3.4-16.8,7.3-9.8,7.8-11.9,19.1-11.4,31,.2,7.4-4.2,8.5-10,11.1,0,0-9.3,3.8-9.3,3.8l-1.1,.5-.3-1.2c-2.1-7.3-3.7-14.7-6.1-21.8-4.5-11.2-6.2-21.9-2.6-33.7,1-3.7,2.6-7.2,4.1-10.7,9.1-20.7,17.7-41.7,26.3-62.6,5.1-12,12.1-30.2,17.7-41.8h0Z"/><path d="M536.7,513.3c.3-59.9-62-100.1-116.9-78-31.3,12.1-52.9,44.3-52.2,77.8,.5,59.2,61.3,100.4,116.3,77.7,31-12.2,53.1-44,52.8-77.5h0Zm.2,0c.3,61-61.4,103.5-118.1,79.6-43.4-18.2-64.4-69.2-45.8-112.5,18-43.2,68.6-64.9,112-46.7,31.6,12.7,52.4,45.9,51.9,79.6h0Z"/><path d="M617.1,342.2c-6.6,1.1-12.9,1.9-19.4,2.5-6.3,.6-12.4,.2-18.7,.9,0,0,.3-.4,.3-.4,.2,2.7,.6,5.5,1,8.2l-.7-.6c5.5-.8,13.4-1.6,19-2.1,6.4-.5,12.7-.9,19.1-1,0,0-.7,.8-.7,.8,0-2.6,0-5.3,0-8.2h0Zm.2-.2c.4,2.7,1,5.9,1.4,9-6.6,.9-13.2,1.7-19.8,2.1-5.9,.4-13.9,.9-19.8,.9-.1-3-.2-5.9-.4-8.8,0,0,0-.4,0-.4h.4c6.4-.4,13-1.8,19.5-2.2,6.3-.4,12.7-.7,18.8-.6h0Z"/><path d="M302.7,378.5c-7.7-3.8-16.4-4.5-24.9-4.4-8,.1-18.4,1.2-22.8,8.8,0,0-.7-1.1-.7-1.1,16.4-2.4,31.5-2.5,48.4-3.3h0Zm.2,0c-15.8,2-33.7,4.5-50,4.8,2.4-4.6,7.2-6.7,11.9-8.3,8.3-2.8,17.4-4.1,26.1-2.1,4.3,1,8.8,2.5,12,5.6h0Z"/></g></g></svg>