<?xml version="1.0" encoding="UTF-8"?><svg id="Layer_1" xmlns="http://www.w3.org/2000/svg" viewBox="0 0 1024 1024"><defs><style>.cls-1{fill:#ebebec;}.cls-2{fill:#ee2a7b;}.cls-3{fill:#fff;}</style></defs><polygon class="cls-1" points="987 1014.5 3 1004.8 80.6 9.5 1021 83.8 987 1014.5"/><g><path class="cls-2" d="M785.1,333.3l-157.3,1.7c13.2,36.9,10,74.3-9.8,111.7-17.5,33.2-44.7,54.4-82.8,58.9-56.8,6.6-110.2-28.8-128.2-83.9-9.3-28.5-7.6-58.2,2.9-84.4l-106.2,1.1-69.5,255.8-4.2,44.1,16.2,40.6,40.6,16.8,499.4,7.9,24.8-26.8V350.1l-26-16.8Z"/><path class="cls-2" d="M567.9,467.1c-15.1-38.2-27-76.8-35.3-116.5-1.4-6.8-3.4-13.6-5.7-20.2-2.7-7.6-7-8.3-11.8-1.8-4.6,6.3-8.8,12.9-12.3,19.9-15.7,31.2-31.1,62.5-46.5,93.7-.6,1.2-1.2,2.3-2,3.7-.8-.7-1.7-1.1-2.1-1.8-27-36.8-31.9-76.6-14.8-118.7,12.1-29.7,33.5-50,65.4-56.9,47.7-10.4,96,15.3,115.9,60.6,21.3,48.7,3,105.9-42.7,133.2-2.6,1.6-5.3,3.1-7.9,4.7Z"/></g><g id="FQjd4g"><g><path d="M332.9,652.1c-8.8-29-26.2-45.9-54.4-50.9-30.8-5.5-63.8,17.9-68.6,48.6-5.4,34.6,15.9,66.1,49,69.7,18.5,2,37.5,.5,56.3,.3,103-1,206-2.1,309-3,45-.4,89.9-.4,134.9-.6,11.9,0,16.6-4.8,16.7-16.7,.5-101.5,1-203,1.5-304.5,0-13.1-5-18.3-18-18.6-72-1.3-144-2.3-216-3.9-63.3-1.4-126.5-3.5-189.8-5.3-1,0-2-.1-3.1-1.3,4.7-.3,9.4-.7,14.1-.8,99-2.5,198.1-4.9,297.1-7.3,32.9-.8,65.9-1.2,98.9-1.6,22.2-.2,37.6,14.7,37.7,37.1,.8,102.4,1.5,204.8,2,307.2,.1,24.6-16.1,40.5-40.8,40.3-162.2-1.3-324.3-2.5-486.5-4-39.5-.4-68.3-23.3-75-60.4-1.7-9.6,.3-19.9,.9-29.8,.4-6.7,2-13.3,1.7-19.9-2.3-57.1-5.2-114.2-7.3-171.4-1.3-36-1.4-72-2.3-108-1.1-42.7,25.4-75.2,67.4-82.5,39.5-6.8,82.6,25.5,86.4,65.5,1.3,14,.6,28.3,.3,42.4-1.3,54.1-2.3,108.2-4.3,162.3-1.3,36.4-4.1,72.8-6.3,109.1-.1,2.1-.7,4.2-1.4,7.9Zm0-8.5c0-3.3,.2-6.5,0-9.8-2-37.9-4.7-75.8-6-113.7-2-58.7-2.9-117.3-4.4-176-.2-5.8-1-11.8-2.6-17.4-6.8-23-27.9-38.1-52.2-37.8-25.7,.3-42.7,13.1-49.4,38.3-2.4,9-4,18.4-4.3,27.7-1.2,43.6-1.4,87.2-2.9,130.8-1.5,45.1-4,90.2-6.1,135.3-.1,2.6,0,5.2,0,9.1,17-26.5,40.1-39.1,69.9-35.5,29.3,3.6,48.3,21,58,48.9Z"/><path class="cls-3" d="M332.9,643.5c-9.6-27.9-28.6-45.3-58-48.9-29.9-3.7-52.9,9-69.9,35.5,0-3.9-.1-6.5,0-9.1,2.1-45.1,4.6-90.2,6.1-135.3,1.5-43.6,1.6-87.2,2.9-130.8,.3-9.3,1.9-18.7,4.3-27.7,6.7-25.2,23.7-38,49.4-38.3,24.3-.3,45.4,14.8,52.2,37.8,1.6,5.6,2.4,11.6,2.6,17.4,1.6,58.7,2.5,117.4,4.4,176,1.3,37.9,4,75.8,6,113.7,.2,3.2,0,6.5,0,9.8Z"/></g></g><g id="xCXzPs"><path class="cls-3" d="M592.5,277.6c.7-1.4,1.5-2.9,2.9-3.6,1.1-.6,2.5-.7,3.8-.7,10.9,0,21.8,3.9,30.2,10.9,4.9,4.1,8.9,9.1,13.7,13.4,13.7,12.2,32.2,17,48.8,24.9,6.2,2.9,12.1,6.3,18.1,9.7,5.6,3.2,11.2,6.4,16.8,9.6,7.9,4.5,15.9,9.1,23.1,14.6,2,1.6,4.2,3.4,4.5,6,.3,2.1-.8,4.2-1.8,6.1-11.6,21.5-23.1,43-34.7,64.5-4,7.5-8.1,15-13.4,21.6-4,4.9-8.7,9.4-11.7,15-4.2,8.2-4.2,18.1-8.3,26.3-1.7,3.5-4.2,6.5-6.6,9.6-4.4,5.6-10.6,11.9-17.5,10.1-4.5-1.2-7.5-5.5-11.7-7.4-3.1-1.5-6.7-1.5-10.1-2.3-5.6-1.2-10.7-4.1-15.6-7.1-8.5-5-17-10-25-15.7-5.2-3.7-10.3-7.7-14.6-12.5-.8-.9-1.6-1.9-2-3.1-.9-3,1.4-5.8,3.2-8.4,7.5-10.7,7.6-24.8,7.3-37.9-.2-11.4-.4-22.8-2.5-34-2.3-12.6-7-24.6-12.4-36.1-1.6-3.5-3.3-7-4.4-10.7-3-9.9-2.7-20.5,2.8-29.2,6.7-10.5,11.4-22.3,17.2-33.4Z"/><g><path d="M571.2,311.2c4.1-15.8,14.4-27.3,23.6-39.5,.6-.8,2.4-1.4,3.3-1.1,14.6,4.6,29.3,9.2,41.1,19.6,3.4,2.9,6.1,6.7,8.6,10.6-19.9-2-36.1-11.6-51.6-24.1-7.6,12.5-8.1,28.2-19.8,38.7,23.5,20.3,36.2,45.8,38,76.3,1.8,30.5-7.2,57.5-28.3,80.6,5.7,2.3,11.3,4.4,16.6,6.9,19,9,37.9,18.2,56.9,27.2,10.5,5,8.5,4.1,13.5-4.6,18.5-32.2,36.7-64.6,54.7-97.1,7.2-13,13.3-26.5,20.1-39.7,1.5-3,1.1-4.7-1.7-6.3-8.6-5-17.3-9.9-25.7-15.2-5.5-3.5-10.5-7.7-15.3-12.2,18,7,37.2,11.2,52.7,23.5,3.2,2.5,4.3,4.7,2,8.5-10.3,17.3-20.7,34.7-30.6,52.2-7,12.3-13.8,24.8-19.9,37.5-9.4,19.5-18,39.4-27.3,59-1.8,3.9-4.8,7.3-7.5,10.7-2.4,3.1-5.4,3.5-9,1.5-26.9-14.7-53.9-29.2-78.4-47.8-.9-.7-1.9-1.2-3.2-1.9-11.7,11.3-25.3,19.4-41.2,24.8,3.1,8.9,6.3,17.4,9.2,26,7.7,23,15.5,46,22.9,69.2,1.8,5.7,2.5,11.8,2.9,17.8,.4,6.3-2.3,7.8-7.7,4.8-37.2-20.9-74.5-41.8-111.6-62.9-13.9-7.9-27.5-16.3-41.2-24.5-3.5-2.1-6.9-4.3-10.7-6.7,5.9-12.2,11.6-24.1,17.4-35.9,4.5-9.2,4.6-9-2.3-16.2-26.9-28.1-38.1-60.9-26.8-99,13.3-44.9,54.2-76.5,101.9-80.1,25.5-1.9,49.1,3.7,70.7,17.6,1.1,.7,2.3,1.2,3.9,2.1Zm-28.6,185.8c2.6-1.5,5.3-3.1,7.9-4.7,45.7-27.2,64-84.5,42.7-133.2-19.9-45.4-68.2-71-115.9-60.6-31.9,7-53.3,27.3-65.4,56.9-17.2,42.1-12.2,81.9,14.8,118.7,.5,.7,1.3,1.1,2.1,1.8,.8-1.5,1.4-2.6,2-3.7,15.5-31.3,30.9-62.6,46.5-93.7,3.5-6.9,7.7-13.6,12.3-19.9,4.8-6.5,9.1-5.8,11.8,1.8,2.4,6.6,4.3,13.4,5.7,20.2,8.3,39.7,20.2,78.2,35.3,116.5Zm19.5,100.5c-22.6-76.4-39.7-154.2-66.7-229.2-26.4,53.1-57.2,103.4-87.5,153.7,51.6,25.3,102.6,50.2,154.1,75.4Z"/><path d="M685.6,321.4c-8.1-.4-13.3-4.7-18.2-10.1,9.4-.1,15.9,3.3,18.2,10.1Z"/><path class="cls-3" d="M562.2,597.4c-51.6-25.2-102.5-50.2-154.1-75.4,30.2-50.4,61-100.6,87.5-153.7,27,75,44,152.8,66.7,229.2Z"/></g></g></svg>