<?xml version="1.0" encoding="UTF-8"?><svg id="Layer_1" xmlns="http://www.w3.org/2000/svg" viewBox="0 0 1024 1024"><defs><style>.cls-1{fill:#ebebec;}.cls-2{fill:#fff;}.cls-3{fill:#edc022;}</style></defs><polygon class="cls-1" points="1.5 82.7 983.1 -9.9 1022.5 1003.6 107.6 1033.9 1.5 82.7"/><g><path class="cls-3" d="M829.5,370.9l-159.7,1.7c13.4,37.4,10.1,75.4-9.9,113.4-17.8,33.7-45.4,55.2-84,59.8-57.6,6.7-111.9-29.2-130.1-85.2-9.4-28.9-7.7-59.1,2.9-85.6l-107.8,1.2-70.6,259.7-4.2,44.8,16.4,41.2,41.2,17.1,506.9,8,25.1-27.2V387.9l-26.4-17Z"/><path class="cls-3" d="M609,506.7c-15.4-38.8-27.4-77.9-35.9-118.2-1.5-6.9-3.4-13.8-5.8-20.5-2.8-7.7-7.1-8.4-12-1.8-4.7,6.4-9,13.1-12.5,20.2-15.9,31.6-31.5,63.4-47.2,95.1-.6,1.2-1.2,2.3-2,3.8-.8-.7-1.7-1.1-2.2-1.8-27.4-37.4-32.4-77.8-15-120.4,12.3-30.1,34-50.7,66.4-57.8,48.4-10.5,97.5,15.5,117.6,61.5,21.7,49.5,3,107.5-43.3,135.2-2.7,1.6-5.4,3.2-8,4.7Z"/></g><g id="FQjd4g"><g><path d="M370.5,694.4c-8.9-29.4-26.6-46.5-55.2-51.6-31.3-5.6-64.8,18.2-69.7,49.4-5.5,35.1,16.1,67.1,49.8,70.7,18.8,2,38.1,.5,57.1,.3,104.5-1,209.1-2.1,313.6-3,45.6-.4,91.3-.4,136.9-.6,12.1,0,16.9-4.9,16.9-16.9,.5-103,1-206.1,1.5-309.1,0-13.3-5-18.6-18.2-18.8-73.1-1.3-146.2-2.3-219.3-3.9-64.2-1.4-128.4-3.6-192.6-5.4-1,0-2.1-.1-3.2-1.3,4.8-.3,9.5-.7,14.3-.8,100.5-2.5,201.1-5,301.6-7.4,33.4-.8,66.9-1.2,100.3-1.6,22.6-.2,38.1,14.9,38.3,37.6,.8,103.9,1.5,207.8,2.1,311.7,.1,25-16.3,41.1-41.4,40.9-164.6-1.3-329.2-2.6-493.7-4.1-40.1-.4-69.3-23.7-76.1-61.3-1.8-9.7,.3-20.2,.9-30.3,.4-6.8,2-13.5,1.7-20.2-2.3-58-5.3-115.9-7.4-173.9-1.3-36.5-1.4-73.1-2.4-109.6-1.1-43.4,25.8-76.4,68.4-83.7,40.1-6.9,83.8,25.9,87.7,66.5,1.3,14.2,.6,28.7,.3,43-1.3,54.9-2.4,109.9-4.4,164.8-1.4,36.9-4.1,73.8-6.4,110.8-.1,2.1-.7,4.2-1.4,8Zm0-8.6c0-3.3,.2-6.6,0-9.9-2-38.5-4.8-76.9-6.1-115.4-2-59.5-2.9-119.1-4.5-178.6-.2-5.9-1-12-2.6-17.6-6.9-23.3-28.3-38.6-52.9-38.4-26.1,.3-43.4,13.3-50.2,38.8-2.4,9.1-4,18.7-4.3,28.1-1.3,44.2-1.5,88.5-2.9,132.8-1.5,45.8-4.1,91.6-6.2,137.3-.1,2.7,0,5.3,0,9.2,17.3-26.9,40.7-39.7,71-36,29.7,3.7,49,21.3,58.8,49.7Z"/><path class="cls-2" d="M370.5,685.7c-9.8-28.3-29.1-46-58.8-49.7-30.3-3.7-53.7,9.1-71,36,0-3.9-.1-6.6,0-9.2,2.1-45.8,4.7-91.5,6.2-137.3,1.5-44.2,1.7-88.5,2.9-132.8,.3-9.4,1.9-19,4.3-28.1,6.8-25.6,24.1-38.6,50.2-38.8,24.7-.3,46.1,15.1,52.9,38.4,1.7,5.7,2.5,11.7,2.6,17.6,1.6,59.5,2.5,119.1,4.5,178.6,1.3,38.5,4,76.9,6.1,115.4,.2,3.3,0,6.6,0,9.9Z"/></g></g><g id="xCXzPs"><path class="cls-2" d="M634,314.4c.7-1.4,1.6-2.9,3-3.7,1.1-.6,2.5-.7,3.8-.7,11.1,0,22.1,4,30.6,11.1,5,4.1,9.1,9.3,13.9,13.6,13.9,12.4,32.7,17.3,49.5,25.2,6.3,3,12.3,6.4,18.3,9.9,5.7,3.2,11.3,6.5,17,9.7,8,4.6,16.1,9.2,23.5,14.8,2.1,1.6,4.2,3.5,4.6,6.1,.3,2.2-.8,4.2-1.8,6.2-11.7,21.8-23.5,43.6-35.2,65.4-4.1,7.6-8.2,15.2-13.6,21.9-4.1,5-8.9,9.5-11.8,15.2-4.3,8.3-4.3,18.4-8.5,26.7-1.8,3.5-4.2,6.6-6.7,9.7-4.5,5.7-10.8,12.1-17.8,10.2-4.6-1.2-7.6-5.6-11.9-7.6-3.2-1.5-6.8-1.6-10.3-2.3-5.7-1.2-10.8-4.2-15.9-7.2-8.6-5.1-17.2-10.1-25.4-15.9-5.3-3.8-10.5-7.9-14.8-12.7-.8-.9-1.7-1.9-2-3.1-.9-3,1.4-5.9,3.2-8.5,7.6-10.9,7.7-25.2,7.4-38.5-.2-11.6-.4-23.2-2.5-34.5-2.4-12.7-7.1-24.9-12.5-36.7-1.7-3.5-3.4-7.1-4.5-10.8-3-10.1-2.8-20.8,2.9-29.6s11.6-22.7,17.5-33.9Z"/><g><path d="M612.4,348.4c4.1-16,14.7-27.7,23.9-40.1,.6-.8,2.4-1.4,3.3-1.1,14.9,4.6,29.8,9.3,41.8,19.9,3.4,3,6.1,6.8,8.7,10.8-20.2-2-36.7-11.7-52.4-24.5-7.7,12.7-8.2,28.6-20.1,39.2,23.9,20.6,36.7,46.5,38.5,77.5,1.8,30.9-7.3,58.3-28.7,81.8,5.8,2.4,11.4,4.5,16.9,7,19.3,9.1,38.5,18.5,57.8,27.6,10.6,5.1,8.6,4.2,13.7-4.7,18.8-32.7,37.3-65.6,55.5-98.6,7.3-13.2,13.5-26.9,20.4-40.3,1.5-3,1.1-4.8-1.8-6.4-8.7-5.1-17.5-10-26-15.4-5.6-3.6-10.7-7.8-15.5-12.4,18.3,7.1,37.7,11.4,53.5,23.8,3.3,2.6,4.3,4.8,2,8.6-10.5,17.6-21,35.2-31.1,53-7.1,12.5-14,25.1-20.2,38.1-9.5,19.8-18.3,40-27.7,59.9-1.9,4-4.9,7.4-7.6,10.9-2.5,3.1-5.4,3.6-9.2,1.5-27.3-15-54.7-29.7-79.6-48.5-.9-.7-1.9-1.2-3.2-2-11.9,11.4-25.7,19.7-41.8,25.1,3.2,9,6.4,17.6,9.3,26.4,7.8,23.4,15.8,46.7,23.2,70.2,1.8,5.8,2.6,12,2.9,18,.4,6.4-2.3,7.9-7.9,4.8-37.8-21.2-75.6-42.4-113.3-63.9-14.1-8-27.9-16.6-41.8-24.9-3.5-2.1-7-4.4-10.9-6.8,6-12.4,11.7-24.4,17.7-36.4,4.6-9.3,4.6-9.1-2.4-16.5-27.3-28.6-38.7-61.8-27.2-100.5,13.5-45.6,55-77.7,103.4-81.3,25.9-1.9,49.9,3.8,71.8,17.9,1.1,.7,2.3,1.2,4,2.1Zm-29,188.5c2.7-1.6,5.4-3.1,8-4.7,46.4-27.7,65-85.7,43.3-135.2-20.2-46-69.3-72.1-117.6-61.5-32.4,7.1-54.1,27.7-66.4,57.8-17.4,42.7-12.4,83.1,15,120.4,.5,.7,1.3,1.1,2.2,1.8,.8-1.5,1.5-2.6,2-3.8,15.7-31.7,31.3-63.5,47.2-95.1,3.6-7.1,7.8-13.8,12.5-20.2,4.9-6.6,9.2-5.9,12,1.8,2.4,6.7,4.4,13.6,5.8,20.5,8.5,40.2,20.5,79.4,35.9,118.2Zm19.8,102c-23-77.5-40.3-156.5-67.7-232.6-26.8,53.9-58.1,104.9-88.8,156,52.4,25.6,104.1,50.9,156.4,76.5Z"/><path d="M728.5,358.8c-8.3-.4-13.5-4.8-18.5-10.2,9.5-.1,16.2,3.4,18.5,10.2Z"/><path class="cls-2" d="M603.3,638.9c-52.4-25.6-104-50.9-156.4-76.5,30.7-51.1,61.9-102.1,88.8-156,27.4,76.1,44.7,155.1,67.7,232.6Z"/></g></g></svg>