<?xml version="1.0" encoding="UTF-8"?><svg id="Layer_1" xmlns="http://www.w3.org/2000/svg" viewBox="0 0 1024 1024"><defs><style>.cls-1{fill:#ebebec;}.cls-2{fill:#ee2a7b;}.cls-3{fill:#fff;}</style></defs><polygon class="cls-1" points="1015 935 47.8 1026.2 9 27.6 910.4 -2.2 1015 935"/><g id="MBMU89"><path class="cls-2" d="M536.2,286.4c50.3,2.2,99.7,4.3,149,6.7,19.6,1,29.5,10.7,31.1,30.4,4.7,59.4,5,118.8,1.3,178.2-.5,8.1-.8,16.2-1.6,24.3-1.5,15.5-11.5,25.9-27.1,27.2-71.3,6.1-142.7,8.5-214.2,5.5-29.7-1.2-59.3-3.4-89-5.1-21-1.2-31.5-12.4-31.5-33.6,0-64.4,0-128.8,0-193.2,0-21.4,10.1-32.7,31.3-33.7,50.5-2.5,101.1-4.5,150.7-6.7Zm-1.3,70.5c0-.8,0-1.5,0-2.3-33.6,0-67.3,0-100.9,0-18.4,0-30.4,10.9-32.8,28.9-3.9,28.9-3.5,57.7,0,86.7,1.9,15.7,12.2,26.9,27.9,28.5,14.2,1.4,28.4,2.5,42.6,3.4,54.5,3.5,108.9,2.9,163.3-2.8,21.5-2.3,32.5-13.3,32.6-34.8,0-23.8,0-47.6,0-71.5,0-24.5-11.4-35.9-36.2-36-32.2,0-64.3,0-96.5,0Z"/><path class="cls-2" d="M667.4,277.7c-57.7-1.6-114.3-3.3-171.3-4.9,0-12.8-.7-25.6,.2-38.3,.8-12.1,9-20.7,19.1-20.8,44.2-.3,88.3-.3,132.5,0,10.4,0,18.7,9.6,19.3,21.9,.6,13.8,.1,27.7,.1,42Z"/><path class="cls-2" d="M590.8,585.7c.5,14.6-7.7,27.8-21.6,33-17.1,6.4-35,7.1-52.8,5.5-11.2-1-22.4-3.1-33.1-6.5-14.4-4.6-21.1-15.9-22.1-32h129.5Z"/><g><path d="M650.8,292.1c5.5,.5,10.4,.6,15.2,1.4,21.4,3.5,38.9,21.6,42.6,45.1,1.7,11.1,2.5,22.5,2.7,33.7,.8,50.1,1.2,100.3,1.6,150.4,0,7.1,0,14.3-.9,21.3-2.6,23.9-13.4,37.6-37.2,42.3-20.9,4.1-42.3,5.2-63.6,7.5-6.8,.7-13.7,1.1-21,1.7-1.8,13.1-6.1,25.4-15.8,34.2-9.1,8.3-19.7,14.9-32,23.9,.9,.5,3.8,1.1,5.6,2.9,35.9,35.7,71.7,71.5,107.4,107.3,1.7,1.7,4.4,3.4,4.8,5.4,.5,3.2,.4,7.6-1.5,9.7-1.4,1.6-6.5,1.5-9,.3-3.4-1.6-6-5-8.8-7.8-36.5-36.5-73.1-72.9-109.2-109.8-6.6-6.7-13-8.5-22.2-5.9-.1,2.3-.3,4.9-.3,7.5,0,31,0,61.9,0,92.9,0,2.7,.4,5.9-.8,7.9-1.5,2.3-4.6,5-7,5-2.4,0-5.5-2.7-7.1-5-1.2-1.7-.8-4.7-.8-7.2,0-31.7,0-63.4-.2-95.1,0-2.9-1.3-7.7-3.1-8.3-4.6-1.6-9.4-4-14.6,1.4-18,18.9-36.6,37-55.1,55.4-22.9,22.9-45.9,45.9-68.8,68.8-1.6,1.6-3.1,4-4.9,4.3-3,.5-7.4,.8-9.1-.9-1.8-1.7-2-6.2-1.3-9.1,.5-2.3,3.3-4.1,5.2-6,38.9-38.9,77.8-77.9,116.8-116.7,1.9-1.9,4.5-3,7.7-5-5.2-3.3-8-5.4-11-6.9-14.4-7.3-22-19.3-23.7-34.9-.6-6-3.3-6.8-8.5-7.1-20.6-1-41.2-2-61.7-4-35.6-3.5-49.7-29-50.7-58.1-.6-18.2,0-36.4,.1-54.5,0-1.7-.2-3.3-.3-5.3-7.6-.6-14.8-1.2-22.8-1.8,1,10.4-6.1,14.7-13.3,19.4-18.5,11.7-36.7,23.8-55.1,35.5-4.5,2.9-9.4,5.4-14.4,7.4-11.4,4.5-20.9-.2-23.9-12-1.5-5.9-2-12.1-2-18.2,0-58.2,.3-116.5,.5-174.7,0-1.5,0-3,0-4.4,1.2-11.9,12.6-18,22.6-11.2,26.4,17.9,52.6,36.1,78.5,54.8,3.4,2.5,5,8,6.6,12.3,1,2.6,.4,5.7,.6,9.1h22.9c0-9.4,0-18.4,0-27.4,0-8.6-.2-17.2,0-25.8,.8-25.6,18.8-43.7,44.4-44.8,2.9-.1,5.8-.5,8.6-.7,4.9-21.2,12.5-29.6,26.8-29.9,13.6-.3,22.6,8.1,27.3,25.6h47.3c0-8.4,0-15.7,0-23.1,.1-20.2,13-33.8,33.3-34.6,27-1.1,54.1-1.1,81.1-1.1,23.7,0,45.7-.4,63.7,17.6,12.5,12.6,8.4,29.3,7.2,45.3Zm-142,9.5c-49.6,2.2-100.2,4.2-150.7,6.7-21.2,1-31.3,12.3-31.3,33.7,0,64.4,0,128.8,0,193.2,0,21.2,10.5,32.3,31.5,33.6,29.7,1.7,59.3,3.9,89,5.1,71.5,2.9,142.9,.6,214.2-5.5,15.5-1.3,25.6-11.8,27.1-27.2,.8-8.1,1.1-16.2,1.6-24.3,3.6-59.4,3.3-118.9-1.3-178.2-1.5-19.6-11.5-29.4-31.1-30.4-49.3-2.4-98.6-4.4-149-6.7Zm-312.7,27.5c-.3,2-.5,2.9-.5,3.8-.4,58.7-.7,117.5-.9,176.2,0,4.2,1.2,8.4,2,13.2,3.2-1.4,5.1-2,6.8-3,22-13.9,44-27.8,65.8-42.1,2-1.3,3.1-5.2,3.2-8,.2-27,0-54.1,.2-81.1,0-4.4-1.3-7.1-5-9.6-18.9-12.8-37.6-26-56.3-39-4.8-3.3-9.5-6.6-15.1-10.4Zm430.2-39.2c0-9.8,.4-19.4-.1-28.9-.5-8.5-7.5-15-16.3-15.1-37.3-.2-74.7-.2-112,0-8.6,0-15.4,6-16.2,14.3-.7,8.7-.2,17.6-.2,26.3,48.2,1.1,96,2.2,144.8,3.4Zm-62.1,308h-117.4c.9,14.6,6.9,24.9,20,29,9.7,3.1,19.9,5,30,5.9,16.2,1.5,32.4,.8,47.9-5,12.5-4.7,20-16.7,19.5-29.9Zm-275.8-190.7v45.2h22.4v-45.2h-22.4Zm113.5-117.4c-.8-8.5-5.1-12.5-11.9-11.6-6.2,.8-9.2,5.3-8,13,6.6-.5,13.3-.9,20-1.4Z"/><path class="cls-3" d="M196.1,329.1c5.6,3.8,10.3,7.1,15.1,10.4,18.8,13,37.4,26.2,56.3,39,3.7,2.5,5,5.2,5,9.6-.2,27,0,54.1-.2,81.1,0,2.7-1.2,6.7-3.2,8-21.8,14.3-43.8,28.2-65.8,42.1-1.6,1-3.5,1.6-6.8,3-.7-4.8-2-9-2-13.2,.2-58.7,.6-117.5,.9-176.2,0-.9,.2-1.7,.5-3.8Zm22.4,106.4c-.2,0-.5,0-.7,0,0,11,0,22.1,0,33.1,0,5.2,2.3,8.7,7.7,8.7,5,0,7.7-3.3,7.5-8.2-1.2-30.8-2.5-61.6-4-92.4-.2-5-3.5-8.2-8.9-7.4-5,.7-6.7,4.3-6.4,9.1,0,1,.2,1.9,.3,2.9,1.5,18.1,3.1,36.1,4.6,54.2Z"/><path class="cls-3" d="M288.3,407.2h22.4v45.2h-22.4v-45.2Z"/><path class="cls-3" d="M401.7,289.8c-6.7,.5-13.3,.9-20,1.4-1.1-7.6,1.8-12.2,8-13,6.8-.9,11.2,3.2,11.9,11.6Z"/><path d="M507.5,372c32.2,0,64.3,0,96.5,0,24.7,0,36.1,11.5,36.2,36,0,23.8,0,47.6,0,71.5,0,21.5-11.1,32.5-32.6,34.8-54.4,5.7-108.8,6.4-163.3,2.8-14.2-.9-28.4-1.9-42.6-3.4-15.7-1.6-26-12.8-27.9-28.5-3.5-28.9-3.9-57.7,0-86.7,2.4-18,14.4-28.9,32.8-28.9,33.6,0,67.3,0,100.9,0,0,.8,0,1.5,0,2.3Zm-1.3,15.4c0-.7,0-1.3,0-2-32.9,0-65.8,0-98.7,0-12.2,0-17.1,4.8-18.7,16.9-3.4,26.5-3,52.9,0,79.3,1.3,10.7,5.7,15.6,16.1,16.6,67.6,6.9,135.2,8.4,202.9,.1,12.3-1.5,16.8-6.3,16.9-18.6,0-24.1,0-48.1,0-72.2,0-15.1-5.2-20.1-20.5-20.1-32.7,0-65.3,0-98,0Z"/><path d="M218.4,435.4c-1.5-18.1-3.1-36.1-4.6-54.2,0-1-.2-1.9-.3-2.9-.3-4.8,1.4-8.4,6.4-9.1,5.4-.8,8.7,2.4,8.9,7.4,1.5,30.8,2.8,61.6,4,92.4,.2,4.8-2.4,8.2-7.5,8.2-5.4,0-7.7-3.5-7.7-8.7,0-11,0-22.1,0-33.1,.2,0,.5,0,.7,0Z"/><path class="cls-3" d="M506.2,387.5c32.7,0,65.3,0,98,0,15.4,0,20.5,5.1,20.5,20.1,0,24.1,0,48.1,0,72.2,0,12.3-4.5,17.1-16.9,18.6-67.6,8.3-135.2,6.8-202.9-.1-10.4-1.1-14.8-5.9-16.1-16.6-3.1-26.5-3.5-52.9,0-79.3,1.6-12.1,6.5-16.9,18.7-16.9,32.9,0,65.8,0,98.7,0,0,.7,0,1.3,0,2Z"/></g></g></svg>