<?xml version="1.0" encoding="UTF-8"?><svg id="Layer_1" xmlns="http://www.w3.org/2000/svg" viewBox="0 0 1024 1024"><defs><style>.cls-1{fill:#ebebec;}.cls-2{fill:#fff;}.cls-3{fill:#edc022;}</style></defs><polygon class="cls-1" points="29.9 2 1028.6 11.8 949.8 1022 -4.6 946.6 29.9 2"/><g id="MBMU89"><path class="cls-3" d="M568.8,258.9c51.1,2.3,101.2,4.3,151.2,6.8,19.8,1,30,10.9,31.5,30.8,4.7,60.3,5,120.6,1.4,180.9-.5,8.2-.8,16.4-1.6,24.6-1.5,15.7-11.7,26.3-27.5,27.6-72.4,6.2-144.9,8.6-217.4,5.6-30.1-1.2-60.2-3.5-90.3-5.2-21.3-1.2-32-12.5-32-34.1,0-65.3,0-130.7,0-196,0-21.7,10.2-33.2,31.8-34.2,51.3-2.5,102.6-4.6,153-6.8Zm-1.3,71.5c0-.8,0-1.5,0-2.3-34.1,0-68.3,0-102.4,0-18.7,0-30.9,11.1-33.3,29.3-3.9,29.4-3.5,58.6,0,87.9,1.9,15.9,12.4,27.3,28.3,28.9,14.4,1.5,28.8,2.5,43.2,3.4,55.3,3.6,110.5,2.9,165.7-2.9,21.8-2.3,33-13.5,33.1-35.3,0-24.2,0-48.4,0-72.5,0-24.9-11.6-36.5-36.7-36.5-32.6,0-65.3,0-97.9,0Z"/><path class="cls-3" d="M702,250c-58.6-1.7-116-3.3-173.8-5,0-12.9-.7-26,.2-38.9,.8-12.2,9.1-21,19.4-21.1,44.8-.3,89.7-.3,134.5,0,10.5,0,19,9.7,19.6,22.2,.7,14,.2,28.1,.2,42.7Z"/><path class="cls-3" d="M624.3,562.6c.5,14.8-7.8,28.2-21.9,33.5-17.3,6.5-35.5,7.2-53.6,5.6-11.3-1-22.8-3.1-33.6-6.6-14.6-4.7-21.4-16.2-22.4-32.5h131.4Z"/><g><path d="M685.2,264.6c5.6,.5,10.5,.7,15.4,1.4,21.7,3.5,39.5,21.9,43.2,45.8,1.8,11.3,2.6,22.8,2.8,34.2,.8,50.9,1.2,101.8,1.7,152.6,0,7.2,0,14.5-.9,21.6-2.7,24.3-13.6,38.2-37.7,42.9-21.2,4.2-43,5.2-64.5,7.6-6.9,.7-13.9,1.1-21.3,1.7-1.9,13.3-6.2,25.7-16,34.7-9.2,8.4-20,15.1-32.4,24.3,1,.5,3.9,1.2,5.7,3,36.4,36.2,72.7,72.6,109,108.9,1.8,1.8,4.5,3.5,4.8,5.5,.5,3.2,.4,7.7-1.5,9.8-1.4,1.6-6.5,1.5-9.1,.3-3.4-1.7-6.1-5.1-8.9-7.9-37-37.1-74.2-74-110.8-111.4-6.7-6.8-13.2-8.7-22.6-6-.1,2.4-.3,5-.4,7.6,0,31.4,0,62.9,0,94.3,0,2.7,.4,6-.8,8-1.5,2.4-4.7,5.1-7.1,5.1-2.5,0-5.5-2.7-7.2-5-1.2-1.7-.8-4.8-.8-7.3,0-32.2,0-64.4-.2-96.5,0-2.9-1.3-7.8-3.1-8.4-4.7-1.6-9.6-4.1-14.8,1.5-18.2,19.1-37.2,37.6-55.9,56.3-23.3,23.3-46.5,46.6-69.8,69.8-1.6,1.6-3.1,4-5,4.4-3.1,.5-7.5,.8-9.3-1-1.8-1.8-2-6.3-1.3-9.2,.5-2.3,3.4-4.2,5.3-6.1,39.5-39.5,79-79,118.5-118.5,1.9-1.9,4.6-3,7.8-5.1-5.3-3.4-8.1-5.5-11.2-7-14.6-7.4-22.4-19.6-24.1-35.5-.6-6-3.3-6.9-8.6-7.2-20.9-1-41.8-2-62.6-4-36.2-3.5-50.5-29.4-51.4-59-.6-18.4,0-36.9,.2-55.4,0-1.7-.2-3.4-.3-5.4-7.7-.6-15-1.2-23.2-1.8,1.1,10.5-6.2,15-13.5,19.6-18.7,11.9-37.2,24.1-55.9,36-4.6,2.9-9.5,5.5-14.6,7.5-11.5,4.5-21.2-.2-24.2-12.1-1.5-6-2-12.3-2-18.5,0-59.1,.3-118.2,.5-177.3,0-1.5,0-3,0-4.5,1.2-12.1,12.8-18.2,22.9-11.4,26.8,18.2,53.4,36.7,79.7,55.6,3.5,2.5,5.1,8.1,6.7,12.5,1,2.6,.4,5.8,.6,9.3h23.3c0-9.5,0-18.7,0-27.8,0-8.7-.2-17.5,0-26.2,.8-26,19.1-44.3,45.1-45.5,3-.1,5.9-.5,8.7-.7,5-21.6,12.7-30,27.2-30.4,13.8-.3,22.9,8.2,27.7,25.9h48c0-8.5,0-16,0-23.4,.1-20.5,13.2-34.3,33.8-35.1,27.4-1.1,54.9-1.1,82.3-1.1,24.1,0,46.4-.4,64.6,17.9,12.7,12.8,8.5,29.7,7.3,46Zm-144.2,9.6c-50.4,2.2-101.7,4.3-153,6.8-21.5,1-31.7,12.5-31.8,34.2,0,65.3,0,130.7,0,196,0,21.5,10.7,32.8,32,34.1,30.1,1.7,60.2,4,90.3,5.2,72.6,3,145.1,.7,217.4-5.6,15.8-1.4,25.9-11.9,27.5-27.6,.8-8.2,1.1-16.4,1.6-24.6,3.7-60.3,3.4-120.6-1.4-180.9-1.6-19.9-11.7-29.8-31.5-30.8-50-2.4-100.1-4.5-151.2-6.8Zm-317.4,28c-.3,2-.5,2.9-.5,3.8-.4,59.6-.7,119.2-.9,178.8,0,4.2,1.2,8.5,2,13.4,3.3-1.4,5.2-2,6.9-3,22.3-14.1,44.7-28.2,66.7-42.7,2-1.3,3.2-5.3,3.2-8.1,.2-27.4,0-54.9,.2-82.3,0-4.5-1.3-7.2-5.1-9.7-19.2-13-38.1-26.4-57.2-39.6-4.8-3.4-9.7-6.7-15.3-10.5Zm436.6-39.8c0-10,.4-19.7-.1-29.3-.5-8.6-7.6-15.2-16.6-15.3-37.9-.2-75.8-.2-113.7,0-8.7,0-15.7,6.1-16.4,14.5-.8,8.9-.2,17.8-.2,26.7,48.9,1.1,97.4,2.3,147,3.4Zm-63.1,312.6h-119.2c.9,14.8,7,25.3,20.3,29.5,9.8,3.1,20.2,5,30.4,6,16.4,1.5,32.9,.8,48.6-5.1,12.7-4.8,20.3-16.9,19.8-30.4Zm-279.9-193.6v45.8h22.7v-45.8h-22.7Zm115.2-119.1c-.8-8.6-5.2-12.7-12.1-11.8-6.3,.8-9.3,5.4-8.2,13.2,6.7-.5,13.5-.9,20.3-1.4Z"/><path class="cls-2" d="M223.6,302.2c5.6,3.9,10.5,7.2,15.3,10.5,19,13.2,38,26.6,57.2,39.6,3.8,2.6,5.1,5.2,5.1,9.7-.2,27.4,0,54.9-.2,82.3,0,2.8-1.2,6.8-3.2,8.1-22.1,14.5-44.4,28.6-66.7,42.7-1.6,1-3.6,1.6-6.9,3-.8-4.9-2-9.2-2-13.4,.2-59.6,.6-119.2,.9-178.8,0-.9,.2-1.8,.5-3.8Zm22.7,107.9c-.2,0-.5,0-.7,0,0,11.2,0,22.4,0,33.6,0,5.3,2.4,8.8,7.9,8.8,5.1,0,7.8-3.4,7.6-8.3-1.2-31.3-2.5-62.5-4.1-93.8-.3-5.1-3.5-8.3-9.1-7.5-5.1,.8-6.8,4.4-6.5,9.2,0,1,.2,2,.3,3,1.6,18.3,3.1,36.6,4.7,55Z"/><path class="cls-2" d="M317.2,381.4h22.7v45.8h-22.7v-45.8Z"/><path class="cls-2" d="M432.3,262.3c-6.8,.5-13.5,.9-20.3,1.4-1.2-7.8,1.8-12.3,8.2-13.2,6.9-.9,11.3,3.2,12.1,11.8Z"/><path d="M539.7,345.8c32.6,0,65.3,0,97.9,0,25.1,0,36.7,11.7,36.7,36.5,0,24.2,0,48.4,0,72.5,0,21.8-11.3,33-33.1,35.3-55.2,5.8-110.4,6.5-165.7,2.9-14.4-.9-28.8-2-43.2-3.4-15.9-1.6-26.4-13-28.3-28.9-3.6-29.3-4-58.6,0-87.9,2.5-18.3,14.6-29.3,33.3-29.3,34.1,0,68.3,0,102.4,0,0,.8,0,1.5,0,2.3Zm-1.3,15.7c0-.7,0-1.4,0-2-33.4,0-66.8,0-100.2,0-12.3,0-17.4,4.9-19,17.1-3.5,26.9-3.1,53.7,.1,80.5,1.3,10.8,5.8,15.8,16.3,16.9,68.6,7,137.2,8.6,205.9,.1,12.5-1.5,17.1-6.4,17.1-18.9,0-24.4,0-48.9,0-73.3,0-15.3-5.2-20.4-20.8-20.4-33.1,0-66.3,0-99.4,0Z"/><path d="M246.3,410.1c-1.6-18.3-3.1-36.6-4.7-55,0-1-.2-2-.3-3-.3-4.8,1.4-8.5,6.5-9.2,5.5-.8,8.8,2.4,9.1,7.5,1.6,31.3,2.9,62.5,4.1,93.8,.2,4.9-2.5,8.3-7.6,8.3-5.5,0-7.9-3.5-7.9-8.8,0-11.2,0-22.4,0-33.6,.2,0,.5,0,.7,0Z"/><path class="cls-2" d="M538.4,361.4c33.1,0,66.3,0,99.4,0,15.6,0,20.8,5.1,20.8,20.4,0,24.4,0,48.9,0,73.3,0,12.5-4.6,17.4-17.1,18.9-68.6,8.4-137.3,6.9-205.9-.1-10.5-1.1-15-6-16.3-16.9-3.2-26.8-3.6-53.7-.1-80.5,1.6-12.3,6.6-17.1,19-17.1,33.4,0,66.8,0,100.2,0,0,.7,0,1.4,0,2Z"/></g></g></svg>